<?xml version="1.0" ?>
<svg xmlns="http://www.w3.org/2000/svg" version="1.1" width="500" height="500">
  <defs/>
  <g>
    <path d="M 299.6563720703125 50.71818923950195 C 259.22064208984375 48.05320739746094 262.40277099609375 50.605098724365234 236.5806427001953 66.5392837524414 C 218.77976989746094 89.77761840820312 195.32943725585938 112.61064147949219 183.06602478027344 139.7727813720703 C 161.7668914794922 138.54127502441406 111.33226776123047 138.37913513183594 81.00588989257812 140.309326171875 C 72.9721908569336 146.2702178955078 57.69114685058594 148.7073211669922 49.60794448852539 161.84178161621094 C 46.18832778930664 211.13174438476562 53.69295883178711 215.1217803955078 59.62089157104492 257.8984375 C 77.4019546508789 274.51275634765625 94.85235595703125 280.3364562988281 111.81454467773438 298.23211669921875 C 100.71200561523438 314.29608154296875 85.14366912841797 313.98699951171875 77.2462387084961 336.51739501953125 C 76.81273651123047 349.500732421875 76.4101333618164 366.3450927734375 78.4174575805664 380.4716491699219 C 85.6706771850586 404.5099792480469 96.6528549194336 413.5961608886719 108.47050476074219 433.7898864746094 C 151.173828125 433.9100036621094 140.42333984375 436.1548156738281 170.00442504882812 429.0917663574219 C 196.11595153808594 417.07733154296875 219.7498779296875 398.0009765625 249.66810607910156 384.60858154296875 C 264.1913757324219 399.47650146484375 276.67645263671875 430.4659729003906 292.6588134765625 451.91790771484375 C 312.40570068359375 450.2440490722656 338.6083068847656 440.24798583984375 343.0133361816406 430.26568603515625 C 352.0262756347656 398.3609313964844 348.26849365234375 342.1988525390625 342.10076904296875 302.3085021972656 C 367.7910461425781 303.3742370605469 387.4018249511719 281.2281494140625 413.8415222167969 271.229736328125 C 422.1540222167969 261.33624267578125 418.0085754394531 250.1143798828125 419.1839599609375 217.5830078125 C 400.03216552734375 189.88938903808594 395.0347900390625 174.4864501953125 362.7811279296875 151.95155334472656 C 360.99505615234375 149.8257598876953 326.9839172363281 152.2130889892578 334.8637390136719 150.32034301757812 C 334.920166015625 147.36398315429688 335.4889221191406 117.5984878540039 334.0057373046875 114.3829574584961 C 316.2532043457031 90.60675811767578 319.11383056640625 58.633628845214844 299.6563720703125 50.71818923950195" stroke-width="0.0" fill="rgb(0, 0, 0)" opacity="1.0" stroke="rgb(0, 0, 0)" stroke-opacity="1.0" stroke-linecap="round" stroke-linejoin="round"/>
  </g>
</svg>
