<?xml version="1.0" ?>
<svg xmlns="http://www.w3.org/2000/svg" version="1.1" width="500" height="500">
  <defs/>
  <g>
    <path d="M 238.48818969726562 62.38662338256836 C 238.96340942382812 52.1612548828125 235.30677795410156 52.93639373779297 260.0460510253906 61.16780090332031 C 246.89743041992188 81.50875091552734 231.8707275390625 99.14606475830078 216.76512145996094 116.73998260498047 C 201.19761657714844 133.8240203857422 185.4945526123047 150.7810516357422 166.35504150390625 163.7885284423828 C 159.72891235351562 162.55984497070312 159.01101684570312 153.2323455810547 169.14036560058594 145.8207550048828 C 185.5604705810547 161.77024841308594 197.78927612304688 196.15103149414062 122.020751953125 293.615234375 C 128.6244659423828 318.9679260253906 132.8057861328125 344.4487609863281 175.08729553222656 361.30120849609375 C 251.27235412597656 228.82546997070312 243.15341186523438 206.1198272705078 208.08575439453125 185.77357482910156 C 117.7784423828125 244.2038116455078 149.2661590576172 294.7170715332031 134.59579467773438 300.3894958496094 C 113.92916107177734 329.9100341796875 89.17278289794922 355.1423034667969 62.122283935546875 378.1148376464844 C 53.99506759643555 375.74481201171875 53.618106842041016 362.62860107421875 62.98609924316406 356.6453857421875 C 89.29898071289062 382.0565490722656 113.91851043701172 408.7684326171875 136.46595764160156 437.7619323730469 C 134.2654266357422 446.3680725097656 120.64692687988281 446.8990478515625 115.66474914550781 437.2149658203125 C 139.3717803955078 408.3872375488281 164.3570098876953 381.3728942871094 192.29275512695312 356.20867919921875 C 208.41714477539062 362.4667053222656 203.58932495117188 332.8871154785156 194.5025634765625 373.24749755859375 C 175.505126953125 370.7207336425781 169.04617309570312 367.75360107421875 226.8801727294922 264.2977600097656 C 207.5769500732422 250.8783721923828 231.28924560546875 246.46083068847656 240.08470153808594 245.09930419921875 C 253.38143920898438 227.76406860351562 268.1461181640625 209.8683624267578 283.2194519042969 192.241943359375 C 298.78668212890625 175.48684692382812 314.4124450683594 158.778564453125 332.2142639160156 144.63662719726562 C 340.0081787109375 151.94508361816406 339.78375244140625 162.318115234375 330.9198913574219 167.26657104492188 C 298.5919494628906 134.04945373535156 267.91693115234375 99.39041900634766 238.48818969726562 62.38662338256836" stroke-width="0.0" fill="rgb(0, 0, 0)" opacity="1.0" stroke="rgb(0, 0, 0)" stroke-opacity="1.0" stroke-linecap="round" stroke-linejoin="round"/>
  </g>
</svg>
