<?xml version="1.0" ?>
<svg xmlns="http://www.w3.org/2000/svg" version="1.1" width="500" height="500">
  <defs/>
  <g>
    <path d="M 54.99911880493164 63.19541549682617 C 44.13346862792969 111.00949096679688 49.48919677734375 142.83482360839844 71.12650299072266 175.13551330566406 C 92.20597839355469 213.69744873046875 145.89573669433594 204.121826171875 183.6528778076172 265.974853515625 C 228.86343383789062 285.23931884765625 262.55230712890625 292.0466003417969 327.3292236328125 268.7687683105469 C 343.79815673828125 285.4435729980469 368.4755859375 300.49169921875 395.0160217285156 310.64404296875 C 428.7882385253906 319.7145080566406 439.371337890625 316.832275390625 446.92578125 309.2491455078125 C 453.6002197265625 293.82952880859375 450.01861572265625 282.8905334472656 436.4698791503906 277.22161865234375 C 404.27044677734375 277.4276123046875 385.9404602050781 263.7178955078125 362.6202392578125 246.01084899902344 C 377.7679443359375 231.66189575195312 391.1505126953125 214.82505798339844 395.8346252441406 188.78414916992188 C 397.2006530761719 164.49119567871094 389.7323303222656 148.1215362548828 368.6500549316406 140.50494384765625 C 340.82073974609375 133.0027313232422 319.8804626464844 145.5284423828125 305.9798889160156 164.1414031982422 C 291.7137451171875 180.85507202148438 286.3994140625 205.30467224121094 300.5180358886719 235.44322204589844 C 280.5743103027344 242.12319946289062 255.6770782470703 246.49069213867188 231.34413146972656 240.49794006347656 C 214.08056640625 235.7074737548828 199.2867889404297 226.93624877929688 192.31866455078125 216.7012939453125 C 220.16810607910156 207.6851348876953 247.09410095214844 194.22377014160156 261.771728515625 173.1128692626953 C 274.28094482421875 148.40008544921875 265.7587890625 127.41134643554688 256.0672302246094 113.495849609375 C 243.068603515625 101.01777648925781 229.49224853515625 89.85944366455078 201.5407257080078 100.86589050292969 C 168.82408142089844 117.5213623046875 153.44717407226562 145.47100830078125 145.50587463378906 177.76776123046875 C 115.84159088134766 171.31695556640625 104.79293823242188 154.8371124267578 95.08067321777344 137.68844604492188 C 79.79796600341797 94.18907165527344 97.39529418945312 77.03369903564453 92.09642791748047 62.35018539428711 C 83.59671020507812 41.928123474121094 58.92497634887695 48.71879959106445 54.99911880493164 63.19541549682617" stroke-width="0.0" fill="rgb(0, 0, 0)" opacity="1.0" stroke="rgb(0, 0, 0)" stroke-opacity="1.0" stroke-linecap="round" stroke-linejoin="round"/>
  </g>
</svg>
