<?xml version="1.0" ?>
<svg xmlns="http://www.w3.org/2000/svg" version="1.1" width="500" height="500">
  <defs/>
  <g>
    <path d="M 442.8909606933594 63.71652603149414 C 439.65948486328125 55.93391799926758 435.376708984375 53.678001403808594 430.6088562011719 50.262298583984375 C 366.1922302246094 48.91582489013672 321.25579833984375 51.52948760986328 263.1092834472656 50.8608283996582 C 221.97430419921875 52.35820007324219 173.9633026123047 53.43552017211914 122.93146514892578 52.936771392822266 C 102.06084442138672 56.500511169433594 104.21747589111328 49.873714447021484 78.50736999511719 58.38273239135742 C 69.63443756103516 62.70076370239258 60.87846374511719 68.38534545898438 58.78491973876953 81.2698745727539 C 58.50067901611328 104.8598403930664 80.0006103515625 111.21863555908203 78.00701141357422 126.92488098144531 C 78.04527282714844 142.566650390625 57.636253356933594 147.63551330566406 49.772029876708984 168.37371826171875 C 50.64291000366211 166.2891845703125 48.86515808105469 189.235595703125 51.31650161743164 197.7259063720703 C 55.19155502319336 209.45603942871094 59.678401947021484 217.22885131835938 70.70277404785156 222.8944091796875 C 99.08153533935547 223.071044921875 129.62966918945312 223.05084228515625 158.71392822265625 223.056884765625 C 187.05703735351562 223.09524536132812 217.0370330810547 223.0711212158203 247.70437622070312 223.0588836669922 C 276.9575500488281 222.99838256835938 306.2088928222656 223.07176208496094 334.017822265625 223.03662109375 C 364.66424560546875 222.9895477294922 395.1130676269531 222.90744018554688 424.5157470703125 223.0081024169922 C 433.39752197265625 219.94810485839844 436.3306579589844 214.5956268310547 441.37481689453125 210.1437530517578 C 445.30609130859375 203.27093505859375 447.5896301269531 198.3218536376953 450.1000671386719 189.05862426757812 C 449.54486083984375 181.02317810058594 450.8644104003906 172.00192260742188 448.3390197753906 168.56138610839844 C 438.48016357421875 154.63902282714844 429.7424011230469 142.6960906982422 426.5734558105469 123.98497009277344 C 425.6827087402344 119.77503967285156 425.0457458496094 108.27349853515625 428.2425231933594 103.42021942138672 C 432.74102783203125 98.98958587646484 439.1836242675781 89.29562377929688 442.1670227050781 82.33316802978516 C 445.0449523925781 72.05078125 444.3735656738281 72.63070678710938 442.8909606933594 63.71652603149414" stroke-width="0.0" fill="rgb(0, 0, 0)" opacity="1.0" stroke="rgb(0, 0, 0)" stroke-opacity="1.0" stroke-linecap="round" stroke-linejoin="round"/>
  </g>
</svg>
