<?xml version="1.0" ?>
<svg xmlns="http://www.w3.org/2000/svg" version="1.1" width="500" height="500">
  <defs/>
  <g>
    <path d="M 61.47057342529297 80.64899444580078 C 56.742576599121094 133.43064880371094 54.70613479614258 187.35723876953125 52.97461700439453 261.3984069824219 C 53.95572280883789 314.60906982421875 50.91021728515625 366.5942687988281 49.6656608581543 416.17498779296875 C 53.13491439819336 429.42718505859375 67.38633728027344 436.9739990234375 74.33061981201172 440.86297607421875 C 85.9227294921875 445.1086730957031 96.4906005859375 447.62054443359375 111.85840606689453 450.07861328125 C 186.85316467285156 450.02227783203125 244.01805114746094 448.7325439453125 327.6707458496094 450.3514709472656 C 345.0972595214844 447.867431640625 353.0873718261719 444.6295471191406 361.37548828125 438.61578369140625 C 367.293701171875 431.1617431640625 373.7427062988281 424.0659484863281 376.6294250488281 414.5084533691406 C 381.31475830078125 402.1637878417969 383.8282165527344 388.0799255371094 385.96246337890625 369.6531066894531 C 386.6822509765625 281.3065185546875 382.7604675292969 189.4081573486328 381.5084228515625 97.51161193847656 C 377.9275207519531 92.64266204833984 371.8662414550781 88.18031311035156 367.100341796875 87.00509643554688 C 358.3893127441406 82.7645034790039 348.0932312011719 81.75019836425781 336.5357360839844 79.3912582397461 C 308.2547607421875 75.5357894897461 271.1669006347656 74.48263549804688 238.9219207763672 75.0551528930664 C 241.27745056152344 63.80024337768555 241.61642456054688 62.60279083251953 239.96026611328125 63.366634368896484 C 240.82395935058594 55.04288864135742 234.50172424316406 51.92714309692383 233.637939453125 50.00168228149414 C 232.389892578125 50.0169677734375 223.51824951171875 50.11915588378906 217.89817810058594 49.871612548828125 C 213.7530059814453 52.6850471496582 209.75991821289062 55.490394592285156 207.92408752441406 59.99054718017578 C 199.69932556152344 56.27544021606445 197.67848205566406 55.336692810058594 187.92869567871094 55.99401092529297 C 182.99652099609375 56.86762237548828 179.81019592285156 61.28569793701172 179.0603485107422 62.65373992919922 C 178.13768005371094 69.32717895507812 180.6656951904297 74.40619659423828 184.46209716796875 76.79756927490234 C 141.46063232421875 79.2646713256836 107.36648559570312 82.2723617553711 61.47057342529297 80.64899444580078" stroke-width="0.0" fill="rgb(0, 0, 0)" opacity="1.0" stroke="rgb(0, 0, 0)" stroke-opacity="1.0" stroke-linecap="round" stroke-linejoin="round"/>
  </g>
</svg>
