<?xml version="1.0" ?>
<svg xmlns="http://www.w3.org/2000/svg" version="1.1" width="500" height="500">
  <defs/>
  <g>
    <path d="M 427.3580017089844 62.784610748291016 C 396.5033264160156 66.10615539550781 400.4275817871094 54.92021560668945 374.5957336425781 49.9781379699707 C 350.12957763671875 49.80921173095703 341.7009582519531 48.75796127319336 328.2289123535156 54.25028610229492 C 307.5344543457031 60.349788665771484 292.8324890136719 69.78722381591797 275.5840148925781 87.93091583251953 C 267.14459228515625 104.97077178955078 259.09063720703125 108.5029296875 241.22084045410156 124.30109405517578 C 218.52752685546875 122.88044738769531 213.56285095214844 124.63296508789062 198.77346801757812 133.8482666015625 C 189.65293884277344 143.27978515625 184.01487731933594 147.78981018066406 180.24691772460938 165.36143493652344 C 177.81329345703125 177.5074920654297 178.98031616210938 195.89862060546875 181.71726989746094 199.50994873046875 C 167.64605712890625 215.86256408691406 152.9154052734375 226.74903869628906 147.37680053710938 247.92478942871094 C 139.9917755126953 271.87274169921875 144.3238983154297 304.27203369140625 150.16981506347656 320.9941101074219 C 121.0635757446289 338.4115905761719 89.64217376708984 349.0050354003906 55.33341979980469 360.1536865234375 C 46.57476043701172 369.2680358886719 51.16228485107422 362.3056335449219 49.9076042175293 378.2393493652344 C 52.335147857666016 381.81976318359375 57.44926452636719 385.8638916015625 64.30229949951172 384.9646911621094 C 99.72294616699219 372.7657470703125 132.41357421875 362.21575927734375 162.83139038085938 343.4936218261719 C 184.54986572265625 364.6998291015625 210.81768798828125 379.8082580566406 246.32388305664062 386.5022277832031 C 292.4116516113281 389.66815185546875 311.12701416015625 384.38873291015625 333.5618591308594 369.1318054199219 C 357.7467956542969 353.0089416503906 353.9432067871094 324.8376770019531 375.45404052734375 316.8269348144531 C 402.01641845703125 310.91778564453125 419.7724304199219 288.02001953125 428.15911865234375 268.904052734375 C 435.1248474121094 240.31011962890625 425.9895324707031 244.62188720703125 429.4452819824219 205.43704223632812 C 435.84674072265625 198.51422119140625 450.78765869140625 175.0974884033203 450.04754638671875 152.87628173828125 C 451.9855651855469 100.0121078491211 426.1514892578125 107.05331420898438 427.3580017089844 62.784610748291016" stroke-width="0.0" fill="rgb(0, 0, 0)" opacity="1.0" stroke="rgb(0, 0, 0)" stroke-opacity="1.0" stroke-linecap="round" stroke-linejoin="round"/>
  </g>
</svg>
