<?xml version="1.0" ?>
<svg xmlns="http://www.w3.org/2000/svg" version="1.1" width="500" height="500">
  <defs/>
  <g>
    <path d="M 52.11066436767578 85.36937713623047 C 49.465633392333984 85.80094146728516 46.867305755615234 113.60944366455078 54.47803497314453 133.17440795898438 C 71.04155731201172 179.77732849121094 89.6285400390625 223.33778381347656 112.19049835205078 257.8544616699219 C 113.89059448242188 257.3148193359375 130.1229705810547 263.03717041015625 142.90847778320312 254.23985290527344 C 155.10134887695312 251.36366271972656 155.67628479003906 243.68228149414062 152.89962768554688 201.63829040527344 C 194.03826904296875 250.33248901367188 204.3160858154297 261.9552307128906 278.9469299316406 237.15953063964844 C 232.69296264648438 266.9959716796875 238.50100708007812 273.5741271972656 258.6515808105469 300.468017578125 C 270.7333984375 302.7362060546875 294.38714599609375 297.2947998046875 280.1974182128906 300.6825256347656 C 312.6368713378906 294.2137145996094 341.57281494140625 284.081787109375 372.4986572265625 275.90289306640625 C 401.0018615722656 265.5057373046875 430.4806213378906 255.5108184814453 447.90533447265625 242.6986541748047 C 446.9583435058594 243.2965087890625 452.6220703125 235.15028381347656 449.0721435546875 217.81057739257812 C 438.6044616699219 199.04904174804688 424.176025390625 185.09536743164062 404.2898864746094 177.7390594482422 C 420.7195739746094 178.82342529296875 395.9329528808594 171.93341064453125 382.1466369628906 180.3423614501953 C 341.97509765625 185.5059814453125 325.99847412109375 220.83462524414062 229.7235565185547 252.91297912597656 C 279.0436096191406 160.07675170898438 298.49346923828125 126.38871002197266 304.0361022949219 83.93138885498047 C 307.24371337890625 93.8304672241211 312.8246154785156 62.76669692993164 297.4137878417969 58.995723724365234 C 276.7838134765625 47.40228271484375 241.9359893798828 46.15815353393555 225.02615356445312 67.49991607666016 C 192.6753387451172 104.93307495117188 200.7783660888672 190.36587524414062 179.91261291503906 246.3206329345703 C 138.62466430664062 179.51527404785156 148.09552001953125 99.60205078125 122.55348205566406 54.15776062011719 C 115.65866088867188 45.73601531982422 89.24588775634766 54.05644607543945 95.760009765625 50.45841598510742 C 76.96184539794922 57.6295051574707 61.61177444458008 70.84516143798828 52.11066436767578 85.36937713623047" stroke-width="0.0" fill="rgb(0, 0, 0)" opacity="1.0" stroke="rgb(0, 0, 0)" stroke-opacity="1.0" stroke-linecap="round" stroke-linejoin="round"/>
  </g>
</svg>
