<?xml version="1.0" ?>
<svg xmlns="http://www.w3.org/2000/svg" version="1.1" width="500" height="500">
  <defs/>
  <g>
    <path d="M 50.25436019897461 65.54839324951172 C 49.71411895751953 87.89401245117188 50.068214416503906 115.15642547607422 50.04747009277344 147.6151123046875 C 49.043888092041016 170.81117248535156 51.766868591308594 184.54061889648438 50.91082000732422 206.53173828125 C 53.637027740478516 231.78160095214844 53.74449157714844 262.4378662109375 56.56645965576172 292.4077453613281 C 59.16779327392578 307.3802795410156 59.06531524658203 332.6148681640625 62.18122100830078 346.7331848144531 C 83.38847351074219 348.43438720703125 107.01803588867188 348.29559326171875 118.66654205322266 350.0279846191406 C 147.4680633544922 349.86102294921875 166.6578826904297 352.1461486816406 190.23394775390625 350.8130187988281 C 201.36553955078125 353.1871643066406 232.0304718017578 351.48394775390625 252.98406982421875 352.056640625 C 272.75689697265625 351.8912353515625 296.1925354003906 352.0281677246094 320.99468994140625 351.8203430175781 C 335.5791931152344 352.8047180175781 344.3553771972656 350.350830078125 362.4299011230469 351.04132080078125 C 386.2293395996094 351.68914794921875 397.5338439941406 349.1518859863281 421.17401123046875 350.06072998046875 C 427.1207580566406 347.8233337402344 445.64471435546875 350.17950439453125 448.7358093261719 345.97857666015625 C 449.54315185546875 314.8149108886719 450.6153869628906 291.2451477050781 449.8241882324219 251.87765502929688 C 450.9617614746094 224.66061401367188 448.77679443359375 203.6370391845703 449.07244873046875 178.70896911621094 C 446.19940185546875 156.32339477539062 447.03009033203125 132.84945678710938 445.08758544921875 114.74884033203125 C 444.7525634765625 88.66431427001953 441.4694519042969 75.66175079345703 441.7486877441406 57.7639274597168 C 420.26361083984375 57.23967742919922 398.3009948730469 54.12561798095703 380.7728271484375 53.93521499633789 C 361.9226989746094 50.48386001586914 332.9673156738281 51.80954360961914 316.1368713378906 49.96916198730469 C 293.24652099609375 50.11933135986328 248.86294555664062 49.58355712890625 225.39097595214844 50.41336441040039 C 180.26065063476562 51.48612976074219 156.53646850585938 54.294898986816406 124.75525665283203 56.1160774230957 C 98.46742248535156 59.37557601928711 71.54773712158203 61.2734489440918 50.25436019897461 65.54839324951172" stroke-width="0.0" fill="rgb(0, 0, 0)" opacity="1.0" stroke="rgb(0, 0, 0)" stroke-opacity="1.0" stroke-linecap="round" stroke-linejoin="round"/>
  </g>
</svg>
