<?xml version="1.0" ?>
<svg xmlns="http://www.w3.org/2000/svg" version="1.1" width="500" height="500">
  <defs/>
  <g>
    <path d="M 425.858154296875 95.0598373413086 C 400.59600830078125 81.83075714111328 369.6459045410156 88.65365600585938 350.6070861816406 101.01568603515625 C 343.799560546875 78.30784606933594 330.32489013671875 61.96232604980469 310.5068054199219 52.40567398071289 C 275.3673400878906 46.02344512939453 261.6800537109375 50.67913818359375 242.45762634277344 64.31639862060547 C 222.01162719726562 80.30831146240234 208.86245727539062 103.4688720703125 215.55880737304688 144.1081085205078 C 189.7187042236328 150.0098114013672 170.79904174804688 161.9154815673828 159.93162536621094 185.8763427734375 C 148.5762481689453 212.7992401123047 157.76881408691406 239.49758911132812 170.16897583007812 256.59942626953125 C 131.83477783203125 269.5423583984375 99.93089294433594 289.07293701171875 71.0984878540039 314.959716796875 C 55.98936462402344 329.53955078125 43.908119201660156 344.29949951171875 52.39375686645508 365.5574645996094 C 80.90251922607422 380.71343994140625 101.26089477539062 372.2220458984375 123.32049560546875 369.124755859375 C 142.3563232421875 364.9481506347656 159.90357971191406 358.64080810546875 177.2158203125 347.87646484375 C 168.95181274414062 365.71923828125 155.53526306152344 387.1752014160156 159.17166137695312 413.14715576171875 C 160.64511108398438 422.55535888671875 167.08526611328125 425.4088134765625 187.54396057128906 422.0369873046875 C 216.8135528564453 409.0220947265625 242.15524291992188 384.9010925292969 258.62371826171875 353.72491455078125 C 269.84814453125 362.3765869140625 284.3567199707031 366.43505859375 302.3098449707031 362.58648681640625 C 327.4761657714844 354.83209228515625 343.00408935546875 341.41766357421875 352.9315490722656 320.7235412597656 C 371.2635803222656 329.4870300292969 394.72076416015625 333.4754943847656 416.864013671875 321.82177734375 C 431.6268310546875 311.8890686035156 443.4039306640625 297.8958740234375 446.4634094238281 269.0383605957031 C 446.37652587890625 241.56658935546875 433.5221862792969 219.28941345214844 414.7474670410156 204.83705139160156 C 431.84442138671875 193.5102996826172 446.13299560546875 177.15383911132812 449.7008056640625 156.40077209472656 C 452.4631652832031 123.29400634765625 445.76739501953125 110.82142639160156 425.858154296875 95.0598373413086" stroke-width="0.0" fill="rgb(0, 0, 0)" opacity="1.0" stroke="rgb(0, 0, 0)" stroke-opacity="1.0" stroke-linecap="round" stroke-linejoin="round"/>
  </g>
</svg>
