<?xml version="1.0" ?>
<svg xmlns="http://www.w3.org/2000/svg" version="1.1" width="500" height="500">
  <defs/>
  <g>
    <path d="M 219.30860900878906 50.844451904296875 C 202.474853515625 53.52887725830078 189.89907836914062 57.834075927734375 178.39556884765625 62.48967742919922 C 163.5398406982422 68.25155639648438 151.5867462158203 76.10516357421875 138.93780517578125 84.60772705078125 C 118.98291778564453 100.95877075195312 100.18829345703125 120.49090576171875 85.82804870605469 141.9087371826172 C 71.8333511352539 163.74916076660156 61.213890075683594 186.2729949951172 53.675750732421875 217.47377014160156 C 47.858333587646484 233.83486938476562 50.57059097290039 266.1343688964844 49.88998794555664 291.3388671875 C 55.45566940307617 325.19696044921875 65.2136001586914 344.68865966796875 78.15592956542969 362.75579833984375 C 92.85420227050781 382.42657470703125 109.44970703125 397.2485656738281 131.31642150878906 410.0904541015625 C 143.42098999023438 417.5954284667969 158.31776428222656 424.093994140625 172.525634765625 429.3437194824219 C 187.8609161376953 434.78887939453125 202.8234405517578 439.10308837890625 225.79843139648438 443.4769287109375 C 234.8760528564453 444.13043212890625 287.9153747558594 444.6015625 287.71258544921875 442.57415771484375 C 309.4345397949219 438.9754943847656 323.12725830078125 433.3182067871094 336.8299865722656 427.65087890625 C 348.0088195800781 422.1540832519531 359.11962890625 415.72735595703125 368.31500244140625 408.26800537109375 C 389.1697692871094 392.78424072265625 404.9468078613281 374.084228515625 419.6748962402344 352.63580322265625 C 432.8709716796875 329.55804443359375 443.00445556640625 306.1709289550781 448.8634033203125 273.94036865234375 C 450.5417785644531 265.8722229003906 450.6915588378906 213.16038513183594 448.550537109375 209.53224182128906 C 445.53619384765625 189.64772033691406 440.5299377441406 176.40945434570312 436.2337646484375 165.83291625976562 C 431.01275634765625 153.40557861328125 424.86761474609375 140.7455596923828 416.5710754394531 130.3709259033203 C 399.40924072265625 107.11107635498047 379.3478088378906 86.83350372314453 349.9485168457031 68.43891906738281 C 331.7584228515625 63.66945266723633 306.1409606933594 60.90833282470703 282.8058166503906 52.58500289916992 C 263.6086730957031 48.37251281738281 225.97787475585938 49.84638595581055 219.30860900878906 50.844451904296875" stroke-width="0.0" fill="rgb(0, 0, 0)" opacity="1.0" stroke="rgb(0, 0, 0)" stroke-opacity="1.0" stroke-linecap="round" stroke-linejoin="round"/>
  </g>
</svg>
