<?xml version="1.0" ?>
<svg xmlns="http://www.w3.org/2000/svg" version="1.1" width="500" height="500">
  <defs/>
  <g>
    <path d="M 281.3789367675781 49.7672004699707 C 261.2381896972656 48.28866195678711 249.280517578125 68.27812957763672 242.20693969726562 83.29412841796875 C 205.20977783203125 71.91323852539062 178.0693817138672 78.17496490478516 153.08860778808594 89.86290740966797 C 144.5582733154297 75.14582061767578 139.2736358642578 55.38776397705078 123.0775146484375 53.72871398925781 C 109.77694702148438 53.78107833862305 104.66149139404297 67.73294067382812 99.95042419433594 79.349365234375 C 84.54542541503906 119.5067367553711 74.81233978271484 167.91238403320312 65.66714477539062 215.66087341308594 C 57.90679168701172 264.4247741699219 48.638023376464844 318.75811767578125 50.03654479980469 372.58880615234375 C 64.84119415283203 436.7384948730469 126.94607543945312 398.5602722167969 114.75768280029297 437.2291259765625 C 138.3405303955078 466.212890625 146.28948974609375 440.58837890625 152.39675903320312 422.0667724609375 C 176.69711303710938 423.39117431640625 188.58840942382812 424.8206787109375 217.26309204101562 422.5295715332031 C 222.68267822265625 437.41046142578125 224.84947204589844 451.8632507324219 239.722412109375 449.8381652832031 C 254.58534240722656 446.02886962890625 255.17430114746094 428.5681457519531 255.0441436767578 420.3995666503906 C 297.80242919921875 421.9520568847656 312.3742980957031 398.66131591796875 345.8393859863281 383.32720947265625 C 365.9800109863281 368.4809875488281 384.13214111328125 353.82403564453125 393.9626770019531 328.901611328125 C 402.3410339355469 310.88067626953125 404.2986145019531 288.23431396484375 394.7518005371094 264.58233642578125 C 386.61602783203125 249.04295349121094 376.3084411621094 236.7902374267578 359.7375183105469 235.05587768554688 C 345.09136962890625 237.03414916992188 337.9992980957031 245.4720001220703 336.1939697265625 259.8802795410156 C 334.6099548339844 288.5675964355469 355.0094909667969 300.4386901855469 350.56646728515625 328.1194152832031 C 347.2033996582031 337.736083984375 336.5910949707031 347.0737609863281 322.43212890625 343.9947204589844 C 324.6152038574219 273.7059326171875 321.6425476074219 221.2205810546875 314.32952880859375 160.56573486328125 C 307.6134338378906 119.923828125 300.73602294921875 69.91816711425781 281.3789367675781 49.7672004699707" stroke-width="0.0" fill="rgb(0, 0, 0)" opacity="1.0" stroke="rgb(0, 0, 0)" stroke-opacity="1.0" stroke-linecap="round" stroke-linejoin="round"/>
  </g>
</svg>
