<?xml version="1.0" ?>
<svg xmlns="http://www.w3.org/2000/svg" version="1.1" width="500" height="500">
  <defs/>
  <g>
    <path d="M 377.625732421875 58.37338638305664 C 363.65875244140625 48.067447662353516 340.58697509765625 48.70024108886719 331.3597717285156 50.74039077758789 C 318.3175964355469 54.49559783935547 302.7464599609375 58.626258850097656 285.81622314453125 82.81721496582031 C 263.1619873046875 51.02455139160156 231.68946838378906 47.15114974975586 214.2269744873047 50.224830627441406 C 193.15977478027344 55.14876174926758 177.1273193359375 67.97504425048828 166.16702270507812 84.625 C 151.75775146484375 106.5787124633789 149.15101623535156 141.61782836914062 167.66001892089844 173.26486206054688 C 187.825927734375 211.762939453125 228.32281494140625 233.2623748779297 283.32696533203125 251.24078369140625 C 255.29306030273438 276.1038513183594 222.27529907226562 264.8956604003906 191.2677459716797 287.67266845703125 C 180.33029174804688 255.13720703125 160.83653259277344 242.86749267578125 139.65284729003906 236.7159423828125 C 138.70724487304688 236.9486083984375 120.14566802978516 234.31524658203125 109.29875946044922 237.23133850097656 C 89.9434814453125 241.6109619140625 77.19603729248047 252.36370849609375 65.30211639404297 267.3247375488281 C 47.7432975769043 291.3546142578125 45.26140594482422 327.2085266113281 57.09852981567383 356.2334289550781 C 70.35333251953125 395.8763122558594 105.95280456542969 422.9520263671875 140.5175323486328 450.64404296875 C 160.66827392578125 448.6623840332031 202.3644561767578 448.7708740234375 230.33949279785156 437.97705078125 C 259.17730712890625 428.4324951171875 279.9469909667969 411.8062438964844 294.86895751953125 388.3005065917969 C 307.2827453613281 368.1360778808594 310.3288879394531 335.4842224121094 303.9335021972656 321.6955261230469 C 294.5728759765625 297.38372802734375 281.2778015136719 278.00030517578125 246.14064025878906 271.0767517089844 C 295.7439880371094 246.1927032470703 326.28472900390625 239.63168334960938 349.2568359375 225.2583465576172 C 373.9103088378906 212.3232879638672 392.987060546875 194.395263671875 405.7380676269531 169.33302307128906 C 417.112548828125 148.64285278320312 419.1959228515625 123.74617767333984 413.3650207519531 103.83953094482422 C 407.6846923828125 83.82810974121094 395.6321716308594 68.40763092041016 377.625732421875 58.37338638305664" stroke-width="0.0" fill="rgb(0, 0, 0)" opacity="1.0" stroke="rgb(0, 0, 0)" stroke-opacity="1.0" stroke-linecap="round" stroke-linejoin="round"/>
  </g>
</svg>
