<?xml version="1.0" ?>
<svg xmlns="http://www.w3.org/2000/svg" version="1.1" width="500" height="500">
  <defs/>
  <g>
    <path d="M 140.58172607421875 50.46353530883789 C 124.97506713867188 56.465084075927734 118.56465148925781 70.39710998535156 127.22315216064453 95.49585723876953 C 140.20452880859375 118.36383819580078 162.64768981933594 130.8760986328125 183.255615234375 144.64244079589844 C 173.50955200195312 165.48719787597656 163.7639923095703 190.83921813964844 166.32672119140625 219.84742736816406 C 123.03710174560547 220.4108428955078 83.90663146972656 222.97711181640625 49.83766555786133 233.14244079589844 C 50.36034393310547 252.16043090820312 48.343196868896484 259.1382141113281 54.368282318115234 275.15472412109375 C 58.21605682373047 281.7101135253906 63.40537643432617 286.755126953125 72.5679702758789 287.04156494140625 C 75.79193115234375 338.8746032714844 73.65691375732422 389.30316162109375 83.77679443359375 433.7021789550781 C 86.75101470947266 442.8409423828125 94.59465789794922 448.2229309082031 109.46046447753906 450.03533935546875 C 165.8508758544922 450.5671081542969 238.5854034423828 447.888916015625 282.06475830078125 434.56805419921875 C 296.94525146484375 410.9103698730469 289.45111083984375 353.5094299316406 293.824951171875 289.5673828125 C 300.29461669921875 286.1612243652344 312.3197021484375 288.32537841796875 316.1018981933594 273.3209533691406 C 314.3424072265625 251.19503784179688 320.28570556640625 226.783447265625 310.3367919921875 224.52593994140625 C 302.1391906738281 213.7047576904297 221.69879150390625 219.05929565429688 196.8287353515625 218.76869201660156 C 198.95046997070312 185.24522399902344 205.18202209472656 169.5262451171875 215.05496215820312 152.26202392578125 C 226.60455322265625 159.20912170410156 251.94378662109375 162.9569854736328 269.67144775390625 154.9019775390625 C 285.7618103027344 146.71290588378906 299.5246276855469 136.83737182617188 298.2049255371094 117.95303344726562 C 294.8153991699219 101.97065734863281 279.81378173828125 98.83369445800781 263.970703125 97.04899597167969 C 239.6490020751953 98.11328125 224.01878356933594 109.12579345703125 207.82875061035156 119.89955139160156 C 205.11041259765625 98.35006713867188 196.59530639648438 79.61129760742188 185.9755401611328 65.43505859375 C 173.41629028320312 52.13378143310547 164.3087158203125 47.69890594482422 140.58172607421875 50.46353530883789" stroke-width="0.0" fill="rgb(0, 0, 0)" opacity="1.0" stroke="rgb(0, 0, 0)" stroke-opacity="1.0" stroke-linecap="round" stroke-linejoin="round"/>
  </g>
</svg>
