<?xml version="1.0" ?>
<svg xmlns="http://www.w3.org/2000/svg" version="1.1" width="500" height="500">
  <defs/>
  <g>
    <path d="M 243.16905212402344 53.829288482666016 C 182.5466766357422 47.102638244628906 206.3300018310547 62.328826904296875 183.97776794433594 52.47301483154297 C 164.6731414794922 52.823341369628906 163.9734649658203 65.32147979736328 161.8025360107422 71.7382583618164 C 163.2376251220703 83.08148956298828 168.4845428466797 87.72381591796875 175.58895874023438 94.06097412109375 C 160.5292510986328 101.98834228515625 149.2017364501953 111.6928939819336 139.4261932373047 124.60395050048828 C 130.36581420898438 135.7682647705078 122.60616302490234 150.64540100097656 118.81896209716797 168.47119140625 C 92.9470443725586 171.20787048339844 71.73181915283203 180.53440856933594 50.69941329956055 191.22402954101562 C 51.969818115234375 213.11705017089844 48.872894287109375 226.0062713623047 50.197479248046875 257.20196533203125 C 52.37881088256836 259.79443359375 58.79926681518555 260.2803955078125 61.47907638549805 262.79779052734375 C 66.19551849365234 315.1476135253906 70.6156005859375 367.28021240234375 75.12887573242188 419.76397705078125 C 83.16167449951172 424.2171630859375 98.4556884765625 430.5848693847656 109.95010375976562 434.6396179199219 C 143.65992736816406 445.5206604003906 178.06680297851562 451.65869140625 220.9419403076172 449.97967529296875 C 248.26292419433594 449.1590881347656 268.6473693847656 444.7615051269531 282.65911865234375 439.8874206542969 C 297.5312194824219 434.4078369140625 311.3426208496094 426.66876220703125 319.7149353027344 414.9180908203125 C 322.6900329589844 380.2530212402344 327.40362548828125 338.4951477050781 333.77276611328125 275.5045166015625 C 333.03851318359375 261.003173828125 348.2063903808594 284.93853759765625 344.64508056640625 201.17105102539062 C 330.29730224609375 190.49606323242188 314.3255615234375 182.51199340820312 295.8974609375 178.7198486328125 C 293.5587158203125 157.294677734375 287.39483642578125 140.05955505371094 279.4969787597656 125.84584045410156 C 271.11614990234375 112.06761169433594 261.67559814453125 101.53411102294922 248.8758544921875 93.5211181640625 C 255.39651489257812 89.14203643798828 260.82421875 77.15653991699219 258.0291748046875 68.28656768798828 C 254.95565795898438 58.51052474975586 249.94189453125 54.89474105834961 243.16905212402344 53.829288482666016" stroke-width="0.0" fill="rgb(0, 0, 0)" opacity="1.0" stroke="rgb(0, 0, 0)" stroke-opacity="1.0" stroke-linecap="round" stroke-linejoin="round"/>
  </g>
</svg>
