<?xml version="1.0" ?>
<svg xmlns="http://www.w3.org/2000/svg" version="1.1" width="500" height="500">
  <defs/>
  <g>
    <path d="M 234.58090209960938 50.342838287353516 C 154.65892028808594 44.31792068481445 150.06884765625 81.29229736328125 144.17730712890625 127.86344146728516 C 123.14783477783203 116.79169464111328 97.22781372070312 108.86399841308594 73.51142120361328 120.57282257080078 C 55.31184005737305 133.20809936523438 47.551666259765625 153.25762939453125 50.4545783996582 177.2518310546875 C 58.16639709472656 198.4251251220703 77.34693145751953 211.17774963378906 99.6033935546875 220.5106201171875 C 79.40184783935547 242.45166015625 53.60536193847656 267.2679138183594 69.99696350097656 298.6781005859375 C 101.73394012451172 329.4045715332031 122.91233825683594 338.6911926269531 171.0397491455078 308.3578796386719 C 167.409912109375 311.9168395996094 170.2831268310547 355.8268127441406 168.1348419189453 367.769775390625 C 151.63133239746094 356.7568664550781 123.0640640258789 345.5360412597656 103.37285614013672 355.18682861328125 C 88.44560241699219 361.4969787597656 83.8448486328125 380.7220764160156 96.0113296508789 401.13397216796875 C 112.52220153808594 417.0921630859375 132.23416137695312 432.53424072265625 150.85487365722656 441.326171875 C 173.9123992919922 452.8277587890625 183.7246551513672 449.60003662109375 236.60400390625 450.0487060546875 C 256.363525390625 445.43206787109375 273.9410400390625 437.1313171386719 285.0348815917969 426.2181091308594 C 298.61767578125 416.8387451171875 313.75994873046875 407.4083251953125 321.4840393066406 390.555419921875 C 327.5514831542969 366.470947265625 317.0419921875 356.8006286621094 296.8990783691406 351.3411865234375 C 274.7379455566406 350.18408203125 251.36691284179688 361.365234375 235.1748809814453 374.7156677246094 C 235.3397216796875 363.17645263671875 233.40440368652344 333.96319580078125 234.27171325683594 318.9928283691406 C 274.9004211425781 334.7831726074219 299.5234375 316.1291809082031 324.80328369140625 290.4283752441406 C 333.44915771484375 263.4817199707031 316.99188232421875 239.7329559326172 303.05206298828125 223.38189697265625 C 341.615478515625 204.67958068847656 380.2978820800781 191.68589782714844 350.2901306152344 111.86534118652344 C 291.0709533691406 114.15937042236328 251.17672729492188 94.5101547241211 234.58090209960938 50.342838287353516" stroke-width="0.0" fill="rgb(0, 0, 0)" opacity="1.0" stroke="rgb(0, 0, 0)" stroke-opacity="1.0" stroke-linecap="round" stroke-linejoin="round"/>
  </g>
</svg>
