<?xml version="1.0" ?>
<svg xmlns="http://www.w3.org/2000/svg" version="1.1" width="500" height="500">
  <defs/>
  <g>
    <path d="M 443.71875 103.83988189697266 C 433.77069091796875 101.8113021850586 417.8391418457031 95.56045532226562 403.45404052734375 91.40792083740234 C 369.1873474121094 81.2863998413086 334.3691101074219 72.015869140625 298.5494079589844 62.29317855834961 C 283.036865234375 59.1761474609375 266.48272705078125 54.55336380004883 249.76629638671875 51.19342803955078 C 236.4788818359375 48.810543060302734 224.36045837402344 50.86534118652344 221.30755615234375 49.792945861816406 C 210.3594970703125 50.40785598754883 203.99530029296875 54.79275894165039 199.70602416992188 56.47612380981445 C 150.34405517578125 84.66014862060547 100.52615356445312 112.2216796875 51.260986328125 140.23373413085938 C 48.97940444946289 144.45510864257812 49.84304428100586 157.0944061279297 50.91645812988281 153.14952087402344 C 50.15961456298828 161.80322265625 56.893856048583984 155.5005645751953 54.69051742553711 159.41258239746094 C 85.52470397949219 167.81529235839844 117.55020904541016 175.02613830566406 149.57286071777344 184.15367126464844 C 180.36749267578125 191.66465759277344 211.5655975341797 200.26211547851562 244.1967010498047 208.4961395263672 C 233.97244262695312 240.52597045898438 222.0410614013672 271.02685546875 212.41676330566406 301.46356201171875 C 200.3801727294922 333.9441833496094 189.68426513671875 366.1026611328125 179.49148559570312 395.9538269042969 C 174.9113311767578 404.09814453125 174.91183471679688 413.23504638671875 177.8406982421875 416.44122314453125 C 184.5283966064453 419.73565673828125 176.8639373779297 418.88873291015625 193.97171020507812 418.9998779296875 C 240.56967163085938 393.8633117675781 288.1709899902344 369.67034912109375 333.9726257324219 344.8822021484375 C 344.0259704589844 338.6139831542969 347.67431640625 334.18359375 354.2456359863281 327.7286376953125 C 360.283447265625 320.6727294921875 363.5161437988281 313.3110656738281 367.5600280761719 306.1259460449219 C 381.912353515625 271.85479736328125 397.6617736816406 238.4849090576172 412.66058349609375 204.3564453125 C 425.39483642578125 177.28135681152344 437.25238037109375 149.07923889160156 449.0755920410156 124.3852310180664 C 450.5472412109375 113.45530700683594 451.6334228515625 107.41472625732422 443.71875 103.83988189697266" stroke-width="0.0" fill="rgb(0, 0, 0)" opacity="1.0" stroke="rgb(0, 0, 0)" stroke-opacity="1.0" stroke-linecap="round" stroke-linejoin="round"/>
  </g>
</svg>
