<?xml version="1.0" ?>
<svg xmlns="http://www.w3.org/2000/svg" version="1.1" width="500" height="500">
  <defs/>
  <g>
    <path d="M 435.7674560546875 62.64529800415039 C 460.5318603515625 49.41408920288086 439.1604919433594 58.81049346923828 418.1184997558594 71.9118881225586 C 399.72314453125 90.10892486572266 390.1251525878906 118.14620208740234 388.48333740234375 151.9260711669922 C 306.663330078125 144.45046997070312 313.3428649902344 127.15941619873047 309.5075378417969 99.83148956298828 C 269.33074951171875 98.48509216308594 249.97117614746094 84.65129089355469 232.8845977783203 63.74388885498047 C 204.35252380371094 65.75746154785156 192.12710571289062 69.40840148925781 209.25201416015625 66.9609146118164 C 193.0143280029297 72.21702575683594 182.98045349121094 82.05609893798828 158.6107177734375 106.67503356933594 C 54.1376838684082 112.88353729248047 37.24671936035156 102.5531997680664 63.00681686401367 97.63529205322266 C 44.711246490478516 75.57649993896484 48.62031555175781 83.3429183959961 68.403076171875 101.6199722290039 C 79.55155944824219 95.40140533447266 81.5388412475586 116.28715515136719 82.66793060302734 137.0861053466797 C 90.16010284423828 146.95521545410156 98.41647338867188 156.67674255371094 107.49190521240234 165.50233459472656 C 140.06637573242188 190.6138153076172 165.04579162597656 217.15879821777344 238.35313415527344 207.8507537841797 C 251.15138244628906 211.78494262695312 257.76104736328125 227.72967529296875 262.8733215332031 248.78334045410156 C 223.75439453125 254.1234893798828 249.33180236816406 252.9135284423828 258.4439697265625 244.06898498535156 C 263.5147399902344 218.86727905273438 284.8743591308594 209.58169555664062 297.0535583496094 182.83477783203125 C 307.4316711425781 164.9396209716797 305.4781799316406 142.18917846679688 357.56781005859375 147.28977966308594 C 388.1816101074219 157.61129760742188 389.4736022949219 164.3699493408203 387.9932861328125 174.43447875976562 C 381.41650390625 176.39820861816406 394.4964294433594 176.41885375976562 388.2492980957031 168.26556396484375 C 382.4072570800781 189.33338928222656 382.89068603515625 181.5755157470703 393.5438537597656 107.30394744873047 C 406.50604248046875 82.5788345336914 423.9181823730469 63.73497772216797 448.18621826171875 54.196510314941406 C 454.5987854003906 60.116783142089844 454.612060546875 51.38986587524414 435.7674560546875 62.64529800415039" stroke-width="0.0" fill="rgb(0, 0, 0)" opacity="1.0" stroke="rgb(0, 0, 0)" stroke-opacity="1.0" stroke-linecap="round" stroke-linejoin="round"/>
  </g>
</svg>
