<?xml version="1.0" ?>
<svg xmlns="http://www.w3.org/2000/svg" version="1.1" width="500" height="500">
  <defs/>
  <g>
    <path d="M 419.16790771484375 50.50436782836914 C 330.5201110839844 49.90841293334961 231.29295349121094 49.03751754760742 163.6739044189453 51.46389389038086 C 161.9726104736328 122.09007263183594 163.6189422607422 224.90196228027344 162.95286560058594 304.27783203125 C 154.7338409423828 298.13787841796875 119.86176300048828 296.8153076171875 103.5227279663086 301.9023742675781 C 83.9274673461914 309.4281921386719 70.09354400634766 319.3992919921875 59.508018493652344 334.94976806640625 C 48.98411560058594 350.3350830078125 49.78902816772461 360.04351806640625 49.935237884521484 388.3542175292969 C 53.97836685180664 407.1910095214844 64.31855010986328 420.2917175292969 78.95841979980469 431.9163818359375 C 97.61266326904297 446.3147277832031 117.14630889892578 450.02984619140625 156.5681610107422 445.4585266113281 C 182.1461944580078 436.0667724609375 200.53746032714844 425.18841552734375 213.58848571777344 386.3894348144531 C 213.18084716796875 364.4370422363281 212.78988647460938 267.9582214355469 212.89117431640625 197.6609649658203 C 271.8411865234375 192.95982360839844 327.1796569824219 185.39805603027344 383.531005859375 181.3524932861328 C 384.2444763183594 194.14625549316406 384.9382629394531 210.9599609375 386.30743408203125 225.57754516601562 C 357.17938232421875 220.2995147705078 333.250244140625 229.13247680664062 318.3675842285156 239.03701782226562 C 304.3828125 248.7701416015625 298.2112121582031 257.8175048828125 291.7210388183594 269.92578125 C 285.7434997558594 283.8724670410156 283.350830078125 298.06585693359375 287.0213623046875 315.813232421875 C 291.3521423339844 332.9311828613281 299.3243103027344 343.4736328125 308.8009033203125 352.82733154296875 C 319.8475341796875 362.1955261230469 331.1032409667969 369.0095520019531 348.547119140625 372.6871032714844 C 363.7064514160156 375.2794189453125 387.65087890625 374.096923828125 396.1458435058594 370.6179504394531 C 413.91485595703125 363.8957214355469 425.4955749511719 355.4337463378906 436.6289367675781 342.3011474609375 C 447.5113220214844 327.6769104003906 453.1934814453125 313.6860656738281 448.42236328125 280.57861328125 C 429.68475341796875 247.17848205566406 436.3503723144531 117.95734405517578 419.16790771484375 50.50436782836914" stroke-width="0.0" fill="rgb(0, 0, 0)" opacity="1.0" stroke="rgb(0, 0, 0)" stroke-opacity="1.0" stroke-linecap="round" stroke-linejoin="round"/>
  </g>
</svg>
