<?xml version="1.0" ?>
<svg xmlns="http://www.w3.org/2000/svg" version="1.1" width="500" height="500">
  <defs/>
  <g>
    <path d="M 50.073062896728516 57.004547119140625 C 49.32355499267578 70.57603454589844 61.335880279541016 77.6893310546875 73.95049285888672 96.85973358154297 C 78.11920928955078 100.7479248046875 63.639129638671875 113.92399597167969 51.07137680053711 138.43324279785156 C 63.195030212402344 162.0414276123047 72.03153228759766 133.57762145996094 87.5158462524414 115.31517028808594 C 108.24884033203125 137.39906311035156 117.07296752929688 165.6951446533203 129.02854919433594 146.19065856933594 C 132.92649841308594 139.1145477294922 113.80110931396484 122.73749542236328 98.30116271972656 98.45012664794922 C 116.08348846435547 84.44159698486328 116.17086029052734 57.98877716064453 145.8369903564453 60.70291519165039 C 137.20391845703125 79.48123168945312 139.96530151367188 91.57664489746094 152.3419952392578 112.64110565185547 C 161.4151153564453 123.0770034790039 177.40054321289062 143.60130310058594 188.1206817626953 146.41653442382812 C 202.88784790039062 150.24185180664062 231.18264770507812 131.9463653564453 241.60560607910156 111.142822265625 C 259.8495178222656 83.53935241699219 216.36546325683594 47.031944274902344 249.57981872558594 61.88981628417969 C 287.45404052734375 105.27416229248047 284.7445373535156 95.46034240722656 254.09173583984375 136.33966064453125 C 264.8393249511719 164.6104278564453 281.32073974609375 129.2433624267578 291.279052734375 114.3862533569336 C 311.42608642578125 138.94842529296875 323.5162048339844 165.8351593017578 334.0625305175781 145.04354858398438 C 338.46722412109375 141.4502716064453 316.45758056640625 119.98002624511719 301.9862976074219 97.82127380371094 C 321.1846923828125 84.64553833007812 320.21795654296875 56.1395263671875 351.0798645019531 61.819122314453125 C 338.3105163574219 79.19371032714844 345.6338195800781 91.70750427246094 357.8664855957031 114.66931915283203 C 368.3297119140625 124.6328353881836 380.4857177734375 144.4679718017578 394.7479553222656 147.00743103027344 C 414.4368896484375 147.6600341796875 440.9746398925781 126.47807312011719 448.48345947265625 104.71392059326172 C 454.3752136230469 85.79647827148438 447.7906188964844 58.99951171875 414.85772705078125 62.10478210449219 C 292.3037414550781 59.08003234863281 161.7509765625 65.40997314453125 50.073062896728516 57.004547119140625" stroke-width="0.0" fill="rgb(0, 0, 0)" opacity="1.0" stroke="rgb(0, 0, 0)" stroke-opacity="1.0" stroke-linecap="round" stroke-linejoin="round"/>
  </g>
</svg>
