<?xml version="1.0" ?>
<svg xmlns="http://www.w3.org/2000/svg" version="1.1" width="500" height="500">
  <defs/>
  <g>
    <path d="M 49.70592498779297 81.50363159179688 C 49.85040283203125 94.13463592529297 52.63679885864258 112.00418090820312 54.876590728759766 125.76919555664062 C 56.507904052734375 139.09104919433594 59.821800231933594 155.85801696777344 62.45574951171875 169.43104553222656 C 65.68633270263672 184.8805694580078 69.18309783935547 201.05645751953125 73.10321807861328 215.62185668945312 C 76.59291076660156 230.11898803710938 81.780029296875 245.00311279296875 87.2754135131836 258.10955810546875 C 96.0680160522461 277.4407958984375 107.78679656982422 293.7527160644531 121.1644058227539 308.8302917480469 C 136.21446228027344 325.8699951171875 153.342529296875 339.21234130859375 173.62850952148438 351.3041076660156 C 196.8159637451172 364.5434875488281 220.82601928710938 374.1157531738281 255.243408203125 377.5355529785156 C 280.3163146972656 379.13238525390625 301.1883239746094 376.7912292480469 320.67425537109375 371.3719482421875 C 348.043701171875 363.5966796875 370.8181457519531 350.61041259765625 390.3866882324219 334.69873046875 C 407.1262512207031 319.6053466796875 421.5552673339844 303.18792724609375 432.5358581542969 282.4739990234375 C 440.75860595703125 267.11785888671875 446.837158203125 249.32264709472656 449.8056945800781 226.84677124023438 C 451.5656433105469 198.33676147460938 447.53717041015625 181.40243530273438 440.48431396484375 161.73033142089844 C 432.2749938964844 141.49798583984375 422.0866394042969 124.44577026367188 408.7232666015625 110.20268249511719 C 394.4637756347656 94.02337646484375 377.6098937988281 80.77717590332031 357.3693542480469 69.94075775146484 C 337.514404296875 59.22825241088867 316.5832214355469 52.80598449707031 285.86822509765625 50.19462966918945 C 261.38958740234375 48.82564163208008 239.50404357910156 51.26862716674805 219.64791870117188 56.632408142089844 C 191.1987762451172 64.23126983642578 170.52783203125 76.48812103271484 151.2473907470703 93.64765167236328 C 138.6363983154297 105.71979522705078 127.44256591796875 122.40328216552734 119.25377655029297 139.95663452148438 C 98.9686050415039 119.98115539550781 78.78682708740234 100.1465072631836 58.47233200073242 81.19674682617188 C 55.10511016845703 80.0665283203125 55.250431060791016 78.85971069335938 49.70592498779297 81.50363159179688" stroke-width="0.0" fill="rgb(0, 0, 0)" opacity="1.0" stroke="rgb(0, 0, 0)" stroke-opacity="1.0" stroke-linecap="round" stroke-linejoin="round"/>
  </g>
</svg>
