<?xml version="1.0" ?>
<svg xmlns="http://www.w3.org/2000/svg" version="1.1" width="500" height="500">
  <defs/>
  <g>
    <path d="M 133.80210876464844 61.37715530395508 C 117.17322540283203 75.37073516845703 105.61348724365234 87.27262115478516 101.37660217285156 112.53079986572266 C 96.20953369140625 136.37437438964844 100.35399627685547 162.39524841308594 107.30294799804688 184.3623504638672 C 94.03885650634766 197.518310546875 83.36486053466797 213.85873413085938 73.5431137084961 229.9600372314453 C 64.33551025390625 246.73765563964844 53.90510177612305 265.6911315917969 50.338218688964844 294.67193603515625 C 47.24890899658203 326.95098876953125 56.187477111816406 348.19708251953125 71.78944396972656 368.78094482421875 C 88.56311798095703 388.3411865234375 110.73074340820312 400.9443664550781 135.64796447753906 411.177001953125 C 158.9278564453125 420.94244384765625 185.51092529296875 427.2197570800781 217.29331970214844 430.5653381347656 C 263.103759765625 432.4266662597656 285.0531005859375 430.11602783203125 318.1918640136719 421.469482421875 C 347.7810974121094 414.2511901855469 371.751220703125 400.81756591796875 393.5193176269531 385.62750244140625 C 414.51959228515625 368.6923522949219 430.6625671386719 348.2359313964844 442.6692199707031 322.5666198730469 C 450.2388000488281 304.6191711425781 451.7004089355469 289.7151794433594 448.9013671875 260.69976806640625 C 445.63153076171875 243.62899780273438 434.87091064453125 218.02337646484375 424.8749084472656 209.14283752441406 C 404.1385803222656 221.98995971679688 422.7285461425781 181.78163146972656 389.5581970214844 173.87245178222656 C 404.0570983886719 131.56053161621094 404.0142822265625 102.09916687011719 394.8604736328125 78.9005126953125 C 384.5052795410156 58.976318359375 365.9745178222656 53.463985443115234 346.5246276855469 50.211029052734375 C 333.042724609375 48.12847137451172 316.5513916015625 53.31913757324219 305.4170227050781 60.29021072387695 C 282.5989074707031 76.5213851928711 266.8950500488281 105.7295913696289 262.3857727050781 142.52182006835938 C 249.7922821044922 139.15029907226562 228.8289794921875 138.1342315673828 235.6242218017578 138.69992065429688 C 224.49362182617188 104.23766326904297 210.9451141357422 70.6745376586914 190.47561645507812 56.02429962158203 C 166.4856414794922 44.562923431396484 150.39984130859375 50.889583587646484 133.80210876464844 61.37715530395508" stroke-width="0.0" fill="rgb(0, 0, 0)" opacity="1.0" stroke="rgb(0, 0, 0)" stroke-opacity="1.0" stroke-linecap="round" stroke-linejoin="round"/>
  </g>
</svg>
