<?xml version="1.0" ?>
<svg xmlns="http://www.w3.org/2000/svg" version="1.1" width="500" height="500">
  <defs/>
  <g>
    <path d="M 196.46351623535156 52.01256561279297 C 169.5624237060547 44.264339447021484 170.05674743652344 59.08211135864258 166.1546173095703 67.64593505859375 C 158.90875244140625 64.18329620361328 152.0800018310547 61.50418472290039 146.32235717773438 66.94354248046875 C 140.60855102539062 71.76136779785156 139.57745361328125 79.06901550292969 142.0429229736328 83.09526824951172 C 103.780029296875 87.18118286132812 131.90280151367188 96.68793487548828 108.3519515991211 75.53718566894531 C 71.64179229736328 80.15116882324219 101.52735900878906 107.10698699951172 73.45967102050781 100.197509765625 C 54.703704833984375 142.5782012939453 47.887916564941406 130.74893188476562 50.22419357299805 184.2779541015625 C 51.95580291748047 207.3037567138672 63.16090774536133 235.583740234375 73.37318420410156 250.00027465820312 C 90.69852447509766 282.415283203125 118.25251770019531 294.89617919921875 128.07803344726562 323.9173583984375 C 116.47891235351562 337.10650634765625 106.08082580566406 354.3203125 99.00146484375 379.240478515625 C 92.58320617675781 402.8680114746094 93.71512603759766 434.3001708984375 106.42475128173828 438.8684997558594 C 131.57557678222656 449.2557678222656 132.4116973876953 420.86767578125 151.8623809814453 448.7174377441406 C 190.58741760253906 442.0492248535156 193.2723846435547 452.2634582519531 244.00172424316406 444.5011291503906 C 256.1370849609375 437.67584228515625 261.826416015625 422.734375 258.7268981933594 399.3619689941406 C 253.36166381835938 365.4495849609375 240.07046508789062 337.9771423339844 225.0601348876953 321.4171447753906 C 229.07586669921875 300.1026306152344 245.49742126464844 295.9827575683594 255.2066650390625 280.5573425292969 C 266.1923522949219 267.6823425292969 274.5364074707031 252.03236389160156 283.11968994140625 235.66030883789062 C 292.5202941894531 210.54336547851562 304.0849609375 187.44985961914062 298.8542785644531 148.79263305664062 C 283.25732421875 134.4375457763672 295.29974365234375 113.33453369140625 264.53216552734375 81.12337493896484 C 248.43685913085938 74.15249633789062 245.16033935546875 82.96710968017578 235.9157257080078 94.48945617675781 C 223.35887145996094 60.251495361328125 195.9716033935547 70.08246612548828 196.46351623535156 52.01256561279297" stroke-width="0.0" fill="rgb(0, 0, 0)" opacity="1.0" stroke="rgb(0, 0, 0)" stroke-opacity="1.0" stroke-linecap="round" stroke-linejoin="round"/>
  </g>
</svg>
