<?xml version="1.0" ?>
<svg xmlns="http://www.w3.org/2000/svg" version="1.1" width="500" height="500">
  <defs/>
  <g>
    <path d="M 58.2938117980957 87.7471923828125 C 53.838008880615234 45.60242462158203 53.10588073730469 86.43113708496094 62.43535232543945 126.28520202636719 C 75.11227416992188 162.24545288085938 77.528564453125 210.2399139404297 75.07274627685547 261.25836181640625 C 96.9360580444336 266.2160339355469 124.02666473388672 266.2951965332031 148.44528198242188 266.1021423339844 C 152.9132080078125 285.37872314453125 163.93199157714844 294.1838684082031 184.7747344970703 294.2691345214844 C 180.05064392089844 393.2121887207031 179.146484375 373.482177734375 183.32293701171875 332.2681884765625 C 216.33445739746094 342.9236145019531 247.10264587402344 353.8044128417969 273.87677001953125 365.7666015625 C 230.0092315673828 364.5101623535156 245.35791015625 366.60809326171875 254.53271484375 357.5377197265625 C 285.7898254394531 354.9072265625 316.92669677734375 352.6231994628906 347.41241455078125 350.72320556640625 C 337.9142150878906 400.9993591308594 329.1871337890625 351.9627380371094 321.3204040527344 217.42864990234375 C 460.3163146972656 195.67202758789062 481.098876953125 194.01553344726562 443.73516845703125 197.67832946777344 C 453.4648132324219 221.82354736328125 445.8353576660156 202.04737854003906 436.2010498046875 190.59068298339844 C 424.0326843261719 180.18698120117188 401.9281005859375 178.79901123046875 437.76104736328125 183.3506622314453 C 438.6300354003906 205.6759796142578 431.94512939453125 202.17308044433594 407.1687316894531 202.13490295410156 C 325.9761047363281 216.98226928710938 317.13458251953125 229.93299865722656 313.55718994140625 201.8431396484375 C 303.4783935546875 201.59512329101562 272.34600830078125 201.04562377929688 217.3568115234375 200.16098022460938 C 217.81300354003906 182.37864685058594 218.57101440429688 170.69781494140625 221.31285095214844 178.98214721679688 C 208.1687774658203 175.86622619628906 192.98367309570312 174.52252197265625 171.75326538085938 175.77099609375 C 173.81776428222656 128.7425994873047 172.0110321044922 85.0937728881836 162.20513916015625 55.55618667602539 C 115.58158111572266 57.15972137451172 64.58041381835938 55.796085357666016 104.90699768066406 55.602638244628906 C 90.56753540039062 69.1331558227539 75.20369720458984 79.93946075439453 58.2938117980957 87.7471923828125" stroke-width="0.0" fill="rgb(0, 0, 0)" opacity="1.0" stroke="rgb(0, 0, 0)" stroke-opacity="1.0" stroke-linecap="round" stroke-linejoin="round"/>
  </g>
</svg>
