<?xml version="1.0" ?>
<svg xmlns="http://www.w3.org/2000/svg" version="1.1" width="500" height="500">
  <defs/>
  <g>
    <path d="M 186.1793975830078 50.16957092285156 C 155.0831298828125 46.656272888183594 135.3579864501953 72.25415802001953 133.04322814941406 93.52368927001953 C 132.03570556640625 120.73966979980469 148.4798583984375 140.67665100097656 159.7834930419922 166.81983947753906 C 90.81104278564453 147.949462890625 77.8208236694336 150.76605224609375 56.441864013671875 177.10572814941406 C 43.20414733886719 205.81240844726562 51.14404296875 230.3508758544922 66.3444595336914 241.56163024902344 C 80.91451263427734 256.5676574707031 114.9744644165039 257.02337646484375 136.81871032714844 263.984375 C 111.56350708007812 288.6452331542969 76.00357818603516 304.6612243652344 70.80459594726562 326.0128479003906 C 68.16806030273438 357.3915100097656 103.94978332519531 374.26104736328125 127.40130615234375 377.15155029296875 C 161.9667205810547 377.7626647949219 177.3104248046875 360.1190490722656 200.49928283691406 341.9023132324219 C 200.14871215820312 378.57122802734375 196.54457092285156 403.12225341796875 207.13148498535156 418.4315185546875 C 217.6141815185547 435.70355224609375 238.93170166015625 449.1213073730469 270.43194580078125 438.4554748535156 C 300.6008605957031 422.7428894042969 302.05316162109375 405.33538818359375 299.50506591796875 341.5417175292969 C 320.96380615234375 357.45758056640625 337.49468994140625 378.28955078125 365.1252746582031 385.0398864746094 C 385.35260009765625 385.6267395019531 415.0891418457031 378.44061279296875 420.5646667480469 338.9390869140625 C 425.08880615234375 303.95721435546875 393.5623474121094 290.6631774902344 362.53399658203125 264.1069030761719 C 382.9418640136719 257.3509826660156 415.13543701171875 256.6837158203125 432.68365478515625 242.96932983398438 C 447.1280822753906 231.940673828125 458.380859375 208.5990753173828 444.56292724609375 178.47088623046875 C 424.44140625 153.59530639648438 409.0027770996094 144.71902465820312 339.27801513671875 168.09022521972656 C 379.82940673828125 93.16084289550781 377.33319091796875 81.52616119384766 334.2307434082031 50.5694694519043 C 279.5472412109375 41.12176513671875 271.3005676269531 78.93852233886719 249.94688415527344 122.12361145019531 C 230.98486328125 79.9385986328125 221.7994384765625 52.222381591796875 186.1793975830078 50.16957092285156" stroke-width="0.0" fill="rgb(0, 0, 0)" opacity="1.0" stroke="rgb(0, 0, 0)" stroke-opacity="1.0" stroke-linecap="round" stroke-linejoin="round"/>
  </g>
</svg>
