<?xml version="1.0" ?>
<svg xmlns="http://www.w3.org/2000/svg" version="1.1" width="500" height="500">
  <defs/>
  <g>
    <path d="M 49.920406341552734 130.6152801513672 C 50.26673889160156 131.22283935546875 49.90353012084961 148.5144500732422 50.00590133666992 153.23028564453125 C 52.292484283447266 160.79701232910156 54.22313690185547 164.11639404296875 57.57636260986328 169.19129943847656 C 66.11174774169922 181.5998992919922 77.54683685302734 190.85690307617188 91.32951354980469 199.3527069091797 C 105.81852722167969 207.9357452392578 122.85720825195312 214.49407958984375 141.37831115722656 220.39239501953125 C 163.2308349609375 226.5933074951172 185.82754516601562 230.80319213867188 216.14535522460938 233.94541931152344 C 236.6875457763672 234.0679473876953 268.4730529785156 233.9551544189453 281.46099853515625 234.06150817871094 C 318.4485168457031 230.5889434814453 344.2612609863281 225.16770935058594 369.8173828125 216.65924072265625 C 388.1711730957031 210.53054809570312 402.7320861816406 202.75796508789062 417.6798400878906 193.29299926757812 C 425.3773498535156 187.1242218017578 433.0981140136719 181.52243041992188 438.552490234375 173.72154235839844 C 444.8291320800781 166.7236785888672 446.5430908203125 161.8041229248047 449.8677062988281 152.5404052734375 C 449.8512878417969 146.20123291015625 449.928955078125 135.44696044921875 449.9401550292969 131.33277893066406 C 446.7958068847656 124.98902893066406 446.9837646484375 121.32510375976562 441.8995361328125 114.44469451904297 C 432.27880859375 101.54596710205078 421.27801513671875 92.90229797363281 407.0655517578125 84.30013275146484 C 391.8791198730469 75.119384765625 375.00909423828125 69.1021728515625 357.66278076171875 63.401580810546875 C 333.024658203125 56.72785568237305 310.6083984375 53.039154052734375 279.2388610839844 49.95408248901367 C 268.9125061035156 50.07970428466797 234.62164306640625 49.82041931152344 215.9536590576172 50.00497817993164 C 199.65113830566406 53.25218963623047 188.46531677246094 52.17550277709961 173.5426788330078 56.35906219482422 C 155.82177734375 59.283443450927734 141.9530792236328 63.74211883544922 129.73179626464844 67.52371978759766 C 108.57319641113281 74.91191101074219 88.45867919921875 84.571533203125 73.66612243652344 97.46099090576172 C 63.65275573730469 105.50762939453125 54.589141845703125 115.92010498046875 49.920406341552734 130.6152801513672" stroke-width="0.0" fill="rgb(0, 0, 0)" opacity="1.0" stroke="rgb(0, 0, 0)" stroke-opacity="1.0" stroke-linecap="round" stroke-linejoin="round"/>
  </g>
</svg>
