<?xml version="1.0" ?>
<svg xmlns="http://www.w3.org/2000/svg" version="1.1" width="500" height="500">
  <defs/>
  <g>
    <path d="M 188.60548400878906 51.6719856262207 C 162.50875854492188 59.53688430786133 144.05123901367188 75.55876159667969 133.3452911376953 99.25006866455078 C 126.69855499267578 114.40340423583984 122.90264129638672 134.2449188232422 126.38373565673828 153.78314208984375 C 129.9659423828125 176.79884338378906 139.13937377929688 194.39137268066406 153.6951446533203 210.38856506347656 C 117.56073760986328 216.0406494140625 90.15125274658203 235.18064880371094 71.2481918334961 260.42205810546875 C 55.951568603515625 283.23516845703125 46.40956497192383 311.33026123046875 51.13665008544922 345.5731506347656 C 55.03099060058594 374.3286437988281 65.41210174560547 390.5875549316406 76.10150909423828 405.1636962890625 C 89.42367553710938 420.0581970214844 104.17967224121094 433.5278625488281 127.49010467529297 442.2860412597656 C 150.55398559570312 451.2310791015625 168.50379943847656 449.8844909667969 182.6972198486328 449.9079895019531 C 214.4947967529297 448.9574890136719 256.4010314941406 452.4488525390625 275.9525146484375 447.3719787597656 C 299.1385803222656 441.2633972167969 317.4659118652344 431.6231994628906 331.07550048828125 418.6716003417969 C 347.3562927246094 403.2073974609375 358.9436950683594 386.22979736328125 365.4498596191406 364.0105285644531 C 384.2322692871094 353.2645568847656 404.3440856933594 344.4952392578125 425.27825927734375 332.1859130859375 C 407.10638427734375 320.9375 383.97265625 313.50775146484375 367.5575256347656 305.8915100097656 C 360.95733642578125 273.9425048828125 346.4969787597656 254.5048065185547 328.16461181640625 237.75599670410156 C 349.47174072265625 229.11447143554688 362.34423828125 213.28233337402344 371.8809814453125 192.0364532470703 C 379.27154541015625 175.96002197265625 382.81719970703125 149.64256286621094 377.6400146484375 126.88789367675781 C 372.79791259765625 107.09034729003906 362.1253356933594 93.1678695678711 341.92230224609375 85.87687683105469 C 316.3196105957031 74.7291259765625 293.04931640625 84.57708740234375 275.55145263671875 96.02103424072266 C 270.3231506347656 78.56179809570312 258.8675842285156 66.83635711669922 244.3491973876953 58.751731872558594 C 230.9085235595703 50.937278747558594 210.09913635253906 47.14883041381836 188.60548400878906 51.6719856262207" stroke-width="0.0" fill="rgb(0, 0, 0)" opacity="1.0" stroke="rgb(0, 0, 0)" stroke-opacity="1.0" stroke-linecap="round" stroke-linejoin="round"/>
  </g>
</svg>
