<?xml version="1.0" ?>
<svg xmlns="http://www.w3.org/2000/svg" version="1.1" width="500" height="500">
  <defs/>
  <g>
    <path d="M 225.21249389648438 50.14214324951172 C 195.94650268554688 54.86844253540039 174.34413146972656 62.371700286865234 153.6954803466797 73.62511444091797 C 128.9785919189453 87.4332275390625 107.9860610961914 104.70703887939453 91.68580627441406 126.29080200195312 C 76.79247283935547 145.40223693847656 65.60717010498047 165.6710662841797 57.51698303222656 191.37094116210938 C 54.70331954956055 203.5260467529297 50.56269073486328 216.57232666015625 49.989105224609375 228.87416076660156 C 50.014835357666016 244.2088165283203 49.735469818115234 267.449462890625 49.84556198120117 273.9652099609375 C 55.107784271240234 303.4608154296875 61.85493087768555 325.01580810546875 73.22502899169922 346.25567626953125 C 87.18925476074219 370.3278503417969 104.10542297363281 391.74969482421875 125.7214584350586 407.9059753417969 C 144.98316955566406 422.9136962890625 165.22259521484375 433.8555908203125 191.9791259765625 442.6049499511719 C 204.35391235351562 444.99981689453125 215.20494079589844 449.375244140625 229.04818725585938 449.8739013671875 C 239.00852966308594 450.1515197753906 258.25689697265625 450.1495056152344 274.189453125 450.0058898925781 C 303.8084411621094 444.8017578125 325.20684814453125 437.812744140625 346.0433044433594 426.622802734375 C 361.5657043457031 417.7700500488281 374.9724426269531 407.8272705078125 387.5389404296875 396.3272399902344 C 397.4853820800781 387.6856384277344 406.0855407714844 376.1712951660156 414.2608642578125 365.5242004394531 C 425.7219543457031 348.33123779296875 436.76287841796875 329.8902893066406 443.0830078125 304.7863464355469 C 451.8400573730469 271.6556396484375 449.784423828125 275.6465148925781 449.8915100097656 224.22642517089844 C 445.81884765625 207.45387268066406 442.8301696777344 188.51197814941406 437.5266418457031 178.91488647460938 C 433.1905517578125 164.70948791503906 425.4571838378906 152.0018768310547 418.4560546875 140.66664123535156 C 403.4264221191406 117.3900146484375 386.3140869140625 100.50743103027344 364.9728088378906 85.3078842163086 C 348.48187255859375 74.0301742553711 328.64166259765625 63.5102653503418 305.4630126953125 56.85090255737305 C 271.1825866699219 47.631309509277344 274.2704772949219 50.37388610839844 225.21249389648438 50.14214324951172" stroke-width="0.0" fill="rgb(0, 0, 0)" opacity="1.0" stroke="rgb(0, 0, 0)" stroke-opacity="1.0" stroke-linecap="round" stroke-linejoin="round"/>
  </g>
</svg>
