<?xml version="1.0" ?>
<svg xmlns="http://www.w3.org/2000/svg" version="1.1" width="500" height="500">
  <defs/>
  <g>
    <path d="M 49.83218002319336 125.79297637939453 C 47.110172271728516 159.6300506591797 63.054412841796875 184.6071014404297 83.2236557006836 212.262451171875 C 125.19392395019531 261.5362243652344 179.6741943359375 300.9883117675781 237.83111572265625 335.51495361328125 C 244.02215576171875 314.6394958496094 252.21490478515625 281.2126770019531 260.4344787597656 252.08920288085938 C 253.62110900878906 247.7834930419922 243.21731567382812 234.66204833984375 229.1432342529297 222.61720275878906 C 240.2379913330078 188.65115356445312 256.1897888183594 200.22145080566406 236.20127868652344 157.483642578125 C 262.2667236328125 170.05076599121094 265.70245361328125 178.04458618164062 273.563720703125 182.09291076660156 C 263.2898864746094 202.1068115234375 256.6100769042969 214.55674743652344 252.46559143066406 222.03311157226562 C 263.0957946777344 232.47036743164062 272.65362548828125 242.029052734375 284.2723388671875 253.79861450195312 C 276.1007080078125 284.2550048828125 270.0444030761719 307.6022033691406 264.3417053222656 328.55377197265625 C 261.1221618652344 338.450927734375 263.6936950683594 336.32098388671875 268.1160888671875 335.9709167480469 C 316.5796813964844 305.753662109375 362.12109375 272.021728515625 399.95098876953125 232.85720825195312 C 421.1192932128906 209.84437561035156 440.7546081542969 185.65078735351562 449.3548278808594 153.65890502929688 C 452.1618957519531 122.5528793334961 448.5694885253906 113.708984375 432.6607666015625 93.47247314453125 C 417.1662902832031 78.41829681396484 393.66815185546875 62.60356521606445 368.1618347167969 59.7718620300293 C 341.5295715332031 55.70280456542969 310.464599609375 66.49181365966797 289.85064697265625 86.05899047851562 C 260.3437194824219 107.94900512695312 255.2177276611328 136.44882202148438 236.78720092773438 168.79568481445312 C 202.15267944335938 158.966796875 233.11631774902344 139.52059936523438 240.90940856933594 110.7855224609375 C 223.91175842285156 87.68446350097656 196.0169677734375 62.21973419189453 161.58811950683594 51.70927429199219 C 130.9276123046875 47.053707122802734 115.7650375366211 50.77015686035156 94.05597686767578 63.68667221069336 C 75.38130950927734 75.95256042480469 52.86271286010742 98.19673919677734 49.83218002319336 125.79297637939453" stroke-width="0.0" fill="rgb(0, 0, 0)" opacity="1.0" stroke="rgb(0, 0, 0)" stroke-opacity="1.0" stroke-linecap="round" stroke-linejoin="round"/>
  </g>
</svg>
