<?xml version="1.0" ?>
<svg xmlns="http://www.w3.org/2000/svg" version="1.1" width="500" height="500">
  <defs/>
  <g>
    <path d="M 54.86362838745117 102.80496978759766 C 36.253787994384766 77.82196807861328 50.870323181152344 104.65756225585938 73.9760971069336 114.091552734375 C 111.41392517089844 120.8780288696289 118.7233657836914 142.74388122558594 160.85919189453125 200.00613403320312 C 180.4832305908203 251.72268676757812 155.70265197753906 259.634521484375 128.11984252929688 272.031494140625 C 139.31028747558594 246.62167358398438 157.35377502441406 308.95751953125 169.16978454589844 371.69921875 C 227.55068969726562 369.99810791015625 274.157470703125 372.31353759765625 277.45306396484375 373.19580078125 C 286.72723388671875 325.82720947265625 300.80181884765625 283.01373291015625 323.50830078125 234.76187133789062 C 432.9286193847656 263.76617431640625 433.7193298339844 298.5159606933594 436.996826171875 337.0848693847656 C 434.27496337890625 347.6072998046875 460.9707336425781 352.32611083984375 457.17877197265625 341.12786865234375 C 444.4603271484375 355.7031555175781 423.5392761230469 305.94744873046875 394.07623291015625 264.79278564453125 C 378.1041259765625 208.594970703125 364.6666564941406 149.2247772216797 354.16119384765625 85.10995483398438 C 360.8799743652344 73.01451110839844 338.6521301269531 74.12238311767578 361.4552917480469 83.312744140625 C 364.4372253417969 47.34672546386719 373.28656005859375 91.52349090576172 380.2702331542969 254.5450897216797 C 247.32435607910156 239.82456970214844 234.36477661132812 223.84765625 219.8204803466797 203.94281005859375 C 268.35272216796875 204.2146759033203 235.30540466308594 212.66978454589844 165.55506896972656 216.1795654296875 C 137.11419677734375 143.4205780029297 98.78182983398438 146.8646240234375 95.62449645996094 118.2265625 C 180.04409790039062 112.79234313964844 210.58990478515625 91.53836059570312 232.93687438964844 67.55591583251953 C 241.13754272460938 44.136993408203125 246.35977172851562 19.377552032470703 238.61000061035156 51.765411376953125 C 261.6747131347656 37.26497268676758 241.50730895996094 40.72624969482422 247.02894592285156 52.4116096496582 C 232.18626403808594 78.03539276123047 203.22337341308594 90.62849426269531 168.3137969970703 105.72254180908203 C 58.0333366394043 126.05205535888672 24.630203247070312 112.24374389648438 54.86362838745117 102.80496978759766" stroke-width="0.0" fill="rgb(0, 0, 0)" opacity="1.0" stroke="rgb(0, 0, 0)" stroke-opacity="1.0" stroke-linecap="round" stroke-linejoin="round"/>
  </g>
</svg>
