<?xml version="1.0" ?>
<svg xmlns="http://www.w3.org/2000/svg" version="1.1" width="500" height="500">
  <defs/>
  <g>
    <path d="M 54.03151321411133 169.14881896972656 C 45.24888229370117 175.1093292236328 52.36827087402344 199.06048583984375 53.33733367919922 198.02218627929688 C 58.69037628173828 201.68385314941406 73.72123718261719 210.2457275390625 89.34765625 196.13082885742188 C 76.2909927368164 227.30538940429688 86.43614959716797 252.41078186035156 93.5181884765625 278.1462097167969 C 112.68766784667969 331.5622863769531 134.8451385498047 381.7698669433594 157.97816467285156 431.8224792480469 C 166.2008514404297 424.8746643066406 187.68087768554688 411.94219970703125 233.57850646972656 412.8497314453125 C 292.1160888671875 419.9960021972656 331.3635559082031 435.303466796875 355.4378662109375 445.8575744628906 C 368.1918029785156 409.32666015625 378.93939208984375 371.2170104980469 390.13720703125 333.3988342285156 C 399.3312072753906 290.6109619140625 413.3652648925781 255.99839782714844 408.3968811035156 191.46450805664062 C 420.1796569824219 211.82643127441406 442.6917419433594 203.91946411132812 446.1755065917969 197.83070373535156 C 448.771240234375 196.7459259033203 454.115966796875 172.2439727783203 443.9178161621094 167.16392517089844 C 433.2851867675781 156.59390258789062 413.12060546875 164.81141662597656 410.6844177246094 171.75718688964844 C 405.3751220703125 175.73611450195312 410.94915771484375 198.04830932617188 408.7159118652344 215.4859161376953 C 366.5885009765625 217.19442749023438 349.3041687011719 250.21759033203125 306.28466796875 290.7397155761719 C 285.3781433105469 213.2873992919922 282.107421875 146.57962036132812 225.22601318359375 95.25464630126953 C 256.38543701171875 90.81024169921875 270.7684631347656 87.38428497314453 264.8521423339844 62.91162872314453 C 258.81390380859375 48.287078857421875 235.1783905029297 42.248905181884766 223.74937438964844 62.599769592285156 C 242.7251434326172 123.53150939941406 203.46682739257812 173.22933959960938 201.0788116455078 280.1610107421875 C 152.05393981933594 239.46694946289062 130.7938690185547 210.51890563964844 86.13890075683594 204.74546813964844 C 91.19745635986328 193.34532165527344 95.34697723388672 175.69314575195312 87.05780792236328 167.53489685058594 C 82.7356948852539 162.648193359375 63.497581481933594 156.81004333496094 54.03151321411133 169.14881896972656" stroke-width="0.0" fill="rgb(0, 0, 0)" opacity="1.0" stroke="rgb(0, 0, 0)" stroke-opacity="1.0" stroke-linecap="round" stroke-linejoin="round"/>
  </g>
</svg>
