<?xml version="1.0" ?>
<svg xmlns="http://www.w3.org/2000/svg" version="1.1" width="500" height="500">
  <defs/>
  <g>
    <path d="M 50.37786865234375 62.93049621582031 C 55.81843948364258 68.8533706665039 71.15181732177734 80.483154296875 87.11653137207031 89.74330139160156 C 89.00023651123047 115.73753356933594 88.82022857666016 156.4250030517578 100.55252838134766 171.66859436035156 C 124.0634994506836 160.10377502441406 139.11776733398438 136.59178161621094 159.3053741455078 117.27549743652344 C 163.3572540283203 129.4508056640625 169.4290008544922 147.0250244140625 175.57415771484375 162.40142822265625 C 181.64910888671875 174.28199768066406 187.05593872070312 193.48512268066406 199.0805206298828 199.35858154296875 C 217.3389434814453 181.5257568359375 226.5792236328125 153.9988250732422 239.15313720703125 129.63890075683594 C 253.70130920410156 148.56138610839844 268.979248046875 194.2858428955078 290.7920837402344 208.089111328125 C 308.3187255859375 189.85821533203125 314.0801086425781 153.29957580566406 326.4724426269531 124.35955810546875 C 347.3804931640625 143.41197204589844 364.68536376953125 169.66212463378906 389.2021484375 180.91453552246094 C 400.1539001464844 168.66061401367188 402.3710632324219 125.9370346069336 404.7115478515625 96.6651840209961 C 419.9799499511719 86.88410186767578 436.2538146972656 77.61337280273438 449.9491882324219 66.16095733642578 C 451.3377380371094 55.006160736083984 447.2742919921875 52.144561767578125 437.7921447753906 53.24808883666992 C 424.4395751953125 63.40513229370117 409.69390869140625 72.1841812133789 396.2347106933594 80.75702667236328 C 381.1815490722656 88.99491119384766 365.8708190917969 97.13896942138672 348.67303466796875 102.40943145751953 C 332.4867248535156 108.4304428100586 314.49462890625 110.20539855957031 303.3940734863281 112.8536605834961 C 284.3133850097656 113.98336791992188 261.36688232421875 116.67333984375 237.6615447998047 114.06855773925781 C 211.44052124023438 113.93424987792969 183.42703247070312 107.481201171875 157.99781799316406 100.60835266113281 C 138.0793914794922 94.28670501708984 120.28699493408203 87.79226684570312 104.65724182128906 78.74640655517578 C 89.61720275878906 71.11060333251953 75.27677154541016 60.95668411254883 62.63340377807617 50.15021896362305 C 54.66426467895508 50.4442138671875 48.21231460571289 47.4367790222168 50.37786865234375 62.93049621582031" stroke-width="0.0" fill="rgb(0, 0, 0)" opacity="1.0" stroke="rgb(0, 0, 0)" stroke-opacity="1.0" stroke-linecap="round" stroke-linejoin="round"/>
  </g>
</svg>
