<?xml version="1.0" ?>
<svg xmlns="http://www.w3.org/2000/svg" version="1.1" width="500" height="500">
  <defs/>
  <g>
    <path d="M 146.0120391845703 63.6862678527832 C 129.1640625 76.80950927734375 119.91417694091797 98.05805969238281 125.79689025878906 135.9367218017578 C 107.62550354003906 127.11204528808594 92.36744689941406 126.10175323486328 77.03665161132812 134.2194061279297 C 62.9855842590332 143.30120849609375 55.88774871826172 153.6648406982422 50.14778137207031 170.6577911376953 C 49.692142486572266 202.74717712402344 48.77760314941406 197.4814910888672 58.59299087524414 215.16256713867188 C 69.12110900878906 230.37347412109375 85.29652404785156 241.29078674316406 101.9254150390625 249.8978271484375 C 101.99827575683594 286.6927490234375 101.33453369140625 312.326416015625 105.18809509277344 336.3799743652344 C 108.78834533691406 361.32415771484375 115.58789825439453 388.325439453125 127.5899658203125 409.50628662109375 C 144.78526306152344 429.93121337890625 178.75013732910156 436.2741394042969 221.0725860595703 442.1730651855469 C 254.72621154785156 441.2789001464844 296.13214111328125 443.4925537109375 313.23260498046875 438.8617858886719 C 340.484375 435.7723693847656 366.4858093261719 430.60223388671875 388.6107177734375 417.551025390625 C 405.1487731933594 405.76873779296875 410.1156005859375 382.0870666503906 414.6834411621094 353.4283447265625 C 419.0456237792969 323.20196533203125 417.85003662109375 278.95513916015625 416.64495849609375 239.29315185546875 C 431.2582092285156 227.531982421875 444.65191650390625 213.044921875 449.7110595703125 191.44589233398438 C 452.1356506347656 166.307373046875 447.0213928222656 157.82070922851562 438.65313720703125 143.78936767578125 C 426.1642150878906 128.84288024902344 407.9007873535156 122.39647674560547 383.19647216796875 123.00187683105469 C 380.6336364746094 85.49754333496094 369.194580078125 64.67163848876953 344.00054931640625 49.3565559387207 C 348.1339416503906 50.1184196472168 298.63360595703125 50.13186264038086 267.1059875488281 49.96095275878906 C 255.88345336914062 56.98048782348633 248.87046813964844 64.19257354736328 242.02796936035156 74.76557922363281 C 231.08567810058594 62.6179313659668 216.77032470703125 55.362388610839844 200.58863830566406 50.32960891723633 C 174.415283203125 48.29607009887695 159.53826904296875 52.90998458862305 146.0120391845703 63.6862678527832" stroke-width="0.0" fill="rgb(0, 0, 0)" opacity="1.0" stroke="rgb(0, 0, 0)" stroke-opacity="1.0" stroke-linecap="round" stroke-linejoin="round"/>
  </g>
</svg>
