<?xml version="1.0" ?>
<svg xmlns="http://www.w3.org/2000/svg" version="1.1" width="500" height="500">
  <defs/>
  <g>
    <path d="M 224.27345275878906 51.48866653442383 C 194.74636840820312 55.691280364990234 172.23544311523438 64.383544921875 150.6268310546875 76.27140045166016 C 128.184326171875 88.82527923583984 108.67485809326172 106.87117004394531 92.7342300415039 126.05416107177734 C 84.33102416992188 136.77413940429688 76.64541625976562 148.7551727294922 70.54584503173828 161.61146545410156 C 63.6969108581543 176.01072692871094 59.167388916015625 186.2987823486328 54.65153884887695 206.2764434814453 C 49.9660758972168 228.62648010253906 48.5168571472168 243.09591674804688 50.941505432128906 274.1347961425781 C 54.019744873046875 294.54412841796875 58.30162048339844 308.6031799316406 63.336605072021484 322.7936706542969 C 67.86800384521484 334.2587585449219 73.07258605957031 344.9693908691406 79.3323745727539 355.6258850097656 C 92.3460693359375 375.96197509765625 108.7325439453125 394.32452392578125 128.1038818359375 409.39825439453125 C 148.23329162597656 424.5741271972656 172.3407440185547 436.9634704589844 200.235107421875 444.2752380371094 C 223.33395385742188 450.5986633300781 245.57850646972656 451.5961608886719 276.6665344238281 449.0323181152344 C 308.7960205078125 444.2179870605469 329.27569580078125 435.3998718261719 351.09539794921875 423.4675598144531 C 364.8717041015625 415.5970458984375 377.2363586425781 405.76324462890625 388.5361633300781 395.4433288574219 C 399.018798828125 385.7527770996094 407.848388671875 374.0756530761719 416.7172546386719 362.7281799316406 C 428.14410400390625 343.23895263671875 438.7691345214844 323.9842834472656 444.6900634765625 297.5105895996094 C 450.5495300292969 276.79571533203125 451.45111083984375 248.43190002441406 448.7759704589844 223.33087158203125 C 444.31915283203125 192.057861328125 434.9888916015625 170.3831787109375 423.2851867675781 148.8610076904297 C 409.8038330078125 126.26499938964844 392.4436950683594 107.08611297607422 372.22613525390625 91.46932220458984 C 359.4810485839844 81.05976104736328 345.0085144042969 73.41619110107422 329.9306335449219 66.31966400146484 C 319.35296630859375 61.48295593261719 307.560791015625 58.45819854736328 295.3125305175781 55.02168655395508 C 272.96356201171875 50.17605209350586 252.2851104736328 48.19591522216797 224.27345275878906 51.48866653442383" stroke-width="0.0" fill="rgb(0, 0, 0)" opacity="1.0" stroke="rgb(0, 0, 0)" stroke-opacity="1.0" stroke-linecap="round" stroke-linejoin="round"/>
  </g>
</svg>
