<?xml version="1.0" ?>
<svg xmlns="http://www.w3.org/2000/svg" version="1.1" width="500" height="500">
  <defs/>
  <g>
    <path d="M 72.51693725585938 58.159812927246094 C 60.27132034301758 74.94641876220703 53.4759635925293 91.97269439697266 50.39415740966797 113.08251953125 C 49.44146728515625 131.67027282714844 49.74713134765625 139.4094696044922 50.3725700378418 158.27633666992188 C 54.58306121826172 181.58006286621094 61.476646423339844 201.4716796875 72.10987091064453 218.42202758789062 C 89.74880981445312 249.133544921875 114.45911407470703 273.08038330078125 148.59396362304688 283.5657653808594 C 184.5822296142578 288.0635681152344 183.32086181640625 284.3260498046875 173.56495666503906 288.1853942871094 C 183.39727783203125 277.8435974121094 195.55471801757812 275.6101989746094 254.04489135742188 260.3147277832031 C 248.42041015625 273.9892883300781 245.39047241210938 299.6908874511719 249.8437042236328 327.3868408203125 C 255.25973510742188 345.4316101074219 263.40985107421875 358.9935302734375 277.49334716796875 364.0525817871094 C 284.02105712890625 371.83026123046875 305.81671142578125 371.3332214355469 325.6148986816406 354.35675048828125 C 368.60430908203125 321.37127685546875 402.01348876953125 279.44354248046875 428.398193359375 230.9489288330078 C 436.8848876953125 215.72682189941406 444.8218078613281 200.7783966064453 447.46026611328125 187.04193115234375 C 451.26513671875 182.2897491455078 455.1234436035156 148.5299835205078 439.5653076171875 136.6136932373047 C 414.7774658203125 125.33753204345703 382.7008972167969 134.9820556640625 389.28607177734375 134.5935821533203 C 363.4056701660156 138.19998168945312 341.8890380859375 148.2034912109375 323.3348693847656 161.55577087402344 C 300.7325439453125 176.4737091064453 283.9355773925781 197.27609252929688 269.6452941894531 222.74505615234375 C 254.26019287109375 249.9421844482422 263.64593505859375 268.6465148925781 199.4136962890625 271.2479553222656 C 207.28378295898438 245.76290893554688 201.2247314453125 211.76699829101562 188.73504638671875 182.57138061523438 C 176.9145965576172 144.34092712402344 160.58041381835938 111.0325698852539 138.96156311035156 83.19496154785156 C 129.40878295898438 69.47530364990234 118.53495025634766 57.533180236816406 101.62300872802734 50.471858978271484 C 110.94579315185547 52.13037109375 79.9149169921875 44.499881744384766 72.51693725585938 58.159812927246094" stroke-width="0.0" fill="rgb(0, 0, 0)" opacity="1.0" stroke="rgb(0, 0, 0)" stroke-opacity="1.0" stroke-linecap="round" stroke-linejoin="round"/>
  </g>
</svg>
