<?xml version="1.0" ?>
<svg xmlns="http://www.w3.org/2000/svg" version="1.1" width="500" height="500">
  <defs/>
  <g>
    <path d="M 51.99274444580078 199.2934112548828 C 53.50440216064453 234.06976318359375 53.92451095581055 259.1847839355469 57.444278717041016 233.8248748779297 C 36.09827423095703 239.84336853027344 67.45709991455078 238.97512817382812 52.443782806396484 236.8467559814453 C 52.655277252197266 239.32046508789062 53.12400817871094 218.34848022460938 57.04985809326172 197.74314880371094 C 132.46319580078125 196.76734924316406 141.34329223632812 190.9346160888672 157.27734375 182.3031768798828 C 146.53543090820312 223.80252075195312 146.14720153808594 268.7727966308594 155.7387237548828 302.3329772949219 C 170.7759552001953 326.4563903808594 189.89540100097656 344.6490783691406 215.42469787597656 355.30072021484375 C 239.4639129638672 363.5115661621094 268.4964904785156 370.0936584472656 305.75799560546875 371.57666015625 C 349.7870788574219 366.22247314453125 376.3016052246094 360.69384765625 339.86663818359375 370.6352233886719 C 380.3095397949219 362.76593017578125 418.9740905761719 348.94146728515625 448.0007629394531 332.1771545410156 C 447.1554260253906 351.5977478027344 449.4744567871094 328.6324157714844 447.6619873046875 304.5401916503906 C 425.9637756347656 263.3105163574219 396.1634826660156 228.37046813964844 360.6888122558594 197.2260284423828 C 362.0862731933594 172.53231811523438 361.9936828613281 152.8701171875 360.5171203613281 137.7836151123047 C 346.1041259765625 112.38105010986328 326.18878173828125 91.95358276367188 306.5228271484375 67.86913299560547 C 282.9119567871094 63.02583694458008 250.59889221191406 57.442039489746094 275.0416259765625 63.23134994506836 C 265.72161865234375 44.329647064208984 283.67095947265625 48.097496032714844 279.492919921875 67.1479721069336 C 249.41481018066406 71.80183410644531 234.04432678222656 76.62850189208984 220.3742218017578 82.79232025146484 C 203.4003448486328 93.04672241210938 188.634521484375 105.97643280029297 177.06430053710938 128.82827758789062 C 178.95516967773438 141.37403869628906 158.68099975585938 125.75408172607422 137.59066772460938 126.02058410644531 C 137.2184600830078 156.26109313964844 136.2808074951172 182.33816528320312 135.54783630371094 194.13992309570312 C 48.658966064453125 198.5666046142578 36.10710906982422 204.42161560058594 51.99274444580078 199.2934112548828" stroke-width="0.0" fill="rgb(0, 0, 0)" opacity="1.0" stroke="rgb(0, 0, 0)" stroke-opacity="1.0" stroke-linecap="round" stroke-linejoin="round"/>
  </g>
</svg>
