<?xml version="1.0" ?>
<svg xmlns="http://www.w3.org/2000/svg" version="1.1" width="500" height="500">
  <defs/>
  <g>
    <path d="M 50.0078010559082 119.28334045410156 C 46.5517463684082 156.62599182128906 75.54715728759766 149.8119354248047 64.94575500488281 171.1901397705078 C 71.78809356689453 198.39559936523438 88.78569030761719 197.66123962402344 106.59107208251953 196.18218994140625 C 114.95417022705078 192.61978149414062 123.03929138183594 187.92544555664062 128.60211181640625 180.44088745117188 C 137.71298217773438 196.3495330810547 150.1781005859375 208.28213500976562 166.45425415039062 218.32745361328125 C 184.42138671875 229.54795837402344 208.1238555908203 237.7926025390625 234.43968200683594 240.56356811523438 C 247.49029541015625 241.53468322753906 270.33453369140625 241.31350708007812 281.3320617675781 239.31301879882812 C 290.93023681640625 238.6504669189453 304.41973876953125 234.0186004638672 315.1169738769531 230.41004943847656 C 340.6842346191406 220.64366149902344 361.3686828613281 205.7864227294922 375.0939636230469 185.53363037109375 C 386.6548767089844 195.52626037597656 398.7140197753906 200.6382293701172 420.808349609375 193.61534118652344 C 447.4878845214844 168.92404174804688 419.0937194824219 160.24813842773438 440.51641845703125 150.73886108398438 C 453.5488586425781 135.05296325683594 452.7472839355469 110.95462799072266 433.8068542480469 101.15638732910156 C 421.6150207519531 102.41007232666016 436.7152099609375 81.28085327148438 406.5815734863281 69.58853149414062 C 388.1160888671875 69.28795623779297 377.12127685546875 82.17512512207031 366.8739318847656 95.24700927734375 C 355.83984375 81.59902954101562 340.2011413574219 71.58463287353516 323.70111083984375 64.12586975097656 C 309.8845520019531 57.28941345214844 288.95428466796875 51.86157989501953 270.675537109375 50.18293762207031 C 231.14608764648438 48.67544937133789 219.89210510253906 51.39169692993164 193.04098510742188 59.6511344909668 C 170.35098266601562 68.19823455810547 149.86692810058594 81.45750427246094 136.008544921875 99.1160888671875 C 127.94799041748047 89.43409729003906 120.81608581542969 81.42403411865234 111.5419921875 74.53601837158203 C 102.31526184082031 69.41655731201172 89.64977264404297 64.61698913574219 76.0339584350586 81.57268524169922 C 74.57227325439453 90.46925354003906 65.98424530029297 96.69833374023438 50.0078010559082 119.28334045410156" stroke-width="0.0" fill="rgb(0, 0, 0)" opacity="1.0" stroke="rgb(0, 0, 0)" stroke-opacity="1.0" stroke-linecap="round" stroke-linejoin="round"/>
  </g>
</svg>
