<?xml version="1.0" ?>
<svg xmlns="http://www.w3.org/2000/svg" version="1.1" width="500" height="500">
  <defs/>
  <g>
    <path d="M 58.362571716308594 113.52403259277344 C 54.18806076049805 136.1589813232422 73.5462417602539 149.81768798828125 77.39685821533203 154.19564819335938 C 78.58881378173828 214.21067810058594 58.589176177978516 236.36703491210938 46.97943878173828 285.6026611328125 C 53.042991638183594 304.2391357421875 58.075157165527344 336.59844970703125 46.64765548706055 359.4163818359375 C 68.11957550048828 354.8011474609375 50.87112808227539 373.9333190917969 78.14376068115234 367.96270751953125 C 67.27978515625 360.6788635253906 122.4573974609375 365.451171875 156.9117431640625 363.64202880859375 C 143.32626342773438 351.684326171875 226.13760375976562 366.778076171875 248.42710876464844 353.4730224609375 C 267.7942199707031 356.42340087890625 294.8377990722656 369.7139587402344 328.5201110839844 361.890625 C 362.3857727050781 367.5430603027344 397.1289367675781 363.37799072265625 453.0895080566406 357.7270812988281 C 453.1929016113281 344.16412353515625 456.2304382324219 350.9109802246094 432.314208984375 348.49737548828125 C 433.06292724609375 334.8093566894531 446.2985534667969 308.23712158203125 452.9488220214844 296.9355163574219 C 452.9212341308594 281.41668701171875 453.13018798828125 256.5566711425781 453.1777648925781 245.58840942382812 C 437.6820983886719 208.41912841796875 422.2217712402344 179.50396728515625 406.5257568359375 145.3177032470703 C 422.9686584472656 129.11172485351562 416.998779296875 126.2865982055664 418.09735107421875 84.7185287475586 C 398.1037902832031 64.87996673583984 367.5478515625 72.2394790649414 362.9564208984375 83.65605926513672 C 346.5021667480469 71.91451263427734 359.2615966796875 78.77543640136719 351.5119934082031 65.81287384033203 C 334.1218566894531 80.9308853149414 327.3394470214844 58.989219665527344 274.441162109375 52.461238861083984 C 247.43096923828125 55.78493118286133 269.19244384765625 45.179100036621094 217.77781677246094 48.437034606933594 C 186.89694213867188 65.37425231933594 148.36106872558594 73.87163543701172 130.23995971679688 98.2178726196289 C 99.05475616455078 96.8785629272461 102.00303649902344 101.04237365722656 101.76181030273438 92.7823257446289 C 69.3071517944336 94.808837890625 71.1398696899414 101.96095275878906 58.362571716308594 113.52403259277344" stroke-width="0.0" fill="rgb(0, 0, 0)" opacity="1.0" stroke="rgb(0, 0, 0)" stroke-opacity="1.0" stroke-linecap="round" stroke-linejoin="round"/>
  </g>
</svg>
