<?xml version="1.0" ?>
<svg xmlns="http://www.w3.org/2000/svg" version="1.1" width="500" height="500">
  <defs/>
  <g>
    <path d="M 67.92474365234375 128.4105682373047 C 59.18393325805664 137.93878173828125 56.47093200683594 150.6053924560547 51.15809631347656 159.17904663085938 C 49.1408805847168 177.02774047851562 49.23234558105469 233.36721801757812 53.064910888671875 225.92031860351562 C 62.59486389160156 264.8238830566406 86.01959991455078 287.73486328125 112.23104858398438 312.6330871582031 C 141.86767578125 334.8809814453125 177.5432586669922 352.1944274902344 217.78175354003906 360.7765197753906 C 240.8709259033203 367.8657531738281 280.4104309082031 370.0854187011719 322.5916748046875 375.3187561035156 C 343.31878662109375 372.66094970703125 357.6045227050781 381.2539978027344 393.8780517578125 391.72894287109375 C 409.5831298828125 394.30780029296875 427.9115295410156 393.6224365234375 423.4474182128906 389.85308837890625 C 430.9554138183594 387.13739013671875 432.8095397949219 374.9068298339844 431.8824462890625 366.8046875 C 425.3500061035156 349.7744140625 403.5013122558594 349.9732971191406 401.0938415527344 327.18377685546875 C 399.7356872558594 340.93499755859375 399.3915710449219 289.81768798828125 401.1113586425781 297.3190612792969 C 408.7054443359375 253.0690155029297 436.4002685546875 221.6732635498047 449.0675354003906 169.5168914794922 C 450.2106018066406 163.41139221191406 450.9927978515625 127.61540222167969 448.757080078125 109.16156005859375 C 440.51226806640625 93.66462707519531 434.12286376953125 76.20406341552734 413.68316650390625 63.62752914428711 C 402.359130859375 57.9415168762207 394.44976806640625 50.986480712890625 376.1433410644531 49.94166946411133 C 345.2782287597656 50.499488830566406 328.2156066894531 47.821292877197266 314.8019714355469 55.318634033203125 C 293.7423095703125 64.9237060546875 279.5435791015625 75.53255462646484 269.5638732910156 90.8812484741211 C 258.87213134765625 104.16181945800781 250.30386352539062 124.97445678710938 248.68080139160156 145.2604522705078 C 227.49191284179688 121.31363677978516 204.4563446044922 106.3302001953125 168.1366424560547 97.58921813964844 C 161.21234130859375 96.8919677734375 122.3521957397461 94.80165100097656 109.41925811767578 102.00665283203125 C 89.85331726074219 109.10842895507812 78.85163116455078 117.18587493896484 67.92474365234375 128.4105682373047" stroke-width="0.0" fill="rgb(0, 0, 0)" opacity="1.0" stroke="rgb(0, 0, 0)" stroke-opacity="1.0" stroke-linecap="round" stroke-linejoin="round"/>
  </g>
</svg>
