<?xml version="1.0" ?>
<svg xmlns="http://www.w3.org/2000/svg" version="1.1" width="500" height="500">
  <defs/>
  <g>
    <path d="M 88.50341796875 70.3320083618164 C 71.51888275146484 77.54043579101562 70.7667465209961 85.40803527832031 65.52326965332031 91.76998138427734 C 62.07046890258789 116.95795440673828 70.19904327392578 111.87356567382812 74.66241455078125 126.11771392822266 C 58.46229934692383 132.13534545898438 60.35819625854492 190.9665985107422 48.161861419677734 207.69900512695312 C 47.833518981933594 210.7957763671875 48.156375885009766 259.5622253417969 47.99928665161133 275.6899719238281 C 58.045982360839844 273.94549560546875 55.974796295166016 312.30035400390625 71.93539428710938 343.09033203125 C 83.5046615600586 357.6548156738281 92.18870544433594 373.1274719238281 113.10244750976562 393.32501220703125 C 126.09233093261719 398.76055908203125 139.21946716308594 411.83062744140625 161.72793579101562 419.14935302734375 C 191.01181030273438 419.23773193359375 216.74717712402344 416.19012451171875 229.634033203125 430.09075927734375 C 250.4322967529297 439.45880126953125 259.7737731933594 434.8858642578125 307.1571350097656 436.1628112792969 C 325.185546875 421.92938232421875 336.913330078125 433.7333984375 348.7858581542969 422.5310974121094 C 375.3027648925781 393.1835021972656 416.4186706542969 374.5654602050781 439.3746643066406 350.32818603515625 C 436.31195068359375 348.9784240722656 446.8389587402344 331.73565673828125 451.92596435546875 330.47802734375 C 451.9844970703125 302.1203308105469 452.0331726074219 267.87347412109375 452.0926513671875 238.44091796875 C 433.0477600097656 231.12643432617188 456.566162109375 223.2298583984375 430.8499450683594 226.25209045410156 C 436.3429870605469 194.54905700683594 396.4344482421875 195.46241760253906 396.40301513671875 154.26736450195312 C 370.8548889160156 134.12620544433594 368.5364074707031 102.30941772460938 351.4029235839844 94.69691467285156 C 322.51885986328125 68.46662139892578 297.3404235839844 62.987606048583984 255.85963439941406 49.08646011352539 C 240.61746215820312 49.16651153564453 196.8241729736328 48.88727569580078 168.21893310546875 48.9136848449707 C 178.0019073486328 62.423187255859375 155.421142578125 48.47895431518555 132.36622619628906 76.108154296875 C 92.28645324707031 83.74617767333984 126.33977508544922 66.87427520751953 88.50341796875 70.3320083618164" stroke-width="0.0" fill="rgb(0, 0, 0)" opacity="1.0" stroke="rgb(0, 0, 0)" stroke-opacity="1.0" stroke-linecap="round" stroke-linejoin="round"/>
  </g>
</svg>
