<?xml version="1.0" encoding="utf-8"?>
<!DOCTYPE svg PUBLIC "-//W3C//DTD SVG 20010904//EN" "http://www.w3.org/TR/2001/REC-SVG-20010904/DTD/svg10.dtd">
<svg version="1.0" xmlns="http://www.w3.org/2000/svg" width="602pt" height="262pt" viewBox="0 0 602 262" style="" preserveAspectRatio="xMidYMid meet">
<g fill="#76A7DFFF" stroke="#76A7DFFF">
<path d="M 513.000 2.063 C 489.075 2.464 415.275 3.514 349.000 4.395 C 71.210 8.092 73.953 8.042 66.582 9.462 C 54.288 11.830 49.727 13.205 41.198 17.114 C 30.309 22.105 21.191 30.882 18.514 38.951 C 13.528 53.982 18.674 71.723 32.848 88.363 C 46.140 103.968 48.327 117.789 39.676 131.500 C 37.941 134.250 30.885 142.350 23.997 149.500 C 3.892 170.368 1.992 174.339 2.013 195.432 C 2.044 225.662 11.808 247.425 30.004 257.817 L 35.002 260.672 298.251 260.273 L 561.500 259.875 566.839 257.452 C 573.895 254.250 584.447 243.577 590.008 234.016 C 597.701 220.792 601.775 203.500 599.916 191.960 C 598.533 183.371 596.420 178.880 588.708 168.141 C 572.095 145.004 561.434 114.498 563.378 95.657 C 564.359 86.154 565.667 82.659 570.777 75.893 C 579.182 64.762 580.985 61.985 585.027 53.947 C 589.582 44.887 591.165 36.471 589.959 27.714 C 588.102 14.223 573.604 0.750 561.390 1.167 C 558.701 1.258 536.925 1.662 513.000 2.063 "/></g>
</svg>
