<?xml version="1.0" encoding="utf-8"?>
<!DOCTYPE svg PUBLIC "-//W3C//DTD SVG 20010904//EN" "http://www.w3.org/TR/2001/REC-SVG-20010904/DTD/svg10.dtd">
<svg version="1.0" xmlns="http://www.w3.org/2000/svg" width="602pt" height="344pt" viewBox="0 0 602 344" style="" preserveAspectRatio="xMidYMid meet">
<g fill="#000000FF" stroke="#000000FF">
<path d="M 328.000 3.092 C 296.164 4.259 240.334 8.445 203.500 12.428 C 168.687 16.193 151.867 18.597 151.045 19.927 C 148.936 23.339 148.400 90.998 150.018 149.500 C 150.942 182.908 153.154 228.851 154.978 252.500 C 156.620 273.803 158.952 301.240 159.993 311.500 C 160.551 317.000 161.300 324.578 161.656 328.341 C 162.193 334.002 162.667 335.332 164.403 336.053 C 166.448 336.903 188.120 337.855 259.500 340.233 C 335.200 342.755 518.832 341.564 585.500 338.120 L 597.500 337.500 598.476 323.500 C 599.888 303.233 599.685 174.822 598.189 142.000 C 596.554 106.155 595.470 86.811 593.452 57.500 C 592.543 44.300 591.507 28.550 591.149 22.500 L 590.500 11.500 582.500 10.863 C 542.618 7.686 531.806 6.852 513.500 5.537 C 501.950 4.707 482.150 3.569 469.500 3.008 C 443.491 1.854 360.438 1.904 328.000 3.092 M 585.395 33.215 C 585.781 38.872 586.522 49.800 587.042 57.500 C 591.979 130.563 594.489 212.306 593.504 268.000 C 593.110 290.275 592.498 313.675 592.144 320.000 L 591.500 331.500 577.500 332.155 C 511.578 335.237 365.676 336.181 279.000 334.085 C 227.040 332.828 169.288 330.621 168.530 329.863 C 168.284 329.617 167.389 321.560 166.539 311.958 C 165.690 302.356 164.549 289.550 164.004 283.500 C 162.261 264.167 160.011 230.789 158.005 194.500 C 155.359 146.631 154.483 31.000 156.767 31.000 C 157.045 31.000 164.524 36.018 173.386 42.152 C 198.646 59.633 220.606 74.801 245.000 91.616 C 266.159 106.201 272.801 110.787 307.320 134.641 C 318.158 142.130 320.990 144.548 320.442 145.846 C 316.346 155.553 315.753 158.019 315.719 165.500 C 315.607 190.297 332.478 210.349 370.462 230.568 L 381.424 236.403 392.462 230.577 C 408.493 222.115 421.552 213.156 429.242 205.347 C 436.556 197.920 437.458 196.761 441.192 190.000 C 449.217 175.468 449.455 155.681 441.736 144.673 C 440.628 143.092 440.139 141.483 440.627 141.024 C 441.107 140.572 445.550 137.143 450.500 133.406 C 491.143 102.716 545.169 57.828 576.500 28.716 C 580.350 25.138 583.769 22.373 584.097 22.570 C 584.426 22.768 585.010 27.558 585.395 33.215 M 463.000 9.510 C 484.725 10.327 511.500 11.652 522.500 12.454 C 555.624 14.869 570.268 16.089 574.898 16.819 L 579.296 17.512 564.398 31.052 C 543.028 50.473 512.335 76.728 491.977 93.000 C 489.569 94.925 486.226 97.652 484.549 99.060 C 479.557 103.252 455.222 122.042 444.896 129.677 L 435.292 136.780 430.896 134.061 C 414.489 123.914 399.025 128.812 383.917 148.942 L 381.333 152.384 378.668 148.462 C 370.797 136.879 360.472 129.973 349.856 129.191 C 342.890 128.678 338.213 130.123 330.625 135.135 L 324.749 139.015 309.125 128.160 C 300.531 122.190 290.575 115.302 287.000 112.853 C 283.425 110.405 266.550 98.773 249.500 87.004 C 232.450 75.235 214.214 62.657 208.975 59.053 C 167.870 30.775 159.064 24.603 159.374 24.293 C 159.569 24.098 165.302 23.277 172.114 22.469 C 178.926 21.661 188.325 20.544 193.000 19.988 C 277.329 9.948 374.460 6.178 463.000 9.510 M 356.233 136.986 C 362.335 139.269 369.413 145.997 375.972 155.750 C 378.284 159.188 380.797 162.000 381.557 162.000 C 382.317 162.000 385.144 158.738 387.838 154.750 C 398.018 139.686 408.663 133.184 418.793 135.844 C 429.117 138.555 437.460 146.583 440.096 156.343 C 440.713 158.629 441.029 164.140 440.797 168.588 C 439.737 188.936 425.500 205.005 392.069 223.587 L 381.637 229.386 373.569 225.028 C 347.302 210.844 333.394 198.895 326.391 184.500 C 322.625 176.756 322.500 176.164 322.500 166.000 C 322.500 156.230 322.706 155.128 325.466 150.144 C 329.008 143.750 333.713 139.646 340.500 137.031 C 346.921 134.557 349.719 134.549 356.233 136.986 "/></g>
<g fill="#FFF3E2FF" stroke="#FFF3E2FF">
<path d="M 578.772 26.750 C 576.444 28.813 573.855 31.235 573.019 32.134 C 572.184 33.032 568.768 36.182 565.429 39.134 C 562.090 42.085 555.820 47.650 551.495 51.500 C 547.171 55.350 542.478 59.390 541.066 60.478 C 539.655 61.565 536.600 64.214 534.279 66.363 C 531.957 68.513 529.032 70.977 527.779 71.840 C 526.525 72.702 525.050 73.929 524.500 74.566 C 523.105 76.181 494.859 99.415 492.896 100.562 C 491.094 101.615 484.630 106.862 479.141 111.727 C 477.138 113.502 475.232 114.964 474.906 114.977 C 474.579 114.990 473.004 116.147 471.406 117.549 C 469.807 118.951 462.119 124.888 454.320 130.741 L 440.141 141.384 442.609 145.597 C 443.967 147.913 445.258 150.639 445.478 151.654 C 448.189 164.171 448.292 165.428 447.187 172.534 C 444.681 188.654 432.850 205.571 416.500 216.412 C 401.886 226.103 384.091 236.000 381.281 236.000 C 379.925 236.000 360.255 225.514 355.000 221.990 C 353.625 221.067 350.661 219.108 348.414 217.634 C 333.740 208.014 320.187 191.482 317.336 179.728 C 315.187 170.863 314.759 165.420 315.795 160.139 C 317.608 150.900 317.884 149.848 318.807 148.648 C 321.214 145.517 320.820 144.147 316.737 141.445 C 314.465 139.941 312.132 138.304 311.553 137.806 C 310.399 136.815 307.932 135.110 285.000 119.452 C 276.475 113.631 266.350 106.631 262.500 103.896 C 258.650 101.161 252.350 96.844 248.500 94.302 C 244.650 91.759 241.275 89.399 241.000 89.057 C 240.725 88.715 238.096 86.913 235.158 85.054 C 232.221 83.195 229.296 81.178 228.658 80.571 C 228.021 79.964 221.200 75.236 213.500 70.063 C 205.800 64.890 199.275 60.397 199.000 60.077 C 198.725 59.758 195.800 57.671 192.500 55.439 C 179.097 46.375 170.455 40.456 169.505 39.690 C 168.952 39.244 165.800 37.109 162.500 34.944 L 156.500 31.009 155.745 49.755 C 155.028 67.552 155.567 138.275 156.509 150.000 C 156.752 153.025 157.188 163.375 157.478 173.000 C 158.187 196.490 158.620 204.695 161.435 248.000 C 162.458 263.725 164.445 287.657 166.584 310.000 C 166.873 313.025 167.324 318.200 167.584 321.500 C 167.845 324.800 168.233 328.002 168.446 328.615 C 169.255 330.942 221.221 332.963 329.000 334.858 C 367.302 335.532 506.062 334.667 533.500 333.583 C 542.300 333.236 558.050 332.719 568.500 332.435 C 578.950 332.152 588.444 331.721 589.598 331.479 C 591.614 331.055 591.727 330.241 592.472 310.769 C 593.517 283.446 593.764 214.389 592.910 188.500 C 592.529 176.950 591.899 157.825 591.510 146.000 C 590.412 112.652 588.164 72.300 585.518 38.500 C 585.389 36.850 585.146 32.688 584.978 29.250 C 584.809 25.813 584.297 23.000 583.839 23.000 C 583.381 23.000 581.101 24.688 578.772 26.750 M 309.500 309.992 C 324.900 310.520 352.575 311.413 371.000 311.975 C 417.997 313.411 426.048 313.961 426.747 315.784 C 427.061 316.602 426.859 317.998 426.298 318.886 C 425.147 320.708 418.346 320.722 372.500 318.994 C 358.750 318.476 331.300 317.584 311.500 317.012 C 272.765 315.892 259.185 315.232 257.847 314.406 C 256.840 313.783 256.719 310.614 257.667 309.667 C 258.588 308.746 276.416 308.858 309.500 309.992 M 492.837 311.878 C 493.573 312.345 494.023 313.800 493.837 315.113 L 493.500 317.500 476.000 317.804 C 450.466 318.248 445.770 317.369 447.638 312.500 C 448.126 311.230 451.532 311.002 469.857 311.015 C 481.761 311.024 492.102 311.412 492.837 311.878 "/></g>
<g fill="#FFF3E2FF" stroke="#FFF3E2FF">
<path d="M 351.500 8.980 C 326.361 9.833 300.629 10.914 290.562 11.541 C 281.403 12.111 244.224 14.939 237.500 15.577 C 234.200 15.890 229.250 16.345 226.500 16.587 C 223.750 16.829 218.350 17.423 214.500 17.907 C 210.650 18.391 206.825 18.780 206.000 18.771 C 204.231 18.752 193.587 19.917 190.000 20.523 C 188.625 20.755 184.800 21.209 181.500 21.532 C 178.200 21.855 173.108 22.533 170.184 23.038 C 167.261 23.543 164.561 23.913 164.184 23.860 C 163.808 23.807 162.381 23.816 161.013 23.882 C 158.849 23.985 159.239 24.476 164.013 27.666 C 167.031 29.683 169.725 31.632 170.000 31.997 C 170.472 32.625 172.876 34.265 191.000 46.323 C 195.125 49.068 198.725 51.595 199.000 51.939 C 199.275 52.284 201.904 54.087 204.842 55.946 C 207.779 57.805 210.704 59.815 211.342 60.413 C 212.590 61.585 221.004 67.383 233.000 75.339 C 237.125 78.075 240.725 80.580 241.000 80.907 C 241.275 81.233 244.875 83.786 249.000 86.580 C 277.221 105.696 282.555 109.358 283.000 109.921 C 283.275 110.269 289.800 114.781 297.500 119.948 C 305.200 125.115 311.725 129.620 312.000 129.960 C 312.275 130.299 315.336 132.492 318.803 134.833 L 325.107 139.088 328.156 136.522 C 334.177 131.455 339.843 129.500 348.500 129.500 C 354.952 129.500 357.456 129.971 361.441 131.932 C 366.739 134.539 373.321 140.792 378.252 147.902 C 381.138 152.062 381.381 152.199 382.695 150.402 C 389.574 140.991 392.463 137.847 397.104 134.722 C 407.290 127.862 417.928 127.260 429.165 132.907 L 435.818 136.250 442.330 131.375 C 445.911 128.694 449.819 125.825 451.014 125.000 C 452.209 124.175 454.382 122.473 455.843 121.217 C 457.304 119.961 463.675 115.036 470.000 110.273 C 476.325 105.509 483.062 100.124 484.971 98.306 C 486.880 96.488 488.723 95.000 489.068 95.000 C 489.412 95.000 490.775 94.073 492.097 92.939 C 493.419 91.806 495.400 90.110 496.500 89.170 C 497.600 88.230 503.675 83.207 510.000 78.008 C 516.325 72.809 521.725 68.308 522.000 68.005 C 522.275 67.703 525.170 65.215 528.432 62.478 C 531.695 59.740 535.745 56.225 537.432 54.666 C 539.120 53.107 542.525 50.188 545.000 48.179 C 547.475 46.169 550.405 43.619 551.512 42.513 C 552.618 41.406 559.031 35.589 565.762 29.586 C 572.493 23.584 578.000 18.296 578.000 17.836 C 578.000 17.376 576.988 16.936 575.750 16.858 C 574.513 16.779 572.150 16.593 570.500 16.445 C 562.567 15.729 534.248 13.448 521.500 12.498 C 509.010 11.568 503.793 11.283 486.000 10.563 C 477.475 10.217 466.450 9.734 461.500 9.487 C 442.075 8.521 374.238 8.208 351.500 8.980 "/></g>
<g fill="#E94E5CFF" stroke="#E94E5CFF">
<path d="M 338.271 138.603 C 328.151 143.499 322.781 153.117 322.833 166.254 C 322.917 187.782 337.647 204.997 371.444 223.065 L 381.388 228.382 390.809 223.441 C 413.815 211.375 429.084 198.440 435.350 185.709 C 445.350 165.393 440.201 145.159 423.175 137.861 C 410.948 132.619 399.648 138.232 388.419 155.122 C 382.348 164.254 380.725 164.287 374.928 155.389 C 363.465 137.795 351.379 132.261 338.271 138.603 "/></g>
<g fill="#513736FF" stroke="#513736FF">
<path d="M 257.667 309.667 C 256.719 310.614 256.840 313.783 257.847 314.406 C 259.185 315.232 272.765 315.892 311.500 317.012 C 331.300 317.584 358.750 318.476 372.500 318.994 C 418.346 320.722 425.147 320.708 426.298 318.886 C 426.859 317.998 427.061 316.602 426.747 315.784 C 426.048 313.961 417.997 313.411 371.000 311.975 C 352.575 311.413 324.900 310.520 309.500 309.992 C 276.416 308.858 258.588 308.746 257.667 309.667 "/></g>
<g fill="#513736FF" stroke="#513736FF">
<path d="M 447.638 312.500 C 445.770 317.369 450.466 318.248 476.000 317.804 L 493.500 317.500 493.837 315.113 C 494.023 313.800 493.573 312.345 492.837 311.878 C 492.102 311.412 481.761 311.024 469.857 311.015 C 451.532 311.002 448.126 311.230 447.638 312.500 "/></g>
<g fill="#FFF3E2FF" stroke="#FFF3E2FF">
<path d="M 386.000 226.049 C 384.075 227.076 382.860 227.935 383.300 227.958 C 384.403 228.016 390.267 224.932 389.843 224.517 C 389.654 224.332 387.925 225.021 386.000 226.049 "/></g>
<g fill="#FFF3E2FF" stroke="#FFF3E2FF">
<path d="M 373.000 224.450 C 373.000 225.076 378.619 228.016 379.700 227.956 C 380.140 227.931 378.813 227.021 376.750 225.932 C 374.688 224.843 373.000 224.176 373.000 224.450 "/></g>
</svg>
