<?xml version="1.0" encoding="utf-8"?>
<!DOCTYPE svg PUBLIC "-//W3C//DTD SVG 20010904//EN" "http://www.w3.org/TR/2001/REC-SVG-20010904/DTD/svg10.dtd">
<svg version="1.0" xmlns="http://www.w3.org/2000/svg" width="602pt" height="156pt" viewBox="0 0 602 156" style="" preserveAspectRatio="xMidYMid meet">
<g fill="#76A7DFFF" stroke="#76A7DFFF">
<path d="M 164.000 11.975 C 157.903 13.104 155.256 14.248 150.202 17.942 C 135.661 28.566 134.210 51.881 146.493 77.500 C 153.991 93.138 164.610 106.948 186.629 129.698 C 201.639 145.206 210.592 148.423 226.573 144.049 C 247.906 138.211 274.355 116.384 286.347 94.722 C 291.736 84.986 293.496 77.548 293.498 64.500 C 293.499 56.800 293.015 51.246 292.147 49.000 C 285.877 32.780 275.698 23.739 260.500 20.895 C 253.399 19.566 240.525 20.324 233.573 22.482 C 230.864 23.323 225.755 25.600 222.220 27.543 L 215.794 31.075 210.176 26.450 C 203.053 20.586 198.142 17.716 189.989 14.651 C 182.713 11.916 170.892 10.699 164.000 11.975 M 178.972 36.584 C 185.854 38.628 191.060 41.954 198.500 49.061 C 205.400 55.651 210.264 58.000 217.013 58.000 C 221.128 58.000 222.449 57.442 226.641 53.931 C 235.557 46.463 240.337 44.551 250.154 44.524 C 258.359 44.501 259.008 44.661 262.654 47.605 C 275.170 57.708 271.064 80.729 253.639 98.154 C 246.148 105.646 230.977 116.751 224.628 119.390 C 222.498 120.276 218.842 121.000 216.503 121.000 C 212.368 121.000 211.909 120.648 200.042 108.380 C 179.442 87.085 170.398 74.352 165.558 59.824 C 162.414 50.390 162.039 40.147 164.750 37.785 C 168.366 34.635 171.513 34.369 178.972 36.584 "/></g>
<g fill="#76A7DFFF" stroke="#76A7DFFF">
<path d="M 469.859 11.967 C 459.660 13.804 451.755 19.924 447.458 29.310 C 442.126 40.958 444.662 61.450 453.645 79.288 C 461.180 94.251 471.915 108.037 492.117 128.692 C 503.875 140.714 510.234 144.821 518.535 145.757 C 539.705 148.143 576.549 123.107 591.846 95.939 C 598.551 84.032 601.631 69.524 599.960 57.724 C 599.435 54.016 598.581 50.198 598.063 49.241 C 597.545 48.283 596.886 46.366 596.599 44.980 C 595.747 40.864 590.012 33.056 584.837 28.965 C 576.630 22.478 570.332 20.579 557.000 20.572 C 544.164 20.565 538.880 21.855 528.239 27.596 L 521.978 30.974 515.909 26.084 C 508.822 20.373 500.004 15.477 493.270 13.513 C 486.963 11.674 475.637 10.926 469.859 11.967 M 491.498 39.016 C 494.910 40.654 500.708 44.896 504.934 48.846 C 512.586 55.997 516.632 58.000 523.432 58.000 C 527.768 58.000 530.383 56.807 534.500 52.949 C 539.027 48.708 547.849 44.687 553.704 44.196 C 561.138 43.573 565.549 44.665 569.456 48.096 C 577.435 55.101 578.197 68.881 571.369 82.699 C 563.194 99.245 535.707 121.000 522.976 121.000 L 518.272 121.000 505.761 107.750 C 484.856 85.612 478.374 76.722 472.917 62.709 C 469.220 53.214 467.813 41.135 470.084 38.398 C 473.578 34.189 481.947 34.431 491.498 39.016 "/></g>
<g fill="#76A7DFFF" stroke="#76A7DFFF">
<path d="M 405.437 2.962 C 402.399 4.192 391.802 17.053 368.121 48.250 C 365.721 51.413 363.474 53.986 363.128 53.969 C 362.783 53.952 358.675 48.905 354.000 42.755 C 336.807 20.135 328.905 10.459 326.235 8.755 C 322.783 6.553 316.689 6.502 313.414 8.648 C 308.585 11.812 306.534 19.356 309.154 24.316 C 309.788 25.517 314.427 31.675 319.461 38.000 C 329.312 50.377 342.078 67.064 345.798 72.425 L 348.096 75.737 338.752 89.119 C 321.146 114.332 311.888 128.918 311.337 132.312 C 310.311 138.634 316.658 146.056 323.000 145.951 C 329.135 145.850 330.959 143.910 346.889 120.550 C 355.475 107.959 362.950 97.545 363.500 97.408 C 364.050 97.271 373.500 109.237 384.500 124.000 C 395.500 138.763 405.694 151.552 407.154 152.421 C 411.241 154.852 417.310 154.452 420.794 151.520 C 424.890 148.074 426.554 143.712 425.314 139.673 C 424.775 137.914 414.093 122.847 401.577 106.191 C 388.068 88.213 379.042 75.333 379.364 74.493 C 380.073 72.647 398.156 48.879 410.933 33.000 C 421.966 19.289 424.054 14.959 422.013 10.032 C 419.265 3.398 412.006 0.302 405.437 2.962 "/></g>
<g fill="#76A7DFFF" stroke="#76A7DFFF">
<path d="M 98.000 3.564 C 95.257 5.351 84.161 18.866 68.162 39.905 C 62.477 47.382 57.487 53.626 57.075 53.779 C 56.662 53.933 52.121 48.533 46.984 41.779 C 29.815 19.208 21.519 9.141 19.203 8.066 C 17.940 7.480 15.162 7.000 13.030 7.000 C 5.846 7.000 -0.042 14.879 1.950 21.826 C 2.390 23.359 9.218 32.919 17.125 43.072 C 34.355 65.197 41.565 74.990 41.313 75.927 C 41.210 76.310 34.937 85.595 27.372 96.561 C 7.952 124.714 5.000 129.671 5.000 134.127 C 5.000 143.481 17.410 149.260 24.521 143.217 C 25.632 142.273 31.518 134.075 37.602 125.000 C 53.737 100.931 56.428 97.080 57.148 97.038 C 57.504 97.017 67.056 109.316 78.374 124.369 C 93.311 144.234 99.787 152.083 101.995 152.998 C 106.281 154.773 112.768 153.687 115.762 150.692 C 118.658 147.796 119.871 140.496 118.027 137.051 C 117.368 135.818 110.004 125.733 101.664 114.638 C 93.324 103.544 83.288 90.165 79.362 84.907 L 72.223 75.347 80.862 63.793 C 92.657 48.015 101.148 37.049 109.207 27.184 C 115.549 19.419 116.000 18.541 116.000 13.949 C 116.000 6.935 112.332 2.903 105.441 2.339 C 102.004 2.058 99.739 2.431 98.000 3.564 "/></g>
</svg>
