<?xml version="1.0" encoding="utf-8"?>
<!DOCTYPE svg PUBLIC "-//W3C//DTD SVG 20010904//EN" "http://www.w3.org/TR/2001/REC-SVG-20010904/DTD/svg10.dtd">
<svg version="1.0" xmlns="http://www.w3.org/2000/svg" width="602pt" height="494pt" viewBox="0 0 602 494" style="" preserveAspectRatio="xMidYMid meet">
<g fill="#513736FF" stroke="#513736FF">
<path d="M 314.664 3.028 C 270.688 6.227 230.917 17.622 197.207 36.683 C 187.087 42.405 185.090 43.770 169.177 55.840 C 145.898 73.498 124.839 99.786 110.368 129.250 C 107.731 134.619 106.011 137.000 104.769 137.000 C 103.779 137.000 92.793 127.018 80.238 114.711 C 67.732 102.452 54.147 89.289 50.048 85.461 C 45.950 81.632 36.950 73.025 30.048 66.332 C 10.496 47.373 8.205 45.906 4.513 49.986 C 2.923 51.743 2.791 53.214 3.368 62.736 C 3.727 68.656 4.416 76.200 4.899 79.500 C 5.382 82.800 6.724 92.250 7.882 100.500 C 11.223 124.311 18.918 167.736 23.653 189.500 C 25.089 196.100 27.360 206.651 28.700 212.947 C 30.040 219.243 32.444 229.368 34.043 235.447 C 35.641 241.526 37.926 250.325 39.120 255.000 C 42.971 270.075 54.011 301.975 59.075 312.659 C 61.784 318.373 64.000 323.310 64.000 323.629 C 64.000 323.949 65.259 326.075 66.797 328.355 C 68.336 330.635 69.903 333.304 70.280 334.287 C 71.263 336.849 87.686 361.688 88.888 362.431 C 89.441 362.773 91.255 365.070 92.919 367.536 C 100.366 378.570 126.626 406.461 139.000 416.480 C 141.475 418.484 144.378 420.883 145.452 421.812 C 146.525 422.740 149.268 424.850 151.547 426.500 C 153.827 428.150 158.011 431.380 160.845 433.679 C 163.680 435.977 169.487 440.003 173.750 442.626 C 178.012 445.249 182.772 448.431 184.327 449.698 C 185.882 450.964 188.357 452.300 189.827 452.666 C 191.297 453.033 193.693 454.045 195.151 454.916 C 203.253 459.757 207.341 462.000 208.061 462.000 C 208.506 462.000 213.959 464.475 220.180 467.500 C 226.400 470.525 232.173 473.000 233.009 473.000 C 233.845 473.000 236.997 473.940 240.014 475.090 C 257.112 481.602 273.591 485.570 299.743 489.472 C 313.613 491.541 350.768 491.542 365.576 489.474 C 386.193 486.595 403.515 482.755 416.000 478.297 C 422.875 475.842 429.972 473.398 431.771 472.864 C 437.175 471.262 472.982 453.079 480.501 448.119 C 507.703 430.174 533.917 405.813 551.810 381.849 C 557.416 374.341 563.386 365.566 565.077 362.349 C 566.767 359.132 568.713 355.825 569.399 355.000 C 570.538 353.632 580.206 334.246 582.116 329.500 C 588.620 313.342 590.557 307.539 593.133 296.500 C 598.166 274.934 598.964 268.044 598.979 246.000 C 598.994 225.042 598.170 217.402 593.911 199.000 C 590.747 185.328 590.063 183.102 585.310 171.000 C 575.807 146.807 563.532 125.066 547.232 103.561 C 541.155 95.543 508.856 63.488 504.735 61.385 C 502.956 60.477 499.700 58.176 497.500 56.272 C 486.026 46.340 462.273 32.392 440.500 22.801 C 407.642 8.327 355.171 0.082 314.664 3.028 M 371.335 15.613 C 391.184 17.973 415.916 24.345 434.000 31.759 C 474.609 48.408 510.692 75.413 538.547 110.000 C 561.325 138.283 577.117 171.128 585.004 206.622 C 589.254 225.750 589.835 256.694 586.343 278.000 C 583.808 293.466 577.139 315.404 570.884 328.849 C 568.748 333.441 567.000 337.438 567.000 337.731 C 567.000 338.760 556.583 356.586 551.648 364.000 C 517.613 415.140 461.560 455.484 402.436 471.396 C 384.079 476.336 370.738 478.698 353.500 480.059 C 260.991 487.366 167.575 444.453 104.117 365.500 C 93.759 352.613 79.142 330.299 72.674 317.500 C 54.709 281.952 34.306 201.633 20.090 110.500 C 13.971 71.268 13.302 65.572 14.888 66.167 C 15.377 66.350 29.574 80.000 46.438 96.500 C 99.930 148.837 103.752 152.252 108.341 151.807 C 111.794 151.471 110.872 152.927 120.897 132.000 C 146.441 78.678 198.047 38.354 261.047 22.488 C 284.260 16.642 296.477 14.885 319.000 14.149 C 344.016 13.333 354.667 13.631 371.335 15.613 "/></g>
<g fill="#5FCED5FF" stroke="#5FCED5FF">
<path d="M 338.884 13.449 C 338.580 13.753 331.053 14.051 322.157 14.111 C 313.260 14.172 305.768 14.567 305.506 14.989 C 305.245 15.412 302.999 15.529 300.516 15.249 C 297.664 14.928 296.000 15.133 296.000 15.807 C 296.000 16.468 294.668 16.658 292.500 16.306 C 290.200 15.933 289.000 16.133 289.000 16.888 C 289.000 17.617 288.080 17.807 286.487 17.407 C 285.069 17.052 283.345 17.299 282.531 17.974 C 281.737 18.633 280.618 18.882 280.044 18.527 C 279.470 18.172 278.438 18.243 277.750 18.684 C 277.063 19.126 275.600 19.557 274.500 19.643 C 273.400 19.728 271.488 20.069 270.250 20.399 C 266.493 21.402 263.626 22.079 261.000 22.580 C 259.625 22.843 257.825 23.332 257.000 23.668 C 256.175 24.003 254.825 24.368 254.000 24.478 C 249.784 25.042 246.000 26.258 246.000 27.048 C 246.000 27.537 245.325 27.678 244.500 27.362 C 243.651 27.036 243.000 27.338 243.000 28.060 C 243.000 28.760 242.704 29.037 242.342 28.675 C 241.980 28.313 241.080 28.519 240.342 29.131 C 239.604 29.744 239.000 29.910 239.000 29.500 C 239.000 29.090 238.325 29.315 237.500 30.000 C 236.675 30.685 236.000 30.913 236.000 30.507 C 236.000 30.102 234.981 30.438 233.735 31.254 C 232.490 32.070 230.015 33.057 228.235 33.448 C 226.456 33.839 225.000 34.600 225.000 35.138 C 225.000 35.677 224.550 35.840 224.000 35.500 C 223.450 35.160 223.000 35.385 223.000 36.000 C 223.000 36.615 222.584 36.861 222.075 36.546 C 220.921 35.833 216.000 37.999 216.000 39.220 C 216.000 39.714 215.550 39.840 215.000 39.500 C 214.450 39.160 214.000 39.385 214.000 40.000 C 214.000 40.615 213.550 40.840 213.000 40.500 C 212.450 40.160 212.000 40.324 212.000 40.863 C 212.000 41.403 210.425 42.365 208.500 43.000 C 206.575 43.635 205.000 44.597 205.000 45.137 C 205.000 45.676 204.550 45.840 204.000 45.500 C 203.450 45.160 203.000 45.385 203.000 46.000 C 203.000 46.615 202.566 46.850 202.036 46.523 C 201.507 46.195 200.194 46.806 199.120 47.880 C 198.046 48.954 196.904 49.571 196.583 49.250 C 196.263 48.929 196.000 49.192 196.000 49.833 C 196.000 50.475 195.325 51.000 194.500 51.000 C 193.675 51.000 193.000 51.401 193.000 51.892 C 193.000 52.382 191.928 53.052 190.617 53.381 C 189.306 53.710 186.847 55.275 185.152 56.858 C 183.457 58.441 181.904 59.571 181.701 59.367 C 181.498 59.164 179.147 61.136 176.477 63.749 C 173.806 66.362 171.993 67.825 172.447 67.000 C 173.325 65.404 169.448 68.861 159.158 78.846 C 155.670 82.231 153.158 85.000 153.575 85.000 C 153.992 85.000 152.570 86.749 150.416 88.888 C 143.875 95.381 140.418 99.289 141.992 98.414 C 142.812 97.957 141.789 99.278 139.718 101.349 C 137.647 103.420 136.186 105.491 136.471 105.952 C 136.755 106.413 136.288 107.059 135.431 107.388 C 134.574 107.717 134.124 108.392 134.431 108.888 C 134.738 109.384 134.288 110.059 133.431 110.388 C 132.574 110.717 132.124 111.392 132.431 111.888 C 132.738 112.384 132.288 113.059 131.431 113.388 C 130.574 113.717 130.153 114.439 130.496 114.993 C 130.838 115.547 130.615 116.000 130.000 116.000 C 129.385 116.000 129.131 116.403 129.435 116.895 C 129.740 117.388 129.288 118.059 128.431 118.388 C 127.574 118.717 127.153 119.439 127.496 119.993 C 127.838 120.547 127.650 121.000 127.078 121.000 C 126.506 121.000 125.756 122.125 125.411 123.500 C 125.066 124.875 124.355 126.000 123.833 126.000 C 123.310 126.000 123.160 126.450 123.500 127.000 C 123.840 127.550 123.615 128.000 123.000 128.000 C 122.385 128.000 122.160 128.450 122.500 129.000 C 122.840 129.550 122.697 130.000 122.182 130.000 C 121.242 130.000 117.138 138.688 116.490 142.050 C 116.300 143.041 115.384 145.010 114.457 146.426 C 113.529 147.842 113.047 149.000 113.385 149.000 C 113.723 149.000 113.201 149.788 112.223 150.750 C 110.412 152.535 105.000 153.269 105.000 151.730 C 105.000 151.264 104.622 151.116 104.159 151.402 C 103.696 151.688 102.324 150.577 101.109 148.933 C 99.893 147.289 98.522 146.177 98.062 146.462 C 97.601 146.747 95.588 144.983 93.588 142.542 C 91.588 140.102 87.375 136.147 84.226 133.753 C 81.077 131.359 78.444 128.860 78.375 128.200 C 78.306 127.540 78.194 127.224 78.125 127.497 C 78.056 127.771 70.913 120.832 62.250 112.079 C 53.588 103.325 46.898 96.914 47.384 97.831 C 47.871 98.749 40.832 91.963 31.743 82.750 C 22.653 73.538 14.943 66.000 14.608 66.000 C 13.751 66.000 13.848 71.514 14.720 72.387 C 15.116 72.783 15.307 74.658 15.144 76.554 C 14.980 78.449 15.288 80.000 15.828 80.000 C 16.402 80.000 16.578 81.725 16.253 84.153 C 15.835 87.263 16.001 88.117 16.912 87.555 C 17.823 86.991 17.958 87.705 17.452 90.402 C 16.977 92.939 17.138 94.000 18.000 94.000 C 18.850 94.000 19.027 95.042 18.581 97.422 C 18.221 99.337 18.374 101.113 18.927 101.455 C 19.470 101.790 19.870 103.288 19.816 104.783 C 19.761 106.277 20.026 109.300 20.404 111.500 C 20.782 113.700 21.287 116.625 21.526 118.000 C 21.766 119.375 22.218 122.075 22.531 124.000 C 22.844 125.925 23.320 128.625 23.589 130.000 C 23.858 131.375 24.047 133.963 24.008 135.750 C 23.969 137.538 24.339 139.000 24.830 139.000 C 25.321 139.000 25.508 140.125 25.245 141.500 C 24.982 142.875 25.207 144.000 25.745 144.000 C 26.283 144.000 26.508 145.125 26.245 146.500 C 25.971 147.932 26.233 149.000 26.858 149.000 C 27.538 149.000 27.724 150.132 27.350 152.000 C 26.952 153.991 27.151 155.000 27.942 155.000 C 28.678 155.000 28.893 155.763 28.503 156.991 C 28.155 158.086 28.234 159.549 28.679 160.241 C 29.123 160.933 29.569 162.400 29.669 163.500 C 29.770 164.600 30.099 166.739 30.402 168.253 C 30.704 169.767 31.154 172.017 31.403 173.253 C 31.651 174.489 32.117 176.850 32.437 178.500 C 32.758 180.150 33.313 182.625 33.669 184.000 C 34.026 185.375 34.225 187.248 34.111 188.161 C 33.997 189.075 34.334 190.088 34.858 190.412 C 35.383 190.737 35.577 191.902 35.289 193.001 C 35.002 194.100 35.207 195.000 35.745 195.000 C 36.283 195.000 36.508 196.125 36.245 197.500 C 35.982 198.875 36.227 200.000 36.790 200.000 C 37.352 200.000 37.577 200.900 37.290 202.000 C 36.993 203.133 37.259 204.000 37.902 204.000 C 38.614 204.000 38.804 204.933 38.411 206.500 C 37.999 208.140 38.202 209.000 38.999 209.000 C 39.699 209.000 39.955 209.674 39.604 210.590 C 39.268 211.465 39.311 212.694 39.699 213.323 C 40.088 213.951 40.499 215.148 40.613 215.982 C 40.727 216.817 41.086 218.513 41.410 219.750 C 41.735 220.988 42.251 223.013 42.558 224.250 C 42.866 225.488 43.242 226.950 43.395 227.500 C 43.548 228.050 44.023 230.638 44.450 233.250 C 44.877 235.863 45.584 238.000 46.020 238.000 C 46.456 238.000 46.577 238.900 46.290 240.000 C 46.002 241.100 46.227 242.000 46.790 242.000 C 47.352 242.000 47.577 242.900 47.290 244.000 C 47.002 245.100 47.255 246.000 47.852 246.000 C 48.449 246.000 48.678 246.675 48.362 247.500 C 48.045 248.326 48.332 249.000 49.000 249.000 C 49.699 249.000 49.955 249.675 49.604 250.590 C 49.268 251.465 49.319 252.702 49.718 253.340 C 50.116 253.978 50.573 255.400 50.733 256.500 C 50.893 257.600 51.317 259.175 51.675 260.000 C 52.034 260.825 52.422 261.838 52.539 262.250 C 52.655 262.663 52.841 263.113 52.952 263.250 C 53.062 263.388 53.306 264.304 53.493 265.286 C 54.546 270.813 56.482 277.000 57.158 277.000 C 57.586 277.000 57.678 277.675 57.362 278.500 C 57.045 279.325 57.270 280.000 57.862 280.000 C 58.453 280.000 58.678 280.675 58.362 281.500 C 58.045 282.325 58.270 283.000 58.862 283.000 C 59.453 283.000 59.678 283.675 59.362 284.500 C 59.045 285.325 59.311 286.000 59.952 286.000 C 60.593 286.000 60.890 286.370 60.610 286.822 C 60.331 287.274 60.669 288.736 61.362 290.072 C 62.055 291.407 62.655 292.725 62.696 293.000 C 63.097 295.711 65.495 302.000 66.127 302.000 C 66.573 302.000 66.700 302.617 66.411 303.371 C 66.122 304.125 66.564 305.422 67.395 306.252 C 68.225 307.082 68.626 308.040 68.286 308.381 C 67.945 308.721 68.218 309.000 68.892 309.000 C 69.566 309.000 69.840 309.450 69.500 310.000 C 69.160 310.550 69.385 311.000 70.000 311.000 C 70.615 311.000 70.835 311.458 70.489 312.018 C 69.861 313.035 73.700 320.200 75.214 320.835 C 75.653 321.020 75.758 321.582 75.447 322.085 C 75.136 322.588 75.434 323.000 76.108 323.000 C 76.782 323.000 77.051 323.282 76.707 323.627 C 75.858 324.475 78.787 330.000 80.085 330.000 C 80.653 330.000 80.882 330.382 80.594 330.849 C 80.305 331.315 80.954 332.646 82.035 333.807 C 83.116 334.967 84.000 336.385 84.000 336.958 C 84.000 337.531 84.477 338.000 85.059 338.000 C 85.641 338.000 85.838 338.453 85.496 339.007 C 85.153 339.561 85.574 340.283 86.431 340.612 C 87.288 340.941 87.738 341.616 87.431 342.112 C 87.124 342.608 87.574 343.283 88.431 343.612 C 89.288 343.941 89.738 344.616 89.431 345.112 C 89.124 345.608 89.577 346.284 90.437 346.614 C 91.296 346.944 92.000 347.841 92.000 348.607 C 92.000 349.373 92.450 350.000 93.000 350.000 C 93.550 350.000 94.000 350.659 94.000 351.465 C 94.000 352.270 95.013 353.492 96.250 354.179 C 97.714 354.993 97.976 355.451 97.000 355.491 C 96.111 355.527 96.704 356.356 98.456 357.526 C 100.082 358.612 100.757 359.503 99.956 359.507 C 99.009 359.512 99.285 360.068 100.744 361.097 C 101.978 361.967 102.730 362.937 102.415 363.252 C 102.100 363.566 103.210 364.835 104.882 366.071 C 106.554 367.307 107.702 368.674 107.433 369.109 C 107.164 369.543 108.345 370.934 110.056 372.200 C 111.767 373.465 112.578 374.500 111.858 374.500 C 111.138 374.500 112.899 376.525 115.773 379.000 C 118.646 381.475 120.512 383.500 119.920 383.500 C 118.931 383.500 127.231 391.640 141.000 404.174 C 144.025 406.928 147.521 410.153 148.770 411.340 C 150.018 412.528 151.430 413.500 151.907 413.500 C 152.384 413.500 153.710 414.625 154.854 416.000 C 155.998 417.375 156.948 418.062 156.967 417.527 C 156.985 416.993 157.701 417.555 158.557 418.777 C 159.413 420.000 160.715 421.000 161.450 421.000 C 162.185 421.000 163.056 421.704 163.386 422.563 C 163.716 423.423 164.416 423.861 164.943 423.535 C 165.469 423.210 166.395 423.869 167.000 425.000 C 167.605 426.131 168.481 426.821 168.945 426.534 C 169.410 426.247 170.059 426.712 170.388 427.569 C 170.717 428.426 171.392 428.876 171.888 428.569 C 172.384 428.262 173.048 428.684 173.364 429.506 C 173.679 430.328 174.626 431.000 175.469 431.000 C 176.311 431.000 177.000 431.450 177.000 432.000 C 177.000 432.550 177.675 433.000 178.500 433.000 C 179.325 433.000 180.000 433.477 180.000 434.059 C 180.000 434.641 180.403 434.869 180.895 434.565 C 181.388 434.260 182.073 434.748 182.419 435.649 C 182.764 436.549 183.329 437.004 183.675 436.659 C 184.020 436.314 184.797 436.674 185.401 437.461 C 186.006 438.247 187.157 439.027 187.961 439.195 C 188.764 439.363 190.295 440.272 191.362 441.215 C 192.430 442.159 193.685 442.695 194.151 442.406 C 194.618 442.118 195.000 442.434 195.000 443.108 C 195.000 443.782 195.273 444.060 195.606 443.727 C 195.940 443.393 197.133 443.978 198.258 445.026 C 199.383 446.073 200.685 446.695 201.151 446.406 C 201.618 446.118 202.000 446.385 202.000 447.000 C 202.000 447.615 202.450 447.840 203.000 447.500 C 203.550 447.160 204.000 447.385 204.000 448.000 C 204.000 448.615 204.450 448.840 205.000 448.500 C 205.550 448.160 206.000 448.385 206.000 449.000 C 206.000 449.615 206.450 449.840 207.000 449.500 C 207.550 449.160 208.000 449.385 208.000 450.000 C 208.000 450.615 208.450 450.840 209.000 450.500 C 209.550 450.160 210.000 450.385 210.000 451.000 C 210.000 451.615 210.450 451.840 211.000 451.500 C 211.550 451.160 212.000 451.385 212.000 452.000 C 212.000 452.615 212.450 452.840 213.000 452.500 C 213.550 452.160 214.000 452.385 214.000 453.000 C 214.000 453.615 214.450 453.840 215.000 453.500 C 215.550 453.160 216.000 453.385 216.000 454.000 C 216.000 454.615 216.450 454.840 217.000 454.500 C 217.550 454.160 218.000 454.407 218.000 455.048 C 218.000 455.689 218.675 455.955 219.500 455.638 C 220.325 455.322 221.000 455.525 221.000 456.090 C 221.000 456.656 221.450 456.840 222.000 456.500 C 222.550 456.160 223.000 456.434 223.000 457.108 C 223.000 457.782 223.279 458.055 223.619 457.714 C 223.960 457.374 224.918 457.775 225.748 458.605 C 226.578 459.436 227.875 459.878 228.629 459.589 C 229.383 459.300 230.000 459.525 230.000 460.090 C 230.000 460.656 230.419 460.859 230.931 460.543 C 231.443 460.226 232.149 460.432 232.500 461.000 C 232.851 461.568 233.557 461.774 234.069 461.457 C 234.581 461.141 235.000 461.385 235.000 462.000 C 235.000 462.615 235.419 462.859 235.931 462.543 C 236.443 462.226 237.149 462.432 237.500 463.000 C 237.851 463.568 238.526 463.793 239.000 463.500 C 239.474 463.207 240.149 463.432 240.500 464.000 C 240.851 464.568 241.557 464.774 242.069 464.457 C 242.581 464.141 243.000 464.407 243.000 465.048 C 243.000 465.689 243.675 465.955 244.500 465.638 C 245.325 465.322 246.000 465.547 246.000 466.138 C 246.000 466.730 246.675 466.955 247.500 466.638 C 248.325 466.322 249.000 466.547 249.000 467.138 C 249.000 467.730 249.646 467.966 250.435 467.663 C 251.225 467.360 252.027 467.582 252.218 468.155 C 252.410 468.729 254.126 469.350 256.033 469.535 C 257.940 469.721 259.613 469.957 259.750 470.061 C 259.888 470.165 260.338 470.345 260.750 470.461 C 261.163 470.578 262.175 470.958 263.000 471.307 C 263.825 471.657 265.625 472.157 267.000 472.420 C 268.375 472.683 270.625 473.186 272.000 473.538 C 273.375 473.891 275.278 474.280 276.230 474.403 C 277.181 474.525 278.260 474.927 278.628 475.295 C 278.996 475.663 280.355 475.698 281.648 475.373 C 283.165 474.993 284.000 475.221 284.000 476.017 C 284.000 476.854 284.964 477.057 287.000 476.650 C 288.879 476.274 290.000 476.461 290.000 477.150 C 290.000 477.839 291.121 478.026 293.000 477.650 C 294.858 477.278 296.000 477.463 296.000 478.134 C 296.000 478.785 297.401 479.055 299.500 478.810 C 301.425 478.585 303.000 478.766 303.000 479.211 C 303.000 481.422 369.020 480.385 369.774 478.162 C 369.925 477.718 371.388 477.550 373.024 477.790 C 374.892 478.064 376.000 477.787 376.000 477.046 C 376.000 476.311 376.773 476.111 378.048 476.515 C 379.174 476.873 380.730 476.639 381.504 475.997 C 382.279 475.354 383.402 475.130 384.000 475.500 C 384.598 475.870 385.723 475.645 386.500 475.000 C 387.277 474.355 388.327 474.084 388.833 474.397 C 389.339 474.710 392.171 474.215 395.127 473.298 C 401.578 471.297 400.574 471.552 405.750 470.603 C 408.088 470.175 410.000 469.428 410.000 468.943 C 410.000 468.459 410.675 468.322 411.500 468.638 C 412.325 468.955 413.000 468.730 413.000 468.138 C 413.000 467.547 413.675 467.322 414.500 467.638 C 415.325 467.955 416.000 467.730 416.000 467.138 C 416.000 466.547 416.675 466.322 417.500 466.638 C 418.325 466.955 419.000 466.730 419.000 466.138 C 419.000 465.547 419.675 465.322 420.500 465.638 C 421.349 465.964 422.000 465.662 422.000 464.940 C 422.000 464.240 422.296 463.963 422.658 464.325 C 423.020 464.687 423.920 464.481 424.658 463.869 C 425.396 463.256 426.000 463.051 426.000 463.413 C 426.000 463.774 427.013 463.509 428.250 462.823 C 429.488 462.137 430.838 461.671 431.250 461.788 C 431.663 461.904 432.000 461.475 432.000 460.833 C 432.000 460.192 432.263 459.930 432.585 460.252 C 433.421 461.088 439.000 458.994 439.000 457.843 C 439.000 457.315 439.450 457.160 440.000 457.500 C 440.550 457.840 441.000 457.615 441.000 457.000 C 441.000 456.385 441.453 456.162 442.007 456.504 C 442.561 456.846 444.248 456.286 445.757 455.259 C 447.266 454.232 450.413 452.560 452.750 451.544 C 455.088 450.528 457.000 449.288 457.000 448.789 C 457.000 448.290 457.450 448.160 458.000 448.500 C 458.550 448.840 459.000 448.615 459.000 448.000 C 459.000 447.385 459.450 447.160 460.000 447.500 C 460.550 447.840 461.000 447.615 461.000 447.000 C 461.000 446.385 461.453 446.162 462.007 446.504 C 462.561 446.847 463.283 446.426 463.612 445.569 C 463.941 444.712 464.612 444.260 465.105 444.565 C 465.597 444.869 466.000 444.615 466.000 444.000 C 466.000 443.385 466.403 443.131 466.895 443.435 C 467.388 443.740 468.059 443.288 468.388 442.431 C 468.717 441.574 469.439 441.153 469.993 441.496 C 470.547 441.838 471.000 441.615 471.000 441.000 C 471.000 440.385 471.453 440.162 472.007 440.504 C 472.561 440.847 473.283 440.426 473.612 439.569 C 473.941 438.712 474.616 438.262 475.112 438.569 C 475.608 438.876 476.283 438.426 476.612 437.569 C 476.941 436.712 477.616 436.262 478.112 436.569 C 478.608 436.876 479.283 436.426 479.612 435.569 C 479.941 434.712 480.616 434.262 481.112 434.569 C 481.608 434.876 482.283 434.426 482.612 433.569 C 482.941 432.712 483.616 432.262 484.112 432.569 C 484.608 432.876 485.284 432.423 485.614 431.563 C 485.944 430.704 486.825 430.000 487.572 430.000 C 488.319 430.000 489.492 428.988 490.179 427.750 C 490.998 426.277 491.454 426.018 491.500 427.000 C 491.549 428.028 492.029 427.792 493.026 426.250 C 493.826 425.013 495.015 424.000 495.668 424.000 C 496.321 424.000 497.728 422.890 498.795 421.534 C 499.862 420.178 500.974 419.307 501.266 419.600 C 501.559 419.892 503.011 418.541 504.494 416.597 C 505.976 414.653 507.544 413.161 507.977 413.282 C 508.411 413.402 513.777 408.325 519.902 402.000 C 526.027 395.675 532.267 389.240 533.769 387.700 C 535.271 386.160 536.392 384.486 536.260 383.980 C 536.128 383.474 536.915 382.580 538.010 381.995 C 539.104 381.409 540.000 380.379 540.000 379.705 C 540.000 379.032 540.944 377.892 542.097 377.171 C 543.251 376.451 543.945 375.612 543.640 375.307 C 543.335 375.001 544.078 373.923 545.293 372.909 C 546.507 371.896 547.184 371.052 546.798 371.033 C 546.412 371.015 547.191 369.818 548.529 368.374 C 549.867 366.930 550.749 365.402 550.487 364.979 C 550.225 364.556 550.712 363.941 551.569 363.612 C 552.426 363.283 552.876 362.608 552.569 362.112 C 552.262 361.616 552.748 360.927 553.649 360.581 C 554.549 360.236 555.034 359.701 554.726 359.393 C 554.419 359.085 555.046 357.954 556.120 356.880 C 557.194 355.806 557.805 354.493 557.477 353.964 C 557.150 353.434 557.359 353.000 557.941 353.000 C 558.523 353.000 559.000 352.325 559.000 351.500 C 559.000 350.675 559.395 350.000 559.879 350.000 C 560.717 350.000 563.464 344.418 563.488 342.667 C 563.495 342.208 563.758 342.091 564.074 342.407 C 564.389 342.722 566.031 339.722 567.723 335.740 C 571.759 326.238 572.348 324.646 572.159 323.750 C 572.071 323.338 572.477 323.000 573.059 323.000 C 573.641 323.000 573.840 322.550 573.500 322.000 C 573.160 321.450 573.407 321.000 574.048 321.000 C 574.689 321.000 574.955 320.325 574.638 319.500 C 574.322 318.675 574.547 318.000 575.138 318.000 C 575.730 318.000 575.946 317.302 575.618 316.448 C 575.291 315.594 575.418 315.141 575.902 315.439 C 576.590 315.865 578.214 310.557 578.177 308.000 C 578.173 307.725 578.637 306.938 579.207 306.250 C 579.778 305.563 579.988 305.000 579.673 305.000 C 579.359 305.000 579.760 303.425 580.564 301.500 C 581.369 299.575 581.741 298.000 581.391 298.000 C 581.041 298.000 581.299 297.345 581.964 296.544 C 582.628 295.743 582.901 294.649 582.570 294.113 C 582.238 293.577 582.443 292.844 583.024 292.485 C 583.606 292.126 583.808 290.970 583.473 289.916 C 583.109 288.770 583.338 288.000 584.041 288.000 C 584.796 288.000 584.992 287.105 584.589 285.500 C 584.196 283.933 584.386 283.000 585.098 283.000 C 585.770 283.000 586.038 281.980 585.755 280.500 C 585.492 279.125 585.714 278.000 586.248 278.000 C 586.782 278.000 587.035 276.425 586.810 274.500 C 586.585 272.575 586.745 271.000 587.164 271.000 C 587.985 271.000 588.264 265.113 588.300 247.000 C 588.335 229.682 587.945 221.000 587.132 221.000 C 586.730 221.000 586.585 219.425 586.810 217.500 C 587.035 215.575 586.782 214.000 586.248 214.000 C 585.714 214.000 585.492 212.875 585.755 211.500 C 586.018 210.125 585.793 209.000 585.255 209.000 C 584.717 209.000 584.492 207.875 584.755 206.500 C 585.047 204.972 584.773 204.000 584.049 204.000 C 583.338 204.000 583.108 203.236 583.473 202.084 C 583.808 201.030 583.606 199.874 583.024 199.515 C 582.443 199.156 582.238 198.423 582.570 197.887 C 582.901 197.351 582.722 196.370 582.171 195.706 C 581.621 195.043 581.166 194.155 581.161 193.733 C 581.142 192.180 579.746 186.469 579.148 185.500 C 578.808 184.950 578.498 184.275 578.459 184.000 C 577.988 180.720 576.656 177.000 575.952 177.000 C 575.463 177.000 575.322 176.325 575.638 175.500 C 575.955 174.675 575.730 174.000 575.138 174.000 C 574.547 174.000 574.322 173.325 574.638 172.500 C 574.955 171.675 574.689 171.000 574.048 171.000 C 573.407 171.000 573.160 170.550 573.500 170.000 C 573.840 169.450 573.615 169.000 573.000 169.000 C 572.385 169.000 572.141 168.581 572.457 168.069 C 572.774 167.557 572.568 166.851 572.000 166.500 C 571.432 166.149 571.226 165.443 571.543 164.931 C 571.859 164.419 571.641 164.000 571.059 164.000 C 570.477 164.000 570.106 163.663 570.235 163.250 C 570.731 161.666 564.677 149.082 563.707 149.681 C 563.148 150.026 562.990 149.826 563.355 149.235 C 563.720 148.644 563.361 147.504 562.557 146.700 C 561.753 145.896 561.374 144.960 561.714 144.619 C 562.055 144.279 561.782 144.000 561.108 144.000 C 560.434 144.000 560.160 143.550 560.500 143.000 C 560.840 142.450 560.641 142.000 560.059 142.000 C 559.477 142.000 559.000 141.325 559.000 140.500 C 559.000 139.675 558.523 139.000 557.941 139.000 C 557.359 139.000 557.150 138.566 557.477 138.036 C 557.805 137.507 557.269 136.232 556.286 135.203 C 555.304 134.175 554.363 132.696 554.195 131.917 C 554.027 131.137 553.247 130.006 552.461 129.401 C 551.674 128.797 551.314 128.020 551.659 127.675 C 552.004 127.329 551.547 126.763 550.643 126.417 C 549.739 126.070 549.000 125.145 549.000 124.362 C 549.000 123.578 548.328 122.679 547.506 122.364 C 546.684 122.048 546.247 121.410 546.534 120.945 C 546.821 120.481 546.031 119.531 544.778 118.836 C 543.300 118.015 543.027 117.546 544.000 117.500 C 545.028 117.451 544.792 116.971 543.250 115.974 C 542.013 115.174 541.000 114.004 541.000 113.374 C 541.000 112.745 539.861 111.483 538.468 110.571 C 537.076 109.659 536.181 108.516 536.480 108.033 C 536.779 107.549 535.663 106.184 534.000 105.000 C 532.337 103.816 531.209 102.471 531.493 102.012 C 531.777 101.552 529.195 98.569 525.755 95.382 C 522.315 92.196 520.400 90.244 521.500 91.044 C 523.345 92.387 523.395 92.365 522.137 90.761 C 521.387 89.805 520.449 89.223 520.052 89.468 C 519.655 89.713 516.444 86.689 512.915 82.749 C 509.387 78.808 506.500 76.127 506.500 76.792 C 506.500 77.456 505.243 76.425 503.707 74.500 C 502.171 72.575 500.275 71.000 499.493 71.000 C 498.710 71.000 497.568 70.061 496.954 68.914 C 496.340 67.767 495.577 67.089 495.259 67.408 C 494.940 67.727 494.051 67.090 493.283 65.994 C 492.515 64.897 491.443 64.000 490.901 64.000 C 489.853 64.000 488.119 62.706 484.952 59.561 C 483.878 58.495 483.000 58.019 483.000 58.503 C 483.000 58.986 482.339 58.509 481.532 57.441 C 480.724 56.374 480.042 55.950 480.016 56.500 C 479.988 57.113 479.685 57.088 479.235 56.434 C 477.936 54.550 469.276 49.057 468.627 49.706 C 468.282 50.051 468.000 49.733 468.000 49.000 C 468.000 48.267 467.738 47.929 467.417 48.250 C 467.096 48.571 465.954 47.954 464.880 46.880 C 463.806 45.806 462.493 45.195 461.964 45.523 C 461.434 45.850 461.000 45.615 461.000 45.000 C 461.000 44.385 460.550 44.160 460.000 44.500 C 459.450 44.840 459.000 44.718 459.000 44.230 C 459.000 43.232 449.049 38.362 447.802 38.750 C 447.361 38.887 447.000 38.523 447.000 37.941 C 447.000 37.359 446.550 37.160 446.000 37.500 C 445.450 37.840 445.000 37.615 445.000 37.000 C 445.000 36.385 444.550 36.160 444.000 36.500 C 443.450 36.840 443.000 36.615 443.000 36.000 C 443.000 35.385 442.550 35.160 442.000 35.500 C 441.450 35.840 441.000 35.690 441.000 35.167 C 441.000 34.394 438.809 33.437 435.000 32.546 C 434.725 32.482 433.547 31.898 432.381 31.250 C 431.216 30.601 429.979 30.355 429.631 30.702 C 429.284 31.049 429.000 30.760 429.000 30.060 C 429.000 29.338 428.349 29.036 427.500 29.362 C 426.675 29.678 426.000 29.515 426.000 29.000 C 426.000 28.485 425.325 28.322 424.500 28.638 C 423.674 28.955 423.000 28.668 423.000 28.000 C 423.000 27.332 422.326 27.045 421.500 27.362 C 420.675 27.678 420.000 27.453 420.000 26.862 C 420.000 26.270 419.325 26.045 418.500 26.362 C 417.675 26.678 417.000 26.453 417.000 25.862 C 417.000 25.270 416.325 25.045 415.500 25.362 C 414.675 25.678 414.000 25.453 414.000 24.862 C 414.000 24.270 413.339 24.040 412.532 24.349 C 411.725 24.659 410.845 24.559 410.578 24.126 C 410.310 23.693 407.708 22.807 404.796 22.157 C 401.883 21.507 398.375 20.719 397.000 20.407 C 395.625 20.095 393.825 19.814 393.000 19.783 C 392.175 19.753 390.959 19.302 390.298 18.781 C 389.637 18.261 388.174 18.127 387.048 18.485 C 385.766 18.892 385.000 18.689 385.000 17.942 C 385.000 17.151 383.991 16.952 382.000 17.350 C 380.114 17.727 379.000 17.540 379.000 16.844 C 379.000 16.139 377.732 15.944 375.500 16.306 C 373.428 16.642 372.000 16.461 372.000 15.861 C 372.000 15.303 370.300 14.970 368.222 15.120 C 366.144 15.270 363.915 15.066 363.269 14.666 C 362.622 14.266 358.809 14.045 354.796 14.175 C 350.783 14.305 345.685 14.071 343.468 13.654 C 341.250 13.238 339.187 13.146 338.884 13.449 M 294.334 160.370 C 293.864 160.860 295.140 161.057 297.250 160.821 C 299.313 160.590 301.000 160.790 301.000 161.264 C 301.000 161.738 301.788 162.027 302.750 161.907 C 303.713 161.786 305.799 162.220 307.386 162.871 C 308.974 163.522 310.999 164.181 311.886 164.336 C 312.774 164.491 315.413 165.613 317.750 166.829 C 320.088 168.045 322.000 168.720 322.000 168.329 C 322.000 167.938 322.661 168.491 323.468 169.559 C 324.276 170.626 324.951 171.184 324.968 170.798 C 324.986 170.412 326.182 171.191 327.626 172.529 C 329.070 173.867 330.573 174.764 330.967 174.521 C 331.360 174.277 332.766 175.490 334.091 177.216 C 335.416 178.942 336.351 179.716 336.170 178.936 C 335.988 178.156 337.656 179.371 339.876 181.636 C 342.096 183.901 343.684 185.983 343.404 186.263 C 343.124 186.543 344.104 187.723 345.582 188.886 C 347.060 190.049 347.957 191.000 347.576 191.000 C 347.194 191.000 347.149 191.432 347.476 191.961 C 348.067 192.918 352.000 190.221 352.000 188.858 C 352.000 187.793 364.026 176.000 365.111 176.000 C 365.635 176.000 366.321 175.328 366.636 174.506 C 366.952 173.684 367.556 173.225 367.979 173.487 C 368.402 173.749 369.902 172.893 371.312 171.586 C 372.723 170.279 374.129 169.463 374.438 169.772 C 374.747 170.081 375.000 169.782 375.000 169.108 C 375.000 168.434 375.450 168.160 376.000 168.500 C 376.550 168.840 377.000 168.615 377.000 168.000 C 377.000 167.385 377.450 167.160 378.000 167.500 C 378.550 167.840 379.000 167.615 379.000 167.000 C 379.000 166.385 379.450 166.160 380.000 166.500 C 380.550 166.840 381.000 166.566 381.000 165.892 C 381.000 165.218 381.284 164.951 381.631 165.298 C 381.979 165.645 383.216 165.399 384.381 164.750 C 385.547 164.102 386.800 163.555 387.167 163.535 C 387.533 163.516 388.140 163.194 388.514 162.819 C 388.889 162.444 389.827 162.380 390.598 162.676 C 391.369 162.972 392.000 162.758 392.000 162.201 C 392.000 161.643 392.900 161.423 394.000 161.710 C 395.100 161.998 396.000 161.742 396.000 161.142 C 396.000 160.462 397.132 160.276 399.000 160.650 C 400.650 160.980 402.000 160.848 402.000 160.356 C 402.000 159.865 405.844 159.489 410.543 159.521 C 415.242 159.554 418.730 159.963 418.293 160.432 C 417.857 160.900 419.188 161.023 421.250 160.704 C 423.577 160.345 425.000 160.526 425.000 161.180 C 425.000 161.759 425.900 161.998 427.000 161.710 C 428.100 161.423 429.000 161.643 429.000 162.201 C 429.000 162.758 429.646 162.966 430.435 162.663 C 431.225 162.360 432.019 162.557 432.200 163.101 C 432.381 163.644 433.535 164.165 434.765 164.257 C 435.994 164.350 437.000 164.806 437.000 165.272 C 437.000 165.737 437.450 165.840 438.000 165.500 C 438.550 165.160 439.000 165.434 439.000 166.108 C 439.000 166.782 439.279 167.055 439.619 166.714 C 439.960 166.374 440.896 166.753 441.700 167.557 C 442.504 168.361 443.575 168.763 444.081 168.450 C 444.586 168.138 445.000 168.385 445.000 169.000 C 445.000 169.615 445.403 169.869 445.895 169.565 C 446.388 169.260 447.059 169.712 447.388 170.569 C 447.717 171.426 448.392 171.876 448.888 171.569 C 449.384 171.262 450.050 171.688 450.367 172.515 C 450.685 173.342 451.334 173.902 451.811 173.759 C 452.288 173.617 453.988 174.984 455.589 176.798 C 457.190 178.612 458.275 179.432 458.000 178.620 C 457.725 177.808 458.850 178.541 460.500 180.247 C 462.150 181.954 463.356 183.530 463.179 183.749 C 463.003 183.969 464.353 185.576 466.179 187.322 C 468.006 189.068 469.383 190.847 469.241 191.276 C 469.098 191.705 469.658 192.315 470.485 192.633 C 471.312 192.950 471.750 193.596 471.458 194.068 C 471.166 194.541 471.806 195.806 472.880 196.880 C 473.954 197.954 474.571 199.096 474.250 199.417 C 473.929 199.738 474.218 200.000 474.892 200.000 C 475.566 200.000 475.873 200.397 475.573 200.882 C 475.273 201.368 475.906 202.883 476.981 204.249 C 478.055 205.615 478.649 207.017 478.301 207.366 C 477.952 207.715 478.178 208.000 478.802 208.000 C 479.426 208.000 479.678 208.675 479.362 209.500 C 479.045 210.325 479.270 211.000 479.862 211.000 C 480.453 211.000 480.678 211.675 480.362 212.500 C 480.045 213.325 480.270 214.000 480.862 214.000 C 481.453 214.000 481.678 214.675 481.362 215.500 C 481.045 216.325 481.242 217.000 481.799 217.000 C 482.357 217.000 482.577 217.900 482.290 219.000 C 481.984 220.168 482.259 221.000 482.951 221.000 C 483.678 221.000 483.891 221.768 483.503 222.991 C 483.155 224.086 483.232 225.549 483.672 226.241 C 484.819 228.043 484.870 252.257 483.730 253.737 C 483.205 254.417 483.060 256.105 483.407 257.487 C 483.804 259.066 483.616 260.000 482.902 260.000 C 482.259 260.000 481.993 260.867 482.290 262.000 C 482.577 263.100 482.352 264.000 481.790 264.000 C 481.227 264.000 481.002 264.900 481.290 266.000 C 481.577 267.100 481.441 268.000 480.986 268.000 C 480.326 268.000 479.242 271.078 478.521 275.000 C 478.470 275.275 477.898 276.453 477.250 277.619 C 476.601 278.784 476.355 280.021 476.702 280.369 C 477.049 280.716 476.782 281.000 476.108 281.000 C 475.434 281.000 475.160 281.450 475.500 282.000 C 475.840 282.550 475.615 283.000 475.000 283.000 C 474.385 283.000 474.160 283.450 474.500 284.000 C 474.840 284.550 474.615 285.000 474.000 285.000 C 473.385 285.000 473.160 285.450 473.500 286.000 C 473.840 286.550 473.615 287.000 473.000 287.000 C 472.385 287.000 472.160 287.450 472.500 288.000 C 472.840 288.550 472.566 289.000 471.892 289.000 C 471.218 289.000 470.960 289.293 471.318 289.651 C 471.676 290.009 471.326 290.797 470.539 291.401 C 469.753 292.006 468.973 293.123 468.805 293.885 C 468.637 294.647 467.496 296.391 466.269 297.761 C 465.042 299.131 464.250 300.596 464.510 301.016 C 464.770 301.437 463.749 302.606 462.241 303.615 C 460.734 304.623 460.100 305.460 460.834 305.474 C 461.567 305.488 460.783 306.523 459.092 307.774 C 457.400 309.025 456.100 310.375 456.203 310.774 C 456.306 311.173 453.040 314.875 448.945 319.000 C 444.850 323.125 442.138 325.600 442.918 324.500 C 443.698 323.400 442.798 323.938 440.918 325.695 C 434.190 331.983 433.161 332.828 432.740 332.407 C 432.505 332.172 431.095 333.110 429.605 334.490 C 428.116 335.871 426.470 337.000 425.948 337.000 C 425.427 337.000 425.000 337.477 425.000 338.059 C 425.000 338.641 424.547 338.838 423.993 338.496 C 423.439 338.153 422.717 338.574 422.388 339.431 C 422.059 340.288 421.404 340.750 420.932 340.458 C 420.459 340.166 419.194 340.806 418.120 341.880 C 417.046 342.954 415.904 343.571 415.583 343.250 C 415.262 342.929 415.000 343.218 415.000 343.892 C 415.000 344.566 414.550 344.840 414.000 344.500 C 413.450 344.160 413.000 344.359 413.000 344.941 C 413.000 345.523 412.663 345.907 412.250 345.794 C 411.188 345.502 395.570 353.163 395.165 354.175 C 394.980 354.636 394.418 354.758 393.915 354.447 C 393.412 354.136 393.000 354.344 393.000 354.910 C 393.000 355.475 392.383 355.700 391.629 355.411 C 390.875 355.122 389.525 355.618 388.629 356.514 C 387.733 357.410 387.000 357.834 387.000 357.456 C 387.000 357.079 385.875 357.507 384.500 358.408 C 383.125 359.309 382.000 359.795 382.000 359.488 C 382.000 359.181 380.988 359.491 379.750 360.177 C 378.513 360.863 377.163 361.329 376.750 361.212 C 376.338 361.096 376.000 361.436 376.000 361.969 C 376.000 362.501 375.325 362.678 374.500 362.362 C 373.675 362.045 373.000 362.311 373.000 362.952 C 373.000 363.593 372.550 363.840 372.000 363.500 C 371.450 363.160 371.000 363.344 371.000 363.910 C 371.000 364.475 370.325 364.678 369.500 364.362 C 368.675 364.045 368.000 364.270 368.000 364.862 C 368.000 365.453 367.325 365.678 366.500 365.362 C 365.675 365.045 365.000 365.311 365.000 365.952 C 365.000 366.593 364.550 366.840 364.000 366.500 C 363.450 366.160 363.000 366.407 363.000 367.048 C 363.000 367.689 362.325 367.955 361.500 367.638 C 360.675 367.322 360.000 367.485 360.000 368.000 C 360.000 368.515 359.325 368.678 358.500 368.362 C 357.675 368.045 357.000 368.311 357.000 368.952 C 357.000 369.593 356.581 369.859 356.069 369.543 C 355.557 369.226 354.851 369.432 354.500 370.000 C 354.149 370.568 353.474 370.793 353.000 370.500 C 352.526 370.207 351.915 370.329 351.642 370.770 C 350.914 371.948 346.995 371.469 343.010 369.715 C 341.090 368.870 339.178 368.390 338.760 368.648 C 338.342 368.907 338.000 368.593 338.000 367.952 C 338.000 367.311 337.325 367.045 336.500 367.362 C 335.675 367.678 335.000 367.464 335.000 366.885 C 335.000 366.307 334.442 366.019 333.759 366.247 C 333.076 366.475 331.893 366.036 331.130 365.273 C 330.367 364.510 329.154 364.111 328.436 364.386 C 327.717 364.662 326.988 364.476 326.815 363.973 C 326.642 363.470 325.375 362.853 324.000 362.603 C 322.625 362.353 321.275 362.062 321.000 361.956 C 320.725 361.850 320.163 361.816 319.750 361.882 C 319.338 361.947 319.000 361.550 319.000 361.000 C 319.000 360.450 318.663 360.096 318.250 360.212 C 317.838 360.329 316.547 359.895 315.381 359.248 C 314.216 358.600 312.979 358.355 312.631 358.702 C 312.284 359.049 312.000 358.782 312.000 358.108 C 312.000 357.434 311.550 357.160 311.000 357.500 C 310.450 357.840 310.000 357.593 310.000 356.952 C 310.000 356.311 309.325 356.045 308.500 356.362 C 307.675 356.678 307.000 356.475 307.000 355.910 C 307.000 355.344 306.550 355.160 306.000 355.500 C 305.450 355.840 305.000 355.676 305.000 355.137 C 305.000 354.162 298.187 351.402 296.750 351.795 C 296.338 351.908 296.000 351.523 296.000 350.941 C 296.000 350.359 295.550 350.160 295.000 350.500 C 294.450 350.840 294.000 350.672 294.000 350.126 C 294.000 349.132 290.157 347.430 288.750 347.802 C 288.338 347.911 288.000 347.562 288.000 347.026 C 288.000 345.770 282.452 342.881 281.627 343.707 C 281.282 344.051 281.000 343.733 281.000 343.000 C 281.000 342.267 280.727 341.940 280.394 342.273 C 280.060 342.607 278.867 342.022 277.742 340.974 C 276.617 339.927 275.362 339.276 274.953 339.529 C 274.544 339.782 273.941 339.288 273.612 338.431 C 273.283 337.574 272.608 337.124 272.112 337.431 C 271.616 337.738 270.941 337.288 270.612 336.431 C 270.283 335.574 269.608 335.124 269.112 335.431 C 268.616 335.738 267.941 335.288 267.612 334.431 C 267.283 333.574 266.608 333.124 266.112 333.431 C 265.616 333.738 264.952 333.316 264.636 332.494 C 264.321 331.672 263.536 331.000 262.892 331.000 C 262.247 331.000 261.145 330.213 260.441 329.250 C 259.737 328.288 258.741 327.500 258.226 327.500 C 257.712 327.500 255.988 325.990 254.396 324.144 C 252.803 322.299 251.640 321.370 251.812 322.080 C 251.984 322.791 249.886 321.151 247.150 318.436 C 244.415 315.721 243.027 313.950 244.066 314.500 C 245.105 315.050 244.053 313.712 241.728 311.527 C 239.402 309.341 237.500 307.178 237.500 306.720 C 237.500 306.261 236.375 304.972 235.000 303.856 C 233.625 302.740 233.144 302.168 233.931 302.584 C 234.719 303.001 234.044 301.578 232.431 299.421 C 230.819 297.265 229.163 295.350 228.750 295.167 C 228.338 294.983 228.000 294.196 228.000 293.417 C 228.000 292.638 227.550 292.000 227.000 292.000 C 226.450 292.000 226.107 291.663 226.238 291.250 C 226.639 289.985 223.817 284.000 222.820 284.000 C 222.304 284.000 222.160 283.550 222.500 283.000 C 222.840 282.450 222.615 282.000 222.000 282.000 C 221.385 282.000 221.160 281.550 221.500 281.000 C 221.840 280.450 221.566 280.000 220.892 280.000 C 220.218 280.000 219.963 279.704 220.325 279.342 C 220.687 278.980 220.481 278.080 219.869 277.342 C 219.256 276.604 219.051 276.000 219.413 276.000 C 219.774 276.000 219.508 274.988 218.821 273.750 C 218.133 272.513 217.555 271.200 217.535 270.833 C 217.516 270.467 217.194 269.860 216.819 269.486 C 216.444 269.111 216.380 268.173 216.676 267.402 C 216.972 266.631 216.730 266.000 216.138 266.000 C 215.547 266.000 215.304 265.371 215.600 264.601 C 215.895 263.832 215.716 262.943 215.202 262.625 C 214.689 262.308 214.498 260.845 214.779 259.375 C 215.108 257.657 214.915 256.934 214.240 257.352 C 213.540 257.784 213.371 256.585 213.733 253.750 C 214.031 251.413 213.925 249.825 213.498 250.223 C 213.071 250.621 212.671 246.008 212.610 239.973 C 212.550 233.937 212.889 229.000 213.363 229.000 C 213.838 229.000 214.029 227.650 213.787 226.000 C 213.545 224.350 213.771 223.000 214.290 223.000 C 214.809 223.000 214.998 222.100 214.711 221.001 C 214.423 219.902 214.626 218.731 215.162 218.400 C 215.698 218.069 215.916 217.223 215.646 216.521 C 215.377 215.818 215.661 214.739 216.278 214.122 C 216.895 213.505 216.973 212.993 216.450 212.985 C 215.928 212.976 216.085 212.598 216.800 212.145 C 217.515 211.691 218.173 210.348 218.263 209.160 C 218.352 207.972 218.806 207.000 219.272 207.000 C 219.737 207.000 219.840 206.550 219.500 206.000 C 219.160 205.450 219.434 205.000 220.108 205.000 C 220.782 205.000 221.055 204.721 220.714 204.381 C 220.374 204.040 220.753 203.104 221.557 202.300 C 222.361 201.496 222.763 200.425 222.450 199.919 C 222.138 199.414 222.385 199.000 223.000 199.000 C 223.615 199.000 223.869 198.597 223.565 198.105 C 223.260 197.612 223.712 196.941 224.569 196.612 C 225.426 196.283 225.876 195.608 225.569 195.112 C 225.262 194.616 225.748 193.927 226.649 193.581 C 227.549 193.236 228.004 192.671 227.659 192.325 C 227.314 191.980 227.812 191.127 228.766 190.429 C 229.719 189.732 230.537 188.787 230.583 188.331 C 230.629 187.874 233.678 184.426 237.360 180.670 C 241.041 176.913 243.929 174.394 243.777 175.073 C 243.625 175.752 244.215 175.341 245.090 174.160 C 245.964 172.979 246.966 172.299 247.316 172.649 C 247.666 173.000 248.236 172.549 248.581 171.649 C 248.927 170.748 249.616 170.262 250.112 170.569 C 250.608 170.876 251.283 170.426 251.612 169.569 C 251.941 168.712 252.612 168.260 253.105 168.565 C 253.597 168.869 254.000 168.615 254.000 168.000 C 254.000 167.385 254.450 167.160 255.000 167.500 C 255.550 167.840 256.000 167.641 256.000 167.059 C 256.000 166.477 256.338 166.074 256.750 166.164 C 258.295 166.502 263.000 164.747 263.000 163.833 C 263.000 163.310 263.419 163.141 263.931 163.457 C 264.443 163.774 265.132 163.595 265.463 163.060 C 265.794 162.525 266.725 162.341 267.532 162.651 C 268.339 162.960 269.000 162.689 269.000 162.048 C 269.000 161.407 269.472 161.173 270.048 161.530 C 270.624 161.886 271.862 161.850 272.798 161.450 C 273.734 161.050 276.013 160.824 277.862 160.948 C 279.712 161.071 280.978 160.773 280.676 160.285 C 280.374 159.796 283.509 159.420 287.647 159.449 C 291.882 159.478 294.803 159.880 294.334 160.370 M 450.750 73.282 C 451.438 73.035 452.000 73.369 452.000 74.024 C 452.000 74.678 452.661 74.960 453.468 74.651 C 454.275 74.341 455.190 74.498 455.500 75.000 C 455.810 75.502 456.725 75.659 457.532 75.349 C 458.339 75.040 459.000 75.311 459.000 75.952 C 459.000 76.593 459.450 76.840 460.000 76.500 C 460.550 76.160 461.000 76.407 461.000 77.048 C 461.000 77.689 461.675 77.955 462.500 77.638 C 463.325 77.322 464.000 77.547 464.000 78.138 C 464.000 78.730 464.675 78.955 465.500 78.638 C 466.325 78.322 467.000 78.525 467.000 79.090 C 467.000 79.656 467.450 79.840 468.000 79.500 C 468.550 79.160 469.000 79.385 469.000 80.000 C 469.000 80.615 469.450 80.840 470.000 80.500 C 470.550 80.160 471.000 80.385 471.000 81.000 C 471.000 81.615 471.450 81.840 472.000 81.500 C 472.550 81.160 473.000 81.385 473.000 82.000 C 473.000 82.615 473.450 82.840 474.000 82.500 C 474.550 82.160 475.000 82.286 475.000 82.780 C 475.000 83.585 477.835 85.253 480.500 86.015 C 481.050 86.173 481.950 86.884 482.500 87.596 C 483.050 88.308 484.159 89.027 484.965 89.195 C 485.771 89.363 487.218 90.400 488.182 91.500 C 489.145 92.600 489.948 93.102 489.967 92.615 C 489.985 92.128 490.920 92.900 492.045 94.330 C 493.169 95.760 494.182 96.695 494.295 96.408 C 494.408 96.121 498.630 99.951 503.677 104.919 C 508.724 109.887 512.348 113.850 511.729 113.726 C 511.111 113.602 511.912 114.400 513.509 115.500 C 515.105 116.600 515.757 117.503 514.956 117.507 C 514.009 117.512 514.285 118.068 515.744 119.097 C 516.978 119.967 517.701 120.966 517.351 121.316 C 517.000 121.666 517.451 122.236 518.351 122.581 C 519.252 122.927 519.738 123.616 519.431 124.112 C 519.124 124.608 519.574 125.283 520.431 125.612 C 521.288 125.941 521.740 126.612 521.435 127.105 C 521.131 127.597 521.385 128.000 522.000 128.000 C 522.615 128.000 522.850 128.434 522.523 128.964 C 522.195 129.493 522.843 130.843 523.964 131.964 C 525.084 133.084 525.763 134.000 525.474 134.000 C 525.185 134.000 525.728 135.463 526.680 137.250 C 527.632 139.038 528.319 140.838 528.206 141.250 C 528.093 141.663 528.525 142.000 529.167 142.000 C 529.808 142.000 530.049 142.284 529.702 142.631 C 529.355 142.979 529.601 144.216 530.250 145.381 C 530.898 146.547 531.445 147.800 531.465 148.167 C 531.484 148.533 531.806 149.140 532.181 149.514 C 532.556 149.889 532.620 150.827 532.324 151.598 C 532.028 152.369 532.270 153.000 532.862 153.000 C 533.453 153.000 533.678 153.675 533.362 154.500 C 533.045 155.325 533.242 156.000 533.799 156.000 C 534.357 156.000 534.577 156.900 534.290 158.000 C 533.984 159.168 534.259 160.000 534.951 160.000 C 535.678 160.000 535.891 160.768 535.503 161.991 C 535.155 163.086 535.213 164.536 535.632 165.214 C 536.722 166.977 536.937 176.079 535.874 175.422 C 535.386 175.120 534.734 175.530 534.426 176.332 C 534.025 177.377 533.104 177.590 531.183 177.082 C 528.051 176.254 525.097 170.945 525.780 167.370 C 526.029 166.067 525.773 165.000 525.210 165.000 C 524.648 165.000 524.423 164.100 524.710 163.000 C 524.998 161.900 524.773 161.000 524.210 161.000 C 523.648 161.000 523.423 160.100 523.710 159.000 C 523.998 157.900 523.745 157.000 523.148 157.000 C 522.551 157.000 522.322 156.325 522.638 155.500 C 522.955 154.675 522.730 154.000 522.138 154.000 C 521.547 154.000 521.322 153.325 521.638 152.500 C 521.955 151.675 521.689 151.000 521.048 151.000 C 520.407 151.000 520.141 150.581 520.457 150.069 C 520.774 149.557 520.568 148.851 520.000 148.500 C 519.432 148.149 519.226 147.443 519.543 146.931 C 519.859 146.419 519.641 146.000 519.059 146.000 C 518.477 146.000 518.089 145.663 518.198 145.250 C 518.570 143.843 516.868 140.000 515.874 140.000 C 515.328 140.000 515.160 139.550 515.500 139.000 C 515.840 138.450 515.615 138.000 515.000 138.000 C 514.385 138.000 514.160 137.550 514.500 137.000 C 514.840 136.450 514.615 136.000 514.000 136.000 C 513.385 136.000 513.150 135.566 513.477 135.036 C 513.805 134.507 513.194 133.194 512.120 132.120 C 511.046 131.046 510.393 129.941 510.669 129.664 C 510.945 129.388 510.220 128.653 509.058 128.031 C 507.895 127.409 507.210 126.469 507.535 125.943 C 507.861 125.416 507.426 124.717 506.569 124.388 C 505.712 124.059 505.246 123.410 505.534 122.946 C 505.821 122.481 504.655 121.066 502.944 119.800 C 501.233 118.535 500.334 117.500 500.948 117.500 C 501.561 117.500 499.252 114.800 495.816 111.500 C 492.380 108.200 490.228 106.420 491.034 107.544 C 491.840 108.668 490.826 107.768 488.780 105.544 C 486.734 103.320 485.046 101.938 485.030 102.473 C 485.013 103.007 484.294 102.437 483.432 101.206 C 482.569 99.974 481.491 99.196 481.036 99.478 C 480.582 99.759 479.927 99.252 479.581 98.351 C 479.236 97.451 478.691 96.976 478.370 97.297 C 478.049 97.617 476.867 97.022 475.742 95.974 C 474.617 94.927 473.315 94.305 472.849 94.594 C 472.382 94.882 472.000 94.696 472.000 94.180 C 472.000 93.183 466.015 90.361 464.750 90.762 C 464.338 90.893 464.000 90.523 464.000 89.941 C 464.000 89.359 463.550 89.160 463.000 89.500 C 462.450 89.840 462.000 89.593 462.000 88.952 C 462.000 88.311 461.325 88.045 460.500 88.362 C 459.675 88.678 459.000 88.475 459.000 87.910 C 459.000 87.344 458.550 87.160 458.000 87.500 C 457.450 87.840 457.000 87.593 457.000 86.952 C 457.000 86.311 456.325 86.045 455.500 86.362 C 454.675 86.678 454.000 86.453 454.000 85.862 C 454.000 85.270 453.369 85.028 452.598 85.324 C 451.827 85.620 450.914 85.580 450.569 85.235 C 450.224 84.891 449.393 84.501 448.721 84.370 C 448.049 84.238 446.038 83.683 444.250 83.135 C 442.463 82.588 441.000 82.365 441.000 82.641 C 441.000 82.917 440.438 82.548 439.750 81.821 C 439.063 81.095 438.508 78.925 438.517 77.000 C 438.533 73.681 438.740 73.472 442.517 72.953 C 444.708 72.652 447.175 72.704 448.000 73.068 C 448.825 73.432 450.063 73.528 450.750 73.282 M 537.931 194.428 C 539.379 196.378 539.990 199.287 539.983 204.184 C 539.980 205.661 540.418 207.141 540.956 207.473 C 541.494 207.806 541.679 209.356 541.367 210.917 C 541.054 212.482 541.278 214.054 541.867 214.417 C 542.470 214.790 542.677 216.367 542.342 218.039 C 541.995 219.776 542.173 221.000 542.772 221.000 C 544.342 221.000 543.697 227.355 542.000 228.604 C 541.175 229.212 539.272 229.935 537.772 230.212 C 535.719 230.590 534.898 230.255 534.455 228.857 C 534.130 227.836 533.457 227.000 532.958 227.000 C 532.458 227.000 532.320 225.650 532.650 224.000 C 533.013 222.185 532.834 221.000 532.196 221.000 C 531.616 221.000 531.141 219.538 531.139 217.750 C 531.135 214.439 530.699 210.647 529.500 203.500 C 528.508 197.581 528.635 195.306 530.043 193.799 C 531.875 191.838 536.268 192.188 537.931 194.428 "/></g>
<g fill="#513736FF" stroke="#513736FF">
<path d="M 279.000 160.637 C 252.510 164.505 232.195 180.193 220.057 206.156 C 207.017 234.048 212.483 272.240 233.647 301.123 C 253.931 328.804 280.986 346.412 333.171 365.896 C 340.690 368.703 347.723 371.000 348.800 371.000 C 349.877 371.000 358.350 368.121 367.629 364.602 C 408.600 349.064 430.692 336.381 449.508 317.595 C 469.477 297.658 480.781 275.484 483.995 249.944 C 488.852 211.361 464.903 173.316 429.000 162.580 C 425.975 161.676 419.439 160.664 414.475 160.332 C 392.766 158.879 371.450 167.926 355.311 185.440 L 348.360 192.984 344.930 188.403 C 338.480 179.786 323.847 168.979 313.146 164.929 C 303.059 161.110 288.389 159.267 279.000 160.637 M 307.204 174.994 C 322.098 180.405 336.375 192.485 342.308 204.698 C 344.403 209.009 346.894 210.561 350.562 209.839 C 351.507 209.652 354.024 206.575 356.153 203.000 C 367.124 184.581 390.161 171.030 410.500 171.030 C 447.936 171.030 479.096 210.615 473.016 250.450 C 467.454 286.892 442.175 317.383 400.020 338.497 C 389.030 344.002 362.230 355.168 353.215 357.998 C 347.992 359.638 345.045 358.834 321.823 349.437 C 280.684 332.790 257.472 316.256 240.825 291.743 C 235.266 283.556 231.772 276.166 227.945 264.500 C 224.922 255.286 224.657 253.438 224.582 241.000 C 224.512 229.495 224.846 226.392 226.842 220.000 C 231.616 204.709 240.951 191.345 253.070 182.448 C 258.560 178.418 269.736 173.384 276.306 171.981 C 284.417 170.250 297.713 171.546 307.204 174.994 "/></g>
<g fill="#F48572FF" stroke="#F48572FF">
<path d="M 276.306 171.981 C 269.736 173.384 258.560 178.418 253.070 182.448 C 240.951 191.345 231.616 204.709 226.842 220.000 C 224.846 226.392 224.512 229.495 224.582 241.000 C 224.657 253.438 224.922 255.286 227.945 264.500 C 233.185 280.473 238.930 290.724 249.741 303.394 C 260.142 315.583 278.473 329.219 296.823 338.419 C 307.069 343.556 334.212 354.756 343.215 357.562 C 350.000 359.677 349.836 359.716 373.020 350.450 C 420.385 331.520 446.493 311.690 461.823 283.000 C 467.101 273.123 471.514 260.288 473.016 250.450 C 478.306 215.790 455.353 180.190 422.760 172.506 C 409.896 169.473 397.427 171.218 383.343 178.025 C 373.372 182.844 361.861 193.417 356.153 203.000 C 354.024 206.575 351.507 209.652 350.562 209.839 C 346.894 210.561 344.403 209.009 342.308 204.698 C 336.375 192.485 322.098 180.405 307.204 174.994 C 297.713 171.546 284.417 170.250 276.306 171.981 "/></g>
<g fill="#513736FF" stroke="#513736FF">
<path d="M 439.607 74.582 C 439.273 75.452 439.000 77.261 439.000 78.603 C 439.000 81.410 440.493 82.214 450.000 84.528 C 465.023 88.184 486.564 101.281 498.167 113.813 C 512.645 129.452 522.955 149.540 525.900 167.850 C 526.462 171.342 527.444 174.830 528.083 175.600 C 529.737 177.593 533.390 177.331 535.433 175.074 C 537.072 173.263 537.080 172.679 535.565 165.351 C 530.341 140.094 519.276 120.055 500.891 102.559 C 487.386 89.707 474.497 81.907 457.193 76.115 C 446.808 72.639 440.561 72.095 439.607 74.582 "/></g>
<g fill="#513736FF" stroke="#513736FF">
<path d="M 529.954 194.555 C 528.892 195.835 529.070 198.803 530.958 211.305 C 532.221 219.662 533.662 227.288 534.162 228.250 C 535.298 230.439 540.282 230.570 542.036 228.457 C 543.084 227.193 542.912 224.064 541.088 211.224 C 539.861 202.594 538.385 194.964 537.807 194.267 C 536.344 192.504 531.509 192.682 529.954 194.555 "/></g>
<g fill="#60A4A4FF" stroke="#60A4A4FF">
<path d="M 34.500 85.500 L 41.000 92.000 34.500 85.500 L 28.000 79.000 34.500 85.500 "/></g>
<g fill="#60A4A4FF" stroke="#60A4A4FF">
<path d="M 519.000 89.000 L 523.000 93.000 519.000 89.000 L 515.000 85.000 519.000 89.000 "/></g>
</svg>
