<?xml version="1.0" ?>
<svg xmlns="http://www.w3.org/2000/svg" version="1.1" width="500" height="500">
  <defs/>
  <g>
    <path d="M 77.54109191894531 82.11693572998047 C 68.24772644042969 184.52206420898438 99.43768310546875 188.03184509277344 154.71804809570312 231.20059204101562 C 119.89537048339844 284.37890625 117.20963287353516 228.58737182617188 69.04912567138672 249.2290496826172 C 38.80690383911133 258.4635314941406 43.65675735473633 291.9508972167969 81.39250946044922 318.51800537109375 C 137.39537048339844 331.26580810546875 153.83314514160156 304.2481994628906 145.37518310546875 366.7582702636719 C 198.62039184570312 383.5696716308594 169.87481689453125 346.0108642578125 177.60800170898438 290.67694091796875 C 201.21339416503906 299.0535888671875 224.0244598388672 297.1062927246094 247.33615112304688 275.3158874511719 C 222.81979370117188 316.5893859863281 232.5902099609375 337.25299072265625 274.4853820800781 361.3243713378906 C 331.21063232421875 368.6436767578125 334.95904541015625 339.76776123046875 330.8963317871094 405.0631103515625 C 380.09002685546875 420.0874328613281 356.4730224609375 400.9927978515625 361.0459289550781 330.5191650390625 C 409.42138671875 345.0176086425781 435.946533203125 318.96954345703125 450.1891784667969 279.4323425292969 C 426.6110534667969 258.3258361816406 428.5113220214844 260.1465148925781 337.44024658203125 270.83258056640625 C 406.7702331542969 226.39588928222656 431.9523010253906 196.6300506591797 412.8523254394531 108.42595672607422 C 354.4494323730469 77.66365051269531 309.6416931152344 100.47108459472656 261.4157409667969 122.05677032470703 C 252.0743408203125 229.20533752441406 285.9187316894531 221.861328125 338.3408203125 276.255126953125 C 303.63153076171875 323.55364990234375 305.30230712890625 261.74981689453125 237.75662231445312 294.3889465332031 C 249.88510131835938 266.22564697265625 266.4986877441406 253.87109375 265.5419616699219 237.0518341064453 C 215.39913940429688 206.52232360839844 194.78860473632812 227.93666076660156 177.2664794921875 246.42770385742188 C 157.27911376953125 192.7689971923828 215.6998748779297 211.62838745117188 228.829345703125 154.30581665039062 C 239.4607696533203 127.19392395019531 236.54629516601562 69.63629150390625 219.80030822753906 64.66900634765625 C 163.35696411132812 46.82087326049805 127.04591369628906 55.26850509643555 77.54109191894531 82.11693572998047" stroke-width="0.0" fill="rgb(0, 0, 0)" opacity="1.0" stroke="rgb(0, 0, 0)" stroke-opacity="1.0" stroke-linecap="round" stroke-linejoin="round"/>
  </g>
</svg>
