<?xml version="1.0" ?>
<svg xmlns="http://www.w3.org/2000/svg" version="1.1" width="500" height="500">
  <defs/>
  <g>
    <path d="M 300.6784362792969 47.3897819519043 C 279.4456481933594 47.6844482421875 265.4129943847656 94.85128784179688 268.4297180175781 133.6487274169922 C 170.73223876953125 155.3662872314453 175.3268280029297 93.44573211669922 127.46879577636719 75.42778778076172 C 104.03778839111328 106.08670806884766 173.58917236328125 104.08739471435547 176.44908142089844 167.9070587158203 C 127.57769775390625 195.9713134765625 138.590087890625 138.0742950439453 103.47307586669922 151.9873046875 C 100.54963684082031 192.07875061035156 166.6844482421875 160.79844665527344 134.11843872070312 227.1600341796875 C 90.15795135498047 215.82423400878906 61.826629638671875 198.28817749023438 51.201507568359375 209.76788330078125 C 36.92809295654297 221.7361297607422 102.34049224853516 244.6454620361328 123.29985809326172 231.89010620117188 C 156.93101501464844 349.76275634765625 118.00194549560547 348.9344177246094 90.08465576171875 402.7587585449219 C 137.6752166748047 411.2232666015625 119.16259765625 343.1781311035156 181.24143981933594 343.6871032714844 C 192.5251922607422 380.8053894042969 152.11375427246094 387.87060546875 170.8773193359375 413.6379089355469 C 211.6454315185547 412.5755310058594 161.6086883544922 336.79559326171875 227.0258026123047 366.91070556640625 C 232.05926513671875 425.8939514160156 224.8899688720703 463.08721923828125 253.9175262451172 446.2461853027344 C 248.52606201171875 428.75811767578125 247.25381469726562 387.0 248.44650268554688 376.14251708984375 C 332.0952453613281 333.13531494140625 351.38824462890625 350.2262268066406 398.59625244140625 396.2777099609375 C 418.44427490234375 353.3114318847656 337.2825927734375 339.21527099609375 346.1940612792969 327.1311950683594 C 360.23089599609375 238.29713439941406 384.4131164550781 219.6876220703125 453.905029296875 209.96397399902344 C 428.3997802734375 172.49667358398438 405.8233947753906 210.44017028808594 361.2543640136719 219.05235290527344 C 325.07232666015625 153.44781494140625 377.85968017578125 173.93971252441406 388.9858093261719 119.72753143310547 C 349.23504638671875 138.70457458496094 341.95947265625 169.94691467285156 264.5796203613281 135.5486297607422 C 291.5157165527344 110.35102081298828 304.53094482421875 63.822601318359375 300.6784362792969 47.3897819519043" stroke-width="0.0" fill="rgb(0, 0, 0)" opacity="1.0" stroke="rgb(0, 0, 0)" stroke-opacity="1.0" stroke-linecap="round" stroke-linejoin="round"/>
  </g>
</svg>
