<?xml version="1.0" ?>
<svg xmlns="http://www.w3.org/2000/svg" version="1.1" width="500" height="500">
  <defs/>
  <g>
    <path d="M 268.07183837890625 70.19282531738281 C 253.21047973632812 62.38651657104492 238.12164306640625 71.41702270507812 225.7012176513672 80.5134506225586 C 205.60154724121094 62.35148239135742 187.7451171875 46.020355224609375 154.69625854492188 50.37129592895508 C 135.0990753173828 54.94198989868164 124.72064971923828 73.43984985351562 121.1480484008789 93.171142578125 C 107.51246643066406 86.79296112060547 93.30560302734375 78.49749755859375 76.7606201171875 78.49480438232422 C 64.03019714355469 79.74527740478516 54.98154067993164 82.92977905273438 49.96792221069336 102.47887420654297 C 48.82634353637695 147.5491180419922 51.93560791015625 193.42709350585938 68.43081665039062 224.0972900390625 C 85.0005111694336 254.4109344482422 113.50151062011719 269.1788635253906 156.39739990234375 274.2944030761719 C 157.44955444335938 328.8502197265625 138.0126190185547 377.509033203125 123.35698699951172 426.97393798828125 C 120.42857360839844 435.122314453125 127.5596923828125 445.796630859375 137.3930206298828 449.9237365722656 C 151.07887268066406 451.1124572753906 154.96644592285156 450.02105712890625 162.323974609375 440.1065673828125 C 171.98321533203125 415.56854248046875 178.6474151611328 387.9547424316406 185.9799041748047 363.13623046875 C 204.56500244140625 368.8160095214844 235.92416381835938 367.8503112792969 259.901611328125 362.5609130859375 C 281.3365173339844 356.05645751953125 300.9272155761719 347.2279357910156 308.816162109375 324.9117126464844 C 312.4694519042969 295.4638671875 299.4496154785156 278.063720703125 278.078857421875 272.1308898925781 C 246.42352294921875 270.23272705078125 217.42445373535156 288.78424072265625 195.93453979492188 308.1260070800781 C 197.8129119873047 310.5995788574219 198.19332885742188 289.025390625 197.8733367919922 275.26690673828125 C 218.81626892089844 271.9397888183594 232.83033752441406 265.3844299316406 246.00778198242188 254.1258544921875 C 264.0116271972656 238.58924865722656 276.8038635253906 217.26101684570312 285.5442199707031 191.5159912109375 C 291.6417541503906 170.86993408203125 296.14410400390625 147.173095703125 293.23382568359375 120.02629089355469 C 291.06475830078125 97.3465576171875 284.0157775878906 78.28155517578125 268.07183837890625 70.19282531738281" stroke-width="0.0" fill="rgb(0, 0, 0)" opacity="1.0" stroke="rgb(0, 0, 0)" stroke-opacity="1.0" stroke-linecap="round" stroke-linejoin="round"/>
  </g>
</svg>
