<?xml version="1.0" ?>
<svg xmlns="http://www.w3.org/2000/svg" version="1.1" width="500" height="500">
  <defs/>
  <g>
    <path d="M 52.71144104003906 190.5113525390625 C 48.265350341796875 203.5010223388672 48.23042297363281 228.17953491210938 54.585208892822266 230.93360900878906 C 60.51008224487305 240.72679138183594 82.62553405761719 247.56759643554688 97.40449523925781 225.971923828125 C 98.35440826416016 195.18865966796875 109.44004821777344 180.43609619140625 128.6688995361328 152.02462768554688 C 143.8079376220703 132.74658203125 162.47866821289062 111.01707458496094 185.6572265625 99.9624252319336 C 173.0691680908203 160.6076202392578 139.05686950683594 197.35340881347656 144.66123962402344 254.3905029296875 C 151.44381713867188 281.1198425292969 176.04051208496094 284.5895080566406 194.7192840576172 272.6719055175781 C 236.5670623779297 236.2085723876953 257.6865539550781 180.60205078125 303.60382080078125 152.28875732421875 C 303.1944885253906 195.5121612548828 287.84307861328125 241.68724060058594 295.5445251464844 275.823486328125 C 300.7384948730469 293.924072265625 312.7797546386719 305.8905029296875 338.176513671875 302.7522888183594 C 365.416015625 292.9388427734375 384.4908142089844 271.83489990234375 401.69390869140625 249.49017333984375 C 420.3348388671875 222.901611328125 439.59381103515625 193.5000762939453 449.6766052246094 172.60507202148438 C 449.3194274902344 144.16302490234375 431.55096435546875 138.29336547851562 411.0054016113281 146.0625762939453 C 387.412841796875 178.00518798828125 369.87371826171875 215.50025939941406 343.09368896484375 241.71092224121094 C 352.8307800292969 175.00799560546875 357.66412353515625 133.64117431640625 342.78729248046875 114.47711181640625 C 333.2864990234375 99.58456420898438 312.1531677246094 96.01992797851562 283.9575500488281 107.6843032836914 C 253.65411376953125 122.36467742919922 234.64418029785156 146.24818420410156 213.7793426513672 172.41848754882812 C 226.35336303710938 140.62599182128906 238.4545440673828 115.13365173339844 231.77407836914062 82.72525787353516 C 222.51690673828125 57.93666458129883 210.28033447265625 46.798683166503906 179.50064086914062 50.33143615722656 C 152.62271118164062 56.08174514770508 131.97998046875 76.89986419677734 112.47341918945312 94.61212158203125 C 87.45860290527344 122.22822570800781 65.03336334228516 152.2779541015625 52.71144104003906 190.5113525390625" stroke-width="0.0" fill="rgb(0, 0, 0)" opacity="1.0" stroke="rgb(0, 0, 0)" stroke-opacity="1.0" stroke-linecap="round" stroke-linejoin="round"/>
  </g>
</svg>
