<?xml version="1.0" ?>
<svg xmlns="http://www.w3.org/2000/svg" version="1.1" width="500" height="500">
  <defs/>
  <g>
    <path d="M 105.55449676513672 88.91207885742188 C 90.23701477050781 107.52630615234375 74.89551544189453 124.52458953857422 58.04269790649414 141.42221069335938 C 50.937740325927734 153.1042022705078 46.14628601074219 176.03294372558594 50.358646392822266 149.01580810546875 C 24.23101234436035 153.88145446777344 45.127254486083984 150.27117919921875 52.787723541259766 142.02804565429688 C 69.7031021118164 123.2436752319336 87.18106842041016 107.41534423828125 205.9069366455078 115.92501831054688 C 219.95948791503906 135.22666931152344 219.37828063964844 199.57762145996094 218.79052734375 292.11578369140625 C 97.17357635498047 284.0682373046875 90.5719985961914 276.05450439453125 83.96524810791016 266.6723327636719 C 72.92054748535156 260.89703369140625 48.64278030395508 256.68255615234375 75.2688217163086 260.0267028808594 C 71.5709228515625 232.51754760742188 75.88462829589844 255.21351623535156 83.05624389648438 265.69793701171875 C 94.50215148925781 280.6943054199219 104.5013656616211 295.7030334472656 114.65501403808594 310.3035583496094 C 135.87852478027344 319.3655090332031 157.4212646484375 328.484375 177.58216857910156 338.4891662597656 C 122.72549438476562 334.8602600097656 142.06253051757812 331.88824462890625 296.2463684082031 329.4442138671875 C 306.3253173828125 357.3840637207031 316.2571716308594 384.7772521972656 326.2394104003906 412.6230163574219 C 284.9136657714844 416.932861328125 313.09381103515625 413.7080078125 337.34454345703125 408.6603698730469 C 371.1411437988281 332.581298828125 405.1860046386719 256.9598693847656 439.5359191894531 181.30615234375 C 443.5037536621094 223.62684631347656 443.0743713378906 151.22610473632812 432.7609558105469 94.05885314941406 C 413.5590515136719 81.8949203491211 397.4913330078125 70.26336669921875 380.8757019042969 56.9603385925293 C 356.89910888671875 53.62298583984375 341.6532897949219 54.30243682861328 292.6451721191406 57.1561279296875 C 264.94610595703125 84.63294219970703 241.76698303222656 116.96052551269531 215.79261779785156 130.615234375 C 106.09320831298828 112.60782623291016 103.01931762695312 106.04705810546875 103.81929779052734 84.00366973876953 C 140.43666076660156 78.67579650878906 116.20706176757812 80.85113525390625 105.55449676513672 88.91207885742188" stroke-width="0.0" fill="rgb(0, 0, 0)" opacity="1.0" stroke="rgb(0, 0, 0)" stroke-opacity="1.0" stroke-linecap="round" stroke-linejoin="round"/>
  </g>
</svg>
