<?xml version="1.0" ?>
<svg xmlns="http://www.w3.org/2000/svg" version="1.1" width="500" height="500">
  <defs/>
  <g>
    <path d="M 308.3617858886719 46.69976043701172 C 261.2948303222656 71.6279525756836 178.93270874023438 88.84760284423828 58.79632568359375 60.800594329833984 C 63.62877655029297 189.6071014404297 62.292537689208984 275.89569091796875 47.28835678100586 318.4045104980469 C 77.31297302246094 347.8266906738281 93.11254119873047 387.2403259277344 100.22965240478516 440.63623046875 C 125.64944458007812 441.31768798828125 184.21595764160156 437.2684631347656 164.35397338867188 436.4442443847656 C 203.4834442138672 436.7179870605469 229.9408416748047 413.51470947265625 262.0684509277344 358.5658264160156 C 308.1611328125 355.2093505859375 313.3403625488281 378.1340637207031 286.532958984375 356.0435791015625 C 282.6637268066406 379.7945251464844 274.64312744140625 378.4159240722656 281.6751403808594 298.6048278808594 C 312.3243103027344 282.6797180175781 332.0279541015625 273.12921142578125 338.53515625 261.6644287109375 C 338.2440185546875 282.3730773925781 336.45281982421875 263.8414001464844 335.5726318359375 243.8312225341797 C 331.80908203125 221.18814086914062 316.9522705078125 204.99578857421875 335.9835510253906 224.2606964111328 C 305.82110595703125 202.73236083984375 328.7021179199219 207.8323974609375 339.3040771484375 268.7086486816406 C 311.0698547363281 276.6495361328125 292.126953125 281.8730163574219 286.1867980957031 294.0737609863281 C 279.3180847167969 360.9841613769531 238.4292755126953 388.46710205078125 203.67994689941406 432.7070007324219 C 135.5943603515625 445.8049011230469 117.6583023071289 440.13299560546875 89.54277801513672 427.4261474609375 C 145.87530517578125 327.44195556640625 162.30210876464844 254.60867309570312 142.62266540527344 119.66374969482422 C 217.62046813964844 143.08963012695312 209.45726013183594 196.90451049804688 219.9394073486328 215.20571899414062 C 220.04368591308594 214.6693572998047 225.3087921142578 213.97964477539062 237.51284790039062 211.10980224609375 C 237.67312622070312 219.63436889648438 200.84866333007812 193.98135375976562 168.4460906982422 79.58169555664062 C 214.66273498535156 73.52578735351562 262.9140930175781 67.92509460449219 300.6874694824219 59.54090118408203 C 293.6544494628906 73.2801513671875 293.9625244140625 60.0495719909668 308.3617858886719 46.69976043701172" stroke-width="0.0" fill="rgb(0, 0, 0)" opacity="1.0" stroke="rgb(0, 0, 0)" stroke-opacity="1.0" stroke-linecap="round" stroke-linejoin="round"/>
  </g>
</svg>
