<?xml version="1.0" ?>
<svg xmlns="http://www.w3.org/2000/svg" version="1.1" width="100" height="100">
  <defs/>
  <g>
    <path d="M 77.91728973388672 25.607511520385742 C 70.53709411621094 22.56264305114746 70.2774658203125 25.535409927368164 64.25755310058594 26.41676139831543 C 62.462642669677734 20.532798767089844 58.550987243652344 18.373680114746094 55.50351333618164 17.919710159301758 C 52.55306625366211 16.605018615722656 46.274967193603516 18.08692741394043 43.46149444580078 21.62799835205078 C 41.86241912841797 22.99456024169922 37.88434982299805 28.401044845581055 40.17658996582031 34.80788040161133 C 36.88216018676758 35.22561264038086 33.10734176635742 38.09668731689453 31.207082748413086 40.296207427978516 C 26.78125 46.40167236328125 29.876300811767578 53.12872314453125 32.03508377075195 55.430538177490234 C 29.32802391052246 55.4308967590332 20.036062240600586 60.149166107177734 14.023096084594727 65.55313110351562 C 11.590399742126465 68.57418060302734 8.588212966918945 71.15315246582031 10.184122085571289 74.65467834472656 C 9.9948091506958 75.42530822753906 13.16933822631836 77.58049774169922 21.85955810546875 76.26199340820312 C 22.807035446166992 76.3370132446289 29.73401641845703 73.90940856933594 32.73946762084961 72.75675964355469 C 31.150745391845703 74.8423080444336 28.25739097595215 82.25871276855469 29.86509132385254 83.89041137695312 C 31.145099639892578 85.91874694824219 31.290281295776367 86.27851104736328 35.503662109375 85.42339324951172 C 39.65854263305664 83.699462890625 45.061546325683594 78.8022689819336 47.828250885009766 73.5315933227539 C 46.87549591064453 72.3078384399414 51.91226577758789 75.9864273071289 56.39872741699219 74.54822540283203 C 60.46255874633789 73.06278991699219 63.58851623535156 70.32270812988281 65.32720184326172 67.00672149658203 C 69.87085723876953 70.3616714477539 76.16596221923828 67.86565399169922 76.98303985595703 66.94566345214844 C 79.76665496826172 65.1403579711914 81.84058380126953 61.97941970825195 82.12235260009766 56.69995880126953 C 81.64924621582031 52.15248489379883 79.25007629394531 48.132606506347656 76.54584503173828 45.997283935546875 C 78.43765258789062 44.12586212158203 82.40323638916016 41.369476318359375 82.62183380126953 37.19977569580078 C 83.71443939208984 33.40525817871094 81.3785171508789 27.43589973449707 77.91728973388672 25.607511520385742" stroke-width="0.0" fill="rgb(0, 0, 0)" opacity="1.0" stroke="rgb(0, 0, 0)" stroke-opacity="1.0" stroke-linecap="round" stroke-linejoin="round"/>
  </g>
</svg>
