<?xml version="1.0" ?>
<svg xmlns="http://www.w3.org/2000/svg" version="1.1" width="100" height="100">
  <defs/>
  <g>
    <path d="M 15.860071182250977 10.063343048095703 C 9.809937477111816 16.440486907958984 9.81885051727295 24.362125396728516 9.877670288085938 24.854646682739258 C 9.19464111328125 33.982337951660156 12.277814865112305 39.570682525634766 14.978466033935547 44.49799728393555 C 18.40896987915039 49.632484436035156 22.46718406677246 53.99858856201172 27.758220672607422 56.131370544433594 C 24.842790603637695 55.356658935546875 31.17910385131836 58.1719856262207 35.65822982788086 56.72268295288086 C 38.024444580078125 55.46699523925781 36.33382034301758 55.21443176269531 52.91731643676758 52.889259338378906 C 50.62946701049805 53.90134811401367 49.71385192871094 49.846885681152344 49.52422332763672 61.67092514038086 C 49.2183723449707 67.5989990234375 53.82612991333008 71.1339340209961 51.569122314453125 70.076171875 C 55.56858825683594 72.5768051147461 57.229156494140625 76.12391662597656 64.59400177001953 71.33853912353516 C 69.55326843261719 67.56578826904297 73.60502624511719 63.28529739379883 77.05261993408203 58.85604476928711 C 80.20315551757812 54.339080810546875 84.11863708496094 50.31901550292969 86.68374633789062 44.76460647583008 C 89.80862426757812 39.48482131958008 92.21501159667969 31.412837982177734 89.0797348022461 28.698575973510742 C 86.73230743408203 24.96453285217285 79.0367202758789 25.232572555541992 77.80038452148438 26.456356048583984 C 75.06632232666016 26.687875747680664 68.4959945678711 29.577390670776367 63.53571701049805 32.70579528808594 C 59.716827392578125 36.49018478393555 55.9766960144043 39.92033386230469 53.34357452392578 45.72968292236328 C 48.58831787109375 51.04268264770508 55.73163986206055 53.84447479248047 39.137489318847656 54.73662185668945 C 42.21714782714844 53.038291931152344 40.40361785888672 44.81441879272461 39.03952407836914 39.00452423095703 C 38.18220520019531 34.79356384277344 35.51060485839844 30.34323501586914 33.96162033081055 25.687232971191406 C 31.88276481628418 22.75774574279785 29.828920364379883 18.07204246520996 27.075197219848633 14.869959831237793 C 21.575727462768555 8.944825172424316 20.35704803466797 8.884858131408691 15.0435152053833 9.840237617492676 C 28.334787368774414 9.69509506225586 29.34654426574707 10.307095527648926 15.860071182250977 10.063343048095703" stroke-width="0.0" fill="rgb(0, 0, 0)" opacity="1.0" stroke="rgb(0, 0, 0)" stroke-opacity="1.0" stroke-linecap="round" stroke-linejoin="round"/>
  </g>
</svg>
