<?xml version="1.0" ?>
<svg xmlns="http://www.w3.org/2000/svg" version="1.1" width="100" height="100">
  <defs/>
  <g>
    <path d="M 16.143739700317383 14.504290580749512 C 11.19261646270752 34.81354904174805 21.018077850341797 41.0538444519043 29.144176483154297 43.72948455810547 C 27.80274200439453 71.69573211669922 34.817718505859375 52.99345779418945 20.27665138244629 49.12532424926758 C 8.57955265045166 47.36334991455078 6.325891494750977 55.548065185546875 14.043538093566895 62.76693344116211 C 31.37192153930664 71.70052337646484 27.961885452270508 54.368839263916016 29.210269927978516 74.41095733642578 C 39.27961349487305 75.36737060546875 34.78818893432617 72.9817886352539 35.847469329833984 59.22288513183594 C 52.636592864990234 60.3900032043457 47.691776275634766 54.96145248413086 46.10028839111328 61.934993743896484 C 51.46012878417969 82.39988708496094 63.69184112548828 62.380252838134766 69.32803344726562 84.46937561035156 C 76.60400390625 76.07395935058594 69.70919799804688 65.33538818359375 73.55200958251953 66.92581939697266 C 80.60374450683594 69.27690124511719 87.92045593261719 64.71027374267578 90.4967269897461 55.676124572753906 C 80.63764190673828 48.19990921020508 74.64894104003906 55.890968322753906 70.65758514404297 51.67364501953125 C 81.1500473022461 43.45545959472656 84.67569732666016 44.578590393066406 83.92799377441406 25.438661575317383 C 79.7190933227539 14.843377113342285 79.38715362548828 24.190534591674805 67.33180236816406 16.682350158691406 C 57.46952819824219 27.752412796020508 56.58318328857422 16.202556610107422 51.241458892822266 26.868480682373047 C 52.00758361816406 59.91960906982422 68.36293029785156 40.769622802734375 65.66691589355469 60.448055267333984 C 66.95548248291016 72.01663208007812 65.50588989257812 48.514129638671875 43.24444580078125 60.1173095703125 C 50.18377685546875 56.21923828125 53.90703582763672 49.5604133605957 53.01364517211914 47.38167953491211 C 42.32441711425781 39.71024703979492 35.07548904418945 47.946537017822266 35.523841857910156 49.66441345214844 C 32.193870544433594 36.20676040649414 42.42523193359375 46.209354400634766 47.02703857421875 27.53298568725586 C 47.90677261352539 20.908910751342773 47.12961196899414 13.669713973999023 43.88731384277344 12.6942138671875 C 12.633001327514648 5.647171974182129 39.5049934387207 14.711420059204102 16.143739700317383 14.504290580749512" stroke-width="0.0" fill="rgb(0, 0, 0)" opacity="1.0" stroke="rgb(0, 0, 0)" stroke-opacity="1.0" stroke-linecap="round" stroke-linejoin="round"/>
  </g>
</svg>
