<?xml version="1.0" ?>
<svg xmlns="http://www.w3.org/2000/svg" version="1.1" width="100" height="100">
  <defs/>
  <g>
    <path d="M 10.702486991882324 17.631591796875 C 10.030683517456055 15.553731918334961 8.255802154541016 20.37205696105957 11.216320037841797 28.872892379760742 C 14.70143985748291 37.56908416748047 18.327552795410156 45.701393127441406 21.75409507751465 51.477935791015625 C 21.469310760498047 49.751556396484375 22.93440818786621 53.45659637451172 25.89239501953125 52.656185150146484 C 29.938142776489258 51.266387939453125 32.343772888183594 53.44933319091797 29.89762306213379 34.550132751464844 C 34.94179916381836 50.731101989746094 39.89390563964844 54.02494430541992 59.355838775634766 47.13077926635742 C 48.64099884033203 51.185359954833984 46.246742248535156 52.56376647949219 50.07138442993164 59.95413589477539 C 50.21745300292969 57.763641357421875 46.555519104003906 55.6353874206543 52.575279235839844 61.16624069213867 C 62.630882263183594 60.10470199584961 71.11344909667969 56.580596923828125 76.60688018798828 55.14517593383789 C 81.29737091064453 54.2167854309082 89.40284729003906 50.344573974609375 90.48834228515625 47.379417419433594 C 90.76553344726562 43.77711486816406 87.7995376586914 40.307716369628906 87.4796371459961 40.23841857910156 C 84.25621032714844 35.570308685302734 72.35673522949219 34.15443801879883 81.97103881835938 36.59709167480469 C 70.34819793701172 33.4664306640625 67.28529357910156 44.201454162597656 45.577030181884766 51.208824157714844 C 56.422813415527344 33.30684280395508 58.56974792480469 24.907794952392578 60.15087890625 21.5441951751709 C 57.9632568359375 25.579879760742188 64.3448715209961 13.04218864440918 60.26662826538086 11.923112869262695 C 53.13212203979492 7.6393561363220215 41.78001022338867 13.157393455505371 47.02687072753906 12.143377304077148 C 44.89113998413086 11.74148178100586 42.59740447998047 16.022708892822266 43.583526611328125 14.195721626281738 C 40.33556365966797 23.46573257446289 36.81047439575195 38.11724090576172 37.38422775268555 48.295860290527344 C 25.973018646240234 39.56663131713867 31.053691864013672 15.455312728881836 22.719839096069336 9.870676040649414 C 14.68415355682373 10.152073860168457 14.167388916015625 11.120664596557617 20.34823989868164 9.581011772155762 C 13.765242576599121 11.590559005737305 11.592459678649902 16.020938873291016 10.702486991882324 17.631591796875" stroke-width="0.0" fill="rgb(0, 0, 0)" opacity="1.0" stroke="rgb(0, 0, 0)" stroke-opacity="1.0" stroke-linecap="round" stroke-linejoin="round"/>
  </g>
</svg>
