<?xml version="1.0" ?>
<svg xmlns="http://www.w3.org/2000/svg" version="1.1" width="100" height="100">
  <defs/>
  <g>
    <path d="M 10.262568473815918 23.914674758911133 C 9.762582778930664 25.40029525756836 10.63896656036377 37.844913482666016 10.097230911254883 28.941137313842773 C 11.161870956420898 34.57712936401367 13.711791038513184 38.749576568603516 15.616690635681152 41.019317626953125 C 20.152080535888672 47.31024932861328 25.19586181640625 51.584537506103516 29.75147819519043 54.927913665771484 C 33.48576354980469 58.23992919921875 40.13611602783203 63.091331481933594 47.7502555847168 67.4531478881836 C 45.954856872558594 67.43101501464844 49.35719299316406 66.16211700439453 48.31071472167969 67.26844787597656 C 53.59280776977539 42.10211181640625 54.54024124145508 59.307071685791016 45.136451721191406 39.49388122558594 C 57.67488098144531 48.048702239990234 58.16978454589844 57.33219528198242 56.21738052368164 50.74186706542969 C 56.20925521850586 56.936763763427734 52.13363265991211 63.020835876464844 52.86565017700195 68.06465148925781 C 58.44414138793945 64.4719467163086 63.4431037902832 60.94478225708008 67.42007446289062 57.98963165283203 C 72.33552551269531 54.642818450927734 76.88481140136719 50.55839920043945 82.62445068359375 43.81959533691406 C 86.388671875 39.75038146972656 90.38455200195312 34.143497467041016 90.32893371582031 27.084611892700195 C 90.1271743774414 20.897125244140625 90.22919464111328 24.137357711791992 87.7115478515625 19.170242309570312 C 83.87054443359375 15.841235160827637 78.75440979003906 11.076033592224121 68.89508819580078 11.602322578430176 C 67.74116516113281 10.900842666625977 62.67441940307617 13.694585800170898 58.14445114135742 15.943811416625977 C 53.53496551513672 23.09731101989746 40.88057327270508 31.118953704833984 57.946739196777344 40.572757720947266 C 42.091224670410156 33.3111572265625 44.486839294433594 27.994266510009766 43.80290603637695 33.203487396240234 C 45.535465240478516 27.788341522216797 47.47538757324219 24.799022674560547 48.56275177001953 22.40843391418457 C 45.18880844116211 16.324922561645508 37.84181594848633 12.465970993041992 35.00548553466797 11.117280960083008 C 30.739532470703125 8.529669761657715 23.437026977539062 9.61279010772705 21.784528732299805 11.212575912475586 C 16.294334411621094 13.226017951965332 11.310602188110352 18.029693603515625 10.262568473815918 23.914674758911133" stroke-width="0.0" fill="rgb(0, 0, 0)" opacity="1.0" stroke="rgb(0, 0, 0)" stroke-opacity="1.0" stroke-linecap="round" stroke-linejoin="round"/>
  </g>
</svg>
