<?xml version="1.0" ?>
<svg xmlns="http://www.w3.org/2000/svg" version="1.1" width="100" height="100">
  <defs/>
  <g>
    <path d="M 8.372586250305176 15.328752517700195 C 10.057756423950195 14.817475318908691 11.502859115600586 12.292482376098633 9.813809394836426 17.38054084777832 C 11.308923721313477 23.774206161499023 13.82751750946045 27.154483795166016 14.977907180786133 30.52396011352539 C 16.379196166992188 34.95134735107422 18.80281639099121 38.05178451538086 20.113222122192383 41.09642791748047 C 22.16593360900879 44.69804000854492 25.03767967224121 50.61699295043945 28.466880798339844 55.74504089355469 C 29.5882568359375 58.090572357177734 33.728206634521484 64.30292510986328 35.968265533447266 67.66603088378906 C 38.49409103393555 71.30873107910156 42.339054107666016 76.91390991210938 44.54579544067383 79.52574157714844 C 46.863433837890625 82.08659362792969 50.06789779663086 87.2337875366211 54.239810943603516 90.77295684814453 C 57.03313446044922 89.33026885986328 59.16398620605469 83.83726501464844 61.298683166503906 80.50460052490234 C 64.75502014160156 74.90692901611328 68.10234069824219 68.84969329833984 70.93008422851562 63.10600280761719 C 73.57682037353516 57.04090881347656 76.58690643310547 50.99971389770508 79.86714935302734 44.686466217041016 C 80.47679138183594 41.97163772583008 82.22049713134766 38.63615036010742 83.38578796386719 35.51005554199219 C 84.68878936767578 33.125587463378906 86.03221893310547 28.512943267822266 87.94461059570312 24.530012130737305 C 87.72816467285156 23.38777732849121 90.90467071533203 19.059276580810547 89.72233581542969 15.623784065246582 C 90.15643310546875 14.804618835449219 70.29791259765625 13.992431640625 68.37008666992188 13.583917617797852 C 75.55831146240234 14.217873573303223 52.13436508178711 12.51889419555664 47.06717300415039 11.518173217773438 C 53.28828430175781 12.266645431518555 42.418357849121094 11.678498268127441 38.73096466064453 10.73320484161377 C 47.69340515136719 12.024982452392578 43.257259368896484 13.01978874206543 43.14304733276367 11.03644847869873 C 39.07954406738281 12.774359703063965 40.33955383300781 9.0389404296875 33.278377532958984 9.891387939453125 C 27.483922958374023 11.058343887329102 19.82436180114746 11.351164817810059 13.754720687866211 12.577569007873535 C 12.693556785583496 12.77702808380127 11.358882904052734 14.363275527954102 8.372586250305176 15.328752517700195" stroke-width="0.0" fill="rgb(0, 0, 0)" opacity="1.0" stroke="rgb(0, 0, 0)" stroke-opacity="1.0" stroke-linecap="round" stroke-linejoin="round"/>
  </g>
</svg>
