<?xml version="1.0" ?>
<svg xmlns="http://www.w3.org/2000/svg" version="1.1" width="100" height="100">
  <defs/>
  <g>
    <path d="M 11.768661499023438 25.252260208129883 C 10.59292221069336 20.99696922302246 9.944568634033203 30.436017990112305 10.510269165039062 30.579347610473633 C 12.952555656433105 37.06318664550781 17.27716827392578 37.8936653137207 20.07753562927246 40.238433837890625 C 23.797758102416992 42.29501724243164 26.653566360473633 43.0494499206543 31.412126541137695 44.12010192871094 C 33.98716735839844 45.24262619018555 40.261348724365234 45.658905029296875 44.91246032714844 46.437782287597656 C 43.36598205566406 46.21992874145508 60.40168762207031 46.499755859375 53.89400863647461 46.280941009521484 C 57.147743225097656 46.68968200683594 61.76334762573242 45.175960540771484 66.12432098388672 45.12722396850586 C 68.7640609741211 44.059600830078125 72.92742156982422 42.8785514831543 73.7087173461914 42.53538131713867 C 77.61363983154297 40.93375778198242 80.32801055908203 40.121253967285156 83.36773681640625 37.34144592285156 C 85.98758697509766 36.002342224121094 88.12800598144531 33.606346130371094 88.31246948242188 31.003984451293945 C 89.0975112915039 32.505062103271484 90.04885864257812 26.34046173095703 88.41551208496094 23.868202209472656 C 86.61056518554688 20.498577117919922 83.17809295654297 18.172361373901367 83.89239501953125 18.67304801940918 C 77.094970703125 14.129137992858887 73.33750915527344 12.997309684753418 75.84435272216797 14.441115379333496 C 74.06532287597656 12.518576622009277 62.33068084716797 10.549077033996582 63.446739196777344 10.714217185974121 C 56.03882598876953 9.644596099853516 49.15562438964844 9.129006385803223 55.23337173461914 9.758927345275879 C 42.48762893676758 9.315722465515137 41.07861328125 10.328693389892578 45.66094970703125 9.689864158630371 C 43.08551788330078 9.277702331542969 37.43431854248047 10.644983291625977 39.52289581298828 10.493738174438477 C 32.421077728271484 10.723648071289062 28.12339210510254 12.260066986083984 25.90809440612793 13.508294105529785 C 19.95318603515625 14.774035453796387 18.599546432495117 17.298032760620117 18.064733505249023 16.511085510253906 C 16.712060928344727 18.191133499145508 14.0403470993042 19.599149703979492 12.496420860290527 21.54795265197754 C 12.177952766418457 23.436786651611328 10.999394416809082 22.321399688720703 11.768661499023438 25.252260208129883" stroke-width="0.0" fill="rgb(0, 0, 0)" opacity="1.0" stroke="rgb(0, 0, 0)" stroke-opacity="1.0" stroke-linecap="round" stroke-linejoin="round"/>
  </g>
</svg>
