<?xml version="1.0" ?>
<svg xmlns="http://www.w3.org/2000/svg" version="1.1" width="100" height="100">
  <defs/>
  <g>
    <path d="M 59.500587463378906 8.635868072509766 C 50.3294792175293 13.25024127960205 44.56135940551758 16.033811569213867 34.36556625366211 15.578980445861816 C 28.525222778320312 23.74884605407715 37.442054748535156 24.90097427368164 42.67558670043945 22.851970672607422 C 41.72224044799805 40.18272399902344 36.455772399902344 52.78365707397461 30.327184677124023 66.33873748779297 C 32.440956115722656 64.85014343261719 21.57737159729004 62.894813537597656 21.2557373046875 63.47486114501953 C 18.152673721313477 63.39777755737305 10.776432991027832 67.78984832763672 10.828208923339844 72.0162353515625 C 9.795477867126465 72.47328186035156 9.487899780273438 80.85806274414062 9.961841583251953 80.86312866210938 C 11.141302108764648 83.61677551269531 13.86197280883789 88.35104370117188 20.531280517578125 89.72254180908203 C 25.488744735717773 90.56353759765625 34.26103591918945 88.8266830444336 36.052772521972656 77.55950164794922 C 35.78540802001953 72.9528579711914 35.25689697265625 75.31717681884766 40.021263122558594 64.51565551757812 C 43.54741668701172 56.6717414855957 46.843875885009766 48.68882369995117 48.52692413330078 39.29408645629883 C 50.30375289916992 46.45806121826172 51.528202056884766 56.5616340637207 50.33527755737305 65.67805480957031 C 50.457637786865234 64.0522689819336 46.92007827758789 66.99718475341797 44.402854919433594 71.59994506835938 C 41.81196594238281 78.48108673095703 45.381107330322266 84.53439331054688 44.940086364746094 82.80099487304688 C 45.20431900024414 84.63260650634766 48.891971588134766 88.59446716308594 54.3192138671875 89.76443481445312 C 63.444114685058594 90.00023651123047 63.76913833618164 87.82772827148438 66.73957061767578 85.38585662841797 C 69.08645629882812 82.54498291015625 71.27765655517578 77.45430755615234 69.0404052734375 71.67279815673828 C 66.71530151367188 66.66857147216797 60.96342849731445 63.01055908203125 58.58734130859375 63.586875915527344 C 59.89681625366211 44.64490509033203 55.365028381347656 32.84244155883789 52.02182388305664 20.906208038330078 C 56.15064239501953 19.615236282348633 63.368003845214844 15.804241180419922 61.792762756347656 14.918756484985352 C 63.593605041503906 5.517606258392334 52.4764289855957 12.269859313964844 59.500587463378906 8.635868072509766" stroke-width="0.0" fill="rgb(0, 0, 0)" opacity="1.0" stroke="rgb(0, 0, 0)" stroke-opacity="1.0" stroke-linecap="round" stroke-linejoin="round"/>
  </g>
</svg>
