<?xml version="1.0" ?>
<svg xmlns="http://www.w3.org/2000/svg" version="1.1" width="100" height="100">
  <defs/>
  <g>
    <path d="M 86.31623077392578 11.2665433883667 C 89.89971923828125 15.418190002441406 89.85053253173828 13.25571346282959 85.64684295654297 9.406767845153809 C 74.90076446533203 10.288054466247559 50.12221908569336 7.760969638824463 74.88624572753906 9.792181015014648 C 69.18602752685547 9.66342544555664 46.6264762878418 10.667122840881348 43.17550277709961 9.835121154785156 C 60.18025588989258 10.8367280960083 45.68999481201172 9.420341491699219 31.49321746826172 10.341269493103027 C 29.007373809814453 10.277918815612793 17.851545333862305 10.505386352539062 16.628753662109375 11.046072959899902 C 15.169243812561035 11.756698608398438 11.554492950439453 13.273273468017578 11.81477165222168 14.757322311401367 C 10.552221298217773 19.970521926879883 13.391268730163574 21.0638370513916 14.776671409606934 23.49692153930664 C 16.40915870666504 25.992650985717773 13.34420108795166 31.702016830444336 14.71879768371582 25.70001983642578 C 14.47807502746582 29.40929412841797 10.106969833374023 31.025251388549805 10.016613006591797 32.828365325927734 C 9.039165496826172 31.813159942626953 8.950849533081055 40.061798095703125 11.314332008361816 43.536659240722656 C 9.98379135131836 40.133480072021484 11.984786987304688 45.53988265991211 16.137065887451172 45.07355880737305 C 10.290437698364258 45.31002426147461 27.540250778198242 45.16791534423828 50.354347229003906 45.111412048339844 C 40.44293975830078 45.321800231933594 45.30546951293945 45.70867156982422 48.91497039794922 44.988258361816406 C 47.477630615234375 45.265499114990234 64.55604553222656 44.991336822509766 84.70729064941406 45.15273666381836 C 86.40034484863281 44.15574645996094 89.13822174072266 42.516658782958984 90.50170135498047 38.31073760986328 C 88.58894348144531 40.288238525390625 92.71823120117188 35.994903564453125 87.45977783203125 30.517745971679688 C 87.18077087402344 32.78286361694336 88.4431381225586 30.767728805541992 87.76113891601562 30.374937057495117 C 83.8166732788086 23.449176788330078 85.43614196777344 19.671781539916992 84.97161865234375 23.30797576904297 C 85.63219451904297 21.596416473388672 87.4266128540039 18.800695419311523 88.30194091796875 17.732776641845703 C 89.49114227294922 13.634218215942383 89.24943542480469 14.280720710754395 86.31623077392578 11.2665433883667" stroke-width="0.0" fill="rgb(0, 0, 0)" opacity="1.0" stroke="rgb(0, 0, 0)" stroke-opacity="1.0" stroke-linecap="round" stroke-linejoin="round"/>
  </g>
</svg>
