<?xml version="1.0" ?>
<svg xmlns="http://www.w3.org/2000/svg" version="1.1" width="100" height="100">
  <defs/>
  <g>
    <path d="M 83.75780487060547 11.481761932373047 C 82.16197967529297 8.358956336975098 71.86224365234375 9.671470642089844 38.854007720947266 9.68374252319336 C 43.42729568481445 9.249680519104004 32.31534194946289 9.385848045349121 35.29343795776367 12.615821838378906 C 32.8718376159668 8.456514358520508 34.81190490722656 30.69652557373047 33.79168701171875 49.51274490356445 C 34.03445816040039 38.654422760009766 33.734676361083984 62.29738235473633 34.048526763916016 58.38591003417969 C 30.067655563354492 56.37134552001953 23.164997100830078 57.90838623046875 24.030057907104492 57.76271438598633 C 21.07794761657715 58.55449295043945 15.874927520751953 61.01346969604492 13.428627014160156 66.27162170410156 C 12.622345924377441 68.65546417236328 11.104857444763184 69.24624633789062 12.410835266113281 74.13929748535156 C 12.589648246765137 77.52616882324219 15.513983726501465 81.37987518310547 17.05145263671875 82.90306091308594 C 23.315492630004883 85.07140350341797 21.903955459594727 86.65784454345703 31.49533462524414 86.4397201538086 C 36.282020568847656 84.64266967773438 41.12813186645508 82.58993530273438 43.04603958129883 76.28268432617188 C 44.86787796020508 72.89854431152344 43.672061920166016 59.562564849853516 44.39352798461914 81.95767974853516 C 43.44504165649414 64.58003997802734 44.31850051879883 32.60000991821289 43.593711853027344 38.043819427490234 C 45.69737243652344 38.55410385131836 55.02732467651367 36.818809509277344 63.10951614379883 36.701934814453125 C 62.43730163574219 36.43830871582031 74.01329803466797 35.72600555419922 76.46565246582031 34.99538040161133 C 75.61693572998047 33.91968536376953 76.80282592773438 35.03363800048828 76.5798568725586 43.63847351074219 C 69.05167388916016 42.32987976074219 61.24516677856445 46.113792419433594 59.6553955078125 50.853485107421875 C 56.52214431762695 54.75248718261719 57.82304382324219 61.863983154296875 58.689884185791016 63.37542724609375 C 61.03944778442383 67.96839904785156 66.46964263916016 72.53707122802734 74.19941711425781 72.19481658935547 C 78.64134979248047 72.2154541015625 89.99994659423828 68.77522277832031 89.22920989990234 55.96605682373047 C 85.44415283203125 48.059669494628906 86.63827514648438 27.043087005615234 83.75780487060547 11.481761932373047" stroke-width="0.0" fill="rgb(0, 0, 0)" opacity="1.0" stroke="rgb(0, 0, 0)" stroke-opacity="1.0" stroke-linecap="round" stroke-linejoin="round"/>
  </g>
</svg>
