<?xml version="1.0" ?>
<svg xmlns="http://www.w3.org/2000/svg" version="1.1" width="100" height="100">
  <defs/>
  <g>
    <path d="M 74.59609985351562 10.763483047485352 C 71.2339096069336 7.429973125457764 58.70280456542969 11.806591033935547 65.0102310180664 9.566325187683105 C 67.49579620361328 10.255853652954102 60.56851577758789 10.543423652648926 57.23638153076172 16.348979949951172 C 52.13223648071289 8.851773262023926 43.833797454833984 8.57266616821289 42.953304290771484 10.256746292114258 C 41.8568229675293 9.63330078125 37.378761291503906 10.77195930480957 33.53366470336914 16.122222900390625 C 29.576431274414062 21.91281509399414 30.053390502929688 29.01007843017578 33.4791145324707 34.886497497558594 C 36.94083786010742 41.933250427246094 45.01005935668945 46.87295913696289 56.83857345581055 50.71678161621094 C 47.52260208129883 56.00337600708008 42.457359313964844 53.271297454833984 38.574424743652344 57.7220344543457 C 37.25509262084961 52.091976165771484 33.0141716003418 49.02788162231445 30.408687591552734 48.26422882080078 C 22.8293399810791 44.55514907836914 17.583391189575195 49.71181869506836 15.931812286376953 49.54578399658203 C 19.339693069458008 49.15603256225586 14.073348045349121 50.73478698730469 13.054671287536621 53.21556854248047 C 8.854687690734863 58.22914123535156 8.684709548950195 65.65204620361328 11.854084014892578 73.41024017333984 C 14.60600471496582 79.95652770996094 22.302593231201172 85.870849609375 28.66182518005371 90.580810546875 C 32.07435607910156 90.2170181274414 41.223079681396484 90.24162292480469 47.00539779663086 87.5303955078125 C 51.54076385498047 85.90365600585938 55.0930061340332 83.02571868896484 57.794837951660156 80.0220718383789 C 60.9008903503418 75.56192779541016 62.60688400268555 71.3906478881836 61.538936614990234 65.66374206542969 C 60.03721237182617 59.98628616333008 55.740325927734375 54.460594177246094 48.69443893432617 54.263099670410156 C 61.06364059448242 49.3121452331543 69.36924743652344 46.252174377441406 74.34846496582031 42.52450942993164 C 78.36441802978516 39.147560119628906 82.16618347167969 34.364837646484375 83.30281829833984 28.769607543945312 C 84.56417846679688 23.85721778869629 81.65507507324219 15.989867210388184 82.95606231689453 20.977930068969727 C 81.79447937011719 17.833459854125977 79.94647216796875 12.635873794555664 74.59609985351562 10.763483047485352" stroke-width="0.0" fill="rgb(0, 0, 0)" opacity="1.0" stroke="rgb(0, 0, 0)" stroke-opacity="1.0" stroke-linecap="round" stroke-linejoin="round"/>
  </g>
</svg>
