<?xml version="1.0" ?>
<svg xmlns="http://www.w3.org/2000/svg" version="1.1" width="100" height="100">
  <defs/>
  <g>
    <path d="M 12.195483207702637 9.420875549316406 C 5.988221645355225 11.16751766204834 13.525282859802246 15.328728675842285 16.922935485839844 18.196664810180664 C 17.83553695678711 21.631521224975586 17.673721313476562 34.86404800415039 20.71608543395996 34.526912689208984 C 25.163387298583984 31.924665451049805 29.14581298828125 27.200166702270508 31.723400115966797 23.640968322753906 C 32.962825775146484 26.470972061157227 32.4249382019043 28.210559844970703 33.93959045410156 29.73265838623047 C 34.96826171875 31.836448669433594 35.81228256225586 37.21929931640625 39.05280303955078 40.00123596191406 C 42.76148986816406 38.54672622680664 45.560733795166016 31.22222900390625 47.897186279296875 26.211429595947266 C 51.4984016418457 32.057029724121094 53.79145050048828 38.20560836791992 57.3564453125 41.92793655395508 C 61.33226776123047 39.94527053833008 61.15656661987305 35.42127227783203 62.8780403137207 33.263450622558594 C 62.49602127075195 32.29813003540039 63.450050354003906 29.850317001342773 65.46696472167969 24.69391632080078 C 68.55602264404297 28.189603805541992 72.9000473022461 34.23291015625 77.65568542480469 36.55698776245117 C 80.50634002685547 34.03329849243164 80.25760650634766 23.973928451538086 81.18878173828125 19.370323181152344 C 83.61541748046875 17.959848403930664 87.24415588378906 15.816226959228516 89.81682586669922 13.406360626220703 C 90.83702850341797 12.168266296386719 90.36589813232422 10.858222007751465 87.59375762939453 10.544218063354492 C 84.25914764404297 12.35525131225586 81.47642517089844 14.754658699035645 78.4948501586914 16.31669807434082 C 75.63285064697266 18.02944564819336 70.97685241699219 19.45806312561035 67.76898956298828 21.06696128845215 C 62.0020637512207 21.555925369262695 59.466651916503906 23.52000617980957 62.705360412597656 21.926485061645508 C 64.7146224975586 21.154216766357422 60.98093795776367 22.50493812561035 52.23461151123047 22.711702346801758 C 41.42326736450195 22.680843353271484 40.612552642822266 21.492435455322266 40.320587158203125 21.597991943359375 C 38.51190948486328 21.572988510131836 31.459396362304688 20.294010162353516 28.177284240722656 18.657636642456055 C 20.97896385192871 15.958900451660156 15.971097946166992 12.264985084533691 12.195483207702637 9.420875549316406" stroke-width="0.0" fill="rgb(0, 0, 0)" opacity="1.0" stroke="rgb(0, 0, 0)" stroke-opacity="1.0" stroke-linecap="round" stroke-linejoin="round"/>
  </g>
</svg>
