<?xml version="1.0" ?>
<svg xmlns="http://www.w3.org/2000/svg" version="1.1" width="100" height="100">
  <defs/>
  <g>
    <path d="M 40.99241638183594 9.954665184020996 C 33.633846282958984 8.864069938659668 23.573013305664062 11.030795097351074 30.491958618164062 10.351922035217285 C 25.707197189331055 10.874717712402344 22.56821632385254 12.756291389465332 20.138317108154297 15.1239652633667 C 16.70865249633789 17.112300872802734 14.041543960571289 20.981298446655273 13.990448951721191 21.386571884155273 C 12.604975700378418 23.668439865112305 9.221217155456543 26.048330307006836 9.397269248962402 37.07594680786133 C 9.184579849243164 35.7523078918457 10.432897567749023 39.14189910888672 9.790840148925781 39.162322998046875 C 10.975822448730469 42.543846130371094 12.835872650146484 45.23122024536133 16.94672966003418 47.74769592285156 C 16.00943374633789 54.07146072387695 21.15313148498535 53.86580276489258 20.0472412109375 54.456146240234375 C 21.709033966064453 57.99452209472656 22.467784881591797 61.752532958984375 23.25107765197754 64.21949768066406 C 24.412097930908203 67.28834533691406 25.665462493896484 71.03601837158203 26.30771255493164 74.06124114990234 C 27.623472213745117 76.60138702392578 28.173404693603516 80.26305389404297 29.09538459777832 82.41796112060547 C 29.839412689208984 85.40092468261719 31.487167358398438 89.44731903076172 31.400293350219727 89.43248748779297 C 34.90292739868164 92.44711303710938 37.19017028808594 88.13790893554688 37.322513580322266 87.62226104736328 C 39.373268127441406 82.8353500366211 40.92070388793945 77.53092193603516 42.95969772338867 72.54207611083984 C 44.26443862915039 67.51815795898438 46.384498596191406 63.368953704833984 48.368858337402344 57.816444396972656 C 49.346439361572266 59.32491683959961 53.13486099243164 56.17853927612305 52.49889373779297 55.58140182495117 C 53.889732360839844 54.264732360839844 54.07420349121094 49.82280731201172 51.85035705566406 46.979312896728516 C 53.457088470458984 45.519371032714844 55.70068359375 43.52249526977539 57.35992431640625 42.02272033691406 C 58.872982025146484 38.525203704833984 60.26410675048828 39.89589309692383 60.56056594848633 31.055355072021484 C 60.740501403808594 26.784343719482422 58.126155853271484 20.666643142700195 54.85507583618164 17.75672149658203 C 51.29540252685547 13.651886940002441 45.35258483886719 11.02793025970459 40.99241638183594 9.954665184020996" stroke-width="0.0" fill="rgb(0, 0, 0)" opacity="1.0" stroke="rgb(0, 0, 0)" stroke-opacity="1.0" stroke-linecap="round" stroke-linejoin="round"/>
  </g>
</svg>
