<?xml version="1.0" ?>
<svg xmlns="http://www.w3.org/2000/svg" version="1.1" width="100" height="100">
  <defs/>
  <g>
    <path d="M 26.82478141784668 12.157322883605957 C 24.995994567871094 13.282198905944824 21.166406631469727 17.3616886138916 20.66197395324707 21.267560958862305 C 18.844802856445312 25.526123046875 20.457839965820312 33.90572738647461 21.724565505981445 36.45252227783203 C 16.544313430786133 41.73106384277344 12.568862915039062 48.8400993347168 10.829951286315918 54.110984802246094 C 9.049264907836914 62.085533142089844 10.361021995544434 67.52819061279297 13.094388008117676 70.73902130126953 C 15.959429740905762 75.53447723388672 20.863162994384766 79.08226013183594 27.41177749633789 81.44510650634766 C 31.608959197998047 83.05696868896484 36.058502197265625 84.70487976074219 42.22653579711914 85.33724975585938 C 48.184051513671875 86.2364730834961 57.45443344116211 84.97563171386719 61.58732604980469 83.89430236816406 C 64.22862243652344 83.52413940429688 68.379150390625 81.36854553222656 71.1763687133789 80.62821197509766 C 75.13145446777344 78.62985229492188 78.3598861694336 76.14047241210938 80.87227630615234 73.60318756103516 C 84.2411117553711 70.71822357177734 86.99758911132812 67.61121368408203 88.74117279052734 61.839439392089844 C 89.92627716064453 57.25498962402344 89.89578247070312 55.35773849487305 89.29847717285156 51.44646072387695 C 88.12538146972656 47.27687454223633 85.68535614013672 39.46898651123047 81.61461639404297 41.15998077392578 C 82.9177474975586 37.84028625488281 80.27091979980469 35.896244049072266 77.4566879272461 33.77510070800781 C 80.37918853759766 26.668363571166992 80.25556945800781 19.01464080810547 77.97062683105469 14.913068771362305 C 76.79194641113281 10.80666732788086 69.86018371582031 10.036174774169922 69.72244262695312 9.605083465576172 C 63.35606384277344 9.229836463928223 59.537166595458984 12.109527587890625 56.5030517578125 15.734515190124512 C 53.6521110534668 19.941688537597656 52.61747360229492 22.970108032226562 52.082672119140625 28.927640914916992 C 52.54798889160156 27.1409969329834 49.3326301574707 27.478952407836914 47.1055908203125 27.060483932495117 C 44.61280059814453 19.719717025756836 42.171241760253906 14.715459823608398 38.38505935668945 11.013469696044922 C 34.84012222290039 8.985109329223633 30.28507423400879 9.17581844329834 26.82478141784668 12.157322883605957" stroke-width="0.0" fill="rgb(0, 0, 0)" opacity="1.0" stroke="rgb(0, 0, 0)" stroke-opacity="1.0" stroke-linecap="round" stroke-linejoin="round"/>
  </g>
</svg>
