<?xml version="1.0" ?>
<svg xmlns="http://www.w3.org/2000/svg" version="1.1" width="100" height="100">
  <defs/>
  <g>
    <path d="M 55.52897262573242 9.227088928222656 C 51.948219299316406 10.445379257202148 49.08933639526367 14.317142486572266 48.078060150146484 16.388736724853516 C 38.66801452636719 13.98564338684082 32.550323486328125 15.730032920837402 29.851337432861328 17.568042755126953 C 29.733795166015625 13.305170059204102 26.144115447998047 11.333954811096191 24.554702758789062 10.092355728149414 C 23.67979621887207 10.04157829284668 20.881362915039062 11.05336856842041 19.537250518798828 15.298833847045898 C 18.406278610229492 18.598968505859375 16.25361442565918 25.50029182434082 15.0458402633667 30.59123420715332 C 14.404052734375 34.36183547973633 13.121626853942871 40.51606750488281 13.068906784057617 41.43922424316406 C 10.95482063293457 52.693763732910156 8.908527374267578 68.30036926269531 9.682120323181152 75.46328735351562 C 13.51402759552002 87.20773315429688 25.104310989379883 79.80460357666016 22.28396224975586 87.53657531738281 C 28.469804763793945 95.28511810302734 28.65064239501953 84.8013916015625 30.96944236755371 85.47034454345703 C 24.985443115234375 84.85774993896484 36.196434020996094 84.0863037109375 42.12553787231445 85.46060180664062 C 44.75910949707031 82.95316314697266 42.727901458740234 93.82745361328125 50.1311149597168 88.70310974121094 C 52.27104187011719 79.0693359375 53.3849983215332 88.0777816772461 62.210296630859375 80.61553955078125 C 70.49433135986328 76.5223388671875 76.26922607421875 72.16297912597656 78.38915252685547 66.43405151367188 C 80.16880798339844 64.0222396850586 81.44467163085938 57.84498977661133 78.99211883544922 52.82518768310547 C 77.24330139160156 49.403560638427734 74.62024688720703 46.045265197753906 70.26750946044922 46.836124420166016 C 62.83346176147461 50.45071792602539 68.4940414428711 57.39377212524414 70.05622100830078 63.438499450683594 C 70.15740966796875 69.56719207763672 62.65205764770508 68.3270034790039 64.74551391601562 68.57586669921875 C 64.66443634033203 73.00800323486328 65.15560150146484 53.08002471923828 64.41629791259766 48.994712829589844 C 64.02061462402344 40.64027404785156 63.3134765625 31.935728073120117 62.31492233276367 27.3043212890625 C 60.630516052246094 19.976720809936523 59.1634635925293 11.321121215820312 55.52897262573242 9.227088928222656" stroke-width="0.0" fill="rgb(0, 0, 0)" opacity="1.0" stroke="rgb(0, 0, 0)" stroke-opacity="1.0" stroke-linecap="round" stroke-linejoin="round"/>
  </g>
</svg>
