<?xml version="1.0" ?>
<svg xmlns="http://www.w3.org/2000/svg" version="1.1" width="100" height="100">
  <defs/>
  <g>
    <path d="M 9.252964973449707 11.739908218383789 C 10.869643211364746 16.953859329223633 17.271440505981445 18.78431510925293 12.868971824645996 22.13239097595215 C 16.035198211669922 19.417171478271484 16.02635955810547 18.1385555267334 9.747652053833008 27.788047790527344 C 12.65760326385498 32.869651794433594 14.719093322753906 27.253055572509766 17.41806411743164 23.962751388549805 C 21.090709686279297 27.503339767456055 22.39510726928711 32.30137252807617 25.620193481445312 30.104446411132812 C 28.302234649658203 27.80801010131836 20.11595916748047 22.398691177368164 20.69866371154785 19.396066665649414 C 23.684734344482422 16.929899215698242 25.56853675842285 9.100350379943848 30.485549926757812 12.282212257385254 C 27.927051544189453 11.565759658813477 26.617216110229492 18.084686279296875 29.9283447265625 21.59189224243164 C 30.518064498901367 22.755098342895508 33.75371551513672 28.674121856689453 38.18768310546875 29.626033782958984 C 40.30341339111328 30.86568260192871 44.1859016418457 27.144636154174805 46.75958251953125 25.511341094970703 C 51.49789810180664 20.13808250427246 48.97550582885742 15.711882591247559 46.56052780151367 10.558206558227539 C 60.86891174316406 21.48221778869629 53.474910736083984 20.54988670349121 50.945404052734375 27.653749465942383 C 51.87149429321289 33.48836135864258 55.98313903808594 27.847579956054688 57.96947479248047 23.59503746032715 C 61.07038116455078 25.647802352905273 63.91145706176758 33.89990997314453 66.8335952758789 29.638721466064453 C 68.82839965820312 30.245220184326172 63.61421203613281 23.93235969543457 60.84050369262695 20.039194107055664 C 63.790714263916016 17.073877334594727 66.40015411376953 10.147212028503418 69.6119613647461 13.166460990905762 C 68.6578369140625 13.562047958374023 68.01197814941406 18.01594352722168 69.66968536376953 21.227109909057617 C 72.48731231689453 24.2936954498291 75.61860656738281 29.224056243896484 78.527587890625 30.111167907714844 C 84.00212860107422 29.981666564941406 88.7029800415039 25.06983757019043 90.49099731445312 19.695369720458984 C 91.21891784667969 18.475818634033203 90.06904602050781 11.297773361206055 82.71719360351562 12.362822532653809 C 41.905784606933594 13.172922134399414 30.474782943725586 10.78325366973877 9.252964973449707 11.739908218383789" stroke-width="0.0" fill="rgb(0, 0, 0)" opacity="1.0" stroke="rgb(0, 0, 0)" stroke-opacity="1.0" stroke-linecap="round" stroke-linejoin="round"/>
  </g>
</svg>
