<?xml version="1.0" ?>
<svg xmlns="http://www.w3.org/2000/svg" version="1.1" width="100" height="100">
  <defs/>
  <g>
    <path d="M 61.841861724853516 11.263583183288574 C 57.13620376586914 3.895632028579712 50.18489074707031 24.984899520874023 56.21102523803711 24.835853576660156 C 26.170673370361328 31.822280883789062 46.95594787597656 27.996366500854492 27.022172927856445 15.241016387939453 C 20.53234100341797 13.96047306060791 29.250444412231445 27.187856674194336 40.573097229003906 28.679784774780273 C 19.56439781188965 40.233245849609375 36.71718215942383 49.8263053894043 13.993966102600098 40.836509704589844 C -0.7746690511703491 40.3533935546875 24.567943572998047 55.4500617980957 28.11313247680664 39.946346282958984 C 19.45090103149414 66.5981216430664 37.84721374511719 66.6882553100586 29.32175064086914 66.0685806274414 C 24.006093978881836 69.02633666992188 16.79483413696289 80.51821899414062 20.326005935668945 80.94119262695312 C 22.981348037719727 84.34954071044922 28.93025779724121 69.493408203125 33.60665512084961 67.95748138427734 C 42.00553512573242 73.17239379882812 27.264265060424805 81.22881317138672 36.13503646850586 82.9920883178711 C 46.670204162597656 71.59805297851562 18.455568313598633 64.19998168945312 47.450584411621094 74.3092269897461 C 44.24492263793945 74.49970245361328 45.7908935546875 97.72157287597656 51.80788040161133 87.81442260742188 C 49.85930252075195 89.71813201904297 49.74863815307617 67.17713928222656 48.43938064575195 74.94819641113281 C 73.63002014160156 69.26634216308594 58.41877365112305 64.02090454101562 78.85626983642578 77.68648529052734 C 86.69833374023438 76.455322265625 72.4543685913086 64.6144790649414 65.7812271118164 66.99713134765625 C 75.43936920166016 59.96257400512695 73.84496307373047 42.72461700439453 72.78496551513672 48.30347442626953 C 69.71971893310547 48.4184684753418 94.05560302734375 41.13954544067383 89.74402618408203 41.51137161254883 C 93.53779602050781 34.59135818481445 77.03974914550781 41.21306228637695 73.77554321289062 44.09013366699219 C 61.50282287597656 26.557483673095703 78.73619842529297 37.80973434448242 77.2406997680664 23.566970825195312 C 56.293426513671875 35.65806198120117 84.62277221679688 36.98326110839844 50.885459899902344 25.766685485839844 C 59.260948181152344 27.197607040405273 59.372371673583984 13.696833610534668 61.841861724853516 11.263583183288574" stroke-width="0.0" fill="rgb(0, 0, 0)" opacity="1.0" stroke="rgb(0, 0, 0)" stroke-opacity="1.0" stroke-linecap="round" stroke-linejoin="round"/>
  </g>
</svg>
