<?xml version="1.0" ?>
<svg xmlns="http://www.w3.org/2000/svg" version="1.1" width="100" height="100">
  <defs/>
  <g>
    <path d="M 21.914615631103516 12.982470512390137 C 20.135465621948242 24.035118103027344 17.414398193359375 11.870630264282227 9.405903816223145 23.139490127563477 C 9.27626895904541 31.304534912109375 12.733146667480469 39.85408020019531 15.986288070678711 43.54084014892578 C 20.28249168395996 49.006431579589844 25.758583068847656 52.57915115356445 34.18906784057617 51.49443054199219 C 34.60575866699219 55.30206298828125 37.06214904785156 63.74281311035156 37.979496002197266 68.16827392578125 C 33.34465408325195 63.65456771850586 28.420907974243164 60.49455642700195 20.564350128173828 62.891143798828125 C 19.26465606689453 62.2166862487793 12.39638614654541 68.15040588378906 12.700997352600098 69.05235290527344 C 13.946605682373047 76.78726196289062 18.907047271728516 79.9369888305664 24.964834213256836 81.24812316894531 C 33.6239013671875 82.38261413574219 36.15597915649414 79.54934692382812 40.74668502807617 77.87274169921875 C 40.244136810302734 79.73356628417969 42.43443298339844 88.12462615966797 43.798828125 90.55117797851562 C 48.63997268676758 89.34758758544922 51.51015090942383 89.09589385986328 51.1162109375 87.28148651123047 C 49.51995086669922 81.48726654052734 48.035682678222656 75.25724029541016 46.182010650634766 69.38213348388672 C 56.080257415771484 69.54059600830078 57.108665466308594 66.14434814453125 58.53236389160156 66.28939056396484 C 61.61982727050781 63.3435173034668 65.44283294677734 58.488895416259766 65.24058532714844 50.77863693237305 C 64.29914093017578 48.452518463134766 55.31437683105469 48.1287727355957 54.036808013916016 48.8941764831543 C 49.00379180908203 49.69927978515625 45.27627182006836 53.32682800292969 43.53049087524414 58.50312423706055 C 41.917625427246094 55.13407897949219 42.1594123840332 53.53923034667969 40.77153396606445 49.21183395385742 C 46.04306411743164 46.079776763916016 49.45815658569336 41.63528060913086 51.375152587890625 34.03211212158203 C 51.716888427734375 24.47160530090332 50.1936149597168 20.292734146118164 48.29413604736328 14.949424743652344 C 46.48146438598633 12.259267807006836 44.88302230834961 7.958535194396973 37.48908233642578 10.150288581848145 C 32.43281936645508 18.644790649414062 34.922142028808594 3.3333232402801514 21.914615631103516 12.982470512390137" stroke-width="0.0" fill="rgb(0, 0, 0)" opacity="1.0" stroke="rgb(0, 0, 0)" stroke-opacity="1.0" stroke-linecap="round" stroke-linejoin="round"/>
  </g>
</svg>
