<?xml version="1.0" ?>
<svg xmlns="http://www.w3.org/2000/svg" version="1.1" width="100" height="100">
  <defs/>
  <g>
    <path d="M 46.55616760253906 19.845998764038086 C 53.00849151611328 4.50508975982666 47.28537368774414 4.584632396697998 52.88628387451172 18.27406883239746 C 58.40102767944336 37.5399284362793 58.54715347290039 33.81355285644531 48.09354019165039 20.989206314086914 C 43.88532257080078 28.629846572875977 40.188968658447266 36.104217529296875 40.330955505371094 33.897891998291016 C 27.791807174682617 27.505529403686523 28.394603729248047 31.65062141418457 41.65614700317383 26.299068450927734 C 51.161434173583984 17.33078956604004 48.9509391784668 17.746931076049805 40.06262969970703 35.79953384399414 C 16.823144912719727 68.09760284423828 17.06599235534668 72.04483795166016 29.76963233947754 66.56368255615234 C 48.8692741394043 37.44066619873047 49.49095916748047 39.27711486816406 41.617576599121094 33.18241500854492 C 23.55022621154785 60.34351348876953 23.820119857788086 55.58030319213867 28.73748207092285 67.94329071044922 C 27.073192596435547 70.11326599121094 18.519018173217773 82.50951385498047 19.953754425048828 77.43193054199219 C 4.804468631744385 71.52064514160156 6.328030109405518 74.90972137451172 29.657474517822266 66.22940063476562 C 28.4235782623291 67.95487976074219 26.18212890625 71.16361999511719 28.961185455322266 79.09502410888672 C 21.26401138305664 95.81759643554688 27.208364486694336 95.63873291015625 21.29143714904785 79.28385925292969 C 21.96312713623047 75.84837341308594 27.77337646484375 63.86935806274414 40.21310806274414 74.38556671142578 C 33.87139892578125 73.42008209228516 44.35374450683594 73.31459045410156 37.40135955810547 74.30130004882812 C 25.891803741455078 80.54931640625 22.418041229248047 75.61681365966797 39.198116302490234 52.791934967041016 C 45.45563507080078 43.867862701416016 46.16870880126953 36.71977615356445 47.556819915771484 41.943214416503906 C 52.72055435180664 63.972625732421875 48.612998962402344 46.69371795654297 54.827980041503906 37.009254455566406 C 59.99898910522461 31.658164978027344 49.57503890991211 19.180246353149414 58.94524002075195 26.726205825805664 C 75.47981262207031 33.22996139526367 72.42414855957031 26.25241470336914 56.19492721557617 35.689334869384766 C 58.50822830200195 30.405487060546875 48.37419509887695 22.63927459716797 46.55616760253906 19.845998764038086" stroke-width="0.0" fill="rgb(0, 0, 0)" opacity="1.0" stroke="rgb(0, 0, 0)" stroke-opacity="1.0" stroke-linecap="round" stroke-linejoin="round"/>
  </g>
</svg>
