<?xml version="1.0" ?>
<svg xmlns="http://www.w3.org/2000/svg" version="1.1" width="100" height="100">
  <defs/>
  <g>
    <path d="M 11.305669784545898 15.901453971862793 C 8.946080207824707 15.12252426147461 9.627791404724121 19.92710304260254 9.56467056274414 19.160404205322266 C 10.55965805053711 25.308679580688477 11.14232063293457 32.259891510009766 10.956376075744629 28.184051513671875 C 12.692384719848633 37.39760208129883 13.968206405639648 45.867286682128906 17.502044677734375 52.86656188964844 C 18.38268280029297 55.43815994262695 20.45052146911621 56.6697883605957 21.032699584960938 58.68898391723633 C 24.284786224365234 63.06352996826172 28.425722122192383 67.01848602294922 33.029937744140625 70.40855407714844 C 36.594173431396484 72.32112121582031 40.2589111328125 73.88973236083984 45.45319366455078 75.37974548339844 C 51.940765380859375 76.68173217773438 55.89515686035156 76.80303955078125 63.652557373046875 75.3536148071289 C 66.80754852294922 74.42346954345703 68.88179016113281 73.66899871826172 70.73513793945312 72.58430480957031 C 72.96746826171875 71.71925354003906 75.87091064453125 69.5722885131836 78.7007064819336 67.28169250488281 C 80.49040985107422 64.96321868896484 83.7660903930664 62.20907211303711 85.48770141601562 59.44449996948242 C 87.73135375976562 55.70440673828125 89.5660629272461 52.307315826416016 90.43206787109375 46.928932189941406 C 90.59400939941406 42.24698257446289 90.51213836669922 37.89183807373047 89.57052612304688 35.93966293334961 C 87.58626556396484 30.193222045898438 84.92617797851562 24.691518783569336 82.07238006591797 21.957378387451172 C 79.20217895507812 18.943851470947266 76.38374328613281 15.974340438842773 71.9101791381836 14.562505722045898 C 71.1768798828125 13.127568244934082 64.78966522216797 9.791545867919922 52.30610656738281 9.738072395324707 C 61.27659606933594 9.452821731567383 54.478118896484375 9.42630386352539 53.0406608581543 9.779397010803223 C 46.75201416015625 10.347773551940918 42.73541259765625 11.361512184143066 40.4783935546875 11.970978736877441 C 38.9896125793457 13.254104614257812 35.09041976928711 14.622145652770996 32.37271499633789 16.986370086669922 C 29.153654098510742 19.122314453125 26.370908737182617 22.836389541625977 23.644208908081055 27.870349884033203 C 19.044363021850586 23.58760643005371 14.14367961883545 18.545303344726562 11.305669784545898 15.901453971862793" stroke-width="0.0" fill="rgb(0, 0, 0)" opacity="1.0" stroke="rgb(0, 0, 0)" stroke-opacity="1.0" stroke-linecap="round" stroke-linejoin="round"/>
  </g>
</svg>
