<?xml version="1.0" ?>
<svg xmlns="http://www.w3.org/2000/svg" version="1.1" width="100" height="100">
  <defs/>
  <g>
    <path d="M 33.581539154052734 10.487981796264648 C 26.877981185913086 13.485954284667969 22.327476501464844 18.046918869018555 31.556657791137695 33.296791076660156 C 16.521976470947266 29.88320541381836 12.74013900756836 31.356008529663086 21.49927520751953 30.9296875 C 13.961106300354004 30.414661407470703 10.337526321411133 35.492252349853516 10.114989280700684 37.60607147216797 C 8.505934715270996 44.328102111816406 11.994660377502441 47.39570999145508 14.239368438720703 49.5185432434082 C 17.534122467041016 51.86511993408203 22.962146759033203 51.675537109375 26.512229919433594 52.9749755859375 C 21.517377853393555 57.677120208740234 12.813314437866211 62.69264602661133 13.901898384094238 65.92127990722656 C 13.264608383178711 70.88516998291016 21.567489624023438 75.7447738647461 26.70864486694336 75.6247787475586 C 32.366661071777344 75.4517822265625 35.101810455322266 72.21304321289062 39.49122619628906 69.01750183105469 C 38.760093688964844 84.25445556640625 41.83835220336914 84.90027618408203 41.24005126953125 84.0504379272461 C 41.58694076538086 84.27444458007812 42.71442413330078 88.1951675415039 50.41387176513672 88.88510131835938 C 59.108673095703125 86.72554016113281 60.79780960083008 81.51741027832031 59.542823791503906 68.93370819091797 C 66.79280853271484 74.1811294555664 71.57793426513672 81.45970153808594 81.244873046875 73.87288665771484 C 88.4662857055664 61.91450119018555 78.23686981201172 58.3359489440918 72.13761901855469 53.136634826660156 C 85.00289154052734 50.30656814575195 89.11842346191406 50.21769714355469 89.59505462646484 39.62235641479492 C 88.1182632446289 33.127662658691406 82.8243408203125 29.82598876953125 77.73780059814453 31.301353454589844 C 87.62400817871094 28.392484664916992 66.57328033447266 33.785552978515625 68.01885986328125 33.29872131347656 C 75.02865600585938 19.455507278442383 73.15877532958984 19.182077407836914 71.75785064697266 14.880908966064453 C 64.28394317626953 5.944632530212402 55.20198059082031 11.543779373168945 56.44260025024414 13.351747512817383 C 53.33424758911133 13.114309310913086 52.814720153808594 20.977293014526367 49.7976188659668 23.792524337768555 C 44.725460052490234 16.710784912109375 45.24672317504883 8.77531909942627 33.581539154052734 10.487981796264648" stroke-width="0.0" fill="rgb(0, 0, 0)" opacity="1.0" stroke="rgb(0, 0, 0)" stroke-opacity="1.0" stroke-linecap="round" stroke-linejoin="round"/>
  </g>
</svg>
