<?xml version="1.0" ?>
<svg xmlns="http://www.w3.org/2000/svg" version="1.1" width="100" height="100">
  <defs/>
  <g>
    <path d="M 12.138165473937988 32.618263244628906 C 13.606863975524902 29.75111961364746 9.647738456726074 38.03861618041992 12.346643447875977 44.28672790527344 C 11.047865867614746 44.32789993286133 12.966609001159668 47.42338943481445 14.684101104736328 51.12305450439453 C 15.464275360107422 52.864994049072266 18.766834259033203 57.71628189086914 21.411457061767578 60.09063720703125 C 23.7652645111084 62.27817916870117 26.9845027923584 64.74905395507812 31.372108459472656 67.40916442871094 C 35.87518310546875 69.30062103271484 39.608360290527344 70.93936920166016 43.024208068847656 71.72772979736328 C 44.98952102661133 71.6887435913086 49.29378128051758 73.64811706542969 49.18330383300781 72.84358215332031 C 54.0512809753418 73.9162368774414 67.28654479980469 74.67115783691406 62.146141052246094 75.12229919433594 C 70.88074493408203 73.61289978027344 80.11942291259766 78.94981384277344 84.54171752929688 79.48804473876953 C 71.07843017578125 71.8179702758789 76.60665130615234 73.0135269165039 81.2456283569336 74.62779998779297 C 78.44985961914062 70.67485046386719 86.3480224609375 71.1036376953125 80.52098083496094 67.49539947509766 C 78.96669006347656 54.1992301940918 84.19340515136719 49.92378616333008 85.81891632080078 44.965118408203125 C 88.13085174560547 40.867496490478516 90.12582397460938 33.84867477416992 90.14488220214844 32.27034378051758 C 90.99813079833984 28.06105613708496 88.9000473022461 21.864219665527344 89.30143737792969 21.773983001708984 C 86.47330474853516 16.999351501464844 84.61465454101562 14.833423614501953 80.113525390625 12.496549606323242 C 80.23455810546875 12.459424018859863 75.69209289550781 9.74589729309082 63.748748779296875 10.9801607131958 C 74.8901596069336 10.379751205444336 65.67557525634766 10.308194160461426 60.025054931640625 13.797871589660645 C 55.800785064697266 16.834579467773438 51.25102233886719 22.183313369750977 50.50159454345703 30.069259643554688 C 46.337547302246094 25.084575653076172 39.66062545776367 21.233747482299805 34.51816177368164 20.39288902282715 C 30.78531837463379 21.08894157409668 29.9309024810791 18.866485595703125 24.244810104370117 21.22560691833496 C 18.834848403930664 22.51700210571289 13.681787490844727 26.831588745117188 12.138165473937988 32.618263244628906" stroke-width="0.0" fill="rgb(0, 0, 0)" opacity="1.0" stroke="rgb(0, 0, 0)" stroke-opacity="1.0" stroke-linecap="round" stroke-linejoin="round"/>
  </g>
</svg>
