<?xml version="1.0" ?>
<svg xmlns="http://www.w3.org/2000/svg" version="1.1" width="100" height="100">
  <defs/>
  <g>
    <path d="M 52.26078796386719 13.667293548583984 C 48.2309684753418 12.86129379272461 46.66876220703125 15.445106506347656 44.54922866821289 15.590398788452148 C 41.80121612548828 13.400772094726562 36.07051086425781 8.73754596710205 30.118377685546875 10.253164291381836 C 26.03826332092285 11.761600494384766 24.223522186279297 15.284526824951172 23.78929328918457 18.57850456237793 C 17.97024154663086 15.865828514099121 14.025765419006348 14.18004322052002 11.287585258483887 17.420408248901367 C 9.118292808532715 21.588008880615234 9.639671325683594 24.41615104675293 9.92300033569336 29.818838119506836 C 10.71006965637207 38.011329650878906 11.409314155578613 41.285335540771484 12.821516990661621 43.40053939819336 C 14.181926727294922 46.162715911865234 17.66819953918457 50.51816940307617 19.950082778930664 51.32554626464844 C 22.90871810913086 53.514198303222656 29.964569091796875 54.29309844970703 30.50041389465332 54.83745574951172 C 31.475719451904297 58.17186737060547 29.571624755859375 65.96243286132812 26.784666061401367 76.13786315917969 C 26.226165771484375 78.56095886230469 22.568424224853516 85.81875610351562 25.13748550415039 87.72827911376953 C 27.913543701171875 90.86812591552734 31.87135124206543 88.43666076660156 32.91893768310547 86.16546630859375 C 34.19401550292969 81.34909057617188 35.90980911254883 76.35307312011719 37.042869567871094 72.17818450927734 C 44.91006088256836 73.6323013305664 52.85410690307617 71.9797592163086 53.23743438720703 70.9898452758789 C 56.21874237060547 70.19658660888672 60.02666091918945 67.965087890625 61.66014862060547 63.738956451416016 C 61.024200439453125 56.96916580200195 58.57073211669922 55.15415954589844 56.61887741088867 54.121822357177734 C 49.01246643066406 51.180389404296875 38.7924690246582 60.81184005737305 39.92395782470703 60.12602615356445 C 37.08959197998047 52.332008361816406 43.248287200927734 56.2907829284668 50.1383171081543 49.29568099975586 C 52.47227478027344 47.309425354003906 55.171730041503906 42.973270416259766 55.99252700805664 40.133384704589844 C 57.06163787841797 36.87464141845703 60.03981018066406 28.46280288696289 57.31447982788086 18.7717342376709 C 56.02425003051758 17.05916404724121 54.208839416503906 14.367292404174805 52.26078796386719 13.667293548583984" stroke-width="0.0" fill="rgb(0, 0, 0)" opacity="1.0" stroke="rgb(0, 0, 0)" stroke-opacity="1.0" stroke-linecap="round" stroke-linejoin="round"/>
  </g>
</svg>
