<?xml version="1.0" ?>
<svg xmlns="http://www.w3.org/2000/svg" version="1.1" width="100" height="100">
  <defs/>
  <g>
    <path d="M 43.47579574584961 10.001782417297363 C 33.968868255615234 8.649368286132812 29.086185455322266 16.40574073791504 29.389564514160156 25.54094123840332 C 23.850006103515625 22.364784240722656 19.2316951751709 22.433725357055664 15.422337532043457 23.509721755981445 C 14.624730110168457 24.859708786010742 9.725727081298828 27.3955020904541 9.981800079345703 33.96122360229492 C 10.636028289794922 37.98212432861328 14.830279350280762 42.06081771850586 20.33652687072754 44.610591888427734 C 15.770465850830078 47.98347091674805 10.869566917419434 54.318241119384766 14.222463607788086 59.15876770019531 C 18.158733367919922 64.76583099365234 25.246652603149414 68.83515167236328 34.12464904785156 61.784637451171875 C 34.11112594604492 61.00867462158203 33.88331985473633 78.60382080078125 34.17515563964844 73.83081817626953 C 33.18782424926758 71.77423858642578 23.782398223876953 68.65128326416016 22.74533462524414 70.58543395996094 C 19.203872680664062 71.07511901855469 16.29450225830078 74.13267517089844 19.02256965637207 79.66045379638672 C 22.433504104614258 82.92316436767578 30.779632568359375 91.34712982177734 40.163265228271484 90.02377319335938 C 52.753421783447266 91.26925659179688 57.78289794921875 85.84249877929688 64.44343566894531 79.29169464111328 C 66.22760009765625 75.43326568603516 64.76227569580078 71.34314727783203 64.07512664794922 72.5127182006836 C 60.22270202636719 66.9112319946289 49.75004959106445 72.1067123413086 47.64280700683594 74.36737823486328 C 46.9228630065918 63.497764587402344 47.918914794921875 63.33832931518555 46.8923454284668 63.875606536865234 C 56.22259521484375 66.79896545410156 60.4219970703125 63.54961013793945 65.76102447509766 57.713157653808594 C 66.82852935791016 51.1129150390625 63.69894790649414 48.12010955810547 61.19093704223633 44.46984100341797 C 66.27252197265625 42.76719665527344 71.40240478515625 40.42095947265625 72.63557434082031 34.675148010253906 C 74.21161651611328 29.48964500427246 71.3861312866211 24.412023544311523 69.71858215332031 23.42490577697754 C 66.13951110839844 19.638900756835938 54.658573150634766 20.835012435913086 52.92084884643555 23.531139373779297 C 53.60746383666992 15.275114059448242 49.16525650024414 8.980439186096191 43.47579574584961 10.001782417297363" stroke-width="0.0" fill="rgb(0, 0, 0)" opacity="1.0" stroke="rgb(0, 0, 0)" stroke-opacity="1.0" stroke-linecap="round" stroke-linejoin="round"/>
  </g>
</svg>
