<?xml version="1.0" ?>
<svg xmlns="http://www.w3.org/2000/svg" version="1.1" width="100" height="100">
  <defs/>
  <g>
    <path d="M 51.370750427246094 9.649240493774414 C 45.62739181518555 8.842174530029297 44.99058151245117 10.888967514038086 42.67327880859375 12.393085479736328 C 38.87226486206055 17.81781005859375 36.33779525756836 26.01077651977539 33.32021713256836 28.466949462890625 C 31.794645309448242 29.707456588745117 27.420984268188477 30.292470932006836 16.89673614501953 31.369630813598633 C 16.15165138244629 32.200801849365234 13.739967346191406 33.615455627441406 12.4327974319458 33.84443283081055 C 11.528035163879395 35.867366790771484 9.037693977355957 38.29143524169922 9.572633743286133 42.25740432739258 C 9.252573013305664 45.943634033203125 12.093097686767578 48.80937194824219 15.1250581741333 51.50720977783203 C 18.11866569519043 54.69890594482422 21.115419387817383 57.24387741088867 23.002656936645508 60.243160247802734 C 23.891563415527344 68.24481201171875 20.58543586730957 72.3501205444336 21.335956573486328 79.35599517822266 C 20.7016658782959 81.68019104003906 23.85167694091797 83.99911499023438 25.34343910217285 86.08143615722656 C 25.195890426635742 84.1171875 24.630964279174805 87.67913055419922 31.643726348876953 87.7409896850586 C 39.174156188964844 85.78152465820312 43.907344818115234 80.73567199707031 50.507904052734375 79.68489074707031 C 56.37458419799805 81.5523910522461 61.425270080566406 86.33795928955078 68.43627166748047 87.59257507324219 C 75.45658111572266 87.27056121826172 77.32233428955078 83.6599349975586 78.81768798828125 79.01366424560547 C 79.53889465332031 73.1478500366211 76.10640716552734 66.31033325195312 77.04154205322266 59.477333068847656 C 80.47742462158203 55.436378479003906 85.6388931274414 51.45988082885742 89.60330200195312 46.108680725097656 C 91.31269073486328 41.44123458862305 89.91434478759766 38.00449752807617 90.28277587890625 39.63549041748047 C 90.24910736083984 36.612998962402344 86.46074676513672 32.642948150634766 82.54120635986328 31.777189254760742 C 74.18423461914062 30.077280044555664 67.48763275146484 30.490018844604492 64.47364044189453 26.508487701416016 C 62.462493896484375 21.731857299804688 60.633663177490234 17.120594024658203 58.11335754394531 13.66113567352295 C 56.751182556152344 10.564226150512695 52.36387252807617 9.2978515625 51.370750427246094 9.649240493774414" stroke-width="0.0" fill="rgb(0, 0, 0)" opacity="1.0" stroke="rgb(0, 0, 0)" stroke-opacity="1.0" stroke-linecap="round" stroke-linejoin="round"/>
  </g>
</svg>
