<?xml version="1.0" ?>
<svg xmlns="http://www.w3.org/2000/svg" version="1.1" width="100" height="100">
  <defs/>
  <g>
    <path d="M 41.28191375732422 10.2719144821167 C 33.52631378173828 11.951010704040527 29.171018600463867 15.294574737548828 24.616666793823242 18.232582092285156 C 20.466995239257812 21.88391876220703 17.740131378173828 25.16878890991211 15.08147144317627 28.973737716674805 C 13.811429977416992 31.896860122680664 11.519922256469727 35.21623992919922 11.576783180236816 37.5909309387207 C 11.10567855834961 37.75189971923828 8.271227836608887 46.36974334716797 10.23798656463623 59.83680725097656 C 9.78371524810791 56.45654296875 9.879982948303223 56.558815002441406 9.903939247131348 56.64895248413086 C 11.441289901733398 63.55970001220703 13.311322212219238 67.40011596679688 15.8198881149292 71.56036376953125 C 19.32843589782715 76.53589630126953 22.65947151184082 79.91239166259766 27.03937530517578 83.06326293945312 C 31.310367584228516 85.37112426757812 34.359031677246094 88.27847290039062 38.95838928222656 88.6025619506836 C 49.34975814819336 91.77132415771484 62.83926773071289 88.59492492675781 56.49399185180664 90.23518371582031 C 52.48367691040039 90.00094604492188 54.72825241088867 89.78143310546875 61.92163848876953 88.55638122558594 C 66.85595703125 86.79981231689453 70.03245544433594 84.9952163696289 73.35786437988281 82.58858489990234 C 77.82233428955078 79.50514221191406 81.75372314453125 74.97430419921875 84.2784194946289 70.28985595703125 C 86.87903594970703 65.78644561767578 88.76502990722656 62.498619079589844 89.75247955322266 55.53886032104492 C 91.3955078125 45.07673263549805 87.66617584228516 37.1272087097168 89.01189422607422 40.111202239990234 C 88.7669906616211 42.210384368896484 88.97415161132812 43.28382873535156 88.86019134521484 39.817047119140625 C 86.71019744873047 31.159042358398438 83.23239135742188 27.038345336914062 80.1448974609375 23.375930786132812 C 78.46507263183594 21.373136520385742 73.67877197265625 16.86161994934082 69.59794616699219 14.758954048156738 C 69.02177429199219 14.655041694641113 65.97492980957031 13.565322875976562 65.58018493652344 12.490966796875 C 61.428504943847656 11.607015609741211 57.426780700683594 9.530935287475586 50.587921142578125 9.83106517791748 C 53.348758697509766 9.54030704498291 36.830787658691406 10.025592803955078 41.28191375732422 10.2719144821167" stroke-width="0.0" fill="rgb(0, 0, 0)" opacity="1.0" stroke="rgb(0, 0, 0)" stroke-opacity="1.0" stroke-linecap="round" stroke-linejoin="round"/>
  </g>
</svg>
