<?xml version="1.0" ?>
<svg xmlns="http://www.w3.org/2000/svg" version="1.1" width="100" height="100">
  <defs/>
  <g>
    <path d="M 10.979446411132812 13.067404747009277 C 9.11526107788086 19.356279373168945 9.97958755493164 25.670541763305664 11.945907592773438 31.272245407104492 C 14.926149368286133 35.54906463623047 16.635974884033203 41.482391357421875 29.280521392822266 44.19908905029297 C 30.857154846191406 42.75759506225586 28.482471466064453 49.071533203125 41.81715393066406 55.44585037231445 C 47.4415283203125 57.10479736328125 55.33246994018555 57.80492401123047 65.27906799316406 54.3487434387207 C 64.72740173339844 53.261253356933594 70.60259246826172 59.72774887084961 77.4715805053711 61.546695709228516 C 84.66574096679688 64.78623962402344 92.01876068115234 64.23735046386719 89.85906982421875 58.144493103027344 C 89.90505981445312 53.48096466064453 81.05541229248047 57.691680908203125 72.64825439453125 48.68755340576172 C 74.90937042236328 47.8000373840332 79.79840087890625 41.326141357421875 79.38999938964844 37.308528900146484 C 80.04949951171875 32.04684829711914 77.21880340576172 29.72395133972168 74.29672241210938 28.537864685058594 C 68.24934387207031 26.20043182373047 62.4039421081543 30.023962020874023 60.03950119018555 34.50511932373047 C 59.90003967285156 34.29629898071289 56.53328323364258 38.334434509277344 59.935813903808594 46.9127311706543 C 58.84299850463867 48.29450607299805 47.909000396728516 49.98128890991211 44.33047103881836 47.07509994506836 C 43.29210662841797 47.61156463623047 42.813961029052734 46.78703689575195 38.683528900146484 43.69905090332031 C 41.60427474975586 42.467288970947266 48.19538497924805 40.5615234375 51.78396987915039 35.863250732421875 C 52.80281066894531 33.18280029296875 55.99057388305664 29.99724769592285 51.43437957763672 22.82029914855957 C 49.656166076660156 21.290414810180664 48.7633171081543 18.70549774169922 42.487388610839844 19.64873695373535 C 34.92494583129883 21.371702194213867 29.972736358642578 29.757007598876953 29.501754760742188 35.474693298339844 C 23.007671356201172 34.97832107543945 18.084012985229492 28.113998413085938 18.70154571533203 22.423511505126953 C 17.367868423461914 18.703603744506836 20.185855865478516 13.189454078674316 18.474225997924805 11.876294136047363 C 15.811610221862793 8.84048843383789 12.8112154006958 8.802986145019531 10.979446411132812 13.067404747009277" stroke-width="0.0" fill="rgb(0, 0, 0)" opacity="1.0" stroke="rgb(0, 0, 0)" stroke-opacity="1.0" stroke-linecap="round" stroke-linejoin="round"/>
  </g>
</svg>
