<?xml version="1.0" ?>
<svg xmlns="http://www.w3.org/2000/svg" version="1.1" width="100" height="100">
  <defs/>
  <g>
    <path d="M 27.11614227294922 10.327399253845215 C 23.955358505249023 11.6898193359375 23.36941909790039 17.08930206298828 25.793458938598633 20.47102165222168 C 26.908245086669922 23.264551162719727 31.397214889526367 25.774417877197266 36.098052978515625 29.396333694458008 C 34.45290756225586 31.509265899658203 33.083194732666016 37.98587417602539 32.42911148071289 43.801048278808594 C 34.223392486572266 44.348201751708984 20.760910034179688 43.73402404785156 30.306978225708008 43.62956619262695 C 17.759809494018555 44.4144401550293 4.463797092437744 47.22499465942383 9.870319366455078 47.4262580871582 C 7.937243461608887 57.68840026855469 16.828289031982422 60.251808166503906 13.174541473388672 55.682716369628906 C 15.695314407348633 56.43215560913086 12.9660005569458 86.68123626708984 18.52008056640625 89.47752380371094 C 20.712474822998047 91.41544342041016 29.4033145904541 89.22769927978516 19.577831268310547 90.09223937988281 C 15.08734130859375 90.02239990234375 44.40629196166992 90.91728210449219 55.85618591308594 87.21920776367188 C 58.61159896850586 85.5167007446289 58.5072135925293 77.30865478515625 58.53867721557617 59.06657791137695 C 58.6514892578125 54.712196350097656 64.56599426269531 62.751609802246094 62.97071075439453 46.11557388305664 C 60.37723159790039 41.711387634277344 45.42019271850586 44.243228912353516 40.251888275146484 43.51615905761719 C 39.20748519897461 45.734291076660156 39.24357986450195 40.774593353271484 41.172454833984375 34.2447624206543 C 41.06523132324219 36.667659759521484 42.00614547729492 31.58363151550293 44.29852294921875 30.02946662902832 C 40.882259368896484 30.904563903808594 50.23652648925781 33.684932708740234 53.73020935058594 31.425891876220703 C 55.9659423828125 30.994863510131836 60.3176155090332 27.551401138305664 59.55189514160156 23.766380310058594 C 59.853904724121094 20.382474899291992 57.103271484375 21.076696395874023 57.535030364990234 20.324657440185547 C 49.12275695800781 18.05845069885254 44.44544982910156 22.049907684326172 41.17455291748047 23.87006187438965 C 41.54820251464844 18.879413604736328 37.2011833190918 12.951313018798828 35.32118225097656 11.45030403137207 C 31.983226776123047 9.26923942565918 28.144010543823242 9.450695991516113 27.11614227294922 10.327399253845215" stroke-width="0.0" fill="rgb(0, 0, 0)" opacity="1.0" stroke="rgb(0, 0, 0)" stroke-opacity="1.0" stroke-linecap="round" stroke-linejoin="round"/>
  </g>
</svg>
