<?xml version="1.0" ?>
<svg xmlns="http://www.w3.org/2000/svg" version="1.1" width="100" height="100">
  <defs/>
  <g>
    <path d="M 11.196925163269043 40.37531280517578 C 23.044891357421875 42.24872589111328 12.755915641784668 36.87310028076172 18.425800323486328 54.599822998046875 C 22.57056427001953 67.02947235107422 26.901622772216797 76.07489013671875 31.64797592163086 86.19451141357422 C 33.914337158203125 84.58415222167969 40.423343658447266 80.76213073730469 51.27790069580078 82.92583465576172 C 59.53147506713867 83.99906158447266 65.6122817993164 86.78141021728516 70.46442413330078 89.03517150878906 C 73.10984802246094 84.18029022216797 75.33025360107422 74.2120132446289 77.71829986572266 66.15843963623047 C 79.65327453613281 58.034461975097656 82.1922378540039 51.59841537475586 81.3885269165039 37.582550048828125 C 82.21643829345703 42.355499267578125 88.6551284790039 39.77552032470703 85.56956481933594 40.77434158325195 C 90.01396942138672 41.22703552246094 92.0682144165039 35.02341079711914 87.35343933105469 32.78350067138672 C 85.590576171875 30.786706924438477 82.16844940185547 32.95566177368164 81.00462341308594 34.65541076660156 C 80.49272155761719 37.07918167114258 83.44493865966797 48.23579788208008 79.97687530517578 42.574180603027344 C 75.38059997558594 42.39647674560547 68.4136962890625 49.777679443359375 61.12074661254883 58.12453079223633 C 57.239662170410156 42.94109344482422 54.42010498046875 24.620073318481445 47.08143615722656 23.147216796875 C 49.982975006103516 17.860641479492188 56.49745559692383 15.924010276794434 51.15350341796875 10.041646957397461 C 51.24457931518555 9.065282821655273 44.468502044677734 9.402332305908203 44.86697006225586 13.468700408935547 C 46.40212631225586 5.695516586303711 40.78791809082031 17.8616886138916 48.264251708984375 18.59467887878418 C 50.36727523803711 20.789119720458984 47.58107376098633 17.80197525024414 50.798500061035156 18.69713020324707 C 41.690128326416016 27.459686279296875 41.714256286621094 40.69585418701172 39.7188835144043 55.52651596069336 C 29.58384132385254 46.18809509277344 20.477632522583008 37.23086166381836 12.405502319335938 42.853851318359375 C 20.630590438842773 40.460575103759766 18.9953556060791 31.664831161499023 17.50707244873047 36.06264114379883 C 20.775630950927734 29.634450912475586 5.430156707763672 30.871675491333008 11.196925163269043 40.37531280517578" stroke-width="0.0" fill="rgb(0, 0, 0)" opacity="1.0" stroke="rgb(0, 0, 0)" stroke-opacity="1.0" stroke-linecap="round" stroke-linejoin="round"/>
  </g>
</svg>
