<?xml version="1.0" ?>
<svg xmlns="http://www.w3.org/2000/svg" version="1.1" width="100" height="100">
  <defs/>
  <g>
    <path d="M 47.29886245727539 9.781216621398926 C 39.74692916870117 10.075956344604492 38.25347900390625 11.650561332702637 34.995262145996094 12.632011413574219 C 28.845746994018555 15.170252799987793 24.579116821289062 17.975549697875977 20.775022506713867 22.4195613861084 C 17.3282470703125 25.723093032836914 14.652424812316895 29.861528396606445 12.584870338439941 34.724151611328125 C 12.258830070495605 34.90790557861328 11.555929183959961 37.332008361816406 10.724090576171875 40.0467529296875 C 9.263243675231934 45.00372314453125 9.779818534851074 51.3964729309082 9.756484031677246 48.13410186767578 C 8.989150047302246 55.35318374633789 12.038117408752441 64.07953643798828 13.038132667541504 66.7524642944336 C 15.70364761352539 73.42507934570312 19.802364349365234 77.02393341064453 24.502904891967773 81.88429260253906 C 26.80939483642578 82.34164428710938 29.759929656982422 85.52406311035156 30.343767166137695 85.53687286376953 C 33.23332595825195 86.71372985839844 37.21236038208008 88.78260803222656 42.616641998291016 89.81260681152344 C 46.78030776977539 91.0628433227539 49.49384689331055 90.5250015258789 55.22124481201172 90.31753540039062 C 58.65911102294922 89.49029541015625 64.12329864501953 88.6670150756836 66.72293853759766 86.86772155761719 C 70.72737121582031 84.94701385498047 74.0022964477539 82.76734161376953 75.68499755859375 81.14501190185547 C 77.56027221679688 79.77564239501953 80.1501235961914 77.47370147705078 81.47179412841797 75.70331573486328 C 82.7323226928711 73.77014923095703 84.91214752197266 69.79668426513672 86.28486633300781 68.908935546875 C 87.1119384765625 65.90962982177734 88.8430404663086 62.671260833740234 89.54736328125 59.15787887573242 C 89.9090805053711 57.008758544921875 91.14561462402344 46.987606048583984 89.9625473022461 45.21139907836914 C 90.0655517578125 41.47529220581055 87.39949798583984 33.4022102355957 85.22624206542969 30.323040008544922 C 81.51106262207031 24.173086166381836 78.79501342773438 21.279159545898438 75.06888580322266 18.12607765197754 C 73.14241027832031 17.02476692199707 66.31207275390625 12.19784927368164 62.31181335449219 11.407074928283691 C 62.82060623168945 11.318694114685059 51.45051574707031 8.891619682312012 47.29886245727539 9.781216621398926" stroke-width="0.0" fill="rgb(0, 0, 0)" opacity="1.0" stroke="rgb(0, 0, 0)" stroke-opacity="1.0" stroke-linecap="round" stroke-linejoin="round"/>
  </g>
</svg>
