<?xml version="1.0" ?>
<svg xmlns="http://www.w3.org/2000/svg" version="1.1" width="100" height="100">
  <defs/>
  <g>
    <path d="M 45.460121154785156 9.8590669631958 C 38.68504333496094 10.358790397644043 35.434696197509766 12.658082008361816 31.44800567626953 14.317185401916504 C 26.683704376220703 17.145029067993164 22.905656814575195 21.213834762573242 19.581737518310547 25.058670043945312 C 16.71818733215332 28.766653060913086 14.354575157165527 32.926902770996094 13.278841018676758 37.29571533203125 C 12.221158981323242 36.9559211730957 9.844367027282715 48.991966247558594 10.744622230529785 48.942317962646484 C 10.81004810333252 42.81986618041992 9.443036079406738 51.15232467651367 10.549201965332031 57.0777473449707 C 11.3510103225708 60.48604202270508 11.73212718963623 63.52558135986328 14.49846363067627 68.9905776977539 C 15.75493335723877 72.54206085205078 17.375656127929688 72.32588195800781 17.563495635986328 73.0094985961914 C 19.4422550201416 75.98600769042969 22.13082504272461 78.45085144042969 24.611682891845703 79.55149841308594 C 27.059555053710938 81.48413848876953 30.801918029785156 82.9781723022461 32.9249382019043 84.34400177001953 C 35.75275421142578 85.22708892822266 40.5982666015625 87.28028869628906 43.31147384643555 87.22810363769531 C 49.116432189941406 88.17964935302734 54.22074508666992 88.441162109375 57.181705474853516 87.78484344482422 C 64.24515533447266 86.76034545898438 70.36189270019531 83.61248779296875 73.93472290039062 80.6653823852539 C 78.02177429199219 78.07270050048828 80.86593627929688 74.11420440673828 83.45745086669922 70.95694732666016 C 85.93658447265625 66.03825378417969 88.50809478759766 62.730430603027344 89.75189208984375 53.17891311645508 C 90.2838134765625 53.44063186645508 90.85645294189453 42.97689437866211 89.1727066040039 38.66487503051758 C 87.65135955810547 31.949119567871094 85.91950988769531 29.32046127319336 82.90626525878906 24.883167266845703 C 79.6700668334961 20.23270606994629 74.98420715332031 16.42343521118164 70.9295883178711 13.774090766906738 C 64.29442596435547 11.63421630859375 59.29767608642578 11.82783317565918 60.75392532348633 11.005755424499512 C 59.10691452026367 11.442566871643066 58.082210540771484 9.6962308883667 54.42915344238281 10.116460800170898 C 51.14752960205078 9.256856918334961 41.94158935546875 9.341901779174805 45.460121154785156 9.8590669631958" stroke-width="0.0" fill="rgb(0, 0, 0)" opacity="1.0" stroke="rgb(0, 0, 0)" stroke-opacity="1.0" stroke-linecap="round" stroke-linejoin="round"/>
  </g>
</svg>
