<?xml version="1.0" ?>
<svg xmlns="http://www.w3.org/2000/svg" version="1.1" width="100" height="100">
  <defs/>
  <g>
    <path d="M 33.18220901489258 10.077577590942383 C 31.450454711914062 10.431370735168457 27.11725616455078 13.843976020812988 26.440719604492188 15.39406681060791 C 24.344675064086914 19.42375373840332 24.61804962158203 26.838220596313477 25.408588409423828 27.812253952026367 C 24.733211517333984 24.550472259521484 15.709512710571289 24.896892547607422 14.424054145812988 27.87841033935547 C 10.97144603729248 28.097394943237305 8.653478622436523 36.694175720214844 9.99124526977539 38.72442626953125 C 10.352851867675781 43.09913635253906 14.750795364379883 47.17787551879883 20.766674041748047 50.667625427246094 C 20.242359161376953 46.377506256103516 19.71782684326172 61.25263977050781 21.025148391723633 66.4573974609375 C 20.910099029541016 71.47726440429688 23.36173439025879 79.36434173583984 25.785398483276367 81.88919830322266 C 28.23717498779297 85.62047576904297 33.48912811279297 87.41011047363281 42.871028900146484 88.40119934082031 C 56.98027038574219 89.8583755493164 66.7213363647461 87.24545288085938 64.4395523071289 88.17597961425781 C 67.40579986572266 87.29798126220703 73.41252899169922 86.93201446533203 77.68846893310547 83.92080688476562 C 81.33369445800781 82.34646606445312 83.05998992919922 74.62378692626953 83.42350769042969 71.07515716552734 C 83.29754638671875 71.484130859375 84.71508026123047 61.08305740356445 83.90016174316406 53.9148063659668 C 83.74327850341797 57.38943099975586 83.94050598144531 51.8080940246582 84.12442779541016 47.331886291503906 C 87.35417175292969 45.68805694580078 90.12615966796875 41.540828704833984 90.79944610595703 36.1873779296875 C 90.51512908935547 31.27400016784668 88.58253479003906 30.0369815826416 88.30477905273438 29.311473846435547 C 85.62553405761719 24.603755950927734 78.09562683105469 23.94890022277832 76.88958740234375 24.235807418823242 C 77.049072265625 16.900306701660156 73.44202423095703 12.630688667297363 70.02244567871094 9.840290069580078 C 55.23324203491211 9.582942962646484 48.173458099365234 9.158018112182617 55.48971939086914 10.570735931396484 C 51.90028762817383 9.33596420288086 51.37902069091797 11.760592460632324 48.628639221191406 14.35435962677002 C 44.590576171875 11.69538688659668 43.23466110229492 8.626404762268066 33.18220901489258 10.077577590942383" stroke-width="0.0" fill="rgb(0, 0, 0)" opacity="1.0" stroke="rgb(0, 0, 0)" stroke-opacity="1.0" stroke-linecap="round" stroke-linejoin="round"/>
  </g>
</svg>
