<?xml version="1.0" ?>
<svg xmlns="http://www.w3.org/2000/svg" version="1.1" width="100" height="100">
  <defs/>
  <g>
    <path d="M 43.4271354675293 9.94179916381836 C 46.5494384765625 11.977449417114258 31.87877082824707 10.638154029846191 36.4625129699707 9.102699279785156 C 29.138851165771484 13.126660346984863 33.04469680786133 18.059463500976562 34.32787322998047 18.500904083251953 C 28.212223052978516 23.061803817749023 25.1596736907959 26.7287540435791 23.4571590423584 33.35939025878906 C 16.19898796081543 34.49352264404297 8.443002700805664 38.05369567871094 9.674174308776855 38.29855728149414 C 9.287845611572266 38.90538024902344 9.472753524780273 56.05242156982422 9.690801620483398 52.02424621582031 C 13.029593467712402 51.97972106933594 11.361276626586914 55.75593566894531 12.56796646118164 62.25243377685547 C 12.992630004882812 64.1006088256836 12.045193672180176 68.391845703125 12.508584022521973 58.30142593383789 C 12.918525695800781 70.58132934570312 14.543543815612793 81.6602554321289 14.441813468933105 84.09819793701172 C 15.06534194946289 84.08622741699219 17.6086483001709 86.04524993896484 20.461441040039062 86.66533660888672 C 25.77602767944336 88.96244049072266 31.64697265625 89.78334045410156 34.822383880615234 89.94805145263672 C 34.1070556640625 90.64949798583984 47.28499984741211 90.83561706542969 50.4808349609375 89.82331085205078 C 57.0056266784668 88.94231414794922 62.38188171386719 85.938720703125 64.32212829589844 82.31185150146484 C 64.10374450683594 80.30213928222656 65.08539581298828 75.63728332519531 65.09825897216797 71.01231384277344 C 65.45024108886719 68.9357681274414 65.73344421386719 63.52906799316406 66.95838928222656 54.91183090209961 C 67.05718994140625 49.21763229370117 69.65229797363281 61.66055679321289 68.9220199584961 40.299983978271484 C 66.12137603759766 36.47636413574219 55.0603141784668 34.595359802246094 59.5447998046875 35.828773498535156 C 58.62466812133789 28.93660545349121 55.845882415771484 24.87407875061035 54.98127746582031 23.45623779296875 C 53.84050369262695 22.635482788085938 51.19562530517578 19.585115432739258 50.21477508544922 18.394121170043945 C 52.69865798950195 14.558064460754395 52.39680862426758 11.770442962646484 48.27431869506836 10.079109191894531 C 41.40982437133789 11.863481521606445 34.28618240356445 9.671125411987305 43.4271354675293 9.94179916381836" stroke-width="0.0" fill="rgb(0, 0, 0)" opacity="1.0" stroke="rgb(0, 0, 0)" stroke-opacity="1.0" stroke-linecap="round" stroke-linejoin="round"/>
  </g>
</svg>
