<?xml version="1.0" ?>
<svg xmlns="http://www.w3.org/2000/svg" version="1.1" width="100" height="100">
  <defs/>
  <g>
    <path d="M 89.1987075805664 21.32843589782715 C 83.77253723144531 19.4284725189209 77.06871795654297 17.192480087280273 68.25988006591797 14.877446174621582 C 63.089717864990234 13.611166954040527 56.469482421875 12.072574615478516 48.69052505493164 10.117767333984375 C 40.078399658203125 9.196762084960938 46.053199768066406 10.560708045959473 41.547733306884766 10.7559232711792 C 37.11960983276367 13.45956802368164 31.091508865356445 16.30438232421875 25.708049774169922 19.642864227294922 C 19.895063400268555 22.71866226196289 14.265521049499512 26.150798797607422 9.976712226867676 28.507352828979492 C 9.057869911193848 31.496234893798828 11.359334945678711 33.606834411621094 10.130715370178223 31.306629180908203 C 13.176802635192871 33.21367645263672 17.828447341918945 33.89673614501953 20.40164566040039 34.797767639160156 C 24.860435485839844 35.96448516845703 29.086597442626953 37.074153900146484 33.65278244018555 38.23651885986328 C 37.76213455200195 39.3568229675293 43.00804901123047 40.30799102783203 48.410911560058594 42.13230514526367 C 46.330955505371094 48.553688049316406 43.809288024902344 55.023529052734375 42.00011444091797 61.766204833984375 C 39.616268157958984 66.9378890991211 37.85348892211914 73.52498626708984 35.47616958618164 79.5821304321289 C 39.07710647583008 79.39725494384766 35.0 78.66096496582031 34.59111785888672 79.70631408691406 C 36.89242172241211 80.74262237548828 32.03404998779297 81.82755279541016 37.26542282104492 84.47877502441406 C 41.91757583618164 82.45799255371094 46.1001091003418 80.13139343261719 49.85447311401367 78.11583709716797 C 54.12913131713867 75.77244567871094 58.46585464477539 73.47868347167969 62.79221725463867 71.35665893554688 C 67.16769409179688 69.25174713134766 69.86182403564453 67.97455596923828 72.5701675415039 62.83378982543945 C 75.19750213623047 57.4371452331543 77.85426330566406 50.7412223815918 80.8104248046875 45.122032165527344 C 82.91932678222656 40.12984085083008 84.5278091430664 36.53776931762695 84.905029296875 35.52803421020508 C 86.34819793701172 32.79461669921875 88.53311920166016 28.09343719482422 89.97673797607422 24.57046127319336 C 89.7251205444336 24.179534912109375 90.60466766357422 23.23074722290039 89.1987075805664 21.32843589782715" stroke-width="0.0" fill="rgb(0, 0, 0)" opacity="1.0" stroke="rgb(0, 0, 0)" stroke-opacity="1.0" stroke-linecap="round" stroke-linejoin="round"/>
  </g>
</svg>
