<?xml version="1.0" ?>
<svg xmlns="http://www.w3.org/2000/svg" version="1.1" width="100" height="100">
  <defs/>
  <g>
    <path d="M 38.00173568725586 10.506032943725586 C 32.88343048095703 11.629854202270508 30.460346221923828 14.685596466064453 29.516845703125 15.83261775970459 C 28.34404945373535 17.234800338745117 25.37506675720215 21.156084060668945 26.024511337280273 21.7623291015625 C 24.796812057495117 21.755826950073242 23.747119903564453 34.279842376708984 27.818405151367188 36.53779983520508 C 25.56044578552246 35.04935073852539 27.63895034790039 38.66843795776367 30.425704956054688 42.25320816040039 C 23.1209716796875 42.624637603759766 16.348281860351562 48.71494674682617 13.30047607421875 53.57294464111328 C 10.516521453857422 57.96941375732422 9.006816864013672 64.42342376708984 10.573101997375488 72.3025131225586 C 11.297966957092285 75.75621032714844 13.550661087036133 78.94995880126953 14.10059642791748 79.39887237548828 C 15.266796112060547 81.82463836669922 19.95987319946289 88.09211730957031 30.168758392333984 90.12393188476562 C 24.562585830688477 90.01571655273438 50.89922332763672 91.11921691894531 54.76200485229492 90.03180694580078 C 60.23112106323242 88.6290283203125 62.06367111206055 87.17501831054688 64.68363189697266 85.76250457763672 C 69.61766815185547 81.7555923461914 72.05796813964844 76.84420013427734 73.25535583496094 73.06487274169922 C 78.29376220703125 69.86463165283203 84.01380920410156 68.59089660644531 84.94371795654297 66.41719818115234 C 84.14693450927734 65.06501007080078 72.38655853271484 61.64216232299805 73.48089599609375 59.438011169433594 C 72.89881896972656 57.88193893432617 71.22591400146484 52.29888916015625 66.22183227539062 47.970088958740234 C 71.34961700439453 45.08561706542969 73.3835678100586 41.96282958984375 75.34234619140625 37.47178268432617 C 76.6259765625 32.783973693847656 76.95025634765625 31.855552673339844 75.68942260742188 25.152851104736328 C 74.20465087890625 19.742107391357422 70.0242919921875 16.740259170532227 65.70178985595703 16.26314353942871 C 60.52750015258789 16.331811904907227 60.57680130004883 16.49106216430664 55.53772735595703 18.512287139892578 C 53.18386459350586 15.004467010498047 51.582035064697266 12.84166431427002 48.00646209716797 10.968228340148926 C 46.99943161010742 10.99750804901123 43.73503494262695 8.828128814697266 38.00173568725586 10.506032943725586" stroke-width="0.0" fill="rgb(0, 0, 0)" opacity="1.0" stroke="rgb(0, 0, 0)" stroke-opacity="1.0" stroke-linecap="round" stroke-linejoin="round"/>
  </g>
</svg>
