<?xml version="1.0" ?>
<svg xmlns="http://www.w3.org/2000/svg" version="1.1" width="100" height="100">
  <defs/>
  <g>
    <path d="M 39.991302490234375 11.381213188171387 C 35.67711639404297 6.105402946472168 31.362285614013672 14.672270774841309 33.70779800415039 13.27099323272705 C 27.007646560668945 10.67558479309082 27.44468879699707 17.00929832458496 29.05966567993164 15.923006057739258 C 18.375587463378906 20.333751678466797 26.219919204711914 11.33813190460205 17.415124893188477 16.44483184814453 C 17.676239013671875 24.010086059570312 13.704689025878906 15.725236892700195 12.992862701416016 24.311555862426758 C 11.178624153137207 24.695798873901367 10.455409049987793 28.562301635742188 9.843063354492188 30.260149002075195 C 9.056715965270996 39.95539093017578 12.061226844787598 45.4613037109375 12.937968254089355 47.14775085449219 C 19.17460060119629 59.85483169555664 24.574600219726562 57.8090934753418 24.791805267333984 65.6193618774414 C 23.69538116455078 66.937744140625 20.587875366210938 71.45433807373047 19.5300350189209 76.9886245727539 C 18.181222915649414 84.37450408935547 19.67060089111328 85.7187271118164 21.052684783935547 88.51734161376953 C 31.251995086669922 87.04583740234375 30.364952087402344 90.23635864257812 30.708724975585938 90.16448211669922 C 40.99481964111328 88.8026351928711 30.825143814086914 86.34136199951172 40.763427734375 90.82867431640625 C 46.63522720336914 86.47164154052734 46.4859504699707 92.17505645751953 49.9652214050293 88.62661743164062 C 51.89533615112305 88.80642700195312 53.58106231689453 80.76405334472656 50.546634674072266 74.7229232788086 C 49.64813232421875 67.8907699584961 44.90734100341797 66.55036163330078 46.22541809082031 61.37425231933594 C 49.70493698120117 58.97902297973633 52.05705261230469 55.52299880981445 54.76377868652344 51.193363189697266 C 57.27587127685547 46.788394927978516 61.7019157409668 37.84848403930664 59.97808074951172 29.396800994873047 C 52.81017303466797 23.388357162475586 64.42115783691406 25.125516891479492 54.62342071533203 19.791154861450195 C 55.685707092285156 14.696161270141602 47.66408920288086 14.417143821716309 47.712493896484375 18.30988121032715 C 45.015254974365234 15.09891128540039 49.215763092041016 20.20753288269043 45.43243408203125 16.92681121826172 C 43.65114212036133 8.989214897155762 38.539371490478516 16.099477767944336 39.991302490234375 11.381213188171387" stroke-width="0.0" fill="rgb(0, 0, 0)" opacity="1.0" stroke="rgb(0, 0, 0)" stroke-opacity="1.0" stroke-linecap="round" stroke-linejoin="round"/>
  </g>
</svg>
