<?xml version="1.0" ?>
<svg xmlns="http://www.w3.org/2000/svg" version="1.1" width="100" height="100">
  <defs/>
  <g>
    <path d="M 10.43350601196289 12.611810684204102 C 8.688623428344727 14.563165664672852 10.325276374816895 41.46822738647461 9.443684577941895 24.2606201171875 C 9.876200675964355 37.4041633605957 9.905440330505371 45.42405700683594 10.009968757629395 35.981903076171875 C 10.081226348876953 48.938377380371094 11.076796531677246 64.27894592285156 9.749044418334961 45.1014518737793 C 10.635417938232422 54.944766998291016 11.765926361083984 67.43052673339844 12.381735801696777 72.88875579833984 C 11.004326820373535 61.003746032714844 11.335658073425293 70.83223724365234 13.500673294067383 69.80817413330078 C 10.361618995666504 68.51007080078125 10.176342010498047 64.88253784179688 12.770543098449707 68.99958801269531 C 14.557353973388672 70.2609634399414 25.225942611694336 70.34619140625 45.978065490722656 70.69818115234375 C 56.04601287841797 70.2771987915039 59.603511810302734 70.88662719726562 50.736202239990234 70.5386962890625 C 36.58820343017578 69.7479019165039 47.10741424560547 71.24405670166016 64.61205291748047 70.49459075927734 C 74.97315216064453 70.37220001220703 84.67670440673828 70.59917449951172 89.57018280029297 69.89322662353516 C 90.7080307006836 69.6725082397461 90.45408630371094 51.58259963989258 90.02509307861328 62.015201568603516 C 90.45693969726562 60.59234619140625 90.46881866455078 35.9478645324707 90.38450622558594 37.419677734375 C 90.0977783203125 35.302490234375 89.37825775146484 25.60496711730957 89.81097412109375 27.384750366210938 C 89.45897674560547 16.370094299316406 88.2329330444336 7.011040687561035 87.8296890258789 11.051929473876953 C 81.38240051269531 10.746174812316895 72.62179565429688 9.645105361938477 65.18498229980469 9.914839744567871 C 67.7267074584961 9.560761451721191 50.11918258666992 9.774147987365723 55.99028778076172 9.43017292022705 C 39.52011489868164 9.464876174926758 29.880868911743164 10.918350219726562 42.426979064941406 9.094917297363281 C 35.1336669921875 9.942768096923828 19.294330596923828 11.6665620803833 12.045479774475098 11.39182186126709 C 25.425132751464844 11.614561080932617 29.908344268798828 10.46081256866455 19.597490310668945 11.554271697998047 C 13.92795467376709 11.509834289550781 10.212663650512695 13.331827163696289 10.43350601196289 12.611810684204102" stroke-width="0.0" fill="rgb(0, 0, 0)" opacity="1.0" stroke="rgb(0, 0, 0)" stroke-opacity="1.0" stroke-linecap="round" stroke-linejoin="round"/>
  </g>
</svg>
