<?xml version="1.0" ?>
<svg xmlns="http://www.w3.org/2000/svg" version="1.1" width="100" height="100">
  <defs/>
  <g>
    <path d="M 11.823613166809082 15.951090812683105 C 12.39816665649414 11.237408638000488 11.235529899597168 22.326120376586914 10.846323013305664 40.513710021972656 C 10.654409408569336 37.21269989013672 10.61117935180664 42.582218170166016 10.97486400604248 37.84445571899414 C 10.037759780883789 57.473419189453125 10.597443580627441 73.87177276611328 9.673185348510742 74.43441009521484 C 11.096019744873047 71.28704071044922 7.516900539398193 83.19896697998047 12.001075744628906 86.15026092529297 C 14.668623924255371 87.961669921875 20.26102066040039 89.36705780029297 21.433320999145508 88.99242401123047 C 27.999923706054688 90.89254760742188 46.68354034423828 88.44445037841797 51.30241012573242 89.36746215820312 C 54.560394287109375 89.14034271240234 62.066307067871094 90.49909973144531 69.09884643554688 88.6915054321289 C 71.53484344482422 87.97209930419922 72.54366302490234 85.89680480957031 73.75414276123047 84.41426849365234 C 74.87167358398438 82.224365234375 75.95178985595703 78.56429290771484 76.36966705322266 74.57971954345703 C 77.57492065429688 68.65556335449219 75.91764831542969 49.68234634399414 76.2070083618164 42.576141357421875 C 76.0932388305664 40.523868560791016 75.53038787841797 21.272329330444336 76.03833770751953 24.363000869750977 C 75.63105010986328 21.583087921142578 77.29283905029297 16.31871223449707 67.5046615600586 16.41252326965332 C 76.23367309570312 16.42772674560547 68.121826171875 16.859567642211914 67.64120483398438 16.829143524169922 C 74.80201721191406 16.346376419067383 64.15728759765625 14.687188148498535 48.03190612792969 14.865094184875488 C 48.758575439453125 16.21538734436035 46.29668045043945 9.236516952514648 45.52180099487305 10.411744117736816 C 44.91889190673828 9.202749252319336 46.66617202758789 9.77155876159668 48.26860046386719 10.172796249389648 C 43.4913444519043 9.42346477508545 42.54230880737305 9.650161743164062 40.960693359375 12.396224975585938 C 44.31465148925781 12.730231285095215 33.8483772277832 8.839765548706055 36.3057861328125 13.7781400680542 C 35.740753173828125 9.344280242919922 34.828765869140625 15.362709999084473 35.88935470581055 15.388681411743164 C 25.5709228515625 16.05714225769043 10.127217292785645 16.192453384399414 11.823613166809082 15.951090812683105" stroke-width="0.0" fill="rgb(0, 0, 0)" opacity="1.0" stroke="rgb(0, 0, 0)" stroke-opacity="1.0" stroke-linecap="round" stroke-linejoin="round"/>
  </g>
</svg>
