<?xml version="1.0" ?>
<svg xmlns="http://www.w3.org/2000/svg" version="1.1" width="100" height="100">
  <defs/>
  <g>
    <path d="M 11.095931053161621 36.14175796508789 C 8.774028778076172 43.91542434692383 8.634982109069824 48.70522689819336 14.882074356079102 48.45445251464844 C 7.317845344543457 48.09547805786133 16.801342010498047 49.96835708618164 18.848722457885742 46.531524658203125 C 20.295955657958984 42.31711959838867 20.842113494873047 36.790958404541016 25.61630630493164 31.689321517944336 C 27.979717254638672 27.806751251220703 32.304908752441406 22.91756248474121 36.5090217590332 20.812692642211914 C 34.310420989990234 31.837482452392578 26.641321182250977 42.80320358276367 28.765771865844727 51.71648406982422 C 29.646221160888672 54.510154724121094 30.862442016601562 57.70526885986328 38.68684387207031 55.61796569824219 C 46.40494918823242 48.72055435180664 51.11660385131836 37.79972457885742 60.148643493652344 31.45956802368164 C 60.30128479003906 39.87725830078125 55.6020393371582 53.04155349731445 60.3686408996582 58.90718078613281 C 62.12520217895508 60.95475387573242 66.17686462402344 62.34777069091797 70.91509246826172 59.698638916015625 C 74.03445434570312 57.7828483581543 79.04680633544922 52.76990509033203 81.42593383789062 48.60220718383789 C 84.50505828857422 43.95873260498047 88.09795379638672 38.840023040771484 90.14769744873047 34.8785285949707 C 89.71231079101562 27.75119972229004 83.2840576171875 28.318822860717773 82.04570007324219 29.284460067749023 C 78.13750457763672 33.22018814086914 73.95272827148438 43.11729049682617 68.84969329833984 47.8178825378418 C 71.37444305419922 33.56032943725586 70.63045501708984 25.135744094848633 68.16539001464844 22.77657127380371 C 66.76420593261719 21.557878494262695 64.7431640625 18.734588623046875 57.38848114013672 21.183002471923828 C 52.8328857421875 23.08991813659668 46.72380828857422 27.633596420288086 43.75764083862305 34.29509735107422 C 45.963226318359375 25.233625411987305 48.06953048706055 21.155054092407227 46.30497741699219 16.033185958862305 C 45.120113372802734 12.264717102050781 41.33853530883789 8.849727630615234 33.729774475097656 10.536401748657227 C 29.614604949951172 11.749944686889648 22.605804443359375 18.349315643310547 17.092647552490234 25.418859481811523 C 14.210981369018555 29.049245834350586 12.355029106140137 32.895179748535156 11.095931053161621 36.14175796508789" stroke-width="0.0" fill="rgb(0, 0, 0)" opacity="1.0" stroke="rgb(0, 0, 0)" stroke-opacity="1.0" stroke-linecap="round" stroke-linejoin="round"/>
  </g>
</svg>
