<?xml version="1.0" ?>
<svg xmlns="http://www.w3.org/2000/svg" version="1.1" width="100" height="100">
  <defs/>
  <g>
    <path d="M 11.589509963989258 20.436389923095703 C 7.71458625793457 24.81670570373535 10.169865608215332 29.908971786499023 12.53278636932373 30.666431427001953 C 13.873952865600586 32.88999938964844 13.515259742736816 41.06758499145508 13.725703239440918 36.889442443847656 C 17.40257453918457 41.36041259765625 24.295440673828125 38.87747573852539 25.196231842041016 36.86088943481445 C 26.360309600830078 36.66141891479492 27.454055786132812 40.56673049926758 31.04141616821289 41.88753128051758 C 31.161170959472656 43.37885665893555 35.76240921020508 45.452392578125 39.199859619140625 46.655277252197266 C 38.75326919555664 46.1410026550293 44.70676040649414 48.488990783691406 52.6828727722168 48.34697723388672 C 55.174766540527344 47.94678497314453 58.221256256103516 48.05042266845703 61.62128829956055 46.54718780517578 C 67.70955657958984 44.82449722290039 71.98644256591797 41.351139068603516 74.9623031616211 37.28519058227539 C 77.32862091064453 40.32180404663086 85.0402603149414 40.44984436035156 86.78382873535156 35.45823287963867 C 86.44692993164062 30.636995315551758 86.30694580078125 32.47687530517578 90.01451110839844 27.395843505859375 C 90.31995391845703 27.700664520263672 90.80473327636719 22.104185104370117 86.88179016113281 19.479774475097656 C 85.12499237060547 21.55400848388672 87.08197784423828 15.869715690612793 81.85848236083984 13.539385795593262 C 81.61217498779297 11.925912857055664 73.89653778076172 15.70117473602295 73.64183044433594 18.63041877746582 C 71.00519561767578 16.321455001831055 68.02783966064453 13.511171340942383 64.03018188476562 12.171621322631836 C 61.65269088745117 9.694384574890137 59.73515319824219 11.566750526428223 53.2103271484375 9.139687538146973 C 60.00652313232422 11.095596313476562 51.64678955078125 8.80928897857666 46.36122512817383 9.695759773254395 C 41.29233932495117 9.784640312194824 35.17573165893555 13.101222038269043 40.12875747680664 10.231371879577637 C 33.868648529052734 13.783402442932129 27.97509002685547 16.07615089416504 27.666696548461914 19.4852294921875 C 24.681068420410156 16.706079483032227 22.931777954101562 13.969026565551758 19.015911102294922 13.585633277893066 C 12.024209022521973 14.960051536560059 15.66865348815918 20.495349884033203 11.589509963989258 20.436389923095703" stroke-width="0.0" fill="rgb(0, 0, 0)" opacity="1.0" stroke="rgb(0, 0, 0)" stroke-opacity="1.0" stroke-linecap="round" stroke-linejoin="round"/>
  </g>
</svg>
