<?xml version="1.0" ?>
<svg xmlns="http://www.w3.org/2000/svg" version="1.1" width="100" height="100">
  <defs/>
  <g>
    <path d="M 12.413681030273438 35.91862487792969 C 18.122539520263672 42.959632873535156 13.00098991394043 33.121150970458984 11.425654411315918 41.52870178222656 C 13.118218421936035 34.47165298461914 6.925618648529053 47.32530975341797 16.75094223022461 43.91638946533203 C 16.12594985961914 50.75517272949219 13.300436973571777 59.98724365234375 16.98177146911621 70.078369140625 C 18.356224060058594 75.6736068725586 22.13494300842285 80.70404052734375 27.77166175842285 83.93749237060547 C 31.4793758392334 86.30552673339844 38.617469787597656 88.50447845458984 42.50712966918945 88.84193420410156 C 41.37073516845703 89.54105377197266 52.289554595947266 90.04769897460938 58.34988021850586 89.43018341064453 C 65.90833282470703 89.06604766845703 71.90070343017578 87.40089416503906 75.2426528930664 86.27940368652344 C 80.32376861572266 84.5439224243164 85.43934631347656 81.89082336425781 90.43762969970703 79.3067398071289 C 89.8025894165039 73.92353820800781 87.4615707397461 70.08036041259766 86.27961730957031 67.0300064086914 C 83.16693878173828 63.31028747558594 80.18527221679688 58.090187072753906 76.65380859375 55.22256088256836 C 73.26000213623047 52.01316452026367 69.91006469726562 47.93008804321289 67.5964126586914 46.08518600463867 C 69.41593170166016 36.21275329589844 67.15505981445312 30.76171112060547 64.59666442871094 25.55216407775879 C 61.426082611083984 20.164493560791016 58.11082077026367 16.84415626525879 52.92899703979492 15.656210899353027 C 58.29254150390625 10.73778247833252 60.532325744628906 14.722561836242676 59.58021926879883 11.828285217285156 C 44.52225112915039 6.647454738616943 53.0746955871582 21.312166213989258 44.91223907470703 11.279287338256836 C 44.603248596191406 4.959507465362549 50.82356643676758 16.36806297302246 48.924827575683594 14.676610946655273 C 38.94696807861328 14.533395767211914 34.1410026550293 17.701879501342773 29.79534149169922 20.534543991088867 C 24.96388053894043 24.050203323364258 21.22765350341797 30.48386001586914 20.35008430480957 33.901302337646484 C 16.795799255371094 31.512231826782227 20.779855728149414 29.447702407836914 17.670604705810547 27.896160125732422 C 17.722854614257812 27.8067569732666 10.262468338012695 28.361547470092773 12.413681030273438 35.91862487792969" stroke-width="0.0" fill="rgb(0, 0, 0)" opacity="1.0" stroke="rgb(0, 0, 0)" stroke-opacity="1.0" stroke-linecap="round" stroke-linejoin="round"/>
  </g>
</svg>
