<?xml version="1.0" ?>
<svg xmlns="http://www.w3.org/2000/svg" version="1.1" width="100" height="100">
  <defs/>
  <g>
    <path d="M 27.65890121459961 9.7345609664917 C 24.864789962768555 9.019022941589355 19.46538734436035 9.275688171386719 15.725502967834473 12.799720764160156 C 15.611090660095215 12.41791820526123 13.116668701171875 15.640558242797852 12.117815017700195 19.03239631652832 C 11.573945045471191 26.347007751464844 13.589470863342285 27.050308227539062 14.191620826721191 27.517091751098633 C 14.119763374328613 28.942584991455078 15.876089096069336 31.045976638793945 19.511045455932617 32.71974182128906 C 16.87194061279297 33.73823165893555 12.602323532104492 36.88064956665039 12.098372459411621 41.06053924560547 C 10.685133934020996 44.72100067138672 13.186246871948242 46.64846420288086 11.415787696838379 45.10660171508789 C 12.529869079589844 50.480838775634766 16.00895881652832 53.80541229248047 18.94606590270996 55.046207427978516 C 13.567130088806152 57.024654388427734 13.459219932556152 59.22077178955078 12.33085823059082 60.46305465698242 C 11.700772285461426 60.9123420715332 9.41939640045166 67.61825561523438 11.210996627807617 69.76249694824219 C 11.555231094360352 73.28705596923828 13.850699424743652 75.48860931396484 19.017526626586914 78.18034362792969 C 19.52460289001465 74.60826110839844 18.25399398803711 94.41315460205078 21.3203125 90.1395492553711 C 24.99909210205078 91.6346206665039 23.202564239501953 89.66316223144531 23.890682220458984 77.72709655761719 C 27.47347640991211 78.30921173095703 30.14897918701172 75.78787231445312 30.679718017578125 75.08003234863281 C 31.365354537963867 74.9722900390625 34.26099395751953 71.46990203857422 34.407718658447266 67.09789276123047 C 34.665184020996094 62.278114318847656 31.890178680419922 57.39902877807617 27.288827896118164 55.66588592529297 C 31.848731994628906 53.43489074707031 35.11494827270508 50.48801803588867 35.615882873535156 45.28464126586914 C 35.847564697265625 37.72956848144531 31.886621475219727 34.77986145019531 28.1741886138916 32.52302932739258 C 32.794166564941406 30.30420684814453 32.68119430541992 29.004728317260742 31.503704071044922 29.58970069885254 C 32.24555969238281 30.977460861206055 36.99514389038086 25.700212478637695 35.9071159362793 20.097566604614258 C 34.88821029663086 13.161258697509766 28.3934383392334 10.001791954040527 27.65890121459961 9.7345609664917" stroke-width="0.0" fill="rgb(0, 0, 0)" opacity="1.0" stroke="rgb(0, 0, 0)" stroke-opacity="1.0" stroke-linecap="round" stroke-linejoin="round"/>
  </g>
</svg>
