<?xml version="1.0" ?>
<svg xmlns="http://www.w3.org/2000/svg" version="1.1" width="100" height="100">
  <defs/>
  <g>
    <path d="M 85.29032897949219 12.500235557556152 C 90.33011627197266 12.609094619750977 75.97682189941406 12.860433578491211 79.71878814697266 11.729670524597168 C 74.28191375732422 8.107605934143066 62.163875579833984 10.998793601989746 70.50818634033203 9.607951164245605 C 60.76746368408203 10.540201187133789 57.49414825439453 14.568408012390137 53.42525100708008 19.288679122924805 C 51.436378479003906 24.769681930541992 50.120445251464844 20.354703903198242 48.340518951416016 25.454524993896484 C 48.35382843017578 24.43640899658203 46.18471145629883 24.120071411132812 41.932518005371094 25.079078674316406 C 39.39518737792969 26.819026947021484 37.3287239074707 28.019058227539062 36.32639694213867 31.100860595703125 C 34.98318099975586 36.05061721801758 35.1139030456543 35.822513580322266 35.7686882019043 40.28544998168945 C 34.88373565673828 41.618255615234375 30.483034133911133 44.66926193237305 29.50067901611328 48.566810607910156 C 27.628887176513672 55.11094284057617 28.0181941986084 57.900421142578125 29.505733489990234 64.2610855102539 C 23.252567291259766 67.58512115478516 16.49417495727539 69.96984100341797 10.177484512329102 72.21996307373047 C 11.660307884216309 70.79914093017578 6.981225490570068 73.84750366210938 11.9744873046875 77.04977416992188 C 16.117849349975586 76.42436981201172 19.99795150756836 74.61199188232422 23.27112579345703 73.32713317871094 C 23.69263458251953 72.93281555175781 26.57183837890625 72.07331848144531 32.6116943359375 68.94424438476562 C 34.941734313964844 72.1121597290039 43.119239807128906 75.89119720458984 47.543701171875 76.96630096435547 C 56.285499572753906 78.49313354492188 61.81571578979492 77.27165222167969 66.08700561523438 73.94009399414062 C 71.73806762695312 70.85997772216797 68.60067749023438 66.6961669921875 75.16555786132812 63.317447662353516 C 80.49859619140625 62.11517333984375 84.171875 56.346195220947266 85.01927947998047 55.34252166748047 C 84.84380340576172 53.55000686645508 87.02201843261719 54.78432846069336 85.13873291015625 44.922794342041016 C 84.7330093383789 40.20904541015625 88.63818359375 39.1640739440918 89.778076171875 31.489011764526367 C 90.21611022949219 18.889789581298828 84.94459533691406 21.630489349365234 85.29032897949219 12.500235557556152" stroke-width="0.0" fill="rgb(0, 0, 0)" opacity="1.0" stroke="rgb(0, 0, 0)" stroke-opacity="1.0" stroke-linecap="round" stroke-linejoin="round"/>
  </g>
</svg>
