<?xml version="1.0" ?>
<svg xmlns="http://www.w3.org/2000/svg" version="1.1" width="100" height="100">
  <defs/>
  <g>
    <path d="M 12.22987174987793 28.951452255249023 C 10.320598602294922 32.28213882446289 8.935345649719238 36.74468994140625 9.387218475341797 38.771549224853516 C 9.924670219421387 45.94278335571289 12.42083740234375 48.88978576660156 14.38583755493164 52.43971633911133 C 18.727420806884766 58.2581901550293 15.956982612609863 52.111968994140625 16.920372009277344 60.00873565673828 C 18.10182762145996 64.38423156738281 20.590038299560547 67.1802749633789 22.87799835205078 68.29119873046875 C 24.338651657104492 69.6229248046875 29.05130958557129 73.20108795166016 36.93022918701172 72.26417541503906 C 40.475433349609375 71.5572738647461 42.44896697998047 70.37509155273438 44.75712585449219 69.26741027832031 C 45.58068084716797 68.50611114501953 48.09419631958008 67.07840728759766 50.8466911315918 63.49428176879883 C 52.59461212158203 65.42289733886719 55.23604202270508 70.19224548339844 61.32634353637695 72.83548736572266 C 67.6073226928711 74.6893081665039 66.81947326660156 74.34017181396484 72.7793197631836 72.61011505126953 C 76.66642761230469 70.02349090576172 79.20410919189453 67.65341186523438 80.07682800292969 60.29631805419922 C 80.32276153564453 56.95418930053711 78.31975555419922 52.9683837890625 79.6624984741211 54.30214309692383 C 84.6270751953125 53.63422393798828 89.37374877929688 47.84819412231445 90.33951568603516 41.57126998901367 C 90.87483215332031 32.636531829833984 86.462890625 27.794620513916016 82.96532440185547 24.922264099121094 C 77.92289733886719 21.665098190307617 71.8134994506836 22.673341751098633 67.32117462158203 24.488447189331055 C 66.30534362792969 20.227506637573242 63.226627349853516 17.01605796813965 61.071258544921875 15.179765701293945 C 58.874202728271484 13.04588508605957 56.27998733520508 11.503101348876953 55.7567253112793 11.974621772766113 C 51.734188079833984 9.777312278747559 46.26068115234375 10.305830001831055 43.0797119140625 11.923177719116211 C 36.73487091064453 15.053757667541504 32.4066276550293 20.922847747802734 31.632301330566406 24.103900909423828 C 26.752737045288086 20.509231567382812 19.300893783569336 22.072669982910156 20.60110855102539 22.657682418823242 C 20.08002471923828 21.622089385986328 14.555623054504395 24.659122467041016 12.22987174987793 28.951452255249023" stroke-width="0.0" fill="rgb(0, 0, 0)" opacity="1.0" stroke="rgb(0, 0, 0)" stroke-opacity="1.0" stroke-linecap="round" stroke-linejoin="round"/>
  </g>
</svg>
