<?xml version="1.0" ?>
<svg xmlns="http://www.w3.org/2000/svg" version="1.1" width="100" height="100">
  <defs/>
  <g>
    <path d="M 39.84442138671875 13.167747497558594 L 88.51924896240234 17.075946807861328 C 79.84221649169922 42.070491790771484 68.4117431640625 66.02225494384766 54.43867111206055 88.4893798828125 C 36.8046875 68.12686157226562 22.63243293762207 45.00808334350586 12.487034797668457 20.054922103881836 C 11.698427200317383 18.716032028198242 11.596870422363281 17.080970764160156 12.21373462677002 15.654783248901367 C 13.186789512634277 14.592552185058594 14.5725679397583 14.00434398651123 16.012611389160156 14.042309761047363 L 37.49403381347656 11.309304237365723 L 39.84442138671875 13.167747497558594" stroke-width="1.0" fill="rgb(243, 235, 51)" opacity="1.0"/>
    <path d="M 39.84442138671875 14.534250259399414 L 88.51924896240234 18.442447662353516 L 87.20740509033203 16.69332504272461 C 78.50428771972656 41.54072570800781 67.12263488769531 65.3670654296875 53.26347732543945 87.75146484375 L 55.39522171020508 87.4781723022461 C 43.32755661010742 73.43824768066406 32.868011474609375 58.09270477294922 24.211627960205078 41.72765350341797 Q 21.01401138305664 35.87902069091797 18.199016571044922 29.839082717895508 C 17.2971248626709 27.8439884185791 16.395233154296875 25.821563720703125 15.466011047363281 23.79914093017578 C 14.536788940429688 21.776716232299805 11.667133331298828 17.376577377319336 14.536788940429688 15.600123405456543 C 16.90963363647461 14.878732681274414 19.381698608398438 14.537439346313477 21.861244201660156 14.588911056518555 L 29.240358352661133 13.659688949584961 L 33.257877349853516 13.14041805267334 C 34.42622375488281 12.885802268981934 35.615562438964844 12.739422798156738 36.81078338623047 12.703137397766113 C 37.5213623046875 12.839787483215332 38.53257751464844 13.932990074157715 39.161170959472656 14.397600173950195 C 40.58232879638672 15.408812522888184 41.89417266845703 13.058427810668945 40.527671813964844 12.019886016845703 C 39.7768440246582 11.325282096862793 38.94120407104492 10.728398323059082 38.0406379699707 10.24343204498291 C 35.55572509765625 10.0 33.047298431396484 10.203636169433594 30.634191513061523 10.844693183898926 L 21.25998306274414 12.019886016845703 C 18.767269134521484 12.149629592895508 16.289798736572266 12.487882614135742 13.853538513183594 13.031097412109375 C 10.245970726013184 14.151630401611328 10.0 17.267257690429688 11.120532035827637 20.410213470458984 C 12.92431640625 25.22030258178711 15.192710876464844 29.893741607666016 17.37911605834961 34.56718063354492 C 26.93405532836914 54.37592315673828 39.074256896972656 72.82977294921875 53.48211669921875 89.44593048095703 C 54.02001190185547 89.97531127929688 54.88520431518555 89.96841430664062 55.41458511352539 89.4305191040039 C 55.49106216430664 89.35281372070312 55.557960510253906 89.2662353515625 55.61386489868164 89.1726303100586 C 69.58561706542969 66.5733871459961 81.05008697509766 42.51726531982422 89.80376434326172 17.431236267089844 C 90.0 16.702497482299805 89.56831359863281 15.952657699584961 88.8395767211914 15.756423950195312 C 88.72618865966797 15.72589111328125 88.60933685302734 15.710102081298828 88.4919204711914 15.709443092346191 L 39.84442138671875 11.80124568939209 C 38.095298767089844 11.6372652053833 38.095298767089844 14.370270729064941 39.84442138671875 14.534250259399414" stroke-width="1.0" fill="rgb(50, 51, 51)" opacity="1.0"/>
  </g>
</svg>
