<?xml version="1.0" ?>
<svg xmlns="http://www.w3.org/2000/svg" version="1.1" width="100" height="100">
  <defs/>
  <g>
    <path d="M 81.79022979736328 13.208499908447266 C 81.31819915771484 13.52651596069336 80.85270690917969 14.271703720092773 79.7192153930664 16.5230655670166 C 75.43788146972656 25.027605056762695 70.17472076416016 32.310752868652344 63.002723693847656 39.65492248535156 C 59.6883430480957 43.04885482788086 56.03832244873047 46.48637771606445 55.897926330566406 46.345985412597656 C 55.61278533935547 46.06084060668945 54.141845703125 32.49127960205078 53.836177825927734 27.327823638916016 C 53.63221740722656 23.88303565979004 53.5130729675293 23.502178192138672 52.48056411743164 22.996185302734375 C 51.38612365722656 22.459861755371094 49.89629364013672 22.880855560302734 49.38430404663086 23.871049880981445 C 48.750816345214844 25.09607696533203 49.24936294555664 31.9244441986084 50.86959457397461 44.21848678588867 C 51.231563568115234 46.965492248535156 51.53523254394531 49.41154861450195 51.544315338134766 49.65419387817383 C 51.55757141113281 50.01398468017578 51.10951614379883 50.440425872802734 49.108787536621094 51.97093963623047 C 46.141841888427734 54.24064636230469 42.84816360473633 56.56865310668945 42.603885650634766 56.56865310668945 C 42.37649917602539 56.56865310668945 40.907554626464844 52.589717864990234 40.10352325439453 49.79640197753906 C 39.764617919921875 48.618961334228516 39.35579299926758 46.65746307373047 39.19487762451172 45.437522888183594 C 39.033958435058594 44.21757888793945 38.8656005859375 42.952232360839844 38.820556640625 42.6254997253418 C 38.7088623046875 41.816558837890625 37.78968048095703 40.80730056762695 37.0357780456543 40.66581726074219 C 36.07591247558594 40.485652923583984 34.81892395019531 41.129859924316406 34.459495544433594 41.98619842529297 C 33.69633102416992 43.80366897583008 34.94514846801758 49.977294921875 37.397743225097656 56.511444091796875 C 37.94532775878906 57.970035552978516 38.39320373535156 59.231021881103516 38.39320373535156 59.313480377197266 C 38.39320373535156 59.44660568237305 34.99872589111328 61.51416778564453 30.855974197387695 63.90446853637695 C 28.31656265258789 65.36978149414062 23.48183822631836 67.75444793701172 21.3209228515625 68.60769653320312 C 20.172176361083984 69.06120300292969 17.444242477416992 70.05503845214844 15.258808135986328 70.81620025634766 C 13.07337474822998 71.5773696899414 11.143842697143555 72.27587890625 10.970940589904785 72.36833190917969 C 10.43280029296875 72.6563720703125 10.0 73.507080078125 10.0 74.276611328125 C 10.0 75.54740905761719 10.97929573059082 76.54685974121094 12.224482536315918 76.54685974121094 C 12.808935165405273 76.54685974121094 19.264076232910156 74.32400512695312 23.318742752075195 72.72647857666016 C 27.5230655670166 71.0699234008789 35.24627685546875 66.97184753417969 40.838356018066406 63.430076599121094 L 42.8294563293457 62.169090270996094 L 44.8339958190918 62.82365036010742 C 48.140933990478516 63.90355682373047 52.96585464477539 64.76407623291016 59.27951431274414 65.40011596679688 C 63.19869613647461 65.79476928710938 70.97293853759766 65.85198211669922 71.62967681884766 65.49073791503906 C 72.43733978271484 65.04649353027344 72.90101623535156 64.50799560546875 73.0946273803711 63.78914260864258 C 73.32218933105469 62.943519592285156 72.93570709228516 61.992733001708984 72.12258911132812 61.39847183227539 C 71.65165710449219 61.05412292480469 71.39501953125 61.03214645385742 68.39938354492188 61.0808219909668 C 63.10171127319336 61.166725158691406 56.365238189697266 60.54358673095703 50.743370056152344 59.44769287109375 C 49.1950569152832 59.145843505859375 47.90483093261719 58.87559127807617 47.87631607055664 58.84708023071289 C 47.847618103027344 58.81874465942383 48.91009521484375 57.988922119140625 50.23737716674805 57.003273010253906 C 51.56447219848633 56.017616271972656 53.28968048095703 54.69614791870117 54.07101058959961 54.066837310791016 L 55.491641998291016 52.922630310058594 L 56.51089859008789 53.111148834228516 C 58.996368408203125 53.57046890258789 63.0074462890625 53.268253326416016 67.41827392578125 52.28877258300781 C 73.72756958007812 50.887939453125 83.60479736328125 46.689971923828125 84.84253692626953 44.883216857910156 C 85.65528869628906 43.69705581665039 85.24427795410156 41.972572326660156 84.00926208496094 41.3864860534668 C 83.12549591064453 40.966941833496094 82.43370819091797 41.139305114746094 80.61986541748047 42.231021881103516 C 76.39556884765625 44.77351760864258 69.0364990234375 47.360877990722656 63.34543991088867 48.3045768737793 C 60.3521614074707 48.80094528198242 60.351436614990234 48.797672271728516 62.918087005615234 46.397926330566406 C 69.76062774658203 40.00054168701172 76.40210723876953 31.788774490356445 80.95767974853516 24.093353271484375 C 83.77079772949219 19.341445922851562 85.25118255615234 16.184345245361328 85.25118255615234 14.936796188354492 C 85.25118255615234 13.175081253051758 83.29186248779297 12.196512222290039 81.79022979736328 13.208499908447266" stroke-width="1.0" fill="rgb(72, 139, 76)" opacity="1.0"/>
    <path d="M 68.08808898925781 10.547947883605957 C 61.28168869018555 11.764983177185059 55.271522521972656 16.136760711669922 52.9996337890625 21.52342987060547 C 52.44187927246094 22.845985412597656 52.43134689331055 22.914819717407227 52.75517272949219 23.117145538330078 C 53.51561737060547 23.592079162597656 53.64129638671875 24.083181381225586 53.83544921875 27.339265823364258 C 54.14402389526367 32.514347076416016 55.614051818847656 46.062294006347656 55.897926330566406 46.345985412597656 C 56.03832244873047 46.48637771606445 59.6883430480957 43.04885482788086 63.002723693847656 39.65492248535156 C 70.87958526611328 31.58881187438965 76.6972427368164 23.235198974609375 81.2188491821289 13.497819900512695 C 81.3138427734375 13.293134689331055 78.66763305664062 11.743552207946777 77.4229965209961 11.275154113769531 C 74.78768920898438 10.283145904541016 71.15255737304688 10.0 68.08808898925781 10.547947883605957" stroke-width="1.0" fill="rgb(94, 176, 130)" opacity="1.0"/>
    <path d="M 40.30021667480469 63.73883056640625 C 39.00163269042969 64.56502532958984 36.731746673583984 65.93643188476562 35.255897521972656 66.78641510009766 L 32.57264709472656 68.33181762695312 L 33.88775634765625 69.54940032958984 C 37.43280029296875 72.83163452148438 42.63421630859375 75.4446029663086 47.861602783203125 76.56938171386719 C 50.37467956542969 77.11006164550781 55.186885833740234 77.23756408691406 57.66600036621094 76.82927703857422 C 63.377952575683594 75.88848876953125 67.73374938964844 73.22467041015625 69.71012878417969 69.46349334716797 C 70.21158599853516 68.50926208496094 70.88467407226562 66.4549560546875 70.90010833740234 65.8312759399414 C 70.90138244628906 65.78132629394531 68.96149444580078 65.73047637939453 66.58935546875 65.71830749511719 C 58.8815803527832 65.67889404296875 49.7173957824707 64.45858764648438 44.805118560791016 62.817474365234375 C 43.78659439086914 62.477294921875 42.887577056884766 62.2074089050293 42.80730056762695 62.21776580810547 C 42.72702407836914 62.228118896484375 41.59880065917969 62.91263961791992 40.30021667480469 63.73883056640625" stroke-width="1.0" fill="rgb(94, 176, 130)" opacity="1.0"/>
    <path d="M 43.1652717590332 25.42789649963379 C 38.636573791503906 26.647655487060547 35.847076416015625 30.71213150024414 35.85197448730469 36.08335876464844 C 35.85306930541992 37.43788528442383 36.079002380371094 39.457862854003906 36.317649841308594 40.249183654785156 C 36.36741638183594 40.414093017578125 36.683616638183594 40.599708557128906 37.0234260559082 40.663455963134766 C 37.78986358642578 40.80730056762695 38.70795440673828 41.809478759765625 38.820556640625 42.6254997253418 C 38.8656005859375 42.952232360839844 39.033958435058594 44.21757888793945 39.19487762451172 45.437522888183594 C 39.35579299926758 46.65746307373047 39.764617919921875 48.618961334228516 40.10352325439453 49.79640197753906 C 40.91154861450195 52.60334014892578 42.37704086303711 56.56865310668945 42.60642623901367 56.56865310668945 C 42.94660186767578 56.56865310668945 51.2847785949707 50.476749420166016 51.56465530395508 50.0237922668457 C 51.621864318847656 49.9311637878418 51.58427047729492 49.384124755859375 51.480926513671875 48.80784225463867 C 50.8488883972168 45.27914810180664 49.37486267089844 32.00944519042969 49.145835876464844 27.784597396850586 L 49.01797866821289 25.42607879638672 L 48.29149627685547 25.29767417907715 C 47.077003479003906 25.08300018310547 44.171810150146484 25.15673828125 43.1652717590332 25.42789649963379" stroke-width="1.0" fill="rgb(94, 176, 130)" opacity="1.0"/>
    <path d="M 83.909912109375 18.74627685546875 C 82.00435638427734 22.608789443969727 78.26679992675781 28.61005973815918 75.34925842285156 32.4921875 C 71.80294799804688 37.21086120605469 67.01071166992188 42.57155990600586 62.918087005615234 46.397926330566406 C 60.351436614990234 48.797672271728516 60.3521614074707 48.80094528198242 63.34543991088867 48.3045768737793 C 69.0364990234375 47.360877990722656 76.39556884765625 44.77351760864258 80.61986541748047 42.231021881103516 C 82.44351196289062 41.13349151611328 83.14765930175781 40.959678649902344 84.00944519042969 41.39411544799805 L 84.61550903320312 41.69960021972656 L 85.25118255615234 40.984378814697266 C 86.22920227050781 39.883758544921875 87.59898376464844 37.4865608215332 88.26898193359375 35.70323181152344 C 90.0 31.09425926208496 89.75444793701172 26.592988967895508 87.50563049316406 21.71885108947754 C 86.87322998046875 20.347984313964844 84.96949005126953 17.338722229003906 84.73465728759766 17.338722229003906 C 84.66291046142578 17.338722229003906 84.29186248779297 17.972211837768555 83.909912109375 18.74627685546875" stroke-width="1.0" fill="rgb(94, 176, 130)" opacity="1.0"/>
    <path d="M 82.79930877685547 46.40828323364258 C 79.522705078125 48.403011322021484 72.04776763916016 51.26080322265625 67.41827392578125 52.28877258300781 C 63.0074462890625 53.268253326416016 58.996368408203125 53.57046890258789 56.51089859008789 53.111148834228516 L 55.491641998291016 52.922630310058594 L 54.07101058959961 54.066837310791016 C 53.28968048095703 54.69614791870117 51.56447219848633 56.017616271972656 50.23737716674805 57.003273010253906 C 48.91009521484375 57.988922119140625 47.847618103027344 58.81874465942383 47.87631607055664 58.84708023071289 C 47.90483093261719 58.87559127807617 49.1950569152832 59.145843505859375 50.743370056152344 59.44769287109375 C 56.365238189697266 60.54358673095703 63.10171127319336 61.166725158691406 68.39938354492188 61.0808219909668 C 72.0773696899414 61.02107238769531 72.3160171508789 61.096622467041016 72.99092102050781 62.533966064453125 C 73.3478012084961 63.294044494628906 73.36396789550781 63.303672790527344 74.08063507080078 63.18452835083008 C 78.44278717041016 62.45914077758789 83.29749298095703 58.06356430053711 85.00508117675781 53.29295349121094 C 85.42118072509766 52.13094711303711 85.49164581298828 51.63911819458008 85.49927520751953 49.84870910644531 C 85.50689697265625 48.03141784667969 85.45005798339844 47.62023162841797 85.06175231933594 46.683799743652344 C 84.81637573242188 46.09189987182617 84.53377532958984 45.588809967041016 84.43389129638672 45.56574630737305 C 84.33399963378906 45.54267883300781 83.59843444824219 45.921722412109375 82.79930877685547 46.40828323364258" stroke-width="1.0" fill="rgb(94, 176, 130)" opacity="1.0"/>
    <path d="M 32.79658508300781 44.02760696411133 C 31.71467399597168 45.1205940246582 31.30493927001953 45.71013259887695 30.590627670288086 47.200687408447266 C 29.13421630859375 50.23992156982422 28.667818069458008 53.19796371459961 28.970212936401367 57.47675323486328 C 29.113874435424805 59.5074462890625 29.86233139038086 63.899383544921875 30.106611251831055 64.14347839355469 C 30.278785705566406 64.31565856933594 38.39320373535156 59.584632873535156 38.39320373535156 59.31220245361328 C 38.39320373535156 59.23047637939453 37.94532775878906 57.970035552978516 37.397743225097656 56.511444091796875 C 35.61096954345703 51.75099563598633 34.55139923095703 47.60370635986328 34.25844192504883 44.2237548828125 L 34.1251335144043 42.6850700378418 L 32.79658508300781 44.02760696411133" stroke-width="1.0" fill="rgb(94, 176, 130)" opacity="1.0"/>
  </g>
</svg>
