<?xml version="1.0" ?>
<svg xmlns="http://www.w3.org/2000/svg" version="1.1" width="100" height="100">
  <defs/>
  <g>
    <path d="M 32.10270690917969 67.66584777832031 C 30.48261070251465 68.59591674804688 32.35462951660156 63.82176971435547 32.296485900878906 63.015625 Q 30.7782039642334 63.79135513305664 29.263391494750977 64.57513427734375 C 29.301469802856445 67.53239440917969 27.53839111328125 69.09262084960938 28.4921932220459 64.97309875488281 C 26.6961669921875 65.84107971191406 12.580158233642578 73.85292053222656 20.148536682128906 68.63433837890625 C 11.612236976623535 68.4439468383789 16.24317169189453 66.15975952148438 21.067100524902344 68.04303741455078 Q 23.09415054321289 66.75051879882812 25.18356704711914 65.49104309082031 C 15.369138717651367 65.11775207519531 19.94075584411621 63.245216369628906 26.19797134399414 64.8812026977539 C 28.71103286743164 63.389156341552734 31.280635833740234 61.954734802246094 33.88630676269531 60.61292266845703 C 24.48865509033203 58.85980224609375 28.8584041595459 57.248985290527344 34.61433029174805 60.24075698852539 C 37.73151397705078 58.65342330932617 40.92803192138672 57.22697448730469 44.19130325317383 55.96701431274414 C 37.55903244018555 49.044036865234375 10.148730278015137 64.81607055664062 10.215864181518555 72.86786651611328 C 10.0 77.57268524169922 21.733688354492188 77.40052795410156 30.935611724853516 72.78471374511719 C 41.54833984375 67.25753784179688 43.93100357055664 60.405887603759766 44.43465042114258 56.76559829711914 C 40.68934631347656 58.73850631713867 36.924781799316406 60.655452728271484 33.162879943847656 62.57405471801758 C 33.14622497558594 64.32435607910156 32.78601837158203 66.05435180664062 32.10270690917969 67.66584777832031" stroke-width="1.0" fill="rgb(178, 206, 91)" opacity="1.0"/>
    <path d="M 44.29749298095703 72.33172607421875 C 43.379642486572266 73.47767639160156 43.10090637207031 69.53307342529297 42.70371627807617 68.89313507080078 C 42.163787841796875 69.64494323730469 37.000938415527344 76.98524475097656 35.2498893737793 79.69107055664062 C 35.184696197509766 79.79100799560547 35.05083465576172 79.81916046142578 34.950904846191406 79.75397491455078 C 34.85585021972656 79.69196319580078 34.824981689453125 79.56697845458984 34.8802375793457 79.46784210205078 C 35.24816131591797 78.81095123291016 37.78364181518555 74.46306610107422 38.47761154174805 73.33750915527344 C 31.239704132080078 76.72502899169922 33.84124755859375 73.66822814941406 38.98455810546875 72.51780700683594 C 40.247413635253906 70.50056457519531 41.57270050048828 68.50393676757812 42.95862579345703 66.5609130859375 C 35.66640090942383 68.7669677734375 38.03089904785156 65.99784851074219 43.34681701660156 66.01997375488281 C 45.01150894165039 63.70851135253906 46.7935905456543 61.4838981628418 48.6860466003418 59.35488510131836 C 41.30322265625 56.81654739379883 27.34193992614746 78.45543670654297 30.393190383911133 84.25930786132812 C 32.20402526855469 87.7145004272461 40.273990631103516 83.30311584472656 45.36147689819336 76.47268676757812 C 50.983055114746094 68.51387023925781 50.15303039550781 62.66530990600586 49.16001892089844 59.84228515625 C 47.184444427490234 62.667091369628906 45.17402648925781 65.45863342285156 43.166263580322266 68.25038146972656 C 43.80686569213867 69.52366638183594 44.19121551513672 70.91034698486328 44.29749298095703 72.33172607421875" stroke-width="1.0" fill="rgb(178, 206, 91)" opacity="1.0"/>
    <path d="M 48.14520263671875 72.73141479492188 C 44.48885726928711 69.68193054199219 42.89127731323242 64.56277465820312 43.447486877441406 59.83216094970703 C 27.001386642456055 60.568511962890625 23.74835968017578 38.145957946777344 40.48847961425781 35.34602737426758 C 36.157676696777344 18.905601501464844 59.55232620239258 10.0 64.2718505859375 27.742328643798828 C 79.37865447998047 18.111907958984375 90.0 36.52556610107422 75.56058502197266 46.08045196533203 C 87.75381469726562 54.8298225402832 79.45799255371094 74.00997924804688 64.70703125 66.6236343383789 C 61.39757537841797 73.85196685791016 52.83666229248047 76.6296615600586 48.14520263671875 72.73141479492188" stroke-width="1.0" fill="rgb(240, 134, 158)" opacity="1.0"/>
    <path d="M 53.37599182128906 59.4811897277832 C 51.49851989746094 57.780799865722656 50.581634521484375 55.26311111450195 50.92594528198242 52.75358963012695 C 42.415157318115234 53.27265548706055 40.704158782958984 41.291664123535156 49.38267517089844 39.982810974121094 C 47.00220489501953 31.49648666381836 59.476009368896484 26.793970108032227 61.78689193725586 36.01715087890625 C 69.5067367553711 30.9187068939209 75.23682403564453 40.75383758544922 67.67452239990234 45.58140563964844 C 74.06209564208984 50.00650405883789 69.5804443359375 60.23146057128906 62.013851165771484 56.2956428527832 C 60.58979797363281 59.912532806396484 55.46489715576172 61.541900634765625 53.37599182128906 59.4811897277832" stroke-width="1.0" fill="rgb(238, 114, 100)" opacity="1.0"/>
    <path d="M 56.39808654785156 41.81971740722656 C 51.35874938964844 42.84189987182617 53.41178894042969 51.70845031738281 58.413818359375 50.16537857055664 C 61.966819763183594 49.961814880371094 64.32706451416016 40.37782287597656 56.39808654785156 41.81971740722656" stroke-width="1.0" fill="rgb(255, 230, 0)" opacity="1.0"/>
  </g>
</svg>
