<?xml version="1.0" ?>
<svg xmlns="http://www.w3.org/2000/svg" version="1.1" width="100" height="100">
  <defs/>
  <g>
    <path d="M 48.32364273071289 10.154621124267578 C 47.955814361572266 10.211869239807129 47.26362991333008 10.26630687713623 46.78545379638672 10.27553653717041 C 45.97556686401367 10.291051864624023 43.34820556640625 10.649517059326172 41.970252990722656 10.93241024017334 C 41.63920974731445 11.000357627868652 41.00721740722656 11.12702465057373 40.56582260131836 11.21369743347168 C 40.124427795410156 11.300505638122559 39.6588249206543 11.427305221557617 39.531089782714844 11.495655059814453 C 39.403350830078125 11.56386947631836 39.19268798828125 11.621652603149414 39.06294631958008 11.624059677124023 C 38.933204650878906 11.626334190368652 38.71009826660156 11.716618537902832 38.5673828125 11.82469367980957 C 38.424530029296875 11.932634353637695 38.172264099121094 12.02104663848877 38.006813049316406 12.02104663848877 C 37.841224670410156 12.02104663848877 37.668678283691406 12.081236839294434 37.623199462890625 12.154802322387695 C 37.577720642089844 12.228367805480957 37.392738342285156 12.288558006286621 37.2121696472168 12.288558006286621 C 36.884063720703125 12.288558006286621 36.80902862548828 12.315576553344727 35.97386169433594 12.734097480773926 C 35.72882080078125 12.856884956359863 35.406471252441406 12.957335472106934 35.25746536254883 12.957335472106934 C 35.10859680175781 12.957335472106934 34.80791473388672 13.107810974121094 34.58935546875 13.29172420501709 C 34.37080001831055 13.475638389587402 34.05714416503906 13.626113891601562 33.89249038696289 13.626113891601562 C 33.56157684326172 13.626113891601562 31.628543853759766 14.568822860717773 31.204269409179688 14.937051773071289 C 31.05647087097168 15.065457344055176 30.415245056152344 15.427934646606445 29.77950668334961 15.742795944213867 C 29.14376449584961 16.05752182006836 28.51752281188965 16.43230438232422 28.387779235839844 16.57569122314453 C 28.258037567138672 16.718944549560547 28.071046829223633 16.836246490478516 27.97206687927246 16.836246490478516 C 27.87308692932129 16.836246490478516 27.792165756225586 16.889480590820312 27.792165756225586 16.95435333251953 C 27.792165756225586 17.019357681274414 27.686899185180664 17.10897445678711 27.558094024658203 17.153514862060547 C 27.116565704345703 17.306129455566406 25.537580490112305 18.472078323364258 24.613998413085938 19.327577590942383 C 24.306228637695312 19.612611770629883 23.766925811767578 20.08650779724121 23.415414810180664 20.380769729614258 C 22.18700408935547 21.409082412719727 19.669857025146484 24.047544479370117 18.76366424560547 25.256427764892578 C 18.469402313232422 25.64900016784668 18.063186645507812 26.165029525756836 17.860815048217773 26.403247833251953 C 17.65857696533203 26.64146614074707 17.49298667907715 26.87326431274414 17.49298667907715 26.918474197387695 C 17.49298667907715 26.96368408203125 17.20367431640625 27.407217025756836 16.85002326965332 27.90398597717285 C 16.49650764465332 28.40088653564453 16.165061950683594 28.897655487060547 16.11356544494629 29.00800323486328 C 16.062068939208984 29.118350982666016 15.870665550231934 29.449398040771484 15.688356399536133 29.7436580657959 C 15.505914688110352 30.037919998168945 15.235193252563477 30.519441604614258 15.086723327636719 30.813703536987305 C 14.938121795654297 31.10796546936035 14.546083450317383 31.854856491088867 14.215307235717773 32.47334289550781 C 13.884662628173828 33.09196472167969 13.614075660705566 33.71285629272461 13.614075660705566 33.853302001953125 C 13.614075660705566 33.993743896484375 13.463600158691406 34.30579376220703 13.279685974121094 34.54695510864258 C 13.095772743225098 34.788116455078125 12.945297241210938 35.121437072753906 12.945297241210938 35.287696838378906 C 12.945297241210938 35.45408630371094 12.764727592468262 35.857627868652344 12.544031143188477 36.18465805053711 C 12.323333740234375 36.51169204711914 12.1427640914917 36.899986267089844 12.1427640914917 37.047645568847656 C 12.1427640914917 37.433799743652344 11.85947036743164 38.548919677734375 11.723306655883789 38.69859313964844 C 11.659772872924805 38.76854705810547 11.607742309570312 38.93480682373047 11.607742309570312 39.068294525146484 C 11.607742309570312 39.2016487121582 11.55183219909668 39.41539001464844 11.483616828918457 39.543128967285156 C 11.415267944335938 39.670860290527344 11.289002418518066 40.13646697998047 11.202863693237305 40.577857971191406 C 11.116724967956543 41.01925277709961 10.99152946472168 41.62115478515625 10.924652099609375 41.91541290283203 C 10.650052070617676 43.12295913696289 10.269651412963867 46.06264114379883 10.121450424194336 48.12327575683594 C 10.0 49.81127166748047 10.000133514404297 50.72294998168945 10.12171745300293 52.06906509399414 C 10.335726737976074 54.43894577026367 10.6539306640625 57.06162643432617 10.796781539916992 57.631690979003906 C 10.861251831054688 57.8891716003418 11.01333236694336 58.55126190185547 11.134781837463379 59.103004455566406 C 11.501138687133789 60.767059326171875 12.14637565612793 62.97643280029297 12.488388061523438 63.73776626586914 C 12.592584609985352 63.969566345214844 12.677785873413086 64.19601440429688 12.677785873413086 64.2408218383789 C 12.677785873413086 64.28562927246094 12.80418586730957 64.60757446289062 12.958673477172852 64.95628356933594 C 13.113027572631836 65.30484771728516 13.306169509887695 65.7406234741211 13.387761116027832 65.9245376586914 C 13.469351768493652 66.10845184326172 13.595483779907227 66.33944702148438 13.668112754821777 66.43789672851562 C 13.740741729736328 66.53633117675781 13.904994010925293 66.91459655761719 14.03313159942627 67.27841186523438 C 14.617509841918945 68.93791198730469 16.921449661254883 72.65016174316406 18.861438751220703 75.05843353271484 C 21.13742446899414 77.88362121582031 24.809146881103516 81.30107879638672 27.245372772216797 82.86173248291016 C 27.7301025390625 83.17218017578125 28.277029037475586 83.54241943359375 28.4609432220459 83.68460845947266 C 28.64485740661621 83.82664489746094 29.21666145324707 84.17093658447266 29.73162078857422 84.44981384277344 C 30.24658203125 84.72856903076172 30.728099822998047 85.00182342529297 30.801666259765625 85.05706787109375 C 31.1016788482666 85.2824478149414 33.308380126953125 86.38900756835938 33.453773498535156 86.38700103759766 C 33.54004669189453 86.38593292236328 33.91148376464844 86.53158569335938 34.27931213378906 86.71082305908203 C 35.28020477294922 87.1986312866211 35.753562927246094 87.38348388671875 37.22193145751953 87.85977935791016 C 37.95758819580078 88.09839630126953 38.74915313720703 88.37674713134766 38.980953216552734 88.47840118408203 C 39.21275329589844 88.57992553710938 39.504737854003906 88.6629867553711 39.629669189453125 88.6629867553711 C 39.75459289550781 88.6629867553711 40.407588958740234 88.8063735961914 41.080780029296875 88.9815902709961 C 42.19576644897461 89.27197265625 43.514732360839844 89.489990234375 46.42725372314453 89.86558532714844 C 47.0028076171875 89.9398193359375 48.59783935546875 90.0 49.971778869628906 89.99933624267578 C 56.334529876708984 89.99639129638672 62.42481994628906 88.57041931152344 67.91883850097656 85.79727172851562 C 69.22923278808594 85.13584899902344 71.30338287353516 83.9751205444336 71.53023529052734 83.77635955810547 C 71.64057922363281 83.67964935302734 72.18229675292969 83.29737854003906 72.7340316772461 82.92674255371094 C 74.97350311279297 81.42252349853516 77.74665832519531 79.02803802490234 79.36109161376953 77.20468139648438 C 81.38601684570312 74.91732788085938 83.98568725585938 71.41654205322266 84.33465576171875 70.50713348388672 C 84.38428497314453 70.3776626586914 84.58625793457031 70.03083801269531 84.78327178955078 69.736572265625 C 84.98043060302734 69.44230651855469 85.48374938964844 68.4792709350586 85.90187072753906 67.59648132324219 C 86.32012176513672 66.71369934082031 86.71537017822266 65.89190673828125 86.78024291992188 65.77030944824219 C 87.24437713623047 64.90050506591797 88.30880737304688 61.7132453918457 88.87297821044922 59.504268646240234 C 89.52116394042969 56.965858459472656 89.98274993896484 53.022743225097656 89.98475646972656 50.007625579833984 C 89.98796844482422 45.11671829223633 89.09555053710938 40.388729095458984 87.247314453125 35.50504684448242 C 86.63712310791016 33.89289093017578 84.54090881347656 29.761981964111328 83.72299194335938 28.559921264648438 C 83.51527404785156 28.25469207763672 83.08257293701172 27.613601684570312 82.76155853271484 27.135425567626953 C 81.14659881591797 24.72943115234375 78.0403823852539 21.375106811523438 75.40914154052734 19.195693969726562 C 72.52336120605469 16.805482864379883 68.98406219482422 14.651750564575195 65.71186828613281 13.29466724395752 C 63.34011459350586 12.311028480529785 63.389469146728516 12.328283309936523 60.562278747558594 11.497795104980469 C 58.46592712402344 10.88198471069336 55.447731018066406 10.399662017822266 52.135677337646484 10.15087604522705 C 50.12613296508789 10.0 49.31089401245117 10.000802993774414 48.32364273071289 10.154621124267578" stroke-width="1.0" fill="rgb(81, 55, 54)" opacity="1.0"/>
    <path d="M 47.253597259521484 11.499533653259277 C 40.95411682128906 12.016900062561035 35.02473068237305 13.91836929321289 30.014381408691406 17.027650833129883 C 28.03827476501465 18.25405502319336 27.67031478881836 18.498828887939453 27.66402816772461 18.591388702392578 C 27.660951614379883 18.637130737304688 27.88418960571289 18.711097717285156 28.15999412536621 18.75577163696289 C 28.831579208374023 18.864383697509766 30.37886619567871 19.636152267456055 31.19824981689453 20.271358489990234 C 32.258399963378906 21.093151092529297 33.346900939941406 22.500125885009766 34.0666389465332 23.978660583496094 C 34.67188262939453 25.222187042236328 35.413291931152344 27.473424911499023 35.6219482421875 28.701168060302734 C 35.85588836669922 30.078048706054688 36.671661376953125 33.999359130859375 36.896240234375 34.82637023925781 C 37.29095458984375 36.27975845336914 37.69007873535156 38.83141326904297 37.69007873535156 39.90092468261719 C 37.69007873535156 42.682769775390625 36.259559631347656 45.09531784057617 33.97475051879883 46.16643524169922 C 33.229061126708984 46.51606750488281 32.915672302246094 46.58736038208008 32.13922119140625 46.583885192871094 C 31.063961029052734 46.579071044921875 30.31894302368164 46.25778579711914 28.450645446777344 44.99285888671875 C 27.858776092529297 44.59212875366211 27.15241241455078 44.2025032043457 26.88102149963379 44.127197265625 C 26.16997718811035 43.92964172363281 24.905319213867188 43.957061767578125 23.410198211669922 44.20236587524414 C 20.94240951538086 44.607242584228516 18.537616729736328 44.129337310791016 16.422943115234375 42.81358337402344 C 15.313037872314453 42.12300491333008 13.99233627319336 40.85914611816406 13.39846134185791 39.91911315917969 C 13.186058044433594 39.582855224609375 12.982080459594727 39.308250427246094 12.945297241210938 39.30905532836914 C 12.817561149597168 39.31186294555664 12.137280464172363 42.32631301879883 11.87418270111084 44.055503845214844 C 11.412324905395508 47.09001541137695 11.270410537719727 49.83681869506836 11.451648712158203 52.23532485961914 C 12.038033485412598 59.997962951660156 14.245401382446289 66.31576538085938 18.477561950683594 72.34480285644531 C 19.42909812927246 73.70028686523438 20.107372283935547 74.53211212158203 21.620548248291016 76.19910430908203 L 22.7515869140625 77.4451675415039 L 23.156597137451172 76.734130859375 C 23.742847442626953 75.70474243164062 25.147415161132812 74.37320709228516 26.266281127929688 73.78628540039062 C 27.532011032104492 73.12232208251953 28.548688888549805 72.87153625488281 30.001541137695312 72.86471557617188 C 31.3602294921875 72.85842895507812 31.50749397277832 72.88436889648438 33.276145935058594 73.44160461425781 C 34.328399658203125 73.77317810058594 34.70772933959961 73.83190155029297 35.48310852050781 73.7830810546875 C 36.66363525390625 73.70870971679688 37.39701843261719 73.35118103027344 39.362022399902344 71.89163970947266 C 41.418914794921875 70.36388397216797 42.02309036254883 70.00475311279297 43.19759750366211 69.61190795898438 C 45.23897171020508 68.92909240722656 47.63961410522461 69.27471160888672 49.677650451660156 70.54499053955078 C 51.37260437011719 71.60152435302734 52.64247512817383 73.34208679199219 53.2837028503418 75.4880599975586 C 53.590667724609375 76.51557159423828 53.643367767333984 76.93663024902344 53.643367767333984 78.36380767822266 C 53.643367767333984 79.78990173339844 53.59080123901367 80.2105712890625 53.286109924316406 81.22429656982422 C 52.563560485839844 83.62828826904297 51.50608825683594 85.3263168334961 49.49667739868164 87.30950927734375 L 48.08970642089844 88.69815826416016 L 51.08248519897461 88.62700653076172 C 54.49726486206055 88.54581451416016 56.93616485595703 88.20393371582031 60.02725601196289 87.37317657470703 C 70.74642944335938 84.49261474609375 79.63916778564453 77.22420501708984 84.63159942626953 67.26329803466797 C 85.69281005859375 65.14594268798828 87.19488525390625 61.21366500854492 87.01217651367188 61.031089782714844 C 86.96188354492188 60.980796813964844 86.57279205322266 61.0677375793457 86.14745330810547 61.22423553466797 C 85.42958068847656 61.4884033203125 83.63270568847656 62.01860809326172 82.6988296508789 62.24211120605469 C 80.00860595703125 62.88561248779297 75.23271942138672 63.145233154296875 72.46652221679688 62.79840087890625 C 69.725341796875 62.45465087890625 68.99435424804688 62.32530975341797 67.45068359375 61.91120147705078 C 64.35357666015625 61.0803108215332 61.32294845581055 59.75385665893555 59.03813552856445 58.22944641113281 C 55.29190444946289 55.729957580566406 53.5267333984375 52.51313400268555 54.18681716918945 49.38887023925781 C 54.57444381713867 47.55414962768555 55.72473907470703 45.9632568359375 57.177459716796875 45.25248336791992 C 58.153873443603516 44.77470779418945 58.7876091003418 44.71706008911133 60.816680908203125 44.92156982421875 C 62.71788024902344 45.11310958862305 63.43467712402344 45.00730514526367 63.988426208496094 44.45355987548828 C 64.46874237060547 43.973243713378906 64.4070816040039 43.40371322631836 63.77147674560547 42.450439453125 C 62.983253479003906 41.268306732177734 62.79559326171875 40.68499755859375 62.85926055908203 39.615089416503906 C 62.93202590942383 38.388946533203125 63.41675567626953 37.375083923339844 64.43891906738281 36.310523986816406 C 65.51029968261719 35.19486999511719 66.74539184570312 34.60821533203125 68.89070129394531 34.195980072021484 C 70.17060852050781 33.95000457763672 70.44961547851562 33.85584259033203 70.38461303710938 33.691184997558594 C 70.34074401855469 33.57990264892578 70.21461486816406 33.037391662597656 70.10440063476562 32.48564910888672 C 69.51614379882812 29.54034996032715 70.90987396240234 25.98499298095703 73.36322021484375 24.172605514526367 C 74.24801635742188 23.51907730102539 75.78366088867188 22.772186279296875 76.48707580566406 22.653276443481445 C 76.77706146240234 22.60432243347168 77.01421356201172 22.514572143554688 77.01421356201172 22.453712463378906 C 77.01421356201172 22.27341079711914 73.98304748535156 19.702762603759766 72.60536193847656 18.714710235595703 C 67.61962127685547 15.139156341552734 61.78333282470703 12.742925643920898 55.99091339111328 11.893176078796387 C 52.54764175415039 11.388114929199219 50.00548553466797 11.273487091064453 47.253597259521484 11.499533653259277" stroke-width="1.0" fill="rgb(64, 153, 219)" opacity="1.0"/>
    <path d="M 76.89704132080078 24.002601623535156 C 74.9931640625 24.514617919921875 73.05892944335938 26.038496017456055 72.23151397705078 27.678340911865234 C 71.58467102050781 28.960386276245117 71.31488800048828 30.5008487701416 71.49786376953125 31.86809730529785 C 71.57798767089844 32.467323303222656 71.74424743652344 33.22759246826172 71.8671646118164 33.55756378173828 C 72.41796875 35.03596496582031 72.29330444335938 35.19352722167969 70.393310546875 35.421852111816406 C 67.97260284423828 35.7127685546875 66.64534759521484 36.1976318359375 65.57891845703125 37.18073654174805 C 64.75297546386719 37.94194030761719 64.41456604003906 38.63465881347656 64.34381103515625 39.70845031738281 C 64.29017639160156 40.52301788330078 64.3165283203125 40.62427520751953 64.76139831542969 41.313514709472656 C 65.02262115478516 41.71812438964844 65.33641052246094 42.25983428955078 65.45880126953125 42.51731491088867 C 66.24702453613281 44.17561721801758 65.38536834716797 45.765567779541016 63.379703521728516 46.35409164428711 C 62.73513412475586 46.54322052001953 62.44662857055664 46.5516471862793 61.22490310668945 46.4174919128418 C 58.422054290771484 46.10945129394531 57.711143493652344 46.263404846191406 56.71613693237305 47.3939094543457 C 56.02756118774414 48.176109313964844 55.61225128173828 49.24468231201172 55.51808547973633 50.47576904296875 C 55.45869827270508 51.25275421142578 55.503639221191406 51.576175689697266 55.78239059448242 52.37723922729492 C 56.62263870239258 54.791259765625 58.82158279418945 56.76896667480469 62.72175979614258 58.618408203125 C 64.86412048339844 59.63441467285156 66.77896881103516 60.304664611816406 68.85511779785156 60.76558303833008 C 71.13458251953125 61.27171325683594 72.01856994628906 61.3780517578125 74.67349243164062 61.4661979675293 C 78.81055450439453 61.603294372558594 82.2562255859375 61.099571228027344 85.77105712890625 59.843475341796875 C 87.54826354980469 59.20840072631836 87.6650390625 59.11958694458008 87.83824920654297 58.27064514160156 C 88.5511703491211 54.7786865234375 88.84408569335938 49.825584411621094 88.52882385253906 46.596858978271484 C 87.72830200195312 38.40232467651367 84.74609375 31.275426864624023 79.53162384033203 25.095653533935547 C 78.3046875 23.641462326049805 78.27900695800781 23.630897521972656 76.89704132080078 24.002601623535156" stroke-width="1.0" fill="rgb(35, 156, 147)" opacity="1.0"/>
    <path d="M 25.919586181640625 20.01120376586914 C 25.536376953125 20.082359313964844 24.326692581176758 21.10211181640625 22.776599884033203 22.660633087158203 C 19.58171272277832 25.872905731201172 17.36832618713379 28.95155906677246 15.37643814086914 32.953792572021484 C 14.219854354858398 35.27766036987305 13.571942329406738 36.978363037109375 13.67760944366455 37.41307067871094 C 13.995144844055176 38.71919250488281 16.107011795043945 41.081451416015625 17.656169891357422 41.86338424682617 C 19.621036529541016 42.855316162109375 21.00139617919922 43.0695915222168 23.234577178955078 42.72958755493164 C 26.276447296142578 42.26652526855469 27.340606689453125 42.47250747680664 29.415021896362305 43.926029205322266 C 30.589529037475586 44.7490234375 31.558855056762695 45.19242477416992 32.18376159667969 45.19242477416992 C 33.47410202026367 45.19242477416992 34.86623001098633 44.129337310791016 35.648162841796875 42.5470085144043 L 36.151885986328125 41.52765655517578 L 36.14225769042969 39.648258209228516 C 36.13316345214844 37.865966796875 36.097312927246094 37.62065887451172 35.44606018066406 34.89324951171875 C 35.068336486816406 33.311588287353516 34.663455963134766 31.44569969177246 34.54615020751953 30.746826171875 C 34.16949462890625 28.502004623413086 33.44266891479492 25.944332122802734 32.814422607421875 24.653057098388672 C 31.589487075805664 22.135107040405273 29.788867950439453 20.581401824951172 27.543914794921875 20.105634689331055 C 26.63170051574707 19.91222381591797 26.494869232177734 19.90433120727539 25.919586181640625 20.01120376586914" stroke-width="1.0" fill="rgb(35, 156, 147)" opacity="1.0"/>
    <path d="M 44.84599685668945 70.70402526855469 C 43.48891830444336 70.84085845947266 42.51571273803711 71.31796264648438 40.46497344970703 72.85133361816406 C 38.563232421875 74.2732925415039 37.62266540527344 74.81433868408203 36.611473083496094 75.0675277709961 C 35.24542999267578 75.40968322753906 34.50348663330078 75.32514953613281 32.031951904296875 74.5462875366211 C 30.329776763916016 74.00979614257812 28.879331588745117 74.1363296508789 27.13983917236328 74.97296905517578 C 25.9248046875 75.55734252929688 24.82158660888672 76.6083984375 24.243762969970703 77.73221588134766 L 23.84637451171875 78.50491333007812 L 24.44827651977539 79.04341888427734 C 29.645483016967773 83.6923599243164 36.63568115234375 87.036376953125 43.441566467285156 88.12915802001953 C 45.930355072021484 88.52882385253906 45.676353454589844 88.56855010986328 47.013641357421875 87.57006072998047 C 49.59284973144531 85.64398956298828 51.33381271362305 83.21257781982422 51.96419906616211 80.65583801269531 C 52.26461410522461 79.43719482421875 52.25739288330078 77.09393310546875 51.949623107910156 75.95620727539062 C 51.46315002441406 74.15839385986328 50.16719436645508 72.44404602050781 48.62967300415039 71.564208984375 C 47.60725021362305 70.97929382324219 45.9200553894043 70.59568786621094 44.84599685668945 70.70402526855469" stroke-width="1.0" fill="rgb(35, 156, 147)" opacity="1.0"/>
    <path d="M 46.116676330566406 14.64385986328125 C 42.103878021240234 15.365337371826172 40.17311477661133 16.027828216552734 37.4648323059082 17.612964630126953 C 36.50072479248047 18.177146911621094 36.2633056640625 18.484516143798828 36.417259216308594 18.969512939453125 C 36.57188034057617 19.456518173217773 36.978363037109375 19.42869758605957 37.86235427856445 18.87040138244629 C 39.848487854003906 17.616043090820312 42.036598205566406 16.755191802978516 44.643226623535156 16.202781677246094 C 46.11052322387695 15.891798973083496 46.61478042602539 15.848730087280273 48.724910736083984 15.85421371459961 C 50.799190521240234 15.859697341918945 51.354679107666016 15.908517837524414 52.73757553100586 16.207462310791016 C 54.524417877197266 16.59361457824707 55.78961181640625 17.010530471801758 57.3191032409668 17.71702766418457 C 58.15788650512695 18.104516983032227 58.40092086791992 18.165510177612305 58.65117645263672 18.051416397094727 C 58.87200927734375 17.95083236694336 58.957210540771484 17.799287796020508 58.957210540771484 17.50689697265625 C 58.957210540771484 17.14281463623047 58.87240982055664 17.06015396118164 58.121238708496094 16.69165802001953 C 56.75880432128906 16.02328109741211 54.84716796875 15.367877960205078 53.20572280883789 15.00606918334961 C 51.91203689575195 14.721036911010742 51.25288772583008 14.660445213317871 49.05929946899414 14.625401496887207 C 47.62477111816406 14.602529525756836 46.30059051513672 14.610821723937988 46.116676330566406 14.64385986328125" stroke-width="1.0" fill="rgb(81, 55, 54)" opacity="1.0"/>
    <path d="M 70.90987396240234 72.57887268066406 C 70.63246154785156 72.92837524414062 70.21127319335938 73.45497131347656 69.9738540649414 73.74923706054688 C 68.7109375 75.31511688232422 67.08380126953125 76.7702407836914 65.23743438720703 77.98487091064453 C 63.138275146484375 79.36590576171875 61.33056640625 80.14476013183594 58.6463623046875 80.82463836669922 C 57.247413635253906 81.178955078125 56.88520431518555 81.31926727294922 56.80414962768555 81.53809356689453 C 56.66062545776367 81.92611694335938 57.01374053955078 82.37647247314453 57.46128845214844 82.37647247314453 C 57.99403762817383 82.37647247314453 61.009822845458984 81.52069854736328 62.16734313964844 81.04119110107422 C 65.95744323730469 79.47076416015625 69.63331604003906 76.59073638916016 71.73139953613281 73.54793548583984 C 72.35604095458984 72.64200592041016 72.36500549316406 72.61459350585938 72.14751434326172 72.28274536132812 C 71.81901550292969 71.78129577636719 71.47846984863281 71.86274719238281 70.90987396240234 72.57887268066406" stroke-width="1.0" fill="rgb(81, 55, 54)" opacity="1.0"/>
    <path d="M 21.973796844482422 76.69185638427734 L 22.709453582763672 77.4275131225586 L 21.973796844482422 76.69185638427734 L 21.238142013549805 75.95620727539062 L 21.973796844482422 76.69185638427734" stroke-width="1.0" fill="rgb(80, 112, 112)" opacity="1.0"/>
    <path d="M 77.41548156738281 77.42122650146484 L 76.8135757446289 78.03690338134766 L 77.41548156738281 77.42122650146484 L 78.01737976074219 76.80554962158203 L 77.41548156738281 77.42122650146484" stroke-width="1.0" fill="rgb(80, 112, 112)" opacity="1.0"/>
    <path d="M 15.62040901184082 40.377227783203125 L 16.289186477661133 41.04600524902344 L 15.62040901184082 40.377227783203125 L 14.951631546020508 39.70845031738281 L 15.62040901184082 40.377227783203125" stroke-width="1.0" fill="rgb(80, 112, 112)" opacity="1.0"/>
    <path d="M 31.938589096069336 20.982669830322266 L 32.60736846923828 21.651447296142578 L 31.938589096069336 20.982669830322266 L 31.26980972290039 20.313892364501953 L 31.938589096069336 20.982669830322266" stroke-width="1.0" fill="rgb(90, 131, 168)" opacity="1.0"/>
  </g>
</svg>
