<?xml version="1.0" ?>
<svg xmlns="http://www.w3.org/2000/svg" version="1.1" width="100" height="100">
  <defs/>
  <g>
    <path d="M 41.82366180419922 10.21936321258545 C 36.182579040527344 10.426146507263184 26.289958953857422 11.167871475219727 19.763273239135742 11.873626708984375 C 13.59469223022461 12.540754318237305 10.614326477050781 12.966723442077637 10.468673706054688 13.202388763427734 C 10.094976425170898 13.806967735290527 10.0 25.79559326171875 10.286698341369629 36.16167068481445 C 10.450423240661621 42.081295013427734 10.84237289428711 50.222023010253906 11.165568351745605 54.41243362426758 C 11.456517219543457 58.18715286254883 11.869729042053223 63.048763275146484 12.05418586730957 64.86675262451172 C 12.153059005737305 65.84130859375 12.285776138305664 67.18406677246094 12.348857879638672 67.85084533691406 C 12.444007873535156 68.85392761230469 12.527998924255371 69.08958435058594 12.835602760314941 69.21734619140625 C 13.197959899902344 69.36796569824219 17.038061141967773 69.53665161132812 29.686017990112305 69.9580078125 C 43.09944534301758 70.4048843383789 75.63753509521484 70.19384765625 87.45056915283203 69.58360290527344 L 89.57686614990234 69.47373962402344 L 89.74980926513672 66.99305725097656 C 90.0 63.40190887451172 89.96403503417969 40.648521423339844 89.69895935058594 34.832733154296875 C 89.40924835205078 28.48128890991211 89.2171630859375 25.05368995666504 88.85960388183594 19.86001968383789 C 88.69853210449219 17.521085739135742 88.51496124267578 14.730314254760742 88.45152282714844 13.658303260803223 L 88.3365249633789 11.709192276000977 L 86.91899108886719 11.596321105957031 C 79.85221862792969 11.033382415771484 77.93643188476562 10.885604858398438 74.6927490234375 10.652597427368164 C 72.64618682861328 10.505528450012207 69.13778686523438 10.303884506225586 66.89630889892578 10.204479217529297 C 62.28772735595703 10.0 47.571407318115234 10.008859634399414 41.82366180419922 10.21936321258545" stroke-width="1.0" fill="rgb(0, 0, 0)" opacity="1.0"/>
    <path d="M 86.25841522216797 14.411369323730469 C 85.84590911865234 14.776915550231934 85.38716125488281 15.206073760986328 85.23902893066406 15.36536979675293 C 85.0910873413086 15.52448844909668 84.48579406738281 16.0826416015625 83.89414978027344 16.605712890625 C 83.3025131225586 17.128604888916016 82.19151306152344 18.11467933654785 81.42515563964844 18.79686737060547 C 80.65898132324219 19.47905731201172 79.82742309570312 20.19491195678711 79.57721710205078 20.3876953125 C 79.32720947265625 20.580303192138672 78.78588104248047 21.049684524536133 78.37461853027344 21.430469512939453 C 77.96318054199219 21.811433792114258 77.44489288330078 22.24803352355957 77.22286987304688 22.400951385498047 C 77.00067901611328 22.553691864013672 76.73931884765625 22.77110481262207 76.64186096191406 22.883975982666016 C 76.3946762084961 23.17013931274414 71.38972473144531 27.287015914916992 71.04188537597656 27.49025535583496 C 70.72259521484375 27.676837921142578 69.57722473144531 28.606563568115234 68.6046142578125 29.468603134155273 C 68.24970245361328 29.783117294311523 67.91197204589844 30.042171478271484 67.85420989990234 30.044475555419922 C 67.7962646484375 30.04677963256836 67.5171890258789 30.25179100036621 67.23403930664062 30.500213623046875 C 66.95071411132812 30.74863624572754 65.58845520019531 31.80062484741211 64.20654296875 32.83772659301758 L 61.69413375854492 34.72357940673828 L 62.131446838378906 35.4700927734375 C 62.3720703125 35.880462646484375 62.60082244873047 36.363494873046875 62.63980484008789 36.54334259033203 C 63.120174407958984 38.761253356933594 63.138423919677734 38.983978271484375 62.942630767822266 40.243106842041016 C 62.49858474731445 43.09944152832031 60.40222930908203 46.09699630737305 57.50514221191406 48.0179328918457 C 54.91565704345703 49.73509979248047 51.76253128051758 51.488765716552734 51.26462173461914 51.488765716552734 C 51.02434539794922 51.488765716552734 47.53898620605469 49.630733489990234 46.60784149169922 49.006309509277344 C 46.364200592041016 48.8427619934082 45.83900833129883 48.495643615722656 45.44085693359375 48.23446273803711 C 42.84074020385742 46.529876708984375 40.43926239013672 43.60053634643555 39.934085845947266 41.517826080322266 C 39.55330276489258 39.947021484375 39.47746276855469 38.982566833496094 39.661033630371094 38.04681396484375 C 39.98228454589844 36.40973663330078 40.03118896484375 36.22333526611328 40.19473648071289 36.010704040527344 C 40.62123489379883 35.45591354370117 40.551422119140625 35.21316146850586 39.82794952392578 34.73439025878906 C 39.42536926269531 34.467891693115234 39.01197814941406 34.17782974243164 38.909385681152344 34.0895881652832 C 38.70490264892578 33.91399383544922 38.26777648925781 33.61187744140625 34.204410552978516 30.83740997314453 C 32.693851470947266 29.80597496032715 30.899782180786133 28.565631866455078 30.217594146728516 28.08101463317871 C 29.535404205322266 27.596393585205078 28.419095993041992 26.831457138061523 27.736907958984375 26.38103485107422 C 27.054718017578125 25.930435180664062 26.456695556640625 25.512264251708984 26.407968521118164 25.451663970947266 C 26.359241485595703 25.391063690185547 25.893402099609375 25.07176399230957 25.372814178466797 24.74236297607422 C 24.852399826049805 24.4129638671875 24.33411407470703 24.05556869506836 24.221065521240234 23.948013305664062 C 24.10819435119629 23.840457916259766 22.899568557739258 23.00269317626953 21.53519058227539 22.086082458496094 C 20.170814514160156 21.169466018676758 19.014636993408203 20.37334442138672 18.965909957885742 20.31664276123047 C 18.91718292236328 20.260116577148438 18.398895263671875 19.89031982421875 17.814163208007812 19.494827270507812 C 15.439260482788086 17.88875961303711 13.907968521118164 16.8399600982666 13.739636421203613 16.70423126220703 C 13.641647338867188 16.62520408630371 13.08314037322998 16.246898651123047 12.498406410217285 15.863279342651367 L 11.43525505065918 15.16602897644043 L 11.301474571228027 18.487667083740234 C 11.174428939819336 21.641151428222656 11.269935607910156 34.172691345214844 11.436850547790527 36.250267028808594 C 11.479907035827637 36.78627014160156 11.557164192199707 38.620208740234375 11.608548164367676 40.32567596435547 C 11.734177589416504 44.4879150390625 11.810901641845703 45.941776275634766 12.309696197509766 53.61507034301758 C 12.490962982177734 56.40141296386719 12.843046188354492 60.6419677734375 13.222058296203613 64.60096740722656 C 13.273266792297363 65.13697052001953 13.353180885314941 66.05393981933594 13.399250030517578 66.638671875 C 13.445497512817383 67.22340393066406 13.51424789428711 67.790771484375 13.55198860168457 67.8993911743164 C 13.695338249206543 68.31171417236328 22.903289794921875 68.6698226928711 42.000850677490234 69.00559997558594 C 48.787654876708984 69.12503051757812 73.37480163574219 68.97175598144531 78.23658752441406 68.77967834472656 C 79.7958755493164 68.71819305419922 82.5866470336914 68.6265869140625 84.43830871582031 68.57626342773438 C 86.28996276855469 68.526123046875 87.97221374511719 68.44975280761719 88.17670440673828 68.40686798095703 C 88.53392028808594 68.33174133300781 88.55393981933594 68.1875 88.68594360351562 64.73722839355469 C 88.8711166381836 59.89581298828125 88.91487884521484 47.65947341918945 88.76355743408203 43.07215118408203 C 88.696044921875 41.02558898925781 88.58441162109375 37.63679122924805 88.51549530029297 35.54149627685547 C 88.32093048095703 29.632505416870117 87.922607421875 22.482460021972656 87.4537582397461 16.49337387084961 C 87.43089294433594 16.201005935668945 87.3878402709961 15.463533401489258 87.35807800292969 14.854348182678223 C 87.32813262939453 14.245340347290039 87.2374038696289 13.746898651123047 87.15625 13.746898651123047 C 87.0750961303711 13.746898651123047 86.67110443115234 14.045999526977539 86.25841522216797 14.411369323730469" stroke-width="1.0" fill="rgb(255, 243, 226)" opacity="1.0"/>
    <path d="M 45.9876708984375 11.262669563293457 C 41.533241271972656 11.413813591003418 36.97373962402344 11.605358123779297 35.1899528503418 11.71645736694336 C 33.567054748535156 11.81745719909668 26.97923469543457 12.31855583190918 25.787796020507812 12.431604385375977 C 25.20306396484375 12.487065315246582 24.325963973999023 12.567687034606934 23.838685989379883 12.610568046569824 C 23.351408004760742 12.653448104858398 22.394573211669922 12.758700370788574 21.712383270263672 12.844461441040039 C 21.030193328857422 12.930221557617188 20.352436065673828 12.999149322509766 20.206253051757812 12.997554779052734 C 19.892799377441406 12.99418830871582 18.006771087646484 13.200616836547852 17.371183395385742 13.307994842529297 C 17.127544403076172 13.349103927612305 16.449785232543945 13.429548263549805 15.86505126953125 13.48678207397461 C 15.280318260192871 13.544013977050781 14.378057479858398 13.66415023803711 13.859950065612793 13.753632545471191 C 13.34201717376709 13.843114852905273 12.86359977722168 13.908675193786621 12.796798706054688 13.899284362792969 C 12.730173110961914 13.889892578125 12.477319717407227 13.891488075256348 12.234922409057617 13.903182983398438 C 11.851478576660156 13.921433448791504 11.920583724975586 14.008434295654297 12.766497611999512 14.573677062988281 C 13.301263809204102 14.931072235107422 13.778618812561035 15.276419639587402 13.82734489440918 15.341094970703125 C 13.910980224609375 15.452371597290039 14.336950302124023 15.742965698242188 17.54837417602539 17.879545211791992 C 18.2792911529541 18.365936279296875 18.91718292236328 18.813701629638672 18.965909957885742 18.87465476989746 C 19.014636993408203 18.935787200927734 19.48047637939453 19.255264282226562 20.00106430053711 19.58466339111328 C 20.5214786529541 19.9140625 21.039762496948242 20.270217895507812 21.15281105041504 20.376178741455078 C 21.373947143554688 20.583847045898438 22.864839553833008 21.6112060546875 24.990432739257812 23.020944595336914 C 25.721349716186523 23.505741119384766 26.359241485595703 23.949607849121094 26.407968521118164 24.007549285888672 C 26.456695556640625 24.06531524658203 27.094587326049805 24.517684936523438 27.825502395629883 25.012760162353516 C 32.82603454589844 28.39995765686035 33.771175384521484 29.04883575439453 33.85002899169922 29.14859390258789 C 33.89875411987305 29.210256576538086 35.054931640625 30.009746551513672 36.4193115234375 30.925296783447266 C 37.783687591552734 31.84084701538086 38.93986511230469 32.639095306396484 38.988590240478516 32.6993408203125 C 39.037315368652344 32.75940704345703 39.57970428466797 33.14799118041992 40.19403076171875 33.56279754638672 L 41.31104278564453 34.316749572753906 L 41.85130310058594 33.86207580566406 C 42.918174743652344 32.96424102783203 43.922142028808594 32.617835998535156 45.456092834472656 32.617835998535156 C 46.599334716796875 32.617835998535156 47.04302215576172 32.70128631591797 47.7491340637207 33.04876708984375 C 48.68790054321289 33.510704040527344 49.85417556762695 34.618682861328125 50.727909088134766 35.878517150878906 C 51.239280700683594 36.61563491821289 51.28234100341797 36.63991165161133 51.51517105102539 36.321495056152344 C 52.734073638916016 34.65394592285156 53.2459831237793 34.09685516357422 54.068328857421875 33.543128967285156 C 55.873207092285156 32.32759094238281 57.75817108154297 32.220924377441406 59.7492790222168 33.221527099609375 L 60.928131103515625 33.81387710571289 L 62.08200454711914 32.95006561279297 C 62.71653366088867 32.47501754760742 63.40899658203125 31.96665382385254 63.62074279785156 31.820470809936523 C 63.832489013671875 31.674287796020508 64.21752166748047 31.37270736694336 64.47639465332031 31.15015411376953 C 64.73527526855469 30.927600860595703 65.86416625976562 30.054931640625 66.98490905761719 29.210966110229492 C 68.10565185546875 28.366825103759766 69.29939270019531 27.41264533996582 69.63764953613281 27.090511322021484 C 69.97590637207031 26.768375396728516 70.3024673461914 26.504714965820312 70.36360168457031 26.504714965820312 C 70.42455291748047 26.504714965820312 70.66606140136719 26.340457916259766 70.90031433105469 26.139522552490234 C 71.13456726074219 25.938762664794922 71.48558044433594 25.638246536254883 71.68048858642578 25.4716854095459 C 71.87540435791016 25.305126190185547 72.95184326171875 24.415090560913086 74.07257843017578 23.49386978149414 C 75.19332122802734 22.572649002075195 76.15015411376953 21.775108337402344 76.19888305664062 21.721420288085938 C 76.24761199951172 21.66790771484375 76.76058197021484 21.227054595947266 77.33858489990234 20.742080688476562 C 77.91676330566406 20.256927490234375 78.63438415527344 19.634098052978516 78.93331146240234 19.35785675048828 C 79.23240661621094 19.081615447998047 79.83574676513672 18.56439208984375 80.27429962158203 18.208412170410156 C 80.71284484863281 17.852256774902344 81.23202514648438 17.40041732788086 81.42817687988281 17.204444885253906 C 81.62413787841797 17.00829315185547 82.7604751586914 15.977567672729492 83.95315551757812 14.913885116577148 C 85.14582824707031 13.85037899017334 86.12162780761719 12.9133882522583 86.12162780761719 12.831880569458008 C 86.12162780761719 12.750371932983398 85.94230651855469 12.672408103942871 85.72294616699219 12.658586502075195 C 85.5037612915039 12.644588470458984 85.0850601196289 12.611631393432617 84.79268646240234 12.585406303405762 C 83.38703155517578 12.458537101745605 78.36912536621094 12.054362297058105 76.11029052734375 11.886030197143555 C 73.89716339111328 11.72124195098877 72.97274780273438 11.67074203491211 69.81997680664062 11.543164253234863 C 68.30941772460938 11.481855392456055 66.35588073730469 11.396271705627441 65.47877502441406 11.352505683898926 C 62.036827087402344 11.1813383102417 50.016658782958984 11.125877380371094 45.9876708984375 11.262669563293457" stroke-width="1.0" fill="rgb(255, 243, 226)" opacity="1.0"/>
    <path d="M 43.64359664916992 34.230812072753906 C 41.85041809082031 35.09834289550781 40.898895263671875 36.802574157714844 40.908111572265625 39.130340576171875 C 40.92299270629883 42.94492721557617 43.53303146362305 45.99528503417969 49.521583557128906 49.1967887878418 L 51.2835807800293 50.138919830322266 L 52.952903747558594 49.26341247558594 C 57.029380798339844 47.12541580200195 59.73492431640625 44.833438873291016 60.84520721435547 42.57761001586914 C 62.61712646484375 38.977783203125 61.70476531982422 35.392478942871094 58.68789291381836 34.099334716796875 C 56.52136993408203 33.170494079589844 54.51910400390625 34.165069580078125 52.5294189453125 37.157840728759766 C 51.45368194580078 38.77595901489258 51.16610336303711 38.78180694580078 50.13892364501953 37.20515441894531 C 48.10776901245117 34.08763885498047 45.96622848510742 33.107059478759766 43.64359664916992 34.230812072753906" stroke-width="1.0" fill="rgb(233, 78, 92)" opacity="1.0"/>
    <path d="M 29.361223220825195 64.54196166992188 C 29.193246841430664 64.70976257324219 29.21468734741211 65.27127838134766 29.393115997314453 65.38166809082031 C 29.63020133972168 65.52803039550781 32.036468505859375 65.64497375488281 38.899993896484375 65.84342956542969 C 42.408390045166016 65.94479370117188 47.27231216430664 66.10284423828125 49.70869827270508 66.19462585449219 C 57.832237243652344 66.50080871582031 59.03731918334961 66.49833679199219 59.241268157958984 66.17549133300781 C 59.34067153930664 66.01814270019531 59.37646484375 65.77078247070312 59.32082748413086 65.62583923339844 C 59.19696807861328 65.30282592773438 57.7703971862793 65.20536804199219 49.442909240722656 64.95092010498047 C 46.17815399169922 64.85133361816406 41.27436447143555 64.69309997558594 38.54560852050781 64.59954833984375 C 32.68339538574219 64.39861297607422 29.52442169189453 64.37876892089844 29.361223220825195 64.54196166992188" stroke-width="1.0" fill="rgb(81, 55, 54)" opacity="1.0"/>
    <path d="M 63.02254104614258 65.0439453125 C 62.69154357910156 65.90669250488281 63.52363967895508 66.06243896484375 68.04805755615234 65.9837646484375 L 71.14891052246094 65.92990112304688 L 71.20863342285156 65.50694274902344 C 71.24159240722656 65.2742919921875 71.16184997558594 65.0164794921875 71.03143310546875 64.93373107910156 C 70.90119934082031 64.85115814208984 69.06885528564453 64.78240966796875 66.95956420898438 64.78082275390625 C 63.712528228759766 64.77851867675781 63.109012603759766 64.81890869140625 63.02254104614258 65.0439453125" stroke-width="1.0" fill="rgb(81, 55, 54)" opacity="1.0"/>
    <path d="M 52.10078811645508 49.725528717041016 C 51.75969696044922 49.907508850097656 51.544403076171875 50.059715270996094 51.62236785888672 50.06378936767578 C 51.81781768798828 50.074066162109375 52.85686492919922 49.52760696411133 52.781734466552734 49.454071044921875 C 52.74824523925781 49.42129135131836 52.4418830871582 49.54337692260742 52.10078811645508 49.725528717041016" stroke-width="1.0" fill="rgb(255, 243, 226)" opacity="1.0"/>
    <path d="M 49.79729461669922 49.44219970703125 C 49.79729461669922 49.553123474121094 50.79293441772461 50.074066162109375 50.98448181152344 50.06343460083008 C 51.06244659423828 50.05900573730469 50.827308654785156 49.89775848388672 50.46176528930664 49.70479965209961 C 50.09639358520508 49.511837005615234 49.79729461669922 49.39365005493164 49.79729461669922 49.44219970703125" stroke-width="1.0" fill="rgb(255, 243, 226)" opacity="1.0"/>
  </g>
</svg>
