<?xml version="1.0" ?>
<svg xmlns="http://www.w3.org/2000/svg" version="1.1" width="100" height="100">
  <defs/>
  <g>
    <path d="M 11.454082489013672 10.104564666748047 C 10.985930442810059 10.22346019744873 10.61279010772705 10.546043395996094 10.383092880249023 11.029852867126465 C 10.0 11.837307929992676 10.251193046569824 12.33969497680664 11.617961883544922 13.498794555664062 C 16.232463836669922 17.412792205810547 23.503536224365234 21.207897186279297 29.971004486083984 23.078380584716797 C 30.877052307128906 23.3404541015625 31.887001037597656 23.641010284423828 32.215423583984375 23.746238708496094 C 35.325416564941406 24.743446350097656 41.75865173339844 25.835403442382812 46.839176177978516 26.22844886779785 C 49.57430648803711 26.44009780883789 55.746524810791016 26.432666778564453 58.091129302978516 26.214780807495117 C 60.457763671875 25.995037078857422 64.4759292602539 25.4197998046875 64.65228271484375 25.275691986083984 C 64.729248046875 25.212661743164062 65.26998138427734 25.08978271484375 65.85384368896484 25.002470016479492 C 67.28828430175781 24.78790283203125 70.49037170410156 23.857702255249023 72.75416564941406 22.997699737548828 C 74.97350311279297 22.154682159423828 79.07766723632812 20.120983123779297 81.16032409667969 18.832109451293945 C 85.89372253417969 15.902713775634766 89.26353454589844 13.54736042022705 89.51698303222656 12.99109935760498 C 90.0 11.931123733520508 89.2411117553711 10.804004669189453 88.0444564819336 10.804004669189453 C 87.68989562988281 10.804004669189453 87.16747283935547 11.105489730834961 85.52350616455078 12.258883476257324 C 79.77324676513672 16.293106079101562 74.42918395996094 19.150049209594727 69.63568115234375 20.75261688232422 C 68.79637145996094 21.033267974853516 67.00497436523438 21.502084732055664 65.65480041503906 21.794544219970703 C 60.998634338378906 22.803035736083984 58.17605972290039 23.134775161743164 53.38042449951172 23.236818313598633 C 48.00637435913086 23.351333618164062 43.83308410644531 22.99332046508789 38.31227111816406 21.944095611572266 C 34.816001892089844 21.279685974121094 33.07927322387695 20.824539184570312 29.633426666259766 19.669818878173828 C 23.247833251953125 17.529964447021484 17.510589599609375 14.434167861938477 13.300148010253906 10.856287002563477 C 12.931917190551758 10.543256759643555 12.465225219726562 10.22438907623291 12.263129234313965 10.147558212280273 C 11.876585960388184 10.000531196594238 11.865970611572266 10.0 11.454082489013672 10.104564666748047" stroke-width="1.0" fill="rgb(146, 112, 84)" opacity="1.0"/>
    <path d="M 62.470096588134766 25.677892684936523 C 59.32414245605469 26.179882049560547 56.66982650756836 26.371362686157227 52.68416976928711 26.38370132446289 C 50.54962158203125 26.390336990356445 48.803077697753906 26.41130256652832 48.80281066894531 26.430278778076172 C 48.802547454833984 26.449121475219727 49.40671157836914 27.673242568969727 50.14529800415039 29.150545120239258 C 53.78209686279297 36.423744201660156 56.529300689697266 40.695491790771484 57.770668029785156 41.00706100463867 C 58.09683609008789 41.08893585205078 58.21148681640625 41.02484130859375 58.69489669799805 40.491004943847656 C 59.514827728271484 39.585357666015625 60.70616912841797 37.02299880981445 61.98907470703125 33.405574798583984 C 62.995704650878906 30.567209243774414 64.46054077148438 25.90228271484375 64.46054077148438 25.534847259521484 C 64.46054077148438 25.368976593017578 64.36128234863281 25.37601089477539 62.470096588134766 25.677892684936523" stroke-width="1.0" fill="rgb(94, 176, 130)" opacity="1.0"/>
    <path d="M 79.78359985351562 19.662784576416016 C 78.35009002685547 20.51548957824707 74.2476577758789 22.444358825683594 72.42229461669922 23.12389373779297 C 70.68264770507812 23.771583557128906 67.03059387207031 24.867650985717773 66.5985336303711 24.87176513671875 C 65.91435241699219 24.878267288208008 66.0189208984375 25.107166290283203 67.45521545410156 26.746095657348633 C 69.80049133300781 29.42230796813965 74.46912384033203 34.00615692138672 75.6519775390625 34.79370880126953 C 77.69908142089844 36.156890869140625 78.08841705322266 35.94590759277344 78.86256408691406 33.05445861816406 C 79.52391815185547 30.584192276000977 80.21712493896484 25.37494659423828 80.47508239746094 20.93573760986328 L 80.57659149169922 19.191051483154297 L 79.78359985351562 19.662784576416016" stroke-width="1.0" fill="rgb(253, 211, 125)" opacity="1.0"/>
    <path d="M 32.348121643066406 23.909984588623047 C 32.348121643066406 24.193157196044922 34.27141571044922 29.45442008972168 35.22138595581055 31.76996421813965 C 36.51570129394531 34.92454528808594 37.33416748046875 36.62915802001953 38.159934997558594 37.8897705078125 C 39.196292877197266 39.471771240234375 39.57911682128906 39.63352584838867 40.44230651855469 38.85367202758789 C 41.16297912597656 38.20252990722656 41.68925094604492 37.45386505126953 42.856842041015625 35.419105529785156 C 44.300437927246094 32.9031867980957 47.314231872558594 26.522104263305664 47.14079666137695 26.348670959472656 C 47.10337829589844 26.31111717224121 46.22280502319336 26.202970504760742 45.18406295776367 26.10835838317871 C 43.004268646240234 25.909711837768555 40.08588409423828 25.510032653808594 37.98769760131836 25.122825622558594 C 36.52167510986328 24.852256774902344 33.014122009277344 24.040027618408203 32.58033752441406 23.870574951171875 C 32.45268249511719 23.820680618286133 32.348121643066406 23.83846092224121 32.348121643066406 23.909984588623047" stroke-width="1.0" fill="rgb(254, 226, 221)" opacity="1.0"/>
    <path d="M 17.75156593322754 18.134658813476562 C 17.75156593322754 18.237632751464844 17.842063903808594 19.660795211791992 17.95273208618164 21.297203063964844 C 18.320964813232422 26.744768142700195 18.92751693725586 31.05579376220703 19.564327239990234 32.751380920410156 C 19.698612213134766 33.108734130859375 19.968782424926758 33.52062225341797 20.164905548095703 33.66672134399414 L 20.521461486816406 33.93238067626953 L 21.251953125 33.57502746582031 C 22.78419303894043 32.8254280090332 26.149627685546875 29.573184967041016 29.917129516601562 25.201515197753906 C 31.050884246826172 23.885967254638672 31.248733520507812 23.594036102294922 31.05579376220703 23.522113800048828 C 30.927213668823242 23.474212646484375 30.075702667236328 23.19860076904297 29.16341781616211 22.90972137451172 C 26.54094696044922 22.07931137084961 23.216781616210938 20.704845428466797 20.477008819580078 19.317909240722656 C 19.087417602539062 18.614620208740234 17.90589141845703 18.018550872802734 17.85108757019043 17.993337631225586 C 17.796417236328125 17.968124389648438 17.75156593322754 18.031688690185547 17.75156593322754 18.134658813476562" stroke-width="1.0" fill="rgb(255, 149, 177)" opacity="1.0"/>
  </g>
</svg>
