<?xml version="1.0" ?>
<svg xmlns="http://www.w3.org/2000/svg" version="1.1" width="100" height="100">
  <defs/>
  <g>
    <path d="M 13.340620040893555 10.824567794799805 C 12.863592147827148 11.067663192749023 12.281508445739746 11.536139488220215 12.047168731689453 11.8653564453125 C 10.695691108703613 13.763288497924805 10.0 21.056947708129883 10.756567001342773 25.395599365234375 C 12.046760559082031 32.79391098022461 16.3408260345459 38.57341766357422 22.794647216796875 41.59785461425781 C 24.483688354492188 42.38943862915039 27.90350914001465 43.38787841796875 28.943889617919922 43.39337921142578 C 29.772733688354492 43.39765167236328 30.39390754699707 43.61570358276367 30.39390754699707 43.90257263183594 C 30.39390754699707 44.04610824584961 30.810670852661133 44.99609375 31.320072174072266 46.013671875 C 33.37538146972656 50.119205474853516 38.03429412841797 53.754634857177734 43.34084701538086 55.39358901977539 C 46.71607971191406 56.43621063232422 51.96297836303711 56.72267150878906 56.1937255859375 56.09538650512695 C 58.64645767211914 55.731563568115234 62.468177795410156 54.691383361816406 64.25596618652344 53.90081787109375 L 65.43275451660156 53.380218505859375 L 67.20425415039062 54.9094352722168 C 72.935302734375 59.856842041015625 80.20249938964844 63.10421371459961 85.60636901855469 63.13230895996094 C 86.35499572753906 63.13618087768555 87.22537231445312 63.04191207885742 87.54054260253906 62.92280960083008 C 88.24275207519531 62.65752029418945 89.17135620117188 61.80078887939453 89.55696868896484 61.06275177001953 C 90.0 60.21476745605469 89.92120361328125 58.54730987548828 89.39388275146484 57.609134674072266 C 88.6819076538086 56.34214782714844 87.86914825439453 55.963863372802734 85.48482513427734 55.78938293457031 C 83.24342346191406 55.625282287597656 80.96171569824219 54.934478759765625 78.34101104736328 53.62657165527344 C 76.61634063720703 52.76596450805664 73.95594024658203 51.023380279541016 72.84388732910156 50.025753021240234 L 72.02950286865234 49.29545211791992 L 72.91168975830078 48.48900604248047 C 75.49472045898438 46.127685546875 77.9979476928711 42.1320915222168 78.73883819580078 39.187469482421875 C 79.8541488647461 34.754547119140625 78.25346374511719 30.805988311767578 74.65101623535156 29.10289764404297 C 70.77412414550781 27.270320892333984 66.35199737548828 28.277923583984375 62.72328186035156 31.820714950561523 C 61.21727752685547 33.29109191894531 60.004451751708984 35.202667236328125 59.45718002319336 36.968666076660156 C 58.6071662902832 39.71173095703125 58.977508544921875 43.604305267333984 60.34323501586914 46.28119659423828 C 60.55579376220703 46.697959899902344 60.72986602783203 47.1306037902832 60.72986602783203 47.24258041381836 C 60.72986602783203 47.35456085205078 60.111541748046875 47.6381721496582 59.355587005615234 47.872920989990234 C 54.73657989501953 49.30705642700195 50.00925827026367 49.562774658203125 46.17267990112305 48.58551025390625 C 44.3364372253418 48.11784362792969 41.434974670410156 46.604305267333984 40.12177276611328 45.429141998291016 C 38.68010711669922 44.138946533203125 37.987464904785156 43.219505310058594 38.370635986328125 43.104881286621094 C 47.93196105957031 40.245967864990234 52.87814712524414 36.037620544433594 53.334407806396484 30.37354850769043 C 53.63349151611328 26.66054916381836 51.20356369018555 22.238624572753906 48.00505065917969 20.675609588623047 C 46.866943359375 20.119384765625 46.623443603515625 20.079071044921875 44.44210433959961 20.083755493164062 C 42.485130310058594 20.088233947753906 41.90895080566406 20.165599822998047 40.93290710449219 20.55548858642578 C 37.365272521972656 21.980464935302734 33.76811981201172 25.605712890625 31.708940505981445 29.851322174072266 C 30.85342788696289 31.615083694458008 29.783117294311523 34.86164093017578 29.783117294311523 35.692726135253906 C 29.783117294311523 36.03619384765625 29.688648223876953 36.07447052001953 29.12142562866211 35.96106719970703 C 24.864418029785156 35.109825134277344 21.373336791992188 32.474464416503906 19.532413482666016 28.7227840423584 C 18.268482208251953 26.146669387817383 17.95433235168457 24.85097885131836 17.827083587646484 21.687284469604492 C 17.73689079284668 19.444664001464844 17.79247283935547 18.655927658081055 18.176456451416016 16.72745704650879 C 18.664478302001953 14.276556015014648 18.644323348999023 12.976792335510254 18.10580825805664 12.154870986938477 C 17.082326889038086 10.592874526977539 14.958402633666992 10.0 13.340620040893555 10.824567794799805" stroke-width="1.0" fill="rgb(118, 167, 223)" opacity="1.0"/>
  </g>
</svg>
