<?xml version="1.0" ?>
<svg xmlns="http://www.w3.org/2000/svg" version="1.1" width="100" height="100">
  <defs/>
  <g>
    <path d="M 33.23088073730469 22.103878021240234 C 30.777860641479492 22.789915084838867 27.762617111206055 25.067752838134766 26.026662826538086 27.546161651611328 C 25.852962493896484 27.794090270996094 25.733156204223633 27.846942901611328 25.586772918701172 27.74020004272461 C 25.47602081298828 27.65958595275879 24.858720779418945 27.209749221801758 24.21499252319336 26.740612030029297 C 22.724594116210938 25.65432357788086 19.472999572753906 24.025409698486328 18.21969223022461 23.737245559692383 C 16.987911224365234 23.453834533691406 15.507457733154297 23.4505672454834 14.569927215576172 23.728931427001953 C 12.981542587280273 24.200592041015625 11.485203742980957 26.10995101928711 10.81861400604248 28.51546287536621 C 10.050922393798828 31.28544807434082 10.0 36.28517150878906 10.705338478088379 39.62376403808594 C 11.746940612792969 44.554447174072266 14.255189895629883 49.63493728637695 17.922325134277344 54.24227523803711 C 19.947481155395508 56.786598205566406 24.48682403564453 61.256465911865234 26.12969398498535 62.32374954223633 C 26.46135711669922 62.53931427001953 28.728059768676758 63.04438018798828 30.244144439697266 63.24064254760742 L 31.059789657592773 63.34619903564453 L 29.520397186279297 61.72634506225586 C 23.879619598388672 55.79012680053711 21.082168579101562 50.686038970947266 20.656681060791016 45.553741455078125 C 20.57383918762207 44.55430221557617 20.596851348876953 44.33027267456055 20.79920196533203 44.1623649597168 C 21.123886108398438 43.892906188964844 21.485538482666016 44.187156677246094 21.486724853515625 44.721763610839844 C 21.48895263671875 45.70576477050781 21.974864959716797 48.17407989501953 22.440141677856445 49.56471633911133 C 23.672218322753906 53.246246337890625 25.769527435302734 56.374027252197266 30.21578598022461 61.16040802001953 L 32.29810333251953 63.40187072753906 L 33.225982666015625 63.49882125854492 C 33.73638916015625 63.55226516723633 34.171234130859375 63.57854080200195 34.192466735839844 63.55731201171875 C 34.21354675292969 63.53622817993164 34.138275146484375 62.5029411315918 34.025001525878906 61.26136016845703 C 33.52899169921875 55.82204818725586 33.476287841796875 54.02938461303711 33.72273254394531 50.96944808959961 C 33.85130310058594 49.37364196777344 33.96442794799805 46.63453674316406 33.97407531738281 44.88254928588867 C 33.9948616027832 41.11356735229492 34.038360595703125 40.806549072265625 34.55188751220703 40.806549072265625 L 34.92155456542969 40.806549072265625 L 34.87479019165039 44.592308044433594 C 34.84910583496094 46.67447280883789 34.733604431152344 49.584754943847656 34.618247985839844 51.0595703125 C 34.39570617675781 53.90259552001953 34.458656311035156 55.96219253540039 34.923187255859375 61.036739349365234 C 35.044776916503906 62.36502456665039 35.144248962402344 63.493324279785156 35.144248962402344 63.544097900390625 C 35.144248962402344 63.59502029418945 35.560829162597656 63.59873580932617 36.07004928588867 63.55256271362305 C 37.17682647705078 63.452205657958984 37.241554260253906 63.3867301940918 38.404151916503906 61.18802261352539 C 38.848201751708984 60.34817886352539 39.91474533081055 58.52537536621094 40.77433776855469 57.137264251708984 C 43.73197555541992 52.360679626464844 44.798221588134766 49.957542419433594 46.71945571899414 43.73865509033203 C 47.23402404785156 42.072628021240234 47.372535705566406 41.77154541015625 47.624176025390625 41.77154541015625 C 47.78748321533203 41.77154541015625 47.962371826171875 41.87858581542969 48.01255416870117 42.00952911376953 C 48.106529235839844 42.254638671875 46.983863830566406 46.141944885253906 46.02302551269531 48.89767837524414 C 45.30165481567383 50.96707534790039 43.5848503112793 54.321109771728516 41.622642517089844 57.49490737915039 C 40.076568603515625 59.995731353759766 38.202545166015625 63.300025939941406 38.292213439941406 63.36713409423828 C 38.31641387939453 63.38524627685547 38.935646057128906 63.31087112426758 39.66844940185547 63.20204544067383 C 41.28044128417969 62.96257781982422 43.01060104370117 62.525211334228516 43.96491241455078 62.1161994934082 C 44.35283660888672 61.94992446899414 44.73868942260742 61.813785552978516 44.82227325439453 61.813785552978516 C 45.092472076416016 61.813785552978516 47.4247932434082 59.90739822387695 48.63371276855469 58.69862747192383 C 53.06645965576172 54.2658805847168 57.18476867675781 46.85425567626953 58.90542984008789 40.21270751953125 C 59.6826286315918 37.213050842285156 59.846527099609375 36.060401916503906 59.8549919128418 33.531959533691406 C 59.86375045776367 30.918306350708008 59.69390869140625 30.04461097717285 58.95591354370117 28.90947914123535 C 58.512603759765625 28.227598190307617 57.238365173339844 27.326885223388672 55.72821807861328 26.6279296875 C 52.72069549560547 25.235811233520508 49.029808044433594 25.230466842651367 46.24586486816406 26.613975524902344 L 45.17115783691406 27.14813804626465 L 43.609344482421875 25.589149475097656 C 41.90961456298828 23.89208984375 40.62171936035156 23.048831939697266 38.67851257324219 22.36026954650879 C 37.306583404541016 21.874059677124023 34.521305084228516 21.742969512939453 33.23088073730469 22.103878021240234" stroke-width="1.0" fill="rgb(118, 167, 223)" opacity="1.0"/>
    <path d="M 43.1027946472168 64.29011535644531 C 39.6671142578125 65.29475402832031 35.07981491088867 65.57846069335938 30.541955947875977 65.0670166015625 C 29.412019729614258 64.93963623046875 27.28175163269043 64.57308197021484 26.67484474182129 64.401611328125 C 26.52801513671875 64.36004638671875 26.148252487182617 64.69823455810547 25.622255325317383 65.33929443359375 C 22.1904296875 69.52084350585938 19.913333892822266 74.90062713623047 19.398176193237305 80.0449447631836 C 19.027172088623047 83.75023651123047 19.822921752929688 86.94125366210938 21.307979583740234 87.70345306396484 C 21.96744155883789 88.04194641113281 23.39815902709961 88.27621459960938 24.13289451599121 88.16605377197266 C 25.177614212036133 88.00928497314453 26.230945587158203 87.56063079833984 27.09320640563965 86.90487670898438 C 27.523595809936523 86.57767486572266 27.9100399017334 86.30985260009766 27.95220184326172 86.30985260009766 C 27.994216918945312 86.30985260009766 28.155298233032227 86.60514068603516 28.309993743896484 86.9660415649414 C 28.670753479003906 87.80767059326172 29.53925132751465 88.76731872558594 30.30916976928711 89.17500305175781 C 30.770288467407227 89.4192123413086 31.17647933959961 89.49552917480469 32.02656555175781 89.4979019165039 C 33.015464782714844 89.50042724609375 33.244834899902344 89.44401550292969 34.0772590637207 88.99313354492188 C 34.592716217041016 88.71387481689453 35.31260299682617 88.15373229980469 35.677223205566406 87.74813842773438 C 36.04184341430664 87.34268951416016 36.35747146606445 87.03685760498047 36.378700256347656 87.06863403320312 C 37.3494873046875 88.5257797241211 37.65338897705078 88.8154296875 38.85577392578125 89.42842102050781 C 39.76969909667969 89.894287109375 41.300777435302734 90.0 42.19392013549805 89.65898132324219 C 42.85813522338867 89.40525817871094 44.051910400390625 88.24726104736328 44.051910400390625 87.85652160644531 C 44.051910400390625 87.4549331665039 44.32789611816406 87.52351379394531 44.899471282958984 88.06732940673828 C 46.4436149597168 89.53620147705078 48.242515563964844 89.54095458984375 49.90602493286133 88.08024597167969 C 51.039520263671875 87.08511352539062 51.64301681518555 85.13047790527344 51.644351959228516 82.44986724853516 C 51.64717483520508 77.1550064086914 49.07894515991211 69.88724517822266 45.65632629394531 65.50393676757812 C 45.1196403503418 64.81671142578125 44.58933639526367 64.18545532226562 44.47754669189453 64.10098266601562 C 44.33294677734375 63.99156188964844 43.937889099121094 64.0458984375 43.1027946472168 64.29011535644531" stroke-width="1.0" fill="rgb(118, 167, 223)" opacity="1.0"/>
    <path d="M 36.233951568603516 10.147273063659668 C 34.97248077392578 10.436623573303223 34.09136199951172 11.477187156677246 33.77766418457031 13.04835033416748 C 33.680274963378906 13.53604507446289 33.587188720703125 13.956337928771973 33.570709228515625 13.982170104980469 C 33.554229736328125 14.008150100708008 33.19480895996094 13.854047775268555 32.77198791503906 13.63981819152832 C 31.20780372619629 12.847185134887695 29.806777954101562 12.998467445373535 29.051109313964844 14.041553497314453 C 27.967493057250977 15.537299156188965 28.47760581970215 17.205406188964844 30.316591262817383 18.18109130859375 C 30.92736053466797 18.505035400390625 31.17068862915039 18.760089874267578 30.869163513183594 18.760089874267578 C 30.804140090942383 18.760089874267578 30.377460479736328 19.110904693603516 29.920795440673828 19.53951072692871 C 28.85484504699707 20.540433883666992 28.598007202148438 21.261064529418945 28.964855194091797 22.221607208251953 C 29.101438522338867 22.579545974731445 29.367034912109375 23.016616821289062 29.554838180541992 23.19313621520996 L 29.896446228027344 23.513961791992188 L 31.221315383911133 22.843509674072266 C 34.198402404785156 21.336780548095703 37.2623405456543 21.397350311279297 40.378089904785156 23.02463150024414 L 41.38079833984375 23.548255920410156 L 41.91006088256836 23.195510864257812 C 42.43427658081055 22.84618377685547 42.43887710571289 22.833860397338867 42.38587951660156 21.92898941040039 C 42.34416198730469 21.21697235107422 42.22687911987305 20.84566879272461 41.85468292236328 20.24677848815918 C 41.356597900390625 19.445533752441406 41.35095977783203 19.205474853515625 41.83078384399414 19.205474853515625 C 42.01027297973633 19.205474853515625 42.22212600708008 18.99925994873047 42.40265655517578 18.648744583129883 C 42.78434753417969 17.90807342529297 43.55397033691406 17.144685745239258 44.03453826904297 17.030223846435547 C 44.61769485473633 16.89126205444336 44.79436492919922 16.693662643432617 44.7933235168457 16.181026458740234 C 44.78961181640625 14.06545639038086 42.817752838134766 12.907608985900879 40.43821716308594 13.623636245727539 C 40.057861328125 13.738100051879883 39.743125915527344 13.821683883666992 39.739112854003906 13.809212684631348 C 39.73495864868164 13.79674243927002 39.699180603027344 13.385801315307617 39.659690856933594 12.895880699157715 C 39.570613861083984 11.7926664352417 39.075645446777344 10.753885269165039 38.484619140625 10.429497718811035 C 37.946895599365234 10.134357452392578 36.87574768066406 10.0 36.233951568603516 10.147273063659668" stroke-width="1.0" fill="rgb(253, 211, 125)" opacity="1.0"/>
    <path d="M 49.65468215942383 16.525901794433594 C 49.230674743652344 16.794763565063477 48.74847412109375 17.29641342163086 48.406124114990234 17.824935913085938 C 48.09939956665039 18.298377990722656 47.8306884765625 18.7122859954834 47.80901336669922 18.744651794433594 C 47.78733444213867 18.777015686035156 47.46354293823242 18.521514892578125 47.089569091796875 18.176788330078125 C 45.91301345825195 17.092130661010742 44.676334381103516 16.722166061401367 43.7846794128418 17.188037872314453 C 43.328311920166016 17.426464080810547 42.68324661254883 18.08533477783203 42.436946868896484 18.564716339111328 C 42.04130172729492 19.334932327270508 42.41749954223633 20.63396453857422 43.374332427978516 21.8017578125 L 43.87345886230469 22.41074562072754 L 42.9605712890625 22.74166488647461 C 42.45847702026367 22.92367935180664 41.89640426635742 23.188831329345703 41.71171569824219 23.331056594848633 L 41.37560272216797 23.589378356933594 L 42.29011917114258 24.255226135253906 C 42.79310607910156 24.621479034423828 43.64586639404297 25.395999908447266 44.18507766723633 25.976186752319336 L 45.165367126464844 27.03129768371582 L 46.25046920776367 26.51302146911621 L 47.33542251586914 25.994892120361328 L 46.94719696044922 25.5895938873291 C 46.438568115234375 25.05884552001953 46.09680938720703 23.910350799560547 46.2142448425293 23.127220153808594 C 46.501068115234375 21.214298248291016 48.439971923828125 19.866718292236328 50.16285705566406 20.382768630981445 C 50.960391998291016 20.62179183959961 51.8493766784668 21.459110260009766 52.1549072265625 22.259315490722656 C 52.46088790893555 23.060562133789062 52.367061614990234 24.19732666015625 51.93459701538086 24.93042755126953 C 51.599666595458984 25.49814224243164 51.58808517456055 25.488937377929688 52.854164123535156 25.66100311279297 C 53.245208740234375 25.714153289794922 53.976078033447266 25.892602920532227 54.47847366333008 26.05754280090332 C 55.541751861572266 26.406574249267578 56.05706024169922 26.347042083740234 56.78615188598633 25.79090690612793 C 57.817657470703125 25.00421142578125 58.17990493774414 23.28904151916504 57.521183013916016 22.311573028564453 C 56.91769027709961 21.416057586669922 55.42832565307617 20.690082550048828 54.19446563720703 20.690082550048828 C 53.923526763916016 20.690082550048828 53.701873779296875 20.662023544311523 53.701873779296875 20.627878189086914 C 53.701873779296875 20.593582153320312 53.80713653564453 20.154582977294922 53.935848236083984 19.652339935302734 C 54.08193588256836 19.081954956054688 54.13241195678711 18.518098831176758 54.07035446166992 18.150657653808594 C 53.77194595336914 16.38397216796875 51.30794143676758 15.477468490600586 49.65468215942383 16.525901794433594" stroke-width="1.0" fill="rgb(246, 111, 108)" opacity="1.0"/>
    <path d="M 19.957725524902344 15.721538543701172 C 18.536806106567383 16.243083953857422 17.87912368774414 17.245342254638672 17.87912368774414 18.889251708984375 C 17.87912368774414 19.430540084838867 17.925294876098633 20.018890380859375 17.981708526611328 20.196598052978516 C 18.082366943359375 20.513710021972656 18.06336212158203 20.518165588378906 16.967126846313477 20.4351749420166 C 14.823646545410156 20.273056030273438 13.617401123046875 21.197227478027344 13.617401123046875 23.001174926757812 C 13.617401123046875 23.872047424316406 13.709446907043457 23.962905883789062 14.359111785888672 23.73368263244629 C 15.554520606994629 23.311904907226562 17.052343368530273 23.317842483520508 18.627960205078125 23.750606536865234 C 18.93364143371582 23.834636688232422 18.961997985839844 23.79247283935547 18.961997985839844 23.25341033935547 C 18.961997985839844 21.459259033203125 20.23712921142578 20.09623908996582 21.91562843322754 20.09623908996582 C 22.853458404541016 20.09623908996582 23.363718032836914 20.290573120117188 23.985620498657227 20.884716033935547 C 24.721393585205078 21.587677001953125 25.048898696899414 22.327756881713867 25.048898696899414 23.286962509155273 C 25.048898696899414 24.324111938476562 24.755094528198242 25.039249420166016 24.072174072265625 25.66486358642578 L 23.539348602294922 26.152854919433594 L 24.62816047668457 26.97250747680664 L 25.71697235107422 27.79201316833496 L 26.086048126220703 27.321687698364258 C 26.28899383544922 27.06292152404785 26.945934295654297 26.339618682861328 27.54601287841797 25.71430206298828 C 28.777942657470703 24.430261611938477 28.784624099731445 24.356624603271484 27.738269805908203 23.585073471069336 C 27.160757064819336 23.159137725830078 26.984237670898438 22.91699981689453 27.251466751098633 22.91699981689453 C 27.31975746154785 22.91699981689453 27.68720054626465 22.67426300048828 28.06800079345703 22.377490997314453 C 28.576332092285156 21.981395721435547 28.7608699798584 21.734804153442383 28.762205123901367 21.449609756469727 C 28.76324462890625 21.235973358154297 28.93026351928711 20.770549774169922 29.133358001708984 20.41513442993164 C 29.58794593811035 19.619976043701172 29.5889835357666 19.47121810913086 29.147611618041992 18.523147583007812 C 28.67728614807129 17.513166427612305 28.05181884765625 17.12701988220215 26.887144088745117 17.127166748046875 C 26.231985092163086 17.127166748046875 25.78675079345703 17.23480224609375 25.10382843017578 17.55770492553711 C 24.60336685180664 17.79450035095215 24.148483276367188 18.061729431152344 24.09295654296875 18.15155029296875 C 23.907085418701172 18.45218276977539 23.76946258544922 18.31975555419922 23.438838958740234 17.521926879882812 C 23.08535385131836 16.669166564941406 22.37363052368164 15.838823318481445 21.813636779785156 15.625930786132812 C 21.329208374023438 15.441690444946289 20.620603561401367 15.478212356567383 19.957725524902344 15.721538543701172" stroke-width="1.0" fill="rgb(246, 111, 108)" opacity="1.0"/>
    <path d="M 43.235374450683594 62.426780700683594 C 40.572872161865234 63.32794189453125 39.17808532714844 63.51203155517578 34.99578857421875 63.5150032043457 C 31.101654052734375 63.51767349243164 29.68117904663086 63.364906311035156 26.578046798706055 62.60939025878906 C 24.962642669677734 62.21611404418945 24.56951904296875 62.258724212646484 24.382606506347656 62.847225189208984 C 24.209203720092773 63.393856048583984 24.558086395263672 63.7176513671875 25.682085037231445 64.05272674560547 C 30.473365783691406 65.48107147216797 38.00880432128906 65.601318359375 42.71575927734375 64.32455444335938 C 45.1306266784668 63.66954803466797 45.9697265625 63.06857681274414 45.553890228271484 62.29153060913086 C 45.30254364013672 61.82210159301758 44.963905334472656 61.84184646606445 43.235374450683594 62.426780700683594" stroke-width="1.0" fill="rgb(253, 211, 125)" opacity="1.0"/>
    <path d="M 35.144248962402344 15.085384368896484 C 34.77680587768555 15.281797409057617 34.27574920654297 15.727031707763672 34.030792236328125 16.074874877929688 C 33.62771987915039 16.647193908691406 33.58540725708008 16.817626953125 33.58540725708008 17.86932373046875 C 33.58540725708008 18.92028045654297 33.6281623840332 19.092941284179688 34.03272247314453 19.67520523071289 C 34.79462432861328 20.771438598632812 36.29303741455078 21.274276733398438 37.47285842895508 20.82948875427246 C 38.06714630126953 20.60531234741211 38.84537887573242 19.82544708251953 39.16754150390625 19.131242752075195 C 39.77222442626953 17.828052520751953 39.281707763671875 16.026775360107422 38.11124038696289 15.252254486083984 C 37.2265625 14.666723251342773 36.05119323730469 14.600658416748047 35.144248962402344 15.085384368896484" stroke-width="1.0" fill="rgb(254, 254, 254)" opacity="1.0"/>
    <path d="M 48.74787902832031 20.34906768798828 C 48.71848678588867 20.378463745117188 48.535282135009766 20.43309783935547 48.34080123901367 20.470508575439453 C 48.14631652832031 20.50806999206543 47.964599609375 20.606201171875 47.9371337890625 20.6885986328125 C 47.90966796875 20.771142959594727 47.83098220825195 20.838542938232422 47.762542724609375 20.838542938232422 C 47.573551177978516 20.838542938232422 46.83287811279297 21.62969207763672 46.53016662597656 22.154800415039062 C 46.382747650146484 22.41074562072754 46.29574966430664 22.620075225830078 46.33687210083008 22.620075225830078 C 46.378143310546875 22.620075225830078 46.3419189453125 22.820648193359375 46.256404876708984 23.06590461730957 C 46.04010009765625 23.686471939086914 46.34177017211914 24.857234954833984 46.87548828125 25.468448638916016 C 47.106788635253906 25.73345184326172 47.2696533203125 25.992961883544922 47.23728561401367 26.04522132873535 C 47.20507049560547 26.09747886657715 47.694400787353516 26.01671600341797 48.324615478515625 25.86587905883789 C 48.96240234375 25.713260650634766 50.030433654785156 25.590038299560547 50.7326545715332 25.58810806274414 C 51.532711029052734 25.586029052734375 51.91781997680664 25.536148071289062 51.78494644165039 25.451969146728516 C 51.60768508911133 25.339881896972656 51.61347579956055 25.28109359741211 51.82206344604492 25.07250213623047 C 51.95775604248047 24.936811447143555 52.073848724365234 24.780481338500977 52.08023452758789 24.72510528564453 C 52.08646774291992 24.669580459594727 52.123138427734375 24.490684509277344 52.16189193725586 24.327377319335938 C 52.29669189453125 23.75921630859375 52.32549285888672 22.693416595458984 52.21013641357422 22.54584503173828 C 52.14630126953125 22.464191436767578 52.092708587646484 22.363981246948242 52.09107208251953 22.32315444946289 C 52.070289611816406 21.815715789794922 51.30333709716797 20.911884307861328 50.6172981262207 20.586458206176758 C 50.17310333251953 20.37564468383789 48.88490676879883 20.212039947509766 48.74787902832031 20.34906768798828" stroke-width="1.0" fill="rgb(254, 254, 254)" opacity="1.0"/>
    <path d="M 20.62194061279297 20.40652084350586 C 19.984447479248047 20.73788833618164 19.55584144592285 21.129676818847656 19.55584144592285 21.381168365478516 C 19.55584144592285 21.491029739379883 19.4778995513916 21.580848693847656 19.382587432861328 21.580848693847656 C 19.287424087524414 21.580848693847656 19.247488021850586 21.619003295898438 19.294105529785156 21.665620803833008 C 19.340721130371094 21.712238311767578 19.290542602539062 21.920528411865234 19.18260955810547 22.128522872924805 C 19.07067108154297 22.344532012939453 19.02123260498047 22.721771240234375 19.067703247070312 23.00756072998047 C 19.116100311279297 23.305818557739258 19.073787689208984 23.598880767822266 18.963035583496094 23.732345581054688 C 18.812793731689453 23.913320541381836 18.816207885742188 23.9566707611084 18.981000900268555 23.95830535888672 C 19.28786849975586 23.961570739746094 22.059783935546875 25.323997497558594 23.05640411376953 25.961488723754883 C 23.538158416748047 26.26969337463379 23.839832305908203 26.41058349609375 23.727149963378906 26.27459144592285 C 23.61431884765625 26.138750076293945 23.548255920410156 26.008846282958984 23.58017349243164 25.986133575439453 C 23.612239837646484 25.963417053222656 23.82231330871582 25.829952239990234 24.04678726196289 25.689359664916992 C 24.271408081054688 25.54891586303711 24.455055236816406 25.340923309326172 24.455055236816406 25.22705078125 C 24.455055236816406 25.113330841064453 24.52557373046875 24.996641159057617 24.611534118652344 24.967987060546875 C 24.69763946533203 24.939334869384766 24.783153533935547 24.816852569580078 24.801414489746094 24.695858001708984 C 24.81967544555664 24.57486343383789 24.87445640563965 24.40903091430664 24.923301696777344 24.327377319335938 C 25.132482528686523 23.977306365966797 25.00985336303711 22.405698776245117 24.731489181518555 21.87183380126953 C 24.437685012817383 21.307979583740234 23.526134490966797 20.383808135986328 23.21778106689453 20.336894989013672 C 23.122617721557617 20.322494506835938 22.977867126464844 20.270681381225586 22.89621353149414 20.22183609008789 C 22.58711814880371 20.037151336669922 21.10028076171875 20.15785026550293 20.62194061279297 20.40652084350586" stroke-width="1.0" fill="rgb(254, 254, 254)" opacity="1.0"/>
    <path d="M 46.71945571899414 43.73865509033203 C 44.79109573364258 49.9807014465332 43.76092529296875 52.29669189453125 40.693424224853516 57.28572463989258 C 39.78974151611328 58.755489349365234 38.730918884277344 60.559288024902344 38.3404655456543 61.29417419433594 C 37.42535400390625 63.01647186279297 37.119075775146484 63.44091796875 36.76722717285156 63.47343063354492 C 36.51691818237305 63.49644470214844 36.518104553222656 63.49985885620117 36.777320861816406 63.49985885620117 C 38.247528076171875 63.49985885620117 38.11183547973633 63.60051345825195 39.10118103027344 61.77667236328125 C 39.59956359863281 60.8581428527832 40.73024368286133 58.937355041503906 41.61388397216797 57.50841522216797 C 43.58366012573242 54.323333740234375 45.300315856933594 50.970787048339844 46.02302551269531 48.89767837524414 C 46.983863830566406 46.141944885253906 48.106529235839844 42.254638671875 48.01255416870117 42.00952911376953 C 47.962371826171875 41.87858581542969 47.78748321533203 41.77154541015625 47.624176025390625 41.77154541015625 C 47.372535705566406 41.77154541015625 47.23402404785156 42.072628021240234 46.71945571899414 43.73865509033203" stroke-width="1.0" fill="rgb(254, 254, 254)" opacity="1.0"/>
    <path d="M 34.15802001953125 40.90943145751953 C 34.09002685546875 41.016178131103516 33.988922119140625 43.1411018371582 33.933101654052734 45.631534576416016 C 33.8774299621582 48.12196731567383 33.755393981933594 50.927879333496094 33.661865234375 51.86689758300781 C 33.48430633544922 53.6497688293457 33.528099060058594 55.15887451171875 33.88856506347656 59.661102294921875 C 34.2119140625 63.701316833496094 34.18979263305664 63.59531784057617 34.707923889160156 63.59531784057617 C 34.94798278808594 63.59531784057617 35.144248962402344 63.562957763671875 35.144248962402344 63.523460388183594 C 35.144248962402344 63.48397445678711 35.044776916503906 62.36502456665039 34.923187255859375 61.036739349365234 C 34.458656311035156 55.96219253540039 34.39570617675781 53.90259552001953 34.618247985839844 51.0595703125 C 34.733604431152344 49.584754943847656 34.84910583496094 46.67447280883789 34.87479019165039 44.592308044433594 C 34.92155456542969 40.81189727783203 34.921112060546875 40.806549072265625 34.601470947265625 40.76097106933594 C 34.42554473876953 40.73588562011719 34.225868225097656 40.80268859863281 34.15802001953125 40.90943145751953" stroke-width="1.0" fill="rgb(254, 254, 254)" opacity="1.0"/>
    <path d="M 20.745607376098633 44.21877670288086 C 20.60516357421875 44.387874603271484 20.581558227539062 44.7529411315918 20.656532287597656 45.59694290161133 C 21.112899780273438 50.73488235473633 23.899959564208984 55.8116569519043 29.49782943725586 61.70244216918945 C 30.331884384155273 62.58028793334961 30.958240509033203 63.30878829956055 30.889503479003906 63.321556091308594 C 30.758710861206055 63.34590530395508 30.901084899902344 63.36030197143555 32.471946716308594 63.481597900390625 C 33.0026969909668 63.52257537841797 33.186492919921875 63.52777099609375 32.880516052246094 63.4930305480957 C 32.38227844238281 63.43646240234375 32.10436248779297 63.19343566894531 30.228702545166016 61.17436218261719 C 27.715999603271484 58.46940231323242 26.559043884277344 57.0551643371582 25.177169799804688 54.99972152709961 C 23.174726486206055 52.021148681640625 22.078044891357422 49.27299118041992 21.6856632232666 46.249725341796875 C 21.561994552612305 45.29734802246094 21.411603927612305 44.421875 21.351329803466797 44.304290771484375 C 21.1905460357666 43.98999786376953 20.96206283569336 43.95778274536133 20.745607376098633 44.21877670288086" stroke-width="1.0" fill="rgb(254, 254, 254)" opacity="1.0"/>
    <path d="M 43.75498580932617 25.589296340942383 L 44.645751953125 26.48006248474121 L 43.75498580932617 25.589296340942383 L 42.864219665527344 24.698530197143555 L 43.75498580932617 25.589296340942383" stroke-width="1.0" fill="rgb(254, 254, 254)" opacity="1.0"/>
  </g>
</svg>
