<?xml version="1.0" ?>
<svg xmlns="http://www.w3.org/2000/svg" version="1.1" width="100" height="100">
  <defs/>
  <g>
    <path d="M 46.19636154174805 27.468732833862305 C 36.76414108276367 28.854116439819336 28.755512237548828 37.17658233642578 26.625823974609375 47.806068420410156 C 26.159305572509766 50.13480758666992 26.120481491088867 54.40620040893555 26.547712326049805 56.42249298095703 C 27.425132751464844 60.56462478637695 29.159942626953125 63.75907516479492 31.995878219604492 66.45558166503906 C 33.61375045776367 67.99394989013672 35.19279479980469 69.0433120727539 37.657432556152344 70.2182388305664 C 46.63237380981445 74.49671173095703 55.31428146362305 74.37177276611328 62.31761169433594 69.86357116699219 C 65.70126342773438 67.68534851074219 68.39761352539062 64.64527893066406 70.32994079589844 60.8294677734375 C 73.74193572998047 54.09205627441406 73.93745422363281 46.37230682373047 70.86224365234375 39.81007385253906 C 69.40907287597656 36.708984375 66.7047119140625 33.450592041015625 63.70930862426758 31.191951751708984 C 61.71689987182617 29.68962860107422 61.0628776550293 29.403369903564453 58.542938232421875 28.931150436401367 C 57.398983001708984 28.716840744018555 55.83903884887695 28.365564346313477 55.07639694213867 28.1506404876709 C 54.313758850097656 27.935714721679688 53.0658073425293 27.657466888427734 52.30316925048828 27.532363891601562 C 50.82734680175781 27.29016876220703 47.637977600097656 27.25688934326172 46.19636154174805 27.468732833862305" stroke-width="1.0" fill="rgb(253, 211, 125)" opacity="1.0"/>
    <path d="M 28.849031448364258 66.84352111816406 C 28.12737464904785 67.19926452636719 26.500568389892578 68.73687744140625 25.405603408813477 70.09790802001953 C 23.3133544921875 72.69889831542969 19.717708587646484 78.44903564453125 19.717708587646484 79.19441223144531 C 19.717708587646484 80.22420501708984 20.394683837890625 80.91936492919922 21.39751434326172 80.91936492919922 C 22.295116424560547 80.91936492919922 22.609569549560547 80.62201690673828 23.82809829711914 78.62174224853516 C 26.611343383789062 74.05238342285156 29.333269119262695 70.493408203125 30.53746795654297 69.84893798828125 C 31.73735237121582 69.20677947998047 31.66478729248047 67.33007049560547 30.420223236083984 66.8099365234375 C 29.755416870117188 66.53230285644531 29.467924118041992 66.53846740722656 28.849031448364258 66.84352111816406" stroke-width="1.0" fill="rgb(253, 211, 125)" opacity="1.0"/>
    <path d="M 86.81448364257812 38.962852478027344 C 83.79520416259766 39.633819580078125 81.59618377685547 40.415870666503906 77.73246002197266 42.19243240356445 C 74.78436279296875 43.54808044433594 74.3357162475586 43.93016815185547 74.45465850830078 44.98461151123047 C 74.55264282226562 45.854637145996094 75.06707763671875 46.401424407958984 75.89057159423828 46.51112365722656 C 76.40608215332031 46.579837799072266 76.8513412475586 46.42314910888672 79.0093765258789 45.41400146484375 C 82.89436340332031 43.597381591796875 85.0517807006836 42.815330505371094 87.35372161865234 42.38886642456055 C 88.70782470703125 42.13819885253906 89.18251037597656 41.87150573730469 89.46090698242188 41.205467224121094 C 89.75595092773438 40.49906921386719 89.53856658935547 39.64044189453125 88.94693756103516 39.17515563964844 C 88.55699157714844 38.86825180053711 87.64737701416016 38.77781677246094 86.81448364257812 38.962852478027344" stroke-width="1.0" fill="rgb(253, 211, 125)" opacity="1.0"/>
    <path d="M 25.756877899169922 15.852132797241211 C 24.879152297973633 16.284603118896484 24.528953552246094 17.44704818725586 25.051401138305664 18.19304656982422 C 25.366161346435547 18.642465591430664 26.06732749938965 19.281848907470703 28.57663917541504 21.4078369140625 C 30.810476303100586 23.300567626953125 32.9678955078125 25.466461181640625 33.71343231201172 26.56496810913086 C 34.32801055908203 27.470428466796875 34.742919921875 27.765777587890625 35.40001678466797 27.765777587890625 C 36.45569610595703 27.765777587890625 37.118804931640625 27.121463775634766 37.124046325683594 26.090591430664062 C 37.12681579589844 25.532554626464844 37.00433349609375 25.244293212890625 36.410552978515625 24.412324905395508 C 35.374908447265625 22.960845947265625 33.958709716796875 21.510910034179688 31.586366653442383 19.47289276123047 C 30.439481735229492 18.487472534179688 29.11972999572754 17.339200973510742 28.65367317199707 16.921058654785156 C 27.131786346435547 15.555706024169922 26.689455032348633 15.392546653747559 25.756877899169922 15.852132797241211" stroke-width="1.0" fill="rgb(253, 211, 125)" opacity="1.0"/>
    <path d="M 67.99549865722656 67.19587707519531 C 67.11776733398438 67.73110961914062 66.94844055175781 69.12095642089844 67.67950439453125 69.78915405273438 C 67.86576843261719 69.95940399169922 68.57525634765625 70.33779907226562 69.25624084472656 70.62991333007812 C 71.84474182128906 71.74028015136719 74.34172821044922 73.45845031738281 76.74642181396484 75.78364562988281 C 78.07264709472656 77.06596374511719 78.29480743408203 77.22172546386719 78.7979965209961 77.22172546386719 C 79.94503784179688 77.22172546386719 80.56608581542969 76.60128784179688 80.57147979736328 75.44993591308594 L 80.57502746582031 74.67959594726562 L 79.12477111816406 73.26386260986328 C 76.63488006591797 70.83328247070312 73.55381774902344 68.72315979003906 70.69400024414062 67.49030303955078 C 69.14608001708984 66.82303619384766 68.68895721435547 66.77311706542969 67.99549865722656 67.19587707519531" stroke-width="1.0" fill="rgb(253, 211, 125)" opacity="1.0"/>
    <path d="M 47.024940490722656 75.26890563964844 C 46.21654510498047 75.718017578125 46.16508483886719 75.9620590209961 46.2777099609375 78.8197250366211 C 46.54393768310547 85.5754623413086 47.033260345458984 88.88885498046875 47.86122512817383 89.5402603149414 C 48.44591522216797 90.0 49.45197677612305 89.96595001220703 50.04606628417969 89.46599578857422 C 50.66218566894531 88.94754791259766 50.75139236450195 88.41987609863281 50.46112823486328 87.01399993896484 C 50.32770538330078 86.36798858642578 50.17086410522461 85.30430603027344 50.11277770996094 84.65043640136719 C 50.05469512939453 83.99656677246094 49.980587005615234 83.58674621582031 49.94807815551758 83.7398910522461 C 49.913875579833984 83.90166473388672 49.781532287597656 83.99765014648438 49.632545471191406 83.968994140625 C 49.40452575683594 83.92523956298828 49.371246337890625 83.56317901611328 49.33427047729492 80.72477722167969 C 49.30392074584961 78.39957427978516 49.34074401855469 77.52986145019531 49.46938705444336 77.52986145019531 C 49.589561462402344 77.52986145019531 49.62160873413086 77.2738037109375 49.56938171386719 76.73008728027344 C 49.50682830810547 76.07991790771484 49.40190887451172 75.8495864868164 49.00811004638672 75.49754333496094 C 48.472564697265625 75.0191650390625 47.646297454833984 74.9239501953125 47.024940490722656 75.26890563964844" stroke-width="1.0" fill="rgb(253, 211, 125)" opacity="1.0"/>
    <path d="M 58.465904235839844 10.194896697998047 C 57.86781311035156 10.442330360412598 57.491416931152344 11.073240280151367 56.57748794555664 13.360384941101074 C 55.116458892822266 17.016273498535156 54.07603073120117 20.486663818359375 54.075416564941406 21.706729888916016 C 54.07464599609375 22.934040069580078 55.27715301513672 23.75707244873047 56.39460754394531 23.29425048828125 C 57.01350021362305 23.03788185119629 57.31039047241211 22.582609176635742 57.31039047241211 21.88976287841797 C 57.31039047241211 21.576698303222656 57.37663650512695 21.297523498535156 57.457679748535156 21.269176483154297 C 57.538719177246094 21.240982055664062 57.85317611694336 20.35123634338379 58.15653610229492 19.292016983032227 C 58.45989227294922 18.232797622680664 59.190948486328125 16.159345626831055 59.78103256225586 14.684449195861816 C 60.37111282348633 13.20939826965332 60.85396194458008 11.902589797973633 60.85396194458008 11.780413627624512 C 60.85396194458008 11.285083770751953 60.34245300292969 10.521829605102539 59.85590744018555 10.290881156921387 C 59.294944763183594 10.024805068969727 58.9368896484375 10.0 58.465904235839844 10.194896697998047" stroke-width="1.0" fill="rgb(253, 211, 125)" opacity="1.0"/>
    <path d="M 11.303726196289062 41.31254577636719 C 10.344496726989746 41.724220275878906 10.0 43.16691207885742 10.666961669921875 43.97885513305664 C 10.94459342956543 44.31672668457031 11.423591613769531 44.51871109008789 13.092767715454102 45.00217819213867 C 14.236725807189941 45.33342361450195 16.004661560058594 45.84754943847656 17.02151107788086 46.14474868774414 C 19.309120178222656 46.81340408325195 20.950254440307617 47.02740478515625 20.950254440307617 46.65702438354492 C 20.950254440307617 46.46089553833008 21.113874435424805 46.408050537109375 21.720596313476562 46.408050537109375 C 22.38817596435547 46.408050537109375 22.490938186645508 46.44918441772461 22.490938186645508 46.7161865234375 C 22.490938186645508 47.15220260620117 22.708789825439453 47.09904861450195 23.170534133911133 46.550254821777344 C 23.711929321289062 45.906864166259766 23.712085723876953 45.060569763183594 23.170841217041016 44.41733169555664 C 22.744226455688477 43.91029357910156 21.844158172607422 43.58505630493164 20.342300415039062 43.3953971862793 C 19.88086700439453 43.337158203125 18.008935928344727 42.84368133544922 16.18245506286621 42.298892974853516 C 12.687723159790039 41.2564697265625 11.835724830627441 41.08422088623047 11.303726196289062 41.31254577636719" stroke-width="1.0" fill="rgb(253, 211, 125)" opacity="1.0"/>
    <path d="M 73.08021545410156 26.890514373779297 C 69.82243347167969 29.591949462890625 69.10478210449219 30.552257537841797 69.4842529296875 31.70191764831543 C 69.79593658447266 32.646507263183594 71.03973388671875 33.13798904418945 71.88848876953125 32.65205383300781 C 72.06829071044922 32.54914093017578 72.57009887695312 32.074607849121094 73.00379180908203 31.597612380981445 C 73.43765258789062 31.120771408081055 74.58007049560547 30.095754623413086 75.54268646240234 29.31986427307129 C 77.68084716796875 27.59645652770996 78.02072143554688 27.0479736328125 77.58932495117188 26.015560150146484 C 77.32864379882812 25.391738891601562 76.66923522949219 24.99254608154297 75.89950561523438 24.99254608154297 C 75.44731903076172 24.99254608154297 75.03071594238281 25.272951126098633 73.08021545410156 26.890514373779297" stroke-width="1.0" fill="rgb(253, 211, 125)" opacity="1.0"/>
    <path d="M 36.21149444580078 74.48963165283203 C 35.66748046875 74.76494598388672 35.3254508972168 75.43869018554688 34.48454284667969 77.8914566040039 C 33.57230758666992 80.55252838134766 33.543033599853516 81.06341552734375 34.26176452636719 81.78215026855469 C 34.68391036987305 82.20429229736328 34.905921936035156 82.30597686767578 35.40541076660156 82.30597686767578 C 36.353240966796875 82.30597686767578 36.892478942871094 81.7644271850586 37.29521560668945 80.40769958496094 C 37.47578430175781 79.7994384765625 37.869117736816406 78.64439392089844 38.16939926147461 77.84123229980469 C 38.75347137451172 76.27882385253906 38.81910705566406 75.59244537353516 38.43963623046875 75.0133056640625 C 37.99884796142578 74.34049224853516 36.979530334472656 74.10091400146484 36.21149444580078 74.48963165283203" stroke-width="1.0" fill="rgb(253, 211, 125)" opacity="1.0"/>
    <path d="M 61.05656433105469 73.12734985351562 C 60.425498962402344 73.40945434570312 60.02568817138672 74.16963195800781 60.12568283081055 74.89729309082031 C 60.21858596801758 75.5733413696289 62.12641525268555 79.6224136352539 62.579063415527344 80.10433959960938 C 63.0001335144043 80.55252838134766 63.8040657043457 80.70305633544922 64.4183349609375 80.44853210449219 C 64.96804809570312 80.22081756591797 65.47462463378906 79.4820556640625 65.47540283203125 78.90676879882812 C 65.476318359375 78.31729888916016 63.266517639160156 73.65211486816406 62.835899353027344 73.33427429199219 C 62.318687438964844 72.95263671875 61.627079010009766 72.8720703125 61.05656433105469 73.12734985351562" stroke-width="1.0" fill="rgb(253, 211, 125)" opacity="1.0"/>
    <path d="M 22.0772647857666 30.148292541503906 C 21.249610900878906 30.508195877075195 20.855655670166016 31.697603225708008 21.30230140686035 32.48766326904297 C 21.40522003173828 32.66961669921875 22.009475708007812 33.219642639160156 22.645008087158203 33.70988845825195 C 23.28053855895996 34.20013427734375 24.09109115600586 34.86339569091797 24.44622039794922 35.18401336669922 C 24.801347732543945 35.50463104248047 25.278804779052734 35.813846588134766 25.50728988647461 35.87116241455078 C 26.889127731323242 36.21796798706055 28.086393356323242 34.88789749145508 27.58336067199707 33.564910888671875 C 27.29401969909668 32.80381393432617 23.57265281677246 29.916418075561523 22.897062301635742 29.928743362426758 C 22.716032028198242 29.9321346282959 22.347192764282227 30.03089141845703 22.0772647857666 30.148292541503906" stroke-width="1.0" fill="rgb(253, 211, 125)" opacity="1.0"/>
    <path d="M 76.26079559326172 55.76801300048828 C 75.73018646240234 56.03300857543945 75.72032928466797 56.05565643310547 75.64452362060547 57.184364318847656 C 75.55424499511719 58.529842376708984 75.64375305175781 58.66588592529297 76.90973663330078 59.10528564453125 C 77.3577651977539 59.2607421875 78.23241424560547 59.65669631958008 78.85330963134766 59.98516845703125 C 80.60491180419922 60.911739349365234 81.74163055419922 60.709449768066406 82.1012191772461 59.40664291381836 C 82.47314453125 58.06024169921875 81.32903289794922 57.0484733581543 78.1388931274414 55.90266799926758 C 76.80311584472656 55.4227409362793 76.93315887451172 55.4321403503418 76.26079559326172 55.76801300048828" stroke-width="1.0" fill="rgb(253, 211, 125)" opacity="1.0"/>
    <path d="M 43.35487747192383 16.695194244384766 C 42.69977951049805 17.013038635253906 42.46852493286133 17.685855865478516 42.57436752319336 18.96647071838379 C 42.813175201416016 21.858795166015625 43.55223846435547 23.297794342041016 44.7989616394043 23.297794342041016 C 45.716590881347656 23.297794342041016 46.06340026855469 22.959306716918945 46.06340026855469 22.064167022705078 C 46.06340026855469 21.56098175048828 46.138736724853516 21.268096923828125 46.289878845214844 21.183513641357422 C 46.48539352416992 21.073970794677734 46.48816680908203 20.962116241455078 46.30929183959961 20.36695098876953 C 46.195281982421875 19.98763656616211 46.05076599121094 19.226539611816406 45.988059997558594 18.675743103027344 C 45.859718322753906 17.548425674438477 45.71120071411133 17.176349639892578 45.236515045166016 16.79179573059082 C 44.87306594848633 16.497371673583984 43.86869812011719 16.445758819580078 43.35487747192383 16.695194244384766" stroke-width="1.0" fill="rgb(253, 211, 125)" opacity="1.0"/>
    <path d="M 21.720596313476562 58.895904541015625 C 19.722639083862305 59.26644515991211 19.417736053466797 59.372745513916016 19.02979278564453 59.83372116088867 C 18.454811096191406 60.51701354980469 18.481002807617188 61.52631759643555 19.08957290649414 62.1348876953125 C 19.449783325195312 62.49509811401367 19.673336029052734 62.58476638793945 20.206565856933594 62.582763671875 C 21.36701011657715 62.57829284667969 24.00157928466797 62.04398727416992 24.330669403076172 61.74617004394531 C 24.817216873168945 61.30569076538086 25.01226806640625 60.52610778808594 24.797958374023438 59.87717056274414 C 24.464553833007812 58.866943359375 23.512874603271484 58.56342697143555 21.720596313476562 58.895904541015625" stroke-width="1.0" fill="rgb(253, 211, 125)" opacity="1.0"/>
  </g>
</svg>
