<?xml version="1.0" ?>
<svg xmlns="http://www.w3.org/2000/svg" version="1.1" width="100" height="100">
  <defs/>
  <g>
    <path d="M 46.7538948059082 10.375636100769043 C 45.458091735839844 10.857370376586914 43.784358978271484 11.981412887573242 42.748348236083984 13.06588363647461 C 42.33686828613281 13.496575355529785 40.5263557434082 16.816804885864258 38.72502136230469 20.444133758544922 C 35.15303039550781 27.636863708496094 34.18239974975586 28.92233657836914 31.626060485839844 29.84881591796875 C 30.925827026367188 30.102588653564453 27.449325561523438 30.719947814941406 23.900848388671875 31.220605850219727 C 16.39098358154297 32.27984619140625 14.879833221435547 32.75440979003906 12.826165199279785 34.696537017822266 C 10.685321807861328 36.721248626708984 10.0 38.41877746582031 10.012903213500977 41.663307189941406 C 10.028961181640625 45.611507415771484 10.337784767150879 46.10069274902344 16.888774871826172 52.559635162353516 C 19.92827606201172 55.556129455566406 22.640892028808594 58.45943069458008 22.917314529418945 59.011409759521484 C 23.19373321533203 59.563392639160156 23.478759765625 60.92486572265625 23.5510196685791 62.03657150268555 C 23.676616668701172 63.971534729003906 23.534099578857422 65.01500701904297 22.2405948638916 71.62821960449219 C 21.561294555664062 75.10041809082031 21.58538055419922 80.06627655029297 22.287906646728516 81.3775634765625 C 23.71532440185547 84.0428695678711 25.657739639282227 85.73466491699219 28.324758529663086 86.63533020019531 C 31.09959602355957 87.57241821289062 33.250186920166016 87.15864562988281 37.664634704589844 84.83858489990234 C 46.97669982910156 79.94441223144531 47.86102294921875 79.55672454833984 49.765869140625 79.53636932373047 C 51.757320404052734 79.51486206054688 53.471195220947266 80.06111145019531 56.01634979248047 81.52896881103516 C 59.27406692504883 83.40771484375 64.53012084960938 86.05782318115234 66.02578735351562 86.57568359375 C 68.84821319580078 87.55291748046875 71.82635498046875 87.06602478027344 74.40476989746094 85.20532989501953 C 77.7642822265625 82.78060913085938 79.00646209716797 79.01564025878906 78.07998657226562 74.0655517578125 C 77.77890014648438 72.4569091796875 77.14060974121094 68.7696533203125 76.64080810546875 65.75222778320312 C 76.1476058959961 62.77350997924805 76.40281677246094 59.98204803466797 77.29660034179688 58.579288482666016 C 77.69775390625 57.94959259033203 80.3742446899414 55.13776397705078 83.24427032470703 52.33110046386719 C 89.451171875 46.26127243041992 90.00000762939453 45.39271926879883 89.98853302001953 41.663307189941406 C 89.98021697998047 38.95671463012695 89.37259674072266 37.44957733154297 87.41011810302734 35.266578674316406 C 85.27300262451172 32.88975524902344 83.60128021240234 32.225074768066406 77.95238494873047 31.507062911987305 C 71.32368469238281 30.664608001708984 68.07744598388672 29.966093063354492 66.5029296875 29.043350219726562 C 65.23263549804688 28.2989559173584 64.04522705078125 27.096633911132812 64.04522705078125 26.554969787597656 C 64.04522705078125 26.409873962402344 62.72562789916992 23.620702743530273 61.11296463012695 20.35696792602539 C 57.97740173339844 14.010709762573242 56.81321334838867 12.391745567321777 54.33717346191406 10.932496070861816 C 53.20050811767578 10.262948036193848 52.627593994140625 10.134770393371582 50.42481231689453 10.059072494506836 C 48.70548629760742 10.0 47.480224609375 10.105525970458984 46.7538948059082 10.375636100769043" stroke-width="1.0" fill="rgb(81, 55, 54)" opacity="1.0"/>
    <path d="M 46.89669418334961 12.305721282958984 C 44.80976104736328 13.270621299743652 43.70866012573242 14.72356128692627 40.96221160888672 20.13846206665039 C 39.54281997680664 22.936811447143555 38.413902282714844 25.344045639038086 38.45318603515625 25.48769760131836 C 38.492759704589844 25.631359100341797 38.388092041015625 25.74892807006836 38.22120666503906 25.74892807006836 C 38.0543212890625 25.74892807006836 37.99726104736328 25.877965927124023 38.094757080078125 26.035673141479492 C 38.19224548339844 26.193378448486328 38.147804260253906 26.322418212890625 37.99639892578125 26.322418212890625 C 37.84471130371094 26.322418212890625 37.594669342041016 26.677410125732422 37.4406852722168 27.1109676361084 C 36.865474700927734 28.730220794677734 33.302947998046875 31.62377166748047 31.49960708618164 31.93661117553711 C 30.81026840209961 32.05589294433594 29.40349769592285 32.289024353027344 28.130346298217773 32.49461364746094 C 27.617931365966797 32.57719421386719 26.74679946899414 32.69677734375 26.194814682006836 32.759857177734375 C 25.6428279876709 32.82322311401367 24.739582061767578 32.95942687988281 24.18759536743164 33.06294250488281 C 23.043193817138672 33.27714538574219 21.63039779663086 33.47528839111328 20.17315673828125 33.62582778930664 C 19.19105339050293 33.72733688354492 18.353473663330078 33.874725341796875 17.123046875 34.162620544433594 C 16.436290740966797 34.32319641113281 15.36300277709961 34.898399353027344 14.813024520874023 35.40106964111328 C 14.612588882446289 35.584014892578125 14.349355697631836 35.777565002441406 14.228350639343262 35.83119201660156 C 13.846978187561035 35.99950408935547 12.445365905761719 38.00471496582031 12.119623184204102 38.84803771972656 C 11.699541091918945 39.935089111328125 11.59831714630127 42.92584991455078 11.951590538024902 43.81389617919922 C 12.108439445495605 44.20817184448242 12.21596908569336 44.627685546875 12.190446853637695 44.745819091796875 C 12.165214538574219 44.86424255371094 12.281061172485352 44.960880279541016 12.44794750213623 44.960880279541016 C 12.61483383178711 44.960880279541016 12.671893119812012 45.08991622924805 12.574400901794434 45.247623443603516 C 12.476907730102539 45.405330657958984 12.533967971801758 45.53437042236328 12.70085334777832 45.53437042236328 C 12.8677396774292 45.53437042236328 13.004518508911133 45.69752883911133 13.004518508911133 45.8971061706543 C 13.004518508911133 46.21883010864258 16.2390079498291 49.46737289428711 21.213756561279297 54.14160919189453 C 23.104843139648438 55.91885757446289 24.066299438476562 57.04318618774414 23.96737289428711 57.36262512207031 C 23.93067169189453 57.481048583984375 24.021282196044922 57.57768249511719 24.16838264465332 57.57768249511719 C 24.402366638183594 57.57768249511719 24.77570915222168 58.32322311401367 24.742446899414062 58.724666595458984 C 24.73585319519043 58.80351638793945 24.923381805419922 59.32941436767578 25.158802032470703 59.893436431884766 C 25.580604553222656 60.90278625488281 25.595516204833984 63.969810485839844 25.188623428344727 66.03668212890625 C 25.095720291137695 66.50980377197266 24.967544555664062 67.28401947021484 24.903884887695312 67.75714874267578 C 24.840513229370117 68.23027801513672 24.713197708129883 68.93997192382812 24.621152877807617 69.3342514038086 C 24.413837432861328 70.22315979003906 24.18874168395996 71.50262451171875 24.040782928466797 72.63182067871094 C 23.978845596313477 73.10494995117188 23.845794677734375 73.81465148925781 23.745147705078125 74.20892333984375 C 23.644210815429688 74.60320281982422 23.51632308959961 75.8843765258789 23.460983276367188 77.05601501464844 C 23.381267547607422 78.73664093017578 23.482200622558594 79.45465087890625 23.93898582458496 80.45767974853516 C 24.561511993408203 81.8243179321289 26.155532836914062 83.4831314086914 27.684459686279297 84.35569763183594 C 29.547727584838867 85.41895294189453 32.713111877441406 85.44562530517578 34.291358947753906 84.41161346435547 C 34.67359161376953 84.16129302978516 35.0727424621582 84.0428695678711 35.178550720214844 84.14838409423828 C 35.28407287597656 84.25419616699219 35.37067413330078 84.2134780883789 35.37067413330078 84.05776977539062 C 35.37067413330078 83.90235900878906 36.33843994140625 83.34980010986328 37.521263122558594 82.8299331665039 C 38.70408630371094 82.31034088134766 39.671852111816406 81.76323699951172 39.671852111816406 81.61441040039062 C 39.671852111816406 81.4655990600586 39.80088806152344 81.42344665527344 39.95860290527344 81.52093505859375 C 40.116310119628906 81.6184310913086 40.24534606933594 81.57627868652344 40.24534606933594 81.42745971679688 C 40.24534606933594 81.27863311767578 41.213111877441406 80.73152923583984 42.395938873291016 80.21194458007812 C 43.57876205444336 79.69207763671875 44.54652786254883 79.13951873779297 44.54652786254883 78.98410034179688 C 44.54652786254883 78.8283920288086 44.62739181518555 78.78223419189453 44.726318359375 78.88086700439453 C 44.82524490356445 78.97979736328125 45.308982849121094 78.8456039428711 45.801612854003906 78.5823745727539 C 46.29424285888672 78.31941986083984 46.79404067993164 78.08257293701172 46.91218185424805 78.05619049072266 C 47.03060531616211 78.02981567382812 47.159645080566406 77.98220825195312 47.19892501831055 77.95037841796875 C 47.2714729309082 77.89188385009766 47.7242431640625 77.80155944824219 49.27783203125 77.5360336303711 C 49.75095748901367 77.4551773071289 50.718727111816406 77.51453399658203 51.42842102050781 77.66822052001953 C 53.164955139160156 78.04414367675781 53.166099548339844 78.04443359375 54.18777084350586 78.58609771728516 C 54.68040466308594 78.84703063964844 55.164146423339844 78.97979736328125 55.263065338134766 78.88086700439453 C 55.361995697021484 78.78223419189453 55.4428596496582 78.84101104736328 55.4428596496582 79.01219940185547 C 55.4428596496582 79.18309783935547 56.02351760864258 79.54468536376953 56.73321533203125 79.81566619873047 C 57.44291305541992 80.08663177490234 58.0235710144043 80.42758178710938 58.0235710144043 80.5732421875 C 58.0235710144043 80.71891021728516 58.152610778808594 80.75819396972656 58.3103141784668 80.66069793701172 C 58.468021392822266 80.5632095336914 58.59706115722656 80.6036376953125 58.59706115722656 80.75045013427734 C 58.59706115722656 80.89727020263672 59.82289505004883 81.57312774658203 61.321144104003906 82.2527084350586 C 62.81938934326172 82.93229675292969 64.04522705078125 83.6015625 64.04522705078125 83.74006652832031 C 64.04522705078125 83.87884521484375 64.17427062988281 83.91239166259766 64.33197021484375 83.81490325927734 C 64.48967742919922 83.7174072265625 64.61871337890625 83.78192901611328 64.61871337890625 83.9582748413086 C 64.61871337890625 84.1346206665039 64.73685455322266 84.20602416992188 64.88108825683594 84.1168441772461 C 65.02532196044922 84.02766418457031 65.18876647949219 84.09160614013672 65.24468994140625 84.25878143310547 C 65.3003158569336 84.42623901367188 65.6016845703125 84.6106185913086 65.91423034667969 84.66883087158203 C 66.22679138183594 84.72703552246094 66.48255920410156 84.79327392578125 66.48255920410156 84.81621551513672 C 66.48255920410156 84.89048767089844 68.18612670898438 85.16490173339844 68.77652740478516 85.18582916259766 C 70.17728424072266 85.23515319824219 72.93434143066406 84.37491607666016 72.93434143066406 83.88831329345703 C 72.93434143066406 83.7690200805664 73.04961395263672 83.67152404785156 73.19068908691406 83.67152404785156 C 73.55514526367188 83.67152404785156 75.22830200195312 82.0660400390625 75.22830200195312 81.71649932861328 C 75.22830200195312 81.55648803710938 75.35848999023438 81.38186645507812 75.5179214477539 81.32881164550781 C 75.67706298828125 81.27576446533203 75.86172485351562 80.95088195800781 75.92796325683594 80.60679626464844 C 75.99419403076172 80.2626953125 76.1714096069336 79.74684143066406 76.32138061523438 79.4606704711914 C 76.59809112548828 78.933349609375 76.54560852050781 76.21327209472656 76.22846984863281 74.63904571533203 C 76.13327026367188 74.1659164428711 76.01197814941406 73.45622253417969 75.95893096923828 73.06194305419922 C 75.9058837890625 72.66766357421875 75.77025604248047 71.82894134521484 75.65756225585938 71.1980972290039 C 75.43275451660156 69.9381332397461 75.27074432373047 68.99502563476562 75.09209442138672 67.90052795410156 C 75.02758026123047 67.5062484741211 74.91173553466797 66.86106872558594 74.83488464355469 66.466796875 C 74.49308776855469 64.71707153320312 74.26885223388672 63.1138801574707 74.27315521240234 62.45235824584961 C 74.28003692626953 61.37705993652344 74.67488861083984 59.483680725097656 74.96650695800781 59.12839889526367 C 75.10758972167969 58.95606994628906 75.13855743408203 58.73039627075195 75.03475189208984 58.62659454345703 C 74.93095397949219 58.52279281616211 75.00406646728516 58.43791961669922 75.19733428955078 58.43791961669922 C 75.3906021118164 58.43791961669922 75.46916961669922 58.30887985229492 75.37167358398438 58.15117263793945 C 75.27418518066406 57.99346923828125 75.32235717773438 57.86442947387695 75.47891998291016 57.86442947387695 C 75.63519287109375 57.86442947387695 75.85082244873047 57.58857727050781 75.9577865600586 57.251365661621094 C 76.14359283447266 56.66525650024414 79.37091064453125 53.33585739135742 84.2751235961914 48.670509338378906 C 87.11418914794922 45.96965026855469 87.18128967285156 45.880760192871094 87.88209533691406 43.87870407104492 C 88.440673828125 42.28324508666992 88.42232513427734 40.45065689086914 87.83306884765625 38.93922424316406 C 87.80238342285156 38.86036682128906 87.79235076904297 38.699214935302734 87.81126403808594 38.580787658691406 C 87.82991027832031 38.46265411376953 87.70833587646484 38.36573028564453 87.54144287109375 38.36573028564453 C 87.37455749511719 38.36573028564453 87.31749725341797 38.2366943359375 87.41498565673828 38.07898712158203 C 87.51248168945312 37.92127990722656 87.45541381835938 37.792240142822266 87.28852844238281 37.792240142822266 C 87.12164306640625 37.792240142822266 86.98487091064453 37.64801025390625 86.98487091064453 37.471946716308594 C 86.98487091064453 37.08368682861328 84.97679138183594 35.09798049926758 84.12113952636719 34.640045166015625 C 83.78335571289062 34.45911407470703 83.22477722167969 34.254371643066406 82.8801040649414 34.18498229980469 C 82.53543853759766 34.11559295654297 81.86646270751953 33.98024368286133 81.3933334350586 33.88447570800781 C 80.92020416259766 33.7886962890625 80.21051025390625 33.67314147949219 79.81623077392578 33.627830505371094 C 77.76342010498047 33.391273498535156 76.44611358642578 33.2011604309082 75.80179595947266 33.047752380371094 C 75.40751647949219 32.95426559448242 74.63330078125 32.829532623291016 74.0813217163086 32.770751953125 C 71.82176208496094 32.53074645996094 70.45857238769531 32.34321594238281 69.78013610839844 32.17919158935547 C 69.3858642578125 32.08399200439453 68.84017944335938 31.977041244506836 68.56719970703125 31.9417667388916 C 68.29450988769531 31.906789779663086 67.98281860351562 31.789222717285156 67.87442779541016 31.680835723876953 C 67.76603698730469 31.572439193725586 67.44087219238281 31.483837127685547 67.15154266357422 31.483837127685547 C 66.86250305175781 31.483837127685547 66.62593078613281 31.347063064575195 66.62593078613281 31.180177688598633 C 66.62593078613281 31.013290405273438 66.49690246582031 30.956226348876953 66.33918762207031 31.053720474243164 C 66.18148803710938 31.151212692260742 66.05244445800781 31.094148635864258 66.05244445800781 30.927261352539062 C 66.05244445800781 30.7603759765625 65.92684936523438 30.62360191345215 65.77315521240234 30.62360191345215 C 65.40956115722656 30.62360191345215 62.89824295043945 28.112285614013672 62.89824295043945 27.748689651489258 C 62.89824295043945 27.59499168395996 62.747703552246094 27.46940040588379 62.56361389160156 27.46940040588379 C 62.37980270385742 27.46940040588379 62.308982849121094 27.389400482177734 62.40676498413086 27.291908264160156 C 62.50425720214844 27.19412612915039 62.39558029174805 26.925731658935547 62.165035247802734 26.69518280029297 C 61.93449401855469 26.464645385742188 61.81922149658203 26.157535552978516 61.90896987915039 26.012447357177734 C 61.998435974121094 25.867639541625977 61.9135627746582 25.74892807006836 61.72029495239258 25.74892807006836 C 61.52702331542969 25.74892807006836 61.44874954223633 25.668926239013672 61.54652786254883 25.571434020996094 C 61.644020080566406 25.47365379333496 61.53534698486328 25.205257415771484 61.3047981262207 24.97471046447754 C 61.074256896972656 24.744171142578125 60.958984375 24.437061309814453 61.04873275756836 24.291975021362305 C 61.13819885253906 24.147167205810547 61.0673713684082 24.028453826904297 60.89102554321289 24.028453826904297 C 60.71467971801758 24.028453826904297 60.64126968383789 23.914047241210938 60.727577209472656 23.774112701416016 C 60.81388854980469 23.63446807861328 60.694026947021484 23.361766815185547 60.460906982421875 23.168216705322266 C 60.227787017822266 22.974666595458984 60.10792541503906 22.70196533203125 60.194236755371094 22.562320709228516 C 60.28054428100586 22.422388076782227 60.19308853149414 22.307979583740234 59.999820709228516 22.307979583740234 C 59.806549072265625 22.307979583740234 59.728843688964844 22.22740364074707 59.82720184326172 22.129053115844727 C 60.02735137939453 21.928905487060547 58.95922088623047 19.681968688964844 58.53397750854492 19.408409118652344 C 58.38400650024414 19.312063217163086 58.27074432373047 19.11850929260254 58.28250503540039 18.978290557861328 C 58.32350158691406 18.482223510742188 57.98112869262695 17.720050811767578 57.71761703491211 17.720050811767578 C 57.57051467895508 17.720050811767578 57.48075866699219 17.623416900634766 57.51832580566406 17.504993438720703 C 57.629295349121094 17.154300689697266 56.828704833984375 15.426087379455566 56.555145263671875 15.426087379455566 C 56.416358947753906 15.426087379455566 56.303096771240234 15.307089805603027 56.303096771240234 15.161419868469238 C 56.303096771240234 14.840839385986328 54.73861312866211 13.2476806640625 53.8565788269043 12.669600486755371 C 52.355472564697266 11.686065673828125 48.65559005737305 11.492510795593262 46.89669418334961 12.305721282958984" stroke-width="1.0" fill="rgb(248, 186, 67)" opacity="1.0"/>
  </g>
</svg>
