<?xml version="1.0" ?>
<svg xmlns="http://www.w3.org/2000/svg" version="1.1" width="100" height="100">
  <defs/>
  <g>
    <path d="M 51.847896575927734 10.395301818847656 C 45.947086334228516 10.824551582336426 40.610511779785156 12.353560447692871 36.08721923828125 14.911212921142578 C 34.72929382324219 15.679004669189453 34.461334228515625 15.862164497375488 32.326087951660156 17.481746673583984 C 29.202451705932617 19.85114097595215 26.3767032623291 23.378530502319336 24.434947967529297 27.332082748413086 C 24.08111000061035 28.052509307861328 23.85031509399414 28.371997833251953 23.68366050720215 28.371997833251953 C 23.550819396972656 28.371997833251953 22.076690673828125 27.0325870513916 20.392030715942383 25.381202697753906 C 18.713943481445312 23.73626136779785 16.891075134277344 21.970016479492188 16.341060638427734 21.45636558532715 C 15.791181564331055 20.942581176757812 14.583539962768555 19.787673950195312 13.657411575317383 18.889589309692383 C 11.033876419067383 16.345623016357422 10.72646427154541 16.14877700805664 10.231061935424805 16.696243286132812 C 10.017711639404297 16.9320011138916 10.0 17.129383087158203 10.077423095703125 18.40707015991211 C 10.125595092773438 19.20142936706543 10.218046188354492 20.213703155517578 10.282856941223145 20.656505584716797 C 10.34766674041748 21.099308013916016 10.527739524841309 22.36733055114746 10.683122634887695 23.474336624145508 C 11.131426811218262 26.669355392456055 12.163960456848145 32.49623107910156 12.799314498901367 35.41658020019531 C 12.992000579833984 36.30218505859375 13.296730041503906 37.71794128417969 13.476533889770508 38.5627555847168 C 13.656338691711426 39.40756607055664 13.978913307189941 40.76616668701172 14.19347095489502 41.58186340332031 C 14.407894134521484 42.39755630493164 14.71450138092041 43.57822799682617 14.874715805053711 44.205528259277344 C 15.39145278930664 46.22833251953125 16.872827529907227 50.50875473022461 17.552326202392578 51.94235610961914 C 17.91582679748535 52.709075927734375 18.213176727294922 53.37153625488281 18.213176727294922 53.41434097290039 C 18.213176727294922 53.457279205322266 18.382110595703125 53.742549896240234 18.588483810424805 54.04848861694336 C 18.79499053955078 54.35442352294922 19.0052547454834 54.712554931640625 19.05584144592285 54.84445571899414 C 19.187744140625 55.188232421875 21.391422271728516 58.52119064331055 21.552709579467773 58.620887756347656 C 21.626911163330078 58.666778564453125 21.870319366455078 58.974998474121094 22.093597412109375 59.30589294433594 C 23.09285545349121 60.786460876464844 26.616487503051758 64.52894592285156 28.2768611907959 65.87332153320312 C 28.608964920043945 66.14221954345703 28.99849510192871 66.46412658691406 29.142606735229492 66.58877563476562 C 29.286584854125977 66.71330261230469 29.654647827148438 66.99642944335938 29.96044921875 67.21782684326172 C 30.26638412475586 67.43922424316406 30.827804565429688 67.87263488769531 31.208078384399414 68.18112182617188 C 31.588483810424805 68.48947143554688 32.36768341064453 69.02969360351562 32.93970489501953 69.38165283203125 C 33.51158905029297 69.73361206054688 34.150299072265625 70.16058349609375 34.358951568603516 70.3305892944336 C 34.567604064941406 70.5004653930664 34.89970397949219 70.67973327636719 35.096954345703125 70.72884368896484 C 35.29420471191406 70.77809143066406 35.61570358276367 70.91387939453125 35.81134033203125 71.03075408935547 C 36.89849090576172 71.68032836914062 37.44702911376953 71.98130798339844 37.54364013671875 71.98130798339844 C 37.60334777832031 71.98130798339844 38.335044860839844 72.31340789794922 39.16979217529297 72.71930694580078 C 40.00440979003906 73.12521362304688 40.77904510498047 73.45730590820312 40.8912239074707 73.45730590820312 C 41.00339889526367 73.45730590820312 41.42634201049805 73.58344268798828 41.831172943115234 73.73774719238281 C 44.125423431396484 74.6115493774414 46.33662033081055 75.14398956298828 49.845760345458984 75.66756439208984 C 51.706871032714844 75.9451904296875 56.692420959472656 75.94532012939453 58.67939376831055 75.66783142089844 C 61.44583511352539 75.28152465820312 63.770145416259766 74.76626586914062 65.4454116821289 74.16807556152344 C 66.367919921875 73.83866119384766 67.32020568847656 73.51071166992188 67.56159973144531 73.4390640258789 C 68.28672790527344 73.22410583496094 73.09140014648438 70.78426361083984 74.1003189086914 70.11871337890625 C 77.75035095214844 67.7108154296875 81.2677993774414 64.44198608398438 83.66873168945312 61.226444244384766 C 84.42095947265625 60.21900177001953 85.2220230102539 59.04155349731445 85.44893646240234 58.609886169433594 C 85.67570495605469 58.178218841552734 85.93682098388672 57.73448181152344 86.02886199951172 57.623779296875 C 86.18170166015625 57.440216064453125 87.47897338867188 54.83895492553711 87.73526763916016 54.202125549316406 C 88.60798645019531 52.03400421142578 88.8678970336914 51.25534439086914 89.21355438232422 49.77410125732422 C 89.8888931274414 46.88032150268555 89.9959716796875 45.955806732177734 89.99798583984375 42.997886657714844 C 90.0 40.185691833496094 89.8894271850586 39.16053771972656 89.31794738769531 36.69131088256836 C 88.89339447021484 34.85676574707031 88.8016128540039 34.55807876586914 88.1638412475586 32.9342041015625 C 86.88871002197266 29.687925338745117 85.24161529541016 26.77066421508789 83.054443359375 23.885068893432617 C 82.23902130126953 22.809192657470703 77.90505981445312 18.50797462463379 77.35208892822266 18.225788116455078 C 77.1133804321289 18.10395050048828 76.6764907836914 17.795196533203125 76.38128662109375 17.53971290588379 C 74.8416748046875 16.207012176513672 71.65443420410156 14.33543586730957 68.73287963867188 13.048491477966309 C 64.32391357421875 11.106334686279297 57.28322219848633 10.0 51.847896575927734 10.395301818847656" stroke-width="1.0" fill="rgb(81, 55, 54)" opacity="1.0"/>
    <path d="M 55.09779739379883 11.793617248535156 C 55.057003021240234 11.8344087600708 54.04701232910156 11.874395370483398 52.85332489013672 11.8824462890625 C 51.65950393676758 11.890630722045898 50.65420913696289 11.943633079528809 50.61905288696289 12.000258445739746 C 50.58403015136719 12.05701732635498 50.282657623291016 12.07271671295166 49.94948196411133 12.03514575958252 C 49.566795349121094 11.992073059082031 49.34351348876953 12.019580841064453 49.34351348876953 12.11001968383789 C 49.34351348876953 12.198714256286621 49.1647834777832 12.22420883178711 48.87387466430664 12.176976203918457 C 48.56525802612305 12.12692642211914 48.40423583984375 12.153762817382812 48.40423583984375 12.255070686340332 C 48.40423583984375 12.352890014648438 48.28078842163086 12.378384590148926 48.06703567504883 12.324710845947266 C 47.876766204833984 12.277076721191406 47.64543533325195 12.310219764709473 47.53620910644531 12.400793075561523 C 47.42966842651367 12.489218711853027 47.27952194213867 12.52263069152832 47.20249938964844 12.474995613098145 C 47.1254768371582 12.427361488342285 46.98699951171875 12.436887741088867 46.894683837890625 12.496062278747559 C 46.80249786376953 12.555371284484863 46.60619354248047 12.613204002380371 46.45859146118164 12.624743461608887 C 46.31098937988281 12.636148452758789 46.0544319152832 12.681905746459961 45.88831329345703 12.726184844970703 C 45.384193420410156 12.860770225524902 44.99949264526367 12.95161247253418 44.647125244140625 13.018836975097656 C 44.46262741088867 13.05412769317627 44.22109603881836 13.119742393493652 44.11039352416992 13.164827346801758 C 43.999691009521484 13.209778785705566 43.818546295166016 13.258755683898926 43.707847595214844 13.273515701293945 C 43.14213180541992 13.349194526672363 42.6343879699707 13.512360572814941 42.6343879699707 13.618364334106445 C 42.6343879699707 13.683979988098145 42.54381561279297 13.702899932861328 42.43311309814453 13.660497665405273 C 42.31919479370117 13.616754531860352 42.23183822631836 13.657278060913086 42.23183822631836 13.754157066345215 C 42.23183822631836 13.848085403442383 42.19211959838867 13.88525390625 42.14354705810547 13.836679458618164 C 42.094974517822266 13.788105010986328 41.974212646484375 13.815747261047363 41.87518310546875 13.897867202758789 C 41.77615737915039 13.980120658874512 41.69511032104492 14.002395629882812 41.69511032104492 13.947380065917969 C 41.69511032104492 13.892365455627441 41.60453796386719 13.922555923461914 41.49383544921875 14.014471054077148 C 41.38313674926758 14.106386184692383 41.292564392089844 14.136980056762695 41.292564392089844 14.082502365112305 C 41.292564392089844 14.028158187866211 41.15583038330078 14.073243141174316 40.98863983154297 14.18273639678955 C 40.82158279418945 14.292228698730469 40.489479064941406 14.424667358398438 40.250633239746094 14.477132797241211 C 40.011924743652344 14.529598236083984 39.81655502319336 14.631710052490234 39.81655502319336 14.703901290893555 C 39.81655502319336 14.776225090026855 39.75617218017578 14.798097610473633 39.682373046875 14.75247573852539 C 39.60857391357422 14.706852912902832 39.54819107055664 14.737043380737305 39.54819107055664 14.81956672668457 C 39.54819107055664 14.902088165283203 39.49237060546875 14.935096740722656 39.424072265625 14.892829895019531 C 39.26922607421875 14.797157287597656 38.60891342163086 15.087797164916992 38.60891342163086 15.25163459777832 C 38.60891342163086 15.317920684814453 38.54853057861328 15.334827423095703 38.4747314453125 15.289205551147461 C 38.40093231201172 15.243582725524902 38.340545654296875 15.273773193359375 38.340545654296875 15.35629653930664 C 38.340545654296875 15.43881893157959 38.28016662597656 15.469009399414062 38.20636749267578 15.42338752746582 C 38.132564544677734 15.377765655517578 38.072181701660156 15.399771690368652 38.072181701660156 15.472095489501953 C 38.072181701660156 15.544553756713867 37.86084747314453 15.673637390136719 37.60254669189453 15.758844375610352 C 37.344242095947266 15.844049453735352 37.132904052734375 15.973133087158203 37.132904052734375 16.045591354370117 C 37.132904052734375 16.117916107177734 37.07252502441406 16.139923095703125 36.99872589111328 16.09429931640625 C 36.924922943115234 16.048677444458008 36.864540100097656 16.078868865966797 36.864540100097656 16.161392211914062 C 36.864540100097656 16.243913650512695 36.806304931640625 16.27544593811035 36.73518753051758 16.2315673828125 C 36.664207458496094 16.187557220458984 36.48802185058594 16.269542694091797 36.343910217285156 16.413654327392578 C 36.199798583984375 16.55776596069336 36.046566009521484 16.64055633544922 36.00349044799805 16.597484588623047 C 35.96055603027344 16.554412841796875 35.925262451171875 16.589702606201172 35.925262451171875 16.67571258544922 C 35.925262451171875 16.761857986450195 35.83469009399414 16.832304000854492 35.72399139404297 16.832304000854492 C 35.61328887939453 16.832304000854492 35.5227165222168 16.886110305786133 35.5227165222168 16.951993942260742 C 35.5227165222168 17.017744064331055 35.37887191772461 17.107646942138672 35.20295715332031 17.151792526245117 C 35.02704620361328 17.195938110351562 34.69709014892578 17.405933380126953 34.46965026855469 17.618345260620117 C 34.242210388183594 17.83075523376465 34.03382873535156 17.98238182067871 34.006587982177734 17.95500946044922 C 33.979347229003906 17.92776870727539 33.66388702392578 18.1923770904541 33.30561828613281 18.54299545288086 C 32.94721984863281 18.89361572265625 32.703941345214844 19.089923858642578 32.764862060546875 18.979223251342773 C 32.88267517089844 18.76506805419922 32.362449645996094 19.22893714904785 30.981712341308594 20.568748474121094 C 30.513683319091797 21.02295684814453 30.176618576049805 21.394508361816406 30.23257064819336 21.394508361816406 C 30.28852653503418 21.394508361816406 30.097719192504883 21.629192352294922 29.80868911743164 21.916210174560547 C 28.931001663208008 22.787456512451172 28.467132568359375 23.31184196472168 28.67833709716797 23.19443130493164 C 28.78836441040039 23.13311004638672 28.65109634399414 23.310365676879883 28.373205184936523 23.5882568359375 C 28.095314025878906 23.86614990234375 27.899272918701172 24.144041061401367 27.93751335144043 24.205900192260742 C 27.975622177124023 24.267757415771484 27.9129581451416 24.35443878173828 27.797964096069336 24.39858627319336 C 27.68297004699707 24.442731857299805 27.622587203979492 24.53330421447754 27.663782119750977 24.5998592376709 C 27.70497703552246 24.666414260864258 27.64459228515625 24.756986618041992 27.529600143432617 24.801132202148438 C 27.41460609436035 24.845279693603516 27.35422134399414 24.93585205078125 27.395416259765625 25.00240707397461 C 27.43661117553711 25.06896209716797 27.37622833251953 25.159534454345703 27.261234283447266 25.20368003845215 C 27.146240234375 25.247825622558594 27.08974838256836 25.344707489013672 27.135774612426758 25.419042587280273 C 27.181663513183594 25.493379592895508 27.151742935180664 25.55416488647461 27.0692195892334 25.55416488647461 C 26.986696243286133 25.55416488647461 26.952613830566406 25.608240127563477 26.993406295776367 25.674259185791016 C 27.034332275390625 25.74040985107422 26.97368049621582 25.830446243286133 26.858686447143555 25.874591827392578 C 26.74369239807129 25.918739318847656 26.68720245361328 26.0156192779541 26.733226776123047 26.089954376220703 C 26.779115676879883 26.164291381835938 26.753890991210938 26.22507667541504 26.677139282226562 26.22507667541504 C 26.600385665893555 26.22507667541504 26.49974822998047 26.37603187561035 26.45345687866211 26.56053352355957 C 26.407163619995117 26.74503517150879 26.31175994873047 26.8959903717041 26.241716384887695 26.8959903717041 C 26.171537399291992 26.8959903717041 26.151411056518555 26.956371307373047 26.197032928466797 27.03017234802246 C 26.24265480041504 27.103973388671875 26.21246337890625 27.16435432434082 26.129941940307617 27.16435432434082 C 26.047420501708984 27.16435432434082 26.017229080200195 27.2247371673584 26.062850952148438 27.29853630065918 C 26.10847282409668 27.372337341308594 26.089284896850586 27.432720184326172 26.020179748535156 27.432720184326172 C 25.8940486907959 27.432720184326172 25.343364715576172 28.59849739074707 25.256412506103516 29.049619674682617 C 25.230918884277344 29.182594299316406 25.108009338378906 29.44679832458496 24.98362159729004 29.63680076599121 C 24.859100341796875 29.82680320739746 24.794422149658203 29.982187271118164 24.839778900146484 29.982187271118164 C 24.8851318359375 29.982187271118164 24.815086364746094 30.087921142578125 24.683856964111328 30.21700668334961 C 24.440853118896484 30.45652198791504 23.714656829833984 30.555011749267578 23.714656829833984 30.3485050201416 C 23.714656829833984 30.28597640991211 23.663936614990234 30.266117095947266 23.601810455322266 30.304492950439453 C 23.539684295654297 30.342870712280273 23.3555850982666 30.19379234313965 23.192554473876953 29.973196029663086 C 23.029388427734375 29.752601623535156 22.84542465209961 29.603389739990234 22.78369903564453 29.641632080078125 C 22.721839904785156 29.679872512817383 22.451732635498047 29.44317626953125 22.183366775512695 29.115636825561523 C 21.915000915527344 28.788230895996094 21.34969139099121 28.257539749145508 20.92715072631836 27.936307907104492 C 20.504610061645508 27.61507225036621 20.15130615234375 27.27975082397461 20.142047882080078 27.191190719604492 C 20.132789611816406 27.102630615234375 20.117761611938477 27.06022834777832 20.108503341674805 27.096860885620117 C 20.0992431640625 27.13362693786621 19.140779495239258 26.20253562927246 17.978355407714844 25.02803611755371 C 16.81606674194336 23.85340118408203 15.918386459350586 22.9931583404541 15.983598709106445 23.11620330810547 C 16.048946380615234 23.239383697509766 15.104435920715332 22.328819274902344 13.884851455688477 21.09259796142578 C 12.665132522583008 19.856508255004883 11.630585670471191 18.845041275024414 11.585634231567383 18.845041275024414 C 11.470640182495117 18.845041275024414 11.48365592956543 19.584922790527344 11.600663185119629 19.702064514160156 C 11.653799057006836 19.755199432373047 11.679428100585938 20.006792068481445 11.657556533813477 20.26120376586914 C 11.635550498962402 20.515478134155273 11.676877975463867 20.723594665527344 11.749337196350098 20.723594665527344 C 11.8263578414917 20.723594665527344 11.849973678588867 20.955059051513672 11.806364059448242 21.280855178833008 C 11.750276565551758 21.698162078857422 11.772550582885742 21.812755584716797 11.894790649414062 21.73734474182129 C 12.017030715942383 21.661664962768555 12.03514575958252 21.75747299194336 11.967248916625977 22.119361877441406 C 11.903512954711914 22.45978355407715 11.925115585327148 22.602149963378906 12.040781021118164 22.602149963378906 C 12.154836654663086 22.602149963378906 12.178586959838867 22.741968154907227 12.118741035461426 23.061321258544922 C 12.070435523986816 23.318283081054688 12.090965270996094 23.556591033935547 12.165168762207031 23.602481842041016 C 12.238029479980469 23.647432327270508 12.291702270507812 23.848438262939453 12.284456253051758 24.049039840698242 C 12.277076721191406 24.249507904052734 12.31263542175293 24.65514373779297 12.36335563659668 24.95034408569336 C 12.414076805114746 25.24554443359375 12.481839179992676 25.638029098510742 12.513908386230469 25.822528839111328 C 12.546113014221191 26.007030487060547 12.606762886047363 26.36932373046875 12.648761749267578 26.62762451171875 C 12.69076156616211 26.885927200317383 12.754631996154785 27.248218536376953 12.790727615356445 27.432720184326172 C 12.826822280883789 27.617219924926758 12.852182388305664 27.96448516845703 12.846949577331543 28.204269409179688 C 12.841716766357422 28.44418716430664 12.891364097595215 28.640361785888672 12.957247734069824 28.640361785888672 C 13.023131370544434 28.640361785888672 13.048223495483398 28.791316986083984 13.012933731079102 28.975818634033203 C 12.977643966674805 29.16031837463379 13.007834434509277 29.3112735748291 13.080024719238281 29.3112735748291 C 13.152215003967285 29.3112735748291 13.182405471801758 29.462230682373047 13.147115707397461 29.646730422973633 C 13.110349655151367 29.83888053894043 13.145505905151367 29.982187271118164 13.2293701171875 29.982187271118164 C 13.320613861083984 29.982187271118164 13.345571517944336 30.134082794189453 13.295387268066406 30.384735107421875 C 13.241983413696289 30.651891708374023 13.268685340881348 30.787281036376953 13.374823570251465 30.787281036376953 C 13.473581314086914 30.787281036376953 13.50243091583252 30.889663696289062 13.45009994506836 31.054439544677734 C 13.403404235839844 31.20136833190918 13.414005279541016 31.397676467895508 13.473716735839844 31.49053192138672 C 13.533292770385742 31.583385467529297 13.593138694763184 31.780231475830078 13.60655689239502 31.927833557128906 C 13.620109558105469 32.07543182373047 13.664255142211914 32.362449645996094 13.704912185668945 32.56560516357422 C 13.74543571472168 32.76875305175781 13.805817604064941 33.07066345214844 13.839229583740234 33.236515045166016 C 13.872506141662598 33.402366638183594 13.935035705566406 33.71916961669922 13.977973937988281 33.94057083129883 C 14.021045684814453 34.16197204589844 14.095518112182617 34.49407196044922 14.14328670501709 34.67857360839844 C 14.191189765930176 34.863075256347656 14.217891693115234 35.11439895629883 14.202594757080078 35.236907958984375 C 14.187298774719238 35.35955047607422 14.232518196105957 35.49547576904297 14.30282974243164 35.5389518737793 C 14.373275756835938 35.58256149291992 14.399307250976562 35.73888397216797 14.360662460327148 35.8863525390625 C 14.322151184082031 36.033817291259766 14.349658966064453 36.154579162597656 14.421849250793457 36.154579162597656 C 14.494039535522461 36.154579162597656 14.52423095703125 36.30553436279297 14.488941192626953 36.49003601074219 C 14.45365047454834 36.674537658691406 14.486525535583496 36.82549285888672 14.562070846557617 36.82549285888672 C 14.637480735778809 36.82549285888672 14.667671203613281 36.946258544921875 14.629161834716797 37.09385681152344 C 14.589309692382812 37.245887756347656 14.625001907348633 37.362220764160156 14.711280822753906 37.362220764160156 C 14.806818962097168 37.362220764160156 14.832313537597656 37.4874153137207 14.779580116271973 37.69767761230469 C 14.724296569824219 37.91773986816406 14.751535415649414 38.03313446044922 14.858479499816895 38.03313446044922 C 14.952407836914062 38.03313446044922 14.986757278442383 38.123573303222656 14.939659118652344 38.246482849121094 C 14.894575119018555 38.363895416259766 14.900344848632812 38.52880859375 14.952407836914062 38.61320495605469 C 15.00460433959961 38.697471618652344 15.05975341796875 38.858089447021484 15.075050354003906 38.96999740600586 C 15.090347290039062 39.08203887939453 15.138517379760742 39.30961608886719 15.18199348449707 39.4755973815918 C 15.225603103637695 39.64171600341797 15.294840812683105 39.91343688964844 15.336034774780273 40.07941818237305 C 15.377363204956055 40.24553680419922 15.427815437316895 40.44171142578125 15.448345184326172 40.51551055908203 C 15.468875885009766 40.58931350708008 15.532611846923828 40.93657684326172 15.589908599853516 41.28706359863281 C 15.64720344543457 41.63768005371094 15.742071151733398 41.9244270324707 15.800575256347656 41.9244270324707 C 15.859078407287598 41.9244270324707 15.875314712524414 42.04519271850586 15.836803436279297 42.19279098510742 C 15.798158645629883 42.34039306640625 15.828350067138672 42.461158752441406 15.903895378112793 42.461158752441406 C 15.979305267333984 42.461158752441406 16.009496688842773 42.5819206237793 15.970986366271973 42.729522705078125 C 15.932341575622559 42.87712478637695 15.966289520263672 42.997886657714844 16.046398162841797 42.997886657714844 C 16.126502990722656 42.997886657714844 16.1572322845459 43.088462829589844 16.114830017089844 43.199161529541016 C 16.072294235229492 43.30999755859375 16.11080551147461 43.40043640136719 16.200439453125 43.40043640136719 C 16.294231414794922 43.40043640136719 16.328582763671875 43.49100875854492 16.281484603881836 43.61378479003906 C 16.236400604248047 43.73119354248047 16.243242263793945 43.897178649902344 16.296781539916992 43.9827880859375 C 16.35018539428711 44.06839370727539 16.41150665283203 44.25920104980469 16.43297576904297 44.406803131103516 C 16.454444885253906 44.554405212402344 16.51133918762207 44.76573944091797 16.559375762939453 44.876441955566406 C 16.607547760009766 44.987144470214844 16.659610748291016 45.123069763183594 16.675310134887695 45.17835235595703 C 16.690876007080078 45.233768463134766 16.71583366394043 45.29415512084961 16.730728149414062 45.31253433227539 C 16.745487213134766 45.3310546875 16.778228759765625 45.45396041870117 16.803319931030273 45.585731506347656 C 16.94461441040039 46.327354431152344 17.204391479492188 47.15754318237305 17.29509925842285 47.15754318237305 C 17.352529525756836 47.15754318237305 17.3648738861084 47.24811553955078 17.322471618652344 47.35881805419922 C 17.279935836791992 47.469520568847656 17.31012725830078 47.56009292602539 17.389564514160156 47.56009292602539 C 17.46886444091797 47.56009292602539 17.499055862426758 47.650665283203125 17.456653594970703 47.76136779785156 C 17.414119720458984 47.872066497802734 17.44430923461914 47.96263885498047 17.523746490478516 47.96263885498047 C 17.60304832458496 47.96263885498047 17.63323974609375 48.0532112121582 17.590837478637695 48.16391372680664 C 17.548301696777344 48.27461624145508 17.583993911743164 48.36518859863281 17.670005798339844 48.36518859863281 C 17.75601577758789 48.36518859863281 17.795867919921875 48.414833068847656 17.758296966552734 48.47548294067383 C 17.72085952758789 48.5361328125 17.766212463378906 48.73230743408203 17.859201431274414 48.91157531738281 C 17.952190399169922 49.09071350097656 18.032699584960938 49.2675666809082 18.03820037841797 49.304466247558594 C 18.092008590698242 49.66823196411133 18.41377830505371 50.512107849121094 18.498580932617188 50.512107849121094 C 18.558425903320312 50.512107849121094 18.575468063354492 50.59489822387695 18.53668975830078 50.69607162475586 C 18.49791145324707 50.797245025634766 18.557220458984375 50.97127914428711 18.668724060058594 51.0826530456543 C 18.78009605407715 51.19402313232422 18.833904266357422 51.32257080078125 18.78828239440918 51.36832809448242 C 18.742525100708008 51.41394805908203 18.779157638549805 51.451385498046875 18.869596481323242 51.451385498046875 C 18.96003532409668 51.451385498046875 18.99679946899414 51.51176834106445 18.95117950439453 51.585567474365234 C 18.90555763244629 51.659366607666016 18.935749053955078 51.719749450683594 19.01827049255371 51.719749450683594 C 19.100791931152344 51.719749450683594 19.130313873291016 51.78120422363281 19.083885192871094 51.856346130371094 C 18.999618530273438 51.9928092956543 19.51474380493164 52.95423126220703 19.717897415161133 53.039432525634766 C 19.776803970336914 53.06425476074219 19.7908935546875 53.13966751098633 19.749162673950195 53.20716094970703 C 19.70743179321289 53.274658203125 19.747417449951172 53.32994079589844 19.83785629272461 53.32994079589844 C 19.928295135498047 53.32994079589844 19.964391708374023 53.36777877807617 19.918231964111328 53.4140739440918 C 19.804311752319336 53.52785873413086 20.19733238220215 54.26921463012695 20.371501922607422 54.26921463012695 C 20.447715759277344 54.26921463012695 20.478445053100586 54.320472717285156 20.439800262451172 54.38313674926758 C 20.401020050048828 54.4456672668457 20.48810577392578 54.624263763427734 20.633155822753906 54.78004837036133 C 20.778207778930664 54.93570327758789 20.89682388305664 55.125972747802734 20.89682388305664 55.202857971191406 C 20.89682388305664 55.279747009277344 20.960830688476562 55.34267807006836 21.038925170898438 55.34267807006836 C 21.117019653320312 55.34267807006836 21.143451690673828 55.40346145629883 21.097562789916992 55.4777946472168 C 21.051536560058594 55.5521354675293 21.108028411865234 55.64901351928711 21.2230224609375 55.69316101074219 C 21.338016510009766 55.737308502197266 21.398399353027344 55.827880859375 21.35720443725586 55.89443588256836 C 21.316011428833008 55.96099090576172 21.376392364501953 56.05155944824219 21.49138641357422 56.095706939697266 C 21.606382369995117 56.139854431152344 21.666763305664062 56.23042678833008 21.62557029724121 56.29698181152344 C 21.58437728881836 56.3635368347168 21.645160675048828 56.45424270629883 21.760557174682617 56.49852752685547 C 21.87582015991211 56.54280471801758 21.970285415649414 56.66316604614258 21.970285415649414 56.76594924926758 C 21.970285415649414 56.86873245239258 22.03066635131836 56.95286560058594 22.104467391967773 56.95286560058594 C 22.178268432617188 56.95286560058594 22.238651275634766 57.041290283203125 22.238651275634766 57.149444580078125 C 22.238651275634766 57.2574577331543 22.374576568603516 57.42143249511719 22.54056167602539 57.51361083984375 C 22.737003326416016 57.622840881347656 22.772159576416016 57.68429183959961 22.641197204589844 57.68966293334961 C 22.521909713745117 57.69449234008789 22.601478576660156 57.805728912353516 22.836566925048828 57.96272277832031 C 23.05474853515625 58.10844421386719 23.145320892333984 58.22800064086914 23.037841796875 58.228538513183594 C 22.910770416259766 58.229209899902344 22.947805404663086 58.30381393432617 23.143577575683594 58.44188690185547 C 23.309158325195312 58.55862808227539 23.410064697265625 58.688785552978516 23.367795944213867 58.73105239868164 C 23.32552719116211 58.77318572998047 23.474470138549805 58.94346237182617 23.698823928833008 59.10931396484375 C 23.923175811767578 59.27516174316406 24.077219009399414 59.45859146118164 24.041122436523438 59.51696014404297 C 24.005027770996094 59.5751953125 24.163497924804688 59.7618408203125 24.393083572387695 59.93171691894531 C 24.622669219970703 60.10145568847656 24.73149299621582 60.24033737182617 24.63488006591797 60.24033737182617 C 24.53826904296875 60.24033737182617 24.774564743041992 60.512054443359375 25.160205841064453 60.84415817260742 C 25.545711517333984 61.17626190185547 25.796096801757812 61.44797897338867 25.716659545898438 61.44797897338867 C 25.583953857421875 61.44797897338867 26.697668075561523 62.540225982666016 28.54522705078125 64.2220687866211 C 28.951128005981445 64.59160614013672 29.420230865478516 65.02434539794922 29.587825775146484 65.18362426757812 C 29.755285263061523 65.34303283691406 29.94474983215332 65.47344970703125 30.00875473022461 65.47344970703125 C 30.0727596282959 65.47344970703125 30.250686645507812 65.62440490722656 30.404191970825195 65.80891418457031 C 30.557695388793945 65.993408203125 30.685169219970703 66.0855941772461 30.68771743774414 66.01380920410156 C 30.690134048461914 65.94215393066406 30.786209106445312 66.01756286621094 30.90106964111328 66.18153381347656 C 31.015928268432617 66.34564208984375 31.19063377380371 66.47982788085938 31.28925895690918 66.47982788085938 C 31.387882232666016 66.47982788085938 31.5047550201416 66.57428741455078 31.549036026000977 66.68954467773438 C 31.59331703186035 66.80494689941406 31.687244415283203 66.86371612548828 31.757957458496094 66.81997680664062 C 31.828536987304688 66.7763671875 31.952791213989258 66.86479187011719 32.033973693847656 67.01655578613281 C 32.115150451660156 67.16831970214844 32.232696533203125 67.26089477539062 32.294960021972656 67.2223892211914 C 32.35735321044922 67.18388366699219 32.444435119628906 67.24627685546875 32.48857879638672 67.36126708984375 C 32.5327262878418 67.47625732421875 32.62329864501953 67.5366439819336 32.689857482910156 67.49545288085938 C 32.75640869140625 67.45425415039062 32.84550476074219 67.51087951660156 32.887908935546875 67.62118530273438 C 32.93017578125 67.73147583007812 33.057247161865234 67.82164764404297 33.17036437988281 67.82164764404297 C 33.28334426879883 67.82164764404297 33.37579345703125 67.88203430175781 33.37579345703125 67.95582580566406 C 33.37579345703125 68.02963256835938 33.46636962890625 68.09001159667969 33.57707214355469 68.09001159667969 C 33.68777084350586 68.09001159667969 33.778343200683594 68.15401458740234 33.778343200683594 68.23210906982422 C 33.778343200683594 68.3102035522461 33.832420349121094 68.3407974243164 33.8984375 68.30000305175781 C 33.9645881652832 68.25907897949219 34.05650329589844 68.3245620727539 34.10293197631836 68.44546508789062 C 34.14922332763672 68.56622314453125 34.22503662109375 68.62727355957031 34.27146530151367 68.58098602294922 C 34.31775665283203 68.5346908569336 34.42201614379883 68.58300018310547 34.5030632019043 68.6885986328125 C 34.58424377441406 68.7940673828125 34.738685607910156 68.89872741699219 34.84657287597656 68.92127227783203 C 34.95431900024414 68.94381713867188 35.159751892089844 69.06578826904297 35.30292510986328 69.19232177734375 C 35.44622802734375 69.31898498535156 35.61463165283203 69.39091491699219 35.677162170410156 69.35213470458984 C 35.73982238769531 69.31349182128906 35.791080474853516 69.35588836669922 35.791080474853516 69.44632720947266 C 35.791080474853516 69.53677368164062 35.82771301269531 69.57406616210938 35.872398376464844 69.52938842773438 C 35.917213439941406 69.48457336425781 36.077293395996094 69.56306457519531 36.228248596191406 69.70368957519531 C 36.37920379638672 69.84417724609375 36.55390930175781 69.92764282226562 36.61643981933594 69.88886260986328 C 36.679100036621094 69.8502197265625 36.7303581237793 69.88604736328125 36.7303581237793 69.96856689453125 C 36.7303581237793 70.05108642578125 36.790740966796875 70.08128356933594 36.864540100097656 70.03565979003906 C 36.93833923339844 69.99003601074219 36.99872589111328 70.02023315429688 36.99872589111328 70.10275268554688 C 36.99872589111328 70.18527221679688 37.059104919433594 70.21546173095703 37.132904052734375 70.16984558105469 C 37.20670700073242 70.12422180175781 37.26708984375 70.15441131591797 37.26708984375 70.23693084716797 C 37.26708984375 70.3194580078125 37.32746887207031 70.34963989257812 37.401268005371094 70.30402374267578 C 37.47507095336914 70.2583999633789 37.53545379638672 70.28858947753906 37.53545379638672 70.37110900878906 C 37.53545379638672 70.4536361694336 37.59583282470703 70.48382568359375 37.66963577270508 70.43820190429688 C 37.743438720703125 70.39258575439453 37.80381774902344 70.42277526855469 37.80381774902344 70.50529479980469 C 37.80381774902344 70.58781433105469 37.864200592041016 70.61801147460938 37.9379997253418 70.5723876953125 C 38.011802673339844 70.52676391601562 38.072181701660156 70.55696105957031 38.072181701660156 70.63948059082031 C 38.072181701660156 70.72200012207031 38.132564544677734 70.752197265625 38.20636749267578 70.70657348632812 C 38.28016662597656 70.66094970703125 38.340545654296875 70.6911392211914 38.340545654296875 70.77366638183594 C 38.340545654296875 70.85618591308594 38.40093231201172 70.8863754272461 38.4747314453125 70.84075164794922 C 38.54853057861328 70.79513549804688 38.60891342163086 70.82532501220703 38.60891342163086 70.90784454345703 C 38.60891342163086 70.99036407470703 38.66929626464844 71.02055358886719 38.74309539794922 70.97492980957031 C 38.81689453125 70.92931365966797 38.87727737426758 70.96246337890625 38.87727737426758 71.04846954345703 C 38.87727737426758 71.13447570800781 38.96784973144531 71.170166015625 39.07855224609375 71.12763977050781 C 39.18925094604492 71.08523559570312 39.279823303222656 71.11247253417969 39.279823303222656 71.18828582763672 C 39.279823303222656 71.26423645019531 39.340206146240234 71.28892517089844 39.41400909423828 71.24330139160156 C 39.48780822753906 71.19767761230469 39.54819107055664 71.23444366455078 39.54819107055664 71.32488250732422 C 39.54819107055664 71.41532897949219 39.585628509521484 71.45195007324219 39.631248474121094 71.40619659423828 C 39.677005767822266 71.36058044433594 39.80554962158203 71.41438293457031 39.91692352294922 71.5257568359375 C 40.028297424316406 71.63726043701172 40.20233154296875 71.69656372070312 40.303504943847656 71.65779113769531 C 40.40467834472656 71.61901092529297 40.487464904785156 71.64920043945312 40.487464904785156 71.72501373291016 C 40.487464904785156 71.80096435546875 40.54369354248047 71.82820129394531 40.61239242553711 71.78579711914062 C 40.68109130859375 71.74327087402344 40.77582550048828 71.77090454101562 40.82292175292969 71.84712219238281 C 40.87002182006836 71.92333984375 40.96475601196289 71.95097351074219 41.03345489501953 71.908447265625 C 41.10215759277344 71.86604309082031 41.15837860107422 71.89878845214844 41.15837860107422 71.98130798339844 C 41.15837860107422 72.06382751464844 41.214603424072266 72.09657287597656 41.283302307128906 72.05416870117188 C 41.35200500488281 72.01162719726562 41.446739196777344 72.03927612304688 41.49383544921875 72.11548614501953 C 41.540931701660156 72.19169616699219 41.631507873535156 72.22189331054688 41.69511032104492 72.18257904052734 C 41.75871276855469 72.14326477050781 41.84928512573242 72.17345428466797 41.896385192871094 72.24966430664062 C 41.9434814453125 72.32588195800781 42.03821563720703 72.35352325439453 42.10691452026367 72.31098937988281 C 42.17561721801758 72.26858520507812 42.23183822631836 72.30428314208984 42.23183822631836 72.39028930664062 C 42.23183822631836 72.47630310058594 42.32241439819336 72.51199340820312 42.43311309814453 72.4694595336914 C 42.54381561279297 72.42705535888672 42.6343879699707 72.45724487304688 42.6343879699707 72.53655242919922 C 42.6343879699707 72.6159896850586 42.72496032714844 72.64617919921875 42.835662841796875 72.6036376953125 C 42.94636154174805 72.56124114990234 43.03693389892578 72.5914306640625 43.03693389892578 72.67073059082031 C 43.03693389892578 72.75016784667969 43.12361526489258 72.7818374633789 43.22948455810547 72.74118041992188 C 43.33549118041992 72.70051574707031 43.4431037902832 72.73031616210938 43.46873474121094 72.80719757080078 C 43.49449920654297 72.88421630859375 43.724754333496094 72.96754455566406 43.98064041137695 72.99237060546875 C 44.23652648925781 73.01732635498047 44.46101760864258 73.04899597167969 44.47939682006836 73.06295013427734 C 44.49791717529297 73.076904296875 44.55830001831055 73.10105895996094 44.613582611083984 73.11662292480469 C 44.66899871826172 73.13232421875 44.80479049682617 73.18331146240234 44.91549301147461 73.23014068603516 C 45.02619552612305 73.27710723876953 45.26771926879883 73.34419250488281 45.45222091674805 73.37948608398438 C 45.636722564697266 73.41477966308594 45.93863296508789 73.48226928710938 46.12313461303711 73.52949523925781 C 46.30763626098633 73.57686614990234 46.562984466552734 73.62906646728516 46.69072723388672 73.64556884765625 C 46.81833267211914 73.66194152832031 46.96311950683594 73.71588134765625 47.01249313354492 73.7652587890625 C 47.06187438964844 73.81463623046875 47.24422836303711 73.8193359375 47.417728424072266 73.77572631835938 C 47.62128448486328 73.72473907470703 47.73332214355469 73.75533294677734 47.73332214355469 73.86213684082031 C 47.73332214355469 73.97445678710938 47.862674713134766 74.00169372558594 48.13587188720703 73.94707489013672 C 48.38800048828125 73.89662170410156 48.53841781616211 73.92172241210938 48.53841781616211 74.01416778564453 C 48.53841781616211 74.10662078857422 48.688838958740234 74.1317138671875 48.94096755981445 74.08126068115234 C 49.190277099609375 74.0313491821289 49.34351348876953 74.05616760253906 49.34351348876953 74.14620208740234 C 49.34351348876953 74.23355865478516 49.53150177001953 74.26978302001953 49.81315231323242 74.23690795898438 C 50.07145309448242 74.20671844482422 50.28279113769531 74.23100280761719 50.28279113769531 74.29071807861328 C 50.28279113769531 74.58739471435547 59.141517639160156 74.44824981689453 59.24269104003906 74.14996337890625 C 59.2629508972168 74.09038543701172 59.45926284790039 74.06784057617188 59.67878341674805 74.10004425048828 C 59.929439544677734 74.13681030273438 60.0781135559082 74.09963989257812 60.0781135559082 74.00021362304688 C 60.0781135559082 73.9015884399414 60.18183517456055 73.874755859375 60.3529167175293 73.92897033691406 C 60.50400924682617 73.97699737548828 60.71279525756836 73.94560241699219 60.816654205322266 73.85945892333984 C 60.9206428527832 73.77317810058594 61.07133102416992 73.74311828613281 61.151573181152344 73.79277038574219 C 61.2318115234375 73.84241485595703 61.38276672363281 73.81222534179688 61.487030029296875 73.72567749023438 C 61.59128952026367 73.63912963867188 61.732177734375 73.60276794433594 61.80007553100586 73.64476013183594 C 61.86796951293945 73.686767578125 62.24797439575195 73.62034606933594 62.644622802734375 73.49729919433594 C 63.510231018066406 73.22879791259766 63.37551498413086 73.26301574707031 64.07003784179688 73.13568115234375 C 64.38375854492188 73.0782470703125 64.64031982421875 72.97801208496094 64.64031982421875 72.91293334960938 C 64.64031982421875 72.84799194335938 64.73088836669922 72.82960510253906 64.84159088134766 72.87200927734375 C 64.9522933959961 72.91454315185547 65.04286193847656 72.88435363769531 65.04286193847656 72.80491638183594 C 65.04286193847656 72.72561645507812 65.13343811035156 72.69541931152344 65.244140625 72.73782348632812 C 65.35484313964844 72.78035736083984 65.4454116821289 72.75016784667969 65.4454116821289 72.67073059082031 C 65.4454116821289 72.5914306640625 65.53598022460938 72.56124114990234 65.64668273925781 72.6036376953125 C 65.75738525390625 72.64617919921875 65.84796142578125 72.6159896850586 65.84796142578125 72.53655242919922 C 65.84796142578125 72.45724487304688 65.93852996826172 72.42705535888672 66.04923248291016 72.4694595336914 C 66.16315460205078 72.51319885253906 66.25050354003906 72.4726791381836 66.25050354003906 72.37580108642578 C 66.25050354003906 72.28187561035156 66.29022216796875 72.24470520019531 66.33879852294922 72.29328155517578 C 66.38737487792969 72.34185791015625 66.50814056396484 72.314208984375 66.60716247558594 72.23208618164062 C 66.70619201660156 72.14984130859375 66.7872314453125 72.12232971191406 66.7872314453125 72.1708984375 C 66.7872314453125 72.21934509277344 66.92316436767578 72.18378448486328 67.08914184570312 72.09173583984375 C 67.25526428222656 71.99968719482422 67.43641662597656 71.9371566772461 67.49169921875 71.9528579711914 C 67.54711151123047 71.96842193603516 67.59233093261719 71.91085815429688 67.59233093261719 71.82471466064453 C 67.59233093261719 71.73870086669922 67.62762451171875 71.70354461669922 67.67082214355469 71.74674987792969 C 67.78300476074219 71.85893249511719 68.53160858154297 71.57794952392578 68.53160858154297 71.42350769042969 C 68.53160858154297 71.3526611328125 68.59199523925781 71.33186340332031 68.66578674316406 71.37748718261719 C 68.73959350585938 71.42310333251953 68.79997253417969 71.39291381835938 68.79997253417969 71.31039428710938 C 68.79997253417969 71.22787475585938 68.86076354980469 71.19794464111328 68.93508911132812 71.24383544921875 C 69.00942993164062 71.28973388671875 69.23579406738281 71.21458435058594 69.43827819824219 71.0767822265625 C 69.64076232910156 70.93897247314453 70.06303405761719 70.7146224975586 70.37661743164062 70.57829284667969 C 70.69033813476562 70.44196319580078 70.94689178466797 70.27557373046875 70.94689178466797 70.2086181640625 C 70.94689178466797 70.14166259765625 71.00727844238281 70.12422180175781 71.0810775756836 70.16984558105469 C 71.15487670898438 70.21546173095703 71.21525573730469 70.18527221679688 71.21525573730469 70.10275268554688 C 71.21525573730469 70.02023315429688 71.27564239501953 69.99003601074219 71.34944152832031 70.03565979003906 C 71.4232406616211 70.08128356933594 71.48362731933594 70.05108642578125 71.48362731933594 69.96856689453125 C 71.48362731933594 69.88604736328125 71.54440307617188 69.85612487792969 71.61874389648438 69.90200805664062 C 71.69308471679688 69.94803619384766 71.78996276855469 69.89154052734375 71.8341064453125 69.77655029296875 C 71.87825012207031 69.66156005859375 71.96829223632812 69.60090637207031 72.03443908691406 69.64183044433594 C 72.1004638671875 69.6826171875 72.154541015625 69.64854431152344 72.154541015625 69.56602478027344 C 72.154541015625 69.4834976196289 72.2086181640625 69.44941711425781 72.27462768554688 69.49020385742188 C 72.34078216552734 69.5311279296875 72.43081665039062 69.4704818725586 72.47496032714844 69.35548400878906 C 72.51911163330078 69.24049377441406 72.6159896850586 69.18400573730469 72.69032287597656 69.23002624511719 C 72.76466369628906 69.27591705322266 72.82544708251953 69.2459945678711 72.82544708251953 69.16346740722656 C 72.82544708251953 69.08094787597656 72.88623046875 69.051025390625 72.9605712890625 69.09691619873047 C 73.034912109375 69.1429443359375 73.13179016113281 69.0864486694336 73.17593383789062 68.9714584350586 C 73.22007751464844 68.85646057128906 73.31065368652344 68.79608154296875 73.37720489501953 68.83727264404297 C 73.44375610351562 68.87846374511719 73.53433227539062 68.81808471679688 73.57847595214844 68.70309448242188 C 73.62262725830078 68.58809661865234 73.71319580078125 68.5277099609375 73.77975463867188 68.56890869140625 C 73.8463134765625 68.610107421875 73.93688201904297 68.54972076416016 73.98103332519531 68.43472290039062 C 74.02517700195312 68.31973266601562 74.1157455444336 68.25935363769531 74.18230438232422 68.30054473876953 C 74.24885559082031 68.34173583984375 74.33942413330078 68.28135681152344 74.38357543945312 68.16636657714844 C 74.42771911621094 68.0513687133789 74.51829528808594 67.99098205566406 74.58484649658203 68.03218078613281 C 74.65140533447266 68.07337951660156 74.74211120605469 68.01258850097656 74.78639221191406 67.89718627929688 C 74.83067321777344 67.78192901611328 74.94889068603516 67.68746948242188 75.04911804199219 67.68746948242188 C 75.14935302734375 67.68746948242188 75.30674743652344 67.55167388916016 75.39893341064453 67.38555908203125 C 75.50882720947266 67.18790435791016 75.57001495361328 67.15315246582031 75.57618713378906 67.284912109375 C 75.582763671875 67.42285919189453 75.64717102050781 67.39118957519531 75.78095245361328 67.18428039550781 C 75.88829803466797 67.01829528808594 76.04784393310547 66.88236999511719 76.13545989990234 66.88236999511719 C 76.22308349609375 66.88236999511719 76.41188049316406 66.73342895507812 76.5550537109375 66.55147552490234 C 76.6982192993164 66.36952209472656 76.8474349975586 66.25265502929688 76.88661193847656 66.2919692993164 C 76.9259262084961 66.33114624023438 77.12075805664062 66.14986419677734 77.31975555419922 65.8890151977539 C 77.51861572265625 65.62816619873047 77.72901153564453 65.42796325683594 77.787109375 65.44419860839844 C 77.84535217285156 65.4603042602539 78.56536865234375 64.77906036376953 79.3872299194336 63.930355072021484 C 80.20909881591797 63.08164978027344 81.0464096069336 62.21818542480469 81.24794006347656 62.01154708862305 C 81.4494857788086 61.80490493774414 81.59990692138672 61.58028030395508 81.58219146728516 61.512386322021484 C 81.5644760131836 61.444488525390625 81.67008209228516 61.324527740478516 81.8170166015625 61.24603271484375 C 81.96380615234375 61.16740417480469 82.08403778076172 61.02919387817383 82.08403778076172 60.93875503540039 C 82.08403778076172 60.848453521728516 82.21070098876953 60.69548416137695 82.36541748046875 60.59873580932617 C 82.52025604248047 60.50212478637695 82.61338806152344 60.389549255371094 82.57246398925781 60.3486213684082 C 82.53153991699219 60.30756378173828 82.63123321533203 60.16291427612305 82.79426574707031 60.026851654052734 C 82.95716094970703 59.890926361083984 83.04800415039062 59.77767562866211 82.99620056152344 59.775123596191406 C 82.94441223144531 59.77271270751953 83.04894256591797 59.61209487915039 83.22847747802734 59.4183349609375 C 83.40801239013672 59.22457504272461 83.5263671875 59.01954650878906 83.49120330810547 58.96278762817383 C 83.45604705810547 58.90602493286133 83.52139282226562 58.82350540161133 83.63639068603516 58.77935791015625 C 83.75138854980469 58.73521041870117 83.811767578125 58.64463806152344 83.77056884765625 58.57808303833008 C 83.72938537597656 58.51152801513672 83.79459381103516 58.4190788269043 83.91548919677734 58.372650146484375 C 84.0362548828125 58.32635498046875 84.10133361816406 58.25457000732422 84.06000518798828 58.21324157714844 C 84.01881408691406 58.171913146972656 84.10295104980469 58.0201530456543 84.24705505371094 57.876041412353516 C 84.39116668701172 57.731929779052734 84.47315216064453 57.555747985839844 84.42913818359375 57.484764099121094 C 84.38526916503906 57.41364669799805 84.4133071899414 57.355411529541016 84.49140167236328 57.355411529541016 C 84.56949615478516 57.355411529541016 84.63349914550781 57.26484298706055 84.63349914550781 57.15414047241211 C 84.63349914550781 57.04343795776367 84.68650817871094 56.95286560058594 84.75144958496094 56.95286560058594 C 84.8638916015625 56.95286560058594 85.23249053955078 56.203857421875 85.23571014404297 55.96890640258789 C 85.23664855957031 55.907318115234375 85.27194213867188 55.89161682128906 85.31433868408203 55.93402099609375 C 85.35660552978516 55.97628402709961 85.57694244384766 55.57373809814453 85.8039779663086 55.03942108154297 C 86.34553527832031 53.76442337036133 86.42457580566406 53.550804138183594 86.39920806884766 53.43057632446289 C 86.38739776611328 53.37529373168945 86.44187927246094 53.32994079589844 86.51997375488281 53.32994079589844 C 86.59806823730469 53.32994079589844 86.62477111816406 53.269554138183594 86.57914733886719 53.19575500488281 C 86.53352355957031 53.12195587158203 86.56666564941406 53.06157302856445 86.65267944335938 53.06157302856445 C 86.73869323730469 53.06157302856445 86.77438354492188 52.97100067138672 86.73184967041016 52.86030197143555 C 86.689453125 52.74959945678711 86.71963500976562 52.659027099609375 86.79894256591797 52.659027099609375 C 86.87837219238281 52.659027099609375 86.90735626220703 52.56536865234375 86.86334228515625 52.450775146484375 C 86.81947326660156 52.336181640625 86.83651733398438 52.27539825439453 86.90145111083984 52.31538391113281 C 86.9937744140625 52.3725471496582 87.21168518066406 51.660308837890625 87.20671844482422 51.317203521728516 C 87.2061767578125 51.280303955078125 87.26844787597656 51.17469787597656 87.34492492675781 51.08238220214844 C 87.42154693603516 50.990196228027344 87.44972229003906 50.91465377807617 87.40745544433594 50.91465377807617 C 87.36532592773438 50.91465377807617 87.41912841796875 50.70331573486328 87.52701568603516 50.44501495361328 C 87.6350326538086 50.18671417236328 87.68495178222656 49.97537612915039 87.63797760009766 49.97537612915039 C 87.59101867675781 49.97537612915039 87.62564086914062 49.887489318847656 87.7148666381836 49.780006408691406 C 87.80396270751953 49.67252731323242 87.8405990600586 49.52573013305664 87.79618835449219 49.45381164550781 C 87.75163269042969 49.38188552856445 87.77914428710938 49.283531188964844 87.85710144042969 49.23535919189453 C 87.93519592285156 49.187191009521484 87.9623031616211 49.032073974609375 87.91735076904297 48.89064407348633 C 87.8685073852539 48.73686981201172 87.89923858642578 48.63355255126953 87.99356842041016 48.63355255126953 C 88.09487915039062 48.63355255126953 88.12117767333984 48.51346206665039 88.06709289550781 48.298095703125 C 88.01435852050781 48.087833404541016 88.03985595703125 47.96263885498047 88.1353988647461 47.96263885498047 C 88.22557067871094 47.96263885498047 88.26153564453125 47.825775146484375 88.22355651855469 47.62718200683594 C 88.18826293945312 47.442684173583984 88.21805572509766 47.29172897338867 88.28970336914062 47.29172897338867 C 88.36135864257812 47.29172897338867 88.39530181884766 47.080387115478516 88.36511993408203 46.82209014892578 C 88.33493041992188 46.56378936767578 88.35639190673828 46.35245132446289 88.4126205444336 46.35245132446289 C 88.52278137207031 46.35245132446289 88.56021881103516 45.56251907348633 88.56504821777344 43.1320686340332 C 88.56974792480469 40.80829620361328 88.51741790771484 39.64332580566406 88.4083251953125 39.64332580566406 C 88.35437774658203 39.64332580566406 88.33493041992188 39.43198776245117 88.36511993408203 39.17368698120117 C 88.39530181884766 38.91538619995117 88.36135864257812 38.70404815673828 88.28970336914062 38.70404815673828 C 88.21805572509766 38.70404815673828 88.18826293945312 38.55309295654297 88.22355651855469 38.36859130859375 C 88.25884246826172 38.18408966064453 88.2286605834961 38.03313446044922 88.15646362304688 38.03313446044922 C 88.08427429199219 38.03313446044922 88.05408477783203 37.882179260253906 88.08937072753906 37.69767761230469 C 88.12855529785156 37.49264907836914 88.09178924560547 37.362220764160156 87.99464416503906 37.362220764160156 C 87.89923858642578 37.362220764160156 87.86837005615234 37.25970458984375 87.91735076904297 37.10512924194336 C 87.9623031616211 36.96369934082031 87.93519592285156 36.80858612060547 87.85710144042969 36.760414123535156 C 87.77914428710938 36.712242126464844 87.75163269042969 36.613887786865234 87.79618835449219 36.54196548461914 C 87.8405990600586 36.47004318237305 87.81657409667969 36.338409423828125 87.74264526367188 36.24931335449219 C 87.66883850097656 36.16035079956055 87.60779571533203 36.04119873046875 87.60712432861328 35.98457336425781 C 87.60457611083984 35.77618408203125 87.41725158691406 35.00986862182617 87.3370132446289 34.87984848022461 C 87.29138946533203 34.80604553222656 87.24979400634766 34.71547317504883 87.24456024169922 34.67857360839844 C 87.18135833740234 34.23845672607422 87.00263214111328 33.739295959472656 86.90816497802734 33.739295959472656 C 86.8425521850586 33.739295959472656 86.8236312866211 33.64872360229492 86.86602783203125 33.53802490234375 C 86.9085693359375 33.42732238769531 86.87837219238281 33.33674621582031 86.79894256591797 33.33674621582031 C 86.71963500976562 33.33674621582031 86.689453125 33.246177673339844 86.73184967041016 33.135475158691406 C 86.77438354492188 33.02477264404297 86.73869323730469 32.9342041015625 86.65267944335938 32.9342041015625 C 86.56666564941406 32.9342041015625 86.53352355957031 32.873817443847656 86.57914733886719 32.800018310546875 C 86.62477111816406 32.726219177246094 86.5945816040039 32.665836334228516 86.51205444335938 32.665836334228516 C 86.42953491210938 32.665836334228516 86.39679718017578 32.60961151123047 86.43919372558594 32.54091262817383 C 86.48172760009766 32.47221374511719 86.45408630371094 32.377479553222656 86.37787628173828 32.330379486083984 C 86.3016586303711 32.28328323364258 86.27401733398438 32.18854904174805 86.31655883789062 32.119850158691406 C 86.35895538330078 32.0511474609375 86.32970428466797 31.994924545288086 86.2516098022461 31.994924545288086 C 86.17351531982422 31.994924545288086 86.12373352050781 31.949703216552734 86.14103698730469 31.894287109375 C 86.20760345458984 31.68174171447754 85.39525604248047 29.99319076538086 85.26509857177734 30.073564529418945 C 85.19009399414062 30.119857788085938 85.16889190673828 30.093021392822266 85.21786499023438 30.01371955871582 C 85.26683807373047 29.934417724609375 85.21867370605469 29.781450271606445 85.11079406738281 29.673566818237305 C 85.0029067993164 29.565683364868164 84.95205688476562 29.44009017944336 84.99767303466797 29.39433479309082 C 85.04342651367188 29.348712921142578 85.00679779052734 29.3112735748291 84.9163589477539 29.3112735748291 C 84.82592010498047 29.3112735748291 84.78915405273438 29.250892639160156 84.83477783203125 29.177091598510742 C 84.88040161132812 29.103290557861328 84.85369110107422 29.042909622192383 84.77560424804688 29.042909622192383 C 84.697509765625 29.042909622192383 84.63349914550781 28.952335357666016 84.63349914550781 28.841636657714844 C 84.63349914550781 28.73093605041504 84.56949615478516 28.640361785888672 84.49140167236328 28.640361785888672 C 84.4133071899414 28.640361785888672 84.38526916503906 28.58212661743164 84.42913818359375 28.511009216308594 C 84.47315216064453 28.440027236938477 84.40122985839844 28.268943786621094 84.26933288574219 28.130870819091797 C 84.13756561279297 27.992931365966797 84.01129150390625 27.794475555419922 83.98875427246094 27.68994903564453 C 83.9662094116211 27.585285186767578 83.8615493774414 27.43352508544922 83.7560806274414 27.352344512939453 C 83.65048217773438 27.271297454833984 83.60218048095703 27.16703987121582 83.64846801757812 27.120746612548828 C 83.69476318359375 27.074317932128906 83.63343811035156 26.998371124267578 83.51213836669922 26.95194435119629 C 83.39083862304688 26.90538215637207 83.29167938232422 26.78126335144043 83.29167938232422 26.676198959350586 C 83.29167938232422 26.571001052856445 83.20150756835938 26.45037078857422 83.0912094116211 26.40810203552246 C 82.98091125488281 26.365699768066406 82.92227172851562 26.280092239379883 82.96078491210938 26.217697143554688 C 82.9992904663086 26.155437469482422 82.8932876586914 26.027963638305664 82.72515869140625 25.934707641601562 C 82.5268325805664 25.824542999267578 82.49020385742188 25.761611938476562 82.62076568603516 25.75543975830078 C 82.75870513916016 25.748863220214844 82.72703552246094 25.68445587158203 82.52012634277344 25.550676345825195 C 82.35414123535156 25.443330764770508 82.21821594238281 25.28633689880371 82.21821594238281 25.201801300048828 C 82.21821594238281 25.117401123046875 82.06538391113281 24.948062896728516 81.87847137451172 24.825687408447266 C 81.69168090820312 24.70331382751465 81.57159423828125 24.549942016601562 81.61170959472656 24.48513412475586 C 81.6518325805664 24.420188903808594 81.50209045410156 24.237030029296875 81.27893829345703 24.078157424926758 C 81.05579376220703 23.91928482055664 80.90443420410156 23.738811492919922 80.94254302978516 23.67721939086914 C 80.98065185546875 23.615497589111328 80.63419342041016 23.215229034423828 80.172607421875 22.78759002685547 C 79.71102142333984 22.360084533691406 79.45406341552734 22.098161697387695 79.6016616821289 22.20550537109375 C 79.8492202758789 22.38571548461914 79.8559341430664 22.382762908935547 79.6871337890625 22.16753387451172 C 79.58650207519531 22.039255142211914 79.46063232421875 21.96116065979004 79.40736389160156 21.994035720825195 C 79.35409545898438 22.02690887451172 78.92322540283203 21.621143341064453 78.44970703125 21.092464447021484 C 77.97631072998047 20.563650131225586 77.58892822265625 20.203907012939453 77.58892822265625 20.29313850402832 C 77.58892822265625 20.38223648071289 77.42025756835938 20.243892669677734 77.21415710449219 19.985591888427734 C 77.00804901123047 19.727291107177734 76.7536392211914 19.515953063964844 76.64871215820312 19.515953063964844 C 76.54364013671875 19.515953063964844 76.3904037475586 19.389955520629883 76.30802154541016 19.23604965209961 C 76.22563171386719 19.082141876220703 76.12325286865234 18.991165161132812 76.08058166503906 19.03396987915039 C 76.03778076171875 19.07677459716797 75.91848754882812 18.99129867553711 75.81543731689453 18.844236373901367 C 75.71238708496094 18.697036743164062 75.56854248046875 18.576675415039062 75.49581146240234 18.576675415039062 C 75.35518646240234 18.576675415039062 75.12251281738281 18.403043746948242 74.69756317138672 17.981040954589844 C 74.55345153808594 17.838001251220703 74.43563842773438 17.77412986755371 74.43563842773438 17.839075088500977 C 74.43563842773438 17.903884887695312 74.34693908691406 17.839879989624023 74.23866271972656 17.69657325744629 C 74.13024139404297 17.55340003967285 74.03872680664062 17.49650764465332 74.03523254394531 17.5703067779541 C 74.03147888183594 17.65256118774414 73.9908218383789 17.649206161499023 73.93043518066406 17.561450958251953 C 73.75613403320312 17.308650970458984 72.5941162109375 16.57158660888672 72.50703430175781 16.658672332763672 C 72.46073913574219 16.70496368408203 72.42289733886719 16.662294387817383 72.42289733886719 16.56393814086914 C 72.42289733886719 16.46558380126953 72.38774108886719 16.420228958129883 72.34467315673828 16.463302612304688 C 72.30160522460938 16.50637435913086 72.14836120605469 16.423583984375 72.00425720214844 16.27947235107422 C 71.86013793945312 16.135360717773438 71.6839599609375 16.053375244140625 71.61297607421875 16.09738540649414 C 71.54185485839844 16.141263961791992 71.48362731933594 16.109731674194336 71.48362731933594 16.02720832824707 C 71.48362731933594 15.944686889648438 71.4232406616211 15.914495468139648 71.34944152832031 15.96011734008789 C 71.27564239501953 16.005739212036133 71.21525573730469 15.989368438720703 71.21525573730469 15.923888206481934 C 71.21525573730469 15.789974212646484 69.8800048828125 15.136505126953125 69.71268463134766 15.188568115234375 C 69.65350341796875 15.206951141357422 69.60507202148438 15.158108711242676 69.60507202148438 15.080015182495117 C 69.60507202148438 15.001920700073242 69.54468536376953 14.975217819213867 69.47088623046875 15.02083969116211 C 69.39708709716797 15.066461563110352 69.33670043945312 15.036271095275879 69.33670043945312 14.95374870300293 C 69.33670043945312 14.87122631072998 69.27632141113281 14.841035842895508 69.20252227783203 14.88665771484375 C 69.12872314453125 14.932279586791992 69.06834411621094 14.902088165283203 69.06834411621094 14.81956672668457 C 69.06834411621094 14.737043380737305 69.00794982910156 14.706852912902832 68.93415832519531 14.75247573852539 C 68.86035919189453 14.798097610473633 68.79997253417969 14.777969360351562 68.79997253417969 14.707792282104492 C 68.79997253417969 14.604068756103516 68.5059814453125 14.475656509399414 67.99488067626953 14.356100082397461 C 67.95797729492188 14.347512245178223 67.79991149902344 14.269149780273438 67.6434555053711 14.182199478149414 C 67.48713684082031 14.095115661621094 67.32115173339844 14.062106132507324 67.27445983886719 14.108667373657227 C 67.22789001464844 14.155228614807129 67.18978881835938 14.116450309753418 67.18978881835938 14.02252197265625 C 67.18978881835938 13.925642013549805 67.10243225097656 13.885119438171387 66.98851013183594 13.928863525390625 C 66.8778076171875 13.971264839172363 66.7872314453125 13.949392318725586 66.7872314453125 13.880289077758789 C 66.7872314453125 13.811184883117676 66.69667053222656 13.789313316345215 66.58596801757812 13.831714630126953 C 66.47512817382812 13.874250411987305 66.38468933105469 13.835740089416504 66.38468933105469 13.746106147766113 C 66.38468933105469 13.656473159790039 66.29425048828125 13.617961883544922 66.18341064453125 13.660497665405273 C 66.07270812988281 13.702899932861328 65.98214721679688 13.672708511352539 65.98214721679688 13.593406677246094 C 65.98214721679688 13.513971328735352 65.89157104492188 13.483779907226562 65.78086853027344 13.526315689086914 C 65.670166015625 13.568717002868652 65.57958984375 13.53852653503418 65.57958984375 13.459224700927734 C 65.57958984375 13.379788398742676 65.48902130126953 13.349596977233887 65.3783187866211 13.392132759094238 C 65.26761627197266 13.434534072875977 65.17704772949219 13.404343605041504 65.17704772949219 13.325041770935059 C 65.17704772949219 13.24560546875 65.08834838867188 13.214743614196777 64.98007202148438 13.256206512451172 C 64.87178039550781 13.297802925109863 64.75370025634766 13.284384727478027 64.71788024902344 13.22628402709961 C 64.68191528320312 13.168182373046875 64.33277130126953 13.049296379089355 63.9420280456543 12.962078094482422 C 63.55115509033203 12.874859809875488 63.0804443359375 12.769124031066895 62.89594268798828 12.727258682250977 C 62.71144485473633 12.685394287109375 62.46991729736328 12.647688865661621 62.359214782714844 12.643528938293457 C 62.248512268066406 12.639503479003906 62.085350036621094 12.578987121582031 61.99665451049805 12.509078025817871 C 61.907958984375 12.439303398132324 61.71165084838867 12.4213228225708 61.56056213378906 12.4693603515625 C 61.3885383605957 12.523972511291504 61.2857551574707 12.496732711791992 61.2857551574707 12.396498680114746 C 61.2857551574707 12.290360450744629 61.15036392211914 12.26365852355957 60.88320541381836 12.317063331604004 C 60.63014221191406 12.367650032043457 60.48065948486328 12.342557907104492 60.48065948486328 12.249166488647461 C 60.48065948486328 12.15456771850586 60.310516357421875 12.128402709960938 60.01102066040039 12.176976203918457 C 59.73299789428711 12.222062110900879 59.5413818359375 12.197774887084961 59.5413818359375 12.117265701293945 C 59.5413818359375 12.042391777038574 59.313270568847656 11.997709274291992 59.03443908691406 12.01783561706543 C 58.755611419677734 12.0379638671875 58.45651626586914 12.010590553283691 58.369834899902344 11.956917762756348 C 58.28302001953125 11.903244018554688 57.77138137817383 11.873590469360352 57.232906341552734 11.891034126281738 C 56.69443130493164 11.908477783203125 56.01036834716797 11.877079010009766 55.712886810302734 11.821125030517578 C 55.4152717590332 11.765304565429688 55.13845443725586 11.752960205078125 55.09779739379883 11.793617248535156" stroke-width="1.0" fill="rgb(95, 206, 213)" opacity="1.0"/>
    <path d="M 47.06241226196289 31.54366683959961 C 43.50791549682617 32.062686920166016 40.78199768066406 34.16773986816406 39.153289794921875 37.651519775390625 C 37.40354919433594 41.39413833618164 38.136993408203125 46.51883316040039 40.976829528808594 50.39442825317383 C 43.69858932495117 54.10873031616211 47.328895568847656 56.47141647338867 54.33121109008789 59.08583068847656 C 55.34012985229492 59.46248245239258 56.28383255004883 59.77069854736328 56.428348541259766 59.77069854736328 C 56.5728645324707 59.77069854736328 57.70979309082031 59.3843879699707 58.954872131347656 58.91219711303711 C 64.45246124267578 56.8272705078125 67.41682434082031 55.12543487548828 69.94159698486328 52.60468292236328 C 72.62108612060547 49.92948532104492 74.13788604736328 46.954124450683594 74.56914520263672 43.527103424072266 C 75.22087097167969 38.349937438964844 72.00733947753906 33.244964599609375 67.18978881835938 31.804386138916016 C 66.78388214111328 31.683082580566406 65.9068603515625 31.547290802001953 65.24078369140625 31.502742767333984 C 62.327816009521484 31.307775497436523 59.46758270263672 32.521724700927734 57.3020133972168 34.871795654296875 L 56.36930465698242 35.88406753540039 L 55.909061431884766 35.269378662109375 C 55.04358673095703 34.113128662109375 53.0800895690918 32.66301727294922 51.64420700073242 32.11957931518555 C 50.290706634521484 31.60713768005371 48.32225036621094 31.359838485717773 47.06241226196289 31.54366683959961" stroke-width="1.0" fill="rgb(81, 55, 54)" opacity="1.0"/>
    <path d="M 46.700923919677734 33.065834045410156 C 45.81934356689453 33.254093170166016 44.31971740722656 33.9295654296875 43.58305740356445 34.47032165527344 C 41.95690155029297 35.664146423339844 40.704307556152344 37.457359313964844 40.063720703125 39.5091438293457 C 39.79589080810547 40.36683654785156 39.751075744628906 40.783203125 39.760467529296875 42.32697677612305 C 39.770530700683594 43.99593734741211 39.80609130859375 44.24390411376953 40.21172332763672 45.480262756347656 C 40.91484069824219 47.623558044433594 41.68571472167969 48.99906539916992 43.1363639831543 50.69915771484375 C 44.53199768066406 52.33470916748047 46.991695404052734 54.1644172668457 49.45394515991211 55.39889907836914 C 50.82878112792969 56.08819580078125 54.47089385986328 57.59103775024414 55.67893981933594 57.96755599975586 C 56.5893669128418 58.25135040283203 56.567359924316406 58.25658416748047 59.678245544433594 57.013248443603516 C 66.03379821777344 54.47317123413086 69.53704071044922 51.81233596801758 71.59405517578125 47.96263885498047 C 72.30227661132812 46.6373176574707 72.89442443847656 44.91508483886719 73.09596252441406 43.595001220703125 C 73.8057861328125 38.944236755371094 70.72589111328125 34.16733932495117 66.35248565673828 33.13628005981445 C 64.62635803222656 32.729305267333984 62.95323944091797 32.96345520019531 61.063411712646484 33.8768310546875 C 59.72548294067383 34.523460388183594 58.180904388427734 35.942169189453125 57.41499328613281 37.22804260253906 C 57.12931442260742 37.707740783691406 56.79158020019531 38.12062072753906 56.66477966308594 38.145713806152344 C 56.17259979248047 38.24259567260742 55.83835220336914 38.03434371948242 55.5572395324707 37.45588302612305 C 54.761131286621094 35.81711196899414 52.84540557861328 34.196189880371094 50.84689712524414 33.47012710571289 C 49.573368072509766 33.00746536254883 47.789276123046875 32.83356475830078 46.700923919677734 33.065834045410156" stroke-width="1.0" fill="rgb(244, 133, 114)" opacity="1.0"/>
    <path d="M 68.61305236816406 19.99659538269043 C 68.5682373046875 20.11333465576172 68.53160858154297 20.356069564819336 68.53160858154297 20.536142349243164 C 68.53160858154297 20.912792205810547 68.73194885253906 21.020675659179688 70.00761413574219 21.331172943115234 C 72.0234375 21.821744918823242 74.91386413574219 23.579132080078125 76.47077941894531 25.26070785522461 C 78.41348266601562 27.359188079833984 79.7968978881836 30.054643630981445 80.19206237792969 32.51152801513672 C 80.26747131347656 32.9800910949707 80.39923858642578 33.4481201171875 80.4849853515625 33.55144119262695 C 80.70691680908203 33.81886672973633 81.19709014892578 33.78371047973633 81.47122192382812 33.48086166381836 C 81.69115447998047 33.23785400390625 81.69222259521484 33.15949249267578 81.48893737792969 32.176204681396484 C 80.7879638671875 28.78715705871582 79.30323791503906 26.09827423095703 76.83629608154297 23.75061798095703 C 75.02416229248047 22.026103973388672 73.29468536376953 20.979480743408203 70.97279357910156 20.20229721069336 C 69.57930755615234 19.735877990722656 68.74107360839844 19.662883758544922 68.61305236816406 19.99659538269043" stroke-width="1.0" fill="rgb(81, 55, 54)" opacity="1.0"/>
    <path d="M 80.73603820800781 36.094871520996094 C 80.59354400634766 36.266624450683594 80.61742401123047 36.664878845214844 80.87075805664062 38.34242630004883 C 81.04022979736328 39.46379089355469 81.23358154296875 40.487064361572266 81.30067443847656 40.61614990234375 C 81.4531021118164 40.909873962402344 82.12187194824219 40.927452087402344 82.35723114013672 40.643924713134766 C 82.49784851074219 40.47431945800781 82.47476959228516 40.05445861816406 82.23002624511719 38.33155822753906 C 82.06538391113281 37.173561096191406 81.8673324584961 36.149749755859375 81.7897720336914 36.05622482299805 C 81.59346008300781 35.819664001464844 80.94468688964844 35.84354782104492 80.73603820800781 36.094871520996094" stroke-width="1.0" fill="rgb(81, 55, 54)" opacity="1.0"/>
    <path d="M 14.254792213439941 21.461599349975586 L 15.126977920532227 22.333786010742188 L 14.254792213439941 21.461599349975586 L 13.382606506347656 20.589412689208984 L 14.254792213439941 21.461599349975586" stroke-width="1.0" fill="rgb(96, 164, 164)" opacity="1.0"/>
    <path d="M 79.26620483398438 21.931238174438477 L 79.80293273925781 22.467967987060547 L 79.26620483398438 21.931238174438477 L 78.72947692871094 21.394508361816406 L 79.26620483398438 21.931238174438477" stroke-width="1.0" fill="rgb(96, 164, 164)" opacity="1.0"/>
  </g>
</svg>
