<?xml version="1.0" ?>
<svg xmlns="http://www.w3.org/2000/svg" version="1.1" width="100" height="100">
  <defs/>
  <g>
    <path d="M 45.55879592895508 10.311077117919922 C 45.41978454589844 10.478568077087402 45.49064636230469 10.677928924560547 45.84477996826172 11.11631965637207 C 46.49372100830078 11.919865608215332 47.069091796875 13.34844970703125 47.181148529052734 14.434593200683594 L 47.275062561035156 15.343923568725586 L 45.69340133666992 15.343923568725586 C 41.351539611816406 15.343923568725586 35.70636749267578 17.190214157104492 31.57420539855957 19.96194076538086 C 29.52855110168457 21.334074020385742 29.590599060058594 21.28203010559082 27.38423728942871 23.479745864868164 C 24.672351837158203 26.181119918823242 23.19765853881836 28.440204620361328 21.463420867919922 32.55066680908203 C 21.06995391845703 33.48305130004883 20.68716812133789 34.3106689453125 20.612577438354492 34.38983917236328 C 20.398977279663086 34.616493225097656 19.837003707885742 34.363563537597656 19.273502349853516 33.78717803955078 C 18.57709503173828 33.07483673095703 18.183122634887695 31.852054595947266 18.33128547668457 30.863218307495117 C 18.525897979736328 29.565507888793945 18.32094383239746 28.945388793945312 17.595378875732422 28.637022018432617 C 16.18120574951172 28.03622817993164 14.231163024902344 29.08236312866211 13.03194808959961 31.085296630859375 C 12.615255355834961 31.781192779541016 12.56049919128418 32.039886474609375 12.560160636901855 33.31352615356445 C 12.559822082519531 34.98300552368164 12.87378215789795 35.97303009033203 13.780736923217773 37.16105651855469 C 14.233537673950195 37.754390716552734 14.31846809387207 37.96562194824219 14.14402961730957 38.06343460083008 C 14.018579483032227 38.1337890625 13.557134628295898 38.44757843017578 13.11840534210205 38.76102828979492 C 10.0 40.988922119140625 11.689821243286133 45.21059036254883 15.151344299316406 43.83998489379883 C 16.267322540283203 43.398033142089844 16.91338348388672 43.38972854614258 17.29566192626953 43.81217956542969 C 17.56893539428711 44.114105224609375 17.572154998779297 44.20886993408203 17.337871551513672 45.04123306274414 C 17.08171844482422 45.95124435424805 16.720123291015625 47.68971633911133 16.268848419189453 50.18122100830078 C 15.872840881347656 52.367408752441406 15.533790588378906 56.27935791015625 15.530061721801758 58.706443786621094 C 15.517518043518066 66.8097152709961 17.887638092041016 73.75328063964844 22.477008819580078 79.05753326416016 C 26.13840103149414 83.28936767578125 32.911415100097656 86.65019226074219 40.61613845825195 88.05809783935547 C 44.11512756347656 88.69754028320312 44.40043258666992 88.73907470703125 47.081974029541016 88.99929809570312 C 51.65693283081055 89.44328308105469 59.84920883178711 89.23442840576172 63.24766540527344 88.5871810913086 C 63.71385955810547 88.49835205078125 64.82000732421875 88.3015365600586 65.70577239990234 88.14964294433594 C 68.93521118164062 87.59613800048828 72.40081024169922 86.68817138671875 75.96200561523438 85.4625015258789 C 78.66490173339844 84.53215789794922 78.8262939453125 84.47350311279297 79.1729736328125 84.29600524902344 C 79.3538589477539 84.20344543457031 80.11671447753906 83.87372589111328 80.86821746826172 83.56331634521484 C 81.61955261230469 83.25292205810547 83.4168472290039 82.38868713378906 84.86204528808594 81.64260864257812 C 86.3072509765625 80.89669799804688 87.79991149902344 80.12875366210938 88.17896270751953 79.93600463867188 C 88.55818939208984 79.74325561523438 89.12287139892578 79.37318420410156 89.43412017822266 79.11329650878906 L 90.0 78.64083862304688 L 89.69994354248047 77.37974548339844 C 88.40833282470703 71.95258331298828 85.5838851928711 66.43421936035156 81.67888641357422 61.708892822265625 C 81.1396255493164 61.05622100830078 80.36167907714844 60.06450271606445 79.95024108886719 59.50507354736328 C 79.2806167602539 58.59455871582031 71.17582702636719 50.356170654296875 68.44596862792969 47.81092834472656 C 67.40475463867188 46.84040069580078 67.37457275390625 46.788352966308594 67.46255493164062 46.121952056884766 C 68.0899658203125 41.371368408203125 67.8997573852539 36.90422821044922 66.89142608642578 32.720191955566406 C 66.18112182617188 29.772836685180664 64.4660415649414 25.87071990966797 62.90522766113281 23.65062713623047 C 62.06217956542969 22.451580047607422 59.62017822265625 19.899555206298828 58.500980377197266 19.04820442199707 C 58.22126388549805 18.835451126098633 57.954261779785156 18.620492935180664 57.90764236450195 18.57065200805664 C 57.67980194091797 18.32721710205078 56.72555160522461 17.827966690063477 54.002986907958984 16.528221130371094 C 53.86007308959961 16.460071563720703 53.478641510009766 16.34733772277832 53.15536117553711 16.278003692626953 C 52.306549072265625 16.09559440612793 52.263153076171875 16.039142608642578 52.589317321777344 15.541250228881836 C 53.68919372558594 13.862787246704102 56.1801872253418 12.462005615234375 58.06547164916992 12.462005615234375 C 59.157379150390625 12.462005615234375 59.72223663330078 12.169914245605469 59.54151916503906 11.698805809020996 C 59.43760299682617 11.428244590759277 59.26299285888672 11.4056978225708 57.93832778930664 11.491477012634277 C 55.54785919189453 11.646422386169434 53.43168258666992 12.800545692443848 51.956993103027344 14.75363826751709 C 51.3919677734375 15.50225830078125 51.160396575927734 15.682971954345703 50.767269134521484 15.682971954345703 C 50.498741149902344 15.682971954345703 50.27903747558594 15.59871768951416 50.27903747558594 15.495817184448242 C 50.27903747558594 14.956050872802734 51.59302520751953 12.906667709350586 52.49421310424805 12.041075706481934 C 53.04737091064453 11.509785652160645 53.500003814697266 11.014944076538086 53.500003814697266 10.941709518432617 C 53.500003814697266 10.868305206298828 53.3904914855957 10.717428207397461 53.25656509399414 10.606220245361328 C 52.911075592041016 10.31955337524414 52.54829025268555 10.554853439331055 51.36636734008789 11.83306884765625 C 50.43059539794922 12.844791412353516 49.851158142089844 13.761411666870117 49.44141387939453 14.877730369567871 C 49.3088493347168 15.238818168640137 49.16017532348633 15.343923568725586 48.7816276550293 15.343923568725586 C 48.30949783325195 15.343923568725586 48.28949737548828 15.30984878540039 48.18693542480469 14.32931900024414 C 48.05419921875 13.059240341186523 47.25437927246094 11.266009330749512 46.522544860839844 10.597574234008789 C 45.893096923828125 10.022546768188477 45.816978454589844 10.0 45.55879592895508 10.311077117919922" stroke-width="1.0" fill="rgb(81, 55, 54)" opacity="1.0"/>
    <path d="M 43.3427734375 16.54483413696289 C 34.797203063964844 17.651491165161133 26.808530807495117 23.357179641723633 23.31869888305664 30.84660530090332 C 20.30607795715332 37.311763763427734 18.026142120361328 45.07157897949219 16.940505981445312 52.5545654296875 C 16.484146118164062 55.6995849609375 16.526527404785156 62.047264099121094 17.022048950195312 64.79034423828125 C 18.139892578125 70.97663116455078 20.351511001586914 75.4624252319336 24.15937042236328 79.26536560058594 C 26.202312469482422 81.3057632446289 27.790756225585938 82.41546630859375 30.698949813842773 83.8338851928711 C 37.68590545654297 87.24166870117188 47.929595947265625 88.81078338623047 58.33145523071289 88.06674194335938 C 68.42206573486328 87.34490203857422 78.9737777709961 84.15055847167969 87.12825012207031 79.34877014160156 L 88.8012924194336 78.36366271972656 L 88.70025634765625 77.62673950195312 C 88.5146255493164 76.27240753173828 87.0992660522461 72.38809204101562 85.98429870605469 70.17274475097656 C 84.2254867553711 66.67833709716797 82.02896118164062 63.47161102294922 78.85189056396484 59.759361267089844 C 77.1513900756836 57.77253341674805 71.64845275878906 52.196868896484375 68.44172668457031 49.21171188354492 L 66.3460693359375 47.260990142822266 L 66.64849853515625 43.96000671386719 C 66.93533325195312 40.82939910888672 66.9361801147461 40.510520935058594 66.66375732421875 37.780670166015625 C 65.56794738769531 26.800901412963867 60.26013946533203 19.23671531677246 52.12092208862305 17.055782318115234 C 49.679595947265625 16.401586532592773 46.071266174316406 16.191545486450195 43.3427734375 16.54483413696289" stroke-width="1.0" fill="rgb(254, 217, 102)" opacity="1.0"/>
    <path d="M 36.80759811401367 48.5614128112793 C 36.75318145751953 48.64939880371094 36.588401794433594 49.049983978271484 36.44142532348633 49.451419830322266 C 34.550376892089844 54.61479949951172 34.85280990600586 63.01372146606445 37.118507385253906 68.25407409667969 C 38.025970458984375 70.35295104980469 38.72475051879883 71.41993713378906 40.10824203491211 72.81936645507812 C 42.27222442626953 75.00826263427734 44.706260681152344 75.98693084716797 47.57902145385742 75.8233413696289 C 49.462947845458984 75.71620178222656 50.86406326293945 75.08234405517578 52.095157623291016 73.78073120117188 C 53.0651741027832 72.75511169433594 53.56035232543945 71.88138580322266 53.8558349609375 70.67402648925781 C 53.96738052368164 70.21868896484375 54.07808303833008 69.82183074951172 54.10181427001953 69.7919921875 C 54.12554931640625 69.7623291015625 54.530033111572266 70.0147476196289 55.00080490112305 70.35295104980469 C 57.51994323730469 72.16279602050781 60.576297760009766 72.03327941894531 62.57363510131836 70.03187561035156 C 63.619773864746094 68.98387145996094 63.92898941040039 68.07572937011719 63.797603607177734 66.43812561035156 C 63.72386169433594 65.51997375488281 63.60146713256836 65.17024230957031 63.09797668457031 64.4390869140625 C 62.45344543457031 63.50331115722656 61.45155334472656 62.8108024597168 60.74226379394531 62.8108024597168 C 59.98313522338867 62.8108024597168 59.959739685058594 63.71063995361328 60.713951110839844 63.89982986450195 C 61.372554779052734 64.06510925292969 62.27069854736328 64.97138977050781 62.58075714111328 65.78341674804688 C 63.76556396484375 68.88571166992188 60.005680084228516 71.57997131347656 56.64129638671875 70.0396728515625 C 55.57329177856445 69.5507583618164 54.423404693603516 68.46530151367188 53.82786178588867 67.38389587402344 C 53.557472229003906 66.89261627197266 53.27640151977539 66.60594940185547 53.03059005737305 66.57086181640625 C 52.498619079589844 66.49473571777344 52.3997917175293 66.89854431152344 52.720191955566406 67.83889770507812 C 53.057037353515625 68.82756805419922 53.06195068359375 69.46243286132812 52.740875244140625 70.54350280761719 C 51.940887451171875 73.23741149902344 49.333770751953125 75.0311508178711 46.558311462402344 74.79686737060547 C 40.339134216308594 74.27201843261719 36.36022186279297 67.56783294677734 36.32530212402344 57.5555419921875 C 36.31428146362305 54.34847640991211 36.517539978027344 52.88412094116211 37.331092834472656 50.31090545654297 C 37.57384490966797 49.543128967285156 37.72811508178711 48.79925537109375 37.67387390136719 48.658042907714844 C 37.565372467041016 48.37510299682617 36.96424102783203 48.3079719543457 36.80759811401367 48.5614128112793" stroke-width="1.0" fill="rgb(81, 55, 54)" opacity="1.0"/>
    <path d="M 15.562780380249023 29.93964958190918 C 14.1133451461792 30.665552139282227 13.307254791259766 32.53303527832031 13.674615859985352 34.31439971923828 C 14.052825927734375 36.14916229248047 15.214576721191406 37.524513244628906 17.151395797729492 38.43096160888672 C 18.728992462158203 39.16907501220703 18.879358291625977 39.101097106933594 19.453369140625 37.38974380493164 C 20.024837493896484 35.68601989746094 20.033313751220703 35.57176208496094 19.599159240722656 35.433937072753906 C 19.015148162841797 35.24848175048828 18.055469512939453 34.1719970703125 17.61334991455078 33.20604705810547 C 17.248872756958008 32.40995788574219 17.194961547851562 32.08158874511719 17.24633026123047 30.970867156982422 L 17.30651092529297 29.66874885559082 L 16.797935485839844 29.622299194335938 C 16.518220901489258 29.59670066833496 15.962348937988281 29.73961067199707 15.562780380249023 29.93964958190918" stroke-width="1.0" fill="rgb(254, 151, 59)" opacity="1.0"/>
    <path d="M 24.458751678466797 71.65219116210938 C 24.040193557739258 71.88630676269531 24.09427261352539 72.13888549804688 24.89612579345703 73.69580841064453 C 26.164846420288086 76.15866088867188 28.314926147460938 78.7328872680664 30.532306671142578 80.44356536865234 C 33.551368713378906 82.7728271484375 37.762359619140625 84.48299407958984 40.672420501708984 84.5619888305664 C 41.72398376464844 84.59064483642578 41.88434600830078 84.55487060546875 41.94012451171875 84.28007507324219 C 42.040992736816406 83.78421020507812 41.79942321777344 83.6706314086914 40.09518814086914 83.41294860839844 C 33.993831634521484 82.49005889892578 28.44207000732422 78.39299011230469 25.68153190612793 72.77545166015625 C 25.08395767211914 71.55945587158203 24.91002655029297 71.39959716796875 24.458751678466797 71.65219116210938" stroke-width="1.0" fill="rgb(81, 55, 54)" opacity="1.0"/>
    <path d="M 33.74106979370117 27.71226692199707 C 33.1284065246582 27.96044921875 32.31095886230469 29.042526245117188 32.290618896484375 29.632301330566406 C 32.255863189697266 30.641651153564453 32.33469009399414 31.022571563720703 32.68577575683594 31.544200897216797 C 33.752593994140625 33.128746032714844 36.2434196472168 32.97718811035156 37.09815979003906 31.275842666625977 C 37.72489929199219 30.028480529785156 37.236663818359375 28.42325210571289 36.04253387451172 27.805843353271484 C 35.51090621948242 27.530874252319336 34.309486389160156 27.482051849365234 33.74106979370117 27.71226692199707" stroke-width="1.0" fill="rgb(81, 55, 54)" opacity="1.0"/>
    <path d="M 14.683964729309082 39.096519470214844 C 13.48084831237793 39.57661437988281 12.644584655761719 40.63512420654297 12.644584655761719 41.6778678894043 C 12.644584655761719 42.9098014831543 13.7186918258667 43.39396286010742 14.99148178100586 42.735870361328125 C 15.601600646972656 42.420387268066406 16.556873321533203 42.33375930786133 17.327699661254883 42.52413558959961 L 17.857463836669922 42.655006408691406 L 18.15633773803711 41.55055618286133 C 18.320775985717773 40.943145751953125 18.463851928710938 40.39948272705078 18.47419548034668 40.342185974121094 C 18.484704971313477 40.28488540649414 18.0736083984375 40.09230422973633 17.5607967376709 39.91413497924805 C 17.047985076904297 39.7359619140625 16.3510684967041 39.43675231933594 16.012020111083984 39.24909210205078 C 15.322395324707031 38.8673210144043 15.272385597229004 38.86155700683594 14.683964729309082 39.096519470214844" stroke-width="1.0" fill="rgb(254, 151, 59)" opacity="1.0"/>
    <path d="M 44.20192337036133 84.2246322631836 C 44.079185485839844 84.37263488769531 44.00493240356445 84.63082122802734 44.03714370727539 84.79847717285156 C 44.08969497680664 85.07276916503906 44.344322204589844 85.1080322265625 46.57424545288086 85.15007019042969 C 48.66889572143555 85.1895751953125 49.06812286376953 85.15685272216797 49.15203857421875 84.93816375732422 C 49.34800720214844 84.4273910522461 49.08151626586914 84.1708984375 48.3537483215332 84.17005157470703 C 47.967403411865234 84.16954040527344 46.925498962402344 84.12105560302734 46.03837966918945 84.0622329711914 C 44.68320083618164 83.97254943847656 44.389583587646484 83.99848937988281 44.20192337036133 84.2246322631836" stroke-width="1.0" fill="rgb(81, 55, 54)" opacity="1.0"/>
  </g>
</svg>
