<?xml version="1.0" ?>
<svg xmlns="http://www.w3.org/2000/svg" version="1.1" width="100" height="100">
  <defs/>
  <g>
    <path d="M 32.127037048339844 10.347310066223145 C 31.35471534729004 10.453718185424805 30.37176513671875 10.61629581451416 29.942699432373047 10.70835018157959 C 28.735225677490234 10.96766185760498 25.777631759643555 11.999449729919434 25.315959930419922 12.322263717651367 C 25.088159561157227 12.481720924377441 24.815898895263672 12.612000465393066 24.71105194091797 12.612000465393066 C 24.549720764160156 12.612000465393066 23.09667205810547 13.384164810180664 21.98546600341797 14.060373306274414 C 17.94225311279297 16.520875930786133 14.376009941101074 20.510725021362305 12.263132095336914 24.937911987304688 C 10.678858757019043 28.257482528686523 10.01076602935791 31.049379348754883 10.004365921020508 34.37737274169922 C 10.0 36.669681549072266 10.148377418518066 37.65591049194336 10.791044235229492 39.60418701171875 C 11.178447723388672 40.778892517089844 11.898344993591309 42.28951644897461 12.116934776306152 42.38656234741211 C 12.181371688842773 42.4152717590332 12.233953475952148 42.505924224853516 12.233953475952148 42.58830642700195 C 12.233953475952148 42.84511947631836 13.411781311035156 44.32578659057617 14.285360336303711 45.16722869873047 C 15.09840202331543 45.950313568115234 17.200048446655273 47.4053955078125 17.517868041992188 47.4053955078125 C 17.83834457397461 47.4053955078125 17.86720848083496 47.741939544677734 17.605865478515625 48.42626190185547 C 17.224231719970703 49.425594329833984 17.372766494750977 51.0491828918457 17.92586898803711 51.9254150390625 C 18.346355438232422 52.59148406982422 19.485488891601562 53.50422286987305 20.081501007080078 53.65291213989258 C 20.536312103271484 53.76618957519531 20.6751708984375 54.07932662963867 21.601646423339844 57.078895568847656 C 22.03882598876953 58.494815826416016 22.457279205322266 59.828819274902344 22.53154945373535 60.04335403442383 C 22.605819702148438 60.25788497924805 23.02832794189453 61.59189224243164 23.470661163330078 63.0078125 C 23.912988662719727 64.42373657226562 24.403526306152344 65.96836853027344 24.560955047607422 66.44034576416016 C 24.718231201171875 66.91232299804688 25.140897750854492 68.24632263183594 25.500064849853516 69.40480041503906 C 25.859390258789062 70.56327819824219 26.391433715820312 72.24459838867188 26.682727813720703 73.14096069335938 C 26.97402572631836 74.0374755859375 27.2122745513916 74.86331176757812 27.2122745513916 74.97642517089844 C 27.2122745513916 75.08938598632812 27.27546501159668 75.30392456054688 27.3525390625 75.45292663574219 C 27.429616928100586 75.6019287109375 27.85712242126465 76.88226318359375 28.30225944519043 78.29818725585938 C 28.7475528717041 79.71410369873047 29.172252655029297 81.04811096191406 29.245893478393555 81.26264190673828 C 29.319692611694336 81.4771728515625 29.741741180419922 82.8111801147461 30.183757781982422 84.22710418701172 C 31.572372436523438 88.67472839355469 31.611064910888672 88.77068328857422 32.22923278808594 89.29788970947266 C 32.849273681640625 89.82681274414062 33.267574310302734 90.0 33.924434661865234 90.0 C 34.67694091796875 90.0 35.998779296875 89.37216186523438 36.33875274658203 88.85306549072266 C 36.59416961669922 88.46331787109375 38.05392837524414 84.57737731933594 38.985076904296875 81.80873107910156 C 39.10054016113281 81.46546936035156 39.45611572265625 80.4825210571289 39.77534103393555 79.6243896484375 C 40.094722747802734 78.7662582397461 40.58323669433594 77.4322509765625 40.861114501953125 76.65992736816406 C 41.13899612426758 75.88761138916016 41.40688705444336 75.15039825439453 41.456504821777344 75.02167510986328 C 41.50596237182617 74.89295196533203 41.80365753173828 74.05042266845703 42.117889404296875 73.14938354492188 C 43.15435791015625 70.17727661132812 44.238101959228516 67.14759826660156 44.378055572509766 66.83040618896484 C 44.526588439941406 66.49385833740234 45.15973663330078 64.70613861083984 45.62110137939453 63.319862365722656 C 45.77821731567383 62.8478889465332 46.20119857788086 61.65430450439453 46.56083679199219 60.667449951171875 C 46.920623779296875 59.68059539794922 47.316463470458984 58.58406066894531 47.44081497192383 58.23081970214844 L 47.6667366027832 57.588314056396484 L 48.73628234863281 57.60672378540039 C 49.74481964111328 57.6238899230957 49.856998443603516 57.58924865722656 50.69844055175781 57.00088119506836 C 52.179420471191406 55.96535110473633 53.106204986572266 54.075584411621094 53.11041259765625 52.08300018310547 C 53.11368942260742 50.59468460083008 52.350425720214844 48.400047302246094 51.295387268066406 46.863521575927734 C 50.95634841918945 46.370018005371094 51.036705017089844 46.23255920410156 51.89670181274414 45.832828521728516 C 53.62763595581055 45.02836608886719 55.92587661743164 42.994903564453125 57.16283416748047 41.17347717285156 C 59.112823486328125 38.301849365234375 60.13337707519531 35.055145263671875 60.13337707519531 31.72246551513672 C 60.13337707519531 27.865081787109375 58.81060028076172 23.960575103759766 56.29409408569336 20.389650344848633 C 54.76021957397461 18.212800979614258 51.744117736816406 15.382989883422852 49.73701858520508 14.2373046875 C 47.91246795654297 13.195687294006348 46.14206314086914 12.287002563476562 45.4802131652832 12.052342414855957 C 45.08687210083008 11.913012504577637 44.624576568603516 11.743102073669434 44.45294952392578 11.67507553100586 C 43.54629135131836 11.31544017791748 42.81298065185547 11.108551979064941 40.63035583496094 10.596636772155762 C 38.57879638671875 10.115457534790039 34.644798278808594 10.0 32.127037048339844 10.347310066223145" stroke-width="1.0" fill="rgb(81, 55, 54)" opacity="1.0"/>
    <path d="M 32.4390869140625 11.2926607131958 C 26.937047958374023 12.018328666687012 22.13321876525879 14.418136596679688 18.08595085144043 18.462907791137695 C 14.469154357910156 22.077363967895508 12.213668823242188 26.268953323364258 11.285480499267578 31.100555419921875 C 10.605216979980469 34.64152526855469 11.088421821594238 38.58721923828125 12.518227577209473 41.1644287109375 C 13.348901748657227 42.661949157714844 13.724762916564941 43.15747833251953 14.958133697509766 44.38086700439453 C 15.999908447265625 45.414215087890625 16.51728630065918 45.78726577758789 17.771873474121094 46.4091796875 C 18.61752700805664 46.82841873168945 19.33399200439453 47.24687194824219 19.364103317260742 47.33924102783203 C 19.394371032714844 47.4317626953125 19.24505615234375 47.69512939453125 19.032238006591797 47.924644470214844 C 18.112476348876953 48.91695785522461 18.124958038330078 50.68081283569336 19.05954360961914 51.79138946533203 C 19.65680694580078 52.50114440917969 20.531009674072266 52.84830093383789 21.610694885253906 52.804298400878906 C 22.754196166992188 52.75764465332031 23.570358276367188 52.24495315551758 24.099124908447266 51.241249084472656 C 24.41663360595703 50.6386833190918 24.548316955566406 50.52244567871094 24.871912002563477 50.55942153930664 C 25.14995002746582 50.591094970703125 25.27726173400879 50.71263885498047 25.315486907958984 50.98256301879883 C 25.34482192993164 51.190696716308594 25.478378295898438 51.52817916870117 25.612247467041016 51.73241424560547 C 26.15443229675293 52.55996322631836 28.010652542114258 53.48440933227539 29.138551712036133 53.488624572753906 C 30.64496421813965 53.4943962097168 32.464515686035156 52.320621490478516 33.1240348815918 50.91765213012695 C 33.38631057739258 50.359710693359375 33.53546905517578 50.213829040527344 33.844085693359375 50.213829040527344 C 34.21775817871094 50.213829040527344 34.260040283203125 50.275306701660156 34.29546356201172 50.870689392089844 C 34.31621551513672 51.21956253051758 35.23067092895508 52.18503952026367 35.83744812011719 52.498802185058594 C 36.134361267089844 52.6523323059082 36.76158142089844 52.75343704223633 37.49739074707031 52.76638412475586 C 38.5330810546875 52.784637451171875 38.7591552734375 52.73580551147461 39.317100524902344 52.37320327758789 C 40.002357482910156 51.92775344848633 40.55015563964844 51.3234748840332 40.97407531738281 50.54553985595703 C 41.25679397583008 50.026912689208984 41.35789489746094 49.979949951171875 41.710670471191406 50.20322036743164 C 41.90086364746094 50.323516845703125 41.903358459472656 50.53336715698242 41.728294372558594 51.65876770019531 C 41.385047912597656 53.86541748046875 41.989013671875 55.36262893676758 43.22238540649414 55.36262893676758 C 43.862239837646484 55.36262893676758 44.095497131347656 55.039031982421875 44.437660217285156 53.67725372314453 C 44.71054458618164 52.59085464477539 45.023681640625 52.08143997192383 45.64715576171875 51.70916748046875 C 46.28061294555664 51.331119537353516 46.834659576416016 51.401485443115234 47.35968017578125 51.92650604248047 C 47.79561233520508 52.362281799316406 47.8221321105957 52.45854949951172 47.792022705078125 53.492210388183594 C 47.77439498901367 54.097896575927734 47.697784423828125 54.631813049316406 47.62211227416992 54.678619384765625 C 47.37715530395508 54.83012008666992 47.544254302978516 55.98033142089844 47.86051940917969 56.31983947753906 C 48.113582611083984 56.59147644042969 48.30034637451172 56.63453674316406 48.98155212402344 56.57789993286133 C 50.49592208862305 56.45245361328125 51.65689468383789 55.06680679321289 52.031978607177734 52.93770217895508 C 52.327796936035156 51.25825500488281 51.570152282714844 48.7869873046875 50.21492004394531 47.01158905029297 C 49.44837951660156 46.007415771484375 49.49705123901367 45.80817413330078 50.615901947021484 45.373023986816406 C 52.603965759277344 44.599769592285156 55.245452880859375 42.3525505065918 56.57181167602539 40.30629348754883 C 58.162010192871094 37.852813720703125 59.19192886352539 34.47956848144531 59.191776275634766 31.724964141845703 C 59.19161605834961 30.66946029663086 58.85319900512695 28.373563766479492 58.5247688293457 27.20026206970215 C 57.24162673950195 22.615646362304688 53.87041473388672 18.15335464477539 49.475215911865234 15.221662521362305 C 44.6904182434082 12.030031204223633 38.19887161254883 10.532979011535645 32.4390869140625 11.2926607131958" stroke-width="1.0" fill="rgb(254, 194, 194)" opacity="1.0"/>
    <path d="M 33.44528579711914 77.06575012207031 L 32.031551361083984 79.88993835449219 L 32.859413146972656 80.77225494384766 C 33.97357940673828 81.95960235595703 35.88129425048828 84.09806823730469 36.290077209472656 84.61779022216797 C 36.55328369140625 84.95245361328125 36.647056579589844 84.99333953857422 36.74613571166992 84.81640625 C 36.81462860107422 84.69393157958984 37.338401794433594 83.2811279296875 37.90991973876953 81.67688751220703 L 38.949195861816406 78.76001739501953 L 38.580665588378906 78.30192565917969 C 37.67198181152344 77.1726303100586 35.080108642578125 74.2613754272461 34.975257873535156 74.25200653076172 C 34.91144561767578 74.2462387084961 34.2229118347168 75.51236724853516 33.44528579711914 77.06575012207031" stroke-width="1.0" fill="rgb(251, 174, 132)" opacity="1.0"/>
    <path d="M 24.121902465820312 52.93489074707031 C 23.823272705078125 53.23055648803711 23.231788635253906 53.56803512573242 22.71768569946289 53.73591995239258 C 22.229175567626953 53.895530700683594 21.814775466918945 54.031585693359375 21.796676635742188 54.03798294067383 C 21.732707977294922 54.061073303222656 22.540599822998047 56.49099349975586 22.729389190673828 56.84345245361328 C 22.988075256347656 57.32619094848633 26.330896377563477 61.748695373535156 26.441829681396484 61.754783630371094 C 26.520151138305664 61.759151458740234 27.51605224609375 59.48197937011719 28.705270767211914 56.57961654663086 L 29.133556365966797 55.53425598144531 L 28.711042404174805 54.98036575317383 C 28.478723526000977 54.67580795288086 28.169328689575195 54.426483154296875 28.02344512939453 54.426326751708984 C 27.544450759887695 54.426170349121094 25.892778396606445 53.549312591552734 25.27648162841797 52.9681282043457 C 24.94415283203125 52.6546745300293 24.664554595947266 52.40393829345703 24.65503692626953 52.4111213684082 C 24.645675659179688 52.41813659667969 24.405712127685547 52.653892517089844 24.121902465820312 52.93489074707031" stroke-width="1.0" fill="rgb(251, 174, 132)" opacity="1.0"/>
    <path d="M 35.97178649902344 57.74995422363281 C 35.273109436035156 59.320335388183594 34.701438903808594 60.67384338378906 34.701438903808594 60.757789611816406 C 34.701438903808594 60.896183013916016 35.652244567871094 62.1164436340332 37.169898986816406 63.926326751708984 C 37.485530853271484 64.30281066894531 37.800071716308594 64.70660400390625 37.86872482299805 64.82347106933594 C 37.9373779296875 64.94048309326172 38.04425048828125 65.0361328125 38.106353759765625 65.0361328125 C 38.16844940185547 65.0361328125 38.813453674316406 63.84144973754883 39.53943634033203 62.381221771240234 C 40.49913787841797 60.451045989990234 40.817588806152344 59.667335510253906 40.706024169921875 59.510528564453125 C 40.6214599609375 59.3919563293457 39.85023498535156 58.309146881103516 38.992103576660156 57.1044807434082 C 38.133968353271484 55.899818420410156 37.38911056518555 54.90968704223633 37.336997985839844 54.90438461303711 C 37.284889221191406 54.89892578125 36.67046356201172 56.179412841796875 35.97178649902344 57.74995422363281" stroke-width="1.0" fill="rgb(251, 174, 132)" opacity="1.0"/>
    <path d="M 36.92088317871094 70.17478942871094 L 35.49794006347656 72.97323608398438 L 37.401123046875 75.15835571289062 C 38.447731018066406 76.3602066040039 39.339256286621094 77.3476791381836 39.382164001464844 77.35267639160156 C 39.42522430419922 77.35782623291016 39.966163635253906 75.94783782958984 40.584327697753906 74.21924591064453 L 41.70848083496094 71.07659912109375 L 40.11625289916992 69.237548828125 C 39.24049377441406 68.2261962890625 38.48345947265625 67.39364624023438 38.43384552001953 67.3875732421875 C 38.38439178466797 67.38148498535156 37.70349884033203 68.6357650756836 36.92088317871094 70.17478942871094" stroke-width="1.0" fill="rgb(251, 174, 132)" opacity="1.0"/>
    <path d="M 29.15945816040039 58.5225830078125 C 28.754261016845703 59.48775100708008 28.174318313598633 60.88557434082031 27.870697021484375 61.628868103027344 L 27.318527221679688 62.98019790649414 L 28.86457061767578 64.93611907958984 C 29.715057373046875 66.01190185546875 30.468656539916992 66.87643432617188 30.539493560791016 66.8573989868164 C 30.610172271728516 66.83820343017578 31.18808364868164 65.63088989257812 31.823883056640625 64.1740951538086 C 32.45952606201172 62.71745300292969 33.04711151123047 61.409969329833984 33.12964630126953 61.268611907958984 C 33.245262145996094 61.07061767578125 33.11638641357422 60.801944732666016 32.568275451660156 60.09843063354492 C 32.17681121826172 59.596187591552734 31.472827911376953 58.67673873901367 31.00381851196289 58.055294036865234 C 30.534812927246094 57.4338493347168 30.093576431274414 56.889949798583984 30.02351951599121 56.84657287597656 C 29.953306198120117 56.803199768066406 29.564495086669922 57.55741882324219 29.15945816040039 58.5225830078125" stroke-width="1.0" fill="rgb(251, 174, 132)" opacity="1.0"/>
    <path d="M 34.031158447265625 62.1782341003418 C 33.98871612548828 62.248443603515625 33.38428497314453 63.5968017578125 32.68810272216797 65.1746826171875 C 31.634157180786133 67.56356811523438 31.454730987548828 68.08561706542969 31.615121841430664 68.295166015625 C 32.81416702270508 69.85992431640625 34.61468505859375 71.89385986328125 34.712669372558594 71.79400634765625 C 34.78131866455078 71.72425842285156 35.444419860839844 70.45344543457031 36.18647766113281 68.969970703125 L 37.53561782836914 66.27277374267578 L 36.62568664550781 65.15486145019531 C 36.12515640258789 64.53997039794922 35.373741149902344 63.61225128173828 34.95591354370117 63.09331512451172 C 34.538238525390625 62.57437515258789 34.17656707763672 62.127525329589844 34.15254211425781 62.100223541259766 C 34.12835693359375 62.07307434082031 34.07374954223633 62.108177185058594 34.031158447265625 62.1782341003418" stroke-width="1.0" fill="rgb(251, 174, 132)" opacity="1.0"/>
    <path d="M 29.606624603271484 72.11775207519531 L 28.361705780029297 74.94007110595703 L 28.606040954589844 75.59974670410156 C 28.832117080688477 76.20964813232422 30.88680076599121 78.7662582397461 31.15094757080078 78.7662582397461 C 31.21491813659668 78.7662582397461 31.904081344604492 77.49418640136719 32.68232727050781 75.93956756591797 C 34.09107208251953 73.12535858154297 34.09606170654297 73.11131286621094 33.79821014404297 72.78007507324219 C 33.63360595703125 72.59706115722656 32.90325927734375 71.73814392089844 32.17524719238281 70.87127685546875 L 30.85138511657715 69.2954330444336 L 29.606624603271484 72.11775207519531" stroke-width="1.0" fill="rgb(251, 174, 132)" opacity="1.0"/>
    <path d="M 40.33687210083008 63.426429748535156 C 39.21178436279297 65.66849517822266 39.056854248046875 66.07119750976562 39.21958541870117 66.33174896240234 C 39.64958572387695 67.02029418945312 42.09979248046875 69.71279907226562 42.195899963378906 69.60248565673828 C 42.45490264892578 69.30494689941406 44.20674133300781 64.05302429199219 44.10220718383789 63.88732147216797 C 43.96849060058594 63.67528533935547 41.700679779052734 60.8234748840332 41.66572952270508 60.8234748840332 C 41.65325164794922 60.8234748840332 41.055206298828125 61.994747161865234 40.33687210083008 63.426429748535156" stroke-width="1.0" fill="rgb(251, 174, 132)" opacity="1.0"/>
    <path d="M 33.13277053833008 52.804298400878906 C 32.83710479736328 53.11338424682617 32.224082946777344 53.5778694152832 31.77052116394043 53.83639907836914 C 31.187772750854492 54.16857147216797 30.87900161743164 54.46673583984375 30.717357635498047 54.85367965698242 L 30.48878288269043 55.40085220336914 L 31.685644149780273 56.98106384277344 C 33.33793640136719 59.16228485107422 33.672149658203125 59.575279235839844 33.78511047363281 59.575279235839844 C 33.838932037353516 59.575279235839844 34.04114532470703 59.20675277709961 34.23476791381836 58.75615310668945 C 34.42823791503906 58.30571365356445 34.74652862548828 57.58597183227539 34.94218063354492 57.15690612792969 C 35.13783264160156 56.727840423583984 35.545528411865234 55.81509780883789 35.84821319580078 55.12859344482422 L 36.39851379394531 53.88039779663086 L 35.837135314941406 53.68490219116211 C 35.32179260253906 53.505470275878906 34.45507049560547 52.93519973754883 33.949241638183594 52.44279479980469 C 33.6849365234375 52.185665130615234 33.75358581542969 52.15523910522461 33.13277053833008 52.804298400878906" stroke-width="1.0" fill="rgb(251, 174, 132)" opacity="1.0"/>
    <path d="M 31.088539123535156 81.7906265258789 L 30.756206512451172 82.47463989257812 L 31.41900062561035 84.56005859375 C 31.783472061157227 85.70699310302734 32.18351745605469 86.96142578125 32.307708740234375 87.34758758544922 C 32.68170166015625 88.50934600830078 33.14774703979492 88.90782928466797 34.13319396972656 88.90782928466797 C 34.84653854370117 88.90782928466797 35.540687561035156 88.32039642333984 35.84119415283203 87.46241760253906 C 35.968509674072266 87.09888458251953 36.116886138916016 86.69368743896484 36.17102813720703 86.56200408935547 C 36.22532653808594 86.4295425415039 36.14512634277344 86.18536376953125 35.99128723144531 86.01592254638672 C 35.838539123535156 85.84725952148438 34.776641845703125 84.67379760742188 33.63188934326172 83.40797424316406 C 32.487144470214844 82.1423110961914 31.521196365356445 81.10662078857422 31.48562240600586 81.10662078857422 C 31.450050354003906 81.10662078857422 31.271398544311523 81.4144515991211 31.088539123535156 81.7906265258789" stroke-width="1.0" fill="rgb(251, 174, 132)" opacity="1.0"/>
    <path d="M 45.953590393066406 52.84782791137695 C 45.781497955322266 53.01992416381836 45.597076416015625 53.42808532714844 45.54386901855469 53.754642486572266 C 45.32356262207031 55.10768508911133 44.678871154785156 56.197044372558594 43.93136215209961 56.478824615478516 C 43.77986145019531 56.53608703613281 42.346622467041016 59.31549835205078 42.346622467041016 59.552345275878906 C 42.346622467041016 59.73395919799805 44.5177001953125 62.53974151611328 44.657806396484375 62.539424896240234 C 44.7167854309082 62.539424896240234 45.21059799194336 61.29731750488281 45.755279541015625 59.779361724853516 C 46.69049072265625 57.172977447509766 46.734954833984375 56.986995697021484 46.553504943847656 56.437164306640625 C 46.428836822509766 56.05958938598633 46.40153503417969 55.562496185302734 46.475807189941406 55.02358627319336 C 46.66443634033203 53.65415954589844 46.654762268066406 52.66621780395508 46.452083587646484 52.597412109375 C 46.35004425048828 52.562931060791016 46.12583541870117 52.67558288574219 45.953590393066406 52.84782791137695" stroke-width="1.0" fill="rgb(251, 174, 132)" opacity="1.0"/>
    <path d="M 26.300155639648438 65.3424072265625 C 26.029457092285156 65.9477767944336 25.80805778503418 66.53504943847656 25.80805778503418 66.64754486083984 C 25.80805778503418 66.76004028320312 26.11979103088379 67.823974609375 26.500804901123047 69.01177978515625 C 26.88197135925293 70.19959259033203 27.316499710083008 71.58134460449219 27.466594696044922 72.08248901367188 C 27.61669158935547 72.58348083496094 27.78285789489746 72.99336242675781 27.835905075073242 72.99336242675781 C 27.888952255249023 72.99336242675781 28.063232421875 72.6950454711914 28.223155975341797 72.33026123046875 C 28.383237838745117 71.96562957763672 28.853496551513672 70.90357208251953 29.26836395263672 69.97039794921875 L 30.02273941040039 68.27346801757812 L 28.51663589477539 66.3818359375 C 27.688304901123047 65.34130859375 26.961387634277344 64.43418884277344 26.901473999023438 64.3658447265625 C 26.84140396118164 64.29766845703125 26.57086181640625 64.73703002929688 26.300155639648438 65.3424072265625" stroke-width="1.0" fill="rgb(251, 174, 132)" opacity="1.0"/>
    <path d="M 47.06635284423828 17.552038192749023 C 46.959163665771484 17.595413208007812 46.87132263183594 17.790443420410156 46.87132263183594 17.98563003540039 C 46.87132263183594 18.250247955322266 47.10411071777344 18.484127044677734 47.786251068115234 18.905235290527344 C 49.660255432128906 20.062000274658203 51.368255615234375 22.397838592529297 51.9288444519043 24.5703182220459 C 52.06489944458008 25.097679138183594 52.176143646240234 26.084064483642578 52.176143646240234 26.76245880126953 C 52.176143646240234 28.033742904663086 52.31266784667969 28.37044334411621 52.828487396240234 28.37044334411621 C 53.00478744506836 28.37044334411621 53.14068603515625 28.213640213012695 53.20029067993164 27.941377639770508 C 53.2520866394043 27.705469131469727 53.32557678222656 27.413860321044922 53.363487243652344 27.293563842773438 C 53.48237991333008 26.918014526367188 53.11057662963867 24.592161178588867 52.774967193603516 23.611705780029297 C 52.013885498046875 21.387737274169922 50.428985595703125 19.323381423950195 48.53579330444336 18.089855194091797 C 47.5517463684082 17.44875144958496 47.431453704833984 17.40475082397461 47.06635284423828 17.552038192749023" stroke-width="1.0" fill="rgb(81, 55, 54)" opacity="1.0"/>
    <path d="M 39.928245544433594 53.298274993896484 C 39.670806884765625 53.435569763183594 39.21443176269531 53.633724212646484 38.91408920288086 53.738731384277344 C 38.613746643066406 53.84357833862305 38.368003845214844 54.00131607055664 38.368003845214844 54.08931350708008 C 38.368003845214844 54.17731475830078 39.06340408325195 55.213314056396484 39.91326904296875 56.39176559448242 L 41.45868682861328 58.53428649902344 L 41.99930953979492 57.4617805480957 C 42.39826583862305 56.6704216003418 42.48611068725586 56.37132263183594 42.33414077758789 56.32061767578125 C 42.22102355957031 56.282859802246094 41.85795593261719 55.999202728271484 41.527496337890625 55.69028091430664 C 41.05021667480469 55.244205474853516 40.87187957763672 54.91452407836914 40.661407470703125 54.088687896728516 L 40.39631652832031 53.048789978027344 L 39.928245544433594 53.298274993896484" stroke-width="1.0" fill="rgb(251, 174, 132)" opacity="1.0"/>
    <path d="M 23.780681610107422 60.379119873046875 C 23.78130531311035 60.40891647338867 24.06167984008789 61.31105041503906 24.403839111328125 62.38371658325195 C 24.746000289916992 63.456382751464844 25.02637481689453 64.42185974121094 25.02699851989746 64.529052734375 C 25.02902603149414 64.95545959472656 25.295360565185547 64.68319702148438 25.614116668701172 63.92866897583008 L 25.950197219848633 63.13310241699219 L 24.865047454833984 61.728885650634766 C 24.26810073852539 60.95671844482422 23.780208587646484 60.349159240722656 23.780681610107422 60.379119873046875" stroke-width="1.0" fill="rgb(251, 174, 132)" opacity="1.0"/>
    <path d="M 29.75469207763672 79.25711059570312 C 29.802902221679688 79.39830780029297 29.930370330810547 79.80756378173828 30.037870407104492 80.166259765625 C 30.228069305419922 80.8011245727539 30.2385196685791 80.80892944335938 30.422941207885742 80.45552825927734 C 30.590198516845703 80.13505554199219 30.55696678161621 80.02833557128906 30.13975715637207 79.54637908935547 C 29.87966537475586 79.24603271484375 29.70647621154785 79.11590576171875 29.75469207763672 79.25711059570312" stroke-width="1.0" fill="rgb(251, 174, 132)" opacity="1.0"/>
    <path d="M 37.253990173339844 65.9190673828125 C 37.51143264770508 66.2304916381836 37.51408386230469 66.29180908203125 37.28722381591797 66.73039245605469 C 37.15226745605469 66.99142456054688 37.044918060302734 67.26118469238281 37.048667907714844 67.32968139648438 C 37.05256652832031 67.39833068847656 37.19938659667969 67.18208312988281 37.37491226196289 66.84896850585938 L 37.69429397583008 66.24343872070312 L 37.334808349609375 65.91282653808594 L 36.97533416748047 65.58221435546875 L 37.253990173339844 65.9190673828125" stroke-width="1.0" fill="rgb(254, 194, 194)" opacity="1.0"/>
    <path d="M 40.07506561279297 53.108856201171875 C 39.78236389160156 53.34336471557617 39.78361129760742 53.34601593017578 40.112510681152344 53.18718338012695 C 40.40489959716797 53.045982360839844 40.462158203125 53.07219314575195 40.520362854003906 53.373634338378906 C 40.578086853027344 53.67397689819336 40.59088134765625 53.66274642944336 40.60913848876953 53.29530715942383 C 40.633323669433594 52.80632781982422 40.507408142089844 52.762481689453125 40.07506561279297 53.108856201171875" stroke-width="1.0" fill="rgb(254, 194, 194)" opacity="1.0"/>
    <path d="M 31.41556739807129 81.04031372070312 C 31.40043067932129 81.1197280883789 31.396221160888672 81.15327453613281 31.40651512145996 81.11504364013672 C 31.416658401489258 81.07666778564453 31.688295364379883 81.28604888916016 32.01001739501953 81.58015441894531 L 32.59510803222656 82.1148452758789 L 32.019073486328125 81.50541687011719 C 31.702341079711914 81.17027282714844 31.43069839477539 80.96089172363281 31.41556739807129 81.04031372070312" stroke-width="1.0" fill="rgb(254, 194, 194)" opacity="1.0"/>
    <path d="M 32.98516845703125 80.95059204101562 L 33.60926818847656 81.57469177246094 L 32.98516845703125 80.95059204101562 L 32.3610725402832 80.32649993896484 L 32.98516845703125 80.95059204101562" stroke-width="1.0" fill="rgb(254, 194, 194)" opacity="1.0"/>
    <path d="M 43.445499420166016 61.25441360473633 C 43.742103576660156 61.61997985839844 43.87956237792969 61.74074172973633 43.75083923339844 61.522464752197266 C 43.62211608886719 61.30434036254883 43.37934494018555 61.005088806152344 43.211463928222656 60.857643127441406 C 43.043426513671875 60.710044860839844 43.148738861083984 60.88869094848633 43.445499420166016 61.25441360473633" stroke-width="1.0" fill="rgb(254, 194, 194)" opacity="1.0"/>
  </g>
</svg>
