<?xml version="1.0" ?>
<svg xmlns="http://www.w3.org/2000/svg" version="1.1" width="100" height="100">
  <defs/>
  <g>
    <path d="M 49.51385498046875 44.02208709716797 C 48.8065071105957 44.052791595458984 43.995723724365234 44.15262222290039 38.82322692871094 44.2437744140625 C 21.80084800720215 44.54423904418945 17.476367950439453 44.951446533203125 10.385184288024902 46.922218322753906 L 10.0 47.0292854309082 L 10.098225593566895 49.3755989074707 C 10.331489562988281 54.95547103881836 11.239630699157715 56.69651412963867 14.250208854675293 57.33634567260742 L 14.675422668457031 57.42668914794922 L 14.76496696472168 59.718666076660156 C 14.81432056427002 60.97919845581055 14.932158470153809 64.34779357910156 15.027008056640625 67.20436096191406 C 15.384058952331543 77.96073913574219 16.194133758544922 85.17635345458984 17.28618621826172 87.33055114746094 C 18.393672943115234 89.51513671875 21.112308502197266 90.0 30.222492218017578 89.63715362548828 C 45.15208053588867 89.0425033569336 54.73698806762695 87.73519134521484 56.2243537902832 86.0905990600586 C 56.948585510253906 85.2895278930664 57.571372985839844 82.24037170410156 57.776668548583984 78.48867797851562 C 57.90495681762695 76.14220428466797 58.03532791137695 67.28168487548828 58.03275680541992 61.07951354980469 L 58.03147506713867 57.73712158203125 L 58.434661865234375 57.64934539794922 C 60.82309341430664 57.129764556884766 61.79779052734375 56.60102081298828 62.31913757324219 55.5422477722168 C 62.676353454589844 54.81673049926758 62.69901657104492 54.580413818359375 62.74708557128906 51.054752349853516 C 62.780845642089844 48.573238372802734 62.7353515625 47.101627349853516 62.61043930053711 46.63783264160156 C 62.25193786621094 45.30624771118164 61.203453063964844 44.70580291748047 58.43610763549805 44.24715042114258 C 57.34695053100586 44.066776275634766 51.74232864379883 43.92530822753906 49.51385498046875 44.02208709716797" stroke-width="1.0" fill="rgb(118, 167, 223)" opacity="1.0"/>
    <path d="M 28.86325454711914 10.49305534362793 C 27.022859573364258 10.875506401062012 25.571184158325195 12.056780815124512 25.063499450683594 13.585299491882324 C 24.66497230529785 14.785223007202148 24.8133544921875 17.30628204345703 25.36090850830078 18.63497543334961 C 26.16696548461914 20.591279983520508 27.686161041259766 22.479904174804688 29.870424270629883 24.24136734008789 C 31.158126831054688 25.27972412109375 36.13385009765625 28.693973541259766 36.57240295410156 28.840105056762695 C 36.74120330810547 28.896371841430664 36.61758041381836 29.312904357910156 36.05250549316406 30.591920852661133 C 35.00048065185547 32.972633361816406 33.89653396606445 36.55022048950195 33.61536407470703 38.489803314208984 C 33.48321533203125 39.40132141113281 33.32518768310547 41.069541931152344 33.26409912109375 42.196800231933594 L 33.15301513671875 44.24650955200195 L 36.043983459472656 44.24650955200195 L 38.934959411621094 44.24650955200195 L 39.03848648071289 42.43312072753906 C 39.25310134887695 38.675804138183594 40.1186408996582 35.38051986694336 41.7463493347168 32.12461853027344 C 42.192623138427734 31.23175048828125 42.58504104614258 30.4716739654541 42.6186408996582 30.435501098632812 C 42.65208053588867 30.399169921875 43.16828536987305 30.559608459472656 43.76567459106445 30.792068481445312 C 47.185550689697266 32.122528076171875 50.52006149291992 32.18779754638672 53.4870719909668 30.982248306274414 C 55.674068450927734 30.09356117248535 57.943058013916016 28.131309509277344 58.702972412109375 26.471446990966797 C 59.049415588378906 25.714584350585938 59.103912353515625 25.396276473999023 59.05375671386719 24.42125701904297 C 58.98141098022461 23.01572036743164 58.587867736816406 22.180727005004883 57.663490295410156 21.472091674804688 C 56.46260452270508 20.551250457763672 55.398681640625 20.25737762451172 52.97022247314453 20.175552368164062 C 50.47006607055664 20.09115219116211 49.21242904663086 20.295799255371094 47.27557373046875 21.102018356323242 C 45.85637283325195 21.69281768798828 42.994503021240234 23.373897552490234 41.94842529296875 24.2310791015625 C 41.465660095214844 24.626550674438477 41.2137451171875 24.748085021972656 41.17307662963867 24.604686737060547 C 41.14012145996094 24.487974166870117 40.99077224731445 23.70522689819336 40.84126281738281 22.865249633789062 C 40.24001693725586 19.487171173095703 38.282745361328125 15.23985481262207 36.33238983154297 13.081151962280273 C 34.60260009765625 11.1663236618042 31.236576080322266 10.0 28.86325454711914 10.49305534362793" stroke-width="1.0" fill="rgb(94, 176, 130)" opacity="1.0"/>
    <path d="M 28.7756404876709 59.68394470214844 C 27.360939025878906 59.745994567871094 25.84978485107422 59.806602478027344 25.41765594482422 59.81865692138672 L 24.631694793701172 59.840362548828125 L 24.719791412353516 62.53311538696289 C 24.824769973754883 65.74095153808594 25.063016891479492 66.75004577636719 25.891742706298828 67.4953384399414 C 26.866600036621094 68.37245178222656 27.935020446777344 68.60587310791016 30.785158157348633 68.56472778320312 C 32.15564727783203 68.5449447631836 35.08552551269531 68.60700225830078 37.29599380493164 68.70265197753906 C 40.25255584716797 68.83045959472656 41.71869659423828 68.828369140625 42.84225845336914 68.69461059570312 C 43.6822395324707 68.59461975097656 45.28567123413086 68.41328430175781 46.40537643432617 68.29142761230469 C 49.78184509277344 67.92408752441406 49.97138214111328 67.7257080078125 50.052085876464844 64.47511291503906 C 50.09757995605469 62.64147186279297 50.056907653808594 62.08619689941406 49.83457565307617 61.50375747680664 C 49.49906539916992 60.62519836425781 48.74236297607422 60.09340286254883 47.50434112548828 59.86592102050781 C 46.4166259765625 59.66609573364258 32.30853271484375 59.52896499633789 28.7756404876709 59.68394470214844" stroke-width="1.0" fill="rgb(254, 254, 254)" opacity="1.0"/>
  </g>
</svg>
