<?xml version="1.0" ?>
<svg xmlns="http://www.w3.org/2000/svg" version="1.1" width="100" height="100">
  <defs/>
  <g>
    <path d="M 15.649402618408203 28.170833587646484 L 39.96709442138672 14.463011741638184 C 41.45896530151367 13.490019798278809 43.123985290527344 12.812911987304688 44.87150573730469 12.468552589416504 C 46.436668395996094 12.348980903625488 48.01068878173828 12.50389289855957 49.522518157958984 12.926297187805176 Q 68.84588623046875 17.217655181884766 87.67881774902344 23.39720916748047 L 71.53514099121094 59.42008972167969 C 70.89139556884766 61.040245056152344 70.03663635253906 62.568359375 68.9930191040039 63.964839935302734 C 67.35821533203125 65.96747589111328 64.98774719238281 67.23444366455078 62.69902801513672 68.45237731933594 L 37.53941345214844 81.75967407226562 L 51.9747200012207 40.24385070800781 L 12.306230545043945 29.993637084960938 L 15.649402618408203 28.170833587646484" stroke-width="1.0" fill="rgb(35, 24, 21)" opacity="1.0"/>
    <path d="M 16.67932891845703 29.928245544433594 L 30.076536178588867 22.375457763671875 L 36.615745544433594 18.69715118408203 C 38.70011901855469 17.520092010498047 40.751800537109375 16.244945526123047 42.90974044799805 15.190498352050781 C 45.06768035888672 14.136051177978516 47.0703125 14.463011741638184 49.367210388183594 14.977974891662598 Q 53.029170989990234 15.79537582397461 56.72382354736328 16.686344146728516 Q 63.93330001831055 18.443756103515625 71.077392578125 20.462738037109375 Q 79.1860122680664 22.743288040161133 87.1720199584961 25.367145538330078 L 85.9459228515625 22.359107971191406 L 72.76941680908203 51.68747329711914 C 71.6740951538086 54.13967514038086 70.59512329101562 56.591880798339844 69.49980926513672 59.04408264160156 C 68.71597290039062 61.0772590637207 67.42765045166016 62.87753677368164 65.75611114501953 64.27545166015625 C 63.83551788330078 65.59947204589844 61.80976867675781 66.76406860351562 59.69916534423828 67.75758361816406 L 52.68585968017578 71.46858215332031 L 36.50948715209961 79.99407958984375 L 39.50934982299805 82.30732727050781 L 53.91196060180664 40.79151153564453 C 54.20083999633789 39.70524597167969 53.569183349609375 38.587135314941406 52.48968505859375 38.2739143371582 L 12.84571647644043 28.023700714111328 L 13.336156845092773 31.75922393798828 L 16.67932891845703 29.928245544433594 C 18.99257469177246 28.66944694519043 16.932723999023438 25.138273239135742 14.619477272033691 26.40524673461914 L 11.268131256103516 28.236225128173828 C 10.297938346862793 28.838891983032227 10.0 30.11394691467285 10.602666854858398 31.084138870239258 C 10.867496490478516 31.51047134399414 11.278328895568848 31.825944900512695 11.75857162475586 31.97174835205078 L 51.40253829956055 42.25465774536133 L 49.97208786010742 39.737060546875 L 35.56947326660156 81.2120132446289 C 34.94824981689453 82.99394226074219 37.08984375 84.30178833007812 38.5693359375 83.51708221435547 L 53.12725830078125 75.80899047851562 L 60.48387145996094 71.90998077392578 C 62.65815734863281 70.7574462890625 64.9141845703125 69.69482421875 66.97403717041016 68.34611511230469 C 68.9920654296875 67.0646743774414 70.67378997802734 65.3184814453125 71.87844848632812 63.25370407104492 C 73.12906646728516 61.06306457519531 74.052734375 58.6517333984375 75.08265686035156 56.34666061401367 L 81.73631286621094 41.50265121459961 L 89.44439697265625 24.4353084564209 C 90.0 23.42194175720215 89.62890625 22.15004539489746 88.61553192138672 21.59444808959961 C 88.4892349243164 21.52519989013672 88.35610961914062 21.46917724609375 88.21829986572266 21.42727279663086 Q 73.55412292480469 16.62095069885254 58.51393127441406 12.934471130371094 Q 54.892845153808594 12.010807037353516 51.23088455200195 11.193406105041504 C 48.705116271972656 10.6375732421875 46.08943176269531 10.0 43.4819221496582 10.645747184753418 C 41.09510803222656 11.242449760437012 38.93716812133789 12.681076049804688 36.820098876953125 13.915352821350098 L 30.125581741333008 17.650876998901367 L 14.619477272033691 26.40524673461914 C 12.330753326416016 27.696741104125977 14.374256134033203 31.227914810180664 16.67932891845703 29.928245544433594" stroke-width="1.0" fill="rgb(180, 209, 40)" opacity="1.0"/>
  </g>
</svg>
