<?xml version="1.0" ?>
<svg xmlns="http://www.w3.org/2000/svg" version="1.1" width="100" height="100">
  <defs/>
  <g>
    <path d="M 22.867992401123047 47.563419342041016 C 21.71630859375 47.79222869873047 19.580303192138672 48.49271774291992 18.718080520629883 48.92449951171875 C 17.913162231445312 49.327491760253906 16.434799194335938 50.38264465332031 15.315919876098633 51.35277557373047 C 14.479537010192871 52.078033447265625 12.449701309204102 54.629886627197266 12.003326416015625 55.51728439331055 C 11.141239166259766 57.23115158081055 10.303250312805176 60.41949462890625 10.136964797973633 62.618160247802734 C 10.0 64.42816162109375 10.369657516479492 67.45611572265625 10.96236801147461 69.3793716430664 C 11.183011054992676 70.09539031982422 11.638087272644043 71.48284912109375 11.796741485595703 71.9231948852539 C 12.054471015930176 72.63867950439453 13.365209579467773 75.13417053222656 14.256752014160156 76.60663604736328 C 15.16128158569336 78.10066986083984 18.82733154296875 82.11173248291016 21.44626235961914 84.4728012084961 C 22.672386169433594 85.57830047607422 24.87921905517578 87.38695526123047 25.00185775756836 87.38695526123047 C 25.104145050048828 87.38695526123047 25.724838256835938 87.87403106689453 26.640480041503906 88.67266082763672 C 26.986841201782227 88.9748306274414 27.515287399291992 89.39710235595703 27.814788818359375 89.61105346679688 L 28.35916519165039 90.0 L 30.023897171020508 89.89958190917969 C 35.92087936401367 89.54411315917969 37.438201904296875 89.39817810058594 40.25715637207031 88.91592407226562 C 43.28042221069336 88.39872741699219 45.151611328125 87.89478302001953 47.2861442565918 87.02291870117188 C 48.87522888183594 86.37384033203125 50.74681091308594 85.4272689819336 51.302703857421875 84.99160766601562 C 51.56043243408203 84.7895736694336 51.864356994628906 84.58981323242188 51.978023529052734 84.54765319824219 C 53.08311462402344 84.13809204101562 57.28068542480469 80.16370391845703 58.12175750732422 78.7308578491211 C 58.37439727783203 78.30028533935547 58.79948043823242 77.61238861083984 59.06618118286133 77.2020263671875 C 59.33301544189453 76.79180145263672 59.63037872314453 76.24956512451172 59.7270393371582 75.99706268310547 C 59.823707580566406 75.74468231201172 59.98008728027344 75.35735321044922 60.074607849121094 75.13644409179688 C 61.070980072021484 72.80723571777344 61.549888610839844 69.4805908203125 61.22267150878906 67.16021728515625 C 60.6125602722168 62.83251190185547 58.288978576660156 59.00700759887695 54.86713409423828 56.6965446472168 C 54.21350860595703 56.2552604675293 53.33990478515625 55.74421691894531 52.92579650878906 55.56106185913086 C 50.23456954956055 54.37068557739258 45.67778015136719 54.34230422973633 42.734039306640625 55.497467041015625 C 41.775550842285156 55.87368392944336 39.13520050048828 57.389404296875 38.85926055908203 57.72183609008789 C 38.50379943847656 58.1501350402832 38.23107147216797 57.96885681152344 37.91644287109375 57.09539031982422 C 37.25170135498047 55.25004959106445 36.19882583618164 53.43898010253906 35.027191162109375 52.12569808959961 C 33.17997741699219 50.05475616455078 31.7089786529541 49.01178741455078 29.51687240600586 48.21825408935547 C 27.19757652282715 47.37865447998047 24.924606323242188 47.15480041503906 22.867992401123047 47.563419342041016" stroke-width="1.0" fill="rgb(81, 55, 54)" opacity="1.0"/>
    <path d="M 43.47040939331055 10.135492324829102 C 42.33840560913086 10.324671745300293 41.158206939697266 10.64559555053711 40.64971160888672 10.902521133422852 C 40.50739288330078 10.974417686462402 39.80663299560547 11.320511817932129 39.09222412109375 11.671692848205566 C 38.05072784423828 12.183804512023926 37.540626525878906 12.547571182250977 36.51680374145508 13.508466720581055 C 34.28211975097656 15.605781555175781 33.26807403564453 17.030990600585938 32.24304962158203 19.515100479125977 C 31.44776725769043 21.442649841308594 31.29313087463379 22.34222412109375 31.289783477783203 25.063310623168945 C 31.286571502685547 27.665372848510742 31.385244369506836 28.360641479492188 32.05922317504883 30.485668182373047 C 33.16056442260742 33.95878982543945 35.06816101074219 37.08835983276367 37.718421936035156 39.77062225341797 C 41.376976013183594 43.47335433959961 46.57561492919922 46.40129470825195 54.75159454345703 49.36390686035156 C 55.94892883300781 49.797698974609375 56.982791900634766 50.186100006103516 57.048797607421875 50.22706985473633 C 57.11493682861328 50.267906188964844 57.73188018798828 50.084747314453125 58.41978454589844 49.8200569152832 C 59.10768508911133 49.555233001708984 60.00190734863281 49.22962188720703 60.40690994262695 49.09640884399414 C 60.811912536621094 48.963191986083984 61.32402801513672 48.75821304321289 61.54493713378906 48.64106369018555 C 61.765846252441406 48.5239143371582 62.019561767578125 48.427650451660156 62.108863830566406 48.42711639404297 C 62.198028564453125 48.42671203613281 62.710140228271484 48.22360610961914 63.24688720703125 47.97578811645508 C 63.78350067138672 47.727962493896484 64.43351745605469 47.44894790649414 64.69123840332031 47.35576248168945 C 65.30256652832031 47.13471603393555 68.52464294433594 45.55527114868164 69.04251861572266 45.22269821166992 C 69.263427734375 45.08091735839844 69.53482055664062 44.960418701171875 69.64567565917969 44.95506286621094 C 69.89122009277344 44.94314956665039 73.3358154296875 42.708736419677734 74.26404571533203 41.95924377441406 C 75.12720489501953 41.262237548828125 78.07978057861328 38.357994079589844 78.07978057861328 38.205902099609375 C 78.07978057861328 38.14190673828125 78.34674835205078 37.792598724365234 78.67315673828125 37.42963409423828 C 79.29398345947266 36.739051818847656 80.91654205322266 34.11168670654297 81.4318618774414 32.962547302246094 C 81.90153503417969 31.915029525756836 82.6255874633789 29.731626510620117 82.82574462890625 28.759082794189453 C 83.38846588134766 26.025814056396484 83.36583709716797 23.731687545776367 82.75263977050781 21.33005142211914 C 82.41244506835938 19.997356414794922 82.00422668457031 18.97634506225586 81.19435119628906 17.431842803955078 C 80.38113403320312 15.881049156188965 78.3238525390625 13.555862426757812 77.3223876953125 13.055665969848633 C 77.00950622558594 12.899421691894531 76.55817413330078 12.570064544677734 76.31932830810547 12.323580741882324 C 76.0804672241211 12.077232360839844 75.75125122070312 11.875600814819336 75.58777618408203 11.875600814819336 C 75.4242935180664 11.875600814819336 75.27046203613281 11.8294095993042 75.24583435058594 11.77304458618164 C 75.18344116210938 11.629652976989746 73.29164123535156 10.715082168579102 72.724365234375 10.554018020629883 C 72.46664428710938 10.480916023254395 71.98853302001953 10.343416213989258 71.6619873046875 10.248491287231445 C 70.85533142089844 10.014058113098145 67.1788330078125 10.00388240814209 66.94721221923828 10.235504150390625 C 66.85523223876953 10.327483177185059 66.5884017944336 10.402860641479492 66.3543701171875 10.402860641479492 C 65.9529800415039 10.402860641479492 65.18099975585938 10.648808479309082 64.65616607666016 10.943891525268555 C 64.52642822265625 11.01685905456543 64.13481140136719 11.17189884185791 63.785911560058594 11.288378715515137 C 63.43700408935547 11.40485954284668 62.99759292602539 11.644915580749512 62.809486389160156 11.821778297424316 C 62.621376037597656 11.998641014099121 62.404747009277344 12.14337158203125 62.32816696166992 12.14337158203125 C 62.2515869140625 12.14337158203125 62.07980728149414 12.26386833190918 61.94659423828125 12.411142349243164 C 61.813377380371094 12.558416366577148 61.65633010864258 12.678913116455078 61.59782028198242 12.678913116455078 C 61.189334869384766 12.678913116455078 58.268898010253906 15.396919250488281 57.59920120239258 16.400390625 C 57.31670379638672 16.8237361907959 57.04076385498047 16.764558792114258 56.658119201660156 16.198625564575195 C 56.22285842895508 15.555038452148438 53.32732009887695 12.678913116455078 53.114444732666016 12.678913116455078 C 53.02446746826172 12.678913116455078 52.84171676635742 12.558416366577148 52.708499908447266 12.411142349243164 C 52.575286865234375 12.26386833190918 52.366424560546875 12.14337158203125 52.24445343017578 12.14337158203125 C 52.12248229980469 12.14337158203125 51.89327621459961 12.02287483215332 51.73515701293945 11.875600814819336 C 51.57716751098633 11.728326797485352 51.354923248291016 11.607830047607422 51.24138641357422 11.607830047607422 C 51.12784957885742 11.607830047607422 51.034934997558594 11.557086944580078 51.034934997558594 11.495098114013672 C 51.034934997558594 11.433109283447266 50.77894592285156 11.306453704833984 50.46592330932617 11.213537216186523 C 50.15303039550781 11.120620727539062 49.836124420166016 10.995304107666016 49.7619514465332 10.93505573272705 C 49.5173454284668 10.736503601074219 48.43166732788086 10.406744003295898 48.01581954956055 10.404869079589844 C 47.79129409790039 10.40379810333252 47.550296783447266 10.347700119018555 47.48027801513672 10.280356407165527 C 47.3024787902832 10.109116554260254 44.281620025634766 10.0 43.47040939331055 10.135492324829102" stroke-width="1.0" fill="rgb(81, 55, 54)" opacity="1.0"/>
    <path d="M 43.537349700927734 11.426414489746094 C 38.435245513916016 12.440061569213867 34.64214324951172 16.002216339111328 33.0079345703125 21.31451988220215 C 32.65675354003906 22.45642852783203 32.6373405456543 22.656185150146484 32.63800811767578 25.130252838134766 C 32.63881301879883 27.520240783691406 32.66813659667969 27.848663330078125 32.98530960083008 29.012929916381836 C 34.80548095703125 35.69622039794922 39.340850830078125 40.78520202636719 46.880470275878906 44.604148864746094 C 48.90736389160156 45.63078308105469 52.84546661376953 47.29444122314453 55.62010955810547 48.29630661010742 L 57.1929931640625 48.864112854003906 L 58.230873107910156 48.49231719970703 C 69.29462432861328 44.528907775878906 74.90228271484375 40.917213439941406 78.5744857788086 35.38975524902344 C 81.04346466064453 31.67336654663086 82.28271484375 27.188474655151367 81.8412857055664 23.566606521606445 C 81.09381103515625 17.433181762695312 76.63917541503906 12.437250137329102 71.04999542236328 11.463902473449707 C 69.83284759521484 11.251962661743164 67.42117309570312 11.378483772277832 66.29786682128906 11.71333122253418 C 63.351051330566406 12.591351509094238 61.22642517089844 13.977065086364746 59.42646789550781 16.19474220275879 C 58.97152328491211 16.75505256652832 58.44923782348633 17.503740310668945 58.265682220458984 17.85826873779297 C 57.790252685546875 18.77645492553711 57.602012634277344 18.971527099609375 57.19098663330078 18.971527099609375 C 56.8802375793457 18.971527099609375 56.74045944213867 18.82264518737793 56.21710205078125 17.933914184570312 C 54.82522964477539 15.57003402709961 53.068519592285156 13.918155670166016 50.70022201538086 12.746391296386719 C 48.65391540527344 11.733816146850586 47.59983444213867 11.459484100341797 45.54563522338867 11.40459156036377 C 44.62517166137695 11.37995719909668 43.72144317626953 11.389730453491211 43.537349700927734 11.426414489746094" stroke-width="1.0" fill="rgb(233, 78, 92)" opacity="1.0"/>
    <path d="M 23.521486282348633 48.78097152709961 C 21.59634780883789 49.09239196777344 19.6551456451416 49.83384704589844 18.08413314819336 50.85780334472656 C 14.635246276855469 53.10600662231445 12.551453590393066 56.33251190185547 11.731941223144531 60.693695068359375 C 11.555480003356934 61.6331672668457 11.522811889648438 62.38600158691406 11.57569694519043 64.29173278808594 C 11.63460636138916 66.40885925292969 11.693114280700684 66.90088653564453 12.057282447814941 68.34149169921875 C 13.100919723510742 72.4698486328125 14.982276916503906 75.88191986083984 18.241180419921875 79.55667114257812 C 20.316673278808594 81.89710998535156 22.629541397094727 83.935791015625 27.872760772705078 88.04633331298828 L 28.609130859375 88.62364959716797 L 30.684354782104492 88.53501892089844 C 42.851722717285156 88.01581573486328 49.503150939941406 85.84204864501953 54.661354064941406 80.69910430908203 C 58.03097915649414 77.33939361572266 59.77269744873047 73.750732421875 59.96803283691406 69.76469421386719 C 60.21920394897461 64.64129638671875 57.61379623413086 59.63666534423828 53.51141357421875 57.36275863647461 C 51.50366973876953 56.249900817871094 49.592586517333984 55.833251953125 47.095760345458984 55.964054107666016 C 44.01344680786133 56.125526428222656 41.35060119628906 57.22927474975586 39.04857635498047 59.29967498779297 C 37.59377670288086 60.60813903808594 37.355995178222656 60.5157585144043 36.90520477294922 58.46771240234375 C 36.65778350830078 57.343746185302734 35.791412353515625 55.399330139160156 35.01420593261719 54.22381591796875 C 33.40021896362305 51.78281784057617 30.816097259521484 49.8963737487793 27.98335075378418 49.0913200378418 C 27.011341094970703 48.81511306762695 24.423471450805664 48.63503646850586 23.521486282348633 48.78097152709961" stroke-width="1.0" fill="rgb(233, 78, 92)" opacity="1.0"/>
    <path d="M 46.44935989379883 61.373695373535156 C 45.93979263305664 61.94230651855469 46.323509216308594 62.68095397949219 47.067108154296875 62.5627326965332 C 47.77804183959961 62.44960021972656 49.31865692138672 62.739463806152344 50.20323944091797 63.152767181396484 C 51.220367431640625 63.62792205810547 52.46134948730469 64.77505493164062 52.970787048339844 65.71104431152344 C 54.21136474609375 67.99058532714844 53.84746170043945 70.75732421875 52.0390739440918 72.79344940185547 C 51.413291931152344 73.49795532226562 51.34193420410156 73.7053451538086 51.57516098022461 74.14114379882812 C 51.84614562988281 74.6473617553711 52.41462326049805 74.47250366210938 53.16398239135742 73.652587890625 C 55.77675247192383 70.79373931884766 55.71208572387695 66.11833190917969 53.022727966308594 63.445438385009766 C 51.58828353881836 62.019691467285156 49.98701477050781 61.315189361572266 47.88862609863281 61.186256408691406 C 46.808441162109375 61.1199836730957 46.659427642822266 61.13939666748047 46.44935989379883 61.373695373535156" stroke-width="1.0" fill="rgb(81, 55, 54)" opacity="1.0"/>
    <path d="M 67.90449523925781 14.746906280517578 C 66.34486389160156 15.18591594696045 65.93089294433594 15.583555221557617 66.35678100585938 16.233436584472656 C 66.6005859375 16.60550308227539 66.94721221923828 16.64807891845703 67.481689453125 16.37173843383789 C 68.69374084472656 15.744888305664062 70.56063842773438 15.846372604370117 72.13915252685547 16.625049591064453 C 73.27610778808594 17.185762405395508 73.9361572265625 17.87071990966797 74.51334381103516 19.088943481445312 C 74.90535736083984 19.91635513305664 74.93334197998047 20.074207305908203 74.93240356445312 21.448406219482422 C 74.93146514892578 22.753787994384766 74.89076232910156 23.012454986572266 74.57345581054688 23.724456787109375 C 74.2669906616211 24.412494659423828 74.24048614501953 24.566194534301758 74.38883209228516 24.79553985595703 C 74.58885192871094 25.104413986206055 75.19990539550781 25.219688415527344 75.4662094116211 24.99864387512207 C 75.56622314453125 24.915769577026367 75.81858825683594 24.384109497070312 76.02718353271484 23.817508697509766 C 76.35212707519531 22.934398651123047 76.40528106689453 22.596071243286133 76.3999252319336 21.448406219482422 C 76.3842544555664 18.068470001220703 74.454833984375 15.5905179977417 71.1900405883789 14.757081985473633 C 70.24266052246094 14.51515007019043 68.74395751953125 14.510464668273926 67.90449523925781 14.746906280517578" stroke-width="1.0" fill="rgb(81, 55, 54)" opacity="1.0"/>
  </g>
</svg>
