<?xml version="1.0" ?>
<svg xmlns="http://www.w3.org/2000/svg" version="1.1" width="100" height="100">
  <defs/>
  <g>
    <path d="M 81.02146911621094 26.429513931274414 C 77.6634292602539 26.721012115478516 73.85090637207031 27.680450439453125 70.8110580444336 28.998905181884766 C 60.7857780456543 33.34705352783203 52.68083572387695 43.67036056518555 50.41020584106445 54.98323440551758 C 49.82412338256836 57.90275192260742 49.82212448120117 62.88108444213867 50.406028747558594 65.05679321289062 C 51.35512161254883 68.59288024902344 53.299224853515625 71.1949462890625 55.98151397705078 72.51939392089844 C 57.26548385620117 73.15357208251953 57.549720764160156 73.22454071044922 58.80447006225586 73.22454071044922 C 60.108768463134766 73.22454071044922 60.310237884521484 73.16845703125 61.90131378173828 72.36275482177734 C 64.5567398071289 71.01797485351562 67.20562744140625 68.9097900390625 70.95516967773438 65.1573486328125 C 74.53173828125 61.578060150146484 76.25949096679688 59.5962028503418 79.1125717163086 55.800010681152344 C 84.7034912109375 48.36082458496094 88.56773376464844 40.982627868652344 89.66439819335938 35.65290069580078 C 90.0 34.021888732910156 89.95716094970703 31.477365493774414 89.57527923583984 30.349308013916016 C 89.134765625 29.048276901245117 87.93010711669922 27.752689361572266 86.61183166503906 27.161890029907227 C 85.65130615234375 26.731359481811523 83.06812286376953 26.25690269470215 82.11521911621094 26.335857391357422 C 81.91301727294922 26.352737426757812 81.42078399658203 26.394845962524414 81.02146911621094 26.429513931274414" stroke-width="1.0" fill="rgb(94, 176, 130)" opacity="1.0"/>
    <path d="M 17.313037872314453 10.183320999145508 C 16.442537307739258 10.508578300476074 15.299415588378906 11.361654281616211 14.618226051330566 12.194219589233398 C 12.492071151733398 14.792470932006836 10.635087966918945 20.36832046508789 10.354843139648438 24.994169235229492 C 10.0 30.8557071685791 11.119707107543945 36.10157775878906 13.887847900390625 41.5471076965332 C 15.554431915283203 44.825279235839844 17.126995086669922 47.04962921142578 19.580223083496094 49.597965240478516 C 21.99152374267578 52.10292434692383 24.039087295532227 53.65443420410156 26.5698184967041 54.89429473876953 C 28.817583084106445 55.99549102783203 30.202651977539062 56.39988327026367 32.24585723876953 56.551082611083984 C 35.175537109375 56.767982482910156 38.4716796875 55.36784362792969 39.672340393066406 53.39651107788086 C 41.88706970214844 49.760231018066406 38.945228576660156 37.145782470703125 33.19331741333008 25.614917755126953 C 30.242219924926758 19.698745727539062 27.99863052368164 16.35723114013672 24.92737579345703 13.30394458770752 C 22.625160217285156 11.014978408813477 20.98072052001953 10.09656047821045 19.05567169189453 10.024503707885742 C 18.396625518798828 10.0 17.61252212524414 10.071331977844238 17.313037872314453 10.183320999145508" stroke-width="1.0" fill="rgb(94, 176, 130)" opacity="1.0"/>
  </g>
</svg>
