<?xml version="1.0" ?>
<svg xmlns="http://www.w3.org/2000/svg" version="1.1" width="100" height="100">
  <defs/>
  <g>
    <path d="M 49.41596603393555 12.850052833557129 C 48.214508056640625 18.728004455566406 46.212608337402344 23.74852752685547 44.48582458496094 25.213180541992188 C 43.16085433959961 26.336978912353516 39.13160705566406 28.11438751220703 35.61363220214844 29.126867294311523 C 33.82085418701172 29.642913818359375 32.155029296875 30.070966720581055 31.911453247070312 30.078123092651367 C 31.668140411376953 30.085277557373047 32.542266845703125 30.37047004699707 33.854248046875 30.711851119995117 C 38.741722106933594 31.9832820892334 42.53825759887695 33.560577392578125 44.349853515625 35.072669982910156 C 46.19988250732422 36.616573333740234 48.153018951416016 41.44202423095703 49.45705032348633 47.690773010253906 L 50.06559753417969 50.606292724609375 L 50.41175079345703 48.75096130371094 C 51.06562042236328 45.247833251953125 52.561546325683594 40.267333984375 53.61325454711914 38.09288787841797 C 54.42032241821289 36.42388153076172 54.95121383666992 35.698448181152344 55.8900146484375 34.98176193237305 C 57.98759460449219 33.38008117675781 61.325862884521484 32.01270294189453 66.27349853515625 30.72907829284668 L 68.47710418701172 30.157106399536133 L 66.93611907958984 29.817317962646484 C 62.994869232177734 28.948226928710938 58.29319381713867 27.081497192382812 56.10284423828125 25.516128540039062 C 54.039188385009766 24.041404724121094 52.26628494262695 19.989099502563477 50.82151412963867 13.444289207458496 C 50.44196701049805 11.725457191467285 50.10588455200195 10.226350784301758 50.074344635009766 10.113175392150879 C 50.043067932128906 10.0 49.74674606323242 11.231409072875977 49.41596603393555 12.850052833557129" stroke-width="1.0" fill="rgb(246, 111, 108)" opacity="1.0"/>
    <path d="M 24.58316421508789 58.49144744873047 C 24.52246856689453 58.67380142211914 24.120655059814453 60.19437789916992 23.69048309326172 61.87080001831055 C 22.213642120361328 67.62550354003906 21.092226028442383 69.31279754638672 17.678417205810547 70.91474151611328 C 16.50770378112793 71.46392059326172 14.301186561584473 72.26409912109375 12.775044441223145 72.69241333007812 L 10.0 73.47138977050781 L 11.192712783813477 73.77830505371094 C 15.857809066772461 74.97871398925781 19.815757751464844 76.76937103271484 20.875682830810547 78.15901947021484 C 22.187667846679688 79.8791732788086 23.74799919128418 84.2474136352539 24.49092674255371 88.27931213378906 L 24.808189392089844 90.0 L 25.419387817382812 87.27371978759766 C 26.82042694091797 81.02709197998047 28.211395263671875 78.16749572753906 30.520219802856445 76.78792572021484 C 32.248329162597656 75.75529479980469 34.68437957763672 74.80987548828125 37.632232666015625 74.02745819091797 L 39.819671630859375 73.44700622558594 L 37.393959045410156 72.81857299804688 C 32.639801025390625 71.58716583251953 29.585662841796875 69.97488403320312 28.285606384277344 68.0106201171875 C 27.48065948486328 66.79379272460938 26.283971786499023 63.37467575073242 25.60386085510254 60.346778869628906 C 25.14055633544922 58.28470993041992 24.836284637451172 57.7315559387207 24.58316421508789 58.49144744873047" stroke-width="1.0" fill="rgb(246, 111, 108)" opacity="1.0"/>
  </g>
</svg>
