<?xml version="1.0" ?>
<svg xmlns="http://www.w3.org/2000/svg" version="1.1" width="100" height="100">
  <defs/>
  <g>
    <path d="M 38.638938903808594 10.526719093322754 C 37.37396240234375 11.131562232971191 35.9943733215332 12.597108840942383 35.618751525878906 13.735386848449707 C 35.48242950439453 14.148390769958496 35.28857421875 14.486404418945312 35.187843322753906 14.486404418945312 C 35.08710861206055 14.486404418945312 34.69380187988281 14.002216339111328 34.31393051147461 13.41013240814209 C 33.93428039550781 12.818273544311523 33.39480209350586 12.119860649108887 33.11543655395508 11.858180046081543 C 32.24779510498047 11.04493236541748 30.237619400024414 10.2377290725708 29.074718475341797 10.235490798950195 C 27.725574493408203 10.232580184936523 25.55154037475586 10.956511497497559 24.278728485107422 11.831989288330078 C 22.429054260253906 13.104801177978516 21.192283630371094 15.697210311889648 21.334203720092773 18.004657745361328 C 21.366214752197266 18.523988723754883 21.342708587646484 18.998327255249023 21.282047271728516 19.058990478515625 C 21.221607208251953 19.11965560913086 20.521404266357422 18.963184356689453 19.726512908935547 18.71157455444336 C 18.008237838745117 18.167619705200195 16.435243606567383 18.23813247680664 14.569900512695312 18.942813873291016 C 12.970043182373047 19.547208786010742 11.767520904541016 20.591468811035156 10.782132148742676 22.231618881225586 C 10.042083740234375 23.46368980407715 10.0 23.641651153564453 10.021265983581543 25.44677734375 C 10.051485061645508 27.99956512451172 11.728570938110352 34.613441467285156 13.194340705871582 37.96044921875 C 14.909704208374023 41.877601623535156 17.29124641418457 45.0130729675293 20.227264404296875 47.22023391723633 C 23.838863372802734 49.9353141784668 27.507768630981445 51.18842315673828 31.862546920776367 51.1944694519043 L 34.25170135498047 51.19782638549805 L 34.48562240600586 51.92533874511719 C 34.61433410644531 52.325584411621094 34.91228103637695 53.50907897949219 35.14777374267578 54.555580139160156 C 35.383262634277344 55.602081298828125 36.03041076660156 58.221126556396484 36.58600997924805 60.37568283081055 C 37.895755767822266 65.45529174804688 38.83122253417969 69.56047058105469 38.70721435546875 69.68426513671875 C 38.65326690673828 69.73821258544922 37.98731231689453 69.08255004882812 37.227115631103516 68.22744750976562 C 34.90220642089844 65.61131286621094 32.12937927246094 63.89482879638672 28.92742347717285 63.08941650390625 C 24.066967010498047 61.86674880981445 18.549060821533203 63.292449951171875 15.414710998535156 66.580810546875 C 13.496763229370117 68.59300231933594 13.397149085998535 68.77946472167969 13.564141273498535 70.03861999511719 C 14.39484977722168 76.30127716064453 20.49431800842285 81.00772094726562 27.794742584228516 81.01958465576172 C 31.436113357543945 81.02540588378906 34.51338195800781 80.21976470947266 38.2501106262207 78.28234100341797 C 39.44099426269531 77.66496276855469 40.48570251464844 77.23629760742188 40.57210922241211 77.33008575439453 C 40.725669860839844 77.49685668945312 42.4260368347168 84.5219497680664 43.15019226074219 87.98221588134766 C 43.37896728515625 89.0759506225586 43.64377975463867 89.78286743164062 43.85464859008789 89.86390686035156 C 44.209449768066406 90.00000762939453 48.58840560913086 88.86061096191406 49.989707946777344 88.26763153076172 C 50.957637786865234 87.85798645019531 51.11478042602539 88.87381744384766 48.724056243896484 80.07449340820312 C 46.34229278564453 71.30828857421875 45.975624084472656 69.91505432128906 45.88944625854492 69.30192565917969 C 45.814903259277344 68.77140808105469 45.819602966308594 68.7702865600586 47.82933044433594 68.8434829711914 C 51.28132247924805 68.96928405761719 54.57841110229492 67.97360229492188 57.840354919433594 65.8201675415039 C 59.905147552490234 64.45691680908203 61.320106506347656 62.7869987487793 62.69745635986328 60.08781433105469 C 63.69202423095703 58.138973236083984 63.95952224731445 57.32818603515625 64.50862884521484 54.59743881225586 C 64.86297607421875 52.83529281616211 65.10160827636719 51.259830474853516 65.03892517089844 51.0964241027832 C 64.97624969482422 50.93323516845703 64.35215759277344 50.59365463256836 63.65217590332031 50.34182357788086 C 61.0550651550293 49.40769958496094 59.497291564941406 49.11244201660156 57.119110107421875 49.103485107421875 C 54.51237487792969 49.0936393737793 52.51406478881836 49.57177734375 50.12894058227539 50.77587127685547 C 47.632118225097656 52.0361442565918 45.21946334838867 54.98984909057617 44.02455139160156 58.249107360839844 C 43.52178192138672 59.62041473388672 43.32120895385742 59.87336349487305 43.16384506225586 59.33500289916992 C 42.555870056152344 57.255210876464844 41.369014739990234 52.911399841308594 40.92736053466797 51.14947509765625 L 40.38206100463867 48.97477340698242 L 42.09093475341797 47.69479751586914 C 46.34632110595703 44.507843017578125 49.04349136352539 40.53271484375 50.43584060668945 35.39579772949219 C 50.826908111572266 33.953529357910156 50.919578552246094 32.961875915527344 50.93547439575195 30.043989181518555 C 50.95785903930664 25.990062713623047 50.71632385253906 24.456466674804688 49.249210357666016 19.341938018798828 C 47.3536491394043 12.734329223632812 45.27363204956055 10.297720909118652 41.337677001953125 10.074317932128906 C 40.02524185180664 10.0 39.586944580078125 10.0734224319458 38.638938903808594 10.526719093322754" stroke-width="1.0" fill="rgb(81, 55, 54)" opacity="1.0"/>
    <path d="M 39.32302474975586 11.553967475891113 C 37.43149185180664 12.431684494018555 36.40424346923828 14.153762817382812 36.146141052246094 16.88092803955078 C 36.058170318603516 17.809682846069336 35.90460968017578 18.310211181640625 35.68187713623047 18.395723342895508 C 35.18022918701172 18.588010787963867 34.805503845214844 18.15665054321289 34.65462875366211 17.213123321533203 C 34.44129943847656 15.879423141479492 33.24638748168945 13.721060752868652 32.17414855957031 12.732762336730957 C 30.50176239013672 11.191106796264648 28.46920394897461 11.00262451171875 26.115867614746094 12.1708984375 C 22.651336669921875 13.890962600708008 21.581558227539062 17.26595115661621 23.343706130981445 20.916946411132812 C 23.819164276123047 21.902111053466797 23.837520599365234 22.558441162109375 23.393625259399414 22.706405639648438 C 23.250808715820312 22.753860473632812 22.998977661132812 22.621118545532227 22.833999633789062 22.411148071289062 C 21.8497314453125 21.15781021118164 20.771892547607422 20.314788818359375 19.697635650634766 19.95797348022461 C 16.503070831298828 18.896923065185547 13.453559875488281 20.056018829345703 11.714468002319336 22.99271011352539 C 10.892714500427246 24.380355834960938 10.956511497497559 26.011327743530273 11.994952201843262 30.155914306640625 C 13.090475082397461 34.52882385253906 13.556306838989258 35.91691970825195 14.813224792480469 38.551185607910156 C 17.476369857788086 44.13289260864258 21.980236053466797 48.01288986206055 27.570892333984375 49.54111099243164 C 29.80916976928711 50.15311813354492 33.70013427734375 50.10432052612305 35.84372329711914 49.437469482421875 C 39.94868469238281 48.16062927246094 43.314273834228516 45.7567024230957 45.91496276855469 42.24382400512695 C 49.490745544433594 37.41380310058594 50.70535659790039 30.836641311645508 49.26308822631836 24.11195945739746 C 48.63653564453125 21.190044403076172 47.32902526855469 17.043668746948242 46.45712661743164 15.213022232055664 C 45.64298629760742 13.503926277160645 45.28504943847656 13.006754875183105 44.41136169433594 12.372139930725098 C 42.6845817565918 11.117460250854492 40.886619567871094 10.828469276428223 39.32302474975586 11.553967475891113" stroke-width="1.0" fill="rgb(254, 217, 102)" opacity="1.0"/>
    <path d="M 22.153718948364258 64.30403137207031 C 19.923500061035156 64.8448486328125 17.964139938354492 65.94552612304688 16.292875289916992 67.59663391113281 L 14.752338409423828 69.11859130859375 L 14.892692565917969 70.17561340332031 C 15.076025009155273 71.55363464355469 16.350404739379883 74.1290283203125 17.489578247070312 75.42333221435547 C 20.204654693603516 78.50753784179688 25.342239379882812 80.24887084960938 29.9273624420166 79.63865661621094 C 30.97722053527832 79.49897003173828 32.513282775878906 79.17729949951172 33.34107971191406 78.92412567138672 C 35.01502990722656 78.41172790527344 38.57782745361328 76.74292755126953 39.41973114013672 76.07675170898438 L 39.96413040161133 75.64606475830078 L 39.307804107666016 75.06382751464844 C 37.40686798095703 73.3775634765625 34.21006393432617 72.49604797363281 29.30998420715332 72.306884765625 C 26.116762161254883 72.18354797363281 25.775840759277344 72.13139343261719 25.653839111328125 71.74681854248047 C 25.57974624633789 71.51356506347656 25.651824951171875 71.16301727294922 25.813892364501953 70.96781921386719 C 26.068410873413086 70.66114807128906 26.58371353149414 70.62958526611328 29.58196258544922 70.73612976074219 C 33.169158935546875 70.8635025024414 35.423553466796875 71.28389739990234 37.53938674926758 72.21981811523438 C 38.089385986328125 72.463134765625 38.53955078125 72.58447265625 38.53955078125 72.48932647705078 C 38.53955078125 72.01454162597656 36.913726806640625 69.91706848144531 35.30693054199219 68.31900024414062 C 31.625041961669922 64.65726470947266 26.787193298339844 63.18052291870117 22.153718948364258 64.30403137207031" stroke-width="1.0" fill="rgb(92, 193, 153)" opacity="1.0"/>
    <path d="M 54.43962478637695 50.64536666870117 C 53.450653076171875 50.82421875 52.09971618652344 51.28691864013672 51.132240295410156 51.778045654296875 C 47.07987976074219 53.834781646728516 44.19825744628906 59.090110778808594 44.666324615478516 63.569129943847656 C 44.88883590698242 65.69749450683594 45.058738708496094 65.75904846191406 46.04658508300781 64.06965637207031 C 47.294551849365234 61.935916900634766 49.834129333496094 59.596683502197266 52.20470428466797 58.397518157958984 C 53.25680160522461 57.865203857421875 54.46559143066406 57.41257858276367 54.890907287597656 57.391761779785156 C 55.60095977783203 57.356842041015625 55.664085388183594 57.40586471557617 55.664085388183594 57.9927978515625 C 55.664085388183594 58.570556640625 55.53156661987305 58.68158721923828 54.27778244018555 59.15279006958008 C 51.32676315307617 60.26219177246094 48.39857864379883 62.846763610839844 46.932586669921875 65.63616180419922 L 46.10881805419922 67.20310974121094 L 47.19292449951172 67.40725708007812 C 48.556396484375 67.66423797607422 51.60053253173828 67.30406188964844 53.3924560546875 66.67414855957031 C 56.69043731689453 65.51461029052734 60.003196716308594 62.63768768310547 61.47053146362305 59.65846633911133 C 62.233638763427734 58.10897445678711 63.61076354980469 53.30963134765625 63.61076354980469 52.19955825805664 C 63.61076354980469 51.76349639892578 63.3902702331543 51.60859298706055 62.211700439453125 51.21662902832031 C 60.821144104003906 50.75415802001953 58.067115783691406 50.30421829223633 56.7833366394043 50.32951354980469 C 56.41398239135742 50.3369026184082 55.35942459106445 50.47904586791992 54.43962478637695 50.64536666870117" stroke-width="1.0" fill="rgb(92, 193, 153)" opacity="1.0"/>
    <path d="M 37.196449279785156 50.4338264465332 C 36.371337890625 50.72662353515625 35.75127410888672 51.076499938964844 35.76425552368164 51.24192810058594 C 35.777015686035156 51.402427673339844 36.70465087890625 55.21034240722656 37.82591247558594 59.704132080078125 C 39.853546142578125 67.83145904541016 41.236270904541016 73.59425354003906 43.46514892578125 83.20838928222656 C 44.10737228393555 85.9785385131836 44.660953521728516 88.27590942382812 44.69542694091797 88.31352233886719 C 44.75094223022461 88.37440490722656 45.7593879699707 88.13936614990234 48.4272346496582 87.44408416748047 L 49.24876403808594 87.23008728027344 L 48.51408767700195 84.49172973632812 C 47.76306915283203 81.69293212890625 47.219337463378906 79.68521118164062 45.135292053222656 72.01588439941406 C 44.48277282714844 69.61509704589844 43.330387115478516 65.3339614868164 42.57444763183594 62.50225830078125 C 39.889366149902344 52.44623947143555 39.1334228515625 49.85517501831055 38.89390182495117 49.88606643676758 C 38.76071548461914 49.903526306152344 37.99671173095703 50.149986267089844 37.196449279785156 50.4338264465332" stroke-width="1.0" fill="rgb(92, 193, 153)" opacity="1.0"/>
    <path d="M 49.39628219604492 62.26699447631836 L 48.50088119506836 63.18701934814453 L 49.39628219604492 62.26699447631836 L 50.29167938232422 61.346744537353516 L 49.39628219604492 62.26699447631836" stroke-width="1.0" fill="rgb(93, 151, 124)" opacity="1.0"/>
  </g>
</svg>
