<?xml version="1.0" ?>
<svg xmlns="http://www.w3.org/2000/svg" version="1.1" width="100" height="100">
  <defs/>
  <g>
    <path d="M 55.49216842651367 10.950542449951172 C 48.81629180908203 14.491637229919434 43.3213996887207 16.049232482910156 37.45471954345703 16.063383102416992 C 35.228492736816406 16.06867027282715 34.58909606933594 16.26459503173828 33.77678680419922 17.18963623046875 C 33.125885009765625 17.93103790283203 32.89823913574219 18.68985366821289 32.97334289550781 19.8680419921875 C 33.047203063964844 21.02959442138672 33.54618835449219 21.90129852294922 34.49688720703125 22.530433654785156 C 35.40995788574219 23.134689331054688 37.18617630004883 23.302001953125 40.282554626464844 23.0754451751709 C 41.631011962890625 22.97670555114746 42.840919494628906 22.8551082611084 42.97122573852539 22.805194854736328 C 43.285789489746094 22.684375762939453 43.2851676940918 23.645179748535156 42.96858215332031 26.80282211303711 C 41.72259521484375 39.22720718383789 38.461238861083984 50.09041976928711 31.565021514892578 64.78721618652344 L 30.77277374267578 66.47573852539062 L 31.54076385498047 67.16629028320312 C 33.005218505859375 68.48287963867188 34.411048889160156 70.67987060546875 35.0610237121582 72.66694641113281 L 35.33609390258789 73.50770568847656 L 36.25507354736328 71.56852722167969 C 41.654178619384766 60.17584991455078 44.40147018432617 53.308555603027344 46.54823684692383 45.83855438232422 C 47.08889389038086 43.957061767578125 47.7559700012207 41.368064880371094 48.0302619934082 40.085227966308594 C 48.60777282714844 37.385986328125 48.63203048706055 37.29377746582031 48.73497009277344 37.396873474121094 C 48.86014175415039 37.52204895019531 49.69375228881836 41.45436477661133 50.112342834472656 43.89486312866211 C 51.36563491821289 51.19941711425781 51.64272689819336 59.010414123535156 50.8350830078125 64.26475524902344 C 50.762779235839844 64.73512268066406 50.71846389770508 65.13614654541016 50.736656188964844 65.15589904785156 C 50.75469207763672 65.17564392089844 51.25492477416992 64.9888916015625 51.84798049926758 64.74072265625 C 53.29875564575195 64.13397979736328 55.032527923583984 63.79826736450195 56.71467208862305 63.79826736450195 L 58.105735778808594 63.79826736450195 L 58.23603820800781 62.12668991088867 C 58.44487380981445 59.44844055175781 58.355770111083984 52.81081008911133 58.07277297973633 49.95918273925781 C 57.269325256347656 41.86285400390625 55.48221969604492 33.698726654052734 52.31524658203125 23.65528678894043 C 51.838966369628906 22.144805908203125 51.44929122924805 20.848907470703125 51.44929122924805 20.775358200073242 C 51.44929122924805 20.70196533203125 52.271549224853516 20.299854278564453 53.276363372802734 19.881725311279297 C 54.28133010864258 19.463754653930664 56.268558502197266 18.53591537475586 57.69242858886719 17.82001495361328 C 59.66939926147461 16.826087951660156 60.42992401123047 16.357425689697266 60.90916061401367 15.837449073791504 C 62.435970306396484 14.180957794189453 62.049095153808594 11.575323104858398 60.11100387573242 10.463997840881348 C 59.439571380615234 10.078836441040039 59.12982940673828 10.0 58.29108428955078 10.000932693481445 C 57.354068756103516 10.002021789550781 57.15005874633789 10.071216583251953 55.49216842651367 10.950542449951172" stroke-width="1.0" fill="rgb(146, 112, 84)" opacity="1.0"/>
    <path d="M 54.34943389892578 64.03633117675781 C 50.36268997192383 64.79032897949219 46.63733673095703 67.76945495605469 44.97182846069336 71.53555297851562 C 43.62041473388672 74.59150695800781 43.654781341552734 78.80854034423828 45.05657196044922 81.89994049072266 C 47.33566665649414 86.92648315429688 52.77473068237305 90.0 58.17446517944336 89.31255340576172 C 62.860626220703125 88.7159194946289 66.90272521972656 85.61114501953125 68.5547103881836 81.3393783569336 C 70.95928955078125 75.12081146240234 68.33406066894531 68.25538635253906 62.411712646484375 65.27438354492188 C 59.886775970458984 64.00352478027344 56.92661666870117 63.548851013183594 54.34943389892578 64.03633117675781" stroke-width="1.0" fill="rgb(246, 111, 108)" opacity="1.0"/>
    <path d="M 19.805999755859375 64.24516296386719 C 14.874933242797852 65.53623962402344 11.310203552246094 69.27729797363281 10.312701225280762 74.20836639404297 C 10.0 75.75367736816406 10.069817543029785 78.39165496826172 10.463065147399902 79.89202880859375 C 10.914934158325195 81.61678314208984 12.164183616638184 83.85295867919922 13.446864128112793 85.23360443115234 C 16.0098934173584 87.99240112304688 19.121509552001953 89.35951232910156 22.838157653808594 89.35951232910156 C 26.24226188659668 89.35951232910156 29.174903869628906 88.20169830322266 31.588966369628906 85.90487670898438 C 34.053565979003906 83.55985260009766 35.372947692871094 80.67012786865234 35.541351318359375 77.24861145019531 C 35.83119201660156 71.35922241210938 32.48291015625 66.47620391845703 26.826147079467773 64.53826904296875 C 25.529937744140625 64.09432983398438 25.20386505126953 64.04705810546875 23.149150848388672 64.00569915771484 C 21.353178024291992 63.96946716308594 20.67304229736328 64.01813507080078 19.805999755859375 64.24516296386719" stroke-width="1.0" fill="rgb(246, 111, 108)" opacity="1.0"/>
  </g>
</svg>
