<?xml version="1.0" ?>
<svg xmlns="http://www.w3.org/2000/svg" version="1.1" width="100" height="100">
  <defs/>
  <g>
    <path d="M 31.289396286010742 10.530216217041016 C 29.835308074951172 10.752071380615234 28.361865997314453 11.561914443969727 27.230506896972656 12.761176109313965 C 26.690006256103516 13.334038734436035 26.035327911376953 14.174278259277344 25.775665283203125 14.628273963928223 C 25.27312469482422 15.50647258758545 24.233713150024414 18.43430519104004 24.233713150024414 18.971477508544922 C 24.233713150024414 19.147964477539062 24.177303314208984 19.29254150390625 24.108341217041016 19.29254150390625 C 24.039379119873047 19.29254150390625 23.447917938232422 18.987659454345703 22.794145584106445 18.615177154541016 C 20.213237762451172 17.144304275512695 17.4733829498291 16.249622344970703 15.487417221069336 16.229206085205078 C 12.66181755065918 16.20001792907715 11.02867317199707 17.62824249267578 10.368700981140137 20.705493927001953 C 10.0 22.424535751342773 10.252253532409668 29.203163146972656 10.864738464355469 34.037567138671875 C 11.990049362182617 42.919212341308594 15.171647071838379 48.330257415771484 21.03260612487793 51.33053207397461 C 24.816556930541992 53.26765441894531 29.01563835144043 54.17201232910156 34.971717834472656 54.33277130126953 C 38.35672378540039 54.42396545410156 39.986541748046875 54.27152633666992 42.07897186279297 53.6679573059082 C 45.66360092163086 52.63384246826172 49.31643295288086 49.9727783203125 51.80841827392578 46.5802116394043 C 54.87946701049805 42.39958190917969 56.993526458740234 36.65960693359375 57.65349578857422 30.71048355102539 C 57.85372543334961 28.906145095825195 57.846771240234375 25.297168731689453 57.640037536621094 23.602624893188477 C 57.08123779296875 19.025012969970703 55.27281951904297 15.645454406738281 52.782047271728516 14.524227142333984 C 50.75706100463867 13.612606048583984 48.29078674316406 14.108190536499023 45.521141052246094 15.983001708984375 C 45.04385757446289 16.3060302734375 44.61617660522461 16.570383071899414 44.57095718383789 16.570383071899414 C 44.52558898925781 16.570383071899414 43.86123275756836 16.020658493041992 43.094642639160156 15.34889030456543 C 38.931556701660156 11.700441360473633 34.76544189453125 10.0 31.289396286010742 10.530216217041016" stroke-width="1.0" fill="rgb(253, 211, 125)" opacity="1.0"/>
    <path d="M 31.1876163482666 56.60123825073242 C 31.186105728149414 57.915435791015625 31.083269119262695 59.70525360107422 30.959259033203125 60.57861328125 C 30.21988868713379 65.78202056884766 28.0450382232666 74.29163360595703 25.66390609741211 81.2972640991211 C 24.75092315673828 83.98297119140625 24.667747497558594 84.33004760742188 24.73217010498047 85.18540954589844 C 25.0341796875 89.19772338867188 30.483333587646484 90.0 32.075950622558594 86.26670837402344 C 32.84980010986328 84.45223999023438 35.19493865966797 76.73492431640625 36.33174133300781 72.2612075805664 C 36.42156982421875 71.90777587890625 36.553749084472656 71.61847686767578 36.625431060791016 71.61847686767578 C 36.697113037109375 71.61847686767578 37.562156677246094 71.76441955566406 38.547882080078125 71.94287109375 C 41.16508483886719 72.41667175292969 45.90632629394531 72.41561889648438 48.61412048339844 71.94075012207031 C 55.7989501953125 70.68069458007812 60.16393280029297 67.63701629638672 60.826324462890625 63.42568588256836 C 61.29060363769531 60.472747802734375 59.59379196166992 56.5591926574707 57.25469970703125 55.18843460083008 C 55.177085876464844 53.97087478637695 52.26982116699219 53.89692306518555 49.03559875488281 54.979434967041016 C 46.11578369140625 55.956687927246094 42.451908111572266 58.14122009277344 39.69345474243164 60.54957962036133 C 39.17170715332031 61.0052375793457 38.71272277832031 61.3459587097168 38.673553466796875 61.30678939819336 C 38.63438415527344 61.26777267456055 38.66796112060547 60.73059844970703 38.748111724853516 60.113121032714844 C 38.82826232910156 59.49579620361328 38.895713806152344 57.96987533569336 38.898284912109375 56.72222137451172 L 38.90266799926758 54.45375442504883 L 35.99162292480469 54.44271469116211 C 34.39069366455078 54.43666458129883 32.65546417236328 54.382225036621094 32.135536193847656 54.32173156738281 L 31.190340042114258 54.211936950683594 L 31.1876163482666 56.60123825073242" stroke-width="1.0" fill="rgb(94, 176, 130)" opacity="1.0"/>
  </g>
</svg>
