<?xml version="1.0" ?>
<svg xmlns="http://www.w3.org/2000/svg" version="1.1" width="100" height="100">
  <defs/>
  <g>
    <path d="M 31.811450958251953 11.552072525024414 C 31.000778198242188 11.702187538146973 30.648826599121094 11.854296684265137 29.97683334350586 12.345459938049316 C 28.043424606323242 13.758054733276367 27.850496292114258 16.858078002929688 29.483675003051758 20.264446258544922 C 30.480628967285156 22.34371566772461 31.892559051513672 24.179927825927734 34.82026290893555 27.2048282623291 C 36.81603240966797 29.26681137084961 38.006446838378906 29.69455337524414 40.13132095336914 29.112974166870117 C 42.967811584472656 28.33673858642578 46.48453903198242 25.4345645904541 48.07902145385742 22.55432891845703 C 48.79555892944336 21.259803771972656 49.02957534790039 20.270828247070312 49.02983856201172 18.535932540893555 C 49.029972076416016 17.512121200561523 48.96562194824219 16.77364730834961 48.8502082824707 16.475013732910156 C 48.01653289794922 14.318359375 46.66310501098633 13.116244316101074 44.64234161376953 12.738099098205566 C 43.69817352294922 12.561391830444336 41.986412048339844 12.662177085876465 41.06205749511719 12.94911003112793 C 40.70186233520508 13.060932159423828 40.022560119628906 13.363687515258789 39.55253601074219 13.622034072875977 L 38.6981201171875 14.091657638549805 L 37.951133728027344 13.476705551147461 C 37.0040397644043 12.697013854980469 36.35105895996094 12.315410614013672 35.26701736450195 11.907880783081055 C 34.29957962036133 11.544227600097656 32.72782897949219 11.38241195678711 31.811450958251953 11.552072525024414" stroke-width="1.0" fill="rgb(118, 167, 223)" opacity="1.0"/>
    <path d="M 72.47926330566406 11.551008224487305 C 71.1231689453125 11.79526138305664 70.07209777832031 12.608991622924805 69.50076293945312 13.856979370117188 C 68.79180908203125 15.40572738647461 69.12899780273438 18.13039779663086 70.32339477539062 20.50218391418457 C 71.32527160644531 22.491703033447266 72.75262451171875 24.324726104736328 75.43873596191406 27.071067810058594 C 77.00211334228516 28.669544219970703 77.84762573242188 29.215621948242188 78.95133972167969 29.34007453918457 C 81.76616668701172 29.657323837280273 86.6650390625 26.328472137451172 88.69896697998047 22.716144561767578 C 89.59048461914062 21.132957458496094 90.0 19.203937530517578 89.77782440185547 17.634979248046875 C 89.70801544189453 17.141952514648438 89.59446716308594 16.634302139282227 89.52559661865234 16.507057189941406 C 89.45671844482422 16.37967872619629 89.36909484863281 16.12479019165039 89.33094024658203 15.940503120422363 C 89.2176513671875 15.393228530883789 88.45511627197266 14.355056762695312 87.76702880859375 13.81110668182373 C 86.6758041381836 12.948578834533691 85.8384017944336 12.696083068847656 84.06575012207031 12.695152282714844 C 82.35904693603516 12.694221496582031 81.6564712524414 12.865742683410645 80.24161529541016 13.629081726074219 L 79.40914154052734 14.078228950500488 L 78.60218811035156 13.428041458129883 C 77.65988159179688 12.668691635131836 76.48741149902344 12.017707824707031 75.592041015625 11.756568908691406 C 74.75344848632812 11.51205062866211 73.24751281738281 11.41259479522705 72.47926330566406 11.551008224487305" stroke-width="1.0" fill="rgb(118, 167, 223)" opacity="1.0"/>
    <path d="M 63.913543701171875 10.353680610656738 C 63.50959777832031 10.517224311828613 62.1005973815918 12.227256774902344 58.951908111572266 16.375289916992188 C 58.6328010559082 16.79585075378418 58.33403015136719 17.137964248657227 58.28802490234375 17.135704040527344 C 58.24215316772461 17.13344383239746 57.69594192504883 16.46238136291504 57.074344635009766 15.644660949707031 C 54.7883186340332 12.637046813964844 53.737648010253906 11.35050106048584 53.382633209228516 11.123932838439941 C 52.923648834228516 10.831149101257324 52.11337661743164 10.824368476867676 51.67792510986328 11.109705924987793 C 51.03584671020508 11.530399322509766 50.76314163208008 12.533469200134277 51.11150360107422 13.192963600158691 C 51.19580078125 13.352651596069336 51.81261444091797 14.171435356140137 52.48194885253906 15.01242446899414 C 53.79176330566406 16.65810203552246 55.48916244506836 18.876850128173828 55.98378372192383 19.58966064453125 L 56.28933334350586 20.030033111572266 L 55.046932220458984 21.80933952331543 C 52.705989837646484 25.161724090576172 51.47502136230469 27.101118087768555 51.40176010131836 27.552392959594727 C 51.265342712402344 28.392982482910156 52.1092529296875 29.379831314086914 52.9525032043457 29.365869522094727 C 53.76823043823242 29.352441787719727 54.0107536315918 29.094493865966797 56.128849029541016 25.988487243652344 C 57.27046585083008 24.314353942871094 58.26436233520508 22.9296817779541 58.33749008178711 22.91146469116211 C 58.41061782836914 22.89324951171875 59.6671142578125 24.48427963256836 61.129703521728516 26.447206497192383 C 62.59229278564453 28.410133361816406 63.94771194458008 30.110593795776367 64.14183807373047 30.226137161254883 C 64.68525695800781 30.54936981201172 65.49220275878906 30.496183395385742 65.9554443359375 30.106338500976562 C 66.50006103515625 29.648149490356445 66.7213134765625 29.068166732788086 66.55644226074219 28.531129837036133 C 66.48477172851562 28.29724884033203 65.06446838378906 26.293901443481445 63.40030288696289 24.07927703857422 C 61.60411071777344 21.688873291015625 60.40399169921875 19.976316452026367 60.446807861328125 19.864627838134766 C 60.54107666015625 19.619178771972656 62.94544219970703 16.458925247192383 64.64430236816406 14.347611427307129 C 66.11128234863281 12.524560928344727 66.38890075683594 11.948832511901855 66.11752319335938 11.293725967407227 C 65.75215148925781 10.411652565002441 64.78697204589844 10.0 63.913543701171875 10.353680610656738" stroke-width="1.0" fill="rgb(118, 167, 223)" opacity="1.0"/>
    <path d="M 23.035919189453125 10.433724403381348 C 22.67120361328125 10.6713285446167 21.195850372314453 12.468317031860352 19.068580627441406 15.265718460083008 C 18.31268882751465 16.25988006591797 17.64920425415039 17.090097427368164 17.594425201416016 17.110441207885742 C 17.53951072692871 17.130916595458984 16.935728073120117 16.412919998168945 16.25269889831543 15.51488971710205 C 13.969863891601562 12.51379108428955 12.866806030273438 11.175256729125977 12.55886459350586 11.03232192993164 C 12.390933990478516 10.954405784606934 12.021563529968262 10.890583038330078 11.738086700439453 10.890583038330078 C 10.782883644104004 10.890583038330078 10.0 11.938196182250977 10.264861106872559 12.861886978149414 C 10.323365211486816 13.065718650817871 11.231233596801758 14.336841583251953 12.28256893157959 15.686810493469238 C 14.573514938354492 18.62860870361328 15.532175064086914 19.930709838867188 15.498668670654297 20.0552978515625 C 15.484972953796387 20.106220245361328 14.650898933410645 21.340778350830078 13.645036697387695 22.798847198486328 C 11.06290340423584 26.542142868041992 10.670397758483887 27.20123863220215 10.670397758483887 27.793720245361328 C 10.670397758483887 29.037452697753906 12.320463180541992 29.80584144592285 13.265960693359375 29.002349853515625 C 13.413681983947754 28.876832962036133 14.19629955291748 27.78680419921875 15.005244255065918 26.580169677734375 C 17.150596618652344 23.379894256591797 17.508398056030273 22.867855072021484 17.604129791259766 22.86227035522461 C 17.651466369628906 22.859477996826172 18.921524047851562 24.49478530883789 20.426395416259766 26.49627113342285 C 22.412456512451172 29.137571334838867 23.273523330688477 30.181194305419922 23.56710433959961 30.3028564453125 C 24.136981964111328 30.538864135742188 24.99951171875 30.394468307495117 25.397602081298828 29.996244430541992 C 25.78266143798828 29.611186981201172 25.94394302368164 28.64055824279785 25.698760986328125 28.1825008392334 C 25.61113739013672 28.018558502197266 24.632001876831055 26.677631378173828 23.523094177246094 25.202411651611328 C 22.4141845703125 23.727325439453125 21.07977294921875 21.94841766357422 20.557762145996094 21.249300003051758 L 19.608543395996094 19.978178024291992 L 20.757205963134766 18.44192886352539 C 22.32550048828125 16.344043731689453 23.454486846923828 14.885976791381836 24.526031494140625 13.574300765991211 C 25.369279861450195 12.54184627532959 25.429244995117188 12.425105094909668 25.429244995117188 11.81454086303711 C 25.429244995117188 10.881940841674805 24.941539764404297 10.34583568572998 24.02529525756836 10.270844459533691 C 23.568302154541016 10.233482360839844 23.267141342163086 10.283077239990234 23.035919189453125 10.433724403381348" stroke-width="1.0" fill="rgb(118, 167, 223)" opacity="1.0"/>
  </g>
</svg>
