<?xml version="1.0" ?>
<svg xmlns="http://www.w3.org/2000/svg" version="1.1" width="100" height="100">
  <defs/>
  <g>
    <path d="M 82.07489776611328 74.5634765625 C 73.54734802246094 70.23273468017578 75.06534576416016 57.53814697265625 79.2026138305664 48.921302795410156 C 83.33988952636719 40.30446243286133 88.90586853027344 30.348215103149414 84.48582458496094 21.865314483642578 C 80.06578826904297 13.38241195678711 67.0289077758789 12.62341594696045 60.212825775146484 19.112091064453125 C 53.39673614501953 25.600765228271484 52.875858306884766 36.97083282470703 57.236366271972656 45.33467483520508 L 56.9238395690918 47.01637268066406 C 52.81632995605469 39.73893356323242 48.44093704223633 32.13408660888672 41.40161895751953 27.669403076171875 C 34.36229705810547 23.2047176361084 23.870288848876953 22.921955108642578 18.631725311279297 29.425512313842773 C 14.434920310974121 34.61943054199219 14.94091796875 42.38798141479492 17.81319808959961 48.34089660644531 C 22.277883529663086 57.270263671875 31.20725440979004 63.37200164794922 40.62773895263672 66.51216125488281 C 50.04822540283203 69.65232849121094 60.153297424316406 70.21784973144531 70.09466552734375 70.75361633300781 L 82.07489776611328 74.5634765625" stroke-width="1.0" fill="rgb(143, 195, 31)" opacity="1.0"/>
    <path d="M 83.95006561279297 71.3637924194336 C 81.45245361328125 70.05509948730469 79.82933044433594 67.52708435058594 79.67884826660156 64.71141052246094 C 79.41299438476562 61.390594482421875 79.81788635253906 58.050228118896484 80.86943054199219 54.88909912109375 C 82.3563461303711 50.93391036987305 84.07067108154297 47.0679931640625 86.00382232666016 43.31068420410156 C 88.01292419433594 38.72694396972656 89.82856750488281 33.90508270263672 89.82856750488281 28.83022117614746 C 90.00000762939453 20.24806022644043 83.83467864990234 12.84585952758789 75.36298370361328 11.462597846984863 C 67.57997131347656 10.0 59.652679443359375 13.166276931762695 55.01890563964844 19.58832550048828 C 49.27434539794922 27.565227508544922 49.78034210205078 38.7418212890625 54.12596893310547 47.209842681884766 L 53.75391387939453 44.33755874633789 L 53.44138717651367 46.01926040649414 L 60.242584228515625 45.141204833984375 C 54.780792236328125 35.55701446533203 48.35164260864258 24.975711822509766 37.1601676940918 21.671844482421875 C 26.89139175415039 18.69538688659668 14.702800750732422 22.95172119140625 12.351400375366211 34.32178497314453 C 10.0 45.69184875488281 17.00955581665039 56.570796966552734 25.924041748046875 63.223182678222656 C 35.83564376831055 70.57502746582031 48.32188034057617 72.88179016113281 60.36164474487305 73.8937759399414 C 62.22193145751953 74.0426025390625 64.06733703613281 74.17654418945312 65.92762756347656 74.28071594238281 C 66.85032653808594 74.28071594238281 67.78790283203125 74.44442749023438 68.71060943603516 74.44442749023438 C 68.71060943603516 74.44442749023438 69.93095397949219 74.54859924316406 69.1124267578125 74.44442749023438 L 69.21660614013672 74.44442749023438 C 70.44758605957031 74.76383972167969 71.65988159179688 75.15137481689453 72.84788513183594 75.60523986816406 L 81.0777816772461 78.10546112060547 C 85.66152954101562 79.59368896484375 87.6111068725586 72.37578582763672 83.05712890625 70.91732025146484 C 79.11331939697266 69.6672134399414 75.12487030029297 68.0450439453125 71.15130615234375 67.10745239257812 C 68.19366455078125 66.68540954589844 65.20951843261719 66.47652435302734 62.22193145751953 66.4823989868164 C 59.43894577026367 66.2740478515625 56.641075134277344 66.03593444824219 53.87297058105469 65.63410949707031 C 48.46388626098633 64.96119689941406 43.16871643066406 63.56983184814453 38.12751388549805 61.4968376159668 C 29.88273048400879 58.014381408691406 21.905826568603516 51.629878997802734 19.747896194458008 42.6260986328125 C 18.825193405151367 38.75670623779297 19.122840881347656 34.098548889160156 22.084413528442383 31.136974334716797 C 24.80963134765625 28.67516326904297 28.503507614135742 27.5806827545166 32.12995529174805 28.160518646240234 C 42.97914123535156 29.336217880249023 48.96181869506836 40.363990783691406 53.75391387939453 48.846893310546875 C 55.24214172363281 51.4661750793457 59.974708557128906 51.16852951049805 60.555118560791016 47.953956604003906 C 61.0531120300293 46.29969787597656 60.947628021240234 44.522369384765625 60.257469177246094 42.938629150390625 C 59.50386428833008 41.33647918701172 58.9346923828125 39.6539192199707 58.56088638305664 37.92329406738281 C 57.83759689331055 34.45610427856445 58.05860137939453 30.858295440673828 59.20082473754883 27.505699157714844 C 61.09990692138672 21.40587043762207 67.17265319824219 17.610408782958984 73.48782348632812 18.57632827758789 C 76.14854431152344 18.933448791503906 78.58238220214844 20.26436996459961 80.31878662109375 22.311782836914062 C 82.46183776855469 24.960826873779297 82.6701889038086 29.098102569580078 81.88142395019531 32.535911560058594 C 80.0509033203125 40.765811920166016 74.6188735961914 47.64142990112305 72.87764739990234 55.93085861206055 C 71.21083068847656 63.92264938354492 72.19306182861328 73.52171325683594 80.16996765136719 77.7780532836914 C 84.41141510009766 80.0401611328125 88.17662811279297 73.64077758789062 83.95006561279297 71.3637924194336" stroke-width="1.0" fill="rgb(35, 24, 21)" opacity="1.0"/>
  </g>
</svg>
