<?xml version="1.0" ?>
<svg xmlns="http://www.w3.org/2000/svg" version="1.1" width="100" height="100">
  <defs/>
  <g>
    <path d="M 46.7259521484375 25.1822509765625 C 45.89874267578125 26.057607650756836 45.524375915527344 26.704105377197266 44.97651290893555 28.20474624633789 C 43.16683578491211 33.16184997558594 41.5783805847168 42.031009674072266 40.6077880859375 52.596797943115234 C 40.41498565673828 54.69663619995117 40.220909118652344 56.451168060302734 40.176368713378906 56.49571228027344 C 40.13203811645508 56.54046630859375 38.73236083984375 55.262107849121094 37.06584930419922 53.65541458129883 C 31.851463317871094 48.62725830078125 26.7590389251709 44.594085693359375 23.478837966918945 42.8942756652832 C 20.039133071899414 41.11174774169922 17.789125442504883 41.187469482421875 17.155780792236328 43.10680389404297 C 16.793292999267578 44.20508575439453 17.044212341308594 47.49991989135742 17.68837547302246 50.10053634643555 C 19.4528751373291 57.22450256347656 24.310075759887695 69.45892333984375 30.95319938659668 83.51341247558594 L 31.831737518310547 85.37187957763672 L 32.780906677246094 84.71880340576172 C 34.93143844604492 83.2391586303711 37.90557098388672 82.32011413574219 41.814239501953125 81.92750549316406 C 48.248653411865234 81.28143310546875 57.94587326049805 83.19525146484375 67.51052856445312 86.99935913085938 C 69.12294006347656 87.64054870605469 70.47256469726562 88.13220977783203 70.50990295410156 88.0916976928711 C 70.64776611328125 87.94258880615234 73.0316162109375 80.44489288330078 74.44444274902344 75.71623229980469 C 78.55036926269531 61.97607421875 80.70387268066406 52.63752365112305 80.95033264160156 47.506282806396484 C 81.14165496826172 43.519134521484375 80.5634536743164 42.68874740600586 78.12955474853516 43.45614242553711 C 77.50532531738281 43.65297317504883 76.58712768554688 44.12066650390625 76.08931732177734 44.495452880859375 C 75.59172058105469 44.87024688720703 74.93037414550781 45.289573669433594 74.61964416503906 45.42723083496094 C 73.02165222167969 46.13523864746094 67.34063720703125 51.64232635498047 63.12080383300781 56.57376480102539 C 61.9478645324707 57.94459915161133 60.935489654541016 59.06599807739258 60.87122344970703 59.06599807739258 C 60.80695343017578 59.06599807739258 60.533973693847656 57.9923210144043 60.26438903808594 56.67981719970703 C 59.995018005371094 55.36752700805664 59.24565124511719 52.050628662109375 58.598941802978516 49.309173583984375 C 54.88795852661133 33.577362060546875 51.05352783203125 24.068702697753906 48.42024612426758 24.068702697753906 C 47.92095184326172 24.068702697753906 47.544677734375 24.316017150878906 46.7259521484375 25.1822509765625" stroke-width="1.0" fill="rgb(253, 211, 125)" opacity="1.0"/>
    <path d="M 83.88077545166016 32.8498420715332 C 83.53080749511719 33.00425338745117 82.96851348876953 33.406192779541016 82.63147735595703 33.74301528930664 C 79.26240539550781 37.11060333251953 83.58807373046875 42.30483627319336 87.66387939453125 39.78588104248047 C 89.59721374511719 38.591094970703125 90.0 35.802978515625 88.49723815917969 34.017051696777344 C 87.41444396972656 32.7302131652832 85.34153747558594 32.20610046386719 83.88077545166016 32.8498420715332" stroke-width="1.0" fill="rgb(253, 211, 125)" opacity="1.0"/>
    <path d="M 46.97454071044922 10.634405136108398 C 45.446537017822266 11.439979553222656 44.7474365234375 12.554378509521484 44.7474365234375 14.185253143310547 C 44.7474365234375 16.516921997070312 46.34352493286133 18.129764556884766 48.65080261230469 18.129764556884766 C 50.33767318725586 18.129764556884766 51.42089080810547 17.467361450195312 52.191680908203125 15.964176177978516 C 52.90922927856445 14.565343856811523 52.52320098876953 12.296670913696289 51.39798355102539 11.297445297241211 C 50.294193267822266 10.31730842590332 48.17759704589844 10.0 46.97454071044922 10.634405136108398" stroke-width="1.0" fill="rgb(253, 211, 125)" opacity="1.0"/>
    <path d="M 11.653780937194824 33.772499084472656 C 10.296734809875488 35.14036178588867 10.0 35.99641418457031 10.386454582214355 37.430877685546875 C 10.666433334350586 38.47125244140625 11.728442192077637 39.72649002075195 12.656400680541992 40.114219665527344 C 14.341998100280762 40.81840515136719 16.557008743286133 40.15473175048828 17.55538558959961 38.64603042602539 C 18.013107299804688 37.95435333251953 18.121706008911133 37.54159927368164 18.124675750732422 36.48298645019531 C 18.131250381469727 34.088531494140625 16.547887802124023 32.552894592285156 14.072836875915527 32.552894592285156 C 12.88271713256836 32.552894592285156 12.844962120056152 32.571983337402344 11.653780937194824 33.772499084472656" stroke-width="1.0" fill="rgb(253, 211, 125)" opacity="1.0"/>
  </g>
</svg>
