<?xml version="1.0" ?>
<svg xmlns="http://www.w3.org/2000/svg" version="1.1" width="100" height="100">
  <defs/>
  <g>
    <path d="M 39.325035095214844 10.557168006896973 C 33.640403747558594 11.455855369567871 28.573148727416992 15.726188659667969 26.553865432739258 21.319843292236328 C 25.790639877319336 23.43383026123047 25.56247329711914 24.613035202026367 25.402233123779297 27.270872116088867 C 25.26717185974121 29.511262893676758 25.874155044555664 33.222694396972656 26.6762752532959 35.06056594848633 C 26.740209579467773 35.20708465576172 26.93947410583496 35.68659591674805 27.119157791137695 36.12615203857422 C 27.800731658935547 37.79325866699219 29.273103713989258 40.122093200683594 30.41940689086914 41.34618377685547 C 30.77544593811035 41.726463317871094 31.06675148010254 42.12672805786133 31.06675148010254 42.235816955566406 C 31.06675148010254 42.371944427490234 30.826595306396484 42.47890090942383 30.300861358642578 42.57666778564453 C 27.913951873779297 43.020751953125 25.919708251953125 43.646915435791016 24.00724983215332 44.55279541015625 C 22.900772094726562 45.07679748535156 21.411483764648438 45.89956283569336 21.010292053222656 46.20831298828125 C 20.93703269958496 46.26465606689453 20.395849227905273 46.665985107421875 19.807645797729492 47.10021209716797 C 18.375099182128906 48.15766906738281 17.023405075073242 49.425048828125 16.06917381286621 50.605186462402344 C 15.636945724487305 51.13970947265625 15.251469612121582 51.60710144042969 15.212575912475586 51.64373016357422 C 14.629966735839844 52.19184112548828 12.154212951660156 56.470699310302734 12.152215957641602 56.932899475097656 C 12.151948928833008 56.990840911865234 11.981189727783203 57.457828521728516 11.772867202758789 57.97064208984375 C 11.564545631408691 58.483455657958984 11.258722305297852 59.472450256347656 11.093290328979492 60.16841125488281 C 10.92799186706543 60.86437225341797 10.733122825622559 61.61361312866211 10.660263061523438 61.83338928222656 C 10.461265563964844 62.43424606323242 10.36935806274414 67.77362060546875 10.535456657409668 69.09268951416016 C 11.213035583496094 74.47628784179688 13.552927017211914 79.17632293701172 17.510643005371094 83.10340881347656 C 18.456615447998047 84.04205322265625 19.309085845947266 84.81007385253906 19.40485382080078 84.81007385253906 C 19.500757217407227 84.81007385253906 19.649272918701172 84.8946533203125 19.73505401611328 84.99801635742188 C 20.073108673095703 85.40520477294922 22.163654327392578 86.67365264892578 23.807453155517578 87.46884155273438 C 25.88694190979004 88.47462463378906 25.805957794189453 88.44065856933594 27.137405395507812 88.86515045166016 C 30.15207862854004 89.8260498046875 32.45147705078125 90.00000762939453 42.122196197509766 89.99893951416016 C 52.747283935546875 89.99774169921875 54.49004364013672 89.82964324951172 58.3057746887207 88.4382553100586 C 59.23896026611328 88.09793853759766 61.49147033691406 87.03062438964844 62.368316650390625 86.51314544677734 C 65.32451629638672 84.7686538696289 68.01498413085938 82.2101821899414 69.90213775634766 79.34894561767578 C 70.77125549316406 78.03108215332031 70.77911376953125 78.01736450195312 71.50650787353516 76.5517807006836 C 71.98056030273438 75.59648895263672 73.024169921875 72.98020935058594 73.024169921875 72.74697875976562 C 73.024169921875 72.73139953613281 73.87836456298828 72.28437805175781 74.9222412109375 71.75372314453125 C 75.96624755859375 71.22305297851562 76.88145446777344 70.74101257324219 76.95604705810547 70.68267822265625 C 77.16263580322266 70.52083587646484 80.55785369873047 68.77474975585938 82.79025268554688 67.6822509765625 C 83.5097885131836 67.33021545410156 84.15393829345703 66.9384765625 84.22174072265625 66.8116683959961 C 84.3835678100586 66.5091781616211 84.2680892944336 66.23345947265625 83.90605926513672 66.05803680419922 C 83.40882873535156 65.81707763671875 81.01751708984375 64.75921630859375 79.61747741699219 64.16075897216797 C 78.8848876953125 63.84761428833008 77.91067504882812 63.420711517333984 77.45260620117188 63.211856842041016 C 76.99453735351562 63.003135681152344 76.53739929199219 62.832374572753906 76.43670654296875 62.832374572753906 C 76.33600616455078 62.832374572753906 76.17896270751953 62.742469787597656 76.08772277832031 62.6325798034668 C 75.9964828491211 62.52268981933594 75.82439422607422 62.43171691894531 75.7051773071289 62.43024826049805 C 75.58583068847656 62.42892074584961 75.04412078857422 62.204078674316406 74.5011978149414 61.930755615234375 L 73.51406860351562 61.43379592895508 L 73.27165222167969 60.501407623291016 C 72.80891418457031 58.72148132324219 72.18461608886719 56.99257278442383 71.79740905761719 56.41835403442383 C 71.66635131835938 56.223880767822266 71.55899047851562 55.996646881103516 71.55899047851562 55.91339874267578 C 71.55899047851562 55.72665786743164 70.52989196777344 53.78702163696289 70.2774887084961 53.497982025146484 C 70.1763916015625 53.38236999511719 70.09381103515625 53.24677276611328 70.09381103515625 53.19682312011719 C 70.09381103515625 52.916839599609375 68.00885772705078 50.353973388671875 66.81886291503906 49.17117691040039 C 66.05604553222656 48.41287612915039 65.43186950683594 47.74102783203125 65.43186950683594 47.67802047729492 C 65.43186950683594 47.61515426635742 65.77659606933594 47.4217529296875 66.19776153564453 47.24832534790039 C 69.15222930908203 46.0323600769043 72.23350524902344 42.917789459228516 73.75276184082031 39.61194610595703 C 74.75440979003906 37.432159423828125 74.74015808105469 37.46998596191406 75.23818969726562 35.65995788574219 C 75.5867691040039 34.39350891113281 75.95333099365234 31.520824432373047 75.9521255493164 30.06563377380371 C 75.95106506347656 28.675180435180664 75.60115051269531 26.104320526123047 75.2320556640625 24.774337768554688 C 74.74961853027344 23.035968780517578 73.47344207763672 21.028539657592773 71.9645767211914 19.6348876953125 C 70.68241119384766 18.450355529785156 69.26651000976562 17.719898223876953 67.00414276123047 17.075618743896484 C 65.45744323730469 16.6351318359375 62.71076965332031 16.60542869567871 61.01355743408203 17.01074981689453 C 59.30622100830078 17.41847038269043 57.37031936645508 18.24922752380371 56.00144577026367 19.16136932373047 C 55.35969543457031 19.58893394470215 55.04241943359375 19.64554214477539 55.04241943359375 19.332393646240234 C 55.04241943359375 19.03030014038086 54.185020446777344 17.362659454345703 53.49718475341797 16.32691192626953 C 52.70998764038086 15.141581535339355 50.767425537109375 13.329687118530273 49.41532897949219 12.519708633422852 C 46.34391403198242 10.679842948913574 42.848793029785156 10.0 39.325035095214844 10.557168006896973" stroke-width="1.0" fill="rgb(81, 55, 54)" opacity="1.0"/>
    <path d="M 54.80373001098633 44.617530822753906 C 53.534217834472656 49.74858856201172 52.794429779052734 54.65054702758789 52.492340087890625 59.93385314941406 C 52.309059143066406 63.13859939575195 52.42694091796875 70.08794403076172 52.70878982543945 72.69316864013672 C 53.1318244934082 76.60346221923828 53.95085906982422 81.62770080566406 54.510292053222656 83.74449157714844 C 54.57809066772461 84.00089263916016 54.79214096069336 84.84004211425781 54.98607635498047 85.60926055908203 C 55.55656051635742 87.87229919433594 55.600120544433594 88.00682830810547 55.76328659057617 88.00682830810547 C 56.12305450439453 88.00682830810547 58.45255661010742 87.17221069335938 59.63495635986328 86.61970520019531 C 63.51901626586914 84.80461120605469 66.95059967041016 81.79832458496094 69.22482299804688 78.2183609008789 C 69.9761962890625 77.03556060791016 71.42578887939453 74.05271911621094 71.42578887939453 73.68948364257812 C 71.42578887939453 73.65911865234375 71.16072845458984 73.73237609863281 70.8367919921875 73.85252380371094 C 70.15800476074219 74.10399627685547 69.82740783691406 73.9581527709961 69.82740783691406 73.406982421875 C 69.82740783691406 73.02043151855469 70.16133880615234 72.8023910522461 72.75776672363281 71.49452209472656 C 73.82002258300781 70.95945739746094 75.46835327148438 70.11778259277344 76.42072296142578 69.62401580810547 C 77.37308502197266 69.1302490234375 79.07894897460938 68.26260375976562 80.211669921875 67.69583892822266 L 82.27091979980469 66.66542053222656 L 81.88304138183594 66.462158203125 C 81.6696548461914 66.35027313232422 79.4243392944336 65.36407470703125 76.893310546875 64.27024841308594 C 74.36241149902344 63.17656326293945 72.0218505859375 62.150936126708984 71.69218444824219 61.990962982177734 C 71.03378295898438 61.67155456542969 70.86502838134766 61.2810173034668 71.2283935546875 60.91765213012695 C 71.34747314453125 60.7985725402832 71.59042358398438 60.70120620727539 71.76824951171875 60.70120620727539 C 71.94619750976562 60.70120620727539 72.09178161621094 60.67430114746094 72.09178161621094 60.64153289794922 C 72.09178161621094 60.397647857666016 71.3017807006836 58.1378059387207 70.85530090332031 57.104854583740234 C 68.26713562011719 51.115203857421875 63.095977783203125 46.45659637451172 56.89760208129883 44.530418395996094 C 56.0497932434082 44.26695251464844 55.26339340209961 44.05144119262695 55.15004348754883 44.05144119262695 C 55.0181770324707 44.05144119262695 54.89337158203125 44.25563049316406 54.80373001098633 44.617530822753906" stroke-width="1.0" fill="rgb(254, 217, 102)" opacity="1.0"/>
    <path d="M 31.59954261779785 43.6126823425293 C 30.568588256835938 43.6944694519043 28.47604751586914 44.16558837890625 27.006738662719727 44.646968841552734 C 16.52124786376953 48.08174514770508 10.0 58.86973190307617 11.810428619384766 69.78638458251953 C 12.442853927612305 73.60037994384766 14.064274787902832 77.2119140625 16.55215072631836 80.34793853759766 C 17.653165817260742 81.73572540283203 19.875444412231445 83.76033782958984 21.47968292236328 84.83711242675781 C 24.508607864379883 86.8701171875 27.952844619750977 88.16799926757812 31.26654815673828 88.52497100830078 C 33.21483612060547 88.73489379882812 34.256446838378906 88.79243469238281 34.3150520324707 88.69346618652344 C 34.34342575073242 88.6455078125 34.173728942871094 88.126708984375 33.93810272216797 87.54063415527344 C 32.50395965576172 83.97518920898438 31.440370559692383 80.0611572265625 30.80741310119629 76.01898956298828 C 29.863971710205078 69.9935073852539 29.889545440673828 62.576900482177734 30.876544952392578 56.039268493652344 C 31.470474243164062 52.10486602783203 32.43829345703125 47.61861801147461 33.3433723449707 44.60354232788086 C 33.48310089111328 44.13788604736328 33.59751510620117 43.703392028808594 33.59751510620117 43.63785934448242 C 33.59751510620117 43.52290725708008 32.851341247558594 43.513450622558594 31.59954261779785 43.6126823425293" stroke-width="1.0" fill="rgb(254, 217, 102)" opacity="1.0"/>
    <path d="M 61.63572692871094 18.146133422851562 C 60.462249755859375 18.363510131835938 58.729610443115234 18.99473762512207 57.662025451660156 19.593862533569336 C 52.47062683105469 22.507038116455078 49.04184341430664 27.74106216430664 46.91893005371094 35.992950439453125 C 46.480308532714844 37.69789123535156 45.585350036621094 41.769222259521484 45.585350036621094 42.05972671508789 C 45.585350036621094 42.111141204833984 47.158817291259766 42.18560028076172 49.08180236816406 42.22529220581055 C 52.504329681396484 42.2960205078125 53.847900390625 42.431217193603516 55.8539924621582 42.90686798095703 C 58.13727569580078 43.44831848144531 60.9665412902832 44.66694641113281 62.965576171875 45.97002410888672 L 64.10548400878906 46.713134765625 L 64.9351806640625 46.42955780029297 C 66.7791748046875 45.79926300048828 68.18827819824219 44.86847686767578 69.74935913085938 43.249053955078125 C 72.0130615234375 40.900901794433594 73.43495178222656 38.1287841796875 74.25704956054688 34.46117401123047 C 74.50053405761719 33.374942779541016 74.54129791259766 32.76210021972656 74.54515838623047 30.132234573364258 C 74.54915618896484 27.3994083404541 74.5177230834961 26.942136764526367 74.25398254394531 25.896398544311523 C 73.53245544433594 23.035568237304688 72.12055206298828 20.999235153198242 69.89241027832031 19.606117248535156 C 67.5577163696289 18.146398544311523 64.52745819091797 17.61054229736328 61.63572692871094 18.146133422851562" stroke-width="1.0" fill="rgb(255, 243, 226)" opacity="1.0"/>
    <path d="M 40.19082260131836 11.687088012695312 C 34.702659606933594 12.234532356262207 29.714256286621094 16.23420524597168 27.726408004760742 21.680944442749023 C 26.885929107666016 23.984073638916016 26.75552749633789 24.80657196044922 26.746337890625 27.86786460876465 C 26.738344192504883 30.482545852661133 26.761920928955078 30.764925003051758 27.10663604736328 32.19680404663086 C 27.945518493652344 35.68060302734375 29.614356994628906 38.754150390625 32.042694091796875 41.28757858276367 L 32.90435028076172 42.18666458129883 L 38.56940460205078 42.18666458129883 L 44.23445510864258 42.18666458129883 L 44.38350296020508 41.4207763671875 C 46.386539459228516 31.1284236907959 48.70897674560547 25.744152069091797 52.9506721496582 21.558801651000977 L 54.08005905151367 20.44446563720703 L 53.9471321105957 19.96042251586914 C 53.12303161621094 16.958003997802734 50.15497970581055 13.904037475585938 46.76148986816406 12.56712818145752 C 44.79322052001953 11.791781425476074 42.38100051879883 11.468642234802246 40.19082260131836 11.687088012695312" stroke-width="1.0" fill="rgb(255, 243, 226)" opacity="1.0"/>
    <path d="M 40.390621185302734 14.138599395751953 C 34.571861267089844 15.430088996887207 30.212417602539062 20.02422523498535 29.265512466430664 25.862565994262695 C 29.157888412475586 26.525894165039062 29.069578170776367 27.465871810913086 29.069311141967773 27.951515197753906 C 29.06877899169922 28.91600227355957 29.229549407958984 29.185461044311523 29.760744094848633 29.110204696655273 C 30.016218185424805 29.073972702026367 30.073225021362305 28.977140426635742 30.099998474121094 28.533855438232422 C 30.2632999420166 25.836326599121094 30.65836524963379 24.175212860107422 31.59021759033203 22.26741600036621 C 32.52793502807617 20.34736442565918 33.631080627441406 18.987812042236328 35.25782775878906 17.746936798095703 C 36.983280181884766 16.430938720703125 38.972862243652344 15.524792671203613 40.952186584472656 15.153570175170898 C 41.994991302490234 14.95803451538086 42.232086181640625 14.761966705322266 42.011375427246094 14.277658462524414 C 41.84034729003906 13.902305603027344 41.56236267089844 13.878463745117188 40.390621185302734 14.138599395751953" stroke-width="1.0" fill="rgb(81, 55, 54)" opacity="1.0"/>
    <path d="M 22.23371696472168 54.975948333740234 C 20.69634246826172 55.437347412109375 20.031818389892578 57.49885559082031 21.008028030395508 58.77875518798828 C 22.225725173950195 60.37513732910156 24.716529846191406 59.903079986572266 25.278759002685547 57.96931076049805 C 25.452449798583984 57.37178421020508 25.451784133911133 57.216739654541016 25.27236557006836 56.61295700073242 C 24.886356353759766 55.31293869018555 23.53546142578125 54.585147857666016 22.23371696472168 54.975948333740234" stroke-width="1.0" fill="rgb(81, 55, 54)" opacity="1.0"/>
    <path d="M 61.43512725830078 21.67894744873047 C 57.159603118896484 22.324291229248047 53.005149841308594 26.300655364990234 52.234066009521484 30.4854736328125 C 52.04492950439453 31.51203155517578 52.11525344848633 31.797210693359375 52.557743072509766 31.797210693359375 C 52.989437103271484 31.797210693359375 53.12010192871094 31.603673934936523 53.30844497680664 30.685672760009766 C 53.790889739990234 28.334192276000977 55.320003509521484 26.0991268157959 57.527095794677734 24.519927978515625 C 59.078453063964844 23.409854888916016 60.76580810546875 22.81299591064453 62.849159240722656 22.637439727783203 C 63.733463287353516 22.562847137451172 64.03955078125 22.48519515991211 64.15170288085938 22.306842803955078 C 64.2583999633789 22.137279510498047 64.2583999633789 22.010210037231445 64.15184020996094 21.840648651123047 C 63.981746673583984 21.569856643676758 62.67346954345703 21.492069244384766 61.43512725830078 21.67894744873047" stroke-width="1.0" fill="rgb(81, 55, 54)" opacity="1.0"/>
    <path d="M 14.686443328857422 65.95880126953125 C 14.555776596069336 66.11624145507812 14.57708740234375 66.24064636230469 14.794599533081055 66.59149169921875 C 15.873106002807617 68.33053588867188 17.912368774414062 68.92179870605469 19.71880340576172 68.01911163330078 C 20.96713638305664 67.39533996582031 21.78457260131836 66.17565155029297 21.077957153320312 65.99076843261719 C 20.884286880493164 65.94015502929688 20.703670501708984 66.05909729003906 20.409034729003906 66.43098449707031 C 20.18712615966797 66.71124267578125 19.69536018371582 67.0951156616211 19.31627655029297 67.28398895263672 C 18.006805419921875 67.93653106689453 16.76007080078125 67.64322662353516 15.74963092803955 66.44483947753906 C 15.143712997436523 65.72624206542969 14.952173233032227 65.63873291015625 14.686443328857422 65.95880126953125" stroke-width="1.0" fill="rgb(81, 55, 54)" opacity="1.0"/>
    <path d="M 69.56101989746094 43.512386322021484 L 68.96162414550781 44.12549591064453 L 69.56101989746094 43.512386322021484 L 70.16040802001953 42.89927673339844 L 69.56101989746094 43.512386322021484" stroke-width="1.0" fill="rgb(254, 217, 102)" opacity="1.0"/>
  </g>
</svg>
