<?xml version="1.0" ?>
<svg xmlns="http://www.w3.org/2000/svg" version="1.1" width="100" height="100">
  <defs/>
  <g>
    <path d="M 35.54633331298828 10.803479194641113 C 32.87353515625 11.368833541870117 29.40510368347168 13.253442764282227 27.56415557861328 15.14052963256836 C 27.226455688476562 15.486766815185547 26.840967178344727 15.769926071166992 26.707651138305664 15.769926071166992 C 26.404247283935547 15.769926071166992 22.415496826171875 19.641197204589844 20.81873321533203 21.485450744628906 C 17.260093688964844 25.595672607421875 14.839742660522461 29.17441749572754 12.808181762695312 33.329673767089844 C 10.983896255493164 37.061153411865234 10.040628433227539 40.361698150634766 10.013497352600098 43.1080436706543 C 10.0 44.47632598876953 10.033880233764648 44.698333740234375 10.363314628601074 45.40086364746094 C 11.131399154663086 47.03908157348633 12.57721996307373 48.005489349365234 14.40577507019043 48.102996826171875 C 15.785490036010742 48.1764030456543 16.77668571472168 47.84021759033203 17.744054794311523 46.970497131347656 C 18.805490493774414 46.01620864868164 19.128589630126953 45.27911376953125 19.362581253051758 43.27854537963867 C 19.593544006347656 41.304969787597656 20.042797088623047 39.87732696533203 21.150094985961914 37.59910202026367 C 24.038156509399414 31.657020568847656 29.901874542236328 24.61865997314453 34.60609436035156 21.44757843017578 C 35.57938766479492 20.79159927368164 36.67387390136719 20.177078247070312 36.86916732788086 20.177078247070312 C 37.053993225097656 20.177078247070312 36.80402374267578 22.198583602905273 36.443878173828125 23.615070343017578 C 35.9849853515625 25.420211791992188 35.265655517578125 27.407562255859375 33.17679977416992 32.641056060791016 C 28.98794174194336 43.135860443115234 28.074695587158203 47.87850570678711 29.425901412963867 52.12052917480469 C 30.187376022338867 54.510860443115234 32.10090637207031 55.894981384277344 34.65113067626953 55.900211334228516 C 36.725799560546875 55.904483795166016 38.436737060546875 55.0359992980957 40.69071960449219 52.834625244140625 C 42.35070037841797 51.21320724487305 43.834259033203125 49.37997055053711 47.113037109375 44.8984489440918 C 52.84839630126953 37.05908966064453 56.950767517089844 32.5793571472168 59.77107238769531 31.07610321044922 L 60.58005905151367 30.6448917388916 L 60.65745544433594 31.023218154907227 C 60.866519927978516 32.04608917236328 60.6198616027832 34.702911376953125 59.65056228637695 41.8685302734375 C 58.8123779296875 48.06608581542969 58.77602005004883 48.452816009521484 58.778499603271484 51.16486740112305 C 58.78028869628906 53.014217376708984 58.844329833984375 54.01477813720703 59.01221466064453 54.814537048339844 C 59.85797119140625 58.842124938964844 62.98154067993164 61.257381439208984 66.6141357421875 60.69257736206055 C 70.44863891601562 60.09637451171875 75.23246002197266 56.29878616333008 79.74373626708984 50.2696647644043 C 81.7449951171875 47.59493637084961 84.7707748413086 42.98216247558594 87.75028991699219 38.063232421875 C 88.97327423095703 36.04447937011719 89.24954986572266 35.48408508300781 89.39029693603516 34.73817443847656 C 90.0 31.50676727294922 87.1568374633789 28.639636993408203 83.9652328491211 29.267656326293945 C 82.27082061767578 29.6009464263916 81.26378631591797 30.45621109008789 80.05581665039062 32.58776092529297 C 77.9483642578125 36.30629348754883 73.21867370605469 43.43169403076172 71.1529541015625 46.0002326965332 C 69.92472839355469 47.527313232421875 68.37892150878906 49.19252395629883 68.27880096435547 49.09639358520508 C 68.18666076660156 49.0077018737793 68.45922088623047 46.63651657104492 69.07801055908203 42.143978118896484 C 69.87860107421875 36.330665588378906 69.906005859375 35.994625091552734 69.90724182128906 31.952438354492188 C 69.90848541259766 27.494190216064453 69.78177642822266 26.615652084350586 68.86963653564453 24.757762908935547 C 67.19326782226562 21.34304428100586 64.39045715332031 20.192089080810547 59.941707611083984 21.091562271118164 C 59.38365173339844 21.204357147216797 58.82587432861328 21.34703826904297 58.70219802856445 21.408601760864258 C 58.578521728515625 21.470165252685547 58.229393005371094 21.59783363342285 57.9264030456543 21.692312240600586 C 56.21683883666992 22.22530174255371 53.190086364746094 24.03402328491211 52.07893753051758 25.186771392822266 C 51.74123764038086 25.537139892578125 51.378475189208984 25.823741912841797 51.272701263427734 25.823741912841797 C 50.59124755859375 25.823741912841797 45.91484451293945 30.899816513061523 42.454681396484375 35.39552688598633 C 42.014930725097656 35.96680450439453 42.089027404785156 35.717247009277344 43.233097076416016 32.77299499511719 C 45.5224723815918 26.88214683532715 46.3322868347168 23.618099212646484 46.32415771484375 20.314800262451172 C 46.317962646484375 17.799970626831055 45.75425720214844 15.763590812683105 44.58526611328125 14.032268524169922 C 42.66305923461914 11.185661315917969 39.344200134277344 10.0 35.54633331298828 10.803479194641113" stroke-width="1.0" fill="rgb(118, 167, 223)" opacity="1.0"/>
  </g>
</svg>
