<?xml version="1.0" ?>
<svg xmlns="http://www.w3.org/2000/svg" version="1.1" width="100" height="100">
  <defs/>
  <g>
    <path d="M 46.427001953125 16.039554595947266 C 46.021793365478516 16.880416870117188 44.63855743408203 18.41565704345703 43.97861099243164 18.756946563720703 C 43.68183898925781 18.910282135009766 43.18017578125 19.035839080810547 42.86361312866211 19.035839080810547 C 42.181793212890625 19.035839080810547 39.363765716552734 17.6048526763916 37.950469970703125 16.54102897644043 L 36.951332092285156 15.788818359375 L 29.657520294189453 16.17576789855957 C 25.645736694335938 16.388647079467773 20.13656997680664 16.56271743774414 17.41461181640625 16.56271743774414 L 12.465703010559082 16.56271743774414 L 12.342046737670898 18.227317810058594 C 11.488059043884277 29.72524642944336 11.000853538513184 43.76154708862305 10.791970252990723 62.886207580566406 C 10.715683937072754 69.88838195800781 10.596212387084961 73.61080932617188 10.383334159851074 75.62678527832031 C 10.0 79.25885009765625 10.099495887756348 82.13680267333984 10.650812149047852 83.37432098388672 C 12.836291313171387 88.2787094116211 22.38026237487793 90.0 40.90052795410156 88.83002471923828 C 44.35567092895508 88.61181640625 49.11928176879883 88.68449401855469 55.69075012207031 89.05583953857422 C 62.391204833984375 89.43441772460938 67.38557434082031 88.87568664550781 70.24317932128906 87.42776489257812 C 73.36692810058594 85.84477996826172 75.35797882080078 80.9453353881836 76.15888977050781 72.87059020996094 C 76.45565795898438 69.8792495727539 76.46403503417969 61.58667755126953 76.17448425292969 57.464359283447266 C 75.97834777832031 54.66973114013672 75.80751037597656 47.7259635925293 75.4749755859375 29.02345085144043 C 75.32221221923828 20.424402236938477 75.24726104736328 19.455890655517578 74.69194793701172 18.900577545166016 C 73.4879150390625 17.696739196777344 69.8636474609375 16.637672424316406 65.1076431274414 16.100242614746094 C 61.98408889770508 15.747346878051758 54.82439422607422 15.422225952148438 50.16141891479492 15.421655654907227 L 46.724727630615234 15.42127513885498 L 46.427001953125 16.039554595947266" stroke-width="1.0" fill="rgb(254, 226, 221)" opacity="1.0"/>
    <path d="M 36.28624725341797 22.853199005126953 C 34.402870178222656 22.925870895385742 29.335824966430664 23.052000045776367 25.026123046875 23.1334228515625 L 17.190319061279297 23.281810760498047 L 17.085115432739258 23.964771270751953 C 16.92169952392578 25.024028778076172 16.436397552490234 30.954769134521484 16.21952247619629 34.54041290283203 C 16.112037658691406 36.31916046142578 15.937586784362793 41.926490783691406 15.832003593444824 47.00114822387695 C 15.701118469238281 53.29562759399414 15.544170379638672 56.96345901489258 15.337949752807617 58.542449951171875 C 15.168255805969238 59.84197998046875 15.092920303344727 61.1959228515625 15.166162490844727 61.62948226928711 C 15.554443359375 63.927581787109375 17.886978149414062 65.17536926269531 23.273441314697266 65.96620178222656 C 25.509523391723633 66.29454803466797 25.674842834472656 66.2970199584961 45.6080207824707 66.28998565673828 C 49.37477493286133 66.28865051269531 54.63967514038086 66.28713989257812 57.30779266357422 66.28636932373047 C 62.6056022644043 66.28523254394531 64.66438293457031 66.03829956054688 66.56393432617188 65.17613220214844 C 69.04942321777344 64.0481948852539 70.60597229003906 61.06941604614258 71.18771362304688 56.32786560058594 C 71.43293762207031 54.329200744628906 71.43788146972656 50.50898742675781 71.197998046875 48.237709045410156 C 71.09849548339844 47.2960205078125 70.88276672363281 41.688690185546875 70.71858215332031 35.7769775390625 C 70.42866516113281 25.344585418701172 70.40830993652344 25.01870346069336 70.02783203125 24.6973876953125 C 69.04371643066406 23.866228103637695 65.33859252929688 23.176227569580078 60.06951141357422 22.842735290527344 C 56.76884460449219 22.633853912353516 41.80854034423828 22.64051055908203 36.28624725341797 22.853199005126953" stroke-width="1.0" fill="rgb(118, 167, 223)" opacity="1.0"/>
    <path d="M 43.46952819824219 10.469132423400879 C 43.025699615478516 10.670597076416016 42.32865905761719 11.196990966796875 41.92078399658203 11.638729095458984 L 41.17903518676758 12.442113876342773 L 40.219276428222656 12.029292106628418 C 37.83042907714844 11.001614570617676 35.42597961425781 11.96042537689209 35.877803802490234 13.760478019714355 C 36.075653076171875 14.548453330993652 37.157737731933594 15.970878601074219 38.067657470703125 16.638813018798828 C 39.44176483154297 17.6474666595459 42.21965026855469 19.035839080810547 42.86361312866211 19.035839080810547 C 43.6860237121582 19.035839080810547 44.399993896484375 18.610652923583984 45.32817840576172 17.56794548034668 C 47.6114387512207 15.002937316894531 47.90250778198242 11.418811798095703 45.91126251220703 10.38923168182373 C 45.15867233276367 10.0 44.452117919921875 10.023209571838379 43.46952819824219 10.469132423400879" stroke-width="1.0" fill="rgb(246, 111, 108)" opacity="1.0"/>
    <path d="M 16.02566909790039 63.55204772949219 L 16.40614891052246 63.93252944946289 L 16.02566909790039 63.55204772949219 L 15.645187377929688 63.17156982421875 L 16.02566909790039 63.55204772949219" stroke-width="1.0" fill="rgb(193, 200, 222)" opacity="1.0"/>
  </g>
</svg>
