<?xml version="1.0" ?>
<svg xmlns="http://www.w3.org/2000/svg" version="1.1" width="100" height="100">
  <defs/>
  <g>
    <path d="M 79.07209777832031 14.248971939086914 C 77.3994140625 14.847704887390137 75.7967758178711 16.13883399963379 73.60310363769531 18.65475845336914 L 73.20443725585938 19.1120662689209 L 72.42434692382812 18.266704559326172 C 71.99542236328125 17.801700592041016 71.07272338867188 16.964828491210938 70.37395477294922 16.406957626342773 C 69.16932678222656 15.445243835449219 67.236083984375 14.15106201171875 67.00404357910156 14.15106201171875 C 66.73419952392578 14.15106201171875 67.37484741210938 19.885391235351562 67.91561126708984 22.31017303466797 C 68.39852142333984 24.47532081604004 68.7837905883789 25.60340118408203 70.61090087890625 30.203943252563477 C 72.36371612548828 34.61729431152344 73.7215805053711 37.63337707519531 73.95573425292969 37.63337707519531 C 74.0330810546875 37.63337707519531 74.23115539550781 37.42521667480469 74.39606475830078 37.17062759399414 C 74.56083679199219 36.916168212890625 74.7423324584961 36.707218170166016 74.79911041259766 36.7062873840332 C 74.85602569580078 36.70549011230469 75.211181640625 36.94867706298828 75.5883560180664 37.24678039550781 C 77.49559783935547 38.754425048828125 79.75494384765625 39.2735595703125 82.18423461914062 38.76264953613281 C 82.70057678222656 38.65399169921875 83.40969848632812 38.41983413696289 83.76020050048828 38.242191314697266 C 85.53411102294922 37.343360900878906 86.42630767822266 35.18006896972656 86.0621337890625 32.66122817993164 C 85.97245025634766 32.0410041809082 85.86883544921875 31.454740524291992 85.83182525634766 31.358423233032227 C 85.79109191894531 31.252288818359375 86.0410385131836 31.004995346069336 86.465576171875 30.73130226135254 C 88.92564392089844 29.145381927490234 90.0 26.44597816467285 89.27881622314453 23.66272735595703 C 88.88067626953125 22.126028060913086 87.49508666992188 20.622629165649414 86.11400604248047 20.22860336303711 C 85.33325958251953 20.00585174560547 85.24290466308594 19.897064208984375 85.24290466308594 19.179195404052734 C 85.24290466308594 18.41356658935547 84.75242614746094 17.037132263183594 84.18633270263672 16.214454650878906 C 82.97122955322266 14.448240280151367 80.822265625 13.622379302978516 79.07209777832031 14.248971939086914" stroke-width="1.0" fill="rgb(253, 211, 125)" opacity="1.0"/>
    <path d="M 18.06093406677246 14.205191612243652 C 16.150508880615234 14.918549537658691 14.58502197265625 17.025588989257812 14.429666519165039 19.093093872070312 L 14.36227035522461 19.988739013671875 L 13.73315715789795 20.175670623779297 C 12.029561996459961 20.681533813476562 10.784733772277832 22.032760620117188 10.35926628112793 23.83771514892578 C 10.0 25.36220932006836 10.173928260803223 26.955425262451172 10.8427095413208 28.266321182250977 C 11.198526382446289 28.963891983032227 12.408329963684082 30.22410774230957 13.22583293914795 30.748680114746094 C 13.673588752746582 31.036041259765625 13.854681015014648 31.23212432861328 13.809839248657227 31.38111114501953 C 13.470474243164062 32.507469177246094 13.492629051208496 34.63679504394531 13.856538772583008 35.880165100097656 C 14.281209945678711 37.33115768432617 15.574064254760742 38.366634368896484 17.45503807067871 38.76225280761719 C 20.295469284057617 39.35979080200195 22.785125732421875 38.587127685546875 25.123273849487305 36.38257598876953 C 25.754243850708008 35.787559509277344 25.848970413208008 35.738739013671875 25.985618591308594 35.937477111816406 C 26.06999397277832 36.060325622558594 26.430057525634766 36.61700439453125 26.785741806030273 37.17461013793945 C 27.514488220214844 38.3171501159668 29.35512924194336 40.303592681884766 30.68897819519043 41.38683319091797 C 31.69659423828125 42.20526123046875 33.136314392089844 43.21752166748047 33.200923919677734 43.152915954589844 C 33.22453689575195 43.12929916381836 33.065467834472656 42.625953674316406 32.84735870361328 42.03451919555664 C 31.95211410522461 39.60628890991211 30.871397018432617 35.527793884277344 30.134424209594727 31.79596519470215 C 29.613037109375 29.155729293823242 28.85297966003418 24.396249771118164 28.767940521240234 23.238849639892578 C 28.72495460510254 22.655109405517578 28.646282196044922 22.117801666259766 28.593082427978516 22.04483413696289 C 28.539749145507812 21.971866607666016 28.391559600830078 21.31515884399414 28.263668060302734 20.585481643676758 C 28.135906219482422 19.855804443359375 28.01093292236328 19.236377716064453 27.98612403869629 19.20891571044922 C 27.961315155029297 19.181583404541016 27.781946182250977 19.348217010498047 27.58745574951172 19.57932472229004 C 27.392963409423828 19.81043243408203 27.189451217651367 19.98223876953125 27.135189056396484 19.960880279541016 C 27.080795288085938 19.939517974853516 26.67536163330078 19.471731185913086 26.233972549438477 18.921157836914062 C 24.544042587280273 16.812789916992188 22.944591522216797 15.381959915161133 21.352306365966797 14.553579330444336 C 20.371885299682617 14.043733596801758 18.908554077148438 13.888776779174805 18.06093406677246 14.205191612243652" stroke-width="1.0" fill="rgb(253, 211, 125)" opacity="1.0"/>
    <path d="M 43.518680572509766 10.707255363464355 C 42.49713134765625 10.918463706970215 41.153865814208984 11.24708366394043 40.53363800048828 11.437461853027344 C 39.913414001464844 11.627974510192871 39.18214416503906 11.851122856140137 38.908451080322266 11.933509826660156 C 38.30308532714844 12.115663528442383 38.30653381347656 12.06856632232666 38.6822509765625 15.013407707214355 C 39.827178955078125 23.990283966064453 40.65251159667969 28.27560806274414 42.240020751953125 33.48629379272461 C 43.67721939086914 38.2039794921875 45.17823028564453 41.75657653808594 47.54397201538086 46.04043960571289 L 48.560081481933594 47.88042068481445 L 51.21344757080078 47.80426788330078 C 53.85275650024414 47.72864532470703 56.29411697387695 47.50762176513672 56.490333557128906 47.32666015625 C 56.5469856262207 47.27452087402344 56.28204345703125 46.669158935546875 55.901817321777344 45.981536865234375 C 53.24407196044922 41.175621032714844 50.498497009277344 33.54002380371094 48.77341079711914 26.157556533813477 C 47.58589553833008 21.07569122314453 46.967132568359375 17.140480041503906 46.43181228637695 11.265523910522461 L 46.344120025634766 10.303678512573242 L 45.86014175415039 10.313363075256348 C 45.59387969970703 10.318801879882812 44.54022979736328 10.496047019958496 43.518680572509766 10.707255363464355" stroke-width="1.0" fill="rgb(253, 211, 125)" opacity="1.0"/>
    <path d="M 48.493743896484375 10.420161247253418 C 48.493743896484375 11.238592147827148 49.03569412231445 16.103675842285156 49.353172302246094 18.136024475097656 C 50.5690803527832 25.918222427368164 52.913856506347656 34.27116012573242 55.67402648925781 40.653175354003906 C 56.41431427001953 42.36473083496094 58.323150634765625 46.151222229003906 58.681617736816406 46.61901092529297 L 58.90821838378906 46.914859771728516 L 60.0359001159668 46.596588134765625 C 61.67183303833008 46.13490295410156 64.546630859375 45.112030029296875 64.546630859375 44.991695404052734 C 64.546630859375 44.971134185791016 64.15287017822266 44.30699920654297 63.67154312133789 43.516029357910156 C 60.530487060546875 38.353370666503906 58.099342346191406 31.193252563476562 56.72449493408203 23.055768966674805 C 56.13199996948242 19.549209594726562 55.53499221801758 13.673588752746582 55.527957916259766 11.279454231262207 L 55.52517318725586 10.331538200378418 L 54.96133041381836 10.25551986694336 C 54.651283264160156 10.213861465454102 53.0692138671875 10.139168739318848 51.44561767578125 10.089816093444824 L 48.493743896484375 10.0 L 48.493743896484375 10.420161247253418" stroke-width="1.0" fill="rgb(253, 211, 125)" opacity="1.0"/>
    <path d="M 34.818946838378906 13.729575157165527 C 33.36304473876953 14.523728370666504 31.231990814208984 15.954557418823242 30.400423049926758 16.696439743041992 L 29.753135681152344 17.274078369140625 L 30.16440773010254 19.394119262695312 C 30.58430290222168 21.558738708496094 30.668149948120117 22.059825897216797 31.38628387451172 26.688230514526367 C 32.456787109375 33.588314056396484 33.89862823486328 39.25471496582031 35.65184020996094 43.451419830322266 L 36.22337341308594 44.819759368896484 L 37.42097473144531 45.330135345458984 C 39.48966979980469 46.21158218383789 42.802005767822266 47.11293411254883 45.398460388183594 47.50059127807617 L 45.951419830322266 47.5832405090332 L 45.21033477783203 46.2235221862793 C 41.61674499511719 39.63096618652344 38.96205139160156 31.403532028198242 37.62249755859375 22.708175659179688 C 37.25075912475586 20.295337677001953 36.709739685058594 16.34725570678711 36.51365661621094 14.616596221923828 C 36.389076232910156 13.516907691955566 36.300323486328125 13.152467727661133 36.152530670166016 13.133893966674805 C 36.0447998046875 13.12022876739502 35.444610595703125 13.388351440429688 34.818946838378906 13.729575157165527" stroke-width="1.0" fill="rgb(253, 211, 125)" opacity="1.0"/>
    <path d="M 57.648399353027344 11.462006568908691 C 57.64919662475586 12.522027015686035 57.876190185546875 15.578177452087402 58.119239807128906 17.7994441986084 C 59.29441833496094 28.540813446044922 62.2712287902832 37.90454864501953 66.41950988769531 43.90793228149414 C 66.64994812011719 44.24132537841797 69.88945007324219 42.01355743408203 71.88253021240234 40.15115737915039 L 72.52464294433594 39.551231384277344 L 71.91224670410156 38.46228790283203 C 71.0780258178711 36.978790283203125 70.40234375 35.425376892089844 68.45026397705078 30.5023136138916 C 66.73526000976562 26.177324295043945 66.20988464355469 24.588886260986328 65.73892211914062 22.304733276367188 C 65.3293685913086 20.318286895751953 64.94436645507812 17.108905792236328 64.85269165039062 14.918682098388672 L 64.77110290527344 12.966465950012207 L 63.63068389892578 12.4884614944458 C 62.46346664428711 11.999180793762207 59.93984603881836 11.192688941955566 58.852630615234375 10.961580276489258 C 58.518306732177734 10.890470504760742 58.11061477661133 10.801848411560059 57.946372985839844 10.764435768127441 C 57.66339111328125 10.700223922729492 57.64786911010742 10.73657512664795 57.648399353027344 11.462006568908691" stroke-width="1.0" fill="rgb(253, 211, 125)" opacity="1.0"/>
    <path d="M 47.233394622802734 10.160130500793457 L 46.43738555908203 10.237343788146973 L 46.47439956665039 11.232357025146484 C 46.748626708984375 18.598772048950195 49.4688606262207 30.737934112548828 52.672935485839844 38.89372634887695 C 54.23072814941406 42.85892105102539 56.42280578613281 47.318172454833984 56.814178466796875 47.318172454833984 C 56.91619873046875 47.318172454833984 57.249996185302734 47.26191711425781 57.555931091308594 47.193199157714844 C 57.86186218261719 47.12434387207031 58.27684783935547 47.033599853515625 58.47810745239258 46.99140930175781 L 58.8440055847168 46.91459655761719 L 58.43830871582031 46.22087097167969 C 58.21515655517578 45.839317321777344 57.655029296875 44.780887603759766 57.19361114501953 43.86879348754883 C 52.932037353515625 35.445274353027344 49.67675018310547 23.474071502685547 48.67045974731445 12.525874137878418 C 48.47875213623047 10.44085693359375 48.40843963623047 10.041923522949219 48.235572814941406 10.060629844665527 C 48.12214279174805 10.072967529296875 47.671199798583984 10.117676734924316 47.233394622802734 10.160130500793457" stroke-width="1.0" fill="rgb(246, 111, 108)" opacity="1.0"/>
    <path d="M 37.30448913574219 12.558245658874512 C 36.805389404296875 12.766402244567871 36.38018798828125 12.956117630004883 36.359493255615234 12.979998588562012 C 36.27166748046875 13.08122444152832 37.177791595458984 19.947479248046875 37.7502555847168 23.51944351196289 C 38.68318176269531 29.339874267578125 40.361568450927734 35.34431457519531 42.530033111572266 40.61841583251953 C 43.25639343261719 42.385162353515625 45.59281921386719 47.121822357177734 45.882564544677734 47.4151496887207 C 46.01775360107422 47.552066802978516 48.493743896484375 47.87325668334961 48.493743896484375 47.75398635864258 C 48.493743896484375 47.73223114013672 48.113250732421875 47.04315185546875 47.64811706542969 46.22272872924805 C 44.29611587524414 40.31009292602539 41.86470031738281 33.56018829345703 40.339149475097656 25.932418823242188 C 39.82452392578125 23.359445571899414 39.06195068359375 18.247068405151367 38.58686447143555 14.184229850769043 C 38.45671463012695 13.071539878845215 38.319007873535156 12.165281295776367 38.28105926513672 12.17032241821289 C 38.242984771728516 12.175497055053711 37.8035888671875 12.350088119506836 37.30448913574219 12.558245658874512" stroke-width="1.0" fill="rgb(246, 111, 108)" opacity="1.0"/>
    <path d="M 55.527957916259766 11.256635665893555 C 55.53499221801758 13.671466827392578 56.12934112548828 19.533687591552734 56.72449493408203 23.055768966674805 C 58.07718276977539 31.062440872192383 60.49453353881836 38.240333557128906 63.55479431152344 43.33811950683594 C 64.62503051757812 45.12065124511719 64.4886474609375 45.04158020019531 65.58223724365234 44.51396179199219 L 66.51051330566406 44.06620407104492 L 65.71530151367188 42.80664825439453 C 61.342552185058594 35.880165100097656 58.46895217895508 25.27783203125 57.7587776184082 13.450706481933594 C 57.6701545715332 11.975299835205078 57.5372200012207 10.727155685424805 57.46332550048828 10.67727279663086 C 57.38943099975586 10.627388954162598 57.02751159667969 10.54845142364502 56.65922164916992 10.501884460449219 C 56.29093551635742 10.455318450927734 55.88510513305664 10.387657165527344 55.75734329223633 10.351438522338867 C 55.551177978515625 10.293197631835938 55.52544021606445 10.394688606262207 55.527957916259766 11.256635665893555" stroke-width="1.0" fill="rgb(246, 111, 108)" opacity="1.0"/>
    <path d="M 64.85322570800781 14.980240821838379 C 65.00141906738281 18.37655258178711 65.58740997314453 22.15866470336914 66.40238952636719 24.979328155517578 C 67.29856872558594 28.080453872680664 71.8124771118164 38.836944580078125 72.43429565429688 39.35302734375 C 72.5523681640625 39.45093536376953 72.7772445678711 39.26374053955078 73.26731872558594 38.659568786621094 L 73.93875122070312 37.832115173339844 L 73.18745422363281 36.306556701660156 C 72.34965515136719 34.605613708496094 69.14810180664062 26.649490356445312 68.59632873535156 24.897205352783203 C 67.82393646240234 22.4448299407959 67.20145416259766 18.78583526611328 66.98652648925781 15.436089515686035 L 66.89445495605469 14.001544952392578 L 65.9892578125 13.545563697814941 C 65.49136352539062 13.294820785522461 65.01348876953125 13.089715003967285 64.92724609375 13.089715003967285 C 64.81037139892578 13.089715003967285 64.79153442382812 13.568913459777832 64.85322570800781 14.980240821838379" stroke-width="1.0" fill="rgb(246, 111, 108)" opacity="1.0"/>
    <path d="M 28.808137893676758 18.165742874145508 L 27.97272491455078 19.051834106445312 L 28.223468780517578 20.415666580200195 C 28.361310958862305 21.165773391723633 28.526216506958008 21.89889907836914 28.589765548706055 22.04483413696289 C 28.6533145904541 22.19076919555664 28.738618850708008 22.76734733581543 28.779348373413086 23.326013565063477 C 28.921171188354492 25.273189544677734 30.037839889526367 31.62721061706543 30.86224365234375 35.17900848388672 C 31.60611343383789 38.38361358642578 33.03216552734375 42.92538833618164 33.41014099121094 43.29340744018555 C 33.619224548339844 43.49705505371094 36.15557861328125 44.841915130615234 36.15557861328125 44.74917984008789 C 36.15557861328125 44.70964813232422 35.89170455932617 44.03276824951172 35.569053649902344 43.24485397338867 C 33.831363677978516 39.00092315673828 32.4474983215332 33.52383804321289 31.385751724243164 26.688230514526367 C 31.159021377563477 25.228878021240234 30.879356384277344 23.437854766845703 30.76433563232422 22.708175659179688 C 30.487985610961914 20.956554412841797 29.794925689697266 17.430892944335938 29.710283279418945 17.34638214111328 C 29.673534393310547 17.309633255004883 29.267568588256836 17.67831802368164 28.808137893676758 18.165742874145508" stroke-width="1.0" fill="rgb(246, 111, 108)" opacity="1.0"/>
  </g>
</svg>
