<?xml version="1.0" ?>
<svg xmlns="http://www.w3.org/2000/svg" version="1.1" width="100" height="100">
  <defs/>
  <g>
    <path d="M 66.87460327148438 18.1942138671875 C 66.69102478027344 18.23052978515625 66.09130859375 18.474849700927734 65.54192352294922 18.737060546875 C 63.816593170166016 19.560405731201172 62.69325256347656 20.976398468017578 62.309017181396484 22.81200408935547 C 62.22063064575195 23.23429298400879 62.10327911376953 23.57967758178711 62.048274993896484 23.57967758178711 C 61.99326705932617 23.57967758178711 61.68927001953125 23.404916763305664 61.37285232543945 23.191436767578125 C 60.704376220703125 22.740177154541016 59.4887809753418 22.310413360595703 58.51777648925781 22.181846618652344 C 56.82501983642578 21.957683563232422 54.7596435546875 22.796918869018555 53.46568298339844 24.23467254638672 C 52.277992248535156 25.55426788330078 52.16691207885742 25.971750259399414 52.086273193359375 29.420272827148438 C 51.95637130737305 34.973960876464844 52.50788879394531 38.354793548583984 54.09557342529297 41.73683166503906 C 54.44123077392578 42.473262786865234 55.693538665771484 44.390174865722656 56.36174392700195 45.20591354370117 C 57.569061279296875 46.67984390258789 59.89798355102539 48.45283508300781 61.66777420043945 49.24587631225586 C 62.6561393737793 49.68859100341797 64.1780014038086 50.137847900390625 65.11869812011719 50.26454544067383 C 65.65834045410156 50.33717727661133 66.12762451171875 50.42448806762695 66.16152954101562 50.45840072631836 C 66.28810119628906 50.584964752197266 66.38288879394531 65.50133514404297 66.25712585449219 65.50133514404297 C 66.18783569335938 65.50133514404297 65.95579528808594 65.12590789794922 65.74151611328125 64.66690063476562 C 64.45890045166016 61.9195671081543 62.22063064575195 59.61601257324219 59.61882019042969 58.365440368652344 C 58.001895904541016 57.588287353515625 56.97935485839844 57.3370246887207 55.11077117919922 57.25785446166992 C 53.2978630065918 57.181087493896484 51.85236358642578 57.42033386230469 50.402862548828125 58.03714370727539 C 49.33559799194336 58.491336822509766 47.89183807373047 59.421356201171875 47.31561279296875 60.02588653564453 L 46.91508865356445 60.44603729248047 L 46.929908752441406 62.072566986083984 C 46.94259262084961 63.461856842041016 46.997196197509766 63.854774475097656 47.3050651550293 64.76703643798828 C 48.01773452758789 66.87954711914062 49.385128021240234 68.78684997558594 50.987098693847656 69.90257263183594 C 51.24409866333008 70.08160400390625 51.48441696166992 70.26664733886719 51.5211296081543 70.31391143798828 C 51.738616943359375 70.59414672851562 54.52079772949219 71.88397216796875 55.39714813232422 72.11106872558594 C 56.80205535888672 72.47514343261719 58.37705612182617 72.70585632324219 59.47476577758789 72.70838928222656 C 61.224525451660156 72.7122573852539 63.69069290161133 72.29959106445312 65.51081848144531 71.69825744628906 C 65.82549285888672 71.59425354003906 66.14083862304688 71.50921630859375 66.21173095703125 71.50921630859375 C 66.292236328125 71.50921630859375 66.34056854248047 73.40596771240234 66.34056854248047 76.56624603271484 C 66.34056854248047 80.81355285644531 66.37140655517578 81.6487808227539 66.53349304199219 81.78336334228516 C 66.79983520507812 82.00431060791016 71.86555480957031 81.9258041381836 72.0938491821289 81.69711303710938 C 72.24484252929688 81.54585266113281 72.12882995605469 74.5106201171875 71.86795043945312 68.0046157836914 C 71.81401824951172 66.65939331054688 71.83377075195312 66.03536987304688 71.93016815185547 66.03536987304688 C 72.00787353515625 66.03536987304688 72.3890380859375 66.1528549194336 72.77728271484375 66.29637145996094 C 74.50688171386719 66.93601989746094 76.58200073242188 67.1211929321289 78.7079849243164 66.82546997070312 C 81.21902465820312 66.47621154785156 83.87664031982422 65.15220642089844 85.77832794189453 63.302982330322266 C 86.69259643554688 62.4139518737793 88.73140716552734 59.09546661376953 89.10309600830078 57.891353607177734 C 89.15970611572266 57.70777893066406 89.34861755371094 57.2603874206543 89.52271270751953 56.89711380004883 C 90.00000762939453 55.90154266357422 89.96983337402344 55.86175537109375 87.69097900390625 54.465126037597656 C 87.19219207763672 54.159523010253906 86.64521026611328 53.86674118041992 86.47537994384766 53.81467056274414 C 86.30555725097656 53.762603759765625 86.10649871826172 53.677555084228516 86.03306579589844 53.625755310058594 C 85.31773376464844 53.12109375 83.0607681274414 52.68412399291992 81.18470764160156 52.686790466308594 C 79.42826843261719 52.6893310546875 78.22909545898438 52.93845748901367 76.85783386230469 53.5855712890625 C 75.2071304321289 54.36445999145508 73.26551818847656 56.13825225830078 72.27034759521484 57.77653503417969 C 72.00894165039062 58.20683288574219 71.74886322021484 58.558895111083984 71.69252014160156 58.558895111083984 C 71.63604736328125 58.558895111083984 71.55113983154297 57.192169189453125 71.50387573242188 55.521575927734375 C 71.45661926269531 53.85111999511719 71.37864685058594 51.908973693847656 71.33058166503906 51.20578384399414 L 71.24313354492188 49.927303314208984 L 72.09625244140625 49.616764068603516 C 74.55548095703125 48.721458435058594 76.43928527832031 47.5256233215332 78.3018569946289 45.67733383178711 C 80.04601287841797 43.94639587402344 80.95867919921875 42.55830764770508 82.16519165039062 39.80095672607422 C 82.76358032226562 38.433563232421875 83.32311248779297 35.636962890625 83.55421447753906 32.8585205078125 C 83.71536254882812 30.921443939208984 83.47463989257812 26.84903335571289 83.09133911132812 25.02651023864746 C 82.85890197753906 23.921592712402344 82.28948974609375 22.630300521850586 81.7542495727539 21.99413299560547 C 81.2626724243164 21.409900665283203 80.03600311279297 20.60003662109375 79.23374938964844 20.32994842529297 C 77.45475006103516 19.731029510498047 75.8043212890625 20.223543167114258 74.37964630126953 21.778249740600586 C 73.92184448242188 22.277971267700195 73.52973175048828 22.662342071533203 73.50836944580078 22.632568359375 C 73.48701477050781 22.602798461914062 73.36084747314453 22.221630096435547 73.2280044555664 21.78559112548828 C 72.78903198242188 20.34436798095703 71.91668701171875 19.30193328857422 70.57438659667969 18.61423110961914 C 69.83568572998047 18.235736846923828 69.60645294189453 18.185937881469727 68.47669982910156 18.1585693359375 C 67.77912139892578 18.141746520996094 67.05818176269531 18.15776824951172 66.87460327148438 18.1942138671875" stroke-width="1.0" fill="rgb(81, 55, 54)" opacity="1.0"/>
    <path d="M 29.558988571166992 10.479162216186523 C 28.460214614868164 10.860328674316406 27.96877098083496 11.140830039978027 27.20096206665039 11.825194358825684 C 26.30565643310547 12.623174667358398 25.692184448242188 13.733831405639648 25.48284149169922 14.935674667358398 C 25.396595001220703 15.430990219116211 25.29286003112793 15.836189270019531 25.252273559570312 15.836189270019531 C 25.211687088012695 15.836189270019531 24.988994598388672 15.691732406616211 24.757492065429688 15.515100479125977 C 23.750837326049805 14.747293472290039 22.419891357421875 14.327276229858398 21.0211238861084 14.335954666137695 C 18.729984283447266 14.34997272491455 16.649921417236328 15.662227630615234 15.685457229614258 17.701969146728516 L 15.273584365844727 18.57311248779297 L 15.273584365844727 22.645118713378906 C 15.273584365844727 26.796031951904297 15.303089141845703 27.142887115478516 15.886521339416504 29.854578018188477 C 17.316797256469727 36.50276565551758 22.54966163635254 41.66900634765625 28.67676544189453 42.481807708740234 L 29.315736770629883 42.566585540771484 L 29.403852462768555 47.85926055908203 C 29.520137786865234 54.84949493408203 29.51519775390625 57.62433624267578 29.38649559020996 57.62433624267578 C 29.328418731689453 57.62433624267578 29.12201690673828 57.27894592285156 28.927894592285156 56.85666275024414 C 28.088525772094727 55.03026580810547 26.657983779907227 53.21868896484375 25.00568389892578 51.889347076416016 C 22.579967498779297 49.93798828125 19.320091247558594 49.04454803466797 16.20387077331543 49.477115631103516 C 15.004297256469727 49.643733978271484 13.180839538574219 50.25146484375 12.51609992980957 50.706459045410156 C 12.321178436279297 50.83983612060547 12.102224349975586 50.94891357421875 12.029595375061035 50.94891357421875 C 11.956833839416504 50.94891357421875 11.47046184539795 51.34596633911133 10.948711395263672 51.83113479614258 L 10.0 52.71335983276367 L 10.0 53.9117317199707 C 10.0 56.52328872680664 11.025344848632812 58.958885192871094 12.951204299926758 60.92172622680664 C 14.282550811767578 62.27870559692383 15.510026931762695 63.07748794555664 17.543228149414062 63.909912109375 C 19.075504302978516 64.53726959228516 21.56423568725586 64.8973388671875 23.555648803710938 64.77985382080078 C 25.212621688842773 64.68199157714844 27.309772491455078 64.27812957763672 29.19184112548828 63.694297790527344 L 29.49223518371582 63.60110855102539 L 29.49223518371582 68.67362976074219 C 29.49223518371582 73.04763793945312 29.520137786865234 73.76937866210938 29.69503402709961 73.91450500488281 C 29.99662971496582 74.16470336914062 35.073692321777344 74.02825164794922 35.25432586669922 73.76496887207031 C 35.384498596191406 73.57552337646484 35.36967468261719 72.66059112548828 35.083038330078125 63.1919059753418 C 35.00132751464844 60.489830017089844 34.96527862548828 58.24822235107422 35.0029296875 58.2104377746582 C 35.040714263916016 58.172786712646484 35.693702697753906 58.340206146240234 36.45403289794922 58.58266067504883 C 37.77082824707031 59.00240707397461 37.93490982055664 59.02336883544922 39.9058952331543 59.02470779418945 C 41.974876403808594 59.02617263793945 42.408912658691406 58.962890625 44.04465866088867 58.420711517333984 C 46.673973083496094 57.54930114746094 48.64455795288086 56.06281661987305 50.294189453125 53.7066650390625 C 51.32887649536133 52.2289924621582 53.072898864746094 48.46352005004883 52.922569274902344 48.03188705444336 C 52.753013610839844 47.54484558105469 50.084312438964844 46.03593444824219 48.31692886352539 45.42780303955078 C 43.286460876464844 43.69673538208008 38.41033172607422 45.3570442199707 35.4930419921875 49.7942008972168 C 35.177024841308594 50.274959564208984 34.87743377685547 50.64291000366211 34.827232360839844 50.6118049621582 C 34.736846923828125 50.55599594116211 34.594661712646484 47.18077087402344 34.538856506347656 43.764957427978516 L 34.50975036621094 41.988094329833984 L 35.40545654296875 41.675018310546875 C 36.5418815612793 41.27796173095703 37.89125061035156 40.593196868896484 39.1278076171875 39.78586959838867 C 40.00028610229492 39.21645736694336 42.248435974121094 37.12157440185547 42.91490936279297 36.257110595703125 C 44.18363571166992 34.61148452758789 45.079078674316406 32.82207107543945 45.81818389892578 30.455366134643555 C 46.40535354614258 28.574766159057617 46.71482467651367 26.129823684692383 46.71482467651367 23.37020492553711 C 46.71482467651367 19.993640899658203 46.33619689941406 16.797849655151367 45.81257629394531 15.754615783691406 C 45.743019104003906 15.615900039672852 45.57866668701172 15.279058456420898 45.44756317138672 15.006166458129883 C 44.8700065612793 13.804990768432617 43.29313659667969 12.653614044189453 41.808387756347656 12.349081039428711 C 41.12976837158203 12.209965705871582 40.81922912597656 12.209965705871582 40.1450080871582 12.349214553833008 C 39.00083923339844 12.585525512695312 38.643836975097656 12.798738479614258 37.62690353393555 13.852653503417969 C 37.14106750488281 14.356114387512207 36.7111701965332 14.768121719360352 36.671653747558594 14.768121719360352 C 36.63213348388672 14.768121719360352 36.52973175048828 14.489755630493164 36.44402313232422 14.149442672729492 C 36.131744384765625 12.908882141113281 35.21026611328125 11.62186050415039 34.16503143310547 10.966334342956543 C 32.96625900268555 10.21428108215332 30.940134048461914 10.0 29.558988571166992 10.479162216186523" stroke-width="1.0" fill="rgb(81, 55, 54)" opacity="1.0"/>
    <path d="M 30.346954345703125 11.36031723022461 C 28.20054054260254 11.831201553344727 26.85544204711914 13.147995948791504 26.46986961364746 15.155962944030762 C 26.29564094543457 16.062885284423828 26.38348960876465 17.173274993896484 26.701507568359375 18.085407257080078 C 26.815658569335938 18.413036346435547 26.81085205078125 18.559226989746094 26.68094825744629 18.715831756591797 C 26.356521606445312 19.106746673583984 25.97442054748535 18.88231658935547 25.589515686035156 18.074859619140625 C 25.106884002685547 17.062196731567383 24.31891632080078 16.298261642456055 23.235361099243164 15.79279899597168 C 22.443523406982422 15.423380851745605 22.214954376220703 15.379055976867676 21.08120346069336 15.375584602355957 C 19.90192222595215 15.371979713439941 19.749187469482422 15.403621673583984 18.905548095703125 15.825508117675781 C 17.729339599609375 16.41387939453125 16.825220108032227 17.384754180908203 16.50373077392578 18.40475845336914 C 16.30400276184082 19.038522720336914 16.267688751220703 19.679763793945312 16.26608657836914 22.6011962890625 C 16.264217376708984 26.221677780151367 16.41895294189453 27.88092041015625 16.961265563964844 30.054840087890625 C 18.3680419921875 35.69490432739258 22.55593490600586 40.078922271728516 27.664770126342773 41.25967025756836 C 29.198116302490234 41.6140022277832 29.212800979614258 41.5970458984375 28.318828582763672 40.50187683105469 C 27.1064395904541 39.01673126220703 26.340232849121094 37.8155517578125 25.486713409423828 36.062721252441406 C 24.450687408447266 33.93512725830078 23.830007553100586 32.033836364746094 23.503578186035156 29.988086700439453 C 23.181957244873047 27.973308563232422 23.204254150390625 27.79414176940918 23.766456604003906 27.87371253967285 C 24.056171417236328 27.914566040039062 24.099428176879883 28.015766143798828 24.24174690246582 28.986772537231445 C 24.92184066772461 33.62552261352539 26.714191436767578 37.459083557128906 29.732816696166992 40.732177734375 C 30.114784240722656 41.146324157714844 30.4804630279541 41.452457427978516 30.54534912109375 41.412269592285156 C 30.67205047607422 41.33403778076172 30.889400482177734 39.67332458496094 31.096872329711914 37.197540283203125 C 31.355878829956055 34.107357025146484 31.17724609375 29.252988815307617 30.69020652770996 26.142240524291992 C 30.519182205200195 25.050540924072266 30.568714141845703 24.781253814697266 30.94026756286621 24.781253814697266 C 31.355745315551758 24.781253814697266 31.447200775146484 25.03131675720215 31.672826766967773 26.78388214111328 C 32.213539123535156 30.986330032348633 32.24211120605469 35.91252136230469 31.747594833374023 39.69775390625 C 31.668689727783203 40.3018798828125 31.6275691986084 40.866756439208984 31.656272888183594 40.9528694152832 C 31.68511199951172 41.03911590576172 32.09832000732422 40.72496795654297 32.574676513671875 40.25502014160156 C 34.84151840209961 38.01848602294922 36.628929138183594 35.15873718261719 37.62517166137695 32.17455291748047 C 38.09552001953125 30.765504837036133 38.57080841064453 28.511348724365234 38.57080841064453 27.689603805541992 C 38.57080841064453 27.00630760192871 38.813392639160156 26.6007080078125 39.1804084777832 26.670400619506836 C 39.55757141113281 26.741960525512695 39.57466125488281 27.539274215698242 39.239418029785156 29.416536331176758 C 38.51687240600586 33.462642669677734 36.58887481689453 37.30608367919922 33.78466796875 40.29066467285156 C 32.81459045410156 41.323219299316406 32.80858612060547 41.33403778076172 33.250633239746094 41.25299835205078 C 34.89331817626953 40.951934814453125 37.43812561035156 39.76451110839844 39.0934944152832 38.52675247192383 C 44.11528015136719 34.77169418334961 46.285064697265625 28.761545181274414 45.598426818847656 20.508983612060547 C 45.287357330322266 16.77088165283203 44.88856506347656 15.453954696655273 43.758548736572266 14.433015823364258 C 42.83360290527344 13.59738540649414 42.24296188354492 13.37242317199707 40.964080810546875 13.369219779968262 C 39.92164611816406 13.366549491882324 39.7618408203125 13.40206241607666 39.17533874511719 13.766807556152344 C 38.34691619873047 14.28201675415039 37.57950973510742 15.375051498413086 37.10755920410156 16.712139129638672 C 36.681663513183594 17.918920516967773 36.451229095458984 18.149490356445312 36.04202651977539 17.779136657714844 C 35.82013702392578 17.578340530395508 35.76713180541992 17.368865966796875 35.76713180541992 16.691978454589844 C 35.76713180541992 15.546875953674316 35.435630798339844 14.063196182250977 35.001461029052734 13.265483856201172 C 34.136993408203125 11.677133560180664 32.310462951660156 10.929486274719238 30.346954345703125 11.36031723022461" stroke-width="1.0" fill="rgb(254, 194, 194)" opacity="1.0"/>
    <path d="M 66.87460327148438 19.348663330078125 C 65.36021423339844 19.787372589111328 64.27532958984375 20.684947967529297 63.70564651489258 21.97063446044922 C 63.317138671875 22.847652435302734 63.183231353759766 24.215045928955078 63.404449462890625 25.04827117919922 C 63.68802261352539 26.115806579589844 63.71072006225586 26.584152221679688 63.488162994384766 26.76892852783203 C 63.11500549316406 27.078535079956055 62.8140754699707 26.869461059570312 62.38017272949219 25.998985290527344 C 62.14760208129883 25.53264045715332 61.7570915222168 24.944135665893555 61.51223373413086 24.691268920898438 C 60.91932678222656 24.079133987426758 59.65673828125 23.473005294799805 58.63005828857422 23.307588577270508 C 56.694583892822266 22.99597930908203 54.497703552246094 24.06845474243164 53.64391326904297 25.741981506347656 C 53.28571319580078 26.444103240966797 53.12523651123047 27.985992431640625 53.1254997253418 30.722381591796875 C 53.126033782958984 37.219970703125 54.50397872924805 41.56781005859375 57.63688659667969 44.95732116699219 C 59.86233901977539 47.365013122558594 63.06293869018555 49.016510009765625 66.06700897216797 49.307159423828125 L 66.92827606201172 49.39046859741211 L 66.14364624023438 48.46738815307617 C 63.5036506652832 45.36198425292969 61.69447708129883 41.28089904785156 61.13187026977539 37.161495208740234 C 60.96097946166992 35.91092300415039 61.04201889038086 35.59544372558594 61.534263610839844 35.59544372558594 C 61.9135627746582 35.59544372558594 62.02971649169922 35.86192321777344 62.19313049316406 37.10662078857422 C 62.64411926269531 40.542327880859375 64.16291809082031 44.19685363769531 66.289306640625 46.963016510009766 C 67.20103454589844 48.149105072021484 68.23973083496094 49.23733139038086 68.34812927246094 49.120113372802734 C 68.40260314941406 49.06123352050781 68.55387878417969 48.0217399597168 68.68417358398438 46.810150146484375 C 69.03877258300781 43.51596450805664 69.00953674316406 38.82621383666992 68.61328125 35.4146728515625 C 68.35267639160156 33.170528411865234 68.33384704589844 32.7461051940918 68.49125671386719 32.646507263183594 C 69.10526275634766 32.25759506225586 69.29203796386719 32.593772888183594 69.5852279663086 34.61415100097656 C 69.81166076660156 36.17406463623047 69.8554458618164 37.20435333251953 69.86599731445312 41.202796936035156 C 69.87493896484375 44.58002471923828 69.82540893554688 46.317771911621094 69.69390106201172 47.248592376708984 C 69.59230041503906 47.96686553955078 69.55398559570312 48.597694396972656 69.60885620117188 48.650428771972656 C 69.6635971069336 48.703033447265625 70.18453979492188 48.2353515625 70.76651000976562 47.611202239990234 C 73.84107208251953 44.31380844116211 75.70925903320312 40.406951904296875 76.22500610351562 36.19622802734375 C 76.40790557861328 34.7021369934082 76.51925659179688 34.39386749267578 76.8761215209961 34.39386749267578 C 77.52310180664062 34.39386749267578 77.55487823486328 35.22455596923828 77.01056671142578 37.91047668457031 C 76.63941192626953 39.741947174072266 76.19883728027344 41.010948181152344 75.28817749023438 42.87165069580078 C 74.34066009521484 44.80805587768555 73.4864730834961 46.12111282348633 72.22454833984375 47.58156204223633 C 71.70280456542969 48.18528366088867 71.32563781738281 48.67926788330078 71.38639068603516 48.67926788330078 C 71.44712829589844 48.67926788330078 71.87528991699219 48.530941009521484 72.33790588378906 48.34963607788086 C 75.89282989501953 46.95647430419922 79.12574005126953 43.91635513305664 80.68058013916016 40.504547119140625 C 81.59644317626953 38.49457550048828 82.13408660888672 36.35203552246094 82.37226867675781 33.76170349121094 C 82.65316772460938 30.707963943481445 82.29537200927734 25.684707641601562 81.67962646484375 24.039215087890625 C 81.14599609375 22.612945556640625 79.64896392822266 21.401355743408203 78.21173858642578 21.23273468017578 C 76.3227310180664 21.011110305786133 74.95213317871094 22.113489151000977 74.04934692382812 24.58005714416504 C 73.63507080078125 25.711809158325195 73.58673858642578 25.782569885253906 73.22706604003906 25.782569885253906 C 73.01679992675781 25.782569885253906 72.79904174804688 25.69244956970215 72.74310302734375 25.582305908203125 C 72.68716430664062 25.47216033935547 72.57835388183594 24.746143341064453 72.50131225585938 23.968856811523438 C 72.42414855957031 23.191570281982422 72.23616790771484 22.221363067626953 72.08329772949219 21.81296157836914 C 71.73524475097656 20.882675170898438 70.96783447265625 19.99938201904297 70.1549072265625 19.5933837890625 C 69.38509368896484 19.208879470825195 67.77244567871094 19.08858871459961 66.87460327148438 19.348663330078125" stroke-width="1.0" fill="rgb(204, 226, 247)" opacity="1.0"/>
    <path d="M 52.88799285888672 58.430992126464844 C 51.126747131347656 58.747276306152344 49.14027404785156 59.7109375 48.317596435546875 60.64789962768555 L 47.8818244934082 61.144283294677734 L 47.96980667114258 62.31061553955078 C 48.14496994018555 64.63139343261719 48.88113784790039 66.28382873535156 50.51340866088867 68.02076721191406 C 53.19466018676758 70.87371826171875 57.40578079223633 72.0687484741211 62.26856231689453 71.35675048828125 C 63.321144104003906 71.20254516601562 65.94271850585938 70.48841094970703 66.12802124023438 70.30523681640625 C 66.29143524169922 70.1435546875 65.14753723144531 68.82048797607422 64.28587341308594 68.17457580566406 C 62.70072937011719 66.98622131347656 60.892757415771484 66.23042297363281 58.049560546875 65.56781768798828 C 56.080848693847656 65.10881805419922 55.926910400390625 65.04326629638672 55.926910400390625 64.66304016113281 C 55.926910400390625 64.27986145019531 56.160282135009766 64.032470703125 56.52102279663086 64.03340911865234 C 56.6716194152832 64.0338134765625 57.618595123291016 64.2402114868164 58.625648498535156 64.49214172363281 C 61.50569534301758 65.21228790283203 63.51966857910156 66.10305786132812 65.10908508300781 67.359375 L 65.77676391601562 67.88726806640625 L 65.54672241210938 67.12733459472656 C 64.28373718261719 62.95613098144531 61.24802017211914 59.78556823730469 57.462257385253906 58.68412399291992 C 56.38124084472656 58.36957931518555 53.97208023071289 58.2362060546875 52.88799285888672 58.430992126464844" stroke-width="1.0" fill="rgb(92, 193, 153)" opacity="1.0"/>
    <path d="M 15.740863800048828 50.630760192871094 C 14.087761878967285 50.990966796875 12.8090181350708 51.60029983520508 11.699028968811035 52.55635452270508 L 11.03055191040039 53.13217544555664 L 11.10892105102539 54.41666030883789 C 11.463920593261719 60.2452392578125 17.08102035522461 64.21351623535156 24.151897430419922 63.63114929199219 C 26.15305519104004 63.46639633178711 29.201988220214844 62.70072937011719 29.32481575012207 62.33210754394531 C 29.35138511657715 62.25227355957031 28.934303283691406 61.74253845214844 28.397998809814453 61.19929122924805 C 26.752641677856445 59.53270721435547 24.761497497558594 58.563297271728516 21.206832885742188 57.69843292236328 C 20.19190216064453 57.451438903808594 19.29779624938965 57.210060119628906 19.219959259033203 57.16199493408203 C 19.00714874267578 57.03035354614258 19.050138473510742 56.47909927368164 19.288850784301758 56.28097152709961 C 19.463481903076172 56.13611602783203 19.729028701782227 56.15707778930664 20.857574462890625 56.40500259399414 C 23.790889739990234 57.04971694946289 26.467601776123047 58.12645721435547 27.95688819885254 59.261016845703125 C 28.3974666595459 59.596656799316406 28.777162551879883 59.85219192504883 28.800662994384766 59.828826904296875 C 28.891311645507812 59.73857498168945 28.286787033081055 58.009239196777344 27.88265609741211 57.20284652709961 C 26.089237213134766 53.62322235107422 23.179954528808594 51.274539947509766 19.729162216186523 50.619815826416016 C 18.421314239501953 50.37175369262695 16.910531997680664 50.37589645385742 15.740863800048828 50.630760192871094" stroke-width="1.0" fill="rgb(92, 193, 153)" opacity="1.0"/>
    <path d="M 42.042030334472656 46.12792205810547 C 40.76702117919922 46.46409606933594 39.958900451660156 46.86622619628906 38.84663772583008 47.7181396484375 C 37.61769104003906 48.659244537353516 36.46204376220703 50.09339141845703 35.778079986572266 51.526466369628906 C 35.180763244628906 52.7778434753418 34.96607971191406 53.66874694824219 34.96607971191406 54.896488189697266 L 34.96607971191406 55.760154724121094 L 35.83522033691406 54.83894729614258 C 37.4678955078125 53.10814666748047 39.66651153564453 51.8643798828125 42.00891876220703 51.346500396728516 C 43.4449348449707 51.02888488769531 44.22222137451172 51.012062072753906 44.50245666503906 51.29216384887695 C 44.76306915283203 51.55290222167969 44.76319885253906 51.61765670776367 44.50432586669922 51.98720932006836 C 44.33890914916992 52.22351837158203 44.16654968261719 52.28399658203125 43.65788269042969 52.28399658203125 C 42.110652923583984 52.28399658203125 39.53514099121094 53.2763671875 37.9580078125 54.480079650878906 C 37.13359069824219 55.10943603515625 35.474082946777344 56.94010543823242 35.57701873779297 57.106719970703125 C 35.60972595214844 57.159725189208984 36.01131820678711 57.32634353637695 36.469520568847656 57.4769401550293 C 39.20283889770508 58.376121520996094 42.541351318359375 58.11591339111328 45.15985107421875 56.79978561401367 C 47.78943634033203 55.47805404663086 49.369110107421875 53.68730163574219 51.00204849243164 50.17709732055664 L 51.79188919067383 48.47900390625 L 51.42287063598633 48.17794418334961 C 50.91259765625 47.76166534423828 49.136268615722656 46.84846496582031 48.214393615722656 46.52845001220703 C 46.24327087402344 45.84421920776367 43.73518371582031 45.68146896362305 42.042030334472656 46.12792205810547" stroke-width="1.0" fill="rgb(92, 193, 153)" opacity="1.0"/>
    <path d="M 79.22413635253906 53.88315963745117 C 76.7216567993164 54.43428039550781 74.30635070800781 56.32449722290039 72.90824890136719 58.82591247558594 C 72.2437744140625 60.01480484008789 71.81441497802734 61.51810836791992 71.81441497802734 62.655601501464844 L 71.81441497802734 63.647438049316406 L 72.57354736328125 62.827423095703125 C 74.57563781738281 60.66498947143555 77.50508117675781 59.19025802612305 80.17724609375 58.99946975708008 C 81.1919174194336 58.92697525024414 81.27415466308594 58.940860748291016 81.41700744628906 59.207611083984375 C 81.66960906982422 59.67969512939453 81.39578247070312 59.99851608276367 80.65895080566406 60.08983612060547 C 78.33403778076172 60.37794876098633 76.25330352783203 61.219451904296875 74.58631896972656 62.54585647583008 C 73.66097259521484 63.282291412353516 72.48196411132812 64.6240463256836 72.48196411132812 64.94086456298828 C 72.48196411132812 65.12043762207031 73.88379669189453 65.56889343261719 75.11634826660156 65.7835693359375 C 76.42192840576172 66.01093292236328 78.56767272949219 65.85980224609375 80.00703430175781 65.43911743164062 C 83.83432006835938 64.3203125 86.19380950927734 61.99046325683594 88.15544891357422 57.39296340942383 L 88.62446594238281 56.29378890991211 L 88.06306457519531 55.90888595581055 C 86.87831115722656 55.09675216674805 85.8904800415039 54.638954162597656 84.23070526123047 54.13282012939453 C 83.251953125 53.83443069458008 80.1484146118164 53.67969512939453 79.22413635253906 53.88315963745117" stroke-width="1.0" fill="rgb(92, 193, 153)" opacity="1.0"/>
    <path d="M 68.4889907836914 50.45546340942383 L 67.23307800292969 50.588706970214844 L 67.32052612304688 54.47366714477539 C 67.36871337890625 56.6104736328125 67.40823364257812 63.42808151245117 67.40837097167969 69.62407684326172 L 67.40863800048828 80.8896484375 L 69.21019744873047 80.82850646972656 C 70.20097351074219 80.79499816894531 71.04994201660156 80.72917938232422 71.0966796875 80.68244171142578 C 71.14340209960938 80.6357192993164 71.11176300048828 78.62774658203125 71.02644348144531 76.22032928466797 C 70.83499908447266 70.81910705566406 70.65623474121094 64.74099731445312 70.4755859375 57.49082565307617 C 70.30870056152344 50.79457473754883 70.27198791503906 50.27389144897461 69.9679946899414 50.30179977416992 C 69.8454360961914 50.313011169433594 69.17989349365234 50.38216781616211 68.4889907836914 50.45546340942383" stroke-width="1.0" fill="rgb(92, 193, 153)" opacity="1.0"/>
    <path d="M 32.362667083740234 42.537879943847656 C 32.14237976074219 42.593955993652344 31.60714340209961 42.64695739746094 31.173240661621094 42.655635833740234 L 30.384340286254883 42.671390533447266 L 30.472320556640625 45.49656295776367 C 30.52065086364746 47.05046463012695 30.560302734375 53.877952575683594 30.560302734375 60.66872787475586 L 30.560302734375 73.0157241821289 L 32.3682746887207 72.94670104980469 C 33.362510681152344 72.90878295898438 34.205352783203125 72.84843444824219 34.24126434326172 72.81265258789062 C 34.27704620361328 72.7768783569336 34.244598388671875 70.80175018310547 34.16930389404297 68.42356872558594 C 34.0940055847168 66.04524993896484 33.940738677978516 61.065513610839844 33.828590393066406 57.35731887817383 C 33.59361267089844 49.58392333984375 33.37466049194336 42.48621368408203 33.368385314941406 42.437747955322266 C 33.36024475097656 42.37593460083008 32.76652908325195 42.43507766723633 32.362667083740234 42.537879943847656" stroke-width="1.0" fill="rgb(92, 193, 153)" opacity="1.0"/>
    <path d="M 79.69141387939453 21.71883773803711 C 79.94841766357422 21.869834899902344 80.4433364868164 22.275033950805664 80.79139709472656 22.619619369506836 C 81.35253143310547 23.17501449584961 81.37509155273438 23.186630249023438 80.99165344238281 22.722288131713867 C 80.5322494506836 22.166091918945312 79.61571502685547 21.443275451660156 79.3709945678711 21.444076538085938 C 79.29022216796875 21.44434356689453 79.43441009521484 21.567974090576172 79.69141387939453 21.71883773803711" stroke-width="1.0" fill="rgb(254, 194, 194)" opacity="1.0"/>
    <path d="M 66.86979675292969 47.81066131591797 C 67.19915771484375 48.261653900146484 68.26002502441406 49.34680938720703 68.37150573730469 49.34680938720703 C 68.429443359375 49.34680938720703 68.47669982910156 49.28312683105469 68.47669982910156 49.20542526245117 C 68.47669982910156 49.127723693847656 68.42169952392578 49.09794998168945 68.35453796386719 49.139469146728516 C 68.28739166259766 49.180992126464844 67.88192749023438 48.838809967041016 67.45336151123047 48.37900924682617 C 67.02493286132812 47.91920471191406 66.76232147216797 47.66340255737305 66.86979675292969 47.81066131591797" stroke-width="1.0" fill="rgb(254, 194, 194)" opacity="1.0"/>
    <path d="M 76.57079315185547 34.488258361816406 C 76.51898956298828 34.540191650390625 76.64408111572266 34.585182189941406 76.8490219116211 34.58838653564453 C 77.19534301757812 34.593727111816406 77.22711181640625 34.64085388183594 77.30067443847656 35.26167297363281 L 77.37985229492188 35.92921447753906 L 77.40081024169922 35.321746826171875 C 77.41229248046875 34.987709045410156 77.34967803955078 34.642189025878906 77.26155853271484 34.5540771484375 C 77.08425903320312 34.37677764892578 76.71724700927734 34.341796875 76.57079315185547 34.488258361816406" stroke-width="1.0" fill="rgb(254, 194, 194)" opacity="1.0"/>
    <path d="M 71.70120239257812 62.856666564941406 C 71.69012451171875 63.2745475769043 71.72603607177734 63.64436340332031 71.78103637695312 63.678409576416016 C 71.836181640625 63.71258544921875 71.84526062011719 63.370670318603516 71.80133056640625 62.91861343383789 L 71.72162628173828 62.096866607666016 L 71.70120239257812 62.856666564941406" stroke-width="1.0" fill="rgb(254, 194, 194)" opacity="1.0"/>
    <path d="M 71.55300903320312 48.23188018798828 C 71.00001525878906 48.771522521972656 70.9810562133789 48.811973571777344 71.2859878540039 48.80222702026367 C 71.46649169921875 48.796485900878906 71.53578186035156 48.76030731201172 71.43992614746094 48.721858978271484 C 71.317626953125 48.67285919189453 71.39720153808594 48.50290298461914 71.70693969726562 48.151641845703125 C 72.0740966796875 47.7350959777832 72.04818725585938 47.74858093261719 71.55300903320312 48.23188018798828" stroke-width="1.0" fill="rgb(254, 194, 194)" opacity="1.0"/>
    <path d="M 57.929534912109375 45.341556549072266 L 58.730587005615234 46.142608642578125 L 57.929534912109375 45.341556549072266 L 57.12848663330078 44.540504455566406 L 57.929534912109375 45.341556549072266" stroke-width="1.0" fill="rgb(254, 194, 194)" opacity="1.0"/>
    <path d="M 33.37706756591797 43.117977142333984 L 33.45677185058594 43.939720153808594 L 33.477195739746094 43.17992401123047 C 33.488277435302734 42.76204299926758 33.45249557495117 42.3922233581543 33.39735794067383 42.35818099975586 C 33.34235382080078 42.32400131225586 33.33313751220703 42.665916442871094 33.37706756591797 43.117977142333984" stroke-width="1.0" fill="rgb(254, 194, 194)" opacity="1.0"/>
    <path d="M 66.52174377441406 48.90169143676758 L 66.90316772460938 49.32451629638672 L 66.58849334716797 49.384193420410156 C 66.30091857910156 49.43879699707031 66.30545806884766 49.44547653198242 66.64096069335938 49.462162017822266 C 67.11959075927734 49.48579025268555 67.10423278808594 49.35014724731445 66.57421112060547 48.87112045288086 L 66.14030456542969 48.47900390625 L 66.52174377441406 48.90169143676758" stroke-width="1.0" fill="rgb(254, 194, 194)" opacity="1.0"/>
    <path d="M 65.29119873046875 47.41694641113281 C 65.53083801269531 47.75071716308594 65.81668090820312 48.096099853515625 65.9262924194336 48.18461990356445 C 66.03590393066406 48.273136138916016 65.86634826660156 48.0001106262207 65.54953002929688 47.577823638916016 C 64.86770629882812 46.6693000793457 64.66250610351562 46.54153060913086 65.29119873046875 47.41694641113281" stroke-width="1.0" fill="rgb(254, 194, 194)" opacity="1.0"/>
    <path d="M 72.44070434570312 45.63981628417969 L 71.93217468261719 46.34286880493164 L 72.40638732910156 45.808837890625 C 72.66726684570312 45.51511764526367 72.89610290527344 45.198699951171875 72.91493225097656 45.10578155517578 C 72.93374633789062 45.01285934448242 72.72040557861328 45.253177642822266 72.44070434570312 45.63981628417969" stroke-width="1.0" fill="rgb(254, 194, 194)" opacity="1.0"/>
    <path d="M 71.2249755859375 20.375476837158203 C 71.508544921875 20.705909729003906 71.75834655761719 20.96010971069336 71.78010559082031 20.94048309326172 C 71.80172729492188 20.920856475830078 71.56982421875 20.650503158569336 71.26449584960938 20.33969497680664 L 70.70936584472656 19.774688720703125 L 71.2249755859375 20.375476837158203" stroke-width="1.0" fill="rgb(254, 194, 194)" opacity="1.0"/>
  </g>
</svg>
