<?xml version="1.0" ?>
<svg xmlns="http://www.w3.org/2000/svg" version="1.1" width="100" height="100">
  <defs/>
  <g>
    <path d="M 21.545379638671875 10.214428901672363 C 17.294872283935547 11.418758392333984 14.55410385131836 13.915102005004883 13.109962463378906 17.89777946472168 C 12.704838752746582 19.01491928100586 12.663798332214355 19.340106964111328 12.663798332214355 21.435447692871094 C 12.663798332214355 23.524356842041016 12.705662727355957 23.85795021057129 13.10468864440918 24.957786560058594 C 14.38038444519043 28.472871780395508 16.679439544677734 30.89175033569336 19.943344116210938 32.153106689453125 C 20.6032772064209 32.4080810546875 21.085371017456055 32.66915512084961 21.014663696289062 32.73326873779297 C 20.943958282470703 32.797386169433594 20.478179931640625 32.9813232421875 19.979602813720703 33.14185333251953 C 16.27134895324707 34.3367919921875 13.27873706817627 37.66546630859375 12.474092483520508 41.490413665771484 C 11.351842880249023 46.8254280090332 13.854778289794922 51.97518539428711 18.695995330810547 54.29236602783203 C 19.576457977294922 54.71364212036133 20.299516677856445 55.11069107055664 20.302978515625 55.17464065551758 C 20.306438446044922 55.23843002319336 20.031192779541016 55.33945846557617 19.69116973876953 55.39896011352539 C 17.6828556060791 55.7503547668457 15.167393684387207 57.396728515625 13.53915023803711 59.42580795288086 C 11.347063064575195 62.15718460083008 10.566316604614258 65.76423645019531 11.407550811767578 69.2735595703125 C 12.297407150268555 72.98494720458984 15.195247650146484 76.14599609375 18.82587242126465 77.36549377441406 L 19.732376098632812 77.66991424560547 L 19.81478500366211 83.83495330810547 L 19.897193908691406 89.99999237060547 L 21.545379638671875 89.99999237060547 L 23.193565368652344 89.99999237060547 L 23.23674964904785 84.03569793701172 C 23.28504180908203 77.37422943115234 23.15038299560547 78.03301239013672 24.512115478515625 77.80358123779297 C 25.529869079589844 77.63200378417969 27.315845489501953 76.96729278564453 28.353378295898438 76.373779296875 C 29.572708129882812 75.67626190185547 31.623380661010742 73.6218032836914 32.36357879638672 72.3563232421875 C 32.68431854248047 71.80796813964844 33.155364990234375 70.76961517333984 33.410343170166016 70.04885864257812 C 33.832279205322266 68.85607147216797 33.87348175048828 68.53863525390625 33.869361877441406 66.51333618164062 C 33.86524200439453 64.5439224243164 33.815467834472656 64.14868927001953 33.43556213378906 63.07341003417969 C 32.259742736816406 59.74539566040039 29.983600616455078 57.24195861816406 26.981922149658203 55.97566223144531 C 26.430768966674805 55.743099212646484 25.946369171142578 55.4863166809082 25.90532684326172 55.40489196777344 C 25.864288330078125 55.3234748840332 26.275672912597656 55.13425827026367 26.819576263427734 54.984439849853516 C 28.12873077392578 54.623653411865234 29.955415725708008 53.6466064453125 31.02129554748535 52.73680877685547 C 32.31166076660156 51.63516616821289 33.09257507324219 50.60867691040039 33.91436004638672 48.933292388916016 C 34.515289306640625 47.708526611328125 34.702850341796875 47.099849700927734 34.907554626464844 45.71141815185547 C 35.13500213623047 44.168548583984375 35.134674072265625 43.82984924316406 34.90293884277344 42.27709197998047 C 34.553192138671875 39.932708740234375 33.58587646484375 37.94928741455078 31.955158233642578 36.23253631591797 C 30.711109161376953 34.92288589477539 28.83234214782715 33.64883804321289 27.50851821899414 33.21733856201172 C 26.691017150878906 32.950828552246094 26.27897071838379 32.560707092285156 26.814796447753906 32.560707092285156 C 27.24151039123535 32.560707092285156 29.20285415649414 31.677934646606445 30.213685989379883 31.031021118164062 C 34.23888397216797 28.454742431640625 36.297142028808594 23.40008544921875 35.16417694091797 18.8726806640625 C 34.60626983642578 16.642850875854492 33.807228088378906 15.249308586120605 32.093772888183594 13.518383026123047 C 29.671762466430664 11.071650505065918 27.610210418701172 10.14685344696045 24.3472957611084 10.043512344360352 C 22.96842384338379 10.0 22.119937896728516 10.051753044128418 21.545379638671875 10.214428901672363" stroke-width="1.0" fill="rgb(81, 55, 54)" opacity="1.0"/>
    <path d="M 21.33721351623535 33.47182083129883 C 18.243404388427734 34.139503479003906 15.304851531982422 36.449432373046875 13.954163551330566 39.2757453918457 C 13.240004539489746 40.76982879638672 12.950088500976562 41.998382568359375 12.913498878479004 43.68596267700195 C 12.841143608093262 47.0146369934082 13.999982833862305 49.74073791503906 16.436662673950195 51.97337341308594 C 19.82253074645996 55.07591247558594 24.914108276367188 55.635311126708984 28.913103103637695 53.34433364868164 C 31.536354064941406 51.84135055541992 33.24684143066406 49.596195220947266 34.01127243041992 46.6526985168457 C 34.43271255493164 45.02906799316406 34.34980773925781 42.129249572753906 33.83903503417969 40.636817932128906 C 32.74266052246094 37.43307113647461 30.109519958496094 34.80784225463867 26.94384765625 33.76239776611328 C 25.4029598236084 33.25343704223633 22.94073486328125 33.12586975097656 21.33721351623535 33.47182083129883" stroke-width="1.0" fill="rgb(234, 208, 72)" opacity="1.0"/>
    <path d="M 21.462970733642578 11.015447616577148 C 20.964393615722656 11.176640510559082 20.408130645751953 11.337997436523438 20.226831436157227 11.37392807006836 C 20.0455322265625 11.41002368927002 19.860111236572266 11.453700065612793 19.81478500366211 11.471171379089355 C 19.769458770751953 11.488641738891602 19.676830291748047 11.494245529174805 19.608760833740234 11.483367919921875 C 19.540855407714844 11.472654342651367 19.48514747619629 11.542537689208984 19.48514747619629 11.63846206665039 C 19.48514747619629 11.734386444091797 19.410978317260742 11.76718521118164 19.320327758789062 11.71114730834961 C 19.229679107666016 11.655108451843262 19.15550994873047 11.686424255371094 19.15550994873047 11.78070068359375 C 19.15550994873047 11.874977111816406 18.970088958740234 11.998590469360352 18.74346351623535 12.055453300476074 C 18.51683807373047 12.112316131591797 18.331417083740234 12.229501724243164 18.331417083740234 12.315536499023438 C 18.331417083740234 12.401737213134766 18.257247924804688 12.426460266113281 18.16659927368164 12.370421409606934 C 18.075946807861328 12.314383506774902 18.001779556274414 12.349489212036133 18.001779556274414 12.44821548461914 C 18.001779556274414 12.547107696533203 17.872066497802734 12.677313804626465 17.713346481323242 12.737637519836426 C 17.554790496826172 12.797961235046387 17.286632537841797 13.022113800048828 17.117692947387695 13.235719680786133 C 16.948753356933594 13.449159622192383 16.771902084350586 13.585464477539062 16.724929809570312 13.538326263427734 C 16.677791595458984 13.491353034973145 16.426279067993164 13.746986389160156 16.165864944458008 14.106620788574219 C 15.90528678894043 14.466090202331543 15.618502616882324 14.760292053222656 15.528511047363281 14.760292053222656 C 15.438356399536133 14.760292053222656 15.364681243896484 14.867918014526367 15.364681243896484 14.999279022216797 C 15.364681243896484 15.130804061889648 15.234969139099121 15.310951232910156 15.076249122619629 15.399787902832031 C 14.917694091796875 15.488624572753906 14.805452346801758 15.603009223937988 14.82687759399414 15.65410327911377 C 14.882092475891113 15.785957336425781 14.335389137268066 16.902935028076172 14.215566635131836 16.902935028076172 C 14.1610107421875 16.902935028076172 14.103818893432617 17.068740844726562 14.088491439819336 17.271303176879883 C 14.073328018188477 17.474029541015625 13.982841491699219 17.665714263916016 13.887577056884766 17.697525024414062 C 13.792311668395996 17.729169845581055 13.75638198852539 17.822952270507812 13.807640075683594 17.905855178833008 C 13.858898162841797 17.988758087158203 13.842581748962402 18.149457931518555 13.771544456481934 18.26268768310547 C 13.700508117675781 18.376083374023438 13.617769241333008 18.648361206054688 13.587607383728027 18.868064880371094 C 13.557445526123047 19.0877685546875 13.473058700561523 19.384443283081055 13.400043487548828 19.527339935302734 C 13.274452209472656 19.772920608520508 13.306591033935547 22.869863510131836 13.442071914672852 23.578088760375977 C 13.4766845703125 23.759387969970703 13.59024429321289 24.117870330810547 13.694409370422363 24.37482261657715 C 13.798410415649414 24.631772994995117 13.845548629760742 24.9035587310791 13.79906940460205 24.9788818359375 C 13.75259017944336 25.054039001464844 13.792311668395996 25.1417236328125 13.887577056884766 25.173368453979492 C 13.982841491699219 25.205177307128906 14.073328018188477 25.396862030029297 14.088491439819336 25.599590301513672 C 14.103818893432617 25.80215072631836 14.178976058959961 25.967960357666016 14.255781173706055 25.967960357666016 C 14.332422256469727 25.967960357666016 14.349398612976074 26.04212760925293 14.293359756469727 26.13277816772461 C 14.237321853637695 26.22342872619629 14.258089065551758 26.297595977783203 14.339509963989258 26.297595977783203 C 14.470705032348633 26.297595977783203 14.729965209960938 26.73453140258789 14.877312660217285 27.204099655151367 C 14.905826568603516 27.294750213623047 15.008508682250977 27.45412826538086 15.105751037597656 27.55829429626465 C 15.202829360961914 27.662458419799805 15.504777908325195 28.028026580810547 15.776727676391602 28.370519638061523 C 16.04867935180664 28.713178634643555 16.39249038696289 29.100008010864258 16.540828704833984 29.230051040649414 C 16.689163208007812 29.360090255737305 17.000011444091797 29.635669708251953 17.231416702270508 29.842514038085938 C 17.46282196044922 30.049196243286133 17.69192123413086 30.178417205810547 17.740707397460938 30.12979507446289 C 17.78932762145996 30.081008911132812 17.875858306884766 30.162757873535156 17.932720184326172 30.311094284057617 C 17.989748001098633 30.459596633911133 18.091442108154297 30.54694938659668 18.158851623535156 30.505252838134766 C 18.226261138916016 30.463552474975586 18.433109283447266 30.57084846496582 18.6185302734375 30.7434139251709 C 18.803951263427734 30.91614532470703 19.000579833984375 31.012561798095703 19.05562973022461 30.95751190185547 C 19.110515594482422 30.902629852294922 19.15550994873047 30.948448181152344 19.15550994873047 31.05953598022461 C 19.15550994873047 31.170623779296875 19.229679107666016 31.215784072875977 19.320327758789062 31.159746170043945 C 19.410978317260742 31.103708267211914 19.48514747619629 31.148868560791016 19.48514747619629 31.25995635986328 C 19.48514747619629 31.371042251586914 19.53195571899414 31.415048599243164 19.589147567749023 31.35785675048828 C 19.646503448486328 31.3006649017334 19.850385665893555 31.341211318969727 20.042400360107422 31.448179244995117 C 20.234577178955078 31.55497932434082 20.44109535217285 31.645137786865234 20.501583099365234 31.6484317779541 C 20.561908721923828 31.65156364440918 20.66195297241211 31.704635620117188 20.723594665527344 31.766443252563477 C 20.785402297973633 31.828250885009766 20.94000244140625 31.83879852294922 21.06707763671875 31.79001235961914 C 21.19415283203125 31.741226196289062 21.298152923583984 31.784902572631836 21.298152923583984 31.886926651000977 C 21.298152923583984 32.002628326416016 21.453411102294922 32.03361511230469 21.71019744873047 31.96916961669922 C 21.936824798583984 31.912307739257812 22.12224578857422 31.934228897094727 22.12224578857422 32.01811981201172 C 22.12224578857422 32.19975280761719 25.532672882080078 32.1732177734375 25.96136474609375 31.98828887939453 C 26.123876571655273 31.918075561523438 26.302539825439453 31.906373977661133 26.35824966430664 31.962081909179688 C 26.413957595825195 32.017791748046875 26.551416397094727 31.9872989654541 26.663494110107422 31.894176483154297 C 26.775569915771484 31.801219940185547 26.930665969848633 31.739412307739258 27.00829315185547 31.757047653198242 C 27.085758209228516 31.774518966674805 27.29755210876465 31.73298454284668 27.478849411010742 31.66458511352539 C 27.660152435302734 31.5961856842041 27.919740676879883 31.49844741821289 28.055715560913086 31.44735336303711 C 28.19169044494629 31.396427154541016 28.358652114868164 31.36642837524414 28.426557540893555 31.380767822265625 C 28.49462890625 31.39527130126953 28.5501708984375 31.328353881835938 28.5501708984375 31.23242950439453 C 28.5501708984375 31.136505126953125 28.624340057373047 31.103708267211914 28.714990615844727 31.159746170043945 C 28.805641174316406 31.215784072875977 28.87980842590332 31.170623779296875 28.87980842590332 31.05953598022461 C 28.87980842590332 30.948448181152344 28.924806594848633 30.902629852294922 28.97968864440918 30.95751190185547 C 29.034738540649414 31.012561798095703 29.231369018554688 30.91614532470703 29.416790008544922 30.7434139251709 C 29.602210998535156 30.57084846496582 29.80905532836914 30.463552474975586 29.876466751098633 30.505252838134766 C 29.943878173828125 30.54694938659668 30.045570373535156 30.459596633911133 30.102598190307617 30.311094284057617 C 30.159461975097656 30.162757873535156 30.249780654907227 30.08479881286621 30.30301856994629 30.13803482055664 C 30.35625457763672 30.191436767578125 30.583539962768555 30.016563415527344 30.808185577392578 29.749723434448242 C 31.032835006713867 29.482715606689453 31.3161563873291 29.264331817626953 31.43812370300293 29.264331817626953 C 31.559925079345703 29.264331817626953 31.70595359802246 29.11797332763672 31.7628173828125 28.938980102539062 C 31.81951332092285 28.759986877441406 32.02850341796875 28.47913360595703 32.22711181640625 28.31481170654297 C 32.42572021484375 28.15048599243164 32.6947021484375 27.833375930786133 32.82474136352539 27.61004638671875 C 33.37787628173828 26.661022186279297 34.103240966796875 25.198749542236328 34.19306945800781 24.851640701293945 C 34.24630355834961 24.645618438720703 34.30118942260742 24.443058013916016 34.315032958984375 24.40152359008789 C 34.734657287597656 23.136539459228516 34.892887115478516 20.645963668823242 34.620933532714844 19.58832359313965 C 34.5325927734375 19.2445125579834 34.438812255859375 18.851913452148438 34.412437438964844 18.715938568115234 C 34.386070251464844 18.57996368408203 34.31156921386719 18.344768524169922 34.24663162231445 18.193134307861328 C 34.18169403076172 18.041664123535156 34.10686492919922 17.81916046142578 34.08016586303711 17.69867706298828 C 33.96528625488281 17.179168701171875 33.432098388671875 16.078840255737305 33.295135498046875 16.078840255737305 C 33.212890625 16.078840255737305 33.19146728515625 16.00467300415039 33.247501373291016 15.914022445678711 C 33.30353927612305 15.823371887207031 33.27074432373047 15.749202728271484 33.17481994628906 15.749202728271484 C 33.078895568847656 15.749202728271484 33.000274658203125 15.645862579345703 33.000274658203125 15.519611358642578 C 33.000274658203125 15.393360137939453 32.87847137451172 15.243209838867188 32.72947692871094 15.186017990112305 C 32.580482482910156 15.128990173339844 32.49461364746094 15.046252250671387 32.5384521484375 15.002410888671875 C 32.62481689453125 14.916045188903809 30.5349178314209 12.78246784210205 30.36400032043457 12.78246784210205 C 30.307138442993164 12.78246784210205 30.11677360534668 12.651766777038574 29.941078186035156 12.49189281463623 C 29.765214920043945 12.332018852233887 29.287734985351562 12.055947303771973 28.87980842590332 11.878437995910645 C 28.47188377380371 11.700763702392578 28.08357048034668 11.479247093200684 28.016983032226562 11.386124610900879 C 27.950397491455078 11.292837142944336 27.894853591918945 11.281464576721191 27.893369674682617 11.36041259765625 C 27.892051696777344 11.439525604248047 27.779644012451172 11.41200065612793 27.64366912841797 11.299100875854492 C 27.507694244384766 11.186200141906738 27.396440505981445 11.149115562438965 27.396440505981445 11.216691017150879 C 27.396440505981445 11.284266471862793 27.285188674926758 11.247182846069336 27.149213790893555 11.134282112121582 C 27.01323890686035 11.021381378173828 26.90198516845703 10.970122337341309 26.90198516845703 11.020227432250977 C 26.90198516845703 11.070331573486328 26.661022186279297 11.037532806396484 26.36632537841797 10.947212219238281 C 25.39389419555664 10.649550437927246 22.46869468688965 10.690095901489258 21.462970733642578 11.015447616577148" stroke-width="1.0" fill="rgb(249, 155, 156)" opacity="1.0"/>
    <path d="M 20.06201171875 56.06317901611328 C 16.42446517944336 56.87639236450195 13.210996627807617 59.977783203125 12.137533187866211 63.711421966552734 C 11.65659236907959 65.38433074951172 11.722189903259277 68.02620697021484 12.286858558654785 69.72730255126953 C 12.860591888427734 71.45575714111328 13.494483947753906 72.5270767211914 14.71760368347168 73.83441925048828 C 16.69377899169922 75.94722747802734 19.087440490722656 77.05398559570312 21.957426071166992 77.18205261230469 C 24.101388931274414 77.2778091430664 25.444000244140625 76.99382781982422 27.38968276977539 76.03309631347656 C 30.01095962524414 74.73877716064453 32.177337646484375 72.01185607910156 32.91753387451172 69.07462310791016 C 33.23530578613281 67.81343078613281 33.23530578613281 65.21324920654297 32.91753387451172 63.952056884765625 C 32.03229522705078 60.439605712890625 29.152912139892578 57.35634231567383 25.748254776000977 56.275299072265625 C 24.298675537109375 55.815128326416016 21.619054794311523 55.715084075927734 20.06201171875 56.06317901611328" stroke-width="1.0" fill="rgb(95, 169, 170)" opacity="1.0"/>
    <path d="M 20.47406005859375 83.55443572998047 L 20.47406005859375 89.25830841064453 L 21.462970733642578 89.25830841064453 L 22.451881408691406 89.25830841064453 L 22.451881408691406 83.65447998046875 L 22.451881408691406 78.05064392089844 L 21.723712921142578 78.05064392089844 C 21.323204040527344 78.05064392089844 20.878192901611328 78.00564575195312 20.73480224609375 77.95059967041016 C 20.500099182128906 77.86060333251953 20.47406005859375 78.42098999023438 20.47406005859375 83.55443572998047" stroke-width="1.0" fill="rgb(169, 127, 103)" opacity="1.0"/>
    <path d="M 20.860557556152344 58.6915397644043 C 20.70925521850586 59.08578872680664 20.880172729492188 59.150230407714844 22.16806411743164 59.184513092041016 C 24.40102767944336 59.24385070800781 26.16771697998047 59.99888229370117 27.746681213378906 61.5686149597168 C 28.74498748779297 62.56082534790039 29.265483856201172 63.4337043762207 29.712968826293945 64.86515808105469 C 29.92344093322754 65.5381088256836 30.07556915283203 65.77165222167969 30.303348541259766 65.77165222167969 C 30.78857421875 65.77165222167969 30.625732421875 64.81916809082031 29.88058853149414 63.29937744140625 C 28.41057014465332 60.30083084106445 25.423561096191406 58.437225341796875 22.08697509765625 58.437225341796875 C 21.221675872802734 58.437225341796875 20.935386657714844 58.496559143066406 20.860557556152344 58.6915397644043" stroke-width="1.0" fill="rgb(81, 55, 54)" opacity="1.0"/>
    <path d="M 23.852840423583984 13.194515228271484 C 23.762189865112305 13.225665092468262 23.33135414123535 13.299174308776855 22.895572662353516 13.357850074768066 C 22.41232681274414 13.423118591308594 22.06521987915039 13.563213348388672 22.006214141845703 13.717154502868652 C 21.86479949951172 14.08552360534668 22.262672424316406 14.257100105285645 22.81300163269043 14.065252304077148 C 23.076217651367188 13.973612785339355 24.01123046875 13.928616523742676 24.890869140625 13.965536117553711 C 26.364511489868164 14.02734375 26.58421516418457 14.082392692565918 27.690643310546875 14.667169570922852 C 29.11005973815918 15.417259216308594 30.173635482788086 16.523027420043945 30.810823440551758 17.910964965820312 C 31.24050521850586 18.84729766845703 31.59898567199707 19.12353515625 31.77814483642578 18.656604766845703 C 31.92862319946289 18.26433563232422 30.99228858947754 16.559452056884766 30.092544555664062 15.58768081665039 C 29.607318878173828 15.063558578491211 28.784873962402344 14.4151611328125 28.23075294494629 14.119806289672852 C 26.924236297607422 13.423447608947754 24.611831665039062 12.934761047363281 23.852840423583984 13.194515228271484" stroke-width="1.0" fill="rgb(81, 55, 54)" opacity="1.0"/>
    <path d="M 22.740314483642578 35.78192138671875 C 22.155868530273438 35.96849060058594 21.957426071166992 36.114192962646484 21.957426071166992 36.356475830078125 C 21.957426071166992 36.74610900878906 21.860843658447266 36.741329193115234 23.13901138305664 36.41366958618164 C 25.90153694152832 35.7054443359375 28.750757217407227 36.968780517578125 30.02513313293457 39.46677017211914 C 30.38905143737793 40.17993927001953 30.63776397705078 40.3126220703125 30.803241729736328 39.88161849975586 C 31.08557891845703 39.145538330078125 29.1761531829834 36.93235397338867 27.57807159423828 36.143531799316406 C 26.665470123291016 35.69291687011719 26.321659088134766 35.61677169799805 25.02338409423828 35.57737731933594 C 24.021451950073242 35.547054290771484 23.263118743896484 35.614959716796875 22.740314483642578 35.78192138671875" stroke-width="1.0" fill="rgb(81, 55, 54)" opacity="1.0"/>
    <path d="M 22.491931915283203 83.73688507080078 L 22.451881408691406 89.25830841064453 L 21.462970733642578 89.29407501220703 L 20.47406005859375 89.32968139648438 L 21.504175186157227 89.33528137207031 L 22.534290313720703 89.3407211303711 L 22.533138275146484 83.77809143066406 L 22.531986236572266 78.21546173095703 L 22.491931915283203 83.73688507080078" stroke-width="1.0" fill="rgb(249, 155, 156)" opacity="1.0"/>
    <path d="M 14.87022590637207 74.0949935913086 L 15.694318771362305 74.9190902709961 L 14.87022590637207 74.0949935913086 L 14.046133041381836 73.27090454101562 L 14.87022590637207 74.0949935913086" stroke-width="1.0" fill="rgb(249, 155, 156)" opacity="1.0"/>
    <path d="M 14.87022590637207 58.92393493652344 L 14.128541946411133 59.682594299316406 L 14.87022590637207 58.92393493652344 L 15.611909866333008 58.16527557373047 L 14.87022590637207 58.92393493652344" stroke-width="1.0" fill="rgb(249, 155, 156)" opacity="1.0"/>
    <path d="M 31.681724548339844 13.936198234558105 L 32.505821228027344 14.760292053222656 L 31.681724548339844 13.936198234558105 L 30.85763168334961 13.112105369567871 L 31.681724548339844 13.936198234558105" stroke-width="1.0" fill="rgb(169, 127, 103)" opacity="1.0"/>
    <path d="M 27.726078033447266 61.56877899169922 L 28.385353088378906 62.22805404663086 L 27.726078033447266 61.56877899169922 L 27.066802978515625 60.909507751464844 L 27.726078033447266 61.56877899169922" stroke-width="1.0" fill="rgb(249, 155, 156)" opacity="1.0"/>
    <path d="M 16.106365203857422 51.7620735168457 L 16.683231353759766 52.33893585205078 L 16.106365203857422 51.7620735168457 L 15.529500007629395 51.185211181640625 L 16.106365203857422 51.7620735168457" stroke-width="1.0" fill="rgb(249, 155, 156)" opacity="1.0"/>
  </g>
</svg>
