<?xml version="1.0" ?>
<svg xmlns="http://www.w3.org/2000/svg" version="1.1" width="100" height="100">
  <defs/>
  <g>
    <path d="M 76.80693817138672 36.41737365722656 C 71.60775756835938 37.84123611450195 59.455448150634766 44.97078323364258 51.935089111328125 51.00904846191406 C 49.15021514892578 53.245201110839844 49.042049407958984 53.3913459777832 49.048606872558594 54.91026306152344 C 49.05805206298828 57.105350494384766 50.550750732421875 59.576725006103516 52.348846435546875 60.37493896484375 C 53.128936767578125 60.721214294433594 53.20336151123047 60.72044372558594 55.4337272644043 60.342159271240234 C 60.5268669128418 59.47820281982422 71.60563659667969 56.41587829589844 77.9637680053711 54.11455535888672 C 85.64530944824219 51.3341178894043 89.05371856689453 49.456581115722656 89.63906860351562 47.68296813964844 C 90.0 46.58918762207031 89.74434661865234 45.0357551574707 88.93167114257812 43.38592529296875 C 88.36540222167969 42.23622512817383 87.80703735351562 41.522850036621094 86.27057647705078 39.98542022705078 C 84.59510040283203 38.30878829956055 84.07318115234375 37.914886474609375 82.49468231201172 37.135955810546875 C 80.23133850097656 36.01884460449219 78.88383483886719 35.84859848022461 76.80693817138672 36.41737365722656" stroke-width="1.0" fill="rgb(118, 167, 223)" opacity="1.0"/>
    <path d="M 19.06183624267578 10.771027565002441 C 15.701051712036133 11.85748291015625 12.168863296508789 14.800073623657227 10.69930362701416 17.737457275390625 C 10.10237979888916 18.930728912353516 10.0 19.326171875 10.0 20.437885284423828 C 10.0 23.644039154052734 11.602595329284668 28.99977684020996 14.902645111083984 36.821685791015625 C 16.43486785888672 40.45355224609375 20.42728042602539 48.410614013671875 21.523183822631836 50.017066955566406 C 22.79415512084961 51.879947662353516 23.19441795349121 52.135414123535156 24.798940658569336 52.10880661010742 C 26.56792640686035 52.07950210571289 28.063901901245117 51.48990249633789 29.331401824951172 50.322662353515625 L 30.34092903137207 49.3929557800293 L 30.320877075195312 45.951194763183594 C 30.291183471679688 40.82720947265625 29.44477081298828 33.155303955078125 28.026689529418945 25.156978607177734 C 26.847881317138672 18.507328033447266 25.6640567779541 14.247108459472656 24.391929626464844 12.076316833496094 C 23.46453857421875 10.494159698486328 21.446640014648438 10.0 19.06183624267578 10.771027565002441" stroke-width="1.0" fill="rgb(118, 167, 223)" opacity="1.0"/>
    <path d="M 50.503509521484375 10.9923677444458 C 45.102272033691406 12.116998672485352 43.50989532470703 14.194280624389648 41.272010803222656 23.03612518310547 C 39.46966552734375 30.157184600830078 37.95672607421875 40.221031188964844 37.95672607421875 45.08935546875 C 37.95672607421875 47.82371520996094 38.185394287109375 48.291656494140625 39.94493103027344 49.1573486328125 C 41.994449615478516 50.16591262817383 44.31504821777344 50.292198181152344 45.57927322387695 49.463714599609375 C 47.633609771728516 48.11774444580078 56.57822036743164 30.33109474182129 59.54220962524414 21.69805908203125 C 61.19300842285156 16.889694213867188 61.503231048583984 14.543256759643555 60.654502868652344 13.283855438232422 C 60.12351608276367 12.495861053466797 59.01836013793945 11.74006462097168 57.71923828125 11.276176452636719 C 56.60463333129883 10.878227233886719 51.93431854248047 10.694483757019043 50.503509521484375 10.9923677444458" stroke-width="1.0" fill="rgb(118, 167, 223)" opacity="1.0"/>
  </g>
</svg>
