<?xml version="1.0" ?>
<svg xmlns="http://www.w3.org/2000/svg" version="1.1" width="100" height="100">
  <defs/>
  <g>
    <path d="M 35.34626007080078 10.2818603515625 C 30.517818450927734 11.241868019104004 27.178098678588867 14.07978630065918 25.878108978271484 18.32766342163086 C 25.198474884033203 20.548362731933594 25.069351196289062 23.674747467041016 25.542583465576172 26.450414657592773 C 25.633235931396484 26.981937408447266 25.678478240966797 27.445924758911133 25.643142700195312 27.481260299682617 C 25.607807159423828 27.5165958404541 25.18179702758789 27.35411834716797 24.696510314941406 27.119976043701172 C 22.48522186279297 26.053136825561523 19.315412521362305 25.74535369873047 17.216901779174805 26.393449783325195 C 13.625871658325195 27.50272560119629 10.517651557922363 31.848684310913086 10.22109603881836 36.1751594543457 C 10.0 39.40110778808594 11.154850006103516 42.05970764160156 14.045771598815918 44.980350494384766 C 15.720748901367188 46.67250061035156 18.24081039428711 48.505496978759766 20.019485473632812 49.325157165527344 L 20.87464141845703 49.719295501708984 L 20.78250503540039 53.287872314453125 C 20.63983917236328 58.81097412109375 21.049667358398438 64.81936645507812 21.898550033569336 69.6534194946289 C 22.79746437072754 74.77197265625 24.644330978393555 80.08355712890625 26.219907760620117 82.08233642578125 C 27.166210174560547 83.2825927734375 29.69337272644043 84.80995178222656 32.25653076171875 85.73065948486328 C 41.3174934387207 88.98534393310547 58.573368072509766 89.25316619873047 70.16990661621094 86.3193130493164 C 74.77891540527344 85.15323638916016 78.30207061767578 83.3920669555664 79.4896240234375 81.66061401367188 C 81.98342895507812 78.02467346191406 83.25716400146484 71.62808990478516 83.57386016845703 61.14973449707031 C 83.67227172851562 57.89026641845703 83.42839813232422 48.98566818237305 83.21670532226562 48.105247497558594 C 83.15544891357422 47.851295471191406 83.44061279296875 47.517913818359375 84.4511489868164 46.66176986694336 C 86.86981964111328 44.612464904785156 88.7564926147461 41.851654052734375 89.61412048339844 39.106204986572266 C 89.93544006347656 38.077674865722656 90.00000762939453 37.517913818359375 89.99472045898438 35.803802490234375 C 89.9891128540039 33.926551818847656 89.94221496582031 33.608863830566406 89.4770736694336 32.293190002441406 C 88.79033660888672 30.350385665893555 88.07140350341797 29.20693016052246 86.75126647949219 27.958126068115234 C 84.74835968017578 26.063705444335938 81.90978240966797 24.984149932861328 78.42987823486328 24.79343605041504 L 76.60084533691406 24.69337272644043 L 76.40682983398438 22.694265365600586 C 76.30016326904297 21.594894409179688 76.06073760986328 20.100889205932617 75.8749771118164 19.374359130859375 C 75.41412353515625 17.57223892211914 73.96139526367188 14.659027099609375 72.86549377441406 13.33922290802002 C 72.02074432373047 12.321752548217773 70.30003356933594 10.820481300354004 69.4957275390625 10.39909553527832 C 69.23979187011719 10.26501750946045 66.87263488769531 10.210197448730469 61.34441375732422 10.210197448730469 L 53.55371856689453 10.210197448730469 L 52.788551330566406 10.772927284240723 C 51.63848876953125 11.618671417236328 49.58687210083008 13.8081636428833 48.69208526611328 15.144315719604492 C 48.66880416870117 15.178990364074707 48.230079650878906 14.823652267456055 47.716888427734375 14.354711532592773 C 45.66196823120117 12.476634979248047 43.140750885009766 11.044879913330078 40.877777099609375 10.471087455749512 C 39.372215270996094 10.089164733886719 36.76414489746094 10.0 35.34626007080078 10.2818603515625" stroke-width="1.0" fill="rgb(254, 254, 254)" opacity="1.0"/>
    <path d="M 47.83940505981445 33.666656494140625 C 44.938907623291016 34.051719665527344 42.018760681152344 35.65519714355469 39.54443359375 38.221656799316406 C 34.58802795410156 43.36233901977539 34.03074645996094 49.35751724243164 38.23585891723633 52.29632568359375 C 40.73577880859375 54.04346466064453 44.28569412231445 54.7625617980957 49.46402359008789 54.570526123046875 C 55.85169219970703 54.333744049072266 60.31521987915039 52.99363327026367 62.78590774536133 50.57115173339844 C 64.16632080078125 49.21749496459961 64.69288635253906 48.08460998535156 64.78915405273438 46.26069259643555 C 64.9184341430664 43.808990478515625 63.949180603027344 41.626930236816406 61.646087646484375 39.1848030090332 C 58.62670135498047 35.983123779296875 54.40705871582031 33.99639892578125 49.79426193237305 33.604736328125 C 49.294776916503906 33.56230163574219 48.41518020629883 33.59020233154297 47.83940505981445 33.666656494140625" stroke-width="1.0" fill="rgb(118, 167, 223)" opacity="1.0"/>
    <path d="M 56.95783233642578 16.376605987548828 C 55.00891876220703 16.87493896484375 53.818572998046875 18.055545806884766 53.32189178466797 19.983158111572266 C 52.966880798339844 21.361083984375 53.20366668701172 23.025165557861328 53.98732376098633 24.658203125 C 54.981346130371094 26.729963302612305 56.44678497314453 27.819095611572266 58.78010177612305 28.220502853393555 C 62.61566925048828 28.880321502685547 67.59156799316406 26.813350677490234 69.19636535644531 23.89369773864746 C 69.77973937988281 22.832469940185547 69.8641128540039 21.375450134277344 69.3931884765625 20.49304962158203 C 68.51095581054688 18.839702606201172 65.96760559082031 17.416202545166016 62.343387603759766 16.547504425048828 C 60.87316131591797 16.195138931274414 58.02170181274414 16.104652404785156 56.95783233642578 16.376605987548828" stroke-width="1.0" fill="rgb(118, 167, 223)" opacity="1.0"/>
    <path d="M 72.79945373535156 31.58316993713379 C 71.66903686523438 31.93669319152832 70.94581604003906 32.48472595214844 70.43939208984375 33.37158966064453 C 69.56524658203125 34.90208435058594 69.63574981689453 36.75324249267578 70.64067077636719 38.65509796142578 C 71.68158721923828 40.625144958496094 73.25105285644531 41.46577072143555 75.88323211669922 41.46296310424805 C 78.93102264404297 41.45966339111328 81.96031188964844 39.972259521484375 83.15247344970703 37.89339828491211 C 84.44619750976562 35.638023376464844 83.20069122314453 33.598793029785156 79.77197265625 32.35807800292969 C 77.1140365600586 31.396255493164062 74.37188720703125 31.091611862182617 72.79945373535156 31.58316993713379" stroke-width="1.0" fill="rgb(118, 167, 223)" opacity="1.0"/>
    <path d="M 38.73121643066406 16.923484802246094 C 33.87190246582031 17.874574661254883 31.409465789794922 19.694032669067383 31.391633987426758 22.34652328491211 C 31.379249572753906 24.177207946777344 32.802913665771484 26.219083786010742 34.76288604736328 27.18156623840332 C 35.530860900878906 27.558866500854492 35.88768768310547 27.62953758239746 37.00125503540039 27.625246047973633 C 38.18351745605469 27.620622634887695 38.46570587158203 27.553749084472656 39.62451934814453 27.003402709960938 C 42.74198532104492 25.52293586730957 45.235626220703125 21.702884674072266 44.68478775024414 19.251346588134766 C 44.48350524902344 18.355239868164062 44.05865478515625 17.81034278869629 43.17476272583008 17.31448745727539 C 42.55060958862305 16.96426773071289 42.21030044555664 16.901357650756836 40.79521942138672 16.874279022216797 C 39.88705825805664 16.85694122314453 38.95825958251953 16.879066467285156 38.73121643066406 16.923484802246094" stroke-width="1.0" fill="rgb(118, 167, 223)" opacity="1.0"/>
    <path d="M 19.329612731933594 31.608102798461914 C 15.48594856262207 32.45104217529297 13.882467269897461 34.63607406616211 14.971599578857422 37.54681396484375 C 15.643803596496582 39.343482971191406 17.629867553710938 41.22222137451172 19.213699340820312 41.56005096435547 C 20.717777252197266 41.880882263183594 22.445758819580078 41.3133659362793 23.830123901367188 40.043922424316406 C 25.3221492767334 38.6759033203125 26.202735900878906 36.82688903808594 26.202735900878906 35.062416076660156 C 26.202735900878906 33.436805725097656 25.6634521484375 32.518577575683594 24.283214569091797 31.79435920715332 C 23.413362503051758 31.33780288696289 20.97899627685547 31.246326446533203 19.329612731933594 31.608102798461914" stroke-width="1.0" fill="rgb(118, 167, 223)" opacity="1.0"/>
  </g>
</svg>
