<?xml version="1.0" ?>
<svg xmlns="http://www.w3.org/2000/svg" version="1.1" width="100" height="100">
  <defs/>
  <g>
    <path d="M 46.40156936645508 11.296643257141113 C 40.84391403198242 12.448677062988281 35.52556610107422 16.918190002441406 32.821041107177734 22.70944595336914 C 32.30820083618164 23.807571411132812 31.852981567382812 24.744258880615234 31.809911727905273 24.790748596191406 C 31.76655387878418 24.837242126464844 31.170143127441406 24.510656356811523 30.4847412109375 24.06484603881836 C 26.8255615234375 21.68462371826172 21.583080291748047 21.629003524780273 17.829204559326172 23.930503845214844 C 13.209378242492676 26.7628116607666 10.0 32.985328674316406 10.0 39.110015869140625 C 10.0 44.203609466552734 13.08843994140625 51.28352355957031 16.470951080322266 53.944122314453125 C 17.233366012573242 54.54424285888672 17.246200561523438 54.606422424316406 17.16320037841797 57.31494140625 C 17.081052780151367 59.99436950683594 17.108720779418945 60.13384246826172 18.113861083984375 62.13899230957031 C 19.8571720123291 65.61619567871094 22.773624420166016 68.33526611328125 26.813867568969727 70.25028991699219 C 34.33759307861328 73.81648254394531 43.61147689819336 71.46992492675781 49.16313934326172 64.59508514404297 L 50.63035202026367 62.7781867980957 L 51.200809478759766 63.549442291259766 C 55.353431701660156 69.1644287109375 59.40965270996094 72.14334106445312 64.3475112915039 73.20439147949219 C 66.50952911376953 73.66902160644531 66.77051544189453 73.6693115234375 69.04434204101562 73.20923614501953 C 71.97761535644531 72.61624908447266 73.81306457519531 71.6641616821289 75.75631713867188 69.72803497314453 C 79.09974670410156 66.39686584472656 80.48738861083984 60.29841995239258 78.89410400390625 55.93843460083008 C 78.63597869873047 55.23249435424805 78.39637756347656 54.53768539428711 78.36129760742188 54.39478302001953 C 78.32621765136719 54.2515983581543 78.76318359375 54.03226089477539 79.3327865600586 53.907047271728516 C 83.9543228149414 52.892208099365234 88.07186889648438 48.630340576171875 89.39730834960938 43.48997116088867 C 90.0 41.15167999267578 89.96234893798828 37.72923278808594 89.30547332763672 35.201263427734375 C 87.06757354736328 26.58597183227539 79.68731689453125 21.668365478515625 71.89804077148438 23.60220718383789 C 70.86837768554688 23.857770919799805 69.4134292602539 24.374603271484375 68.66499328613281 24.750816345214844 C 67.39715576171875 25.388015747070312 67.29191589355469 25.399993896484375 67.12362670898438 24.927658081054688 C 66.39830017089844 22.892845153808594 65.07112884521484 20.433332443237305 63.753944396972656 18.683460235595703 C 59.36914825439453 12.85769271850586 52.65632247924805 10.0 46.40156936645508 11.296643257141113" stroke-width="1.0" fill="rgb(81, 55, 54)" opacity="1.0"/>
    <path d="M 45.8653450012207 12.43412971496582 C 39.976539611816406 14.055362701416016 35.14165115356445 18.828643798828125 32.78453063964844 25.347797393798828 C 32.38064956665039 26.46446418762207 32.14191436767578 26.49041748046875 30.910015106201172 25.550880432128906 C 26.199485778808594 21.957870483398438 19.982101440429688 22.540590286254883 15.725083351135254 26.97359275817871 C 12.686270713806152 30.138477325439453 11.122368812561035 34.27570343017578 11.131210327148438 39.128273010253906 C 11.140909194946289 44.376739501953125 12.949819564819336 48.89189147949219 16.489208221435547 52.50030517578125 L 18.572219848632812 54.624107360839844 L 18.238224029541016 56.01658630371094 C 16.909061431884766 61.557701110839844 22.120166778564453 68.01924133300781 29.808753967285156 70.3626708984375 C 32.03466796875 71.04122161865234 36.63766860961914 71.07630920410156 38.65080261230469 70.42997741699219 C 43.33480453491211 68.92654418945312 46.77920913696289 66.43194580078125 49.49543380737305 62.575958251953125 C 49.9626350402832 61.91280746459961 50.47804260253906 61.36716842651367 50.64033889770508 61.36374282836914 C 50.80263137817383 61.3606071472168 51.63691711425781 62.33893585205078 52.49431610107422 63.53803253173828 C 58.595611572265625 72.07232666015625 67.10536193847656 74.78739929199219 73.60456085205078 70.27339172363281 C 78.15621948242188 67.11193084716797 79.97740173339844 59.86573028564453 77.4462890625 54.986915588378906 C 77.05125427246094 54.225929260253906 76.78941345214844 53.50373458862305 76.86470794677734 53.382225036621094 C 76.9397201538086 53.260719299316406 77.67789459228516 53.0718994140625 78.50505065917969 52.9626579284668 C 82.87416076660156 52.385929107666016 86.74327087402344 48.71733474731445 88.45235443115234 43.531044006347656 C 88.98002624511719 41.929779052734375 88.91299438476562 37.05809020996094 88.33740997314453 35.17530822753906 C 87.20391845703125 31.46820640563965 85.00880432128906 28.202354431152344 82.46600341796875 26.43993377685547 C 78.55924224853516 23.73284149169922 72.95252990722656 23.550579071044922 68.57657623291016 25.988418579101562 C 67.77935791015625 26.432518005371094 66.995849609375 26.710615158081055 66.83525848388672 26.60650634765625 C 66.6746826171875 26.502397537231445 66.38060760498047 25.90399169921875 66.18208312988281 25.276491165161133 C 64.29844665527344 19.326934814453125 58.82750701904297 13.90162467956543 53.1973991394043 12.400472640991211 C 51.420719146728516 11.92671012878418 47.644874572753906 11.944109916687012 45.8653450012207 12.43412971496582" stroke-width="1.0" fill="rgb(255, 243, 226)" opacity="1.0"/>
    <path d="M 49.66685104370117 19.102745056152344 C 48.977169036865234 19.56395721435547 49.56730651855469 19.91478729248047 51.296356201171875 20.07137680053711 C 53.471214294433594 20.268754959106445 55.249900817871094 21.071670532226562 56.9241828918457 22.612754821777344 C 58.688880920410156 24.23655128479004 59.50063705444336 25.564571380615234 60.127281188964844 27.852094650268555 C 60.71855545043945 30.0109806060791 61.20173263549805 30.174699783325195 61.144405364990234 28.1966495513916 C 61.058837890625 25.263086318969727 58.35744857788086 21.661518096923828 55.04310989379883 20.063106536865234 C 53.12922668457031 19.13982391357422 50.35310745239258 18.644100189208984 49.66685104370117 19.102745056152344" stroke-width="1.0" fill="rgb(81, 55, 54)" opacity="1.0"/>
  </g>
</svg>
