<?xml version="1.0" ?>
<svg xmlns="http://www.w3.org/2000/svg" version="1.1" width="100" height="100">
  <defs/>
  <g>
    <path d="M 33.999778747558594 10.817973136901855 C 32.56477355957031 11.221858978271484 31.644418716430664 11.67147159576416 30.538604736328125 12.508573532104492 C 27.912527084350586 14.496850967407227 26.54438018798828 17.463781356811523 26.740585327148438 20.744056701660156 C 26.856632232666016 22.682415008544922 27.12588882446289 23.390899658203125 29.952177047729492 29.198877334594727 C 31.166749954223633 31.694881439208984 32.12154006958008 33.77588653564453 32.07398986816406 33.82361602783203 C 32.02626037597656 33.87116622924805 29.54592514038086 33.347408294677734 26.56186866760254 32.659507751464844 C 19.43165397644043 31.01572608947754 18.162975311279297 31.000606536865234 15.206064224243164 32.524330139160156 C 12.252614974975586 34.04623794555664 10.339395523071289 37.041404724121094 10.157401084899902 40.428070068359375 C 10.0 43.35856246948242 10.918535232543945 45.81102752685547 12.925394058227539 47.81788635253906 C 14.720746040344238 49.61323928833008 15.764982223510742 50.02659606933594 22.13843536376953 51.46397018432617 C 25.094253540039062 52.130741119384766 27.57568359375 52.7319221496582 27.652925491333008 52.79987335205078 C 27.7299861907959 52.86800765991211 25.05417251586914 55.10331726074219 21.70631217956543 57.76728820800781 C 15.68937873840332 62.555259704589844 15.612683296203613 62.624847412109375 15.022976875305176 63.822845458984375 C 14.513063430786133 64.85833740234375 14.426347732543945 65.22943115234375 14.426347732543945 66.37186431884766 C 14.426347732543945 68.15264129638672 15.005487442016602 69.34461975097656 16.688800811767578 71.02793884277344 C 19.443130493164062 73.78225708007812 23.335336685180664 75.24970245361328 27.148296356201172 74.97132873535156 C 30.583967208862305 74.72029113769531 32.562408447265625 73.8006591796875 36.657012939453125 70.55099487304688 C 38.34087371826172 69.21454620361328 39.780067443847656 68.11875915527344 39.855125427246094 68.11566162109375 C 39.930362701416016 68.11256408691406 39.99176025390625 70.71604919433594 39.99176025390625 73.90141296386719 C 39.99176025390625 80.25810241699219 40.067543029785156 80.88078308105469 41.099571228027344 83.0016860961914 C 41.79931640625 84.43997192382812 43.54948806762695 86.228759765625 45.01637268066406 87.00519561767578 C 50.67460250854492 90.0 57.43864440917969 86.99353790283203 59.02521896362305 80.77857971191406 C 59.24492263793945 79.91852569580078 59.302490234375 78.48861694335938 59.302490234375 73.90141296386719 C 59.302490234375 70.71604919433594 59.364070892333984 68.11054992675781 59.439125061035156 68.1111068725586 C 59.51436233520508 68.11183166503906 61.52650833129883 69.670166015625 63.910831451416016 71.57410430908203 C 66.29498291015625 73.47802734375 68.73304748535156 75.28194427490234 69.3285903930664 75.58253479003906 C 71.51124572753906 76.68434143066406 73.60099792480469 76.91424560546875 75.9561767578125 76.31197357177734 C 77.89108276367188 75.8169937133789 79.0404281616211 75.16061401367188 80.45648956298828 73.74163818359375 C 81.89313507080078 72.30207824707031 82.68487548828125 70.8096923828125 83.10588836669922 68.74762725830078 C 83.68521118164062 65.90876770019531 82.79873657226562 62.69972610473633 80.86311340332031 60.63037872314453 C 80.38544464111328 60.1197395324707 78.08454895019531 58.17591094970703 75.74995422363281 56.310604095458984 C 73.41535949707031 54.44547653198242 71.56754302978516 52.86472702026367 71.64350891113281 52.79787063598633 C 71.71947479248047 52.73082733154297 74.19999694824219 52.130741119384766 77.15581512451172 51.46397018432617 C 83.11754608154297 50.119327545166016 84.41191101074219 49.64093017578125 86.02071380615234 48.18697738647461 C 88.02320098876953 46.37723159790039 89.17947387695312 43.79833984375 89.17947387695312 41.14202117919922 C 89.17947387695312 38.34415054321289 88.42107391357422 36.430381774902344 86.5091323852539 34.403663635253906 C 85.01054382324219 32.815086364746094 83.07382202148438 31.786516189575195 80.99427795410156 31.474811553955078 C 79.26760864257812 31.216121673583984 78.87173461914062 31.2740535736084 72.64384460449219 32.695579528808594 C 69.79386901855469 33.34613037109375 67.39059448242188 33.853858947753906 67.30296325683594 33.82398223876953 C 67.21533966064453 33.794105529785156 68.20674133300781 31.569908142089844 69.50602722167969 28.881343841552734 C 72.2527084350586 23.19779396057129 72.42012786865234 22.758747100830078 72.55274963378906 20.889432907104492 C 72.88922882080078 16.144092559814453 69.87785339355469 12.002304077148438 65.23052978515625 10.818702697753906 C 62.016197204589844 10.0 58.42421340942383 11.062089920043945 56.052093505859375 13.5324068069458 C 55.0739860534668 14.550956726074219 54.689048767089844 15.17746353149414 53.37154769897461 17.89389991760254 C 52.05568313598633 20.607240676879883 51.83324432373047 21.20077133178711 51.83324432373047 21.99797821044922 C 51.83324432373047 22.87187957763672 51.80464553833008 22.93017578125 51.376163482666016 22.93017578125 C 50.99486541748047 22.93017578125 50.82216262817383 23.126564025878906 50.335025787353516 24.11432456970215 C 50.01384735107422 24.765605926513672 49.70214080810547 25.298473358154297 49.64238739013672 25.298473358154297 C 49.58263397216797 25.298473358154297 48.391014099121094 22.945478439331055 46.994449615478516 20.069454193115234 C 44.83365249633789 15.619970321655273 44.305702209472656 14.67848014831543 43.45311737060547 13.754298210144043 C 41.54936981201172 11.690600395202637 39.49696350097656 10.734901428222656 36.71257781982422 10.615574836730957 C 35.51640319824219 10.564383506774902 34.67857360839844 10.626870155334473 33.999778747558594 10.817973136901855" stroke-width="1.0" fill="rgb(254, 226, 221)" opacity="1.0"/>
  </g>
</svg>
