<?xml version="1.0" ?>
<svg xmlns="http://www.w3.org/2000/svg" version="1.1" width="100" height="100">
  <defs/>
  <g>
    <path d="M 58.12006378173828 13.433982849121094 L 58.12006378173828 15.928064346313477 L 57.477359771728516 17.22899627685547 C 56.999820709228516 18.195409774780273 56.26833724975586 19.15728759765625 54.632015228271484 20.970294952392578 C 52.17856979370117 23.68866729736328 50.30330276489258 26.35855484008789 49.51443862915039 28.256671905517578 C 48.94916915893555 29.616731643676758 48.42820358276367 31.521650314331055 47.500858306884766 35.61944580078125 C 46.77286911010742 38.83558654785156 46.052547454833984 40.74259948730469 44.93300247192383 42.41642379760742 C 42.226314544677734 46.463287353515625 38.13131332397461 47.93165969848633 30.232053756713867 47.68765640258789 C 23.728607177734375 47.48673629760742 16.978891372680664 45.93569564819336 12.217988014221191 43.547828674316406 C 11.324304580688477 43.09959411621094 10.592300415039062 42.74135208129883 10.59160327911377 42.751644134521484 C 10.590730667114258 42.761932373046875 10.474573135375977 43.63364028930664 10.33329963684082 44.6888313293457 C 10.006278991699219 47.131980895996094 10.0 52.48501205444336 10.321090698242188 54.897117614746094 C 10.562825202941895 56.71308517456055 11.350117683410645 60.4969367980957 11.650628089904785 61.28719711303711 L 11.805853843688965 61.69567108154297 L 12.660120010375977 61.16999435424805 C 13.129983901977539 60.880821228027344 14.838865280151367 59.70737838745117 16.457576751708984 58.56201934814453 C 20.72402572631836 55.54365921020508 22.785390853881836 54.60847091674805 26.046184539794922 54.212032318115234 C 28.801185607910156 53.87698745727539 30.770288467407227 54.52143859863281 32.089534759521484 56.18968200683594 C 32.97031021118164 57.303123474121094 33.3885498046875 58.14447784423828 34.57384490966797 61.184471130371094 C 35.760711669921875 64.2286376953125 36.386505126953125 65.35307312011719 37.53150939941406 66.498779296875 C 38.72553253173828 67.69366455078125 39.83775329589844 68.21009826660156 41.39350128173828 68.29190063476562 C 43.33871078491211 68.39410400390625 44.832889556884766 67.69349670410156 48.62895202636719 64.89872741699219 C 51.084136962890625 63.09096145629883 52.55302810668945 62.3453483581543 54.80624771118164 61.76264572143555 C 56.85017395019531 61.23400115966797 59.63116455078125 61.117671966552734 61.17226028442383 61.496315002441406 C 67.027587890625 62.935035705566406 70.82679748535156 69.31221008300781 71.62891387939453 79.04784393310547 C 71.73164367675781 80.29488372802734 71.83436584472656 81.69906616210938 71.85704040527344 82.16806030273438 L 71.89855194091797 83.02111053466797 L 73.72987365722656 81.66226959228516 C 75.86431884765625 80.07861328125 79.83321380615234 76.171630859375 81.3500747680664 74.16049194335938 C 85.03485870361328 69.2757568359375 87.67108917236328 63.505706787109375 88.79900360107422 57.856876373291016 C 89.03846740722656 56.657798767089844 89.28648376464844 55.19815444946289 89.35014343261719 54.61317825317383 L 89.46595001220703 53.549617767333984 L 88.3563461303711 53.335792541503906 C 78.86698150634766 51.50656509399414 69.61149597167969 46.931758880615234 65.44271850585938 42.00987243652344 C 62.12053680419922 38.087364196777344 61.18534469604492 33.92137908935547 62.58830261230469 29.292325973510742 C 63.11711883544922 27.54786491394043 64.68315887451172 24.490436553955078 65.95845031738281 22.713010787963867 C 67.35130310058594 20.771638870239258 69.52934265136719 18.54510498046875 70.92062377929688 17.6402587890625 C 71.49810791015625 17.264751434326172 71.97407531738281 16.903894424438477 71.97825622558594 16.838315963745117 C 72.00511169433594 16.414321899414062 65.544921875 13.115159034729004 63.003578186035156 12.254962921142578 C 61.56590270996094 11.768355369567871 58.603355407714844 10.941472053527832 58.29447555541992 10.94059944152832 C 58.18634033203125 10.940251350402832 58.12006378173828 11.887304306030273 58.12006378173828 13.433982849121094" stroke-width="1.0" fill="rgb(253, 211, 125)" opacity="1.0"/>
    <path d="M 24.98192596435547 54.445396423339844 C 22.434127807617188 54.949790954589844 20.353052139282227 55.92509841918945 17.482242584228516 57.96065139770508 C 15.375703811645508 59.454132080078125 12.545706748962402 61.3853874206543 12.090493202209473 61.640201568603516 C 11.826957702636719 61.78758239746094 11.849980354309082 61.94507598876953 12.341645240783691 63.36146926879883 C 12.639365196228027 64.21905517578125 13.421773910522461 66.01931762695312 14.080350875854492 67.36228942871094 C 19.431114196777344 78.27293395996094 29.466562271118164 86.156494140625 41.28919982910156 88.7369155883789 C 47.076866149902344 90.0 53.800071716308594 89.89482879638672 59.60255813598633 88.45018005371094 C 63.16176986694336 87.56399536132812 67.82099151611328 85.59471893310547 70.65866088867188 83.77735137939453 L 71.68612670898438 83.11930084228516 L 71.58810424804688 80.47312927246094 C 71.39572143554688 75.27725219726562 70.14920806884766 70.42111206054688 68.11923217773438 66.95782470703125 C 67.22781372070312 65.43748474121094 64.80262756347656 63.09723663330078 63.430362701416016 62.43325424194336 C 60.527286529541016 61.02872085571289 57.2530632019043 60.995758056640625 53.24474334716797 62.3306999206543 C 52.25879669189453 62.658939361572266 51.31889724731445 63.16560363769531 50.01622009277344 64.07115173339844 C 49.0055046081543 64.773681640625 47.36045837402344 65.90072631835938 46.36038589477539 66.57569885253906 C 42.90686798095703 68.90687561035156 40.717308044433594 69.0723876953125 38.160614013671875 67.19572448730469 C 36.83561325073242 66.22303771972656 35.76141357421875 64.45590209960938 34.38530731201172 60.984596252441406 C 32.709388732910156 56.75668716430664 31.825300216674805 55.49447250366211 29.960670471191406 54.666019439697266 C 28.96094512939453 54.2218017578125 26.632728576660156 54.11872100830078 24.98192596435547 54.445396423339844" stroke-width="1.0" fill="rgb(94, 176, 130)" opacity="1.0"/>
    <path d="M 44.69039535522461 10.325799942016602 C 29.884103775024414 12.347227096557617 17.48573112487793 22.26738929748535 12.409491539001465 36.15436553955078 C 11.52662181854248 38.56996154785156 10.578173637390137 42.36688995361328 10.793047904968262 42.62623977661133 C 11.06059455871582 42.949424743652344 13.733098030090332 44.205013275146484 15.564241409301758 44.867774963378906 C 21.14383316040039 46.887630462646484 28.824729919433594 48.00473403930664 34.094566345214844 47.56295394897461 C 38.48501968383789 47.1949462890625 41.16380310058594 46.24527359008789 43.176856994628906 44.343318939208984 C 45.420658111572266 42.223350524902344 46.43869400024414 39.954261779785156 47.74259567260742 34.16834259033203 C 48.86336135864258 29.195005416870117 49.487579345703125 27.554319381713867 51.23744583129883 24.980356216430664 C 52.050201416015625 23.784942626953125 52.73197555541992 22.96660614013672 55.45889663696289 19.91301155090332 C 57.732872009277344 17.366783142089844 58.48545455932617 15.158387184143066 58.07524108886719 12.234905242919922 C 57.97320556640625 11.508133888244629 57.859493255615234 10.883044242858887 57.82251739501953 10.8460693359375 C 57.78536605834961 10.809093475341797 57.01307678222656 10.649333000183105 56.1063117980957 10.491142272949219 C 53.853790283203125 10.09801959991455 47.07773971557617 10.0 44.69039535522461 10.325799942016602" stroke-width="1.0" fill="rgb(94, 176, 130)" opacity="1.0"/>
    <path d="M 71.10411071777344 17.613224029541016 C 67.84593200683594 19.736331939697266 64.12225341796875 24.861061096191406 62.773529052734375 29.079021453857422 C 61.09046173095703 34.341880798339844 62.32633972167969 38.80541229248047 66.66377258300781 43.128719329833984 C 70.96440887451172 47.415401458740234 79.01470184326172 51.25419235229492 87.45045471191406 53.040687561035156 L 89.3975830078125 53.45317077636719 L 89.49700164794922 53.08237075805664 C 89.66548156738281 52.455013275146484 89.61175537109375 47.474876403808594 89.41728973388672 45.68489074707031 C 88.17373657226562 34.23322296142578 82.501708984375 24.530899047851562 72.84822082519531 17.342538833618164 L 72.22836303710938 16.88087272644043 L 71.10411071777344 17.613224029541016" stroke-width="1.0" fill="rgb(94, 176, 130)" opacity="1.0"/>
    <path d="M 66.05577087402344 64.31008911132812 L 66.75341796875 65.00773620605469 L 66.05577087402344 64.31008911132812 L 65.3581314086914 63.61244583129883 L 66.05577087402344 64.31008911132812" stroke-width="1.0" fill="rgb(148, 188, 128)" opacity="1.0"/>
    <path d="M 66.49180603027344 43.1191291809082 L 67.10224151611328 43.72956848144531 L 66.49180603027344 43.1191291809082 L 65.88136291503906 42.508689880371094 L 66.49180603027344 43.1191291809082" stroke-width="1.0" fill="rgb(189, 197, 127)" opacity="1.0"/>
    <path d="M 43.3823127746582 44.23954391479492 L 42.946285247802734 44.700340270996094 L 43.3823127746582 44.23954391479492 L 43.81834030151367 43.778751373291016 L 43.3823127746582 44.23954391479492" stroke-width="1.0" fill="rgb(148, 188, 128)" opacity="1.0"/>
  </g>
</svg>
