<?xml version="1.0" ?>
<svg xmlns="http://www.w3.org/2000/svg" version="1.1" width="100" height="100">
  <defs/>
  <g>
    <path d="M 30.84170150756836 10.454821586608887 C 28.35029411315918 11.192230224609375 25.621562957763672 13.158519744873047 23.798269271850586 15.530563354492188 C 20.391010284423828 19.963024139404297 19.523822784423828 26.75070571899414 21.418615341186523 34.15563201904297 L 22.07291030883789 36.712127685546875 L 21.288236618041992 37.47056579589844 C 18.262298583984375 40.395362854003906 14.026906967163086 47.13818359375 12.255484580993652 51.85123062133789 C 10.291998863220215 57.074974060058594 10.0 62.374019622802734 11.441771507263184 66.61322021484375 C 13.827234268188477 73.6268081665039 21.21013069152832 79.39929962158203 31.962234497070312 82.65775299072266 C 38.230403900146484 84.55735778808594 44.581687927246094 85.32260131835938 51.18071365356445 84.97352600097656 C 67.69269561767578 84.09992980957031 81.0199203491211 76.65495300292969 86.81724548339844 65.06570434570312 C 90.0 58.70320129394531 89.8924560546875 52.04349136352539 86.49720764160156 45.24018859863281 C 86.11188507080078 44.46833419799805 85.52407836914062 43.408687591552734 85.19062042236328 42.88536834716797 L 84.58479309082031 41.93406677246094 L 83.4432373046875 41.93406677246094 C 82.41503143310547 41.93406677246094 82.23818969726562 41.86857986450195 81.6615982055664 41.27356719970703 C 81.13988494873047 40.73542785644531 81.02152252197266 40.45124053955078 81.02152252197266 39.737266540527344 C 81.02152252197266 39.24058532714844 81.15129852294922 38.71786880493164 81.32133483886719 38.53001403808594 C 81.59310150146484 38.22980499267578 81.46672821044922 38.049556732177734 79.969482421875 36.602378845214844 C 79.06104278564453 35.7243766784668 78.01641082763672 34.775882720947266 77.64791107177734 34.49469757080078 L 76.97798919677734 33.98320007324219 L 77.58021545410156 32.100624084472656 C 80.06721496582031 24.325790405273438 79.62081146240234 17.084287643432617 76.43124389648438 13.460732460021973 C 75.50437927246094 12.407892227172852 73.58294677734375 11.33742904663086 71.40837860107422 10.662506103515625 C 69.30130004882812 10.008611679077148 66.10692596435547 10.0 64.06333923339844 10.642478942871094 C 61.23866653442383 11.530693054199219 58.24317169189453 14.05234146118164 56.28969955444336 17.18642807006836 C 54.56454086303711 19.954612731933594 53.07149887084961 24.041000366210938 52.6645393371582 27.108797073364258 C 52.5904426574707 27.667360305786133 52.44524002075195 28.176456451416016 52.34170150756836 28.240543365478516 C 52.2381591796875 28.304431915283203 50.95079803466797 28.191476821899414 49.48078536987305 27.989601135253906 L 46.80833435058594 27.622499465942383 L 45.87685775756836 25.036563873291016 C 43.76617431640625 19.175949096679688 41.32884216308594 14.61070442199707 39.21315002441406 12.554492950439453 C 38.72968673706055 12.084650039672852 37.65922164916992 11.366668701171875 36.834293365478516 10.958910942077637 C 35.536720275878906 10.317634582519531 35.11334228515625 10.209486961364746 33.69440460205078 10.156814575195312 C 32.549034118652344 10.114155769348145 31.688657760620117 10.204078674316406 30.84170150756836 10.454821586608887" stroke-width="1.0" fill="rgb(254, 226, 221)" opacity="1.0"/>
    <path d="M 60.293174743652344 63.424251556396484 C 59.56557846069336 63.653167724609375 59.48206329345703 63.75010299682617 59.383731842041016 64.48150634765625 C 59.324249267578125 64.92451477050781 59.0781135559082 65.56398010253906 58.83698272705078 65.90264129638672 C 58.42982482910156 66.47442626953125 57.31730651855469 67.1685791015625 56.80820846557617 67.1685791015625 C 56.44270706176758 67.1685791015625 56.56047058105469 68.00471496582031 57.02069854736328 68.67623901367188 C 57.5604362487793 69.46391296386719 58.43623352050781 70.07154846191406 59.820926666259766 70.618896484375 C 61.3674430847168 71.23013305664062 64.236572265625 71.20689392089844 65.89523315429688 70.57003021240234 C 67.54649353027344 69.93576049804688 68.79440307617188 68.7317123413086 68.94219970703125 67.63020324707031 C 69.00408935546875 67.16937255859375 68.99707794189453 66.56314086914062 68.92678833007812 66.28317260742188 C 68.712890625 65.43060302734375 67.68067932128906 64.45466613769531 66.35687255859375 63.85304260253906 C 65.2872085571289 63.36677551269531 64.8011474609375 63.2734489440918 63.09701156616211 63.226985931396484 C 61.889957427978516 63.193939208984375 60.776031494140625 63.27244567871094 60.293174743652344 63.424251556396484" stroke-width="1.0" fill="rgb(246, 111, 108)" opacity="1.0"/>
    <path d="M 31.262676239013672 63.6351432800293 C 30.212039947509766 64.00263977050781 29.66208839416504 64.34231567382812 29.02361488342285 65.01803588867188 C 27.951549530029297 66.15278625488281 27.763690948486328 66.99253845214844 28.307235717773438 68.22122192382812 C 29.079090118408203 69.96620178222656 31.27809715270996 71.0280532836914 34.157432556152344 71.04667663574219 C 37.44633102416992 71.06770324707031 39.9789924621582 69.73388671875 40.474273681640625 67.71932983398438 C 40.582420349121094 67.27932739257812 40.54036331176758 67.1685791015625 40.26478576660156 67.1685791015625 C 39.152061462402344 67.1685791015625 37.56208801269531 65.4776611328125 37.56208801269531 64.29444885253906 C 37.56208801269531 63.535606384277344 36.936031341552734 63.304290771484375 34.658119201660156 63.2211799621582 C 32.9333610534668 63.158294677734375 32.462120056152344 63.21577072143555 31.262676239013672 63.6351432800293" stroke-width="1.0" fill="rgb(246, 111, 108)" opacity="1.0"/>
    <path d="M 55.27631378173828 61.44214630126953 C 54.940452575683594 61.58834457397461 54.42234802246094 61.9973030090332 54.12473678588867 62.35078811645508 C 53.07109832763672 63.60309982299805 53.5395393371582 65.9200668334961 54.99933624267578 66.67489624023438 C 57.55082702636719 67.99430084228516 60.24290466308594 65.4480209350586 59.00341033935547 62.88772201538086 C 58.31066131591797 61.456565856933594 56.68804168701172 60.82730484008789 55.27631378173828 61.44214630126953" stroke-width="1.0" fill="rgb(127, 66, 41)" opacity="1.0"/>
    <path d="M 39.464691162109375 61.443145751953125 C 37.02555847167969 62.5272331237793 37.138511657714844 65.99497985839844 39.64073181152344 66.8493423461914 C 42.12012481689453 67.69589233398438 44.318729400634766 65.23613739013672 43.1817741394043 62.88772201538086 C 42.48982620239258 61.458168029785156 40.85779571533203 60.82390213012695 39.464691162109375 61.443145751953125" stroke-width="1.0" fill="rgb(127, 66, 41)" opacity="1.0"/>
  </g>
</svg>
