<?xml version="1.0" ?>
<svg xmlns="http://www.w3.org/2000/svg" version="1.1" width="100" height="100">
  <defs/>
  <g>
    <path d="M 37.62842559814453 10.23231029510498 C 36.34443664550781 10.604795455932617 35.50117492675781 11.310102462768555 34.93061828613281 12.488898277282715 C 34.42116165161133 13.541316032409668 34.41672897338867 13.741847038269043 34.41672897338867 36.288761138916016 L 34.41672897338867 59.02733612060547 L 33.86243438720703 58.86991500854492 C 31.115360260009766 58.0897216796875 29.942720413208008 57.94264602661133 27.27250862121582 58.042911529541016 C 25.04351043701172 58.126670837402344 24.054161071777344 58.28581619262695 22.63245964050293 58.78862380981445 C 18.617408752441406 60.20884323120117 15.690248489379883 62.70069885253906 13.99312686920166 66.14298248291016 C 10.0 74.2425537109375 14.691289901733398 83.0824203491211 24.3162784576416 85.59546661376953 C 25.801536560058594 85.98322296142578 29.755002975463867 85.9871597290039 31.583675384521484 85.60260772705078 C 32.396636962890625 85.431640625 34.10238265991211 84.79161834716797 35.37454605102539 84.18016815185547 C 40.69945526123047 81.62056732177734 43.90696334838867 76.33778381347656 43.42460632324219 70.9222183227539 C 43.24058151245117 68.85679626464844 43.23713302612305 38.242584228515625 43.42091369628906 38.058799743652344 C 43.68943405151367 37.790279388427734 76.4171142578125 34.62366485595703 76.55851745605469 34.8527717590332 C 76.73686981201172 35.14100646972656 77.3719711303711 43.93455505371094 77.22515106201172 44.08137893676758 C 77.16676330566406 44.139766693115234 76.46292877197266 44.06462860107422 75.66081237792969 43.91435241699219 C 71.20848083496094 43.080204010009766 65.46847534179688 44.95322036743164 62.035545349121094 48.36003112792969 C 59.33182907104492 51.043052673339844 58.062129974365234 54.042640686035156 58.07247543334961 57.7214241027832 C 58.08405303955078 61.7325325012207 59.127357482910156 64.23104095458984 61.99835205078125 67.12272644042969 C 65.31006622314453 70.45833587646484 69.31920623779297 71.94754028320312 74.3258285522461 71.70167541503906 C 78.62935638427734 71.49031066894531 82.0191650390625 70.02303314208984 84.9039535522461 67.12297058105469 C 89.09416198730469 62.91083526611328 90.0 57.38884735107422 87.42068481445312 51.7803840637207 C 86.75602722167969 50.33503723144531 86.67646026611328 49.83026123046875 86.30101013183594 44.681495666503906 C 86.07881164550781 41.63288116455078 85.44740295410156 33.37391662597656 84.89804077148438 26.32823944091797 C 83.76383209228516 11.780635833740234 83.79684448242188 11.943720817565918 81.75433349609375 10.742999076843262 L 80.6078109741211 10.068978309631348 L 59.544677734375 10.02685260772705 C 46.03742218017578 10.0 38.175575256347656 10.07365894317627 37.62842559814453 10.23231029510498" stroke-width="1.0" fill="rgb(246, 111, 108)" opacity="1.0"/>
  </g>
</svg>
