<?xml version="1.0" ?>
<svg xmlns="http://www.w3.org/2000/svg" version="1.1" width="100" height="100">
  <defs/>
  <g>
    <path d="M 40.848419189453125 10.226448059082031 C 36.36815643310547 10.611166000366211 32.90638732910156 13.223493576049805 31.165590286254883 17.53331184387207 C 30.38797950744629 19.45846939086914 29.876646041870117 21.826433181762695 29.769855499267578 23.996299743652344 C 29.714723587036133 25.120365142822266 29.639936447143555 26.039897918701172 29.603759765625 26.039897918701172 C 29.567584991455078 26.039897918701172 29.01172637939453 25.775012969970703 28.368383407592773 25.451168060302734 C 23.625843048095703 23.064071655273438 18.64676856994629 22.590129852294922 15.619461059570312 24.237878799438477 C 12.37440013885498 26.004070281982422 10.0 31.147850036621094 10.753783226013184 34.778846740722656 C 11.401299476623535 37.89763641357422 14.461827278137207 41.04999542236328 18.822952270507812 43.089942932128906 C 19.60334587097168 43.45500564575195 20.457134246826172 43.80720138549805 20.720108032226562 43.872772216796875 C 20.983253479003906 43.93816375732422 21.198396682739258 44.04547882080078 21.198396682739258 44.111045837402344 C 21.198396682739258 44.176612854003906 20.82672119140625 44.514198303222656 20.37226104736328 44.86100387573242 C 19.141754150390625 45.80036163330078 16.8381404876709 48.237548828125 15.988525390625 49.49884033203125 C 15.018729209899902 50.938751220703125 13.985625267028809 53.17262268066406 13.712217330932617 54.420867919921875 C 13.001914978027344 57.66401672363281 15.614938735961914 61.59050369262695 19.893972396850586 63.70975875854492 C 21.86417579650879 64.68547058105469 23.571754455566406 65.05975341796875 25.546478271484375 64.94895935058594 C 27.338932037353516 64.84843444824219 28.616050720214844 64.44093322753906 31.372907638549805 63.090248107910156 C 34.14611053466797 61.73138427734375 35.84221267700195 60.584014892578125 37.72127914428711 58.79608154296875 L 39.27667236328125 57.315818786621094 L 40.54248809814453 58.349449157714844 C 46.657108306884766 63.342262268066406 49.02559280395508 64.53189849853516 52.8524284362793 64.53189849853516 C 55.00960159301758 64.53189849853516 56.32950210571289 64.22527313232422 58.35049057006836 63.25477600097656 C 60.92959976196289 62.01592254638672 64.09361267089844 59.304630279541016 65.04653930664062 57.51652908325195 C 65.41925048828125 56.81718444824219 65.46116638183594 56.52360153198242 65.45578002929688 54.650272369384766 C 65.45004272460938 52.709983825683594 65.40985870361328 52.46353530883789 64.88426208496094 51.14485168457031 C 64.21849060058594 49.47483825683594 62.84884262084961 47.236793518066406 61.395713806152344 45.444339752197266 L 60.3554801940918 44.16130828857422 L 61.830169677734375 43.70145797729492 C 65.76884460449219 42.47356033325195 68.91946411132812 40.429264068603516 70.68373107910156 37.95677185058594 C 73.49242401123047 34.02088928222656 73.18388366699219 27.878440856933594 70.00822448730469 24.50798225402832 C 68.84188842773438 23.27016830444336 68.1415023803711 22.84197235107422 66.19721221923828 22.178279876708984 C 64.79173278808594 21.69860076904297 64.30110168457031 21.62085723876953 62.25071716308594 21.55302619934082 C 59.0767936706543 21.447803497314453 56.1934928894043 22.01044464111328 53.85822677612305 23.190513610839844 C 53.407066345214844 23.418354034423828 52.957130432128906 23.60497283935547 52.85816955566406 23.60497283935547 C 52.753814697265625 23.60497283935547 52.678157806396484 23.14946746826172 52.67781066894531 22.51795196533203 C 52.67624282836914 19.977977752685547 51.813758850097656 16.5040340423584 50.679080963134766 14.46756649017334 C 49.956607818603516 13.170794486999512 48.514957427978516 11.704099655151367 47.41471862792969 11.14632797241211 C 45.79062271118164 10.322975158691406 43.484920501708984 10.0 40.848419189453125 10.226448059082031" stroke-width="1.0" fill="rgb(246, 111, 108)" opacity="1.0"/>
    <path d="M 38.40949249267578 58.319705963134766 C 37.9830322265625 58.75938415527344 36.999149322509766 59.618568420410156 36.222930908203125 60.22868728637695 L 34.81171417236328 61.3381462097168 L 34.70005798339844 63.64680099487305 C 34.63848876953125 64.91644287109375 34.5739631652832 67.7750473022461 34.55657196044922 69.9990005493164 C 34.53917694091797 72.22312927246094 34.49134826660156 74.04271697998047 34.45012664794922 74.04271697998047 C 34.40890884399414 74.04271697998047 33.927490234375 73.77070617675781 33.38015365600586 73.4383316040039 C 30.836353302001953 71.89302825927734 28.294466018676758 70.93019104003906 25.793622970581055 70.56442260742188 C 24.167266845703125 70.32667541503906 22.879016876220703 70.49972534179688 21.477718353271484 71.14393615722656 C 20.210512161254883 71.72657775878906 19.54647445678711 72.35113525390625 18.994094848632812 73.4802474975586 C 18.047775268554688 75.41444396972656 18.459627151489258 77.73006439208984 20.148944854736328 79.97384643554688 C 21.146392822265625 81.29827117919922 22.095664978027344 82.14128112792969 24.763824462890625 84.0716552734375 C 25.816059112548828 84.83291625976562 27.107439041137695 85.7830581665039 27.633556365966797 86.18290710449219 C 29.040771484375 87.2527084350586 30.229013442993164 87.83483123779297 32.851253509521484 88.7394027709961 C 35.73698806762695 89.73493957519531 38.134521484375 90.0 40.343868255615234 89.56814575195312 C 41.509849548339844 89.34013366699219 41.811431884765625 89.3403091430664 42.95271682739258 89.5691909790039 C 45.07562255859375 89.99530029296875 47.52254867553711 89.73007202148438 50.364105224609375 88.7660140991211 C 51.626094818115234 88.33781433105469 53.113136291503906 87.74421691894531 53.66864776611328 87.44680786132812 C 55.32700729370117 86.55892944335938 60.84663391113281 82.41729736328125 62.18949890136719 81.05321502685547 C 66.44731140136719 76.72826385498047 65.33489990234375 71.49856567382812 59.958065032958984 70.56216430664062 C 57.13615798950195 70.07083129882812 52.24056625366211 71.67039489746094 48.726966857910156 74.23194885253906 C 48.08258056640625 74.70188903808594 47.511070251464844 75.08625793457031 47.4571533203125 75.08625793457031 C 47.308799743652344 75.08625793457031 46.93381881713867 68.19176483154297 46.93659973144531 65.51456451416016 L 46.93903732299805 63.1605110168457 L 46.404571533203125 62.84484100341797 C 45.76557922363281 62.467430114746094 42.29737091064453 59.87701416015625 40.59083557128906 58.502498626708984 C 39.921234130859375 57.963165283203125 39.33094024658203 57.52157211303711 39.27910614013672 57.521053314208984 C 39.22727966308594 57.52052688598633 38.83595275878906 57.87985610961914 38.40949249267578 58.319705963134766" stroke-width="1.0" fill="rgb(94, 176, 130)" opacity="1.0"/>
    <path d="M 39.373374938964844 28.053058624267578 C 36.05335235595703 28.78614616394043 33.136138916015625 31.075672149658203 31.592397689819336 34.16002655029297 C 30.48954963684082 36.363460540771484 30.17179298400879 37.900245666503906 30.29023551940918 40.456398010253906 C 30.422765731811523 43.319175720214844 31.078454971313477 45.153018951416016 32.77785873413086 47.41350173950195 C 33.84539794921875 48.83375930786133 35.190696716308594 49.90825653076172 36.93844985961914 50.73665237426758 C 38.64255142211914 51.5441780090332 39.718788146972656 51.780540466308594 41.693336486816406 51.780540466308594 C 43.52492141723633 51.780540466308594 44.85334777832031 51.46521759033203 46.58527755737305 50.61925506591797 C 48.32450866699219 49.769813537597656 50.601165771484375 47.527244567871094 51.497737884521484 45.78018569946289 C 54.07528305053711 40.757110595703125 53.27036666870117 34.97364044189453 49.464229583740234 31.167329788208008 C 46.79885482788086 28.50212860107422 42.85392761230469 27.28449249267578 39.373374938964844 28.053058624267578" stroke-width="1.0" fill="rgb(253, 211, 125)" opacity="1.0"/>
    <path d="M 38.06390380859375 58.52006530761719 L 36.93844985961914 59.69404602050781 L 38.10304260253906 58.57798385620117 C 39.158233642578125 57.566444396972656 39.29702377319336 57.4848747253418 39.58138656616211 57.70836639404297 C 39.86783981323242 57.93342590332031 39.87427520751953 57.92837905883789 39.656524658203125 57.650447845458984 C 39.525211334228516 57.48313522338867 39.366416931152344 57.34608459472656 39.30363464355469 57.34608459472656 C 39.2408447265625 57.34608459472656 38.682899475097656 57.87446212768555 38.06390380859375 58.52006530761719" stroke-width="1.0" fill="rgb(253, 211, 125)" opacity="1.0"/>
  </g>
</svg>
