<?xml version="1.0" ?>
<svg xmlns="http://www.w3.org/2000/svg" version="1.1" width="100" height="100">
  <defs/>
  <g>
    <path d="M 53.66366195678711 10.491357803344727 C 53.04716491699219 10.782947540283203 52.501705169677734 11.209270477294922 51.66038131713867 12.05711841583252 C 49.88125991821289 13.849834442138672 49.34152603149414 14.59506607055664 48.70930862426758 16.13071060180664 C 48.441837310791016 16.78078842163086 48.345619201660156 16.895931243896484 48.1186637878418 16.838359832763672 C 47.96953582763672 16.800512313842773 47.157806396484375 16.585018157958984 46.31488800048828 16.359663009643555 C 43.60169219970703 15.634020805358887 41.028961181640625 15.429322242736816 38.517799377441406 15.73917007446289 C 36.04728698730469 16.04395294189453 33.897945404052734 16.610340118408203 32.12188720703125 17.424470901489258 C 31.828699111938477 17.558805465698242 31.3076229095459 17.787757873535156 30.963926315307617 17.93315315246582 L 30.33890151977539 18.197555541992188 L 30.14632797241211 17.903568267822266 C 30.040380477905273 17.741914749145508 29.618057250976562 16.922319412231445 29.20785903930664 16.082199096679688 C 27.61131477355957 12.81301212310791 26.452550888061523 11.420499801635742 24.928770065307617 10.940069198608398 C 23.866226196289062 10.605168342590332 23.289310455322266 10.807068824768066 22.260086059570312 11.874141693115234 C 20.804672241210938 13.382863998413086 19.202659606933594 17.252822875976562 17.537216186523438 23.28384780883789 C 17.385290145874023 23.833576202392578 17.20591163635254 24.46326446533203 17.138212203979492 24.683156967163086 C 17.027999877929688 25.042179107666016 16.104188919067383 28.80219268798828 15.795940399169922 30.147127151489258 C 15.728641510009766 30.44031524658203 15.555792808532715 31.1899471282959 15.41159725189209 31.812973022460938 C 15.267534255981445 32.435997009277344 14.963418960571289 33.845306396484375 14.735930442810059 34.94476318359375 C 14.508575439453125 36.044219970703125 14.266029357910156 37.21364212036133 14.19713020324707 37.543479919433594 C 13.747751235961914 39.69481658935547 12.598052024841309 46.193748474121094 12.204778671264648 48.80459213256836 C 11.36439323425293 54.38450622558594 10.96845531463623 57.45112991333008 10.544264793395996 61.6649169921875 C 10.107280731201172 66.00624084472656 10.013460159301758 67.62078094482422 10.00666332244873 70.92701721191406 C 10.0 74.10651397705078 10.024121284484863 74.48526000976562 10.298786163330078 75.52474975585938 C 10.754961013793945 77.25176239013672 11.43889045715332 78.49154663085938 12.54701042175293 79.6001968383789 C 13.068619728088379 80.12194061279297 13.818249702453613 80.73310089111328 14.212855339050293 80.95806121826172 C 15.071897506713867 81.44808959960938 17.03706169128418 82.32272338867188 17.595720291137695 82.46385192871094 C 17.815610885620117 82.5194320678711 18.325359344482422 82.65282440185547 18.72849464416504 82.7603759765625 C 19.469728469848633 82.9580078125 20.669803619384766 83.17604064941406 21.825366973876953 83.32302856445312 C 22.66695213317871 83.43017578125 22.859790802001953 83.64886474609375 22.85992431640625 84.49644470214844 C 22.860057830810547 85.27513122558594 23.179500579833984 86.9417724609375 23.44896697998047 87.56919860839844 C 24.105575561523438 89.09844970703125 25.562191009521484 90.0 26.826099395751953 89.65963745117188 C 27.438865661621094 89.4946517944336 28.514734268188477 88.48701477050781 28.827247619628906 87.78536224365234 C 28.941455841064453 87.52882385253906 29.285953521728516 86.59927368164062 29.59286880493164 85.71971130371094 C 30.103683471679688 84.25563049316406 30.177780151367188 84.12223815917969 30.470035552978516 84.14142608642578 C 32.460784912109375 84.27203369140625 38.93865966796875 84.4444808959961 40.910884857177734 84.4192886352539 L 43.436439514160156 84.38703918457031 L 43.941925048828125 85.85298156738281 C 44.618656158447266 87.81521606445312 44.91944122314453 88.37053680419922 45.67306900024414 89.04821014404297 C 46.62193298339844 89.90125274658203 47.52775573730469 89.98241424560547 48.59282684326172 89.31007385253906 C 49.757591247558594 88.57483673095703 50.317047119140625 87.44286346435547 50.576385498046875 85.29672241210938 L 50.740169525146484 83.94072723388672 L 51.75926971435547 83.86009979248047 C 56.679107666015625 83.47069549560547 59.48505783081055 82.4695816040039 61.934783935546875 80.22962188720703 C 62.27981185913086 79.91417694091797 62.625240325927734 79.65603637695312 62.70253372192383 79.65603637695312 C 62.951080322265625 79.65603637695312 66.98123168945312 77.59132385253906 67.61864471435547 77.1375503540039 C 67.83506774902344 76.9834976196289 68.04310607910156 76.857421875 68.08094787597656 76.857421875 C 68.11892700195312 76.857421875 68.5293960571289 76.60181427001953 68.99330139160156 76.28929901123047 C 74.98274230957031 72.2544937133789 78.33509063720703 67.7177963256836 79.65177917480469 61.86481857299805 C 79.7629165649414 61.371063232421875 79.82901763916016 60.27519989013672 79.82475280761719 58.99956512451172 C 79.81875610351562 57.207645416259766 79.77117919921875 56.756004333496094 79.46546936035156 55.591243743896484 C 78.84883880615234 53.24094009399414 78.28324127197266 52.08897018432617 76.8135757446289 50.189109802246094 C 75.16692352294922 48.0605583190918 72.8632583618164 46.89273452758789 71.05268859863281 47.268550872802734 C 68.49447631835938 47.799625396728516 66.83436584472656 50.613834381103516 67.25909423828125 53.69911193847656 C 67.41407775878906 54.824954986572266 67.94915008544922 56.522789001464844 68.64413452148438 58.09400939941406 C 68.9132080078125 58.70197677612305 69.37510681152344 59.91910934448242 69.67070007324219 60.798675537109375 C 70.15925598144531 62.25276184082031 70.20869445800781 62.5248908996582 70.21430206298828 63.79719924926758 C 70.21775817871094 64.56681823730469 70.14993286132812 65.43998718261719 70.06370544433594 65.73744201660156 C 69.790771484375 66.67803955078125 69.12870025634766 67.51483154296875 68.18130493164062 68.11666870117188 C 67.09330749511719 68.80792236328125 66.47107696533203 68.99462890625 65.25674438476562 68.99462890625 L 64.30601501464844 68.99462890625 L 64.30601501464844 61.51538848876953 C 64.30601501464844 57.401817321777344 64.24457550048828 53.03903579711914 64.16941833496094 51.82017135620117 C 64.09425354003906 50.6014404296875 63.943260192871094 48.10493850708008 63.83384704589844 46.27251052856445 C 63.479488372802734 40.335968017578125 62.717063903808594 32.99932098388672 62.036865234375 28.981037139892578 C 61.77912521362305 27.458187103271484 61.618404388427734 26.537710189819336 61.50739288330078 25.949199676513672 C 61.44515609741211 25.619361877441406 61.325748443603516 24.959686279296875 61.24205780029297 24.483257293701172 C 61.025760650634766 23.253063201904297 60.78535079956055 22.165733337402344 60.16618728637695 19.618988037109375 C 59.281158447265625 15.978517532348633 58.30137252807617 13.323293685913086 57.21537780761719 11.622932434082031 C 56.77119445800781 10.927542686462402 56.35353469848633 10.550395011901855 55.745967864990234 10.296653747558594 C 55.03605270385742 10.0 54.62025833129883 10.03878116607666 53.66366195678711 10.491357803344727" stroke-width="1.0" fill="rgb(81, 55, 54)" opacity="1.0"/>
    <path d="M 54.3775749206543 11.186081886291504 C 54.157684326171875 11.264042854309082 53.81865310668945 11.439156532287598 53.62408447265625 11.575356483459473 C 53.429508209228516 11.711421966552734 53.23120880126953 11.822834014892578 53.18349838256836 11.822834014892578 C 53.03757095336914 11.822834014892578 51.53178024291992 13.40738582611084 50.986183166503906 14.135160446166992 C 50.38288116455078 14.939963340759277 49.5784797668457 16.40337371826172 49.46293640136719 16.90645980834961 C 49.388038635253906 17.232166290283203 49.47039794921875 17.34837532043457 49.81382751464844 17.40181541442871 C 50.336368560791016 17.482975006103516 53.45083236694336 19.31673812866211 54.590538024902344 20.214427947998047 C 55.342166900634766 20.80640411376953 55.47930145263672 20.97445297241211 55.436256408691406 21.251516342163086 C 55.4219970703125 21.343204498291016 55.40293884277344 21.478071212768555 55.393741607666016 21.551368713378906 C 55.36188888549805 21.805910110473633 54.680362701416016 21.682769775390625 54.28628921508789 21.35106658935547 L 53.88981628417969 21.01763153076172 L 53.11060333251953 22.10776138305664 C 52.30326461791992 23.237205505371094 50.91648483276367 24.812427520751953 49.646575927734375 26.042753219604492 C 48.50141143798828 27.152204513549805 47.6026496887207 27.28107452392578 47.03653335571289 26.416969299316406 C 46.79705047607422 26.05154800415039 46.80571365356445 25.785146713256836 47.25602340698242 19.6309814453125 C 47.34318161010742 18.440502166748047 47.34571075439453 17.731252670288086 47.26321792602539 17.648761749267578 C 47.133018493652344 17.518558502197266 44.701683044433594 16.897798538208008 44.29441452026367 16.890735626220703 C 44.16221237182617 16.888469696044922 43.9443244934082 17.14181137084961 43.75321578979492 17.520023345947266 C 41.46687698364258 22.043659210205078 41.346405029296875 22.21770668029785 40.499755859375 22.21770668029785 C 40.25307846069336 22.21770668029785 40.051307678222656 22.16466522216797 40.051307678222656 22.10003089904785 C 40.051307678222656 22.035263061523438 39.93790054321289 21.95263671875 39.79930114746094 21.91638946533203 C 39.49131774902344 21.83576202392578 38.86842346191406 20.57345199584961 38.10667037963867 18.48621368408203 C 37.747779846191406 17.50243377685547 37.47138214111328 16.938310623168945 37.33504867553711 16.910858154296875 C 37.21830749511719 16.887401580810547 36.67884063720703 16.96683120727539 36.13630676269531 17.087570190429688 L 35.14986038208008 17.30706214904785 L 34.99327087402344 18.396390914916992 C 34.90718078613281 18.995563507080078 34.777244567871094 19.93549919128418 34.70448303222656 20.4852294921875 C 34.63185119628906 21.034957885742188 34.51856994628906 21.84455680847168 34.4530029296875 22.284339904785156 C 34.38730239868164 22.724124908447266 34.26763153076172 23.59369468688965 34.186866760253906 24.216720581054688 C 33.97684097290039 25.83658790588379 33.80385971069336 26.420166015625 33.43950653076172 26.7369441986084 C 32.972267150878906 27.14327621459961 32.55354309082031 27.082773208618164 31.907995223999023 26.515586853027344 C 30.980716705322266 25.7010555267334 29.398164749145508 24.22125244140625 28.284181594848633 23.127391815185547 C 26.767196655273438 21.637725830078125 26.94430923461914 21.714887619018555 26.28383445739746 22.256088256835938 C 25.96799087524414 22.515026092529297 25.56312370300293 22.891773223876953 25.384145736694336 23.093408584594727 C 24.58707046508789 23.991497039794922 24.080120086669922 24.483257293701172 23.95111846923828 24.483257293701172 C 23.74148941040039 24.483257293701172 23.392860412597656 24.09251594543457 23.392860412597656 23.857696533203125 C 23.392860412597656 23.35487937927246 26.55316734313965 20.462039947509766 28.468490600585938 19.21172332763672 C 29.295148849487305 18.672122955322266 29.57647705078125 18.324827194213867 29.28995132446289 18.19742202758789 C 29.235044479370117 18.17303466796875 28.900409698486328 17.553340911865234 28.546585083007812 16.820369720458984 C 27.599985122680664 14.85947036743164 26.891401290893555 13.71043586730957 26.134973526000977 12.909364700317383 C 25.311382293701172 12.037261962890625 24.916242599487305 11.822834014892578 24.132362365722656 11.822834014892578 C 23.601825714111328 11.822834014892578 23.46229362487793 11.88826847076416 23.018646240234375 12.34550952911377 C 22.0034122467041 13.391660690307617 20.60703468322754 16.524381637573242 19.390567779541016 20.4852294921875 C 19.086584091186523 21.47473907470703 18.804325103759766 22.374298095703125 18.763145446777344 22.484241485595703 C 18.72196388244629 22.594188690185547 18.670923233032227 22.770767211914062 18.649734497070312 22.8767147064209 C 18.582965850830078 23.210681915283203 17.781360626220703 26.139772415161133 17.699535369873047 26.349002838134766 C 17.656490325927734 26.458948135375977 17.598785400390625 26.698829650878906 17.571199417114258 26.88207244873047 C 17.543479919433594 27.06531524658203 17.483642578125 27.30519676208496 17.43819808959961 27.415142059326172 C 17.353839874267578 27.61917495727539 17.342111587524414 27.669815063476562 17.191518783569336 28.48021697998047 C 17.143943786621094 28.736223220825195 17.06838035583496 29.005023956298828 17.023601531982422 29.077655792236328 C 16.97869110107422 29.1501522064209 16.929248809814453 29.30061149597168 16.913522720336914 29.41175651550293 C 16.860082626342773 29.791702270507812 16.49466323852539 31.5428409576416 16.381784439086914 31.960233688354492 C 16.340606689453125 32.11268997192383 16.813037872314453 32.50409698486328 18.02604103088379 33.323028564453125 C 20.36568832397461 34.902381896972656 22.355239868164062 36.45574951171875 24.778043746948242 38.5950927734375 C 26.058345794677734 39.72533416748047 25.987581253051758 39.6396484375 25.812599182128906 39.8504753112793 C 25.726642608642578 39.95402526855469 25.37201690673828 40.074501037597656 25.024322509765625 40.118343353271484 C 24.676761627197266 40.16218566894531 23.642738342285156 40.295989990234375 22.72652244567871 40.41552734375 C 21.336275100708008 40.59703826904297 18.888015747070312 40.675270080566406 14.597599029541016 40.675270080566406 C 14.597332000732422 40.675270080566406 14.507376670837402 41.144500732421875 14.397563934326172 41.71795654296875 C 14.224849700927734 42.62070846557617 14.223649978637695 42.786224365234375 14.388101577758789 42.950679779052734 C 14.492584228515625 43.05516052246094 14.672361373901367 43.14072036743164 14.787637710571289 43.14072036743164 C 14.90278148651123 43.14072036743164 14.997001647949219 43.200687408447266 14.997001647949219 43.27398681640625 C 14.997001647949219 43.34728240966797 15.065101623535156 43.40725326538086 15.148260116577148 43.40725326538086 C 15.345497131347656 43.40725326538086 23.533191680908203 47.777896881103516 23.78693389892578 48.018714904785156 C 23.908872604370117 48.13439178466797 23.93366050720215 48.24713134765625 23.853567123413086 48.32149887084961 C 23.71163558959961 48.45343017578125 13.469488143920898 51.18381881713867 13.093274116516113 51.18994903564453 C 12.857523918151855 51.193817138671875 12.818209648132324 51.28923797607422 12.670415878295898 52.21504592895508 L 12.594053268432617 52.69374465942383 L 14.095314025878906 53.262794494628906 C 15.726641654968262 53.88102340698242 19.325000762939453 55.387611389160156 21.00697135925293 56.15643310546875 C 22.002479553222656 56.611541748046875 22.271547317504883 56.88074493408203 21.893600463867188 57.04399490356445 C 19.920307159423828 57.896244049072266 18.59482765197754 58.422115325927734 18.59322738647461 58.35335159301758 C 18.592029571533203 58.305641174316406 18.547117233276367 58.32883071899414 18.493276596069336 58.40492248535156 C 18.439437866210938 58.48115158081055 17.73565101623535 58.82218551635742 16.92938232421875 59.1629524230957 C 13.801724433898926 60.48496627807617 11.597612380981445 61.42530059814453 11.572957992553711 61.44822311401367 C 11.514586448669434 61.5023307800293 11.250450134277344 64.45074462890625 11.058011054992676 67.19552612304688 C 10.664072036743164 72.81608581542969 10.867172241210938 75.14973449707031 11.92518424987793 77.15434265136719 C 12.382158279418945 78.02031707763672 13.494142532348633 79.50304412841797 13.696443557739258 79.5162353515625 C 13.750816345214844 79.51984405517578 14.051201820373535 79.71774291992188 14.363980293273926 79.95588684082031 C 15.622825622558594 80.91461181640625 17.86585235595703 81.69463348388672 20.74416732788086 82.1746597290039 C 21.667844772338867 82.3285903930664 22.45265769958496 82.45465850830078 22.488239288330078 82.45465850830078 C 22.52368927001953 82.45465850830078 22.590723037719727 81.03042602539062 22.636966705322266 79.28955078125 C 22.6833438873291 77.54881286621094 22.80794906616211 75.34483337402344 22.914030075073242 74.39197540283203 C 23.30756950378418 70.85731506347656 23.5623779296875 69.05673217773438 23.692047119140625 68.89468383789062 C 23.87395668029785 68.66732788085938 24.450471878051758 68.68399047851562 24.540695190429688 68.91920471191406 C 24.581073760986328 69.02435302734375 24.54549217224121 69.66909790039062 24.461666107177734 70.3518295288086 C 23.86942481994629 75.17758178710938 23.65939712524414 77.89117431640625 23.65939712524414 80.71951293945312 C 23.65939712524414 82.08084106445312 23.717100143432617 83.6728515625 23.787731170654297 84.25723266601562 C 23.858230590820312 84.84174346923828 23.94458770751953 85.5597915649414 23.979637145996094 85.85298156738281 C 24.182205200195312 87.55120849609375 25.16385269165039 88.81791687011719 26.258113861083984 88.7929916381836 C 26.701894760131836 88.78300476074219 27.52415657043457 88.34255981445312 27.52415657043457 88.11493682861328 C 27.52415657043457 88.0345687866211 27.629169464111328 87.85026550292969 27.757373809814453 87.70540618896484 C 27.885711669921875 87.56040954589844 28.00698471069336 87.38409423828125 28.02684211730957 87.31372833251953 C 28.046831130981445 87.24323272705078 28.40958595275879 86.16615295410156 28.832977294921875 84.92010498046875 C 30.120609283447266 81.13064575195312 31.744741439819336 75.11494445800781 32.592987060546875 70.99365234375 C 32.751312255859375 70.22402954101562 32.94241714477539 69.51943969726562 33.01744842529297 69.42774963378906 C 33.2979736328125 69.08552551269531 33.7991943359375 69.28009033203125 33.8719596862793 69.75932312011719 C 33.89634704589844 69.9200439453125 33.64167022705078 71.32002258300781 33.392860412597656 72.39295959472656 C 33.2065544128418 73.19602966308594 32.72585678100586 75.2459487915039 32.564605712890625 75.92455291748047 C 32.37083435058594 76.73961639404297 31.908794403076172 78.47728729248047 31.82056999206543 78.7231674194336 C 31.780990600585938 78.83311462402344 31.72581672668457 79.0428695678711 31.697830200195312 79.1893310546875 C 31.63652801513672 79.51077270507812 31.13983917236328 81.24125671386719 31.028427124023438 81.52178192138672 C 30.98484992980957 81.63172912597656 30.92754364013672 81.84162902832031 30.901290893554688 81.98822021484375 C 30.875036239624023 82.13481140136719 30.784547805786133 82.42520141601562 30.7001895904541 82.63349914550781 C 30.580249786376953 82.92975616455078 30.583980560302734 83.0353012084961 30.71751594543457 83.1177978515625 C 31.051483154296875 83.32423400878906 36.04075622558594 83.45003509521484 41.65052032470703 83.39352416992188 C 43.01171875 83.37980651855469 43.0435676574707 83.34901428222656 42.71879577636719 82.35963439941406 C 42.57233428955078 81.91358947753906 42.431068420410156 81.43755340576172 42.40468215942383 81.30188751220703 C 42.3784294128418 81.1663589477539 42.32112503051758 80.96539306640625 42.277278900146484 80.8554458618164 C 42.20371627807617 80.67086791992188 41.77952575683594 79.23011779785156 41.77738952636719 79.1576156616211 C 41.776859283447266 79.1401596069336 41.754337310791016 79.05020141601562 41.727149963378906 78.95771789550781 C 41.5662956237793 78.40918731689453 41.105987548828125 76.61540985107422 41.06867599487305 76.39098358154297 C 41.044151306152344 76.24439239501953 40.98991394042969 76.03450012207031 40.94806671142578 75.92455291748047 C 40.649147033691406 75.1404037475586 39.616722106933594 70.04291534423828 39.67443084716797 69.63604736328125 C 39.738128662109375 69.18653869628906 40.401939392089844 69.12443542480469 40.57025146484375 69.5522232055664 C 40.66967010498047 69.80463409423828 41.38038635253906 72.98600006103516 41.56229782104492 73.99217224121094 C 41.58882141113281 74.13876342773438 41.64186096191406 74.3486557006836 41.68037414550781 74.45860290527344 C 41.718753814697266 74.56855010986328 41.82390213012695 74.98834228515625 41.91399383544922 75.3914794921875 C 42.59272384643555 78.430908203125 44.849342346191406 85.86244201660156 45.54499816894531 87.34957122802734 C 45.873504638671875 88.0520248413086 46.50359344482422 88.67998504638672 46.98602294921875 88.78593444824219 C 47.73311996459961 88.94998931884766 48.740623474121094 88.21781158447266 49.16415023803711 87.20285034179688 C 49.99800109863281 85.20503234863281 50.08849334716797 79.48133087158203 49.38457107543945 73.25920104980469 C 49.145225524902344 71.14317321777344 48.99143600463867 69.92311096191406 48.908939361572266 69.48306274414062 C 48.81298828125 68.97157287597656 49.05979919433594 68.68292236328125 49.53489685058594 68.75115966796875 C 49.89325714111328 68.80272674560547 49.96295166015625 69.03794860839844 50.17924880981445 70.92701721191406 C 50.263206481933594 71.65998840332031 50.38528060913086 72.70947265625 50.450313568115234 73.25920104980469 C 50.775352478027344 76.00184631347656 50.872642517089844 77.5186996459961 50.89183044433594 80.1411361694336 L 50.912620544433594 83.0047836303711 L 51.31242370605469 82.93695831298828 C 51.53231430053711 82.89950561523438 52.132015228271484 82.83100128173828 52.64509963989258 82.78462982177734 C 55.106815338134766 82.56193542480469 57.06025314331055 82.08537292480469 58.76087951660156 81.29256439208984 C 60.46417236328125 80.4985580444336 61.40184783935547 79.58847045898438 62.16347122192383 77.99019622802734 C 62.9970588684082 76.24092864990234 63.18230056762695 74.71554565429688 63.312503814697266 68.5281982421875 L 63.396728515625 64.53016662597656 L 61.08613204956055 63.212554931640625 C 59.815162658691406 62.48784255981445 58.7387580871582 61.83803176879883 58.69384765625 61.76846694946289 C 58.649070739746094 61.69903564453125 58.55911636352539 61.64399337768555 58.49394607543945 61.646392822265625 C 58.3234977722168 61.65238952636719 56.651519775390625 60.70872116088867 56.59874725341797 60.57652282714844 C 56.57422637939453 60.51548385620117 56.49213409423828 60.46550750732422 56.41617202758789 60.46550750732422 C 56.09219741821289 60.46550750732422 53.110469818115234 58.65573501586914 53.14338684082031 58.47901916503906 C 53.16244125366211 58.376007080078125 53.50800704956055 58.1779670715332 53.91114044189453 58.03883743286133 C 54.81429672241211 57.72726058959961 58.70091247558594 56.571163177490234 58.97530746459961 56.532649993896484 C 59.08525466918945 56.51718521118164 59.26516342163086 56.468013763427734 59.3751106262207 56.42350387573242 C 59.48505783081055 56.37885665893555 60.38461685180664 56.142173767089844 61.37412643432617 55.89735794067383 L 63.17323684692383 55.45211410522461 L 63.20882034301758 54.46060562133789 L 63.244266510009766 53.46895980834961 L 59.54396057128906 52.016876220703125 C 57.508697509765625 51.21833419799805 55.603641510009766 50.46044158935547 55.31045150756836 50.3327751159668 C 55.01726150512695 50.205101013183594 54.26762771606445 49.90485382080078 53.64460372924805 49.66550064086914 C 53.02157974243164 49.42601776123047 52.45745849609375 49.1820068359375 52.39082336425781 49.12297058105469 C 52.247562408447266 48.995967864990234 52.55501174926758 48.574440002441406 52.71759796142578 48.6749267578125 C 52.777565002441406 48.711971282958984 52.85886001586914 48.68998336791992 52.898441314697266 48.626014709472656 C 52.93788528442383 48.56217956542969 53.49681091308594 48.31590270996094 54.14036178588867 48.07881546020508 C 54.783912658691406 47.84173583984375 55.504486083984375 47.56080627441406 55.74156951904297 47.454593658447266 C 55.97865295410156 47.3483772277832 57.23802947998047 46.851158142089844 58.54018783569336 46.349674224853516 C 59.842350006103516 45.84818649291992 61.3148193359375 45.273536682128906 61.81257629394531 45.07270050048828 L 62.71746063232422 44.70728302001953 L 62.67881774902344 43.69084930419922 L 62.640167236328125 42.67428207397461 L 61.97383117675781 42.58139419555664 C 61.60734558105469 42.53035354614258 60.47657012939453 42.38975524902344 59.4609375 42.26901626586914 C 58.44530487060547 42.148406982421875 56.91605758666992 41.9031982421875 56.06261444091797 41.724220275878906 C 55.209163665771484 41.545372009277344 54.36091995239258 41.369056701660156 54.177677154541016 41.332542419433594 C 53.3864631652832 41.17475509643555 51.434364318847656 40.577186584472656 51.31242370605469 40.45537567138672 C 51.22366714477539 40.36662292480469 51.312557220458984 40.214561462402344 51.578956604003906 39.99959945678711 C 51.79884719848633 39.82221984863281 52.02620315551758 39.67682647705078 52.08430862426758 39.676429748535156 C 52.142276763916016 39.676025390625 52.32218933105469 39.55155563354492 52.484107971191406 39.39976501464844 C 52.86378860473633 39.04380798339844 56.42190170288086 36.760398864746094 57.375030517578125 36.26104736328125 C 57.77750015258789 36.05021667480469 58.13732147216797 35.8419189453125 58.17463684082031 35.79821014404297 C 58.3104362487793 35.638954162597656 60.87583541870117 34.345054626464844 61.055747985839844 34.345054626464844 C 61.15756607055664 34.345054626464844 61.2408561706543 34.292015075683594 61.2408561706543 34.22738265991211 C 61.2408561706543 34.16261291503906 61.358001708984375 34.078922271728516 61.50126266479492 34.041473388671875 C 61.71142578125 33.98656463623047 61.749942779541016 33.88701629638672 61.700897216796875 33.52626037597656 C 60.70032501220703 26.17535400390625 59.4651985168457 20.00346565246582 58.278053283691406 16.42176628112793 C 58.0590934753418 15.761425018310547 57.86572265625 15.161188125610352 57.84812927246094 15.087890625 C 57.71019744873047 14.512840270996094 56.767333984375 12.681610107421875 56.258384704589844 12.000479698181152 C 55.83205795288086 11.429961204528809 55.27353286743164 11.01509952545166 54.95676040649414 11.033757209777832 C 54.85813903808594 11.0394868850708 54.597469329833984 11.10811996459961 54.3775749206543 11.186081886291504" stroke-width="1.0" fill="rgb(247, 187, 67)" opacity="1.0"/>
    <path d="M 37.27721405029297 44.57307815551758 C 35.39227294921875 44.61359405517578 35.3698844909668 44.617591857910156 35.411468505859375 44.910247802734375 L 35.45357894897461 45.20636749267578 L 38.102134704589844 45.168251037597656 L 40.75056457519531 45.1300048828125 L 40.66020965576172 45.50142288208008 C 40.61050033569336 45.705589294433594 40.53546905517578 46.54863739013672 40.49362564086914 47.374900817871094 C 40.418060302734375 48.86189651489258 40.421661376953125 48.8856201171875 40.839988708496094 49.735599517822266 C 41.0781364440918 50.2192268371582 41.47834014892578 50.77215576171875 41.7564697265625 51.00150680541992 C 43.304237365722656 52.27821350097656 45.3942756652832 51.62946701049805 46.41150665283203 49.55662155151367 C 46.762535095214844 48.84123992919922 46.77986145019531 48.71677017211914 46.76533126831055 47.0054817199707 C 46.756805419921875 46.01597213745117 46.68350601196289 45.0415153503418 46.60234832763672 44.839881896972656 L 46.45481491088867 44.47339630126953 L 42.819942474365234 44.502716064453125 C 40.820796966552734 44.51884078979492 38.326560974121094 44.550559997558594 37.27721405029297 44.57307815551758" stroke-width="1.0" fill="rgb(81, 55, 54)" opacity="1.0"/>
    <path d="M 77.49964141845703 55.88296890258789 C 77.0233383178711 56.118988037109375 76.60354614257812 56.30742645263672 76.56676483154297 56.30169677734375 C 76.53012084960938 56.295833587646484 76.32141876220703 56.364463806152344 76.10326385498047 56.45415115356445 C 74.57015228271484 57.08397674560547 71.16102600097656 57.18299102783203 69.76998901367188 56.6380615234375 C 69.6600341796875 56.59501647949219 69.4376220703125 56.53731155395508 69.27555847167969 56.50972366333008 C 68.99929809570312 56.46281433105469 69.02608489990234 56.56903076171875 69.7110824584961 58.22941207885742 C 70.41273498535156 59.930171966552734 70.86957550048828 60.59624099731445 71.33587646484375 60.59811019897461 C 71.42756652832031 60.598506927490234 71.5024642944336 60.668739318847656 71.5024642944336 60.75429916381836 C 71.5024642944336 60.839725494384766 71.54004669189453 60.872108459472656 71.58602905273438 60.826263427734375 C 71.63199615478516 60.7802848815918 71.84323120117188 60.83252716064453 72.05538940429688 60.94220733642578 C 73.30143737792969 61.586551666259766 76.19134521484375 61.86294937133789 77.92903137207031 61.50406265258789 C 78.5880355834961 61.36799621582031 78.721435546875 61.291236877441406 78.79685974121094 61.004310607910156 C 79.04313659667969 60.069034576416016 78.79432678222656 56.08500289916992 78.45863342285156 55.5907096862793 C 78.39999389648438 55.50408935546875 78.04683685302734 55.61177062988281 77.49964141845703 55.88296890258789" stroke-width="1.0" fill="rgb(247, 187, 67)" opacity="1.0"/>
    <path d="M 70.7028579711914 66.54957580566406 C 70.51961517333984 66.96003723144531 70.11488342285156 67.58186340332031 69.80329895019531 67.93156433105469 C 69.49185180664062 68.28125 69.2369155883789 68.63174438476562 69.2369155883789 68.71051025390625 C 69.2369155883789 69.03727722167969 69.94270324707031 70.41473388671875 70.38967895507812 70.96019744873047 C 70.65408325195312 71.28270721435547 71.19541931152344 71.76260375976562 71.59281921386719 72.02633666992188 L 72.31526184082031 72.506103515625 L 73.24946594238281 71.58322143554688 C 73.76335144042969 71.07574462890625 74.52230834960938 70.21070098876953 74.93623352050781 69.66097259521484 C 75.35002899169922 69.11124420166016 75.75196838378906 68.60149383544922 75.82939147949219 68.5281982421875 C 75.90682220458984 68.45490264892578 76.04315185546875 68.2300796508789 76.13230895996094 68.0284423828125 C 76.26011657714844 67.73951721191406 76.25971221923828 67.66142272949219 76.1307144165039 67.65929412841797 C 75.63162994384766 67.65129852294922 74.0360107421875 67.3613052368164 73.51080322265625 67.1831283569336 C 72.79662322998047 66.94084167480469 71.60494995117188 66.28010559082031 71.3685302734375 65.99531555175781 C 71.11932373046875 65.69493103027344 71.06388092041016 65.74117279052734 70.7028579711914 66.54957580566406" stroke-width="1.0" fill="rgb(247, 187, 67)" opacity="1.0"/>
    <path d="M 44.615726470947266 45.102020263671875 L 43.91606903076172 45.15372848510742 L 43.91606903076172 46.8125114440918 C 43.91606903076172 48.382537841796875 43.90180969238281 48.4714241027832 43.6495361328125 48.4714241027832 C 43.39725875854492 48.4714241027832 43.382999420166016 48.382537841796875 43.382999420166016 46.805580139160156 L 43.382999420166016 45.13973617553711 L 42.4086799621582 45.13973617553711 L 41.434364318847656 45.13973617553711 L 41.251121520996094 45.83938980102539 C 40.99951171875 46.799983978271484 41.02256393432617 48.67465591430664 41.29376220703125 49.2882194519043 C 41.99408721923828 50.87370681762695 43.460693359375 51.46821212768555 44.66156768798828 50.653282165527344 C 45.25940704345703 50.24748229980469 45.41679382324219 50.0666389465332 45.80567169189453 49.33766555786133 C 46.12804412841797 48.73369216918945 46.28130340576172 46.73094940185547 46.086334228515625 45.67280578613281 C 45.963462829589844 45.00633239746094 45.955196380615234 45.003135681152344 44.615726470947266 45.102020263671875" stroke-width="1.0" fill="rgb(254, 194, 194)" opacity="1.0"/>
    <path d="M 64.290283203125 70.7147216796875 C 64.281494140625 71.12464904785156 64.28042602539062 71.50152587890625 64.2876205444336 71.55230712890625 C 64.29495239257812 71.60308074951172 64.24217224121094 72.5674057006836 64.17047882080078 73.69525146484375 C 64.0562744140625 75.4934310913086 63.902076721191406 76.39098358154297 63.42404556274414 78.04376983642578 C 63.339290618896484 78.33655548095703 63.483882904052734 78.28538513183594 65.11814880371094 77.4440689086914 C 66.10072326660156 76.93817901611328 66.92485046386719 76.47894287109375 66.94937133789062 76.42350006103516 C 66.97402954101562 76.3680648803711 67.0489273071289 76.35660552978516 67.11595916748047 76.3980484008789 C 67.18299865722656 76.43949890136719 67.23789978027344 76.42083740234375 67.23789978027344 76.35673522949219 C 67.23789978027344 76.29263305664062 67.477783203125 76.10539245605469 67.77096557617188 75.94054412841797 C 68.06416320800781 75.77582550048828 68.30403900146484 75.609375 68.30403900146484 75.57086181640625 C 68.30403900146484 75.53234100341797 68.00645446777344 75.16692352294922 67.64276123046875 74.75885772705078 C 67.27908325195312 74.35079193115234 67.01268005371094 73.96644592285156 67.05091857910156 73.90460968017578 C 67.08917236328125 73.8427734375 67.06465148925781 73.79226684570312 66.99668884277344 73.79226684570312 C 66.7138900756836 73.79226684570312 66.154296875 72.12975311279297 66.07887268066406 71.06521606445312 L 66.00291442871094 69.994140625 L 65.15452575683594 69.98175048828125 L 64.30601501464844 69.96935272216797 L 64.290283203125 70.7147216796875" stroke-width="1.0" fill="rgb(247, 187, 67)" opacity="1.0"/>
    <path d="M 70.26880645751953 48.5472526550293 C 69.47026062011719 48.962913513183594 68.78900146484375 49.871002197265625 68.43597412109375 50.990447998046875 C 68.28804779052734 51.45968246459961 68.19542694091797 51.87214660644531 68.2303466796875 51.90706253051758 C 68.30044555664062 51.977294921875 70.53813934326172 51.946109771728516 71.16929626464844 51.86614990234375 C 71.3891830444336 51.83829879760742 71.9888916015625 51.68583679199219 72.50196838378906 51.52711486816406 C 73.01505279541016 51.3685302734375 73.45203399658203 51.2479248046875 73.47296142578125 51.259117126464844 C 73.49388122558594 51.270442962646484 73.59463500976562 51.20248031616211 73.69698333740234 51.10825729370117 C 73.7991943359375 51.0140380859375 74.24551391601562 50.73257827758789 74.68888854980469 50.48296356201172 L 75.49475860595703 50.02892303466797 L 74.66463470458984 49.38311004638672 C 73.12379455566406 48.183963775634766 71.54377746582031 47.88357925415039 70.26880645751953 48.5472526550293" stroke-width="1.0" fill="rgb(247, 187, 67)" opacity="1.0"/>
    <path d="M 44.548160552978516 35.48169708251953 C 43.90487289428711 35.91881561279297 43.6495361328125 36.432960510253906 43.6495361328125 37.29106903076172 C 43.6495361328125 39.328731536865234 46.21866989135742 40.16618347167969 47.4633903503418 38.5341911315918 C 48.22514724731445 37.535484313964844 47.85825729370117 35.86897277832031 46.761199951171875 35.34523010253906 C 46.09406280517578 35.0267219543457 45.130271911621094 35.086158752441406 44.548160552978516 35.48169708251953" stroke-width="1.0" fill="rgb(81, 55, 54)" opacity="1.0"/>
    <path d="M 32.38109588623047 35.2652702331543 C 31.998615264892578 35.43025588989258 31.276439666748047 36.28157043457031 31.174489974975586 36.687767028808594 C 30.851049423217773 37.9761962890625 31.761398315429688 39.24837112426758 33.09860610961914 39.376976013183594 C 34.315338134765625 39.49385070800781 35.257808685302734 38.699440002441406 35.35962677001953 37.47124481201172 C 35.471168518066406 36.12604522705078 34.72327423095703 35.255409240722656 33.39659118652344 35.18597412109375 C 32.98866271972656 35.164649963378906 32.53168487548828 35.20037078857422 32.38109588623047 35.2652702331543" stroke-width="1.0" fill="rgb(81, 55, 54)" opacity="1.0"/>
    <path d="M 35.301918029785156 44.67329788208008 C 35.259674072265625 44.78324508666992 35.27259826660156 44.978214263916016 35.33043670654297 45.10641860961914 C 35.409202575683594 45.28059768676758 35.427459716796875 45.24821472167969 35.40253448486328 44.97874450683594 L 35.369354248046875 44.61772537231445 L 36.47760772705078 44.57268142700195 L 37.58586120605469 44.52763748168945 L 36.482269287109375 44.50058364868164 C 35.60643768310547 44.4789924621582 35.36268615722656 44.51470947265625 35.301918029785156 44.67329788208008" stroke-width="1.0" fill="rgb(254, 194, 194)" opacity="1.0"/>
    <path d="M 63.23933792114258 54.43541717529297 C 63.20295715332031 55.040313720703125 63.220680236816406 55.53514099121094 63.27852249145508 55.534873962402344 C 63.336490631103516 55.53474044799805 63.3662109375 55.0399169921875 63.34462356567383 54.435150146484375 L 63.30530548095703 53.335693359375 L 63.23933792114258 54.43541717529297" stroke-width="1.0" fill="rgb(254, 194, 194)" opacity="1.0"/>
    <path d="M 73.30157470703125 71.58855438232422 L 72.50196838378906 72.39949035644531 L 73.30157470703125 71.58855438232422 L 74.10118103027344 70.7774887084961 L 73.30157470703125 71.58855438232422" stroke-width="1.0" fill="rgb(254, 194, 194)" opacity="1.0"/>
    <path d="M 24.025882720947266 23.02690887451172 C 23.67778778076172 23.381799697875977 23.395526885986328 23.779735565185547 23.39885711669922 23.9111385345459 C 23.403121948242188 24.08025360107422 23.4518985748291 24.04547119140625 23.565441131591797 23.792396545410156 C 23.653799057006836 23.59556007385254 23.935924530029297 23.197757720947266 24.192466735839844 22.908164978027344 C 24.449007034301758 22.618576049804688 24.37411117553711 22.672016143798828 24.025882720947266 23.02690887451172" stroke-width="1.0" fill="rgb(254, 194, 194)" opacity="1.0"/>
    <path d="M 62.73452377319336 44.140228271484375 C 62.719329833984375 44.47006607055664 62.646827697753906 44.748992919921875 62.57353210449219 44.75992202758789 C 62.500240325927734 44.7709846496582 62.51529312133789 44.78590774536133 62.606849670410156 44.79323959350586 C 62.719329833984375 44.80229949951172 62.771568298339844 44.60093307495117 62.76783752441406 44.173545837402344 L 62.76237487792969 43.54051971435547 L 62.73452377319336 44.140228271484375" stroke-width="1.0" fill="rgb(254, 194, 194)" opacity="1.0"/>
    <path d="M 30.256141662597656 24.949691772460938 L 30.989112854003906 25.682662963867188 L 30.256141662597656 24.949691772460938 L 29.523170471191406 24.216720581054688 L 30.256141662597656 24.949691772460938" stroke-width="1.0" fill="rgb(254, 194, 194)" opacity="1.0"/>
    <path d="M 26.058212280273438 12.755706787109375 L 26.724550247192383 13.42204475402832 L 26.058212280273438 12.755706787109375 L 25.391874313354492 12.08936882019043 L 26.058212280273438 12.755706787109375" stroke-width="1.0" fill="rgb(254, 194, 194)" opacity="1.0"/>
    <path d="M 67.87611389160156 75.02206420898438 C 68.18476867675781 75.36856079101562 68.43730926513672 75.60563659667969 68.43730926513672 75.54886627197266 C 68.43730926513672 75.49209594726562 68.18476867675781 75.20850372314453 67.87611389160156 74.91877746582031 L 67.31492614746094 74.39197540283203 L 67.87611389160156 75.02206420898438" stroke-width="1.0" fill="rgb(254, 194, 194)" opacity="1.0"/>
    <path d="M 28.390396118164062 23.217212677001953 L 28.99009895324707 23.816917419433594 L 28.390396118164062 23.217212677001953 L 27.790691375732422 22.617509841918945 L 28.390396118164062 23.217212677001953" stroke-width="1.0" fill="rgb(254, 194, 194)" opacity="1.0"/>
    <path d="M 48.59029769897461 88.09574127197266 L 48.133724212646484 88.65160369873047 L 48.556846618652344 88.26033020019531 C 48.78953170776367 88.04509735107422 48.99502944946289 87.79496002197266 49.01342010498047 87.7044677734375 C 49.03181457519531 87.61384582519531 48.84137725830078 87.79002380371094 48.59029769897461 88.09574127197266" stroke-width="1.0" fill="rgb(254, 194, 194)" opacity="1.0"/>
    <path d="M 75.93587493896484 67.62437438964844 C 76.1583023071289 67.657958984375 76.26904296875 67.73751831054688 76.21507263183594 67.82494354248047 C 76.16162872314453 67.91130065917969 76.1876220703125 67.93142700195312 76.2794418334961 67.87451934814453 C 76.57249450683594 67.69354248046875 76.43136596679688 67.52882385253906 76.000244140625 67.54867553710938 C 75.59391021728516 67.56733703613281 75.58991241455078 67.57200622558594 75.93587493896484 67.62437438964844" stroke-width="1.0" fill="rgb(254, 194, 194)" opacity="1.0"/>
    <path d="M 34.744728088378906 35.68865966796875 C 35.05230712890625 35.9742546081543 35.16145324707031 36.03276062011719 35.03765106201172 35.84538269042969 C 34.929039001464844 35.680931091308594 34.708343505859375 35.47596740722656 34.54735565185547 35.389739990234375 C 34.385169982910156 35.30298614501953 34.47325897216797 35.43625259399414 34.744728088378906 35.68865966796875" stroke-width="1.0" fill="rgb(254, 194, 194)" opacity="1.0"/>
  </g>
</svg>
