<?xml version="1.0" ?>
<svg xmlns="http://www.w3.org/2000/svg" version="1.1" width="100" height="100">
  <defs/>
  <g>
    <path d="M 46.40052032470703 10.050472259521484 C 43.643516540527344 10.434492111206055 42.62448501586914 10.61955738067627 40.92466735839844 11.044659614562988 C 36.62043380737305 12.121011734008789 32.24929428100586 14.232240676879883 28.30990982055664 17.1373348236084 C 26.397830963134766 18.547428131103516 22.366695404052734 22.494834899902344 20.679004669189453 24.609779357910156 C 13.791879653930664 33.24054718017578 10.0 45.088436126708984 10.887569427490234 55.202266693115234 C 11.426918983459473 61.34658432006836 13.126153945922852 66.34217834472656 16.306692123413086 71.1339111328125 C 17.962888717651367 73.62916564941406 21.971721649169922 77.57343292236328 24.681774139404297 79.37420654296875 C 28.21698760986328 81.72332000732422 33.419158935546875 84.09982299804688 38.19426727294922 85.54727935791016 C 50.436153411865234 89.25798034667969 62.14827346801758 87.90245819091797 71.80276489257812 81.65758514404297 C 76.23357391357422 78.79142761230469 80.53506469726562 74.3592529296875 83.45600891113281 69.64948272705078 C 87.27410125732422 63.4934196472168 89.4142837524414 56.439815521240234 89.67525482177734 49.15184783935547 C 90.0 40.07993698120117 87.43901824951172 31.754940032958984 82.12533569335938 24.609779357910156 C 79.70598602294922 21.35666275024414 75.29983520507812 17.274272918701172 71.63276672363281 14.88857650756836 C 69.87034606933594 13.741798400878906 68.60482788085938 13.333520889282227 64.7654037475586 12.672685623168945 C 63.37995910644531 12.434409141540527 61.257381439208984 11.943380355834961 60.04839324951172 11.581857681274414 C 56.70998001098633 10.583170890808105 53.71392059326172 10.117377281188965 50.11747360229492 10.037952423095703 C 48.395938873291016 10.0 46.72330856323242 10.0056734085083 46.40052032470703 10.050472259521484" stroke-width="1.0" fill="rgb(253, 211, 125)" opacity="1.0"/>
    <path d="M 55.20383071899414 41.77349853515625 C 43.137428283691406 42.275875091552734 37.434837341308594 42.59396743774414 37.25446701049805 42.77433776855469 C 36.91935348510742 43.10945129394531 37.43718719482422 45.52214431762695 38.17176818847656 47.048248291015625 C 39.08946990966797 48.95524215698242 40.19379425048828 50.24404525756836 41.8717041015625 51.366371154785156 C 44.4334716796875 53.079689025878906 47.76972579956055 53.90211486816406 51.297508239746094 53.689857482910156 C 54.936798095703125 53.470947265625 58.71889877319336 52.181556701660156 61.49702835083008 50.21235275268555 C 63.63583755493164 48.69622802734375 64.64430236816406 47.017730712890625 65.08917236328125 44.23275375366211 C 65.35757446289062 42.55229949951172 65.24391174316406 42.11506652832031 64.4682388305664 41.84471130371094 C 63.89054870605469 41.64340591430664 59.19544982910156 41.607215881347656 55.20383071899414 41.77349853515625" stroke-width="1.0" fill="rgb(7, 3, 8)" opacity="1.0"/>
    <path d="M 47.63102722167969 43.08186721801758 C 42.497718811035156 43.31447219848633 38.26039123535156 43.54512023925781 38.215003967285156 43.59421920776367 C 38.06300354003906 43.758548736572266 38.67708206176758 45.82302474975586 39.20195770263672 46.911502838134766 C 39.49931335449219 47.52851867675781 40.26891326904297 48.53678894042969 41.006439208984375 49.27548599243164 C 45.14634323120117 53.422237396240234 52.50962829589844 53.90544128417969 59.09861373901367 50.46315002441406 C 61.354217529296875 49.2846794128418 62.56574630737305 48.18915939331055 63.311092376708984 46.65425109863281 C 64.00245666503906 45.230072021484375 64.42637634277344 43.004398345947266 64.05154418945312 42.76612091064453 C 63.656578063964844 42.515323638916016 57.53553771972656 42.632896423339844 47.63102722167969 43.08186721801758" stroke-width="1.0" fill="rgb(253, 211, 125)" opacity="1.0"/>
    <path d="M 40.62946319580078 28.473846435546875 C 39.83129119873047 28.872539520263672 38.773136138916016 30.35932159423828 38.45915222167969 31.523902893066406 C 38.02778625488281 33.1231689453125 38.706424713134766 35.584381103515625 39.77104187011719 36.282188415527344 C 40.97904968261719 37.073707580566406 42.9650764465332 36.563114166259766 44.44833755493164 35.080047607421875 C 46.55076599121094 32.97742462158203 46.652099609375 30.12730598449707 44.67526626586914 28.695301055908203 C 44.00406265258789 28.208965301513672 43.7182502746582 28.131105422973633 42.605316162109375 28.13149642944336 C 41.76802062988281 28.131690979003906 41.073341369628906 28.252002716064453 40.62946319580078 28.473846435546875" stroke-width="1.0" fill="rgb(255, 255, 255)" opacity="1.0"/>
    <path d="M 58.56435012817383 28.421419143676758 C 56.64620590209961 29.421865463256836 55.66101837158203 32.663047790527344 56.62370681762695 34.80519104003906 C 57.23524475097656 36.165985107421875 57.8812141418457 36.64273452758789 59.09743881225586 36.631385803222656 C 61.190086364746094 36.61143493652344 63.479923248291016 34.49726867675781 63.995208740234375 32.10902786254883 C 64.27281188964844 30.821983337402344 63.38758850097656 29.065235137939453 62.135169982910156 28.417505264282227 C 61.41368865966797 28.04444122314453 59.28269958496094 28.046789169311523 58.56435012817383 28.421419143676758" stroke-width="1.0" fill="rgb(255, 255, 255)" opacity="1.0"/>
    <path d="M 72.22357177734375 36.865753173828125 C 70.81503295898438 37.15899658203125 70.05423736572266 37.45655059814453 69.24883270263672 38.02915573120117 C 67.76224517822266 39.08613967895508 67.48445129394531 40.005401611328125 68.21707916259766 41.4415168762207 C 68.77032470703125 42.526084899902344 69.87406158447266 43.20570373535156 71.28121948242188 43.328556060791016 C 72.26602172851562 43.41443634033203 72.56103515625 43.352813720703125 73.47266387939453 42.87097930908203 C 74.8708267211914 42.13208770751953 75.30296325683594 41.35954666137695 75.21199798583984 39.762428283691406 C 75.16348266601562 38.91164016723633 74.9932861328125 38.321815490722656 74.60515594482422 37.65941619873047 C 74.10943603515625 36.81371307373047 74.00653839111328 36.74054718017578 73.34022521972656 36.76148223876953 C 72.94132995605469 36.77400207519531 72.43876647949219 36.82075500488281 72.22357177734375 36.865753173828125" stroke-width="1.0" fill="rgb(246, 111, 108)" opacity="1.0"/>
    <path d="M 29.282970428466797 37.00562286376953 C 27.398473739624023 37.431312561035156 25.698848724365234 38.62269592285156 25.466636657714844 39.68065643310547 C 25.09063720703125 41.39221954345703 27.121070861816406 43.393699645996094 29.227802276611328 43.388221740722656 C 30.172494888305664 43.3858757019043 31.89813995361328 42.58712387084961 32.3070068359375 41.962867736816406 C 33.124542236328125 40.71533966064453 33.05900573730469 38.83652114868164 32.15089416503906 37.484527587890625 C 31.642257690429688 36.72705078125 30.99472427368164 36.618865966796875 29.282970428466797 37.00562286376953" stroke-width="1.0" fill="rgb(246, 111, 108)" opacity="1.0"/>
    <path d="M 58.98749542236328 29.60301971435547 C 58.3640251159668 29.941652297973633 57.661521911621094 31.02406883239746 57.44652557373047 31.977371215820312 C 57.24052810668945 32.890567779541016 57.67717361450195 34.56495666503906 58.24019241333008 35.020774841308594 C 59.21324920654297 35.80876922607422 60.99230194091797 35.25807189941406 62.09174346923828 33.828609466552734 C 63.20838928222656 32.37684631347656 63.18511199951172 31.046566009521484 62.023460388183594 29.95123863220215 C 61.44518280029297 29.405628204345703 61.195560455322266 29.306053161621094 60.42301940917969 29.312705993652344 C 59.919471740722656 29.31700897216797 59.27370071411133 29.447689056396484 58.98749542236328 29.60301971435547" stroke-width="1.0" fill="rgb(7, 3, 8)" opacity="1.0"/>
    <path d="M 41.31416320800781 29.49151039123535 C 39.940650939941406 30.05961799621582 39.07694625854492 32.38780212402344 39.66442108154297 33.9383544921875 C 40.17579650878906 35.28820037841797 41.454036712646484 35.76749038696289 42.74225616455078 35.092567443847656 C 43.46315002441406 34.71480941772461 44.47377014160156 33.62847900390625 44.725738525390625 32.96021270751953 C 45.003726959228516 32.222686767578125 44.9769287109375 31.07121467590332 44.668617248535156 30.515825271606445 C 44.10618209838867 29.5020751953125 42.48519515991211 29.007131576538086 41.31416320800781 29.49151039123535" stroke-width="1.0" fill="rgb(7, 3, 8)" opacity="1.0"/>
  </g>
</svg>
