<?xml version="1.0" ?>
<svg xmlns="http://www.w3.org/2000/svg" version="1.1" width="100" height="100">
  <defs/>
  <g>
    <path d="M 25.343830108642578 10.345947265625 C 23.978496551513672 10.633914947509766 22.90746307373047 10.96306037902832 22.205928802490234 11.310110092163086 C 21.94082260131836 11.441354751586914 21.414051055908203 11.686767578125 21.035327911376953 11.855609893798828 C 18.50765609741211 12.982004165649414 13.928125381469727 16.974166870117188 12.810407638549805 19.025611877441406 C 12.70739459991455 19.21483612060547 12.423833847045898 19.676742553710938 12.180211067199707 20.052160263061523 C 11.178727149963379 21.596115112304688 10.534070014953613 23.83609390258789 10.41494369506836 26.186525344848633 C 10.0 34.372474670410156 16.66375160217285 44.04742431640625 30.148530960083008 54.836788177490234 C 34.45551681518555 58.28276443481445 40.20289611816406 62.285118103027344 45.34252166748047 65.417236328125 C 46.68403244018555 66.23472595214844 47.632080078125 66.73381805419922 47.6568717956543 66.63548278808594 C 47.68000793457031 66.54389953613281 48.6494026184082 62.9365234375 49.81119155883789 58.61906814575195 L 51.923370361328125 50.7691535949707 L 48.75558090209961 47.585533142089844 L 45.587799072265625 44.401771545410156 L 47.6685791015625 40.459877014160156 C 48.813148498535156 38.291786193847656 49.74949264526367 36.46247863769531 49.74949264526367 36.39472198486328 C 49.74949264526367 36.32696533203125 49.60957336425781 36.17987823486328 49.43866729736328 36.06791687011719 C 48.7666015625 35.62763214111328 43.61843490600586 31.660669326782227 43.57780838012695 31.5518741607666 C 43.55411911010742 31.48824691772461 44.58961868286133 29.370698928833008 45.87907028198242 26.846193313598633 L 48.22344207763672 22.256332397460938 L 47.031494140625 20.81291389465332 C 42.337520599365234 15.12874984741211 36.39720153808594 11.207509994506836 31.088729858398438 10.288931846618652 C 29.41876220703125 10.0 26.864648818969727 10.02534008026123 25.343830108642578 10.345947265625" stroke-width="1.0" fill="rgb(246, 111, 108)" opacity="1.0"/>
    <path d="M 69.23656463623047 12.08601188659668 C 65.71333312988281 12.597220420837402 61.96244812011719 14.299551010131836 58.8388671875 16.804912567138672 C 57.67652893066406 17.737125396728516 55.29800796508789 20.089481353759766 54.36579132080078 21.228683471679688 C 53.841365814208984 21.869483947753906 52.964237213134766 23.43795394897461 51.27830123901367 26.749101638793945 C 49.98292541503906 29.293025970458984 48.92621612548828 31.431095123291016 48.9297981262207 31.500368118286133 C 48.93337631225586 31.569639205932617 50.3277702331543 32.673858642578125 52.028446197509766 33.95408630371094 C 53.7291259765625 35.234310150146484 55.120487213134766 36.32765197753906 55.120487213134766 36.383705139160156 C 55.120487213134766 36.43989181518555 54.370338439941406 37.90231704711914 53.45341110229492 39.633705139160156 C 52.53662872314453 41.36495590209961 51.606204986572266 43.13779830932617 51.3858528137207 43.57326126098633 L 50.9850959777832 44.36486053466797 L 54.051246643066406 47.473018646240234 C 55.73759841918945 49.182369232177734 57.13336944580078 50.68528366088867 57.15278625488281 50.812808990478516 C 57.172210693359375 50.940338134765625 56.23655319213867 54.59275436401367 55.073387145996094 58.92934799194336 C 53.276309967041016 65.62986755371094 52.98820114135742 66.838623046875 53.15497970581055 66.97702026367188 C 53.425453186035156 67.20150756835938 53.691253662109375 67.04850769042969 58.00925827026367 64.18121337890625 C 74.57560729980469 53.180728912353516 85.60790252685547 42.120750427246094 88.90885925292969 33.2042121887207 C 89.72332763671875 31.00389289855957 90.0 29.338335037231445 89.9256362915039 27.081689834594727 C 89.85773468017578 25.023223876953125 89.54236602783203 23.683364868164062 88.75862121582031 22.123849868774414 C 87.04237365722656 18.708999633789062 82.67218017578125 15.066363334655762 78.17183685302734 13.299581527709961 C 75.86327362060547 12.39339828491211 74.44202423095703 12.113142013549805 71.92205810546875 12.067281723022461 C 70.67227172851562 12.044696807861328 69.46379852294922 12.053096771240234 69.23656463623047 12.08601188659668" stroke-width="1.0" fill="rgb(246, 111, 108)" opacity="1.0"/>
  </g>
</svg>
