<?xml version="1.0" ?>
<svg xmlns="http://www.w3.org/2000/svg" version="1.1" width="100" height="100">
  <defs/>
  <g>
    <path d="M 78.15904998779297 10.175129890441895 C 74.9678955078125 10.228615760803223 65.12433624267578 10.368666648864746 56.28447341918945 10.486175537109375 C 19.232406616210938 10.979287147521973 19.5982723236084 10.972618103027344 18.615116119384766 11.162020683288574 C 16.975322723388672 11.47786808013916 16.36697006225586 11.661267280578613 15.229358673095703 12.182656288146973 C 13.776966094970703 12.848363876342773 12.560792922973633 14.01905345916748 12.203730583190918 15.09531021118164 C 11.538689613342285 17.100168228149414 12.22507095336914 19.46649169921875 14.115621566772461 21.685958862304688 C 15.888529777526855 23.767379760742188 16.180234909057617 25.61084747314453 15.026350975036621 27.439640045166016 C 14.794934272766113 27.806440353393555 13.85379409790039 28.886831283569336 12.93506145477295 29.84050941467285 C 10.253424644470215 32.62391662597656 10.0 33.15357208251953 10.002800941467285 35.96699523925781 C 10.006936073303223 39.999114990234375 11.309273719787598 42.90190124511719 13.736284255981445 44.28799819946289 L 14.402925491333008 44.66880416870117 L 49.5154914855957 44.6155891418457 L 84.62805938720703 44.5625 L 85.34017944335938 44.239315032958984 C 86.28132629394531 43.81222915649414 87.68876647949219 42.388648986816406 88.43049621582031 41.11338806152344 C 89.45660400390625 39.34954833984375 90.00000762939453 37.043113708496094 89.75204467773438 35.50389099121094 C 89.56758117675781 34.3582763671875 89.2857437133789 33.75926208496094 88.2571029663086 32.326873779296875 C 86.04122924804688 29.240825653076172 84.61925506591797 25.171886444091797 84.87854766845703 22.658843994140625 C 85.0093994140625 21.391319274902344 85.1838607788086 20.925151824951172 85.86543273925781 20.02269172668457 C 86.98651123046875 18.538021087646484 87.22699737548828 18.167621612548828 87.76612091064453 17.09549903869629 C 88.37367248535156 15.887062072753906 88.5848159790039 14.76452350616455 88.42396545410156 13.596500396728516 C 88.17626953125 11.797049522399902 86.24250793457031 10.0 84.61338806152344 10.055620193481445 C 84.25472259521484 10.067757606506348 81.35020446777344 10.121644020080566 78.15904998779297 10.175129890441895" stroke-width="1.0" fill="rgb(118, 167, 223)" opacity="1.0"/>
  </g>
</svg>
