<?xml version="1.0" ?>
<svg xmlns="http://www.w3.org/2000/svg" version="1.1" width="100" height="100">
  <defs/>
  <g>
    <path d="M 41.20668029785156 10.22850513458252 C 41.035335540771484 10.261225700378418 40.45745849609375 10.703679084777832 39.922325134277344 11.211973190307617 C 39.3873176574707 11.720267295837402 38.89264678955078 12.136144638061523 38.82306671142578 12.136144638061523 C 38.75348663330078 12.136144638061523 38.52003860473633 11.9503755569458 38.304351806640625 11.72320556640625 C 37.36228561401367 10.73159122467041 35.72468566894531 10.432838439941406 34.55424499511719 11.03902530670166 C 33.596153259277344 11.535433769226074 32.6536865234375 12.868404388427734 32.43426513671875 14.037508010864258 C 32.20762634277344 15.24574089050293 33.479164123535156 17.596235275268555 34.88825988769531 18.573827743530273 C 35.241634368896484 18.819026947021484 35.17619323730469 19.035913467407227 34.69340896606445 19.21941375732422 C 34.31519317626953 19.36324691772461 32.11093521118164 20.830167770385742 31.514631271362305 21.334991455078125 C 30.54171371459961 22.1583309173584 28.28978157043457 24.418678283691406 27.706165313720703 25.1573486328125 C 25.91604995727539 27.423301696777344 24.474903106689453 30.48949432373047 23.771089553833008 33.529510498046875 C 23.69923973083496 33.839752197265625 23.601613998413086 33.900516510009766 23.05405616760254 33.975303649902344 C 21.086719512939453 34.244140625 17.838363647460938 35.014862060546875 16.610763549804688 35.503929138183594 C 14.571577072143555 36.316314697265625 12.860390663146973 37.048439025878906 12.35369873046875 37.325157165527344 C 12.032241821289062 37.50077819824219 11.694091796875 37.64434814453125 11.602075576782227 37.64434814453125 C 11.510191917419434 37.64434814453125 11.360215187072754 37.734493255615234 11.268732070922852 37.84467315673828 C 11.177249908447266 37.95484924316406 10.974653244018555 38.04686737060547 10.818399429321289 38.04927062988281 C 10.66201114654541 38.051544189453125 10.414007186889648 38.14435958862305 10.267101287841797 38.25520706176758 C 10.00654411315918 38.45219421386719 10.0 38.61338806152344 10.0 44.88974380493164 L 10.0 51.322486877441406 L 10.453805923461914 51.628448486328125 C 10.703412055969238 51.79658889770508 11.033949851989746 51.93455123901367 11.188335418701172 51.9349479675293 C 11.342720031738281 51.93534851074219 11.635863304138184 52.070499420166016 11.83979606628418 52.23543930053711 C 12.205057144165039 52.530853271484375 12.213470458984375 52.57131576538086 12.412060737609863 55.00594711303711 C 12.523041725158691 56.36482620239258 12.701065063476562 58.4983024597168 12.807771682739258 59.74700164794922 C 12.91447925567627 60.99570083618164 13.094104766845703 63.09912872314453 13.207088470458984 64.42127990722656 C 13.319938659667969 65.7434310913086 13.49622631072998 67.84685516357422 13.59865951538086 69.0955581665039 C 13.8958101272583 72.71558380126953 14.066488265991211 74.61307525634766 14.217534065246582 75.97342681884766 C 14.29499340057373 76.67122650146484 14.411449432373047 78.02342987060547 14.47635555267334 78.97831726074219 C 14.615114212036133 81.02071380615234 14.860847473144531 83.5846176147461 14.939909934997559 83.81392669677734 C 14.999340057373047 83.9864730834961 16.463993072509766 84.71231842041016 17.0489444732666 84.85909271240234 C 17.242591857910156 84.90770721435547 17.471097946166992 85.03177642822266 17.556438446044922 85.1347427368164 C 17.641910552978516 85.23770904541016 17.813522338867188 85.32197570800781 17.937591552734375 85.32197570800781 C 18.06179428100586 85.32197570800781 18.469524383544922 85.46968841552734 18.843734741210938 85.6502456665039 C 19.21794319152832 85.83067321777344 19.69498634338379 86.01937866210938 19.903724670410156 86.06932830810547 C 20.112598419189453 86.11927032470703 20.343509674072266 86.20675659179688 20.416961669921875 86.26377868652344 C 20.59017562866211 86.39813232421875 23.598541259765625 87.39442443847656 24.890913009643555 87.74539184570312 C 30.701440811157227 89.32369232177734 35.55107116699219 89.98717498779297 41.31766128540039 89.99291229248047 C 48.34296798706055 90.0 55.69480514526367 88.65754699707031 58.569618225097656 86.84272766113281 C 58.84740447998047 86.66736602783203 59.13187026977539 86.52393341064453 59.20198059082031 86.52393341064453 C 59.321109771728516 86.52393341064453 60.66970443725586 85.74052429199219 60.816078186035156 85.58627319335938 C 60.85280227661133 85.54754638671875 61.28537368774414 85.1992416381836 61.77724075317383 84.81208038330078 C 62.26924514770508 84.42491912841797 62.87703323364258 83.82540893554688 63.128108978271484 83.47978210449219 C 63.53022766113281 82.92594909667969 63.59353256225586 82.72441101074219 63.661376953125 81.78288269042969 C 63.75886917114258 80.42840576171875 63.96841049194336 78.26382446289062 64.21734619140625 76.04019927978516 C 64.32432556152344 75.08531188964844 64.50662231445312 73.31242370605469 64.62267303466797 72.10044860839844 C 64.73860168457031 70.88847351074219 64.91848754882812 69.14563751220703 65.02239227294922 68.22747802734375 C 65.12629699707031 67.30931091308594 65.30592346191406 65.56648254394531 65.42156982421875 64.35450744628906 C 65.5372314453125 63.14252853393555 65.6922836303711 61.61003875732422 65.76600646972656 60.94895935058594 C 65.83985900878906 60.287879943847656 65.96165466308594 59.08592224121094 66.03684997558594 58.2779426574707 C 66.11190032958984 57.46996307373047 66.22581481933594 56.29804992675781 66.28978729248047 55.673702239990234 C 66.35389709472656 55.049354553222656 66.4105224609375 54.31642532348633 66.41572570800781 54.04491424560547 C 66.42494201660156 53.56587219238281 66.44871520996094 53.542633056640625 67.21983337402344 53.261505126953125 C 67.65681457519531 53.10218048095703 68.09953308105469 52.87354278564453 68.20343780517578 52.753482818603516 C 68.35514831542969 52.57839584350586 68.42312622070312 51.35921096801758 68.54693603515625 46.592247009277344 L 68.7013168334961 40.64923858642578 L 68.19756317138672 40.21413040161133 C 67.76846313476562 39.84326171875 66.7397232055664 39.179779052734375 66.0245590209961 38.81251525878906 C 65.91437530517578 38.755889892578125 65.64393615722656 38.5909538269043 65.423583984375 38.44605255126953 C 65.20321655273438 38.3011474609375 64.9027328491211 38.12766647338867 64.75582885742188 38.06062316894531 C 64.60891723632812 37.99358367919922 64.09808349609375 37.75852966308594 63.620643615722656 37.538307189941406 C 62.64719009399414 37.089176177978516 61.081443786621094 36.55817794799805 59.6808967590332 36.20226287841797 C 58.76259994506836 35.96881866455078 58.7453727722168 35.956398010253906 58.71024703979492 35.50232696533203 C 58.6442756652832 34.65093994140625 58.250431060791016 32.512123107910156 57.98573684692383 31.567785263061523 C 57.84163284301758 31.053613662719727 57.66534423828125 30.42258644104004 57.59416198730469 30.16550064086914 C 57.52298355102539 29.908414840698242 57.40892791748047 29.577878952026367 57.340816497802734 29.430971145629883 C 57.272705078125 29.28406524658203 57.08760452270508 28.80328369140625 56.92921447753906 28.362565994262695 C 56.770957946777344 27.92184829711914 56.559146881103516 27.46643829345703 56.45844650268555 27.350385665893555 C 56.357749938964844 27.234460830688477 56.27534866333008 27.078208923339844 56.27534866333008 27.00328826904297 C 56.27534866333008 26.77918815612793 55.36373519897461 25.13077163696289 54.63641357421875 24.040061950683594 C 53.81147003173828 22.802715301513672 51.15474319458008 20.103252410888672 50.09862518310547 19.429222106933594 C 49.67633819580078 19.15958023071289 49.33070755004883 18.905433654785156 49.33070755004883 18.864299774169922 C 49.33070755004883 18.823165893554688 49.59407043457031 18.479408264160156 49.91592788696289 18.10038948059082 C 50.839298248291016 17.013286590576172 51.133644104003906 16.18500518798828 51.133644104003906 14.673609733581543 C 51.133644104003906 13.200812339782715 50.98366928100586 12.823397636413574 50.01369094848633 11.854753494262695 C 49.153350830078125 10.995755195617676 48.5380859375 10.733861923217773 47.38100051879883 10.733861923217773 C 46.44040298461914 10.733861923217773 46.00649642944336 10.86794662475586 45.339542388916016 11.364755630493164 C 44.854087829589844 11.726277351379395 44.61489486694336 11.658834457397461 43.873023986816406 10.951148986816406 C 43.06196975708008 10.17762279510498 42.40650177001953 10.0 41.20668029785156 10.22850513458252" stroke-width="1.0" fill="rgb(80, 54, 54)" opacity="1.0"/>
    <path d="M 13.327150344848633 53.95063018798828 C 13.374828338623047 54.56776809692383 13.500232696533203 56.06433868408203 13.605737686157227 57.27631378173828 C 13.71124267578125 58.48828887939453 13.891937255859375 60.591712951660156 14.007058143615723 61.95058822631836 C 14.12217903137207 63.30946731567383 14.30113697052002 65.38284301757812 14.40477180480957 66.55809020996094 C 14.508407592773438 67.73333740234375 14.689102172851562 69.83676147460938 14.806493759155273 71.23236846923828 C 14.923749923706055 72.62797546386719 15.103643417358398 74.70135498046875 15.206344604492188 75.83987426757812 C 15.308910369873047 76.9783935546875 15.4990873336792 79.12415313720703 15.628765106201172 80.60830688476562 L 15.864749908447266 83.30683135986328 L 16.93889808654785 83.79843139648438 C 20.53061294555664 85.44230651855469 25.236408233642578 86.96025085449219 29.231313705444336 87.7635498046875 C 31.289731979370117 88.17756652832031 31.78533935546875 88.26129150390625 33.90559387207031 88.55337524414062 C 35.810691833496094 88.81593322753906 36.61453628540039 88.84785461425781 41.31766128540039 88.84785461425781 C 46.021583557128906 88.84785461425781 46.8214225769043 88.81607055664062 48.70222091674805 88.55443572998047 C 49.86237335205078 88.39297485351562 51.0643310546875 88.20333862304688 51.373233795166016 88.13282012939453 C 51.68213653564453 88.06230163574219 52.48571014404297 87.88121795654297 53.15894317626953 87.73043060302734 C 54.83219909667969 87.35555267333984 56.226070404052734 86.8762435913086 57.82373809814453 86.1264877319336 C 59.459598541259766 85.35871124267578 60.45962905883789 84.69001770019531 61.6533088684082 83.56578063964844 C 62.493743896484375 82.77422332763672 62.56172180175781 82.66752624511719 62.620750427246094 82.04824829101562 C 62.80584716796875 80.10308074951172 63.11008071899414 77.01605224609375 63.285430908203125 75.30567169189453 C 63.3945426940918 74.2406005859375 63.575904846191406 72.46771240234375 63.6884880065918 71.36592102050781 C 63.80093765258789 70.26412963867188 63.9796257019043 68.55133819580078 64.08540344238281 67.55972290039062 C 64.27023315429688 65.82610321044922 64.43370056152344 64.22750091552734 64.89765930175781 59.61345291137695 C 65.0158462524414 58.43820571899414 65.19587707519531 56.69857406616211 65.29763793945312 55.74768829345703 C 65.39940643310547 54.79680633544922 65.46430969238281 54.00057601928711 65.44200897216797 53.978275299072266 C 65.41970825195312 53.955970764160156 64.59516143798828 54.180606842041016 63.60955810546875 54.477352142333984 C 58.68073272705078 55.96177291870117 53.631046295166016 56.91893005371094 47.79487609863281 57.47517013549805 C 44.87211227416992 57.75375747680664 36.96189880371094 57.75375747680664 34.03914260864258 57.47517013549805 C 27.179439544677734 56.82143783569336 21.562427520751953 55.65193557739258 15.511641502380371 53.6174201965332 C 14.536853790283203 53.2896842956543 13.627239227294922 52.97811508178711 13.489949226379395 52.92496109008789 C 13.254632949829102 52.83401107788086 13.245417594909668 52.89170837402344 13.327150344848633 53.95063018798828" stroke-width="1.0" fill="rgb(252, 160, 140)" opacity="1.0"/>
    <path d="M 21.20037078857422 35.30653762817383 C 19.246522903442383 35.708126068115234 17.545486450195312 36.209877014160156 15.742683410644531 36.916358947753906 C 14.358964920043945 37.45857620239258 11.726143836975098 38.63262176513672 11.255109786987305 38.91722106933594 C 11.066269874572754 39.031402587890625 11.030611038208008 39.734413146972656 10.951950073242188 44.89308166503906 L 10.862872123718262 50.739532470703125 L 11.499774932861328 51.015316009521484 C 13.375495910644531 51.8270378112793 17.371736526489258 53.19927215576172 19.677223205566406 53.823089599609375 C 27.25876808166504 55.874698638916016 33.35669708251953 56.683082580566406 41.117332458496094 56.665184020996094 C 46.25022506713867 56.653297424316406 49.7992057800293 56.36309051513672 54.2053108215332 55.59463882446289 C 56.8806037902832 55.12814712524414 60.12962341308594 54.41899490356445 60.476593017578125 54.22574234008789 C 60.54684066772461 54.186614990234375 60.73541259765625 54.14067459106445 60.895538330078125 54.12358093261719 C 61.301536560058594 54.08030700683594 63.34352493286133 53.47759246826172 65.55712890625 52.747737884521484 L 67.42684173583984 52.13126754760742 L 67.529541015625 46.590511322021484 L 67.63224029541016 41.049888610839844 L 67.28047180175781 40.76556396484375 C 65.81488037109375 39.580833435058594 62.34482955932617 37.91972732543945 60.2150993347168 37.38338851928711 C 58.79077911376953 37.0246696472168 58.81281661987305 37.02066421508789 58.81281661987305 37.633262634277344 C 58.81281661987305 38.152503967285156 58.817752838134766 38.157447814941406 59.477230072021484 38.29887771606445 C 61.47087860107422 38.72650909423828 65.6239013671875 40.98872375488281 65.6239013671875 41.646995544433594 C 65.6239013671875 42.02387619018555 65.38084411621094 42.143272399902344 63.75032043457031 42.56649398803711 C 59.78439712524414 43.596038818359375 55.23619079589844 44.34619140625 50.13201141357422 44.81268310546875 C 47.03336715698242 45.095943450927734 39.385982513427734 45.135074615478516 36.37628173828125 44.883201599121094 C 32.115875244140625 44.526485443115234 26.62734031677246 43.737735748291016 23.555404663085938 43.04046630859375 C 23.00450897216797 42.915462493896484 22.433578491210938 42.7998046875 22.286672592163086 42.78337860107422 C 22.139766693115234 42.767086029052734 21.929424285888672 42.721012115478516 21.819244384765625 42.68134689331055 C 21.33378791809082 42.50599670410156 17.856658935546875 41.60466003417969 17.645782470703125 41.59945297241211 C 17.51730728149414 41.596248626708984 17.41206932067871 41.55310821533203 17.41206932067871 41.503562927246094 C 17.41206932067871 41.42396545410156 16.632801055908203 41.20895004272461 16.276887893676758 41.19038391113281 C 16.203433990478516 41.1865119934082 16.11328887939453 41.15192413330078 16.076560974121094 41.11332702636719 C 15.982542037963867 41.01449966430664 14.066888809204102 40.404441833496094 13.850936889648438 40.404441833496094 C 13.752910614013672 40.404441833496094 13.672646522521973 40.3543586730957 13.672646522521973 40.293060302734375 C 13.672646522521973 40.23189163208008 13.561800003051758 40.18180847167969 13.42624568939209 40.18180847167969 C 13.290691375732422 40.18180847167969 13.075540542602539 40.06655502319336 12.94813346862793 39.9257926940918 C 12.635891914367676 39.580833435058594 12.850240707397461 39.18659210205078 13.472454071044922 38.961692810058594 C 13.729406356811523 38.86874008178711 13.939748764038086 38.75468444824219 13.939748764038086 38.708213806152344 C 13.939748764038086 38.66173553466797 14.014937400817871 38.62194061279297 14.106687545776367 38.619667053222656 C 14.198570251464844 38.617393493652344 14.90264892578125 38.394500732421875 15.671501159667969 38.12432861328125 C 17.343957901000977 37.536705017089844 20.24067497253418 36.808448791503906 21.843952178955078 36.572601318359375 C 22.481924057006836 36.47884750366211 23.067543029785156 36.36279296875 23.145137786865234 36.314849853515625 C 23.22273063659668 36.26676940917969 23.323162078857422 35.95866775512695 23.368167877197266 35.630001068115234 C 23.44829750061035 35.04491424560547 23.442020416259766 35.031959533691406 23.06874656677246 35.0166015625 C 22.858938217163086 35.008052825927734 22.018234252929688 35.13853454589844 21.20037078857422 35.30653762817383" stroke-width="1.0" fill="rgb(252, 160, 140)" opacity="1.0"/>
    <path d="M 40.048927307128906 18.33917808532715 C 38.3153076171875 18.68828010559082 38.357643127441406 18.653823852539062 37.60321044921875 20.32067108154297 C 35.64362335205078 24.64985466003418 34.359130859375 28.868589401245117 33.687103271484375 33.18267822265625 C 33.448848724365234 34.71170425415039 33.39689636230469 35.630531311035156 33.39342498779297 38.378875732421875 C 33.389686584472656 41.19546127319336 33.52911376953125 43.255348205566406 33.73731994628906 43.46355438232422 C 33.870601654052734 43.596839904785156 36.88951873779297 43.8081169128418 39.674049377441406 43.87889862060547 L 42.90517807006836 43.96116256713867 L 42.9759635925293 43.64064407348633 C 44.00376892089844 38.99134063720703 43.931785583496094 32.365753173828125 42.78110885620117 25.691551208496094 C 42.37511444091797 23.336381912231445 41.52025604248047 18.917987823486328 41.36640930175781 18.3796443939209 C 41.29108428955078 18.116016387939453 41.174896240234375 18.112409591674805 40.048927307128906 18.33917808532715" stroke-width="1.0" fill="rgb(34, 156, 146)" opacity="1.0"/>
    <path d="M 42.5201530456543 18.1125431060791 C 42.52042007446289 18.16769790649414 42.72608947753906 19.204322814941406 42.9771614074707 20.41629409790039 C 43.665218353271484 23.737703323364258 44.201419830322266 27.000883102416992 44.61182403564453 30.365827560424805 C 44.96146011352539 33.23249435424805 44.925804138183594 39.108863830566406 44.54397964477539 41.51731872558594 C 44.38679122924805 42.508934020996094 44.22065353393555 43.45553970336914 44.17457962036133 43.62074279785156 C 44.09151077270508 43.919498443603516 44.09979248046875 43.921234130859375 45.58955001831055 43.921234130859375 C 47.43749237060547 43.921234130859375 50.90206527709961 43.681243896484375 51.27787780761719 43.527259826660156 C 51.8382568359375 43.29768371582031 52.24238204956055 39.44047164916992 52.01401138305664 36.50128173828125 C 51.63779830932617 31.66180419921875 50.12466812133789 26.552953720092773 47.358028411865234 20.780887603759766 L 46.3485221862793 18.674793243408203 L 45.669410705566406 18.479408264160156 C 44.48414993286133 18.138450622558594 42.51908493041992 17.9095458984375 42.5201530456543 18.1125431060791" stroke-width="1.0" fill="rgb(34, 156, 146)" opacity="1.0"/>
    <path d="M 35.495384216308594 20.02806282043457 C 32.71244812011719 21.47815704345703 30.19341278076172 23.621246337890625 28.36724090576172 26.09220314025879 C 26.474960327148438 28.65250587463379 25.524078369140625 30.71172332763672 24.79021644592285 33.83815002441406 C 24.482248306274414 35.150421142578125 24.44632339477539 35.57096862792969 24.454336166381836 37.777896881103516 C 24.461280822753906 39.71905517578125 24.516437530517578 40.461334228515625 24.711688995361328 41.24153518676758 L 24.960092544555664 42.234352111816406 L 25.960521697998047 42.407432556152344 C 28.995729446411133 42.932289123535156 32.38017272949219 43.421085357666016 32.45589828491211 43.34549331665039 C 32.475128173828125 43.32612991333008 32.39767074584961 42.53123474121094 32.28361511230469 41.57915496826172 C 31.958154678344727 38.86125946044922 32.1624870300293 34.762451171875 32.78910827636719 31.4451847076416 C 33.44537353515625 27.970327377319336 34.69007110595703 24.0667724609375 36.36492919921875 20.230392456054688 C 36.52172088623047 19.871139526367188 36.62775802612305 19.554893493652344 36.60051345825195 19.52764892578125 C 36.57326889038086 19.500402450561523 36.075927734375 19.725570678710938 35.495384216308594 20.02806282043457" stroke-width="1.0" fill="rgb(34, 156, 146)" opacity="1.0"/>
    <path d="M 48.12874984741211 19.582002639770508 C 48.12874984741211 19.64931297302246 48.33415222167969 20.12635612487793 48.5850944519043 20.64199447631836 C 52.385414123535156 28.450841903686523 53.97734069824219 36.40325927734375 52.932437896728516 42.35935592651367 C 52.84482955932617 42.85910415649414 52.808502197265625 43.30356216430664 52.85190963745117 43.346832275390625 C 52.934173583984375 43.429100036621094 54.75647735595703 43.22062683105469 56.30900573730469 42.95125198364258 C 56.9075813293457 42.84735107421875 57.22997283935547 42.7259521484375 57.268035888671875 42.59013366699219 C 57.59055709838867 41.43932342529297 57.6702880859375 40.499794006347656 57.66534423828125 37.91144561767578 C 57.659603118896484 34.90829086303711 57.55155944824219 34.081077575683594 56.79299545288086 31.23390769958496 C 55.48860168457031 26.338069915771484 52.44978713989258 22.067649841308594 48.62956619262695 19.76189422607422 C 48.354183197021484 19.595624923706055 48.12874984741211 19.514694213867188 48.12874984741211 19.582002639770508" stroke-width="1.0" fill="rgb(34, 156, 146)" opacity="1.0"/>
    <path d="M 41.170753479003906 11.467188835144043 C 40.515419006347656 11.813619613647461 39.92913055419922 12.51289176940918 39.641998291015625 13.290691375732422 C 39.355262756347656 14.067556381225586 39.089500427246094 14.406508445739746 38.76710510253906 14.406508445739746 C 38.454734802246094 14.406508445739746 38.11244201660156 13.907562255859375 38.11244201660156 13.452154159545898 C 38.11244201660156 13.02425765991211 37.57569885253906 12.344350814819336 37.004905700683594 12.049203872680664 C 36.78067398071289 11.933147430419922 36.30069351196289 11.8381929397583 35.93836975097656 11.8381929397583 C 34.25709533691406 11.8381929397583 33.06822967529297 13.87778091430664 33.770172119140625 15.557716369628906 C 34.0695915222168 16.274349212646484 34.740150451660156 17.053485870361328 35.60676193237305 17.69132423400879 L 36.38496398925781 18.26425552368164 L 37.234745025634766 17.94440269470215 C 40.4197998046875 16.74551773071289 43.637840270996094 16.586458206176758 46.3925895690918 17.491798400878906 C 47.09039306640625 17.721105575561523 47.756141662597656 17.95869255065918 47.87220001220703 18.019859313964844 C 48.0977668762207 18.13858413696289 48.8520622253418 17.754093170166016 49.1644401550293 17.361053466796875 C 49.50886917114258 16.927814483642578 49.870521545410156 16.133987426757812 50.06644058227539 15.381695747375488 C 50.24579620361328 14.69350814819336 50.244998931884766 14.537654876708984 50.05909729003906 13.898347854614258 C 49.554405212402344 12.162054061889648 47.65291213989258 11.279550552368164 46.12201690673828 12.071239471435547 C 45.66273498535156 12.308692932128906 44.94743728637695 13.04923152923584 44.84286880493164 13.395395278930664 C 44.73802947998047 13.742361068725586 44.26045227050781 14.272957801818848 44.052913665771484 14.272957801818848 C 43.9669075012207 14.272957801818848 43.788883209228516 14.154097557067871 43.6573371887207 14.008661270141602 C 43.44579315185547 13.774947166442871 43.437110900878906 13.676652908325195 43.58228302001953 13.158075332641602 C 43.7226448059082 12.65699291229248 43.714630126953125 12.510087013244629 43.527259826660156 12.147764205932617 C 43.25802230834961 11.627182960510254 42.58839797973633 11.200488090515137 42.052188873291016 11.2076997756958 C 41.83183288574219 11.210638046264648 41.43518829345703 11.327494621276855 41.170753479003906 11.467188835144043" stroke-width="1.0" fill="rgb(232, 78, 92)" opacity="1.0"/>
    <path d="M 58.14506149291992 81.72813415527344 C 56.55059814453125 82.45304107666016 52.813446044921875 83.58956146240234 50.332340240478516 84.10399627685547 C 46.88005065917969 84.81996154785156 42.507598876953125 85.15637969970703 39.451019287109375 84.94136047363281 C 38.099754333496094 84.84640502929688 37.466453552246094 84.8478775024414 37.34759521484375 84.9464340209961 C 37.082496643066406 85.1665267944336 37.144466400146484 85.69551849365234 37.45470428466797 85.86151885986328 C 37.61656951904297 85.94820404052734 38.85204315185547 86.03994750976562 40.42620849609375 86.08241271972656 C 46.34264373779297 86.24187469482422 52.189632415771484 85.22474670410156 57.82040023803711 83.05642700195312 C 59.45118713378906 82.42860412597656 59.75114440917969 82.13932800292969 59.27075958251953 81.6588134765625 C 59.0009880065918 81.38917541503906 58.8731803894043 81.39705657958984 58.14506149291992 81.72813415527344" stroke-width="1.0" fill="rgb(80, 54, 54)" opacity="1.0"/>
    <path d="M 21.485366821289062 37.76854705810547 C 19.31182861328125 38.15264129638672 15.374217987060547 39.24601745605469 15.21048355102539 39.51084899902344 C 15.178031921386719 39.563201904296875 15.855534553527832 39.82175827026367 16.71586799621582 40.08538818359375 C 19.922157287597656 41.067787170410156 23.461252212524414 41.94601821899414 23.52923011779785 41.77587127685547 C 23.551532745361328 41.72004699707031 23.476476669311523 41.04534912109375 23.36229133605957 40.27649688720703 C 23.248104095458984 39.507781982421875 23.154752731323242 38.57105255126953 23.154752731323242 38.19483947753906 C 23.154752731323242 37.730751037597656 23.10106658935547 37.51426696777344 22.987815856933594 37.52174377441406 C 22.89606475830078 37.52775573730469 22.219898223876953 37.63887023925781 21.485366821289062 37.76854705810547" stroke-width="1.0" fill="rgb(248, 186, 66)" opacity="1.0"/>
    <path d="M 58.94636535644531 39.41175842285156 C 58.94636535644531 39.44060516357422 58.85634994506836 40.14668655395508 58.746307373046875 40.98084259033203 C 58.636390686035156 41.81486892700195 58.56120300292969 42.511871337890625 58.579368591308594 42.52976608276367 C 58.67138671875 42.619781494140625 63.487091064453125 41.50596618652344 63.487091064453125 41.39458465576172 C 63.487091064453125 41.23499298095703 61.61337661743164 40.215999603271484 60.682525634765625 39.869300842285156 C 59.802825927734375 39.54156494140625 58.94636535644531 39.31586837768555 58.94636535644531 39.41175842285156" stroke-width="1.0" fill="rgb(248, 186, 66)" opacity="1.0"/>
    <path d="M 29.59857940673828 84.13471221923828 C 29.380889892578125 84.35948181152344 29.385700225830078 84.71698760986328 29.609128952026367 84.90235900878906 C 29.78594970703125 85.04913330078125 30.22613525390625 85.1205825805664 33.481300354003906 85.53112030029297 C 35.12718200683594 85.73865509033203 35.20103454589844 85.73758697509766 35.381996154785156 85.5011978149414 C 35.88534927368164 84.8436050415039 35.40763854980469 84.61255645751953 32.970733642578125 84.33477020263672 C 31.94239616394043 84.21751403808594 30.800535202026367 84.0858383178711 30.433271408081055 84.04216003417969 C 29.972654342651367 83.98726654052734 29.713699340820312 84.01598358154297 29.59857940673828 84.13471221923828" stroke-width="1.0" fill="rgb(80, 54, 54)" opacity="1.0"/>
    <path d="M 23.017864227294922 37.465118408203125 C 23.093185424804688 37.50251770019531 23.1678409576416 37.91865921020508 23.184001922607422 38.38996124267578 L 23.21324920654297 39.24695587158203 L 23.217388153076172 38.356571197509766 C 23.220191955566406 37.73943328857422 23.1693115234375 37.45563888549805 23.051250457763672 37.431732177734375 C 22.957632064819336 37.41276931762695 22.942541122436523 37.427860260009766 23.017864227294922 37.465118408203125" stroke-width="1.0" fill="rgb(252, 160, 140)" opacity="1.0"/>
    <path d="M 59.7476692199707 42.31862258911133 C 59.483238220214844 42.40329360961914 59.4693489074707 42.42559814453125 59.6808967590332 42.42559814453125 C 59.82780075073242 42.42559814453125 60.09823989868164 42.37738800048828 60.2818717956543 42.31862258911133 C 60.54630661010742 42.233951568603516 60.56019592285156 42.21165084838867 60.34864807128906 42.21165084838867 C 60.201744079589844 42.21165084838867 59.93130111694336 42.25986099243164 59.7476692199707 42.31862258911133" stroke-width="1.0" fill="rgb(252, 160, 140)" opacity="1.0"/>
    <path d="M 51.601070404052734 22.018903732299805 L 52.135276794433594 22.55310821533203 L 51.601070404052734 22.018903732299805 L 51.06686782836914 21.48470115661621 L 51.601070404052734 22.018903732299805" stroke-width="1.0" fill="rgb(252, 160, 140)" opacity="1.0"/>
    <path d="M 63.42739486694336 41.283607482910156 C 63.4908332824707 41.45147705078125 63.449031829833984 41.51731872558594 63.27875518798828 41.51731872558594 C 63.14854049682617 41.51731872558594 63.07749557495117 41.5528450012207 63.12089538574219 41.596248626708984 C 63.164302825927734 41.63978576660156 63.331241607666016 41.633506774902344 63.49190139770508 41.58262634277344 C 63.76421356201172 41.49608612060547 63.768882751464844 41.47498321533203 63.56148147583008 41.26985168457031 C 63.35487747192383 41.06551742553711 63.345394134521484 41.06645202636719 63.42739486694336 41.283607482910156" stroke-width="1.0" fill="rgb(252, 160, 140)" opacity="1.0"/>
    <path d="M 49.92527770996094 15.947551727294922 C 49.81202697753906 16.441822052001953 49.81509780883789 16.45103645324707 49.97241973876953 16.089115142822266 C 50.06496810913086 15.875967025756836 50.11959457397461 15.637846946716309 50.09355163574219 15.559986114501953 C 50.06764221191406 15.482126235961914 49.99191665649414 15.656543731689453 49.92527770996094 15.947551727294922" stroke-width="1.0" fill="rgb(252, 160, 140)" opacity="1.0"/>
    <path d="M 38.362449645996094 14.172794342041016 C 38.55783462524414 14.421867370605469 38.98225784301758 14.486104965209961 39.106327056884766 14.285377502441406 C 39.1475944519043 14.218870162963867 39.06065368652344 14.19589900970459 38.913211822509766 14.23436164855957 C 38.765769958496094 14.272957801818848 38.54033660888672 14.222208023071289 38.412261962890625 14.12177848815918 C 38.20125198364258 13.956308364868164 38.19644546508789 13.961116790771484 38.362449645996094 14.172794342041016" stroke-width="1.0" fill="rgb(252, 160, 140)" opacity="1.0"/>
  </g>
</svg>
