<?xml version="1.0" standalone="no"?><!DOCTYPE svg PUBLIC "-//W3C//DTD SVG 1.1//EN" "http://www.w3.org/Graphics/SVG/1.1/DTD/svg11.dtd"><svg t="1721307203072" class="icon" viewBox="0 0 1024 1024" version="1.1" xmlns="http://www.w3.org/2000/svg" p-id="8015" xmlns:xlink="http://www.w3.org/1999/xlink" width="200" height="200"><path d="M889.6 844.8c-214.4-108.8-278.4-99.2-452.8-19.2-80 40-176 35.2-251.2-12.8l150.4-59.2-144-144-89.6 235.2 68.8-27.2-49.6 17.6c-1.6 3.2-1.6 6.4 1.6 9.6 52.8 35.2 137.6 72 198.4 72 48 0 97.6-11.2 142.4-33.6 161.6-75.2 203.2-80 396.8 17.6 3.2 1.6 6.4 0 8-3.2l22.4-46.4c3.2-1.6 1.6-4.8-1.6-6.4zM100.8 844.8h1.6-1.6zM857.6 232c24-24 24-64 0-88L800 86.4c-24-24-64-24-88 0L640 158.4l145.6 145.6 72-72z" p-id="8016"></path><path d="M363.2 726.4l395.2-392-145.6-145.6-393.6 392 144 145.6z" p-id="8017"></path></svg>