<?xml version="1.0" ?>
<svg xmlns="http://www.w3.org/2000/svg" version="1.1" width="500" height="500">
  <defs/>
  <g>
    <path d="M 285.2597961425781 50.76824951171875 C 255.271484375 66.1164321899414 224.97325134277344 82.42263793945312 178.29739379882812 79.78807067871094 C 154.99017333984375 89.55978393554688 162.85899353027344 112.67938995361328 177.5716552734375 117.36993408203125 C 187.20791625976562 118.63519287109375 221.10801696777344 118.18978118896484 216.09323120117188 116.06131744384766 C 211.9884033203125 202.486572265625 184.19583129882812 266.60308837890625 153.82565307617188 332.9374084472656 C 141.22064208984375 324.2042236328125 127.29854583740234 317.956787109375 101.64492797851562 321.11029052734375 C 81.834716796875 325.8436584472656 69.45680236816406 336.5850830078125 59.221832275390625 350.42559814453125 C 50.50400161743164 366.71563720703125 48.97167205810547 371.49798583984375 50.244293212890625 398.53961181640625 C 55.99111557006836 418.5127258300781 64.60384368896484 431.46063232421875 79.97359466552734 441.5379943847656 C 97.7297134399414 450.16766357421875 98.91908264160156 450.15667724609375 130.26513671875 449.8453369140625 C 148.06407165527344 441.849365234375 167.04733276367188 437.7418212890625 178.72079467773438 400.49725341796875 C 177.11395263671875 341.5326843261719 227.18569946289062 295.8288269042969 244.32786560058594 191.00428771972656 C 252.14964294433594 231.8352813720703 261.3620910644531 266.55413818359375 253.4611358642578 327.3116149902344 C 235.94093322753906 339.1309814453125 215.15753173828125 356.64227294921875 220.8100128173828 401.0375671386719 C 229.1582794189453 428.9871520996094 248.2613983154297 444.9068298339844 271.20318603515625 449.759765625 C 309.01287841796875 453.5336608886719 326.1670227050781 440.9770812988281 340.2822265625 419.8684387207031 C 349.72308349609375 408.8591613769531 352.64202880859375 378.0460205078125 345.00738525390625 358.6609191894531 C 333.8408203125 337.20166015625 316.81011962890625 323.77789306640625 293.2391357421875 320.52496337890625 C 299.9221496582031 235.6428680419922 280.0162048339844 171.49134826660156 259.6508483886719 105.28949737548828 C 273.9034118652344 98.952392578125 297.0703125 89.42788696289062 307.7326354980469 81.23075866699219 C 317.8525390625 66.92247009277344 309.35418701171875 44.3101921081543 285.2597961425781 50.76824951171875" stroke-width="0.0" fill="rgb(0, 0, 0)" opacity="1.0" stroke="rgb(0, 0, 0)" stroke-opacity="1.0" stroke-linecap="round" stroke-linejoin="round"/>
  </g>
</svg>
