<?xml version="1.0" ?>
<svg xmlns="http://www.w3.org/2000/svg" version="1.1" width="500" height="500">
  <defs/>
  <g>
    <path d="M 56.97386932373047 61.64198684692383 C 58.635536193847656 70.01104736328125 53.3344841003418 58.31151580810547 49.91096496582031 72.77998352050781 C 50.538700103759766 96.11656188964844 48.325340270996094 97.33428192138672 52.51527404785156 120.34820556640625 C 65.14737701416016 139.3720703125 73.54048919677734 165.83859252929688 84.97502899169922 187.7538604736328 C 94.90469360351562 210.74208068847656 108.91905975341797 228.1823272705078 118.1976547241211 250.47613525390625 C 137.30908203125 279.5734558105469 153.06594848632812 309.1161193847656 174.01309204101562 337.8465270996094 C 193.28964233398438 365.3307800292969 212.36383056640625 393.0257873535156 230.76934814453125 413.58441162109375 C 238.2629852294922 432.3250732421875 261.64862060546875 440.92572021484375 259.2713928222656 450.1756591796875 C 271.231689453125 449.0649719238281 280.3907165527344 452.1203308105469 284.20648193359375 447.1626281738281 C 292.5157775878906 428.68524169921875 307.58880615234375 410.90985107421875 312.9154968261719 396.8415222167969 C 328.526123046875 379.2242736816406 334.4910888671875 347.5650634765625 346.2860107421875 341.1184997558594 C 353.4484558105469 319.4162902832031 366.8918151855469 300.48370361328125 374.0093994140625 283.1299743652344 C 384.70697021484375 264.2507019042969 390.9172668457031 240.04483032226562 401.9134826660156 222.74029541015625 C 416.93701171875 185.71522521972656 432.1265563964844 149.90623474121094 447.597412109375 110.526611328125 C 450.3674621582031 91.35377502441406 450.05828857421875 101.88569641113281 449.9167785644531 73.87460327148438 C 395.329833984375 76.46082305908203 443.8272399902344 67.4697036743164 361.74017333984375 70.36203002929688 C 350.3893737792969 63.55735778808594 391.1643371582031 65.74695587158203 306.4158020019531 64.75055694580078 C 309.544677734375 58.1192741394043 309.0743103027344 62.02470397949219 249.1409454345703 60.76969909667969 C 254.50927734375 54.312408447265625 240.27340698242188 58.023529052734375 201.76327514648438 56.87636947631836 C 203.34571838378906 46.7031364440918 195.1559600830078 55.51304244995117 197.27096557617188 50.27791213989258 C 142.05377197265625 47.72835159301758 106.50910949707031 56.01707077026367 56.97386932373047 61.64198684692383" stroke-width="0.0" fill="rgb(0, 0, 0)" opacity="1.0" stroke="rgb(0, 0, 0)" stroke-opacity="1.0" stroke-linecap="round" stroke-linejoin="round"/>
  </g>
</svg>
