<?xml version="1.0" encoding="utf-8"?>
<!DOCTYPE svg PUBLIC "-//W3C//DTD SVG 20010904//EN" "http://www.w3.org/TR/2001/REC-SVG-20010904/DTD/svg10.dtd">
<svg version="1.0" xmlns="http://www.w3.org/2000/svg" width="602pt" height="602pt" viewBox="0 0 602 602" style="" preserveAspectRatio="xMidYMid meet">
<g fill="#000000FF" stroke="#000000FF">
<path d="M 165.500 141.558 C 164.400 141.812 161.025 142.501 158.000 143.089 C 154.975 143.677 148.279 146.186 143.121 148.664 C 126.075 156.853 112.756 172.724 107.182 191.487 C 103.901 202.534 103.762 218.218 106.846 229.291 C 112.330 248.978 125.277 265.425 141.573 273.405 L 146.906 276.016 145.536 279.899 C 140.460 294.285 137.403 322.072 138.944 339.817 C 144.219 400.570 178.419 451.590 231.858 478.429 C 264.379 494.761 303.805 499.485 339.949 491.378 C 354.342 488.150 362.644 485.175 376.221 478.379 C 395.111 468.923 406.703 460.537 421.287 445.774 C 455.156 411.492 472.833 363.178 468.960 315.479 C 468.017 303.864 465.529 289.384 463.039 281.007 C 461.502 275.837 461.555 275.735 467.382 272.691 C 474.292 269.080 482.242 262.272 488.162 254.895 C 504.554 234.471 507.780 204.081 496.060 180.500 C 486.638 161.543 470.927 148.573 451.000 143.301 C 443.098 141.210 426.804 140.990 419.000 142.869 C 409.196 145.229 395.666 152.446 388.530 159.121 C 383.486 163.839 376.988 171.529 374.470 175.759 C 374.385 175.901 371.375 174.684 367.782 173.055 C 349.518 164.774 328.161 160.610 304.000 160.620 C 278.608 160.631 257.841 165.101 234.440 175.593 C 233.857 175.854 231.643 173.547 229.520 170.464 C 217.966 153.689 197.445 142.463 176.596 141.511 C 171.593 141.283 166.600 141.304 165.500 141.558 "/></g>
<g fill="#DFDFDFFF" stroke="#DFDFDFFF">
<path d="M 420.500 447.457 L 415.500 452.554 420.500 447.457 L 425.500 442.361 420.500 447.457 "/></g>
<g fill="#DFDFDFFF" stroke="#DFDFDFFF">
<path d="M 222.500 161.500 L 228.000 167.000 222.500 161.500 L 217.000 156.000 222.500 161.500 "/></g>
</svg>
