<?xml version="1.0" encoding="utf-8"?>
<!DOCTYPE svg PUBLIC "-//W3C//DTD SVG 20010904//EN" "http://www.w3.org/TR/2001/REC-SVG-20010904/DTD/svg10.dtd">
<svg version="1.0" xmlns="http://www.w3.org/2000/svg" width="602pt" height="602pt" viewBox="0 0 602 602" style="" preserveAspectRatio="xMidYMid meet">
<g fill="#000000FF" stroke="#000000FF">
<path d="M 227.783 90.570 C 225.995 94.465 225.520 97.285 225.522 104.000 C 225.524 113.728 226.787 116.872 234.484 126.321 C 237.028 129.445 238.725 132.000 238.254 132.000 C 237.783 132.000 233.258 129.554 228.199 126.565 C 219.073 121.172 218.992 121.146 217.787 123.315 C 217.109 124.534 216.559 129.256 216.543 134.000 C 216.518 141.331 216.884 143.205 219.209 147.623 C 220.692 150.441 224.627 155.209 227.953 158.219 C 231.279 161.229 234.000 163.975 234.000 164.321 C 234.000 164.666 230.569 163.386 226.375 161.475 C 222.181 159.564 218.356 158.000 217.875 158.000 C 217.394 158.000 217.010 161.713 217.022 166.250 C 217.048 176.154 218.848 180.785 225.384 187.772 C 229.817 192.511 229.867 192.644 228.902 196.941 C 226.983 205.482 229.965 215.635 236.528 222.899 C 238.592 225.184 240.105 227.198 239.890 227.376 C 239.676 227.554 222.625 228.232 202.000 228.883 C 181.375 229.533 155.500 230.606 144.500 231.267 C 133.500 231.927 108.617 232.475 89.204 232.484 L 53.909 232.500 54.569 236.500 C 57.121 251.981 66.094 263.840 79.596 269.578 C 83.118 271.075 86.000 272.624 86.000 273.019 C 86.000 273.865 79.914 274.973 75.183 274.989 C 72.222 274.999 71.934 275.242 72.504 277.250 C 75.877 289.135 87.109 302.026 97.470 305.903 C 100.553 307.056 103.733 308.000 104.538 308.000 C 106.695 308.000 106.315 309.765 104.000 310.500 C 101.311 311.353 101.407 311.778 105.836 318.595 C 113.961 331.101 124.760 337.964 137.608 338.789 L 144.826 339.252 147.960 344.088 C 152.112 350.495 158.101 355.584 165.790 359.237 C 170.790 361.613 173.869 362.329 180.790 362.727 L 189.500 363.227 195.000 368.463 C 204.005 377.035 209.960 379.746 222.235 380.861 L 229.266 381.500 213.883 392.972 C 194.638 407.324 136.167 441.919 104.000 457.985 C 98.225 460.870 93.356 463.359 93.181 463.517 C 92.289 464.321 95.865 468.124 99.443 470.175 C 102.324 471.826 105.674 472.646 111.000 473.005 L 118.500 473.511 113.748 476.499 C 111.134 478.143 109.145 479.941 109.328 480.494 C 109.510 481.047 112.137 482.771 115.164 484.324 C 120.939 487.286 129.519 488.131 137.104 486.487 L 140.500 485.750 138.518 487.960 C 137.428 489.176 134.370 491.760 131.724 493.703 C 129.077 495.646 127.081 497.745 127.288 498.368 C 127.860 500.086 135.978 502.884 140.568 502.946 C 146.113 503.020 153.541 500.678 159.250 497.057 C 161.863 495.400 164.000 494.360 164.000 494.745 C 164.000 495.131 161.263 498.207 157.919 501.582 L 151.837 507.718 156.169 509.469 C 169.536 514.872 184.438 508.905 197.299 493.000 C 205.704 482.604 222.667 456.547 234.000 436.623 C 241.993 422.570 243.817 419.990 245.500 420.363 C 246.600 420.607 253.935 423.099 261.799 425.902 C 283.713 433.711 302.362 438.503 322.500 441.500 C 336.132 443.529 365.197 443.490 376.066 441.428 C 402.692 436.377 422.295 425.739 441.380 405.986 C 460.475 386.221 473.718 362.922 497.357 307.500 C 503.691 292.650 510.229 277.521 511.887 273.881 L 514.901 267.262 528.201 266.610 C 553.304 265.379 561.132 264.732 560.316 263.954 C 556.646 260.455 540.361 254.337 522.526 249.759 C 515.147 247.865 513.340 247.015 512.362 244.978 C 511.707 243.615 509.528 239.002 507.520 234.727 C 492.350 202.437 457.693 201.355 411.605 231.733 C 405.570 235.711 400.584 238.861 400.526 238.733 C 400.467 238.605 398.446 235.800 396.033 232.500 C 385.025 217.441 343.443 180.375 277.000 126.394 C 256.218 109.510 247.607 102.086 233.773 89.130 L 230.047 85.640 227.783 90.570 "/></g>
<g fill="#C7C7C7FF" stroke="#C7C7C7FF">
<path d="M 526.500 250.659 C 543.889 255.706 557.123 260.910 560.316 263.954 C 561.132 264.732 553.304 265.379 528.201 266.610 L 514.901 267.262 511.887 273.881 C 510.229 277.521 503.691 292.650 497.357 307.500 C 473.718 362.922 460.475 386.221 441.380 405.986 C 422.295 425.739 402.692 436.377 376.066 441.428 C 365.197 443.490 336.132 443.529 322.500 441.500 C 302.362 438.503 283.713 433.711 261.799 425.902 C 253.935 423.099 246.600 420.607 245.500 420.363 C 243.817 419.990 241.993 422.570 234.000 436.623 C 222.640 456.595 205.683 482.635 197.288 493.000 C 191.102 500.637 187.860 503.479 180.586 507.639 C 178.339 508.924 176.993 509.981 177.595 509.988 C 180.146 510.016 190.883 501.911 195.555 496.430 C 205.552 484.704 219.067 464.302 234.039 438.338 C 239.061 429.627 243.493 422.162 243.887 421.748 C 244.281 421.335 250.010 422.996 256.618 425.439 C 294.411 439.413 329.463 446.031 358.000 444.580 C 411.665 441.851 448.258 414.073 477.985 353.500 C 482.303 344.700 491.960 323.168 499.444 305.651 C 506.928 288.134 513.696 272.555 514.484 271.031 L 515.917 268.260 531.208 267.611 C 539.619 267.253 550.311 266.684 554.968 266.344 L 563.436 265.727 560.018 262.873 C 555.695 259.265 544.811 254.714 532.815 251.501 C 522.944 248.856 518.034 248.202 526.500 250.659 "/></g>
<g fill="#C7C7C7FF" stroke="#C7C7C7FF">
<path d="M 229.583 85.750 C 229.171 86.163 229.270 86.500 229.803 86.500 C 230.337 86.500 236.562 91.740 243.637 98.145 C 250.712 104.550 266.625 118.011 279.000 128.057 C 343.480 180.405 385.106 217.552 396.033 232.500 C 398.446 235.800 400.475 238.612 400.543 238.750 C 400.743 239.155 419.454 226.484 420.000 225.572 C 420.275 225.113 416.114 227.671 410.753 231.255 L 401.006 237.772 398.040 233.740 C 385.442 216.609 341.602 177.183 280.119 127.692 C 256.273 108.497 232.000 87.351 232.000 85.772 C 232.000 84.786 230.560 84.773 229.583 85.750 "/></g>
<g fill="#C7C7C7FF" stroke="#C7C7C7FF">
<path d="M 209.461 395.237 C 205.082 398.619 195.875 404.731 189.000 408.820 C 163.406 424.040 120.027 448.510 105.783 455.762 C 92.517 462.517 91.167 463.443 92.085 465.159 C 94.742 470.123 106.908 475.705 113.160 474.828 C 114.882 474.587 114.377 475.181 111.252 477.077 L 107.004 479.655 109.252 481.765 C 112.589 484.898 120.020 487.969 124.000 487.860 C 127.113 487.775 126.972 487.676 122.723 486.961 C 118.139 486.191 109.000 481.688 109.000 480.201 C 109.000 479.807 111.138 478.141 113.750 476.498 L 118.500 473.511 111.000 473.005 C 105.674 472.646 102.324 471.826 99.443 470.175 C 95.865 468.124 92.289 464.321 93.181 463.517 C 93.356 463.359 98.225 460.870 104.000 457.985 C 131.817 444.092 195.272 407.022 208.558 396.904 C 213.766 392.938 217.890 389.557 217.724 389.391 C 217.558 389.224 213.839 391.855 209.461 395.237 "/></g>
<g fill="#C7C7C7FF" stroke="#C7C7C7FF">
<path d="M 74.009 283.595 C 74.004 284.197 75.738 287.379 77.862 290.665 C 82.911 298.477 90.997 305.022 99.231 307.961 C 100.992 308.590 101.767 309.444 101.413 310.367 C 100.485 312.783 105.914 322.045 111.577 327.708 C 118.651 334.782 127.806 339.110 137.101 339.775 C 143.564 340.238 144.129 340.473 145.982 343.471 C 150.006 349.982 163.919 361.177 167.710 360.953 C 168.145 360.928 166.475 359.842 164.000 358.541 C 157.703 355.231 151.641 349.768 147.960 344.088 L 144.826 339.252 137.608 338.789 C 124.760 337.964 113.961 331.101 105.836 318.595 C 101.407 311.778 101.311 311.353 104.000 310.500 C 106.315 309.765 106.695 308.000 104.538 308.000 C 103.733 308.000 100.568 307.062 97.503 305.915 C 90.710 303.374 81.051 294.760 76.922 287.561 C 75.325 284.778 74.015 282.993 74.009 283.595 "/></g>
<g fill="#C7C7C7FF" stroke="#C7C7C7FF">
<path d="M 486.943 213.059 C 496.721 217.495 505.685 227.945 510.101 240.058 C 512.591 246.887 513.456 247.801 518.095 248.505 L 521.500 249.021 517.683 247.761 C 514.267 246.632 513.595 245.818 511.280 240.000 C 507.707 231.019 503.184 224.213 497.403 219.117 C 492.419 214.724 486.127 210.982 483.790 211.022 C 483.080 211.034 484.499 211.951 486.943 213.059 "/></g>
<g fill="#C7C7C7FF" stroke="#C7C7C7FF">
<path d="M 217.047 144.290 C 216.937 146.149 221.290 153.221 224.843 156.955 C 226.959 159.180 228.520 161.000 228.312 161.000 C 228.104 161.000 225.654 159.845 222.867 158.433 C 220.081 157.021 217.546 156.121 217.234 156.433 C 216.922 156.745 216.854 157.139 217.083 157.309 C 218.598 158.432 234.000 164.804 234.000 164.308 C 234.000 163.969 231.280 161.231 227.957 158.223 C 224.633 155.215 220.829 150.671 219.503 148.127 C 218.178 145.582 217.072 143.855 217.047 144.290 "/></g>
<g fill="#C7C7C7FF" stroke="#C7C7C7FF">
<path d="M 59.531 253.060 C 63.172 260.101 72.280 267.996 80.500 271.236 L 84.500 272.813 78.228 273.538 C 74.778 273.937 71.771 274.562 71.545 274.927 C 71.320 275.292 73.692 275.271 76.818 274.880 C 79.943 274.489 83.288 274.131 84.250 274.084 C 87.647 273.921 85.926 272.269 79.525 269.548 C 71.893 266.305 64.983 260.533 61.389 254.401 C 58.452 249.389 57.145 248.446 59.531 253.060 "/></g>
<g fill="#C7C7C7FF" stroke="#C7C7C7FF">
<path d="M 159.000 497.182 C 156.525 498.773 152.475 500.702 150.000 501.468 C 147.525 502.234 146.400 502.882 147.500 502.908 C 148.600 502.935 151.462 502.066 153.859 500.978 C 156.257 499.890 158.488 499.000 158.817 499.000 C 159.147 499.000 157.468 500.985 155.087 503.412 L 150.757 507.823 153.829 509.412 C 155.518 510.285 157.486 510.977 158.200 510.948 C 158.915 510.920 157.775 510.182 155.668 509.309 L 151.835 507.720 158.112 501.387 C 161.564 497.904 164.188 494.882 163.944 494.671 C 163.700 494.461 161.475 495.590 159.000 497.182 "/></g>
<g fill="#C7C7C7FF" stroke="#C7C7C7FF">
<path d="M 133.000 487.000 L 128.500 487.700 132.890 487.850 L 137.279 488.000 131.185 492.750 C 127.833 495.363 125.070 497.797 125.045 498.161 C 124.984 499.056 133.272 503.014 135.066 502.946 C 135.855 502.916 134.512 502.128 132.083 501.196 C 129.653 500.263 127.496 498.990 127.288 498.368 C 127.081 497.745 129.077 495.646 131.724 493.703 C 134.370 491.760 137.385 489.232 138.423 488.085 C 140.487 485.805 140.575 485.822 133.000 487.000 "/></g>
<g fill="#C7C7C7FF" stroke="#C7C7C7FF">
<path d="M 217.850 121.000 C 217.443 123.715 217.566 124.338 218.204 122.787 C 218.817 121.299 220.117 121.789 228.153 126.537 C 237.941 132.321 240.443 133.253 237.521 130.024 C 236.538 128.937 235.415 128.243 235.027 128.483 C 234.639 128.723 230.893 126.913 226.702 124.460 C 218.487 119.651 218.076 119.490 217.850 121.000 "/></g>
<g fill="#C7C7C7FF" stroke="#C7C7C7FF">
<path d="M 230.000 214.654 C 230.000 215.994 235.104 223.039 237.496 225.000 C 239.160 226.365 238.521 226.551 230.412 227.061 L 221.500 227.622 230.750 227.811 C 235.838 227.915 240.000 227.620 240.000 227.155 C 240.000 226.690 239.032 225.453 237.849 224.405 C 236.665 223.357 234.415 220.499 232.849 218.054 C 231.282 215.609 230.000 214.079 230.000 214.654 "/></g>
<g fill="#C7C7C7FF" stroke="#C7C7C7FF">
<path d="M 183.438 363.745 C 188.976 364.086 189.718 364.439 194.438 368.968 L 199.500 373.825 194.579 368.412 L 189.658 363.000 183.579 363.189 L 177.500 363.378 183.438 363.745 "/></g>
<g fill="#C7C7C7FF" stroke="#C7C7C7FF">
<path d="M 218.000 178.654 C 218.000 179.229 219.409 181.680 221.131 184.100 C 224.439 188.747 230.000 194.410 230.000 193.131 C 230.000 192.715 228.590 191.052 226.866 189.437 C 225.142 187.822 222.442 184.499 220.866 182.054 C 219.290 179.609 218.000 178.079 218.000 178.654 "/></g>
<g fill="#C7C7C7FF" stroke="#C7C7C7FF">
<path d="M 223.356 381.735 L 227.213 382.133 223.046 385.317 C 220.755 387.068 219.695 388.136 220.690 387.692 C 221.686 387.247 224.075 385.572 226.000 383.968 L 229.500 381.054 224.500 381.195 C 220.045 381.321 219.920 381.380 223.356 381.735 "/></g>
<g fill="#C7C7C7FF" stroke="#C7C7C7FF">
<path d="M 226.012 114.636 C 225.995 116.258 234.121 128.213 234.787 127.546 C 235.092 127.242 234.398 125.981 233.245 124.746 C 232.092 123.511 229.996 120.475 228.586 118.000 C 227.177 115.525 226.019 114.011 226.012 114.636 "/></g>
<g fill="#C7C7C7FF" stroke="#C7C7C7FF">
<path d="M 437.500 216.434 C 430.930 219.598 432.211 219.696 439.122 216.558 C 442.080 215.214 444.050 214.095 443.500 214.070 C 442.950 214.046 440.250 215.109 437.500 216.434 "/></g>
</svg>
