<?xml version="1.0" encoding="utf-8"?>
<!DOCTYPE svg PUBLIC "-//W3C//DTD SVG 20010904//EN" "http://www.w3.org/TR/2001/REC-SVG-20010904/DTD/svg10.dtd">
<svg version="1.0" xmlns="http://www.w3.org/2000/svg" width="602pt" height="602pt" viewBox="0 0 602 602" style="" preserveAspectRatio="xMidYMid meet">
<g fill="#000000FF" stroke="#000000FF">
<path d="M 281.000 53.089 C 250.375 56.033 222.254 64.269 194.000 78.571 C 168.187 91.638 149.216 105.696 128.482 127.122 C 92.849 163.945 71.154 208.119 62.975 260.500 C 59.890 280.257 59.877 311.574 62.945 331.500 C 65.473 347.922 70.620 368.361 75.632 381.885 C 89.584 419.535 115.779 456.890 146.000 482.234 C 182.600 512.927 223.014 531.094 270.144 538.039 C 286.902 540.509 315.439 540.975 331.500 539.042 C 377.583 533.496 421.833 515.068 457.500 486.570 C 467.133 478.874 485.906 460.177 493.705 450.513 C 522.842 414.410 541.427 370.151 547.042 323.500 C 548.975 307.439 548.509 278.902 546.039 262.144 C 541.400 230.666 532.732 204.730 517.915 178.000 C 492.405 131.981 452.355 95.047 404.981 73.854 C 365.518 56.200 322.902 49.062 281.000 53.089 "/></g>
<g fill="#BFBFBFFF" stroke="#BFBFBFFF">
<path d="M 477.000 123.000 L 486.000 132.000 477.000 123.000 L 468.000 114.000 477.000 123.000 "/></g>
<g fill="#BFBFBFFF" stroke="#BFBFBFFF">
<path d="M 131.500 469.500 L 140.000 478.000 131.500 469.500 L 123.000 461.000 131.500 469.500 "/></g>
<g fill="#404040FF" stroke="#404040FF">
<path d="M 132.000 122.961 L 126.500 128.551 132.000 122.961 L 137.500 117.370 132.000 122.961 "/></g>
</svg>
