<?xml version="1.0" encoding="utf-8"?>
<!DOCTYPE svg PUBLIC "-//W3C//DTD SVG 20010904//EN" "http://www.w3.org/TR/2001/REC-SVG-20010904/DTD/svg10.dtd">
<svg version="1.0" xmlns="http://www.w3.org/2000/svg" width="602pt" height="602pt" viewBox="0 0 602 602" style="" preserveAspectRatio="xMidYMid meet">
<g fill="#000000FF" stroke="#000000FF">
<path d="M 340.177 38.034 C 338.349 39.148 337.082 40.609 337.362 41.280 C 339.466 46.330 340.262 50.222 339.315 50.829 C 338.738 51.198 338.319 52.625 338.383 54.000 C 338.494 56.374 338.130 56.545 331.162 57.399 C 324.154 58.257 323.578 58.532 318.352 63.513 C 311.944 69.622 310.588 73.587 309.477 89.475 C 309.094 94.961 308.406 100.432 307.950 101.633 C 306.977 104.190 305.051 103.915 293.500 99.571 C 288.595 97.726 283.651 96.757 276.979 96.332 C 268.379 95.784 267.025 95.945 262.979 97.990 C 250.152 104.474 233.371 119.771 227.971 129.903 C 226.263 133.108 221.971 139.212 218.433 143.467 C 214.895 147.722 212.000 151.523 212.000 151.914 C 212.000 152.304 211.154 153.531 210.121 154.640 C 208.034 156.880 203.584 163.632 200.658 169.000 C 199.608 170.925 198.315 172.777 197.783 173.116 C 196.462 173.957 191.290 183.110 183.859 197.758 C 177.976 209.356 177.617 210.472 177.197 218.469 C 176.786 226.297 176.977 227.387 179.778 233.211 C 181.442 236.670 183.305 241.378 183.919 243.673 C 184.533 245.967 185.388 247.992 185.818 248.173 C 186.248 248.353 188.263 251.494 190.295 255.153 C 194.841 263.339 204.406 275.037 211.321 280.866 C 217.900 286.412 217.966 286.526 217.989 292.500 C 218.000 295.250 219.116 300.650 220.468 304.500 C 223.109 312.015 223.049 316.808 220.243 322.500 C 218.571 325.891 209.740 335.000 208.123 335.000 C 206.783 335.000 202.000 350.514 202.000 354.860 C 202.000 359.513 199.963 372.012 198.721 374.982 C 198.142 376.367 197.623 377.725 197.570 378.000 C 197.516 378.275 195.295 382.478 192.634 387.341 C 189.973 392.203 187.703 396.703 187.588 397.341 C 187.474 397.978 185.246 403.000 182.638 408.500 C 180.030 414.000 176.849 420.750 175.568 423.500 C 174.288 426.250 171.222 432.775 168.755 438.000 C 166.288 443.225 163.257 450.200 162.020 453.500 C 160.782 456.800 159.096 461.075 158.273 463.000 C 156.375 467.437 154.426 475.067 153.547 481.500 C 152.515 489.061 150.881 494.087 148.055 498.400 C 143.482 505.379 142.284 508.077 141.576 513.000 C 141.298 514.925 140.777 518.429 140.417 520.786 C 140.057 523.143 138.713 526.618 137.430 528.508 C 134.699 532.533 132.000 540.013 132.000 543.560 C 132.000 544.929 131.089 548.626 129.975 551.775 C 126.967 560.282 125.063 569.151 123.487 582.000 C 122.711 588.325 121.774 595.194 121.405 597.265 L 120.733 601.031 149.944 600.765 L 179.154 600.500 180.924 595.473 C 181.897 592.709 183.009 588.659 183.395 586.473 C 184.157 582.157 190.372 562.349 192.487 557.500 C 193.206 555.850 194.096 552.025 194.464 549.000 C 195.214 542.844 197.759 533.028 199.003 531.500 C 199.450 530.950 200.715 527.936 201.814 524.802 C 203.094 521.152 205.058 518.010 207.278 516.061 C 218.948 505.815 223.255 500.379 230.076 487.287 C 238.085 471.916 241.706 466.940 257.137 450.096 C 263.387 443.274 270.180 435.697 272.233 433.258 C 278.612 425.680 286.121 420.969 292.206 420.726 C 295.531 420.594 296.598 421.018 297.899 422.987 C 298.780 424.320 301.324 427.681 303.552 430.456 C 305.781 433.230 308.382 437.525 309.331 440.000 C 310.281 442.475 312.371 446.300 313.977 448.500 C 316.853 452.440 325.479 469.234 328.066 475.930 C 328.795 477.817 330.879 481.308 332.696 483.689 C 334.513 486.069 336.000 488.281 336.000 488.604 C 336.000 488.927 336.917 490.479 338.037 492.053 C 339.158 493.626 340.621 496.402 341.287 498.221 C 341.954 500.039 344.406 504.896 346.735 509.014 C 350.148 515.046 352.091 517.244 356.735 520.330 C 361.302 523.364 363.116 525.390 365.466 530.080 C 367.097 533.336 368.837 536.000 369.332 536.000 C 369.828 536.000 369.998 536.900 369.711 537.999 C 369.423 539.098 369.596 540.250 370.094 540.558 C 370.592 540.866 371.000 542.678 371.000 544.584 C 371.000 546.490 371.953 550.626 373.117 553.775 C 375.619 560.542 376.521 566.436 378.090 586.250 L 379.258 601.000 406.048 601.000 L 432.839 601.000 431.999 597.750 C 431.537 595.963 430.857 587.750 430.486 579.500 C 430.116 571.250 429.183 561.350 428.412 557.500 C 427.641 553.650 426.771 548.513 426.479 546.084 C 426.186 543.656 425.090 539.731 424.043 537.363 C 422.271 533.360 422.247 532.781 423.693 529.099 C 425.691 524.013 424.766 518.748 421.411 516.109 C 420.028 515.021 418.929 513.868 418.969 513.546 C 419.009 513.224 418.208 512.067 417.190 510.973 C 416.086 509.789 414.068 503.633 412.196 495.743 C 410.469 488.459 408.364 479.575 407.519 476.000 C 406.673 472.425 405.854 468.983 405.697 468.351 C 405.541 467.719 404.868 466.546 404.203 465.744 C 403.537 464.943 402.576 462.310 402.067 459.893 C 401.557 457.477 399.805 451.675 398.174 447.000 C 395.121 438.254 393.427 429.010 392.515 416.126 C 391.942 408.024 390.585 405.239 378.711 387.802 L 372.788 379.104 372.328 369.302 C 371.401 349.520 371.379 349.927 373.451 348.412 C 374.513 347.636 376.421 347.000 377.691 347.000 C 378.961 347.000 380.000 346.594 380.000 346.098 C 380.000 345.602 381.238 344.722 382.750 344.144 C 384.263 343.566 386.193 342.509 387.040 341.796 C 389.664 339.588 394.618 331.572 396.545 326.417 C 397.555 323.713 398.930 320.600 399.599 319.500 C 400.269 318.400 401.372 313.338 402.050 308.250 C 402.729 303.163 403.630 299.000 404.053 299.000 C 404.476 299.000 405.802 296.975 407.000 294.501 C 408.913 290.549 409.142 288.632 408.882 278.751 C 408.690 271.432 409.071 265.677 409.973 262.286 C 411.087 258.098 411.127 256.064 410.180 251.959 C 409.531 249.148 408.992 242.269 408.983 236.674 C 408.973 231.078 408.522 222.293 407.981 217.152 C 407.074 208.542 406.503 206.844 400.748 195.657 C 397.312 188.977 394.252 183.284 393.949 183.006 C 393.646 182.728 391.284 178.337 388.699 173.249 C 383.087 162.200 382.612 157.146 386.513 150.000 C 387.865 147.525 389.507 144.469 390.164 143.210 C 391.085 141.444 391.946 141.044 393.929 141.463 C 405.481 143.903 410.848 141.044 413.051 131.274 C 413.510 129.237 413.405 128.000 412.772 128.000 C 412.210 128.000 412.345 127.289 413.075 126.410 C 413.910 125.404 414.670 120.166 415.142 112.160 C 416.026 97.191 414.558 90.879 408.801 84.890 C 408.066 84.126 406.663 81.700 405.682 79.500 C 402.865 73.177 395.545 66.259 386.813 61.664 C 375.922 55.935 375.263 55.548 373.178 53.661 C 372.169 52.748 369.904 52.000 368.147 52.000 C 365.587 52.000 363.735 50.806 358.838 46.000 C 355.244 42.472 351.851 40.000 350.603 40.000 C 349.436 40.000 347.919 39.100 347.232 38.000 C 345.662 35.486 344.346 35.492 340.177 38.034 "/></g>
</svg>
