<?xml version="1.0" encoding="utf-8"?>
<!DOCTYPE svg PUBLIC "-//W3C//DTD SVG 20010904//EN" "http://www.w3.org/TR/2001/REC-SVG-20010904/DTD/svg10.dtd">
<svg version="1.0" xmlns="http://www.w3.org/2000/svg" width="602pt" height="602pt" viewBox="0 0 602 602" style="" preserveAspectRatio="xMidYMid meet">
<g fill="#D4D4D4FF" stroke="#D4D4D4FF">
<path d="M 205.214 103.891 C 202.307 104.895 197.582 107.283 194.714 109.197 C 191.846 111.112 186.213 114.585 182.195 116.916 C 173.089 122.199 159.125 133.751 152.393 141.569 C 135.647 161.017 127.000 180.908 127.000 199.978 C 127.000 213.872 131.268 224.273 140.628 233.187 C 145.305 237.642 155.087 243.641 159.116 244.526 L 162.046 245.169 158.379 250.165 C 149.565 262.171 147.978 273.161 152.487 290.949 C 159.235 317.569 173.656 344.565 187.823 357.095 C 203.120 370.625 220.844 377.495 234.011 374.998 C 242.417 373.404 250.777 376.704 251.118 381.750 C 251.454 386.704 249.446 389.000 244.777 389.000 C 238.406 389.000 241.695 395.929 249.122 398.155 C 252.317 399.112 253.460 398.981 256.932 397.263 C 261.918 394.797 262.040 395.600 257.924 403.835 C 252.925 413.839 244.805 419.162 232.000 420.828 L 226.500 421.543 226.615 427.021 C 226.759 433.926 230.958 443.073 238.900 453.784 C 248.716 467.023 258.043 474.293 284.500 489.328 C 303.601 500.184 312.057 506.174 319.218 513.924 C 325.445 520.663 331.201 531.172 332.512 538.198 C 332.892 540.231 333.778 542.681 334.480 543.642 C 335.688 545.294 335.900 545.296 338.367 543.679 C 339.803 542.738 342.322 539.615 343.964 536.739 C 351.003 524.415 351.840 506.563 346.828 475.694 C 343.864 457.438 343.706 455.324 344.817 448.694 C 346.255 440.104 349.986 428.943 351.630 428.312 C 352.277 428.063 359.055 429.872 366.692 432.331 C 389.276 439.603 407.398 440.586 417.995 435.114 C 421.009 433.557 421.769 432.381 423.511 426.576 C 425.537 419.826 428.166 416.273 435.950 409.763 C 438.702 407.462 439.149 406.508 438.763 403.763 C 438.511 401.969 437.999 399.807 437.626 398.960 C 437.129 397.832 437.882 397.083 440.443 396.157 C 447.772 393.507 450.354 385.948 445.250 382.086 L 442.500 380.004 445.186 377.605 C 446.664 376.285 450.806 374.229 454.391 373.036 C 462.136 370.459 467.000 365.745 467.000 360.816 C 467.000 357.728 458.150 342.141 446.799 325.238 C 442.650 319.060 441.835 317.044 441.340 311.737 L 440.757 305.499 445.769 303.382 C 451.329 301.033 453.795 298.038 454.685 292.553 L 455.279 288.894 450.139 289.576 C 447.313 289.951 445.000 290.003 445.000 289.691 C 445.000 289.379 445.755 286.059 446.677 282.312 C 447.856 277.521 448.377 270.901 448.431 260.000 L 448.508 244.500 451.671 239.000 C 459.953 224.599 461.350 208.537 455.411 196.000 C 448.287 180.961 425.222 163.858 405.619 159.081 C 391.427 155.622 389.790 154.318 380.420 139.000 C 370.597 122.943 361.322 115.608 342.705 109.175 C 333.004 105.823 331.833 105.648 319.000 105.634 C 308.005 105.622 304.016 106.037 297.500 107.870 C 287.501 110.683 273.569 117.260 264.780 123.316 L 258.059 127.946 255.117 123.723 C 251.870 119.061 244.177 111.452 239.460 108.235 C 230.755 102.301 215.442 100.358 205.214 103.891 "/></g>
<g fill="#000000FF" stroke="#000000FF">
<path d="M 206.214 104.831 C 203.307 105.868 198.582 108.300 195.714 110.235 C 192.846 112.170 187.213 115.642 183.196 117.952 C 152.759 135.451 129.961 168.286 128.288 197.035 C 127.403 212.239 131.180 222.100 141.751 232.179 C 146.819 237.012 158.727 244.000 161.893 244.000 C 163.821 244.000 163.106 246.088 159.488 251.017 C 151.692 261.637 149.434 272.658 152.426 285.500 C 158.587 311.953 170.718 336.940 184.765 352.113 C 190.951 358.794 203.752 367.710 212.000 371.081 C 216.692 372.999 219.482 373.347 231.000 373.452 C 245.113 373.581 247.899 374.258 251.228 378.367 C 252.178 379.540 252.966 381.969 252.978 383.765 C 252.996 386.385 252.359 387.421 249.750 389.017 C 247.963 390.110 245.952 390.798 245.282 390.546 C 242.723 389.583 242.802 392.433 245.396 394.664 C 248.805 397.596 254.287 397.732 258.774 394.996 C 260.575 393.898 262.298 393.000 262.604 393.000 C 263.638 393.000 261.767 399.474 259.343 404.284 C 254.226 414.438 245.344 420.518 233.709 421.831 L 227.500 422.532 227.646 427.085 C 227.744 430.131 229.029 434.098 231.528 439.069 C 242.222 460.341 252.328 469.448 287.596 489.594 C 306.198 500.220 309.359 502.414 316.994 510.000 C 326.171 519.118 330.618 526.248 333.522 536.500 C 334.457 539.800 335.559 542.865 335.971 543.310 C 336.910 544.325 341.440 539.018 344.122 533.760 C 349.262 523.685 350.381 504.340 346.941 485.000 C 341.519 454.509 341.873 445.183 349.043 429.750 C 350.729 426.121 352.616 426.212 365.413 430.540 C 379.590 435.334 387.875 436.962 398.201 436.983 C 408.600 437.003 416.532 435.468 419.053 432.947 C 420.066 431.934 421.405 429.169 422.029 426.803 C 423.772 420.193 427.344 414.810 432.397 411.181 C 437.707 407.368 438.809 404.465 436.581 400.157 C 434.539 396.208 434.492 396.352 438.065 395.637 C 441.758 394.898 447.000 389.926 447.000 387.160 C 447.000 386.064 445.809 384.299 444.353 383.238 C 442.284 381.731 441.842 380.768 442.329 378.826 C 442.986 376.207 445.068 374.961 453.967 371.862 C 460.314 369.652 464.640 365.914 465.528 361.874 C 466.191 358.852 463.177 353.247 449.367 331.827 C 440.523 318.109 440.000 316.891 440.000 310.018 C 440.000 305.100 440.335 303.834 441.750 303.396 C 449.116 301.116 452.157 298.378 453.530 292.792 C 454.174 290.172 454.096 290.112 451.141 290.959 C 447.140 292.107 444.000 291.222 444.000 288.945 C 444.000 287.944 444.761 284.059 445.690 280.312 C 446.880 275.518 447.399 269.057 447.440 258.500 C 447.500 243.552 447.511 243.481 450.651 238.000 C 455.908 228.822 457.360 223.470 457.434 213.000 C 457.495 204.281 457.232 202.935 454.245 196.626 C 450.123 187.923 441.961 179.788 428.487 170.951 C 416.681 163.208 414.856 162.363 405.858 160.470 C 397.969 158.811 392.404 156.662 389.648 154.212 C 388.589 153.270 383.930 146.746 379.295 139.713 C 369.907 125.467 364.447 120.337 352.500 114.533 C 325.295 101.318 294.868 104.770 265.607 124.392 C 261.827 126.926 258.406 129.000 258.004 129.000 C 257.601 129.000 256.045 127.230 254.546 125.066 C 249.749 118.145 240.411 110.087 233.364 106.790 C 224.692 102.731 214.218 101.976 206.214 104.831 "/></g>
</svg>
